  0
SECTION
  2
HEADER
  9
$TEXTSIZE
 40
2.5
  9
$ACADVER
  1
AC1009
  9
$DIMASZ
 40
3.863703297614046
  9
$DIMEXE
 40
2.000000000000000
  9
$DIMEXO
 40
1.000000000000000
  9
$DIMLFAC
 40
1.000000000000000
  9
$DIMSCALE
 40
1.000000000000000
  9
$DIMTAD
 70
1
  9
$DIMTFAC
 40
0.625000000000000
  9
$DIMTXT
 40
3.200000047683716
  9
$LUPREC
 70
3
  9
$REGENMODE
 70
1
  9
$TEXTSTYLE
  7
STANDARD1
  0
ENDSEC
  0
SECTION
  2
TABLES
  0
TABLE
  2
LTYPE
 70
4
  0
LTYPE
  2
CONTINUOUS
 70
64
  3
Solid line
 72
65
 73
0
 40
0.0
  0
LTYPE
  2
DASHED
 70
64
  3
-- -- -- -- -- -- -- -- -- -- -- -- -- -- --
 72
65
 73
2
 40
0.75
 49
0.5
 49
-0.25
  0
LTYPE
  2
DASHDOT
 70
64
  3
__ . __ . __ . __ . __ . __ . __ . __ . __ . __
 72
65
 73
4
 40
1.0
 49
0.5
 49
-0.25
 49
0.0
 49
-0.25
  0
LTYPE
  2
DIVIDE
 70
64
  3
__ . . __ . . __ . . __ . . __ . . __ . . __
 72
65
 73
6
 40
1.25
 49
0.5
 49
-0.25
 49
0.0
 49
-0.25
 49
0.0
 49
-0.25
  0
ENDTAB
  0
TABLE
  2
LAYER
 70
1
  0
LAYER
  2
0
 70
64
 62
2
  6
CONTINUOUS
  0
ENDTAB
  0
TABLE
  2
STYLE
 70
4
  0
STYLE
  2
STANDARD1
 70
64
 40
0.0
 41
1.0
 50
0.0
 71
0
 42
3.200000047683716
  3
MONOTXT
  4
BIGFONT
  0
STYLE
  2
STANDARD2
 70
68
 40
0.0
 41
1.0
 50
0.0
 71
0
 42
3.200000047683716
  3
MONOTXT
  4
BIGFONT
  0
STYLE
  2
STANDARD3
 70
64
 40
0.0
 41
1.0
 50
0.0
 71
0
 42
3.200000047683716
  3
MONOTXT
  4

  0
STYLE
  2
STANDARD4
 70
68
 40
0.0
 41
1.0
 50
0.0
 71
0
 42
3.200000047683716
  3
MONOTXT
  4

  0
ENDTAB
  0
TABLE
  2
VIEW
 70
0
  0
ENDTAB
  0
ENDSEC
  0
SECTION
  2
BLOCKS
  0
BLOCK
  8
0
  2
ZU_SYM_1
 70
64
 10
0.000000000000000
 20
0.000000000000000
  0
LINE
  8
0
  6
CONTINUOUS
 62
256
 10
0.000000000000000
 20
-4.249999046325684
 11
-5.000000000000000
 21
-4.249999046325684
  0
LINE
  8
0
  6
CONTINUOUS
 62
256
 10
0.000000000000000
 20
4.249999046325684
 11
-5.000000000000000
 21
4.249999046325684
  0
LINE
  8
0
  6
CONTINUOUS
 62
256
 10
-5.000000000000000
 20
-4.249999046325684
 11
-5.000000000000000
 21
4.249999046325684
  0
LINE
  8
0
  6
CONTINUOUS
 62
256
 10
0.000000000000000
 20
-4.249999046325684
 11
0.000000000000000
 21
4.249999046325684
  0
POINT
  8
0
  6
CONTINUOUS
 62
256
 10
0.000000000000000
 20
0.000000000000000
  0
ENDBLK
  8
0
  0
BLOCK
  8
0
  2
ZU_SYM_2
 70
64
 10
0.000000000000000
 20
0.000000000000000
  0
ARC
  8
0
  6
CONTINUOUS
 62
256
 10
-0.979025304317474
 20
-2.200000762939453
 40
1.299999237060547
 50
196.601531107481040
 51
270.000000000000000
  0
ARC
  8
0
  6
CONTINUOUS
 62
256
 10
-0.979025304317474
 20
2.200000762939453
 40
1.299999237060547
 50
90.000000000000000
 51
163.398451589674950
  0
LINE
  8
0
  6
CONTINUOUS
 62
256
 10
0.000000000000000
 20
-3.500000000000000
 11
-0.979025304317474
 21
-3.500000000000000
  0
LINE
  8
0
  6
CONTINUOUS
 62
256
 10
0.000000000000000
 20
3.500000000000000
 11
-0.979025304317474
 21
3.500000000000000
  0
LINE
  8
0
  6
CONTINUOUS
 62
256
 10
0.000000000000000
 20
-3.500000000000000
 11
0.000000000000000
 21
3.500000000000000
  0
LINE
  8
0
  6
CONTINUOUS
 62
256
 10
0.000000000000000
 20
-3.500000000000000
 11
0.000000000000000
 21
3.500000000000000
  0
POINT
  8
0
  6
CONTINUOUS
 62
256
 10
0.000000000000000
 20
0.000000000000000
  0
ARC
  8
0
  6
CONTINUOUS
 62
256
 10
6.399999618530273
 20
0.000000000000000
 40
9.000000000000000
 50
163.398451589674950
 51
196.601531107481040
  0
ENDBLK
  8
0
  0
BLOCK
  8
0
  2
ZU_SYM_3
 70
64
 10
0.000000000000000
 20
0.000000000000000
  0
ARC
  8
0
  6
CONTINUOUS
 62
256
 10
-0.979025304317474
 20
-2.200000762939453
 40
1.299999237060547
 50
196.601531107481040
 51
270.000000000000000
  0
ARC
  8
0
  6
CONTINUOUS
 62
256
 10
-0.979025304317474
 20
2.200000762939453
 40
1.299999237060547
 50
90.000000000000000
 51
163.398451589674950
  0
LINE
  8
0
  6
CONTINUOUS
 62
256
 10
0.000000000000000
 20
-3.500000000000000
 11
-0.979025304317474
 21
-3.500000000000000
  0
LINE
  8
0
  6
CONTINUOUS
 62
256
 10
0.000000000000000
 20
3.500000000000000
 11
-0.979025304317474
 21
3.500000000000000
  0
LINE
  8
0
  6
CONTINUOUS
 62
256
 10
0.000000000000000
 20
-3.500000000000000
 11
0.000000000000000
 21
3.500000000000000
  0
LINE
  8
0
  6
CONTINUOUS
 62
256
 10
0.000000000000000
 20
-3.500000000000000
 11
0.000000000000000
 21
3.500000000000000
  0
POINT
  8
0
  6
CONTINUOUS
 62
256
 10
0.000000000000000
 20
0.000000000000000
  0
ARC
  8
0
  6
CONTINUOUS
 62
256
 10
6.399999618530273
 20
0.000000000000000
 40
9.000000000000000
 50
163.398451589674950
 51
196.601531107481040
  0
ENDBLK
  8
0
  0
ENDSEC
  0
SECTION
  2
ENTITIES
  0
ARC
  8
0
  6
CONTINUOUS
 62
256
 10
168.626882168186510
 20
-76.065032616936435
 40
0.399999999999977
 50
0.000000000000000
 51
90.000000000000000
  0
ARC
  8
0
  6
CONTINUOUS
 62
256
 10
141.426882168186690
 20
-75.415032616936458
 40
0.399999999999977
 50
180.000000000000000
 51
270.000000000000000
  0
LINE
  8
0
  6
CONTINUOUS
 62
256
 10
168.626882168186510
 20
-75.665032616936458
 11
143.586689789322010
 21
-75.665032616936458
  0
LINE
  8
0
  6
CONTINUOUS
 62
256
 10
143.026882168186600
 20
-75.815032616936435
 11
141.426882168186690
 21
-75.815032616936435
  0
LINE
  8
0
  6
CONTINUOUS
 62
256
 10
143.586689789322010
 20
-75.665032616936458
 11
143.026882168186600
 21
-75.815032616936435
  0
LINE
  8
0
  6
CONTINUOUS
 62
256
 10
169.026882168186600
 20
-85.165032616936514
 11
169.026882168186600
 21
-76.065032616936435
  0
ARC
  8
0
  6
CONTINUOUS
 62
256
 10
141.426882168186690
 20
122.090470595965830
 40
0.400000000000091
 50
180.000000000000000
 51
270.000000000000000
  0
LINE
  8
0
  6
CONTINUOUS
 62
256
 10
146.914927276774960
 20
-82.164788476311514
 11
169.026882168186600
 21
-82.164788476311514
  0
ARC
  8
0
  6
CONTINUOUS
 62
256
 10
146.914927276774960
 20
-85.052833584899417
 40
2.888045108587903
 50
90.000000000000000
 51
182.226471171998070
  0
LINE
  8
0
  6
CONTINUOUS
 62
256
 10
40.026865275477576
 20
-103.165032616936510
 11
40.026865275477576
 21
-50.665032616936514
  0
LINE
  8
0
  6
CONTINUOUS
 62
256
 10
40.026865275477576
 20
-103.165032616936510
 11
40.026865275477576
 21
-155.665032616936510
  0
LINE
  8
0
  6
CONTINUOUS
 62
256
 10
78.026865275478031
 20
-149.121463874852910
 11
43.042475692921016
 21
-150.107770430311460
  0
LINE
  8
0
  6
CONTINUOUS
 62
256
 10
41.026865275478485
 20
-164.635276757561540
 11
41.026865275478485
 21
-152.560394888378600
  0
LINE
  8
0
  6
CONTINUOUS
 62
256
 10
43.026865275478485
 20
-165.165276757561510
 11
43.026865275478485
 21
-164.635276757561540
  0
LINE
  8
0
  6
CONTINUOUS
 62
256
 10
43.026865275478485
 20
-164.635276757561540
 11
41.026865275478485
 21
-164.635276757561540
  0
LINE
  8
0
  6
CONTINUOUS
 62
256
 10
43.026865275478485
 20
-165.165276757561510
 11
137.026865275478490
 21
-165.165276757561510
  0
LINE
  8
0
  6
CONTINUOUS
 62
256
 10
40.026865275477576
 20
-44.656305084472478
 11
65.526865275478485
 21
-44.211200928802612
  0
LINE
  8
0
  6
CONTINUOUS
 62
256
 10
40.026865275478485
 20
-161.673760149400660
 11
41.026865275478031
 21
-161.691215214328960
  0
LINE
  8
0
  6
CONTINUOUS
 62
256
 10
40.026865275478485
 20
-103.165032616936510
 11
40.026865275478485
 21
-161.665032616936570
  0
LINE
  8
0
  6
CONTINUOUS
 62
256
 10
40.026865275477576
 20
-103.165032616936510
 11
40.026865275477576
 21
-44.665032616936571
  0
LINE
  8
0
  6
CONTINUOUS
 62
256
 10
40.026865275477576
 20
-161.665032616936510
 11
40.026865275477576
 21
-103.165032616936510
  0
LINE
  8
0
  6
CONTINUOUS
 62
256
 10
40.026865275477576
 20
-44.665032616936514
 11
40.026865275477576
 21
-103.165032616936510
  0
LINE
  8
0
  6
CONTINUOUS
 62
256
 10
146.914927276774960
 20
-88.165276757561514
 11
169.026882168186600
 21
-88.165276757561514
  0
LINE
  8
0
  6
CONTINUOUS
 62
256
 10
169.026882168186600
 20
-85.165032616936514
 11
169.026882168186600
 21
-94.265032616936594
  0
LINE
  8
0
  6
CONTINUOUS
 62
256
 10
140.826882168186780
 20
-96.165032616936571
 11
139.026865275478490
 21
-96.165032616936571
  0
LINE
  8
0
  6
CONTINUOUS
 62
256
 10
140.826882168186780
 20
-74.093109096885939
 11
139.026865275478490
 21
-74.093109096885883
  0
LINE
  8
0
  6
CONTINUOUS
 62
256
 10
141.026882168186600
 20
-85.165032616936571
 11
141.026882168186600
 21
-95.965032616936526
  0
LINE
  8
0
  6
CONTINUOUS
 62
256
 10
143.586689789322010
 20
-94.665032616936571
 11
143.026882168186600
 21
-94.515032616936594
  0
LINE
  8
0
  6
CONTINUOUS
 62
256
 10
143.026882168186600
 20
-94.515032616936594
 11
141.426882168186690
 21
-94.515032616936594
  0
LINE
  8
0
  6
CONTINUOUS
 62
256
 10
140.826882168186780
 20
-96.165032616936571
 11
141.026882168186600
 21
-95.965032616936526
  0
LINE
  8
0
  6
CONTINUOUS
 62
256
 10
168.626882168186510
 20
-94.665032616936571
 11
143.586689789322010
 21
-94.665032616936571
  0
LINE
  8
0
  6
CONTINUOUS
 62
256
 10
141.026882168186600
 20
-85.093109096885939
 11
141.026882168186600
 21
-74.293109096885985
  0
LINE
  8
0
  6
CONTINUOUS
 62
256
 10
140.826882168186780
 20
-74.093109096885939
 11
141.026882168186600
 21
-74.293109096885985
  0
LINE
  8
0
  6
CONTINUOUS
 62
256
 10
139.026865275478490
 20
-85.165032616936514
 11
139.026865275478490
 21
-63.665032616936514
  0
LINE
  8
0
  6
CONTINUOUS
 62
256
 10
139.026865275478490
 20
-85.165032616936514
 11
139.026865275478490
 21
-106.665032616936510
  0
LINE
  8
0
  6
CONTINUOUS
 62
256
 10
139.026865275478490
 20
-164.635276757561540
 11
139.026865275478490
 21
-152.642965993264620
  0
LINE
  8
0
  6
CONTINUOUS
 62
256
 10
75.526865275478485
 20
-103.165032616936510
 11
75.526865275478485
 21
-37.621394954615994
  0
LINE
  8
0
  6
CONTINUOUS
 62
256
 10
75.526865275478485
 20
-137.982285857257350
 11
75.526865275478485
 21
-103.165032616936510
  0
LINE
  8
0
  6
CONTINUOUS
 62
256
 10
75.526865275478485
 20
-37.630122487080143
 11
66.026865275478485
 21
-37.630122487080030
  0
LINE
  8
0
  6
CONTINUOUS
 62
256
 10
70.126865275478849
 20
-42.075097686292793
 11
66.526865275478485
 21
-42.075097686292793
  0
LINE
  8
0
  6
CONTINUOUS
 62
256
 10
70.126865275478849
 20
-38.603897130668884
 11
66.526865275478485
 21
-38.603897130668884
  0
LINE
  8
0
  6
CONTINUOUS
 62
256
 10
70.526865275478485
 20
-39.003897130668747
 11
70.526865275478485
 21
-41.675097686292816
  0
LINE
  8
0
  6
CONTINUOUS
 62
256
 10
70.126865275478849
 20
-94.915032616936514
 11
66.526865275478485
 21
-94.915032616936514
  0
LINE
  8
0
  6
CONTINUOUS
 62
256
 10
70.126865275478849
 20
-105.415032616936510
 11
66.526865275478485
 21
-105.415032616936510
  0
LINE
  8
0
  6
CONTINUOUS
 62
256
 10
70.526865275478485
 20
-95.315032616936378
 11
70.526865275478485
 21
-105.015032616936420
  0
LINE
  8
0
  6
CONTINUOUS
 62
256
 10
65.526865275478485
 20
-95.915033570610831
 11
65.526865275478485
 21
-38.130122487080030
  0
LINE
  8
0
  6
CONTINUOUS
 62
256
 10
65.526865275478485
 20
-149.473873394937190
 11
65.526865275478485
 21
-104.415031663262180
  0
LINE
  8
0
  6
CONTINUOUS
 62
256
 10
139.026865275478490
 20
-164.635276757561540
 11
137.026865275478490
 21
-164.635276757561540
  0
LINE
  8
0
  6
CONTINUOUS
 62
256
 10
137.026865275478490
 20
-165.165276757561510
 11
137.026865275478490
 21
-164.635276757561540
  0
LINE
  8
0
  6
CONTINUOUS
 62
256
 10
137.026865275478490
 20
-149.258645312973390
 11
137.026865275478490
 21
-149.480688333096280
  0
LINE
  8
0
  6
CONTINUOUS
 62
256
 10
137.026865275478490
 20
-85.165032616936514
 11
137.026865275478490
 21
-149.480688333096280
  0
LINE
  8
0
  6
CONTINUOUS
 62
256
 10
136.570496291571540
 20
-150.143346755373610
 11
78.026865275478485
 21
-149.121463874852910
  0
LINE
  8
0
  6
CONTINUOUS
 62
256
 10
137.026865275478490
 20
-85.165032616936514
 11
137.026865275478490
 21
-59.081775536098576
  0
LINE
  8
0
  6
DASHDOT
 62
256
 10
126.526865275478490
 20
-168.387725793206070
 11
126.526865275478490
 21
-147.825550265384550
  0
LINE
  8
0
  6
CONTINUOUS
 62
256
 10
114.735815787870710
 20
-95.165032328897837
 11
114.735815787870710
 21
-147.819518047669360
  0
LINE
  8
0
  6
CONTINUOUS
 62
256
 10
135.665890355351620
 20
-95.165032330354393
 11
135.665890355351620
 21
-148.312196670827120
  0
LINE
  8
0
  6
DASHDOT
 62
256
 10
179.204369615533780
 20
-85.165032616936514
 11
102.814366502586380
 21
-85.165032616936514
  0
LINE
  8
0
  6
CONTINUOUS
 62
256
 10
76.026865275478485
 20
-85.165032616936514
 11
76.026865275478485
 21
-37.665032616936514
  0
LINE
  8
0
  6
CONTINUOUS
 62
256
 10
76.026865275478485
 20
-137.308797716358980
 11
76.026865275478485
 21
-85.165032616936514
  0
LINE
  8
0
  6
CONTINUOUS
 62
256
 10
78.026865275478485
 20
-133.953595723201370
 11
78.026865275478485
 21
-119.543622665811430
  0
LINE
  8
0
  6
CONTINUOUS
 62
256
 10
77.632701567354161
 20
-135.145774318754660
 11
67.895100782217924
 21
-148.262091617935770
  0
LINE
  8
0
  6
CONTINUOUS
 62
256
 10
93.026865275478485
 20
-37.961768720716009
 11
76.026865275478485
 21
-37.665032616936514
  0
LINE
  8
0
  6
DASHDOT
 62
256
 10
53.526865275478485
 20
-168.387725793206070
 11
53.526865275478485
 21
-147.825550265384550
  0
LINE
  8
0
  6
CONTINUOUS
 62
256
 10
77.689667309926335
 20
-37.665032616936514
 11
76.026865275478485
 21
-37.665032616936514
  0
LINE
  8
0
  6
CONTINUOUS
 62
256
 10
93.026865275478485
 20
-37.961768720716123
 11
76.026865275478485
 21
-37.665032616936514
  0
ARC
  8
0
  6
CONTINUOUS
 62
256
 10
43.526865275478485
 20
-152.560394888378600
 40
2.499999999999949
 50
101.172051984157560
 51
180.000000000000000
  0
ARC
  8
0
  6
CONTINUOUS
 62
256
 10
146.914927276774960
 20
-85.277231648973611
 40
2.888045108587921
 50
177.773528828001930
 51
270.000000000000000
  0
ARC
  8
0
  6
CONTINUOUS
 62
256
 10
141.426882168186690
 20
-94.915032616936571
 40
0.399999999999977
 50
90.000000000000000
 51
180.000000000000000
  0
ARC
  8
0
  6
CONTINUOUS
 62
256
 10
168.626882168186510
 20
-94.265032616936594
 40
0.399999999999977
 50
270.000000000000000
 51
0.000000000000000
  0
ARC
  8
0
  6
CONTINUOUS
 62
256
 10
66.026865275478485
 20
-38.130122487080030
 40
0.500000000000000
 50
90.000000000000000
 51
180.000000000000000
  0
ARC
  8
0
  6
CONTINUOUS
 62
256
 10
70.126865275478849
 20
-95.315032616936492
 40
0.399999999999636
 50
0.000000000000000
 51
90.000000000000000
  0
ARC
  8
0
  6
CONTINUOUS
 62
256
 10
70.126865275478849
 20
-105.015032616936650
 40
0.399999999999977
 50
270.000000000000000
 51
0.000000000000000
  0
ARC
  8
0
  6
CONTINUOUS
 62
256
 10
70.126865275478849
 20
-41.675097686292816
 40
0.399999999999977
 50
270.000000000000000
 51
0.000000000000000
  0
ARC
  8
0
  6
CONTINUOUS
 62
256
 10
66.526865275478485
 20
-43.075097686292793
 40
1.000000000000000
 50
90.000000000000000
 51
180.000000000000000
  0
ARC
  8
0
  6
CONTINUOUS
 62
256
 10
66.526865275478485
 20
-39.603897130668884
 40
1.000000000000000
 50
90.000000000000000
 51
180.000000000000000
  0
ARC
  8
0
  6
CONTINUOUS
 62
256
 10
70.126865275477940
 20
-39.003897130668747
 40
0.400000000000546
 50
0.000000000000000
 51
90.000000000000000
  0
ARC
  8
0
  6
CONTINUOUS
 62
256
 10
70.126865275478849
 20
-95.315032616936378
 40
0.399999999999636
 50
0.000000000000000
 51
90.000000000000000
  0
ARC
  8
0
  6
CONTINUOUS
 62
256
 10
66.526865275478485
 20
-93.915032616936514
 40
1.000000000000000
 50
180.000000000000000
 51
270.000000000000000
  0
ARC
  8
0
  6
CONTINUOUS
 62
256
 10
70.126865275478849
 20
-105.015032616936420
 40
0.400000000000091
 50
270.000000000000000
 51
0.000000000000000
  0
ARC
  8
0
  6
CONTINUOUS
 62
256
 10
66.526865275478485
 20
-106.415032616936510
 40
1.000000000000000
 50
90.000000000000000
 51
180.000000000000000
  0
ARC
  8
0
  6
CONTINUOUS
 62
256
 10
138.026865275478490
 20
-149.480688333096280
 40
1.000000000000000
 50
180.000000000000000
 51
244.623066474839110
  0
ARC
  8
0
  6
CONTINUOUS
 62
256
 10
136.526865275478490
 20
-152.642965993264620
 40
2.500000000000000
 50
0.000000000000000
 51
89.000000000003439
  0
ARC
  8
0
  6
CONTINUOUS
 62
256
 10
91.979720889241435
 20
-97.952630430099589
 40
60.000000000000156
 50
42.081511029704792
 51
88.999999999999957
  0
ARC
  8
0
  6
CONTINUOUS
 62
256
 10
91.979720889241435
 20
-97.952630430099589
 40
60.000000000000156
 50
42.081511029704792
 51
88.999999999999957
  0
ARC
  8
0
  6
CONTINUOUS
 62
256
 10
138.026865275478490
 20
-108.665032616936510
 40
1.000000000000000
 50
90.000000000000000
 51
180.000000000000000
  0
ARC
  8
0
  6
CONTINUOUS
 62
256
 10
138.026865275478490
 20
-106.665032616936510
 40
1.000000000000000
 50
270.000000000000000
 51
0.000000000000000
  0
ARC
  8
0
  6
CONTINUOUS
 62
256
 10
138.026865275478490
 20
-63.665032616936514
 40
1.000000000000000
 50
0.000000000000000
 51
90.000000000000000
  0
ARC
  8
0
  6
CONTINUOUS
 62
256
 10
138.026865275478490
 20
-61.665032616936514
 40
1.000000000000000
 50
180.000000000000000
 51
270.000000000000000
  0
ARC
  8
0
  6
CONTINUOUS
 62
256
 10
135.026865275478490
 20
-59.081775536098576
 40
2.000000000000000
 50
0.000000000000000
 51
42.081511029705844
  0
ARC
  8
0
  6
CONTINUOUS
 62
256
 10
116.735815787870710
 20
-147.819518047669360
 40
2.000000000000000
 50
180.000000000000000
 51
268.999999999998240
  0
ARC
  8
0
  6
CONTINUOUS
 62
256
 10
137.665890355351620
 20
-148.312196670827120
 40
2.000000000000000
 50
180.000000000000000
 51
255.337981530188980
  0
ARC
  8
0
  6
CONTINUOUS
 62
256
 10
76.026865275478485
 20
-133.953595723201370
 40
2.000000000000039
 50
323.409675317168760
 51
0.000000000000000
  0
ARC
  8
0
  6
CONTINUOUS
 62
256
 10
65.486346344404410
 20
-146.473823724605950
 40
3.000000000000088
 50
271.614898485974210
 51
323.409675317167910
  0
ARC
  8
0
  6
CONTINUOUS
 62
256
 10
76.026865275478485
 20
-119.543622665811430
 40
2.000000000000000
 50
0.000000000000000
 51
90.000000000000000
  0
LINE
  8
0
  6
CONTINUOUS
 62
256
 10
114.936898544847520
 20
-89.927803453537578
 11
114.735815787870720
 21
-95.165032616936514
  0
LINE
  8
0
  6
CONTINUOUS
 62
256
 10
115.532419318195830
 20
-84.891838069816103
 11
114.936898544847520
 21
-89.927803453537578
  0
LINE
  8
0
  6
CONTINUOUS
 62
256
 10
116.499492578567810
 20
-80.250665791266599
 11
115.532419318195830
 21
-84.891838069816103
  0
LINE
  8
0
  6
CONTINUOUS
 62
256
 10
117.800954242908230
 20
-76.182644265754320
 11
116.499492578567810
 21
-80.250665791266599
  0
LINE
  8
0
  6
CONTINUOUS
 62
256
 10
119.386789869324640
 20
-72.844105279131924
 11
117.800954242908230
 21
-76.182644265754320
  0
LINE
  8
0
  6
CONTINUOUS
 62
256
 10
121.196056684040730
 20
-70.363347012381112
 11
119.386789869324640
 21
-72.844105279131924
  0
LINE
  8
0
  6
CONTINUOUS
 62
256
 10
123.159225578015450
 20
-68.835703614467832
 11
121.196056684040730
 21
-70.363347012381112
  0
LINE
  8
0
  6
CONTINUOUS
 62
256
 10
125.200853071611160
 20
-68.319881564461596
 11
123.159225578015450
 21
-68.835703614467832
  0
LINE
  8
0
  6
CONTINUOUS
 62
256
 10
127.242480565206880
 20
-68.835703614467832
 11
125.200853071611160
 21
-68.319881564461596
  0
LINE
  8
0
  6
CONTINUOUS
 62
256
 10
129.205649459181590
 20
-70.363347012381098
 11
127.242480565206880
 21
-68.835703614467832
  0
LINE
  8
0
  6
CONTINUOUS
 62
256
 10
131.014916273897680
 20
-72.844105279131924
 11
129.205649459181590
 21
-70.363347012381098
  0
LINE
  8
0
  6
CONTINUOUS
 62
256
 10
132.600751900314090
 20
-76.182644265754305
 11
131.014916273897680
 21
-72.844105279131924
  0
LINE
  8
0
  6
CONTINUOUS
 62
256
 10
133.902213564654520
 20
-80.250665791266599
 11
132.600751900314090
 21
-76.182644265754305
  0
LINE
  8
0
  6
CONTINUOUS
 62
256
 10
134.869286825026480
 20
-84.891838069816103
 11
133.902213564654520
 21
-80.250665791266599
  0
LINE
  8
0
  6
CONTINUOUS
 62
256
 10
135.464807598374820
 20
-89.927803453537578
 11
134.869286825026480
 21
-84.891838069816103
  0
LINE
  8
0
  6
CONTINUOUS
 62
256
 10
135.665890355351620
 20
-95.165032616936514
 11
135.464807598374820
 21
-89.927803453537578
  0
LINE
  8
0
  6
CONTINUOUS
 62
256
 10
-115.973134724522200
 20
-74.165032616936514
 11
-115.973134724522420
 21
-103.165032616936510
  0
LINE
  8
0
  6
CONTINUOUS
 62
256
 10
-42.973134724522311
 20
-74.165032616936514
 11
-42.973134724522311
 21
-103.165032616936510
  0
LINE
  8
0
  6
CONTINUOUS
 62
256
 10
-42.132537939616213
 20
-72.882598290367241
 11
65.526865275478485
 21
-72.882598290367241
  0
LINE
  8
0
  6
CONTINUOUS
 62
256
 10
-118.973134724522200
 20
-72.882598290367241
 11
-116.813731509428390
 21
-72.882598290367241
  0
LINE
  8
0
  6
CONTINUOUS
 62
256
 10
-41.973134724522311
 20
-78.334979159806153
 11
65.526865275478485
 21
-78.334979159806153
  0
LINE
  8
0
  6
CONTINUOUS
 62
256
 10
-118.973134724522200
 20
-78.334979159806153
 11
-116.973134724522200
 21
-78.334979159806153
  0
LINE
  8
0
  6
CONTINUOUS
 62
256
 10
-41.973134724522311
 20
-76.973098824456883
 11
65.526865275478485
 21
-76.973098824456883
  0
LINE
  8
0
  6
CONTINUOUS
 62
256
 10
-118.973134724522200
 20
-76.973098824456883
 11
-116.973134724522200
 21
-76.973098824456883
  0
LINE
  8
0
  6
CONTINUOUS
 62
256
 10
-41.973134724522311
 20
-83.165032616936514
 11
65.526865275478485
 21
-83.165032616936514
  0
LINE
  8
0
  6
CONTINUOUS
 62
256
 10
-118.973134724522200
 20
-83.165032616936514
 11
-116.973134724522200
 21
-83.165032616936514
  0
LINE
  8
0
  6
CONTINUOUS
 62
256
 10
-108.973134724522310
 20
-46.165032616936514
 11
65.526865275478485
 21
-46.165032616936514
  0
LINE
  8
0
  6
CONTINUOUS
 62
256
 10
-108.973134724522310
 20
-45.665032616936514
 11
65.526865275478485
 21
-45.665032616936514
  0
LINE
  8
0
  6
CONTINUOUS
 62
256
 10
-108.973134724522310
 20
-47.165032616936514
 11
65.526865275478485
 21
-47.165032616936514
  0
LINE
  8
0
  6
CONTINUOUS
 62
256
 10
-108.973134724522310
 20
-48.165032616936514
 11
65.526865275478485
 21
-48.165032616936514
  0
LINE
  8
0
  6
CONTINUOUS
 62
256
 10
-108.973134724522310
 20
-52.849498430161020
 11
65.526865275478485
 21
-52.849498430161020
  0
LINE
  8
0
  6
CONTINUOUS
 62
256
 10
-108.973134724522310
 20
-57.799245898466779
 11
65.526865275478485
 21
-57.799245898466786
  0
LINE
  8
0
  6
CONTINUOUS
 62
256
 10
-117.876127282902420
 20
-65.845847561200571
 11
65.526865275478485
 21
-65.845847561200571
  0
LINE
  8
0
  6
CONTINUOUS
 62
256
 10
-118.886798513519120
 20
-67.450495476762626
 11
65.526865275478485
 21
-67.450495476762626
  0
LINE
  8
0
  6
CONTINUOUS
 62
256
 10
-118.973134724522200
 20
-71.414240900562163
 11
65.526865275478485
 21
-71.414240900562163
  0
LINE
  8
0
  6
CONTINUOUS
 62
256
 10
-43.973134724522311
 20
-73.165032616936514
 11
-114.973134724522200
 21
-73.165032616936514
  0
ARC
  8
0
  6
CONTINUOUS
 62
256
 10
-114.973134724522200
 20
-74.165032616936514
 40
1.000000000000000
 50
90.000000000000000
 51
180.000000000000000
  0
ARC
  8
0
  6
CONTINUOUS
 62
256
 10
-43.973134724522311
 20
-74.165032616936514
 40
1.000000000000000
 50
0.000000000000000
 51
90.000000000000000
  0
ARC
  8
0
  6
CONTINUOUS
 62
256
 10
-43.973134724522311
 20
-73.665032616936514
 40
2.000000000000000
 50
0.000000000000000
 51
90.000000000000000
  0
LINE
  8
0
  6
CONTINUOUS
 62
256
 10
-41.973134724522311
 20
-103.165032616936510
 11
-41.973134724522311
 21
-73.665032616936514
  0
LINE
  8
0
  6
CONTINUOUS
 62
256
 10
-116.973134724522200
 20
-103.165032616936510
 11
-116.973134724522200
 21
-73.665032616936514
  0
ARC
  8
0
  6
CONTINUOUS
 62
256
 10
-114.973134724522200
 20
-73.665032616936514
 40
2.000000000000000
 50
90.000000000000000
 51
180.000000000000000
  0
LINE
  8
0
  6
CONTINUOUS
 62
256
 10
-43.973134724522311
 20
-71.665032616936514
 11
-114.973134724522200
 21
-71.665032616936514
  0
LINE
  8
0
  6
CONTINUOUS
 62
256
 10
-108.973134724522310
 20
-62.165032616936514
 11
-108.973134724522310
 21
-43.165032616936514
  0
ARC
  8
0
  6
CONTINUOUS
 62
256
 10
-115.973134724522200
 20
-68.165032616936514
 40
3.000000000000000
 50
90.000000000000000
 51
180.000000000000000
  0
LINE
  8
0
  6
CONTINUOUS
 62
256
 10
-111.973134724522310
 20
-65.165032616936514
 11
-115.973134724522200
 21
-65.165032616936514
  0
ARC
  8
0
  6
CONTINUOUS
 62
256
 10
-111.973134724522310
 20
-62.165032616936514
 40
3.000000000000000
 50
270.000000000000000
 51
0.000000000000000
  0
LINE
  8
0
  6
CONTINUOUS
 62
256
 10
-118.973134724522200
 20
-68.165032616936514
 11
-118.973134724522200
 21
-103.165032616936510
  0
LINE
  8
0
  6
CONTINUOUS
 62
256
 10
40.026865275477576
 20
-44.665032616936514
 11
-108.973134724522310
 21
-44.665032616936514
  0
LINE
  8
0
  6
CONTINUOUS
 62
256
 10
40.026865275477576
 20
-44.665032616936514
 11
40.026865275477576
 21
-103.165032616936510
  0
LINE
  8
0
  6
CONTINUOUS
 62
256
 10
-108.973134724522310
 20
-43.165032616936514
 11
-137.667158946942660
 21
-43.165032616936514
  0
LINE
  8
0
  6
CONTINUOUS
 62
256
 10
-159.973134724472170
 20
-103.165032616936510
 11
-159.973134724472170
 21
-55.721827559691064
  0
ARC
  8
0
  6
CONTINUOUS
 62
256
 10
-137.667158946942660
 20
-63.165032616936514
 40
20.000000000000000
 50
90.000000000000000
 51
125.000000000000240
  0
LINE
  8
0
  6
CONTINUOUS
 62
256
 10
-149.138687673963660
 20
-46.781991731156722
 11
-158.864433458984650
 21
-53.592032244539951
  0
ARC
  8
0
  6
CONTINUOUS
 62
256
 10
-157.373134724472040
 20
-55.721827559691064
 40
2.599999999999721
 50
125.000000000001380
 51
180.000000000000000
  0
LINE
  8
0
  6
CONTINUOUS
 62
256
 10
-115.973134724522200
 20
-132.165032616936510
 11
-115.973134724522420
 21
-103.165032616936510
  0
LINE
  8
0
  6
CONTINUOUS
 62
256
 10
-42.973134724522311
 20
-132.165032616936510
 11
-42.973134724522311
 21
-103.165032616936510
  0
LINE
  8
0
  6
CONTINUOUS
 62
256
 10
-42.132537939616213
 20
-133.447466943505790
 11
65.526865275478485
 21
-133.447466943505790
  0
LINE
  8
0
  6
CONTINUOUS
 62
256
 10
-118.973134724522200
 20
-133.447466943505790
 11
-116.813731509428390
 21
-133.447466943505790
  0
LINE
  8
0
  6
CONTINUOUS
 62
256
 10
-41.973134724522311
 20
-127.995086074066880
 11
65.526865275478485
 21
-127.995086074066890
  0
LINE
  8
0
  6
CONTINUOUS
 62
256
 10
-118.973134724522200
 20
-127.995086074066880
 11
-116.973134724522200
 21
-127.995086074066880
  0
LINE
  8
0
  6
CONTINUOUS
 62
256
 10
-41.973134724522311
 20
-129.356966409416150
 11
65.526865275478485
 21
-129.356966409416150
  0
LINE
  8
0
  6
CONTINUOUS
 62
256
 10
-118.973134724522200
 20
-129.356966409416150
 11
-116.973134724522200
 21
-129.356966409416150
  0
LINE
  8
0
  6
CONTINUOUS
 62
256
 10
-41.973134724522311
 20
-123.165032616936510
 11
65.526865275478485
 21
-123.165032616936510
  0
LINE
  8
0
  6
CONTINUOUS
 62
256
 10
-118.973134724522200
 20
-123.165032616936510
 11
-116.973134724522200
 21
-123.165032616936510
  0
LINE
  8
0
  6
CONTINUOUS
 62
256
 10
-108.973134724522310
 20
-160.165032616936510
 11
41.026865275478485
 21
-160.165032616936510
  0
LINE
  8
0
  6
CONTINUOUS
 62
256
 10
-108.973134724522310
 20
-160.665032616936510
 11
41.026865275478485
 21
-160.665032616936510
  0
LINE
  8
0
  6
CONTINUOUS
 62
256
 10
-108.973134724522310
 20
-159.165032616936510
 11
41.026865275478485
 21
-159.165032616936510
  0
LINE
  8
0
  6
CONTINUOUS
 62
256
 10
-108.973134724522310
 20
-158.165032616936510
 11
41.026865275478485
 21
-158.165032616936510
  0
LINE
  8
0
  6
CONTINUOUS
 62
256
 10
-108.973134724522310
 20
-153.480566803712010
 11
41.026865275478485
 21
-153.480566803712010
  0
LINE
  8
0
  6
CONTINUOUS
 62
256
 10
-108.973134724522310
 20
-148.530819335406250
 11
65.526865275478485
 21
-148.530819335406250
  0
LINE
  8
0
  6
CONTINUOUS
 62
256
 10
-117.876127282902420
 20
-140.484217672672460
 11
65.526865275478485
 21
-140.484217672672460
  0
LINE
  8
0
  6
CONTINUOUS
 62
256
 10
-118.886798513519120
 20
-138.879569757110400
 11
65.526865275478485
 21
-138.879569757110400
  0
LINE
  8
0
  6
CONTINUOUS
 62
256
 10
-118.973134724522200
 20
-134.915824333310870
 11
65.526865275478485
 21
-134.915824333310870
  0
LINE
  8
0
  6
DASHDOT
 62
256
 10
90.334002839138975
 20
-103.165032616936510
 11
-177.524625059515980
 21
-103.165032616936510
  0
LINE
  8
0
  6
CONTINUOUS
 62
256
 10
-43.973134724522311
 20
-133.165032616936510
 11
-114.973134724522200
 21
-133.165032616936510
  0
ARC
  8
0
  6
CONTINUOUS
 62
256
 10
-114.973134724522200
 20
-132.165032616936510
 40
1.000000000000000
 50
180.000000000000000
 51
270.000000000000000
  0
ARC
  8
0
  6
CONTINUOUS
 62
256
 10
-43.973134724522311
 20
-132.165032616936510
 40
1.000000000000000
 50
270.000000000000000
 51
0.000000000000000
  0
ARC
  8
0
  6
CONTINUOUS
 62
256
 10
-43.973134724522311
 20
-132.665032616936510
 40
2.000000000000000
 50
270.000000000000000
 51
0.000000000000000
  0
LINE
  8
0
  6
CONTINUOUS
 62
256
 10
-41.973134724522311
 20
-103.165032616936510
 11
-41.973134724522311
 21
-132.665032616936510
  0
LINE
  8
0
  6
CONTINUOUS
 62
256
 10
-116.973134724522200
 20
-103.165032616936510
 11
-116.973134724522200
 21
-132.665032616936510
  0
ARC
  8
0
  6
CONTINUOUS
 62
256
 10
-114.973134724522200
 20
-132.665032616936510
 40
2.000000000000000
 50
180.000000000000000
 51
270.000000000000000
  0
LINE
  8
0
  6
CONTINUOUS
 62
256
 10
-43.973134724522311
 20
-134.665032616936510
 11
-114.973134724522200
 21
-134.665032616936510
  0
LINE
  8
0
  6
CONTINUOUS
 62
256
 10
-108.973134724522310
 20
-144.165032616936510
 11
-108.973134724522310
 21
-163.165032616936510
  0
ARC
  8
0
  6
CONTINUOUS
 62
256
 10
-115.973134724522200
 20
-138.165032616936510
 40
3.000000000000000
 50
180.000000000000000
 51
270.000000000000000
  0
LINE
  8
0
  6
CONTINUOUS
 62
256
 10
-111.973134724522310
 20
-141.165032616936510
 11
-115.973134724522200
 21
-141.165032616936510
  0
ARC
  8
0
  6
CONTINUOUS
 62
256
 10
-111.973134724522310
 20
-144.165032616936510
 40
3.000000000000000
 50
0.000000000000000
 51
90.000000000000000
  0
LINE
  8
0
  6
CONTINUOUS
 62
256
 10
-118.973134724522200
 20
-138.165032616936510
 11
-118.973134724522200
 21
-103.165032616936510
  0
LINE
  8
0
  6
CONTINUOUS
 62
256
 10
40.026865275477576
 20
-161.665032616936510
 11
-108.973134724522310
 21
-161.665032616936510
  0
LINE
  8
0
  6
CONTINUOUS
 62
256
 10
40.026865275477576
 20
-161.665032616936510
 11
40.026865275477576
 21
-103.165032616936510
  0
LINE
  8
0
  6
CONTINUOUS
 62
256
 10
-108.973134724522310
 20
-163.165032616936510
 11
-137.667158946942660
 21
-163.165032616936510
  0
LINE
  8
0
  6
CONTINUOUS
 62
256
 10
-159.973134724472170
 20
-103.165032616936510
 11
-159.973134724472170
 21
-150.608237674181960
  0
ARC
  8
0
  6
CONTINUOUS
 62
256
 10
-137.667158946942660
 20
-143.165032616936510
 40
20.000000000000007
 50
234.999999999999740
 51
270.000000000000000
  0
LINE
  8
0
  6
CONTINUOUS
 62
256
 10
-149.138687673963660
 20
-159.548073502716310
 11
-158.864433458984650
 21
-152.738032989333080
  0
ARC
  8
0
  6
CONTINUOUS
 62
256
 10
-157.373134724472040
 20
-150.608237674181960
 40
2.600000000000136
 50
180.000000000000000
 51
234.999999999998810
  0
LINE
  8
0
  6
CONTINUOUS
 62
256
 10
-115.363443906626570
 20
-51.944464551076805
 11
-115.273134724521750
 21
-51.241507584876445
  0
LINE
  8
0
  6
CONTINUOUS
 62
256
 10
-115.630900921718710
 20
-52.620407275288898
 11
-115.363443906626570
 21
-51.944464551076805
  0
LINE
  8
0
  6
CONTINUOUS
 62
256
 10
-116.065227546699770
 20
-53.243359657694299
 11
-115.630900921718710
 21
-52.620407275288898
  0
LINE
  8
0
  6
CONTINUOUS
 62
256
 10
-116.649732852944960
 20
-53.789381987592876
 11
-116.065227546699770
 21
-53.243359657694299
  0
LINE
  8
0
  6
CONTINUOUS
 62
256
 10
-117.361954629329620
 20
-54.237490933059497
 11
-116.649732852944960
 21
-53.789381987592876
  0
LINE
  8
0
  6
CONTINUOUS
 62
256
 10
-118.174522592405820
 20
-54.570465918622254
 11
-117.361954629329620
 21
-54.237490933059497
  0
LINE
  8
0
  6
CONTINUOUS
 62
256
 10
-119.056210211045940
 20
-54.775510902320505
 11
-118.174522592405820
 21
-54.570465918622254
  0
LINE
  8
0
  6
CONTINUOUS
 62
256
 10
-119.973134724521740
 20
-54.844746120421277
 11
-119.056210211045940
 21
-54.775510902320505
  0
LINE
  8
0
  6
CONTINUOUS
 62
256
 10
-120.890059237997530
 20
-54.775510902320505
 11
-119.973134724521740
 21
-54.844746120421277
  0
LINE
  8
0
  6
CONTINUOUS
 62
256
 10
-121.771746856637660
 20
-54.570465918622254
 11
-120.890059237997530
 21
-54.775510902320505
  0
LINE
  8
0
  6
CONTINUOUS
 62
256
 10
-122.584314819713850
 20
-54.237490933059497
 11
-121.771746856637660
 21
-54.570465918622254
  0
LINE
  8
0
  6
CONTINUOUS
 62
256
 10
-123.296536596098510
 20
-53.789381987592876
 11
-122.584314819713850
 21
-54.237490933059497
  0
LINE
  8
0
  6
CONTINUOUS
 62
256
 10
-123.881041902343700
 20
-53.243359657694299
 11
-123.296536596098510
 21
-53.789381987592876
  0
LINE
  8
0
  6
CONTINUOUS
 62
256
 10
-124.315368527324760
 20
-52.620407275288898
 11
-123.881041902343700
 21
-53.243359657694299
  0
LINE
  8
0
  6
CONTINUOUS
 62
256
 10
-124.582825542416910
 20
-51.944464551076805
 11
-124.315368527324760
 21
-52.620407275288898
  0
LINE
  8
0
  6
CONTINUOUS
 62
256
 10
-124.673134724521730
 20
-51.241507584876445
 11
-124.582825542416910
 21
-51.944464551076805
  0
LINE
  8
0
  6
CONTINUOUS
 62
256
 10
-124.582825542416910
 20
-50.538550618676084
 11
-124.673134724521730
 21
-51.241507584876445
  0
LINE
  8
0
  6
CONTINUOUS
 62
256
 10
-124.315368527324760
 20
-49.862607894463991
 11
-124.582825542416910
 21
-50.538550618676084
  0
LINE
  8
0
  6
CONTINUOUS
 62
256
 10
-123.881041902343700
 20
-49.239655512058590
 11
-124.315368527324760
 21
-49.862607894463991
  0
LINE
  8
0
  6
CONTINUOUS
 62
256
 10
-123.296536596098510
 20
-48.693633182160006
 11
-123.881041902343700
 21
-49.239655512058590
  0
LINE
  8
0
  6
CONTINUOUS
 62
256
 10
-122.584314819713850
 20
-48.245524236693392
 11
-123.296536596098510
 21
-48.693633182160006
  0
LINE
  8
0
  6
CONTINUOUS
 62
256
 10
-121.771746856637660
 20
-47.912549251130635
 11
-122.584314819713850
 21
-48.245524236693392
  0
LINE
  8
0
  6
CONTINUOUS
 62
256
 10
-120.890059237997530
 20
-47.707504267432384
 11
-121.771746856637660
 21
-47.912549251130635
  0
LINE
  8
0
  6
CONTINUOUS
 62
256
 10
-119.973134724521740
 20
-47.638269049331612
 11
-120.890059237997530
 21
-47.707504267432384
  0
LINE
  8
0
  6
CONTINUOUS
 62
256
 10
-119.056210211045940
 20
-47.707504267432384
 11
-119.973134724521740
 21
-47.638269049331612
  0
LINE
  8
0
  6
CONTINUOUS
 62
256
 10
-118.174522592405820
 20
-47.912549251130635
 11
-119.056210211045940
 21
-47.707504267432384
  0
LINE
  8
0
  6
CONTINUOUS
 62
256
 10
-117.361954629329620
 20
-48.245524236693392
 11
-118.174522592405820
 21
-47.912549251130635
  0
LINE
  8
0
  6
CONTINUOUS
 62
256
 10
-116.649732852944960
 20
-48.693633182160006
 11
-117.361954629329620
 21
-48.245524236693392
  0
LINE
  8
0
  6
CONTINUOUS
 62
256
 10
-116.065227546699770
 20
-49.239655512058590
 11
-116.649732852944960
 21
-48.693633182160006
  0
LINE
  8
0
  6
CONTINUOUS
 62
256
 10
-115.630900921718710
 20
-49.862607894463991
 11
-116.065227546699770
 21
-49.239655512058590
  0
LINE
  8
0
  6
CONTINUOUS
 62
256
 10
-115.363443906626570
 20
-50.538550618676084
 11
-115.630900921718710
 21
-49.862607894463991
  0
LINE
  8
0
  6
CONTINUOUS
 62
256
 10
-115.273134724521750
 20
-51.241507584876445
 11
-115.363443906626570
 21
-50.538550618676084
  0
LINE
  8
0
  6
CONTINUOUS
 62
256
 10
-121.973134724521740
 20
-48.249132030876126
 11
-119.973134724521740
 21
-49.424917516498908
  0
LINE
  8
0
  6
CONTINUOUS
 62
256
 10
-119.973134724521740
 20
-49.424917516498908
 11
-117.973134724521740
 21
-51.077559155622339
  0
LINE
  8
0
  6
CONTINUOUS
 62
256
 10
-117.973134724521740
 20
-48.249132030876126
 11
-119.973134724521740
 21
-49.424917516498908
  0
LINE
  8
0
  6
CONTINUOUS
 62
256
 10
-119.973134724521740
 20
-49.424917516498908
 11
-121.973134724521740
 21
-51.077559155622339
  0
LINE
  8
0
  6
CONTINUOUS
 62
256
 10
-115.363443906626570
 20
-155.791514615196720
 11
-115.273134724521750
 21
-155.088557648996360
  0
LINE
  8
0
  6
CONTINUOUS
 62
256
 10
-115.630900921718710
 20
-156.467457339408810
 11
-115.363443906626570
 21
-155.791514615196720
  0
LINE
  8
0
  6
CONTINUOUS
 62
256
 10
-116.065227546699770
 20
-157.090409721814210
 11
-115.630900921718710
 21
-156.467457339408810
  0
LINE
  8
0
  6
CONTINUOUS
 62
256
 10
-116.649732852944960
 20
-157.636432051712800
 11
-116.065227546699770
 21
-157.090409721814210
  0
LINE
  8
0
  6
CONTINUOUS
 62
256
 10
-117.361954629329620
 20
-158.084540997179430
 11
-116.649732852944960
 21
-157.636432051712800
  0
LINE
  8
0
  6
CONTINUOUS
 62
256
 10
-118.174522592405820
 20
-158.417515982742170
 11
-117.361954629329620
 21
-158.084540997179430
  0
LINE
  8
0
  6
CONTINUOUS
 62
256
 10
-119.056210211045940
 20
-158.622560966440430
 11
-118.174522592405820
 21
-158.417515982742170
  0
LINE
  8
0
  6
CONTINUOUS
 62
256
 10
-119.973134724521740
 20
-158.691796184541200
 11
-119.056210211045940
 21
-158.622560966440430
  0
LINE
  8
0
  6
CONTINUOUS
 62
256
 10
-120.890059237997530
 20
-158.622560966440430
 11
-119.973134724521740
 21
-158.691796184541200
  0
LINE
  8
0
  6
CONTINUOUS
 62
256
 10
-121.771746856637660
 20
-158.417515982742170
 11
-120.890059237997530
 21
-158.622560966440430
  0
LINE
  8
0
  6
CONTINUOUS
 62
256
 10
-122.584314819713850
 20
-158.084540997179430
 11
-121.771746856637660
 21
-158.417515982742170
  0
LINE
  8
0
  6
CONTINUOUS
 62
256
 10
-123.296536596098510
 20
-157.636432051712800
 11
-122.584314819713850
 21
-158.084540997179430
  0
LINE
  8
0
  6
CONTINUOUS
 62
256
 10
-123.881041902343700
 20
-157.090409721814210
 11
-123.296536596098510
 21
-157.636432051712800
  0
LINE
  8
0
  6
CONTINUOUS
 62
256
 10
-124.315368527324760
 20
-156.467457339408810
 11
-123.881041902343700
 21
-157.090409721814210
  0
LINE
  8
0
  6
CONTINUOUS
 62
256
 10
-124.582825542416910
 20
-155.791514615196720
 11
-124.315368527324760
 21
-156.467457339408810
  0
LINE
  8
0
  6
CONTINUOUS
 62
256
 10
-124.673134724521730
 20
-155.088557648996360
 11
-124.582825542416910
 21
-155.791514615196720
  0
LINE
  8
0
  6
CONTINUOUS
 62
256
 10
-124.582825542416910
 20
-154.385600682796000
 11
-124.673134724521730
 21
-155.088557648996360
  0
LINE
  8
0
  6
CONTINUOUS
 62
256
 10
-124.315368527324760
 20
-153.709657958583900
 11
-124.582825542416910
 21
-154.385600682796000
  0
LINE
  8
0
  6
CONTINUOUS
 62
256
 10
-123.881041902343700
 20
-153.086705576178500
 11
-124.315368527324760
 21
-153.709657958583900
  0
LINE
  8
0
  6
CONTINUOUS
 62
256
 10
-123.296536596098510
 20
-152.540683246279910
 11
-123.881041902343700
 21
-153.086705576178500
  0
LINE
  8
0
  6
CONTINUOUS
 62
256
 10
-122.584314819713850
 20
-152.092574300813280
 11
-123.296536596098510
 21
-152.540683246279910
  0
LINE
  8
0
  6
CONTINUOUS
 62
256
 10
-121.771746856637660
 20
-151.759599315250540
 11
-122.584314819713850
 21
-152.092574300813280
  0
LINE
  8
0
  6
CONTINUOUS
 62
256
 10
-120.890059237997530
 20
-151.554554331552280
 11
-121.771746856637660
 21
-151.759599315250540
  0
LINE
  8
0
  6
CONTINUOUS
 62
256
 10
-119.973134724521740
 20
-151.485319113451510
 11
-120.890059237997530
 21
-151.554554331552280
  0
LINE
  8
0
  6
CONTINUOUS
 62
256
 10
-119.056210211045940
 20
-151.554554331552280
 11
-119.973134724521740
 21
-151.485319113451510
  0
LINE
  8
0
  6
CONTINUOUS
 62
256
 10
-118.174522592405820
 20
-151.759599315250540
 11
-119.056210211045940
 21
-151.554554331552280
  0
LINE
  8
0
  6
CONTINUOUS
 62
256
 10
-117.361954629329620
 20
-152.092574300813280
 11
-118.174522592405820
 21
-151.759599315250540
  0
LINE
  8
0
  6
CONTINUOUS
 62
256
 10
-116.649732852944960
 20
-152.540683246279910
 11
-117.361954629329620
 21
-152.092574300813280
  0
LINE
  8
0
  6
CONTINUOUS
 62
256
 10
-116.065227546699770
 20
-153.086705576178500
 11
-116.649732852944960
 21
-152.540683246279910
  0
LINE
  8
0
  6
CONTINUOUS
 62
256
 10
-115.630900921718710
 20
-153.709657958583900
 11
-116.065227546699770
 21
-153.086705576178500
  0
LINE
  8
0
  6
CONTINUOUS
 62
256
 10
-115.363443906626570
 20
-154.385600682796000
 11
-115.630900921718710
 21
-153.709657958583900
  0
LINE
  8
0
  6
CONTINUOUS
 62
256
 10
-115.273134724521750
 20
-155.088557648996360
 11
-115.363443906626570
 21
-154.385600682796000
  0
LINE
  8
0
  6
CONTINUOUS
 62
256
 10
-121.973134724521740
 20
-158.080933202996680
 11
-119.973134724521740
 21
-156.905147717374350
  0
LINE
  8
0
  6
CONTINUOUS
 62
256
 10
-119.973134724521740
 20
-156.905147717374350
 11
-117.973134724521740
 21
-155.252506078250920
  0
LINE
  8
0
  6
CONTINUOUS
 62
256
 10
-117.973134724521740
 20
-158.080933202996680
 11
-119.973134724521740
 21
-156.905147717374350
  0
LINE
  8
0
  6
CONTINUOUS
 62
256
 10
-119.973134724521740
 20
-156.905147717374350
 11
-121.973134724521740
 21
-155.252506078250920
  0
INSERT
  8
0
  2
ZU_SYM_1
 10
70.526865275478485
 20
-100.165032616936510
  0
LINE
  8
0
  6
DASHDOT
 62
256
 10
294.120436294062530
 20
-177.963460361971390
 11
294.120436294062530
 21
-26.934970990502279
  0
LINE
  8
0
  6
DASHDOT
 62
256
 10
312.974104716890000
 20
-103.165032616936510
 11
275.181156433503930
 21
-103.165032616936510
  0
LINE
  8
0
  6
DASHDOT
 62
256
 10
189.788679425124430
 20
-85.165032616936514
 11
410.306305060261370
 21
-85.165032616936514
  0
ARC
  8
0
  6
CONTINUOUS
 62
256
 10
244.693672154253020
 20
-53.738268477126951
 40
6.099999427795400
 50
84.601927898109011
 51
178.082947032800490
  0
ARC
  8
0
  6
CONTINUOUS
 62
256
 10
343.547200433872040
 20
-53.738268477126951
 40
6.099999427795434
 50
4.824675480168675
 51
92.767415515140272
  0
INSERT
  8
0
  2
ZU_SYM_2
 10
381.565258500405890
 20
-144.083989228196970
 41
-1.000000000000000
 42
1.000000000000000
 43
1.000000000000000
 50
2.862405226113666
  0
LINE
  8
0
  6
CONTINUOUS
 62
256
 10
375.123305914643420
 20
-47.284912544156327
 11
380.216942842920390
 21
-149.157651109697100
  0
LINE
  8
0
  6
CONTINUOUS
 62
256
 10
380.216942842920390
 20
-149.157651109697100
 11
381.814946585124970
 21
-149.077750922586120
  0
LINE
  8
0
  6
CONTINUOUS
 62
256
 10
376.721309656848010
 20
-47.205012357046144
 11
381.814946585124970
 21
-149.077750922586120
  0
ARC
  8
0
  6
CONTINUOUS
 62
256
 10
377.838938758698530
 20
-49.952627953290971
 40
1.299999237060645
 50
19.463936333587128
 51
92.862405909347800
  0
ARC
  8
0
  6
CONTINUOUS
 62
256
 10
378.058664349450510
 20
-54.347139768328702
 40
1.299999237060550
 50
272.862387240019760
 51
346.260856815788600
  0
LINE
  8
0
  6
CONTINUOUS
 62
256
 10
376.796216082263300
 20
-48.703140865362798
 11
377.774019894770840
 21
-48.654250674737455
  0
LINE
  8
0
  6
CONTINUOUS
 62
256
 10
377.145779400870420
 20
-55.694407237507676
 11
378.123583213378200
 21
-55.645517046882333
  0
LINE
  8
0
  6
CONTINUOUS
 62
256
 10
376.796216082263300
 20
-48.703140865362798
 11
377.145779400870420
 21
-55.694407237507676
  0
LINE
  8
0
  6
CONTINUOUS
 62
256
 10
376.796216082263300
 20
-48.703140865362798
 11
377.145779400870420
 21
-55.694407237507676
  0
POINT
  8
0
  6
CONTINUOUS
 62
256
 10
376.970997741566860
 20
-52.198774051435180
  0
ARC
  8
0
  6
CONTINUOUS
 62
256
 10
370.578983153742460
 20
-52.518374780826434
 40
8.999999999999949
 50
346.260856815786500
 51
19.463936333592208
  0
LINE
  8
0
  6
CONTINUOUS
 62
256
 10
376.721309656848010
 20
-47.205012357046144
 11
375.123305914643420
 21
-47.284912544156327
  0
ARC
  8
0
  6
CONTINUOUS
 62
256
 10
377.420436294062480
 20
-77.207532616936533
 40
18.799999999999837
 50
5.724810452223617
 51
35.808626813495707
  0
ARC
  8
0
  6
CONTINUOUS
 62
256
 10
377.420436294062480
 20
-77.207532616936533
 40
18.799999999999933
 50
35.808626813495742
 51
85.126025186157236
  0
LINE
  8
0
  6
CONTINUOUS
 62
256
 10
400.116695645683420
 20
-115.132719649355520
 11
396.126670708027400
 21
-75.332220896238255
  0
ARC
  8
0
  6
CONTINUOUS
 62
256
 10
383.346902125394760
 20
-139.666892938980030
 40
1.999999999999995
 50
99.916536608232732
 51
182.862405226112630
  0
LINE
  8
0
  6
CONTINUOUS
 62
256
 10
375.922307785745720
 20
-47.244962450601292
 11
381.015944714022680
 21
-149.117701016141380
  0
ARC
  8
0
  6
CONTINUOUS
 62
256
 10
377.753889027678950
 20
-139.946543593865840
 40
1.999999999999927
 50
2.862405226112724
 51
85.808273843998279
  0
ARC
  8
0
  6
CONTINUOUS
 62
256
 10
379.187694757691360
 20
-56.482745584913005
 40
1.999999999999927
 50
182.862405226112710
 51
265.126025186159040
  0
ARC
  8
0
  6
CONTINUOUS
 62
256
 10
373.594681659975550
 20
-56.762396239798818
 40
1.999999999999958
 50
280.598785266065990
 51
2.862405226112642
  0
ARC
  8
0
  6
CONTINUOUS
 62
256
 10
379.420436294062480
 20
-117.207532616936530
 40
20.799999999999919
 50
334.359929784105190
 51
5.724810452223412
  0
ARC
  8
0
  6
CONTINUOUS
 62
256
 10
379.420436294062480
 20
-117.207532616936530
 40
20.800000000000040
 50
279.916536608230560
 51
334.359929784105190
  0
ARC
  8
0
  6
CONTINUOUS
 62
256
 10
379.420436294062480
 20
-117.207532616936530
 40
20.799999999999919
 50
334.359929784105190
 51
5.724810452223412
  0
ARC
  8
0
  6
CONTINUOUS
 62
256
 10
377.420436294062480
 20
-77.207532616936533
 40
18.799999999999983
 50
100.598785266066060
 51
156.468884668278550
  0
ARC
  8
0
  6
CONTINUOUS
 62
256
 10
379.420436294062480
 20
-117.207532616936530
 40
20.800000000000015
 50
220.569697230356550
 51
265.808273843992540
  0
LINE
  8
0
  6
CONTINUOUS
 62
256
 10
207.181667160081130
 20
-73.165032616936287
 11
226.937221204697830
 21
-73.165032616936287
  0
LINE
  8
0
  6
CONTINUOUS
 62
256
 10
200.620436294062530
 20
-105.665032616936060
 11
200.620436294062530
 21
-100.665032616936060
  0
LINE
  8
0
  6
CONTINUOUS
 62
256
 10
200.620436294062530
 20
-105.665032616936060
 11
201.130853141580250
 21
-105.665032616936060
  0
LINE
  8
0
  6
CONTINUOUS
 62
256
 10
200.620436294062530
 20
-100.665032616936060
 11
201.130853141580250
 21
-100.665032616936060
  0
ARC
  8
0
  6
CONTINUOUS
 62
256
 10
501.120436294062530
 20
-103.165032616936060
 40
300.000000000000110
 50
175.138594604202010
 51
180.000000000000000
  0
ARC
  8
0
  6
CONTINUOUS
 62
256
 10
207.181667160081130
 20
-78.165032616936287
 40
5.000000000000000
 50
90.000000000000000
 51
175.138594604201670
  0
ARC
  8
0
  6
CONTINUOUS
 62
256
 10
207.181667160081130
 20
-128.165032616936060
 40
5.000000000000139
 50
184.861405395800970
 51
270.000000000000000
  0
LINE
  8
0
  6
CONTINUOUS
 62
256
 10
207.181667160081130
 20
-133.165032616936060
 11
224.620436294062530
 21
-133.165032616936060
  0
ARC
  8
0
  6
CONTINUOUS
 62
256
 10
501.120436294062530
 20
-103.165032616936060
 40
300.000000000000000
 50
180.000000000000000
 51
184.861405395798040
  0
CIRCLE
  8
0
  6
CONTINUOUS
 62
256
 10
294.120436294062530
 20
-85.165032616936514
 40
3.000000000000000
  0
CIRCLE
  8
0
  6
CONTINUOUS
 62
256
 10
294.120436294062530
 20
-85.165032616936514
 40
2.458500000000015
  0
LINE
  8
0
  6
CONTINUOUS
 62
256
 10
288.120436294062530
 20
-88.165032616936514
 11
288.120436294062530
 21
-82.165032616936514
  0
LINE
  8
0
  6
CONTINUOUS
 62
256
 10
282.120436294062530
 20
-88.165032616936514
 11
282.120436294062530
 21
-82.165032616936514
  0
ARC
  8
0
  6
CONTINUOUS
 62
256
 10
294.120436294062530
 20
-85.165032616936514
 40
9.500000000000016
 50
198.434948822922880
 51
161.591512067614100
  0
LINE
  8
0
  6
CONTINUOUS
 62
256
 10
288.120436294062530
 20
-82.165032616936514
 11
282.120436294062530
 21
-82.165032616936514
  0
LINE
  8
0
  6
CONTINUOUS
 62
256
 10
288.120436294062530
 20
-88.165032616936514
 11
282.120436294062530
 21
-88.165032616936514
  0
LINE
  8
0
  6
CONTINUOUS
 62
256
 10
344.437158112316410
 20
-78.284095397831834
 11
344.437158112316410
 21
-148.165032616936510
  0
LINE
  8
0
  6
CONTINUOUS
 62
256
 10
345.057798139430420
 20
-74.888734900681030
 11
344.496489138875290
 21
-77.516117635210904
  0
LINE
  8
0
  6
CONTINUOUS
 62
256
 10
345.862560899096480
 20
-72.625423053944203
 11
345.057798139430420
 21
-74.888734900681030
  0
LINE
  8
0
  6
CONTINUOUS
 62
256
 10
346.880398608875620
 20
-70.811619346499597
 11
345.862560899096480
 21
-72.625423053944203
  0
LINE
  8
0
  6
CONTINUOUS
 62
256
 10
348.072889141246430
 20
-69.515792647869816
 11
346.880398608875620
 21
-70.811619346499597
  0
LINE
  8
0
  6
CONTINUOUS
 62
256
 10
349.395017438442440
 20
-68.786858829594934
 11
348.072889141246430
 21
-69.515792647869816
  0
LINE
  8
0
  6
CONTINUOUS
 62
256
 10
350.796874775775730
 20
-68.652334250964145
 11
349.395017438442440
 21
-68.786858829594934
  0
LINE
  8
0
  6
CONTINUOUS
 62
256
 10
352.225542754896310
 20
-69.117297050137623
 11
350.796874775775730
 21
-68.652334250964145
  0
LINE
  8
0
  6
CONTINUOUS
 62
256
 10
353.627090908548040
 20
-70.164195450647597
 11
352.225542754896310
 21
-69.117297050137623
  0
LINE
  8
0
  6
CONTINUOUS
 62
256
 10
354.948612509686480
 20
-71.753510319473392
 11
353.627090908548040
 21
-70.164195450647597
  0
LINE
  8
0
  6
CONTINUOUS
 62
256
 10
356.140221735657060
 20
-73.825246965934156
 11
354.948612509686480
 21
-71.753510319473392
  0
LINE
  8
0
  6
CONTINUOUS
 62
256
 10
357.156936796931060
 20
-76.301199867817402
 11
356.140221735657060
 21
-73.825246965934156
  0
LINE
  8
0
  6
CONTINUOUS
 62
256
 10
357.960377944593860
 20
-79.087904834104407
 11
357.156936796931060
 21
-76.301199867817402
  0
LINE
  8
0
  6
CONTINUOUS
 62
256
 10
358.520216258882840
 20
-82.080167163763562
 11
357.960377944593860
 21
-79.087904834104407
  0
LINE
  8
0
  6
CONTINUOUS
 62
256
 10
358.815318528779810
 20
-85.165032616936500
 11
358.520216258882840
 21
-82.080167163763562
  0
ARC
  8
0
  6
CONTINUOUS
 62
256
 10
349.437158136169730
 20
-78.284095407790232
 40
5.000000000000124
 50
171.164647896417900
 51
179.999999885885160
  0
ARC
  8
0
  6
CONTINUOUS
 62
256
 10
238.803714451955330
 20
-78.284095407790232
 40
5.000000023853318
 50
0.000000114114841
 51
8.835352103582073
  0
ARC
  8
0
  6
CONTINUOUS
 62
256
 10
346.437158112316410
 20
-148.165032616936510
 40
2.000000000000000
 50
180.000000000000000
 51
270.000000000000000
  0
LINE
  8
0
  6
CONTINUOUS
 62
256
 10
358.815318528779700
 20
-85.165032616936514
 11
358.933575805644980
 21
-88.208669103550164
  0
ARC
  8
0
  6
CONTINUOUS
 62
256
 10
241.803714475808650
 20
-148.165032616936510
 40
2.000000000000000
 50
270.000000000000000
 51
0.000000000000000
  0
LINE
  8
0
  6
CONTINUOUS
 62
256
 10
229.425554059345360
 20
-85.165032616936514
 11
229.307296782480080
 21
-88.208669103550164
  0
LINE
  8
0
  6
CONTINUOUS
 62
256
 10
243.803714475808650
 20
-78.284095397831834
 11
243.803714475808650
 21
-148.165032616936510
  0
LINE
  8
0
  6
CONTINUOUS
 62
256
 10
229.720656329242190
 20
-82.080167163763562
 11
229.425554059345160
 21
-85.165032616936486
  0
LINE
  8
0
  6
CONTINUOUS
 62
256
 10
230.280494643531110
 20
-79.087904834104407
 11
229.720656329242190
 21
-82.080167163763562
  0
LINE
  8
0
  6
CONTINUOUS
 62
256
 10
231.083935791193940
 20
-76.301199867817402
 11
230.280494643531110
 21
-79.087904834104407
  0
LINE
  8
0
  6
CONTINUOUS
 62
256
 10
232.100650852467960
 20
-73.825246965934156
 11
231.083935791193940
 21
-76.301199867817402
  0
LINE
  8
0
  6
CONTINUOUS
 62
256
 10
233.292260078438600
 20
-71.753510319473378
 11
232.100650852467960
 21
-73.825246965934156
  0
LINE
  8
0
  6
CONTINUOUS
 62
256
 10
234.613781679576990
 20
-70.164195450647583
 11
233.292260078438600
 21
-71.753510319473378
  0
LINE
  8
0
  6
CONTINUOUS
 62
256
 10
236.015329833228720
 20
-69.117297050137608
 11
234.613781679576990
 21
-70.164195450647583
  0
LINE
  8
0
  6
CONTINUOUS
 62
256
 10
237.443997812349350
 20
-68.652334250964145
 11
236.015329833228720
 21
-69.117297050137608
  0
LINE
  8
0
  6
CONTINUOUS
 62
256
 10
238.845855149682590
 20
-68.786858829594934
 11
237.443997812349350
 21
-68.652334250964145
  0
LINE
  8
0
  6
CONTINUOUS
 62
256
 10
240.167983446878650
 20
-69.515792647869802
 11
238.845855149682590
 21
-68.786858829594934
  0
LINE
  8
0
  6
CONTINUOUS
 62
256
 10
241.360473979249490
 20
-70.811619346499597
 11
240.167983446878650
 21
-69.515792647869802
  0
LINE
  8
0
  6
CONTINUOUS
 62
256
 10
242.378311689028580
 20
-72.625423053944189
 11
241.360473979249490
 21
-70.811619346499597
  0
LINE
  8
0
  6
CONTINUOUS
 62
256
 10
243.183074448694670
 20
-74.888734900681030
 11
242.378311689028580
 21
-72.625423053944189
  0
LINE
  8
0
  6
CONTINUOUS
 62
256
 10
243.744383449249770
 20
-77.516117635210904
 11
243.183074448694670
 21
-74.888734900681030
  0
ARC
  8
0
  6
CONTINUOUS
 62
256
 10
294.120436294062530
 20
-437.665032616936510
 40
400.000000000000000
 50
90.000000000000000
 51
93.193847212620923
  0
ARC
  8
0
  6
CONTINUOUS
 62
256
 10
294.120436294062530
 20
-837.665032616936510
 40
799.999999999999890
 50
88.510141843146059
 51
90.000000000000000
  0
ARC
  8
0
  6
CONTINUOUS
 62
256
 10
258.620436294062530
 20
-159.165032616936510
 40
7.000000000000130
 50
314.415308597194040
 51
325.150095420954590
  0
LINE
  8
0
  6
CONTINUOUS
 62
256
 10
263.519415779629070
 20
-164.165032616936510
 11
246.620436294062530
 21
-164.165032616936510
  0
ARC
  8
0
  6
CONTINUOUS
 62
256
 10
246.620436294062530
 20
-165.165032616936510
 40
1.000000000000000
 50
90.000000000000000
 51
180.000000000000000
  0
ARC
  8
0
  6
CONTINUOUS
 62
256
 10
341.620436294062530
 20
-165.165032616936510
 40
1.000000000000000
 50
0.000000000000000
 51
90.000000000000000
  0
LINE
  8
0
  6
CONTINUOUS
 62
256
 10
324.721456808496440
 20
-164.165032616936510
 11
341.620436294062530
 21
-164.165032616936510
  0
ARC
  8
0
  6
CONTINUOUS
 62
256
 10
329.620436294062530
 20
-159.165032616936510
 40
6.999999999999825
 50
214.849904579047490
 51
225.584691402808570
  0
ARC
  8
0
  6
CONTINUOUS
 62
256
 10
344.965831487162630
 20
-148.165032616936510
 40
2.000000000000000
 50
180.000000000000000
 51
270.000000000000000
  0
LINE
  8
0
  6
CONTINUOUS
 62
256
 10
342.965831487162630
 20
-148.165032616936510
 11
342.965831487162630
 21
-88.208669103550164
  0
ARC
  8
0
  6
CONTINUOUS
 62
256
 10
294.120436294062530
 20
-437.665032616936510
 40
379.345395193099990
 50
86.806152787379048
 51
90.000000000000000
  0
ARC
  8
0
  6
CONTINUOUS
 62
256
 10
274.620436294062530
 20
-88.208669103550164
 40
29.345395193099971
 50
93.193847212621137
 51
180.000000000000000
  0
ARC
  8
0
  6
CONTINUOUS
 62
256
 10
243.275041100962430
 20
-148.165032616936510
 40
2.000000000000000
 50
270.000000000000000
 51
0.000000000000000
  0
LINE
  8
0
  6
CONTINUOUS
 62
256
 10
245.275041100962430
 20
-148.165032616936510
 11
245.275041100962430
 21
-88.208669103550164
  0
ARC
  8
0
  6
CONTINUOUS
 62
256
 10
313.620436294062530
 20
-88.208669103550164
 40
29.345395193100103
 50
0.000000000000000
 51
86.806152787378878
  0
ARC
  8
0
  6
CONTINUOUS
 62
256
 10
294.120436294062530
 20
-437.665032616936510
 40
379.345395193100100
 50
90.000000000000000
 51
93.193847212620952
  0
ARC
  8
0
  6
CONTINUOUS
 62
256
 10
274.620436294062530
 20
-88.208669103550164
 40
49.999999999999936
 50
93.193847212620867
 51
180.000000000000000
  0
ARC
  8
0
  6
CONTINUOUS
 62
256
 10
360.933575805644980
 20
-148.165032616936510
 40
2.000000000000000
 50
180.000000000000000
 51
270.000000000000000
  0
ARC
  8
0
  6
CONTINUOUS
 62
256
 10
365.620436294062530
 20
-148.422391929817190
 40
2.000000000000000
 50
180.000000000000000
 51
250.528779365512210
  0
LINE
  8
0
  6
CONTINUOUS
 62
256
 10
363.620436294062530
 20
-148.422391929817190
 11
363.620436294062530
 21
-87.665032616936514
  0
ARC
  8
0
  6
CONTINUOUS
 62
256
 10
222.620436294062530
 20
-148.422391929817190
 40
1.999999999999973
 50
289.471220634500180
 51
0.000000000000000
  0
LINE
  8
0
  6
CONTINUOUS
 62
256
 10
224.620436294062530
 20
-148.422391929817190
 11
224.620436294062530
 21
-88.208669103550164
  0
ARC
  8
0
  6
CONTINUOUS
 62
256
 10
313.620436294062530
 20
-87.918575472923067
 40
50.000000000000000
 50
0.000000000000000
 51
88.510141843145860
  0
CIRCLE
  8
0
  6
CONTINUOUS
 62
256
 10
294.120436294062530
 20
-85.165032616936514
 40
22.500000000000000
  0
LINE
  8
0
  6
CONTINUOUS
 62
256
 10
245.620436294062530
 20
-165.165032616936510
 11
221.620436294062530
 21
-165.165032616936510
  0
LINE
  8
0
  6
CONTINUOUS
 62
256
 10
342.620436294062530
 20
-165.165032616936510
 11
366.620436294062530
 21
-165.165032616936510
  0
LINE
  8
0
  6
CONTINUOUS
 62
256
 10
294.120436294062530
 20
-150.165032616936510
 11
364.120436294062530
 21
-150.165032616936510
  0
LINE
  8
0
  6
DASHDOT
 62
256
 10
231.620436294062530
 20
-169.462426949822200
 11
231.620436294062530
 21
-146.201792242605730
  0
LINE
  8
0
  6
DASHDOT
 62
256
 10
356.620436294062530
 20
-169.462426949822200
 11
356.620436294062530
 21
-146.201792242605730
  0
LINE
  8
0
  6
CONTINUOUS
 62
256
 10
221.620436294062530
 20
-165.165032616936510
 11
221.620436294062530
 21
-152.665032616936510
  0
LINE
  8
0
  6
CONTINUOUS
 62
256
 10
366.620436294062530
 20
-165.165032616936510
 11
366.620436294062530
 21
-152.665032616936510
  0
LINE
  8
0
  6
CONTINUOUS
 62
256
 10
294.120436294062530
 20
-163.165032616936510
 11
264.364998940600800
 21
-163.165032616936510
  0
LINE
  8
0
  6
CONTINUOUS
 62
256
 10
294.120436294062530
 20
-163.165032616936510
 11
323.875873647524710
 21
-163.165032616936510
  0
ARC
  8
0
  6
CONTINUOUS
 62
256
 10
224.120436294062530
 20
-152.665032616936510
 40
2.500000000000000
 50
90.000000000000000
 51
180.000000000000000
  0
ARC
  8
0
  6
CONTINUOUS
 62
256
 10
364.120436294062530
 20
-152.665032616936510
 40
2.500000000000000
 50
0.000000000000000
 51
90.000000000000000
  0
LINE
  8
0
  6
CONTINUOUS
 62
256
 10
294.120436294062530
 20
-150.165032616936510
 11
224.120436294062530
 21
-150.165032616936510
  0
LINE
  8
0
  6
DASHED
 62
256
 10
324.721456808496440
 20
-164.165032616936510
 11
333.620436294062530
 21
-164.165032616936510
  0
LINE
  8
0
  6
DASHED
 62
256
 10
294.120436294062530
 20
-163.165032616936510
 11
323.875873647524710
 21
-163.165032616936510
  0
ARC
  8
0
  6
DASHED
 62
256
 10
329.620436294062530
 20
-159.165032616936510
 40
6.999999999999825
 50
214.849904579047490
 51
225.584691402808570
  0
ARC
  8
0
  6
DASHED
 62
256
 10
258.620436294062530
 20
-159.165032616936510
 40
7.000000000000130
 50
314.415308597194040
 51
325.150095420954590
  0
LINE
  8
0
  6
DASHED
 62
256
 10
294.120436294062530
 20
-163.165032616936510
 11
264.364998940600800
 21
-163.165032616936510
  0
LINE
  8
0
  6
DASHED
 62
256
 10
263.519415779629070
 20
-164.165032616936510
 11
254.620436294062530
 21
-164.165032616936510
  0
LINE
  8
0
  6
CONTINUOUS
 62
256
 10
358.933575805644980
 20
-88.208669103550164
 11
358.933575805644980
 21
-148.165032616936510
  0
ARC
  8
0
  6
CONTINUOUS
 62
256
 10
227.307296782480080
 20
-148.165032616936510
 40
2.000000000000000
 50
270.000000000000000
 51
0.000000000000000
  0
LINE
  8
0
  6
CONTINUOUS
 62
256
 10
229.307296782480080
 20
-88.208669103550164
 11
229.307296782480080
 21
-148.165032616936510
  0
CIRCLE
  8
0
  6
CONTINUOUS
 62
256
 10
294.120436294062530
 20
-85.165032616936514
 40
17.500244140625000
  0
LINE
  8
0
  6
CONTINUOUS
 62
256
 10
337.820436294062800
 20
-139.865032616936560
 11
337.820436294062800
 21
-87.665032616936514
  0
ARC
  8
0
  6
CONTINUOUS
 62
256
 10
332.820436294062800
 20
-139.865032616936560
 40
5.000000000000000
 50
270.000000000000000
 51
0.000000000000000
  0
LINE
  8
0
  6
CONTINUOUS
 62
256
 10
294.120436294062530
 20
-144.865032616936560
 11
332.820436294062800
 21
-144.865032616936560
  0
ARC
  8
0
  6
CONTINUOUS
 62
256
 10
294.120436294062530
 20
-85.165032616936514
 40
27.799999999999955
 50
270.000000000000000
 51
356.151753030608800
  0
ARC
  8
0
  6
CONTINUOUS
 62
256
 10
323.853246453884370
 20
-87.165032616936514
 40
2.000000000000000
 50
90.000000000000000
 51
176.151753030608890
  0
LINE
  8
0
  6
CONTINUOUS
 62
256
 10
323.853246453884370
 20
-85.165032616936514
 11
335.320436294062800
 21
-85.165032616936514
  0
ARC
  8
0
  6
CONTINUOUS
 62
256
 10
335.320436294062800
 20
-87.665032616936514
 40
2.500000000000000
 50
0.000000000000000
 51
90.000000000000000
  0
ARC
  8
0
  6
CONTINUOUS
 62
256
 10
294.120436294062530
 20
-85.165032616936514
 40
27.800000000000036
 50
183.848246969391080
 51
270.000000000000000
  0
ARC
  8
0
  6
CONTINUOUS
 62
256
 10
264.387626134240690
 20
-87.165032616936514
 40
2.000000000000042
 50
3.848246969390999
 51
90.000000000000000
  0
LINE
  8
0
  6
CONTINUOUS
 62
256
 10
264.387626134240690
 20
-85.165032616936514
 11
252.920436294062260
 21
-85.165032616936514
  0
ARC
  8
0
  6
CONTINUOUS
 62
256
 10
252.920436294062260
 20
-87.665032616936514
 40
2.500000000000000
 50
90.000000000000000
 51
180.000000000000000
  0
LINE
  8
0
  6
CONTINUOUS
 62
256
 10
250.420436294062260
 20
-139.865032616936560
 11
250.420436294062260
 21
-87.665032616936514
  0
ARC
  8
0
  6
CONTINUOUS
 62
256
 10
255.420436294062260
 20
-139.865032616936560
 40
5.000000000000000
 50
180.000000000000000
 51
270.000000000000000
  0
LINE
  8
0
  6
CONTINUOUS
 62
256
 10
294.120436294062530
 20
-144.865032616936560
 11
255.420436294062260
 21
-144.865032616936560
  0
LINE
  8
0
  6
DASHDOT
 62
256
 10
53.526865275478485
 20
184.253526132364410
 11
53.526865275478485
 21
165.920215388010320
  0
LINE
  8
0
  6
DASHDOT
 62
256
 10
53.526865275478485
 20
40.550431227460422
 11
53.526865275478485
 21
59.058854300404846
  0
LINE
  8
0
  6
DASHDOT
 62
256
 10
126.526865275478490
 20
40.515224114373041
 11
126.526865275478490
 21
60.728881593360484
  0
LINE
  8
0
  6
DASHDOT
 62
256
 10
126.526865275478490
 20
184.380507660330980
 11
126.526865275478490
 21
165.030103675107740
  0
LINE
  8
0
  6
DASHDOT
 62
256
 10
178.686542912263580
 20
112.340470595965370
 11
-178.578954802025690
 21
112.340470595965370
  0
ARC
  8
0
  6
DASHED
 62
256
 10
-104.473134724522200
 20
34.340470595965598
 40
7.000000000000000
 50
180.000000000000000
 51
0.000000000000000
  0
LINE
  8
0
  6
DASHED
 62
256
 10
-111.473134724522200
 20
34.340470595965598
 11
-111.473134724522200
 21
48.840470595965598
  0
LINE
  8
0
  6
DASHED
 62
256
 10
-97.473134724522197
 20
34.340470595965598
 11
-97.473134724522197
 21
48.840470595965598
  0
CIRCLE
  8
0
  6
DASHED
 62
256
 10
-54.473134724522197
 20
34.340470595965598
 40
6.000000000000000
  0
ARC
  8
0
  6
DASHED
 62
256
 10
-54.473134724522197
 20
34.340470595965598
 40
7.000000000000000
 50
180.000000000000000
 51
0.000000000000000
  0
LINE
  8
0
  6
DASHED
 62
256
 10
-61.473134724522197
 20
34.340470595965598
 11
-61.473134724522197
 21
48.840470595965598
  0
LINE
  8
0
  6
DASHED
 62
256
 10
-47.473134724522197
 20
34.340470595965598
 11
-47.473134724522197
 21
48.840470595965598
  0
LINE
  8
0
  6
DASHDOT
 62
256
 10
-113.558823831105760
 20
34.340470595965598
 11
-93.072235597396457
 21
34.340470595965598
  0
LINE
  8
0
  6
DASHDOT
 62
256
 10
-104.473134724522200
 20
25.396313338289474
 11
-104.473134724522200
 21
46.944802318821189
  0
LINE
  8
0
  6
DASHDOT
 62
256
 10
-65.756664140248859
 20
34.340470595965598
 11
-43.989686731720553
 21
34.340470595965598
  0
LINE
  8
0
  6
DASHDOT
 62
256
 10
-54.473134724522197
 20
25.396313338289474
 11
-54.473134724522197
 21
47.375815470824477
  0
LINE
  8
0
  6
DASHDOT
 62
256
 10
15.526865275477576
 20
171.840470595965140
 11
15.526865275477576
 21
176.840470595965140
  0
LINE
  8
0
  6
CONTINUOUS
 62
256
 10
-108.473134724522420
 20
176.840470595965140
 11
15.526865275477576
 21
176.840470595965140
  0
LINE
  8
0
  6
CONTINUOUS
 62
256
 10
5.026865275477576
 20
195.501495655651980
 11
-97.973134724522424
 21
195.501495655651980
  0
ARC
  8
0
  6
CONTINUOUS
 62
256
 10
10.526865275477576
 20
200.501495655651980
 40
5.000000000000073
 50
287.457603123721870
 51
0.000000000000000
  0
ARC
  8
0
  6
CONTINUOUS
 62
256
 10
10.726865275477394
 20
196.178041781394310
 40
1.300000000000182
 50
0.000000000000000
 51
73.398450400977822
  0
ARC
  8
0
  6
CONTINUOUS
 62
256
 10
8.526865275477576
 20
188.799017455644840
 40
9.000000000000123
 50
73.398450400980877
 51
106.601549599019120
  0
ARC
  8
0
  6
CONTINUOUS
 62
256
 10
6.326865275477758
 20
196.178041781394310
 40
1.300000000000019
 50
106.601549599022380
 51
180.000000000000000
  0
LINE
  8
0
  6
CONTINUOUS
 62
256
 10
12.026865275477576
 20
196.178041781394310
 11
12.026865275477576
 21
195.191032043469930
  0
LINE
  8
0
  6
CONTINUOUS
 62
256
 10
11.959613756888880
 20
195.156933833273940
 11
12.026865275477574
 21
195.191032043469930
  0
LINE
  8
0
  6
CONTINUOUS
 62
256
 10
11.760443639267077
 20
195.124145998173300
 11
11.959613756888880
 21
195.156933833273940
  0
LINE
  8
0
  6
CONTINUOUS
 62
256
 10
11.437008918536481
 20
195.093928556283290
 11
11.760443639267077
 21
195.124145998173300
  0
LINE
  8
0
  6
CONTINUOUS
 62
256
 10
11.001739009630491
 20
195.067442746949580
 11
11.437008918536481
 21
195.093928556283290
  0
LINE
  8
0
  6
CONTINUOUS
 62
256
 10
10.471361091046182
 20
195.045706404971500
 11
11.001739009630491
 21
195.067442746949580
  0
LINE
  8
0
  6
CONTINUOUS
 62
256
 10
9.866257288755389
 20
195.029554845781320
 11
10.471361091046182
 21
195.045706404971500
  0
LINE
  8
0
  6
CONTINUOUS
 62
256
 10
9.209681402534024
 20
195.019608764740870
 11
9.866257288755389
 21
195.029554845781320
  0
LINE
  8
0
  6
CONTINUOUS
 62
256
 10
8.526865275477576
 20
195.016250384166710
 11
9.209681402534024
 21
195.019608764740870
  0
LINE
  8
0
  6
CONTINUOUS
 62
256
 10
7.844049148421126
 20
195.019608764740870
 11
8.526865275477576
 21
195.016250384166710
  0
LINE
  8
0
  6
CONTINUOUS
 62
256
 10
7.187473262199761
 20
195.029554845781320
 11
7.844049148421126
 21
195.019608764740870
  0
LINE
  8
0
  6
CONTINUOUS
 62
256
 10
6.582369459908968
 20
195.045706404971500
 11
7.187473262199761
 21
195.029554845781320
  0
LINE
  8
0
  6
CONTINUOUS
 62
256
 10
6.051991541324659
 20
195.067442746949580
 11
6.582369459908968
 21
195.045706404971500
  0
LINE
  8
0
  6
CONTINUOUS
 62
256
 10
5.616721632418667
 20
195.093928556283290
 11
6.051991541324659
 21
195.067442746949580
  0
LINE
  8
0
  6
CONTINUOUS
 62
256
 10
5.293286911688073
 20
195.124145998173300
 11
5.616721632418667
 21
195.093928556283290
  0
LINE
  8
0
  6
CONTINUOUS
 62
256
 10
5.094116794066269
 20
195.156933833273940
 11
5.293286911688073
 21
195.124145998173300
  0
LINE
  8
0
  6
CONTINUOUS
 62
256
 10
5.026865275477576
 20
195.191032043469930
 11
5.094116794066269
 21
195.156933833273940
  0
LINE
  8
0
  6
CONTINUOUS
 62
256
 10
5.026865275477576
 20
196.178041781394310
 11
5.026865275477576
 21
195.191032043469930
  0
ARC
  8
0
  6
CONTINUOUS
 62
256
 10
-103.473134724522420
 20
200.501495655651980
 40
5.000000000000000
 50
180.000000000000000
 51
252.542396876278100
  0
LINE
  8
0
  6
CONTINUOUS
 62
256
 10
-104.973134724522420
 20
196.178041781394310
 11
-104.973134724522420
 21
195.191032043469930
  0
LINE
  8
0
  6
CONTINUOUS
 62
256
 10
-97.973134724522424
 20
196.178041781394310
 11
-97.973134724522424
 21
195.191032043469930
  0
ARC
  8
0
  6
CONTINUOUS
 62
256
 10
-103.673134724522240
 20
196.178041781394310
 40
1.300000000000019
 50
106.601549599022380
 51
180.000000000000000
  0
ARC
  8
0
  6
CONTINUOUS
 62
256
 10
-101.473134724522420
 20
188.799017455644840
 40
9.000000000000123
 50
73.398450400980863
 51
106.601549599019150
  0
ARC
  8
0
  6
CONTINUOUS
 62
256
 10
-99.273134724522606
 20
196.178041781394310
 40
1.300000000000182
 50
0.000000000000000
 51
73.398450400977964
  0
LINE
  8
0
  6
CONTINUOUS
 62
256
 10
-98.040386243111115
 20
195.156933833273940
 11
-97.973134724522424
 21
195.191032043469930
  0
LINE
  8
0
  6
CONTINUOUS
 62
256
 10
-98.239556360732919
 20
195.124145998173300
 11
-98.040386243111115
 21
195.156933833273940
  0
LINE
  8
0
  6
CONTINUOUS
 62
256
 10
-98.562991081463522
 20
195.093928556283290
 11
-98.239556360732919
 21
195.124145998173300
  0
LINE
  8
0
  6
CONTINUOUS
 62
256
 10
-98.998260990369516
 20
195.067442746949580
 11
-98.562991081463522
 21
195.093928556283290
  0
LINE
  8
0
  6
CONTINUOUS
 62
256
 10
-99.528638908953823
 20
195.045706404971500
 11
-98.998260990369516
 21
195.067442746949580
  0
LINE
  8
0
  6
CONTINUOUS
 62
256
 10
-100.133742711244590
 20
195.029554845781320
 11
-99.528638908953823
 21
195.045706404971500
  0
LINE
  8
0
  6
CONTINUOUS
 62
256
 10
-100.790318597465980
 20
195.019608764740870
 11
-100.133742711244590
 21
195.029554845781320
  0
LINE
  8
0
  6
CONTINUOUS
 62
256
 10
-101.473134724522420
 20
195.016250384166710
 11
-100.790318597465980
 21
195.019608764740870
  0
LINE
  8
0
  6
CONTINUOUS
 62
256
 10
-102.155950851578870
 20
195.019608764740870
 11
-101.473134724522420
 21
195.016250384166710
  0
LINE
  8
0
  6
CONTINUOUS
 62
256
 10
-102.812526737800240
 20
195.029554845781320
 11
-102.155950851578870
 21
195.019608764740870
  0
LINE
  8
0
  6
CONTINUOUS
 62
256
 10
-103.417630540091030
 20
195.045706404971500
 11
-102.812526737800240
 21
195.029554845781320
  0
LINE
  8
0
  6
CONTINUOUS
 62
256
 10
-103.948008458675350
 20
195.067442746949580
 11
-103.417630540091030
 21
195.045706404971500
  0
LINE
  8
0
  6
CONTINUOUS
 62
256
 10
-104.383278367581330
 20
195.093928556283290
 11
-103.948008458675350
 21
195.067442746949580
  0
LINE
  8
0
  6
CONTINUOUS
 62
256
 10
-104.706713088311910
 20
195.124145998173300
 11
-104.383278367581330
 21
195.093928556283290
  0
LINE
  8
0
  6
CONTINUOUS
 62
256
 10
-104.905883205933730
 20
195.156933833273940
 11
-104.706713088311910
 21
195.124145998173300
  0
LINE
  8
0
  6
CONTINUOUS
 62
256
 10
-104.973134724522420
 20
195.191032043469930
 11
-104.905883205933730
 21
195.156933833273940
  0
LINE
  8
0
  6
CONTINUOUS
 62
256
 10
15.526865275477576
 20
200.501495655651980
 11
15.526865275477576
 21
213.440470595965050
  0
ARC
  8
0
  6
CONTINUOUS
 62
256
 10
10.526865275477576
 20
181.840470595965140
 40
5.000000000000000
 50
270.000000000000000
 51
0.000000000000000
  0
LINE
  8
0
  6
CONTINUOUS
 62
256
 10
-108.473134724522420
 20
200.501495655651980
 11
-108.473134724522420
 21
213.440470595965050
  0
LINE
  8
0
  6
CONTINUOUS
 62
256
 10
-108.473134724522420
 20
200.034980887027360
 11
-109.473134724522420
 21
200.034980887027360
  0
LINE
  8
0
  6
CONTINUOUS
 62
256
 10
16.526865275477576
 20
194.941343958750170
 11
-109.473134724522420
 21
194.941343958750170
  0
ARC
  8
0
  6
CONTINUOUS
 62
256
 10
-103.473134724522420
 20
181.840470595965140
 40
5.000000000000000
 50
180.000000000000000
 51
270.000000000000000
  0
ARC
  8
0
  6
CONTINUOUS
 62
256
 10
-103.473134724522420
 20
213.440470595965050
 40
5.000000000000000
 50
90.000000000000000
 51
180.000000000000000
  0
ARC
  8
0
  6
CONTINUOUS
 62
256
 10
-109.473134724522420
 20
198.034980887027360
 40
2.000000000000000
 50
90.000000000000000
 51
180.000000000000000
  0
ARC
  8
0
  6
CONTINUOUS
 62
256
 10
-109.473134724522420
 20
196.941343958750170
 40
2.000000000000000
 50
180.000000000000000
 51
270.000000000000000
  0
ARC
  8
0
  6
CONTINUOUS
 62
256
 10
-109.473134724522420
 20
196.142342087664930
 40
2.000000000000000
 50
180.000000000000000
 51
270.000000000000000
  0
LINE
  8
0
  6
CONTINUOUS
 62
256
 10
-111.473134724522420
 20
198.034980887027360
 11
-111.473134724522420
 21
195.343340216546040
  0
ARC
  8
0
  6
CONTINUOUS
 62
256
 10
-109.473134724522420
 20
195.343340216546040
 40
2.000000000000000
 50
180.000000000000000
 51
270.000000000000000
  0
LINE
  8
0
  6
CONTINUOUS
 62
256
 10
-108.473134724522420
 20
181.840470595965140
 11
-108.473134724522420
 21
193.343340216546040
  0
ARC
  8
0
  6
CONTINUOUS
 62
256
 10
10.526865275477576
 20
213.440470595965050
 40
5.000000000000000
 50
0.000000000000000
 51
90.000000000000000
  0
LINE
  8
0
  6
CONTINUOUS
 62
256
 10
-103.473134724522420
 20
218.440470595965050
 11
10.526865275477576
 21
218.440470595965050
  0
LINE
  8
0
  6
CONTINUOUS
 62
256
 10
15.526865275477576
 20
181.840470595965140
 11
15.526865275477576
 21
193.142342087664930
  0
LINE
  8
0
  6
CONTINUOUS
 62
256
 10
18.526865275477576
 20
198.034980887027360
 11
18.526865275477576
 21
195.343340216546040
  0
LINE
  8
0
  6
CONTINUOUS
 62
256
 10
16.526865275477576
 20
194.142342087648100
 11
-109.473134724522420
 21
194.142342087648100
  0
LINE
  8
0
  6
CONTINUOUS
 62
256
 10
16.526865275477576
 20
193.343340216546040
 11
-109.473134724522420
 21
193.343340216546040
  0
LINE
  8
0
  6
CONTINUOUS
 62
256
 10
15.526865275477576
 20
200.034980887027360
 11
16.526865275477576
 21
200.034980887027360
  0
ARC
  8
0
  6
CONTINUOUS
 62
256
 10
16.526865275477576
 20
198.034980887027360
 40
2.000000000000000
 50
0.000000000000000
 51
90.000000000000000
  0
ARC
  8
0
  6
CONTINUOUS
 62
256
 10
16.526865275477576
 20
196.941343958750170
 40
2.000000000000000
 50
270.000000000000000
 51
0.000000000000000
  0
ARC
  8
0
  6
CONTINUOUS
 62
256
 10
16.526865275477576
 20
196.142342087664930
 40
2.000000000000000
 50
270.000000000000000
 51
0.000000000000000
  0
ARC
  8
0
  6
CONTINUOUS
 62
256
 10
16.526865275477576
 20
195.343340216546040
 40
2.000000000000000
 50
270.000000000000000
 51
0.000000000000000
  0
LINE
  8
0
  6
CONTINUOUS
 62
256
 10
-108.473134724522420
 20
171.840470595965140
 11
-108.473134724522420
 21
176.840470595965140
  0
LINE
  8
0
  6
DASHDOT
 62
256
 10
15.526865275477576
 20
171.840470595965140
 11
15.526865275477576
 21
176.840470595965140
  0
LINE
  8
0
  6
CONTINUOUS
 62
256
 10
15.526865275477576
 20
171.840470595965140
 11
-108.473134724522420
 21
171.840470595965140
  0
LINE
  8
0
  6
CONTINUOUS
 62
256
 10
-41.973134724522197
 20
171.840470595965370
 11
40.026865275477576
 21
171.840470595965370
  0
LINE
  8
0
  6
CONTINUOUS
 62
256
 10
-108.973134724522200
 20
169.340470595965370
 11
45.175218731233457
 21
169.340470595965370
  0
LINE
  8
0
  6
CONTINUOUS
 62
256
 10
-108.973134724522200
 20
168.340470595965370
 11
45.927523198693166
 21
168.340470595965370
  0
LINE
  8
0
  6
CONTINUOUS
 62
256
 10
-108.973134724522200
 20
167.340470595965370
 11
46.912486997817012
 21
167.340470595965370
  0
LINE
  8
0
  6
CONTINUOUS
 62
256
 10
-108.973134724522200
 20
162.656004782741090
 11
65.526865275478485
 21
162.656004782741090
  0
LINE
  8
0
  6
CONTINUOUS
 62
256
 10
-108.973134724522200
 20
157.706257314435330
 11
65.526865275478485
 21
157.706257314435330
  0
LINE
  8
0
  6
CONTINUOUS
 62
256
 10
-108.973134724522200
 20
127.340470595965370
 11
65.526865275478485
 21
127.340470595965370
  0
LINE
  8
0
  6
CONTINUOUS
 62
256
 10
-108.973134724522200
 20
131.713732405466540
 11
65.526865275478485
 21
131.713732405466540
  0
LINE
  8
0
  6
CONTINUOUS
 62
256
 10
-108.973134724522200
 20
132.979970321553760
 11
65.526865275478485
 21
132.979970321553760
  0
LINE
  8
0
  6
CONTINUOUS
 62
256
 10
-108.973134724522200
 20
137.170524053095960
 11
65.526865275478485
 21
137.170524053095960
  0
LINE
  8
0
  6
CONTINUOUS
 62
256
 10
-108.973134724522200
 20
138.532404388445230
 11
65.526865275478485
 21
138.532404388445230
  0
LINE
  8
0
  6
CONTINUOUS
 62
256
 10
-108.973134724522200
 20
142.622904922535100
 11
65.526865275478485
 21
142.622904922535100
  0
LINE
  8
0
  6
CONTINUOUS
 62
256
 10
-108.973134724522200
 20
144.091262312339720
 11
65.526865275478485
 21
144.091262312339720
  0
LINE
  8
0
  6
CONTINUOUS
 62
256
 10
-108.973134724522200
 20
148.055007736139260
 11
65.526865275478485
 21
148.055007736139260
  0
LINE
  8
0
  6
CONTINUOUS
 62
256
 10
-108.973134724522200
 20
149.659655651701310
 11
65.526865275478485
 21
149.659655651701310
  0
LINE
  8
0
  6
CONTINUOUS
 62
256
 10
-108.973134724522200
 20
97.340470595965371
 11
65.526865275478485
 21
97.340470595965371
  0
LINE
  8
0
  6
CONTINUOUS
 62
256
 10
-108.973134724522200
 20
92.967208786464198
 11
65.526865275478485
 21
92.967208786464198
  0
LINE
  8
0
  6
CONTINUOUS
 62
256
 10
-108.973134724522200
 20
91.700970870376977
 11
65.526865275478485
 21
91.700970870376977
  0
LINE
  8
0
  6
CONTINUOUS
 62
256
 10
-108.973134724522200
 20
87.510417138834782
 11
65.526865275478485
 21
87.510417138834782
  0
LINE
  8
0
  6
CONTINUOUS
 62
256
 10
-108.973134724522200
 20
86.148536803485513
 11
65.526865275478485
 21
86.148536803485513
  0
LINE
  8
0
  6
CONTINUOUS
 62
256
 10
-108.973134724522200
 20
82.058036269395643
 11
65.526865275478485
 21
82.058036269395643
  0
LINE
  8
0
  6
CONTINUOUS
 62
256
 10
-108.973134724522200
 20
80.589678879591020
 11
65.526865275478485
 21
80.589678879591020
  0
LINE
  8
0
  6
CONTINUOUS
 62
256
 10
-108.973134724522200
 20
76.625933455791483
 11
65.526865275478485
 21
76.625933455791483
  0
LINE
  8
0
  6
CONTINUOUS
 62
256
 10
-108.973134724522200
 20
75.021285540229428
 11
65.526865275478485
 21
75.021285540229428
  0
LINE
  8
0
  6
CONTINUOUS
 62
256
 10
-108.973134724522200
 20
66.974683877495409
 11
65.526865275478485
 21
66.974683877495409
  0
LINE
  8
0
  6
CONTINUOUS
 62
256
 10
-108.973134724522200
 20
62.024936409189650
 11
65.526865275478485
 21
62.024936409189650
  0
LINE
  8
0
  6
CONTINUOUS
 62
256
 10
-108.973134724522200
 20
57.340470595965371
 11
46.912486997817012
 21
57.340470595965371
  0
LINE
  8
0
  6
CONTINUOUS
 62
256
 10
-108.973134724522200
 20
56.340470595965371
 11
45.927523198693166
 21
56.340470595965371
  0
LINE
  8
0
  6
CONTINUOUS
 62
256
 10
-108.973134724522200
 20
55.340470595965371
 11
45.175218731233457
 21
55.340470595965371
  0
LINE
  8
0
  6
CONTINUOUS
 62
256
 10
-41.973134724522197
 20
52.840470595965371
 11
40.026865275477576
 21
52.840470595965371
  0
LINE
  8
0
  6
CONTINUOUS
 62
256
 10
-108.973134724522200
 20
171.840470595965140
 11
40.026865275477576
 21
171.840470595965140
  0
ARC
  8
0
  6
CONTINUOUS
 62
256
 10
-115.973134724522200
 20
47.721249679092580
 40
3.000000000000000
 50
90.000000000000000
 51
180.000000000000000
  0
ARC
  8
0
  6
CONTINUOUS
 62
256
 10
-111.973134724522200
 20
53.721249679092580
 40
3.000000000000000
 50
270.000000000000000
 51
0.000000000000000
  0
LINE
  8
0
  6
CONTINUOUS
 62
256
 10
-118.973134724522200
 20
47.340470595965371
 11
-118.973134724522200
 21
47.721249679092580
  0
LINE
  8
0
  6
CONTINUOUS
 62
256
 10
-115.973134724522200
 20
50.721249679092580
 11
-111.973134724522200
 21
50.721249679092580
  0
LINE
  8
0
  6
CONTINUOUS
 62
256
 10
-41.973134724522197
 20
48.840470595965598
 11
-41.973134724522197
 21
53.840470595965598
  0
LINE
  8
0
  6
CONTINUOUS
 62
256
 10
-49.973134724522197
 20
18.840470595965826
 11
-57.973134724522197
 21
18.840470595965826
  0
LINE
  8
0
  6
CONTINUOUS
 62
256
 10
-57.973134724522197
 20
19.340470595965826
 11
-57.973134724522197
 21
18.840470595965826
  0
LINE
  8
0
  6
CONTINUOUS
 62
256
 10
-52.473134724522197
 20
19.340470595965826
 11
-52.473134724522197
 21
18.840470595965826
  0
LINE
  8
0
  6
CONTINUOUS
 62
256
 10
-49.973134724522197
 20
19.340470595965826
 11
-49.973134724522197
 21
18.840470595965826
  0
LINE
  8
0
  6
CONTINUOUS
 62
256
 10
-43.973134724522197
 20
19.340470595965826
 11
-114.973134724522200
 21
19.340470595965826
  0
ARC
  8
0
  6
CONTINUOUS
 62
256
 10
-114.973134724522200
 20
20.340470595965826
 40
1.000000000000000
 50
180.000000000000000
 51
270.000000000000000
  0
ARC
  8
0
  6
CONTINUOUS
 62
256
 10
-43.973134724522197
 20
20.340470595965826
 40
1.000000000000000
 50
270.000000000000000
 51
0.000000000000000
  0
LINE
  8
0
  6
CONTINUOUS
 62
256
 10
-42.973134724522197
 20
20.340470595965826
 11
-42.973134724522197
 21
48.840470595965598
  0
LINE
  8
0
  6
CONTINUOUS
 62
256
 10
-115.973134724522200
 20
20.340470595965826
 11
-115.973134724522200
 21
48.840470595965598
  0
LINE
  8
0
  6
CONTINUOUS
 62
256
 10
-41.973134724522197
 20
48.840470595965598
 11
-116.973134724522200
 21
48.840470595965598
  0
LINE
  8
0
  6
CONTINUOUS
 62
256
 10
-41.973134724522197
 20
53.840470595965598
 11
-108.973134724522200
 21
53.840470595965598
  0
LINE
  8
0
  6
CONTINUOUS
 62
256
 10
-116.973134724522200
 20
48.840470595965598
 11
-116.973134724522200
 21
50.549676803838793
  0
ARC
  8
0
  6
CONTINUOUS
 62
256
 10
-137.667158946942660
 20
67.340470595965371
 40
20.000000000000000
 50
234.999999999999740
 51
270.000000000000000
  0
LINE
  8
0
  6
CONTINUOUS
 62
256
 10
-118.973134724522200
 20
47.340470595965371
 11
-137.667158946942660
 21
47.340470595965371
  0
ARC
  8
0
  6
CONTINUOUS
 62
256
 10
-157.373134724472040
 20
59.897265538719921
 40
2.600000000000136
 50
180.000000000000000
 51
234.999999999998810
  0
LINE
  8
0
  6
CONTINUOUS
 62
256
 10
-149.138687673963660
 20
50.957429710185579
 11
-158.864433458984650
 21
57.767470223568807
  0
LINE
  8
0
  6
CONTINUOUS
 62
256
 10
-159.973134724472170
 20
112.340470595965370
 11
-159.973134724472170
 21
59.897265538719921
  0
LINE
  8
0
  6
CONTINUOUS
 62
256
 10
40.026865275477576
 20
52.840470595965371
 11
40.026865275477576
 21
112.340470595965370
  0
LINE
  8
0
  6
CONTINUOUS
 62
256
 10
-108.973134724522200
 20
112.340470595965370
 11
-108.973134724522200
 21
53.721249679092580
  0
ARC
  8
0
  6
CONTINUOUS
 62
256
 10
-157.373134724472040
 20
164.783675653210820
 40
2.599999999999721
 50
125.000000000001380
 51
180.000000000000000
  0
LINE
  8
0
  6
CONTINUOUS
 62
256
 10
-149.138687673963660
 20
173.723511481745160
 11
-158.864433458984650
 21
166.913470968361930
  0
ARC
  8
0
  6
CONTINUOUS
 62
256
 10
-137.667158946942660
 20
157.340470595965370
 40
20.000000000000000
 50
90.000000000000000
 51
125.000000000000240
  0
LINE
  8
0
  6
CONTINUOUS
 62
256
 10
-159.973134724472170
 20
112.340470595965370
 11
-159.973134724472170
 21
164.783675653210820
  0
LINE
  8
0
  6
CONTINUOUS
 62
256
 10
-108.973134724522200
 20
177.340470595965370
 11
-137.667158946942660
 21
177.340470595965370
  0
LINE
  8
0
  6
CONTINUOUS
 62
256
 10
40.026865275477576
 20
171.840470595965140
 11
40.026865275477576
 21
112.340470595965370
  0
LINE
  8
0
  6
CONTINUOUS
 62
256
 10
-108.973134724522200
 20
112.340470595965370
 11
-108.973134724522200
 21
177.340470595965370
  0
LINE
  8
0
  6
CONTINUOUS
 62
256
 10
-119.973134724521740
 20
166.080585696402980
 11
-121.973134724521740
 21
164.427944057279550
  0
LINE
  8
0
  6
CONTINUOUS
 62
256
 10
-117.973134724521740
 20
167.256371182025760
 11
-119.973134724521740
 21
166.080585696402980
  0
LINE
  8
0
  6
CONTINUOUS
 62
256
 10
-119.973134724521740
 20
166.080585696402980
 11
-117.973134724521740
 21
164.427944057279550
  0
LINE
  8
0
  6
CONTINUOUS
 62
256
 10
-121.973134724521740
 20
167.256371182025760
 11
-119.973134724521740
 21
166.080585696402980
  0
LINE
  8
0
  6
CONTINUOUS
 62
256
 10
-115.363443906626570
 20
163.561038661825080
 11
-115.273134724521750
 21
164.263995628025440
  0
LINE
  8
0
  6
CONTINUOUS
 62
256
 10
-115.630900921718710
 20
162.885095937612990
 11
-115.363443906626570
 21
163.561038661825080
  0
LINE
  8
0
  6
CONTINUOUS
 62
256
 10
-116.065227546699770
 20
162.262143555207590
 11
-115.630900921718710
 21
162.885095937612990
  0
LINE
  8
0
  6
CONTINUOUS
 62
256
 10
-116.649732852944960
 20
161.716121225309000
 11
-116.065227546699770
 21
162.262143555207590
  0
LINE
  8
0
  6
CONTINUOUS
 62
256
 10
-117.361954629329620
 20
161.268012279842370
 11
-116.649732852944960
 21
161.716121225309000
  0
LINE
  8
0
  6
CONTINUOUS
 62
256
 10
-118.174522592405820
 20
160.935037294279620
 11
-117.361954629329620
 21
161.268012279842370
  0
LINE
  8
0
  6
CONTINUOUS
 62
256
 10
-119.056210211045940
 20
160.729992310581370
 11
-118.174522592405820
 21
160.935037294279620
  0
LINE
  8
0
  6
CONTINUOUS
 62
256
 10
-119.973134724521740
 20
160.660757092480590
 11
-119.056210211045940
 21
160.729992310581370
  0
LINE
  8
0
  6
CONTINUOUS
 62
256
 10
-120.890059237997530
 20
160.729992310581370
 11
-119.973134724521740
 21
160.660757092480590
  0
LINE
  8
0
  6
CONTINUOUS
 62
256
 10
-121.771746856637660
 20
160.935037294279620
 11
-120.890059237997530
 21
160.729992310581370
  0
LINE
  8
0
  6
CONTINUOUS
 62
256
 10
-122.584314819713850
 20
161.268012279842370
 11
-121.771746856637660
 21
160.935037294279620
  0
LINE
  8
0
  6
CONTINUOUS
 62
256
 10
-123.296536596098510
 20
161.716121225309000
 11
-122.584314819713850
 21
161.268012279842370
  0
LINE
  8
0
  6
CONTINUOUS
 62
256
 10
-123.881041902343700
 20
162.262143555207590
 11
-123.296536596098510
 21
161.716121225309000
  0
LINE
  8
0
  6
CONTINUOUS
 62
256
 10
-124.315368527324760
 20
162.885095937612990
 11
-123.881041902343700
 21
162.262143555207590
  0
LINE
  8
0
  6
CONTINUOUS
 62
256
 10
-124.582825542416910
 20
163.561038661825080
 11
-124.315368527324760
 21
162.885095937612990
  0
LINE
  8
0
  6
CONTINUOUS
 62
256
 10
-124.673134724521730
 20
164.263995628025440
 11
-124.582825542416910
 21
163.561038661825080
  0
LINE
  8
0
  6
CONTINUOUS
 62
256
 10
-124.582825542416910
 20
164.966952594225800
 11
-124.673134724521730
 21
164.263995628025440
  0
LINE
  8
0
  6
CONTINUOUS
 62
256
 10
-124.315368527324760
 20
165.642895318437890
 11
-124.582825542416910
 21
164.966952594225800
  0
LINE
  8
0
  6
CONTINUOUS
 62
256
 10
-123.881041902343700
 20
166.265847700843300
 11
-124.315368527324760
 21
165.642895318437890
  0
LINE
  8
0
  6
CONTINUOUS
 62
256
 10
-123.296536596098510
 20
166.811870030741890
 11
-123.881041902343700
 21
166.265847700843300
  0
LINE
  8
0
  6
CONTINUOUS
 62
256
 10
-122.584314819713850
 20
167.259978976208520
 11
-123.296536596098510
 21
166.811870030741890
  0
LINE
  8
0
  6
CONTINUOUS
 62
256
 10
-121.771746856637660
 20
167.592953961771260
 11
-122.584314819713850
 21
167.259978976208520
  0
LINE
  8
0
  6
CONTINUOUS
 62
256
 10
-120.890059237997530
 20
167.797998945469520
 11
-121.771746856637660
 21
167.592953961771260
  0
LINE
  8
0
  6
CONTINUOUS
 62
256
 10
-119.973134724521740
 20
167.867234163570290
 11
-120.890059237997530
 21
167.797998945469520
  0
LINE
  8
0
  6
CONTINUOUS
 62
256
 10
-119.056210211045940
 20
167.797998945469520
 11
-119.973134724521740
 21
167.867234163570290
  0
LINE
  8
0
  6
CONTINUOUS
 62
256
 10
-118.174522592405820
 20
167.592953961771260
 11
-119.056210211045940
 21
167.797998945469520
  0
LINE
  8
0
  6
CONTINUOUS
 62
256
 10
-117.361954629329620
 20
167.259978976208520
 11
-118.174522592405820
 21
167.592953961771260
  0
LINE
  8
0
  6
CONTINUOUS
 62
256
 10
-116.649732852944960
 20
166.811870030741890
 11
-117.361954629329620
 21
167.259978976208520
  0
LINE
  8
0
  6
CONTINUOUS
 62
256
 10
-116.065227546699770
 20
166.265847700843300
 11
-116.649732852944960
 21
166.811870030741890
  0
LINE
  8
0
  6
CONTINUOUS
 62
256
 10
-115.630900921718710
 20
165.642895318437890
 11
-116.065227546699770
 21
166.265847700843300
  0
LINE
  8
0
  6
CONTINUOUS
 62
256
 10
-115.363443906626570
 20
164.966952594225800
 11
-115.630900921718710
 21
165.642895318437890
  0
LINE
  8
0
  6
CONTINUOUS
 62
256
 10
-115.273134724521750
 20
164.263995628025440
 11
-115.363443906626570
 21
164.966952594225800
  0
LINE
  8
0
  6
CONTINUOUS
 62
256
 10
-119.973134724521740
 20
58.600355495527538
 11
-121.973134724521740
 21
60.252997134650968
  0
LINE
  8
0
  6
CONTINUOUS
 62
256
 10
-117.973134724521740
 20
57.424570009905210
 11
-119.973134724521740
 21
58.600355495527538
  0
LINE
  8
0
  6
CONTINUOUS
 62
256
 10
-119.973134724521740
 20
58.600355495527538
 11
-117.973134724521740
 21
60.252997134650968
  0
LINE
  8
0
  6
CONTINUOUS
 62
256
 10
-121.973134724521740
 20
57.424570009905210
 11
-119.973134724521740
 21
58.600355495527538
  0
LINE
  8
0
  6
CONTINUOUS
 62
256
 10
-115.363443906626570
 20
59.713988597705168
 11
-115.273134724521750
 21
60.416945563905529
  0
LINE
  8
0
  6
CONTINUOUS
 62
256
 10
-115.630900921718710
 20
59.038045873493076
 11
-115.363443906626570
 21
59.713988597705168
  0
LINE
  8
0
  6
CONTINUOUS
 62
256
 10
-116.065227546699770
 20
58.415093491087674
 11
-115.630900921718710
 21
59.038045873493076
  0
LINE
  8
0
  6
CONTINUOUS
 62
256
 10
-116.649732852944960
 20
57.869071161189098
 11
-116.065227546699770
 21
58.415093491087674
  0
LINE
  8
0
  6
CONTINUOUS
 62
256
 10
-117.361954629329620
 20
57.420962215722476
 11
-116.649732852944960
 21
57.869071161189098
  0
LINE
  8
0
  6
CONTINUOUS
 62
256
 10
-118.174522592405820
 20
57.087987230159719
 11
-117.361954629329620
 21
57.420962215722476
  0
LINE
  8
0
  6
CONTINUOUS
 62
256
 10
-119.056210211045940
 20
56.882942246461468
 11
-118.174522592405820
 21
57.087987230159719
  0
LINE
  8
0
  6
CONTINUOUS
 62
256
 10
-119.973134724521740
 20
56.813707028360696
 11
-119.056210211045940
 21
56.882942246461468
  0
LINE
  8
0
  6
CONTINUOUS
 62
256
 10
-120.890059237997530
 20
56.882942246461468
 11
-119.973134724521740
 21
56.813707028360696
  0
LINE
  8
0
  6
CONTINUOUS
 62
256
 10
-121.771746856637660
 20
57.087987230159719
 11
-120.890059237997530
 21
56.882942246461468
  0
LINE
  8
0
  6
CONTINUOUS
 62
256
 10
-122.584314819713850
 20
57.420962215722476
 11
-121.771746856637660
 21
57.087987230159719
  0
LINE
  8
0
  6
CONTINUOUS
 62
256
 10
-123.296536596098510
 20
57.869071161189098
 11
-122.584314819713850
 21
57.420962215722476
  0
LINE
  8
0
  6
CONTINUOUS
 62
256
 10
-123.881041902343700
 20
58.415093491087674
 11
-123.296536596098510
 21
57.869071161189098
  0
LINE
  8
0
  6
CONTINUOUS
 62
256
 10
-124.315368527324760
 20
59.038045873493076
 11
-123.881041902343700
 21
58.415093491087674
  0
LINE
  8
0
  6
CONTINUOUS
 62
256
 10
-124.582825542416910
 20
59.713988597705168
 11
-124.315368527324760
 21
59.038045873493076
  0
LINE
  8
0
  6
CONTINUOUS
 62
256
 10
-124.673134724521730
 20
60.416945563905529
 11
-124.582825542416910
 21
59.713988597705168
  0
LINE
  8
0
  6
CONTINUOUS
 62
256
 10
-124.582825542416910
 20
61.119902530105890
 11
-124.673134724521730
 21
60.416945563905529
  0
LINE
  8
0
  6
CONTINUOUS
 62
256
 10
-124.315368527324760
 20
61.795845254317982
 11
-124.582825542416910
 21
61.119902530105890
  0
LINE
  8
0
  6
CONTINUOUS
 62
256
 10
-123.881041902343700
 20
62.418797636723383
 11
-124.315368527324760
 21
61.795845254317982
  0
LINE
  8
0
  6
CONTINUOUS
 62
256
 10
-123.296536596098510
 20
62.964819966621967
 11
-123.881041902343700
 21
62.418797636723383
  0
LINE
  8
0
  6
CONTINUOUS
 62
256
 10
-122.584314819713850
 20
63.412928912088582
 11
-123.296536596098510
 21
62.964819966621967
  0
LINE
  8
0
  6
CONTINUOUS
 62
256
 10
-121.771746856637660
 20
63.745903897651338
 11
-122.584314819713850
 21
63.412928912088582
  0
LINE
  8
0
  6
CONTINUOUS
 62
256
 10
-120.890059237997530
 20
63.950948881349589
 11
-121.771746856637660
 21
63.745903897651338
  0
LINE
  8
0
  6
CONTINUOUS
 62
256
 10
-119.973134724521740
 20
64.020184099450361
 11
-120.890059237997530
 21
63.950948881349589
  0
LINE
  8
0
  6
CONTINUOUS
 62
256
 10
-119.056210211045940
 20
63.950948881349589
 11
-119.973134724521740
 21
64.020184099450361
  0
LINE
  8
0
  6
CONTINUOUS
 62
256
 10
-118.174522592405820
 20
63.745903897651338
 11
-119.056210211045940
 21
63.950948881349589
  0
LINE
  8
0
  6
CONTINUOUS
 62
256
 10
-117.361954629329620
 20
63.412928912088582
 11
-118.174522592405820
 21
63.745903897651338
  0
LINE
  8
0
  6
CONTINUOUS
 62
256
 10
-116.649732852944960
 20
62.964819966621967
 11
-117.361954629329620
 21
63.412928912088582
  0
LINE
  8
0
  6
CONTINUOUS
 62
256
 10
-116.065227546699770
 20
62.418797636723383
 11
-116.649732852944960
 21
62.964819966621967
  0
LINE
  8
0
  6
CONTINUOUS
 62
256
 10
-115.630900921718710
 20
61.795845254317982
 11
-116.065227546699770
 21
62.418797636723383
  0
LINE
  8
0
  6
CONTINUOUS
 62
256
 10
-115.363443906626570
 20
61.119902530105890
 11
-115.630900921718710
 21
61.795845254317982
  0
LINE
  8
0
  6
CONTINUOUS
 62
256
 10
-115.273134724521750
 20
60.416945563905529
 11
-115.363443906626570
 21
61.119902530105890
  0
ARC
  8
0
  6
CONTINUOUS
 62
256
 10
137.026865275478490
 20
41.805865122197019
 40
2.000000000000027
 50
271.000000000001760
 51
0.000000000000000
  0
ARC
  8
0
  6
CONTINUOUS
 62
256
 10
43.026865275478485
 20
41.783744017396884
 40
2.000000000000000
 50
180.000000000000000
 51
268.351638847923080
  0
ARC
  8
0
  6
CONTINUOUS
 62
256
 10
137.026865275478490
 20
182.875076069733720
 40
2.000000000000000
 50
0.000000000000000
 51
88.999999999998224
  0
ARC
  8
0
  6
CONTINUOUS
 62
256
 10
43.026865275478485
 20
182.962193935325330
 40
2.000000000000383
 50
91.542211367440515
 51
180.000000000000000
  0
LINE
  8
0
  6
CONTINUOUS
 62
256
 10
139.026865275478490
 20
41.805865122197019
 11
139.026865275478490
 21
112.340470595965370
  0
LINE
  8
0
  6
CONTINUOUS
 62
256
 10
137.061770088353110
 20
39.806169731884211
 11
78.026865275478485
 21
38.775711635343896
  0
LINE
  8
0
  6
CONTINUOUS
 62
256
 10
139.026865275478490
 20
182.875076069733720
 11
139.026865275478490
 21
112.340470595965370
  0
LINE
  8
0
  6
CONTINUOUS
 62
256
 10
137.061770088353110
 20
184.874771460046530
 11
78.026865275478485
 21
185.905229556586850
  0
LINE
  8
0
  6
CONTINUOUS
 62
256
 10
42.973038443432870
 20
184.961469472151980
 11
78.026865275478485
 21
185.905229556586850
  0
LINE
  8
0
  6
CONTINUOUS
 62
256
 10
76.026865275478485
 20
181.840470595965370
 11
76.026865275478485
 21
112.340470595965370
  0
LINE
  8
0
  6
CONTINUOUS
 62
256
 10
78.026865275478485
 20
38.775711635343896
 11
42.969334553630233
 21
39.784571634623489
  0
LINE
  8
0
  6
CONTINUOUS
 62
256
 10
41.026865275478485
 20
41.783744017396884
 11
41.026865275478485
 21
52.840470595964462
  0
LINE
  8
0
  6
CONTINUOUS
 62
256
 10
41.026865275478485
 20
182.962193935325330
 11
41.026865275478485
 21
171.840470595964460
  0
LINE
  8
0
  6
CONTINUOUS
 62
256
 10
76.026865275478485
 20
42.840470595965371
 11
76.026865275478485
 21
112.340470595965370
  0
LINE
  8
0
  6
CONTINUOUS
 62
256
 10
137.026865275478490
 20
64.257213515127432
 11
137.026865275478490
 21
112.340470595965370
  0
ARC
  8
0
  6
CONTINUOUS
 62
256
 10
138.026865275478490
 20
88.840470595965371
 40
1.000000000000000
 50
90.000000000000000
 51
180.000000000000000
  0
ARC
  8
0
  6
CONTINUOUS
 62
256
 10
138.026865275478490
 20
90.840470595965371
 40
1.000000000000000
 50
270.000000000000000
 51
0.000000000000000
  0
CIRCLE
  8
0
  6
CONTINUOUS
 62
256
 10
126.526865275478490
 20
49.840470595965371
 40
5.000000000000000
  0
CIRCLE
  8
0
  6
CONTINUOUS
 62
256
 10
53.526865275478485
 20
49.840470595965371
 40
5.000000000000000
  0
LINE
  8
0
  6
DASHDOT
 62
256
 10
43.526865275478485
 20
49.840470595965371
 11
63.526865275478485
 21
49.840470595965371
  0
LINE
  8
0
  6
DASHDOT
 62
256
 10
116.526865275478490
 20
49.840470595965371
 11
136.526865275478490
 21
49.840470595965371
  0
LINE
  8
0
  6
CONTINUOUS
 62
256
 10
93.026865275478485
 20
43.137206699744411
 11
76.026865275478485
 21
42.840470595965371
  0
ARC
  8
0
  6
CONTINUOUS
 62
256
 10
91.979720889241435
 20
103.128068409128670
 40
60.000000000000789
 50
271.000000000000060
 51
290.781468983387010
  0
ARC
  8
0
  6
CONTINUOUS
 62
256
 10
112.558387442117690
 20
48.901520640479930
 40
2.000000000000294
 50
290.781468983388660
 51
3.845591629898333
  0
ARC
  8
0
  6
CONTINUOUS
 62
256
 10
126.526865275478490
 20
174.840470595965370
 40
11.999999999999945
 50
176.154408370097340
 51
270.000000000000000
  0
ARC
  8
0
  6
CONTINUOUS
 62
256
 10
126.526865275478490
 20
49.840470595965371
 40
12.000000000000000
 50
90.000000000000000
 51
183.845591629902630
  0
LINE
  8
0
  6
CONTINUOUS
 62
256
 10
134.814232015061860
 20
61.985127120488642
 11
126.526865275478490
 21
61.840470595965371
  0
ARC
  8
0
  6
CONTINUOUS
 62
256
 10
134.779327202187230
 20
63.984822510801450
 40
2.000000000000027
 50
271.000000000001760
 51
317.554892155678660
  0
ARC
  8
0
  6
CONTINUOUS
 62
256
 10
91.979720889241435
 20
103.128068409128670
 40
60.000000000000327
 50
317.554892155681560
 51
317.918488970294730
  0
ARC
  8
0
  6
CONTINUOUS
 62
256
 10
135.026865275478490
 20
64.257213515127432
 40
2.000000000000259
 50
317.918488970284560
 51
0.000000000000000
  0
LINE
  8
0
  6
CONTINUOUS
 62
256
 10
137.026865275478490
 20
160.423727676803310
 11
137.026865275478490
 21
112.340470595965370
  0
ARC
  8
0
  6
CONTINUOUS
 62
256
 10
138.026865275478490
 20
135.840470595965370
 40
1.000000000000000
 50
180.000000000000000
 51
270.000000000000000
  0
ARC
  8
0
  6
CONTINUOUS
 62
256
 10
138.026865275478490
 20
133.840470595965370
 40
1.000000000000000
 50
0.000000000000000
 51
90.000000000000000
  0
CIRCLE
  8
0
  6
CONTINUOUS
 62
256
 10
126.526865275478490
 20
174.840470595965370
 40
5.000000000000000
  0
CIRCLE
  8
0
  6
CONTINUOUS
 62
256
 10
53.526865275478485
 20
174.840470595965370
 40
5.000000000000000
  0
LINE
  8
0
  6
DASHDOT
 62
256
 10
43.526865275478485
 20
174.840470595965370
 11
63.526865275478485
 21
174.840470595965370
  0
LINE
  8
0
  6
DASHDOT
 62
256
 10
116.526865275478490
 20
174.840470595965370
 11
136.526865275478490
 21
174.840470595965370
  0
LINE
  8
0
  6
CONTINUOUS
 62
256
 10
93.026865275478485
 20
181.543734492185420
 11
76.026865275478485
 21
181.840470595965370
  0
ARC
  8
0
  6
CONTINUOUS
 62
256
 10
91.979720889241435
 20
121.552872782802050
 40
60.000000000000412
 50
69.218531016612971
 51
88.999999999999957
  0
ARC
  8
0
  6
CONTINUOUS
 62
256
 10
112.558387442117690
 20
175.779420551450810
 40
1.999999999999981
 50
356.154408370101690
 51
69.218531016611522
  0
LINE
  8
0
  6
CONTINUOUS
 62
256
 10
134.814232015061860
 20
162.695814071442100
 11
126.526865275478490
 21
162.840470595965370
  0
ARC
  8
0
  6
CONTINUOUS
 62
256
 10
134.779327202187230
 20
160.696118681129290
 40
1.999999999999802
 50
42.445107844321505
 51
88.999999999998124
  0
ARC
  8
0
  6
CONTINUOUS
 62
256
 10
91.979720889241435
 20
121.552872782802050
 40
60.000000000000611
 50
42.081511029705275
 51
42.445107844318386
  0
ARC
  8
0
  6
CONTINUOUS
 62
256
 10
135.026865275478490
 20
160.423727676803310
 40
2.000000000000000
 50
0.000000000000000
 51
42.081511029715649
  0
ARC
  8
0
  6
CONTINUOUS
 62
256
 10
66.526865275478485
 20
73.090470595965371
 40
1.000000000000000
 50
90.000000000000000
 51
180.000000000000000
  0
ARC
  8
0
  6
CONTINUOUS
 62
256
 10
66.526865275478485
 20
151.590470595965370
 40
1.000000000000000
 50
180.000000000000000
 51
270.000000000000000
  0
ARC
  8
0
  6
CONTINUOUS
 62
256
 10
66.526865275478485
 20
85.590470595965371
 40
1.000000000000000
 50
180.000000000000000
 51
270.000000000000000
  0
ARC
  8
0
  6
CONTINUOUS
 62
256
 10
66.526865275478485
 20
139.090470595965370
 40
1.000000000000000
 50
90.000000000000000
 51
180.000000000000000
  0
ARC
  8
0
  6
CONTINUOUS
 62
256
 10
70.126865275478849
 20
74.490470595965007
 40
0.399999999999636
 50
270.000000000000000
 51
0.000000000000000
  0
ARC
  8
0
  6
CONTINUOUS
 62
256
 10
70.126865275478849
 20
150.190470595965730
 40
0.399999999999636
 50
0.000000000000000
 51
90.000000000000000
  0
ARC
  8
0
  6
CONTINUOUS
 62
256
 10
70.126865275478849
 20
84.190470595965735
 40
0.399999999999636
 50
0.000000000000000
 51
90.000000000000000
  0
ARC
  8
0
  6
CONTINUOUS
 62
256
 10
70.126865275478849
 20
140.490470595965010
 40
0.399999999999636
 50
270.000000000000000
 51
0.000000000000000
  0
LINE
  8
0
  6
CONTINUOUS
 62
256
 10
70.526865275478485
 20
84.190470595965735
 11
70.526865275478485
 21
74.490470595965007
  0
LINE
  8
0
  6
CONTINUOUS
 62
256
 10
70.526865275478485
 20
140.490470595965010
 11
70.526865275478485
 21
150.190470595965730
  0
LINE
  8
0
  6
CONTINUOUS
 62
256
 10
70.126865275478849
 20
74.090470595965371
 11
66.526865275478485
 21
74.090470595965371
  0
LINE
  8
0
  6
CONTINUOUS
 62
256
 10
70.126865275478849
 20
150.590470595965370
 11
66.526865275478485
 21
150.590470595965370
  0
LINE
  8
0
  6
CONTINUOUS
 62
256
 10
70.126865275478849
 20
84.590470595965371
 11
66.526865275478485
 21
84.590470595965371
  0
LINE
  8
0
  6
CONTINUOUS
 62
256
 10
70.126865275478849
 20
140.090470595965370
 11
66.526865275478485
 21
140.090470595965370
  0
ARC
  8
0
  6
CONTINUOUS
 62
256
 10
141.426882168186690
 20
102.590470595965370
 40
0.399999999999636
 50
90.000000000000000
 51
180.000000000000000
  0
LINE
  8
0
  6
CONTINUOUS
 62
256
 10
141.026882168186600
 20
112.340470595965370
 11
141.026882168186600
 21
101.540470595965170
  0
LINE
  8
0
  6
CONTINUOUS
 62
256
 10
140.826882168186780
 20
101.340470595965370
 11
139.026865275478490
 21
101.340470595965370
  0
LINE
  8
0
  6
CONTINUOUS
 62
256
 10
143.586689789322010
 20
121.840470595965370
 11
143.026882168186600
 21
121.690470595965730
  0
LINE
  8
0
  6
CONTINUOUS
 62
256
 10
143.026882168186600
 20
121.690470595965730
 11
141.426882168186690
 21
121.690470595965730
  0
LINE
  8
0
  6
CONTINUOUS
 62
256
 10
140.826882168186780
 20
101.340470595965370
 11
141.026882168186600
 21
101.540470595965170
  0
LINE
  8
0
  6
CONTINUOUS
 62
256
 10
168.626882168186510
 20
121.840470595965370
 11
143.586689789322010
 21
121.840470595965370
  0
LINE
  8
0
  6
CONTINUOUS
 62
256
 10
141.026882168186600
 20
112.412394116015780
 11
141.026882168186600
 21
123.212394116015940
  0
LINE
  8
0
  6
CONTINUOUS
 62
256
 10
140.826882168186780
 20
123.412394116015780
 11
139.026865275478490
 21
123.412394116015780
  0
LINE
  8
0
  6
CONTINUOUS
 62
256
 10
143.026882168186600
 20
102.990470595965010
 11
141.426882168186690
 21
102.990470595965010
  0
LINE
  8
0
  6
CONTINUOUS
 62
256
 10
140.826882168186780
 20
123.412394116015780
 11
141.026882168186600
 21
123.212394116015940
  0
LINE
  8
0
  6
CONTINUOUS
 62
256
 10
144.026882168186600
 20
102.840470595965370
 11
144.026882168186600
 21
100.340470595965370
  0
LINE
  8
0
  6
CONTINUOUS
 62
256
 10
168.626882168186510
 20
102.840470595965370
 11
143.586689789322010
 21
102.840470595965370
  0
LINE
  8
0
  6
CONTINUOUS
 62
256
 10
143.586689789322010
 20
102.840470595965370
 11
143.026882168186600
 21
102.990470595965010
  0
LINE
  8
0
  6
CONTINUOUS
 62
256
 10
169.026882168186600
 20
100.340470595965370
 11
144.026883182051280
 21
100.340470595965370
  0
LINE
  8
0
  6
CONTINUOUS
 62
256
 10
169.026882168186600
 20
112.340470595965390
 11
169.026882168186600
 21
100.340470595965370
  0
ARC
  8
0
  6
CONTINUOUS
 62
256
 10
168.626882168186510
 20
103.240470595965010
 40
0.399999999999636
 50
270.000000000000000
 51
0.000000000000000
  0
ARC
  8
0
  6
CONTINUOUS
 62
256
 10
168.626882168186510
 20
121.440470595965730
 40
0.400000000000091
 50
0.000000000000000
 51
90.000000000000000
  0
LINE
  8
0
  6
CONTINUOUS
 62
256
 10
169.026882168186600
 20
112.340470595965370
 11
169.026882168186600
 21
121.440470595965730
  0
ARC
  8
0
  6
CONTINUOUS
 62
256
 10
70.126865275478849
 20
74.490470595965007
 40
0.399999999999636
 50
270.000000000000000
 51
0.000000000000000
  0
ARC
  8
0
  6
CONTINUOUS
 62
256
 10
70.126865275478849
 20
150.190470595965730
 40
0.399999999999636
 50
0.000000000000000
 51
90.000000000000000
  0
ARC
  8
0
  6
CONTINUOUS
 62
256
 10
70.126865275478849
 20
84.190470595965735
 40
0.399999999999636
 50
0.000000000000000
 51
90.000000000000000
  0
ARC
  8
0
  6
CONTINUOUS
 62
256
 10
70.126865275478849
 20
140.490470595965010
 40
0.399999999999636
 50
270.000000000000000
 51
0.000000000000000
  0
ARC
  8
0
  6
CONTINUOUS
 62
256
 10
43.603829897807373
 20
53.273161798723550
 40
0.499999999999963
 50
268.500000000010170
 51
340.917881576393260
  0
ARC
  8
0
  6
CONTINUOUS
 62
256
 10
43.603829897807373
 20
171.407779393206280
 40
0.500000000000234
 50
19.082118423705538
 51
91.499999999989768
  0
ARC
  8
0
  6
CONTINUOUS
 62
256
 10
63.526865275478485
 20
57.840470595965371
 40
2.000000000000000
 50
0.000000000000000
 51
90.000000000000000
  0
ARC
  8
0
  6
CONTINUOUS
 62
256
 10
63.526865275478485
 20
166.840470595965370
 40
2.000000000000000
 50
270.000000000000000
 51
0.000000000000000
  0
ARC
  8
0
  6
CONTINUOUS
 62
256
 10
53.526865275478485
 20
49.840470595965371
 40
10.000000000000000
 50
90.000000000000000
 51
160.917881576302420
  0
ARC
  8
0
  6
CONTINUOUS
 62
256
 10
53.526865275478485
 20
174.840470595965370
 40
10.000000000000343
 50
199.082118423697580
 51
270.000000000000000
  0
ARC
  8
0
  6
CONTINUOUS
 62
256
 10
66.026865275478485
 20
43.340470595965371
 40
0.500000000000000
 50
180.000000000000000
 51
270.000000000000000
  0
ARC
  8
0
  6
CONTINUOUS
 62
256
 10
66.026865275478485
 20
181.340470595965370
 40
0.500000000000000
 50
90.000000000000000
 51
180.000000000000000
  0
LINE
  8
0
  6
CONTINUOUS
 62
256
 10
43.590741423653526
 20
52.773333136235806
 11
40.026865275477576
 21
52.866656517534238
  0
LINE
  8
0
  6
CONTINUOUS
 62
256
 10
43.590741423653526
 20
171.907608055694030
 11
40.026865275477576
 21
171.814284674396500
  0
LINE
  8
0
  6
CONTINUOUS
 62
256
 10
66.026865275478485
 20
42.840470595965371
 11
75.526865275478485
 21
42.840470595965371
  0
LINE
  8
0
  6
CONTINUOUS
 62
256
 10
66.026865275478485
 20
181.840470595965370
 11
75.526865275478485
 21
181.840470595965370
  0
LINE
  8
0
  6
CONTINUOUS
 62
256
 10
65.526865275478485
 20
112.340470595965370
 11
65.526865275478485
 21
83.590469642291055
  0
LINE
  8
0
  6
CONTINUOUS
 62
256
 10
65.526865275478485
 20
112.340470595965370
 11
65.526865275478485
 21
141.090471549639690
  0
LINE
  8
0
  6
CONTINUOUS
 62
256
 10
53.526865275478485
 20
59.840470595965371
 11
63.526865275478485
 21
59.840470595965371
  0
LINE
  8
0
  6
CONTINUOUS
 62
256
 10
53.526865275478485
 20
164.840470595965370
 11
63.526865275478485
 21
164.840470595965370
  0
LINE
  8
0
  6
CONTINUOUS
 62
256
 10
75.526865275478485
 20
112.340470595965370
 11
75.526865275478485
 21
42.840470595965371
  0
LINE
  8
0
  6
CONTINUOUS
 62
256
 10
75.526865275478485
 20
112.340470595965370
 11
75.526865275478485
 21
181.840470595965370
  0
LINE
  8
0
  6
CONTINUOUS
 62
256
 10
40.026865275477576
 20
112.340470595965370
 11
40.026865275477576
 21
52.866656517534238
  0
LINE
  8
0
  6
CONTINUOUS
 62
256
 10
40.026865275477576
 20
112.340470595965370
 11
40.026865275477576
 21
171.814284674396500
  0
LINE
  8
0
  6
CONTINUOUS
 62
256
 10
65.526865275478485
 20
75.090471549639688
 11
65.526865275478485
 21
43.340470595965371
  0
LINE
  8
0
  6
CONTINUOUS
 62
256
 10
65.526865275478485
 20
149.590469642291050
 11
65.526865275478485
 21
181.340470595965370
  0
LINE
  8
0
  6
CONTINUOUS
 62
256
 10
70.526865275478485
 20
75.090471549639688
 11
65.526865275478485
 21
75.090471549639688
  0
LINE
  8
0
  6
CONTINUOUS
 62
256
 10
70.526865275478485
 20
83.590469642291055
 11
65.526865275478485
 21
83.590469642291055
  0
LINE
  8
0
  6
CONTINUOUS
 62
256
 10
65.526865275478485
 20
75.090471549639688
 11
65.526865275478485
 21
83.590469642291055
  0
LINE
  8
0
  6
CONTINUOUS
 62
256
 10
70.526865275478485
 20
83.940470023760781
 11
70.526865275478485
 21
74.740471168169961
  0
LINE
  8
0
  6
CONTINUOUS
 62
256
 10
70.526865275478485
 20
149.590469642291050
 11
65.526865275478485
 21
149.590469642291050
  0
LINE
  8
0
  6
CONTINUOUS
 62
256
 10
70.526865275478485
 20
141.090471549639690
 11
65.526865275478485
 21
141.090471549639690
  0
LINE
  8
0
  6
CONTINUOUS
 62
256
 10
65.526865275478485
 20
149.590469642291050
 11
65.526865275478485
 21
141.090471549639690
  0
LINE
  8
0
  6
CONTINUOUS
 62
256
 10
70.526865275478485
 20
140.740471168169960
 11
70.526865275478485
 21
149.940470023760780
  0
LINE
  8
0
  6
DASHDOT
 62
256
 10
-272.021849834374730
 20
-85.165032616937083
 11
-309.204234360564440
 21
-85.165032616937083
  0
LINE
  8
0
  6
DASHDOT
 62
256
 10
-290.443535776685170
 20
-168.679666990625860
 11
-290.443535776685170
 21
-24.701507621718179
  0
LINE
  8
0
  6
DASHDOT
 62
256
 10
-407.452390948081300
 20
-103.165032616937760
 11
-186.677478360696110
 21
-103.165032616936510
  0
ARC
  8
0
  6
CONTINUOUS
 62
256
 10
-227.075950625795940
 20
-138.165032616937080
 40
3.000000000000000
 50
90.000000000000000
 51
91.479657813512247
  0
LINE
  8
0
  6
CONTINUOUS
 62
256
 10
-246.943535776685170
 20
-163.165032616937080
 11
-246.943535776685170
 21
-160.000924869368420
  0
LINE
  8
0
  6
CONTINUOUS
 62
256
 10
-234.089450781646460
 20
-150.165032616937080
 11
-220.443535776685170
 21
-150.165032616937080
  0
LINE
  8
0
  6
CONTINUOUS
 62
256
 10
-241.943535776685170
 20
-165.165032616937080
 11
-241.943535776685170
 21
-158.311836090350990
  0
LINE
  8
0
  6
CONTINUOUS
 62
256
 10
-248.943535776685170
 20
-162.165032616937080
 11
-248.943535776685170
 21
-160.286563581696100
  0
LINE
  8
0
  6
CONTINUOUS
 62
256
 10
-252.943537208410930
 20
-160.816788868898410
 11
-252.943537207195500
 21
-160.819732070265450
  0
LINE
  8
0
  6
CONTINUOUS
 62
256
 10
-254.943538078876830
 20
-161.974429817784080
 11
-256.258982398856230
 21
-161.214955286202670
  0
LINE
  8
0
  6
CONTINUOUS
 62
256
 10
-260.193535776685170
 20
-162.165032616937200
 11
-260.193535776685170
 21
-161.639099530134900
  0
LINE
  8
0
  6
CONTINUOUS
 62
256
 10
-248.943535776685170
 20
-162.165032616937080
 11
-248.943535776685170
 21
-160.286563581696100
  0
ARC
  8
0
  6
CONTINUOUS
 62
256
 10
-254.943535776685170
 20
-159.665032616937200
 40
4.249999046325446
 50
205.471502597285480
 51
348.156246525909860
  0
LINE
  8
0
  6
CONTINUOUS
 62
256
 10
-320.693535776685170
 20
-162.165032616937080
 11
-320.693535776685170
 21
-161.639099530134900
  0
ARC
  8
0
  6
CONTINUOUS
 62
256
 10
-325.943535776685170
 20
-159.665032616937200
 40
4.249999046325530
 50
191.843753474089940
 51
334.528497402714150
  0
LINE
  8
0
  6
CONTINUOUS
 62
256
 10
-325.943533474493510
 20
-161.974429817784080
 11
-324.628089154514100
 21
-161.214955286202670
  0
LINE
  8
0
  6
CONTINUOUS
 62
256
 10
-327.943534344959400
 20
-160.816788868898410
 11
-327.943534346174830
 21
-160.819732070265450
  0
LINE
  8
0
  6
CONTINUOUS
 62
256
 10
-331.943535776685170
 20
-162.165032616937080
 11
-331.943535776685170
 21
-160.286563581696100
  0
LINE
  8
0
  6
CONTINUOUS
 62
256
 10
-331.943535776685170
 20
-162.165032616937080
 11
-331.943535776685170
 21
-160.286563581696100
  0
LINE
  8
0
  6
CONTINUOUS
 62
256
 10
-333.943535776685170
 20
-163.165032616937080
 11
-333.943535776685170
 21
-160.000924869368420
  0
LINE
  8
0
  6
CONTINUOUS
 62
256
 10
-338.943535776685170
 20
-165.165032616937080
 11
-338.943535776685170
 21
-158.311836090350990
  0
LINE
  8
0
  6
CONTINUOUS
 62
256
 10
-346.797620771723590
 20
-150.165032616937080
 11
-360.443535776685170
 21
-150.165032616937080
  0
ARC
  8
0
  6
CONTINUOUS
 62
256
 10
-353.811120927574390
 20
-138.165032616937080
 40
2.999999999999979
 50
88.520342186482310
 51
90.000000000000000
  0
LINE
  8
0
  6
CONTINUOUS
 62
256
 10
-354.499223094514260
 20
-126.973204702998640
 11
-356.133626902282800
 21
-124.142334267859500
  0
LINE
  8
0
  6
CONTINUOUS
 62
256
 10
-359.943535776685170
 20
-148.422391929817880
 11
-359.943535776685170
 21
-130.735281875405800
  0
ARC
  8
0
  6
CONTINUOUS
 62
256
 10
-309.943535776685170
 20
-87.918575472923749
 40
50.000000000000043
 50
136.062984333788110
 51
158.633168118782830
  0
ARC
  8
0
  6
CONTINUOUS
 62
256
 10
-309.943535776685170
 20
-87.918575472923749
 40
49.999999999999957
 50
91.489858156854154
 51
126.344924670902530
  0
ARC
  8
0
  6
CONTINUOUS
 62
256
 10
-323.443535776685280
 20
-47.165032616937083
 40
4.249999046325285
 50
36.699034319075288
 51
155.998310623040000
  0
LINE
  8
0
  6
CONTINUOUS
 62
256
 10
-323.714238517918370
 20
-45.011923278967856
 11
-323.443538201704880
 21
-44.855633681949257
  0
LINE
  8
0
  6
CONTINUOUS
 62
256
 10
-323.259872801144410
 20
-44.961672488077056
 11
-323.443538212240470
 21
-44.855633394475376
  0
LINE
  8
0
  6
CONTINUOUS
 62
256
 10
-328.693535776685170
 20
-43.075097686293475
 11
-328.693535776685170
 21
-45.608534280912068
  0
LINE
  8
0
  6
CONTINUOUS
 62
256
 10
-318.193535776685170
 20
-39.457895535473426
 11
-318.193535776685170
 21
-44.448649002541401
  0
ARC
  8
0
  6
CONTINUOUS
 62
256
 10
-270.943535776684940
 20
-87.918575472923749
 40
49.999999999999979
 50
17.161786322051466
 51
43.937015666212325
  0
ARC
  8
0
  6
CONTINUOUS
 62
256
 10
-270.943535776684940
 20
-87.918575472923749
 40
50.000000000000036
 50
53.655075329097450
 51
88.510141843146116
  0
LINE
  8
0
  6
CONTINUOUS
 62
256
 10
-257.627198752225920
 20
-44.961672488077113
 11
-257.443533341129750
 21
-44.855633394475376
  0
LINE
  8
0
  6
CONTINUOUS
 62
256
 10
-257.172833035451900
 20
-45.011923278967856
 11
-257.443533351665450
 21
-44.855633681949257
  0
LINE
  8
0
  6
CONTINUOUS
 62
256
 10
-262.693535776685170
 20
-39.457895535473426
 11
-262.693535776685170
 21
-44.448649002541401
  0
LINE
  8
0
  6
CONTINUOUS
 62
256
 10
-252.193535776685170
 20
-43.075097686293475
 11
-252.193535776685170
 21
-45.608534280912068
  0
ARC
  8
0
  6
CONTINUOUS
 62
256
 10
-257.443535776685050
 20
-47.165032616937083
 40
4.249999046325388
 50
24.001689376959639
 51
143.300965680925260
  0
LINE
  8
0
  6
CONTINUOUS
 62
256
 10
-220.943535776685170
 20
-148.422391929817880
 11
-220.943535776685170
 21
-133.165032616936630
  0
ARC
  8
0
  6
CONTINUOUS
 62
256
 10
-290.443535776685170
 20
-343.765032616936990
 40
289.396999999999930
 50
90.000000000000000
 51
97.897988672427743
  0
ARC
  8
0
  6
CONTINUOUS
 62
256
 10
-329.385053732067260
 20
-63.056255076350340
 40
5.999999999999923
 50
97.897988672425626
 51
134.999999999996730
  0
LINE
  8
0
  6
CONTINUOUS
 62
256
 10
-333.627694419186350
 20
-58.813614389230793
 11
-338.203759811824970
 21
-63.389679781869404
  0
ARC
  8
0
  6
CONTINUOUS
 62
256
 10
-54.843535776685258
 20
-103.165032616937080
 40
289.396999999999930
 50
173.948014641331470
 51
180.000000000000000
  0
LINE
  8
0
  6
CONTINUOUS
 62
256
 10
-227.098540836144140
 20
-134.665032616937080
 11
-226.943535776685170
 21
-134.665032616937080
  0
LINE
  8
0
  6
CONTINUOUS
 62
256
 10
-226.943535776685170
 20
-73.172533554670167
 11
-226.943535776685170
 21
-71.665032616936855
  0
LINE
  8
0
  6
CONTINUOUS
 62
256
 10
-226.943535776685170
 20
-134.665032616937080
 11
-226.943535776685170
 21
-133.157531679203770
  0
LINE
  8
0
  6
CONTINUOUS
 62
256
 10
-203.504766642703770
 20
-73.165032616936855
 11
-226.944288034401320
 21
-73.165032616936855
  0
LINE
  8
0
  6
CONTINUOUS
 62
256
 10
-227.098540836144140
 20
-71.665032616936855
 11
-226.943535776685170
 21
-71.665032616936855
  0
LINE
  8
0
  6
CONTINUOUS
 62
256
 10
-196.943535776685170
 20
-105.665032616936610
 11
-196.943535776685170
 21
-100.665032616936610
  0
LINE
  8
0
  6
CONTINUOUS
 62
256
 10
-196.943535776685170
 20
-105.665032616936610
 11
-197.453952624202880
 21
-105.665032616936610
  0
LINE
  8
0
  6
CONTINUOUS
 62
256
 10
-196.943535776685170
 20
-100.665032616936610
 11
-197.453952624202880
 21
-100.665032616936610
  0
ARC
  8
0
  6
CONTINUOUS
 62
256
 10
-497.443535776685170
 20
-103.165032616936610
 40
300.000000000000000
 50
0.000000000000000
 51
4.861405395797991
  0
ARC
  8
0
  6
CONTINUOUS
 62
256
 10
-203.504766642703770
 20
-78.165032616936855
 40
5.000000000000119
 50
4.861405395798401
 51
90.000000000000000
  0
ARC
  8
0
  6
CONTINUOUS
 62
256
 10
-203.504766642703770
 20
-128.165032616936630
 40
5.000000000000000
 50
270.000000000000000
 51
355.138594604198890
  0
LINE
  8
0
  6
CONTINUOUS
 62
256
 10
-203.504766642703770
 20
-133.165032616936630
 11
-226.943535776685170
 21
-133.165032616936630
  0
ARC
  8
0
  6
CONTINUOUS
 62
256
 10
-497.443535776685170
 20
-103.165032616936610
 40
300.000000000000170
 50
355.138594604201900
 51
0.000000000000000
  0
ARC
  8
0
  6
CONTINUOUS
 62
256
 10
-334.392123206967650
 20
-53.068418149408785
 40
6.599999999999971
 50
98.597082237248614
 51
134.999999999998520
  0
ARC
  8
0
  6
CONTINUOUS
 62
256
 10
-294.443535776685170
 20
-74.442219384246641
 40
1.499999999999998
 50
277.928141766204020
 51
0.000000000000000
  0
ARC
  8
0
  6
CONTINUOUS
 62
256
 10
-290.443535776684710
 20
-103.165032616937080
 40
33.499999999999950
 50
97.180755781459084
 51
142.819244218541710
  0
ARC
  8
0
  6
CONTINUOUS
 62
256
 10
-290.443535776684710
 20
-103.165032616937080
 40
43.000000000000043
 50
95.531071524839788
 51
144.468928475160770
  0
ARC
  8
0
  6
CONTINUOUS
 62
256
 10
-290.443535776684710
 20
-103.165032616937080
 40
37.000000000000099
 50
95.963570118321798
 51
144.036429881678830
  0
ARC
  8
0
  6
CONTINUOUS
 62
256
 10
-313.318221704350890
 20
-85.339524385453956
 40
1.499999999999926
 50
239.999999999998410
 51
322.071858233800750
  0
ARC
  8
0
  6
CONTINUOUS
 62
256
 10
-315.938989946419720
 20
-83.826423135411801
 40
1.500000000000103
 50
142.819244218542540
 51
239.999999999997580
  0
ARC
  8
0
  6
CONTINUOUS
 62
256
 10
-321.605072230835960
 20
-80.555109003253506
 40
1.500000000000123
 50
240.000000000002670
 51
324.036429881683320
  0
LINE
  8
0
  6
CONTINUOUS
 62
256
 10
-314.068221704350890
 20
-86.638562491130529
 11
-316.688989946419720
 21
-85.125461241088374
  0
LINE
  8
0
  6
CONTINUOUS
 62
256
 10
-322.355072230835960
 20
-81.854147108930306
 11
-324.966255829820060
 21
-80.346579555153198
  0
ARC
  8
0
  6
CONTINUOUS
 62
256
 10
-324.216255829820060
 20
-79.047541449476398
 40
1.499999999999976
 50
144.468928475160820
 51
240.000000000002160
  0
ARC
  8
0
  6
CONTINUOUS
 62
256
 10
-319.938989946420180
 20
-115.575438868186770
 40
1.500000000000157
 50
202.819244218546660
 51
300.000000000001590
  0
LINE
  8
0
  6
CONTINUOUS
 62
256
 10
-319.188989946420180
 20
-116.874476973863350
 11
-316.568221704350890
 21
-115.361375723821420
  0
ARC
  8
0
  6
CONTINUOUS
 62
256
 10
-325.605072230836410
 20
-118.846753000345070
 40
1.499999999999926
 50
300.000000000001590
 51
24.036429881676909
  0
LINE
  8
0
  6
CONTINUOUS
 62
256
 10
-327.466255829820510
 20
-121.653358659798980
 11
-324.855072230836410
 21
-120.145791106021630
  0
ARC
  8
0
  6
CONTINUOUS
 62
256
 10
-328.216255829820510
 20
-120.354320554121950
 40
1.500000000000128
 50
204.468928475167470
 51
299.999999999992440
  0
ARC
  8
0
  6
CONTINUOUS
 62
256
 10
-317.318221704350890
 20
-114.062337618144380
 40
1.500000000000320
 50
299.999999999992950
 51
22.071858233784432
  0
ARC
  8
0
  6
CONTINUOUS
 62
256
 10
-290.443535776684940
 20
-103.165032616937520
 40
33.499999999999794
 50
157.180755781458400
 51
202.819244218540920
  0
ARC
  8
0
  6
CONTINUOUS
 62
256
 10
-290.443535776684940
 20
-103.165032616937520
 40
43.000000000000121
 50
155.531071524839230
 51
204.468928475160200
  0
ARC
  8
0
  6
CONTINUOUS
 62
256
 10
-290.443535776684940
 20
-103.165032616937520
 40
37.000000000000156
 50
155.963570118321120
 51
204.036429881678230
  0
ARC
  8
0
  6
CONTINUOUS
 62
256
 10
-290.443535776685620
 20
-103.165032616937080
 40
27.499999999999886
 50
157.928141766202200
 51
202.071858233798680
  0
ARC
  8
0
  6
CONTINUOUS
 62
256
 10
-317.318221704351120
 20
-92.267727615729768
 40
1.500000000000110
 50
337.928141766202660
 51
59.999999999997605
  0
ARC
  8
0
  6
CONTINUOUS
 62
256
 10
-319.938989946419950
 20
-90.754626365687841
 40
1.500000000000123
 50
60.000000000002721
 51
157.180755781457830
  0
ARC
  8
0
  6
CONTINUOUS
 62
256
 10
-325.605072230836190
 20
-87.483312233529546
 40
1.499999999999855
 50
335.963570118319300
 51
59.999999999991623
  0
LINE
  8
0
  6
CONTINUOUS
 62
256
 10
-316.568221704351120
 20
-90.968689510053196
 11
-319.188989946419950
 21
-89.455588260011041
  0
LINE
  8
0
  6
CONTINUOUS
 62
256
 10
-324.855072230835960
 20
-86.184274127852973
 11
-327.466255829820510
 21
-84.676706574075865
  0
ARC
  8
0
  6
CONTINUOUS
 62
256
 10
-328.216255829820510
 20
-85.975744679752438
 40
1.499999999999926
 50
59.999999999998380
 51
155.531071524840120
  0
ARC
  8
0
  6
CONTINUOUS
 62
256
 10
-315.938989946420180
 20
-122.503642098462120
 40
1.499999999999926
 50
120.000000000001620
 51
217.180755781464030
  0
LINE
  8
0
  6
CONTINUOUS
 62
256
 10
-316.688989946420180
 20
-121.204603992785560
 11
-314.068221704350890
 21
-119.691502742743180
  0
ARC
  8
0
  6
CONTINUOUS
 62
256
 10
-321.605072230836410
 20
-125.774956230620430
 40
1.499999999999968
 50
35.963570118309242
 51
120.000000000000810
  0
LINE
  8
0
  6
CONTINUOUS
 62
256
 10
-324.966255829820510
 20
-125.983485678721190
 11
-322.355072230836410
 21
-124.475918124943860
  0
ARC
  8
0
  6
CONTINUOUS
 62
256
 10
-324.216255829820510
 20
-127.282523784397750
 40
1.499999999999926
 50
120.000000000001620
 51
215.531071524832160
  0
ARC
  8
0
  6
CONTINUOUS
 62
256
 10
-313.318221704350890
 20
-120.990540848420210
 40
1.500000000000122
 50
37.928141766218694
 51
119.999999999992440
  0
ARC
  8
0
  6
CONTINUOUS
 62
256
 10
-290.443535776685390
 20
-103.165032616936610
 40
33.500000000000163
 50
217.180755781459080
 51
262.819244218541770
  0
ARC
  8
0
  6
CONTINUOUS
 62
256
 10
-290.443535776685390
 20
-103.165032616936610
 40
42.999999999999865
 50
215.531071524839690
 51
264.468928475160790
  0
ARC
  8
0
  6
CONTINUOUS
 62
256
 10
-290.443535776685390
 20
-103.165032616936610
 40
37.000000000000021
 50
215.963570118321940
 51
264.036429881678880
  0
ARC
  8
0
  6
CONTINUOUS
 62
256
 10
-290.443535776685390
 20
-103.165032616937520
 40
27.499999999999780
 50
217.928141766201070
 51
262.071858233797340
  0
ARC
  8
0
  6
CONTINUOUS
 62
256
 10
-294.443535776685390
 20
-131.887845849627520
 40
1.500000000000000
 50
0.000000000000000
 51
82.071858233804718
  0
ARC
  8
0
  6
CONTINUOUS
 62
256
 10
-294.443535776685390
 20
-134.914048349711830
 40
1.499999999999998
 50
262.819244218541710
 51
0.000000000000000
  0
ARC
  8
0
  6
CONTINUOUS
 62
256
 10
-294.443535776685390
 20
-141.456676614028420
 40
1.500000000000000
 50
0.000000000017370
 51
84.036429881681926
  0
LINE
  8
0
  6
CONTINUOUS
 62
256
 10
-292.943535776685390
 20
-131.887845849627520
 11
-292.943535776685390
 21
-134.914048349711830
  0
LINE
  8
0
  6
CONTINUOUS
 62
256
 10
-292.943535776685390
 20
-141.456676614027970
 11
-292.943535776685390
 21
-144.471811721582180
  0
ARC
  8
0
  6
CONTINUOUS
 62
256
 10
-294.443535776685390
 20
-144.471811721582180
 40
1.500000000000430
 50
264.468928475160000
 51
0.000000000000000
  0
ARC
  8
0
  6
CONTINUOUS
 62
256
 10
-264.948081606950150
 20
-122.503642098462120
 40
1.500000000000240
 50
322.819244218535570
 51
59.999999999997883
  0
LINE
  8
0
  6
CONTINUOUS
 62
256
 10
-264.198081606950150
 20
-121.204603992785560
 11
-266.818849849019440
 21
-119.691502742743180
  0
ARC
  8
0
  6
CONTINUOUS
 62
256
 10
-259.281999322533920
 20
-125.774956230620430
 40
1.499999999999926
 50
59.999999999998380
 51
144.036429881690370
  0
ARC
  8
0
  6
CONTINUOUS
 62
256
 10
-267.568849849019440
 20
-120.990540848420210
 40
1.500000000000320
 50
60.000000000007056
 51
142.071858233781460
  0
ARC
  8
0
  6
CONTINUOUS
 62
256
 10
-290.443535776684940
 20
-103.165032616936610
 40
33.500000000000128
 50
277.180755781458230
 51
322.819244218540860
  0
ARC
  8
0
  6
CONTINUOUS
 62
256
 10
-290.443535776684940
 20
-103.165032616936610
 40
43.000000000000213
 50
275.531071524838860
 51
324.468928475160340
  0
ARC
  8
0
  6
CONTINUOUS
 62
256
 10
-290.443535776684940
 20
-103.165032616936610
 40
37.000000000000043
 50
275.963570118320770
 51
324.036429881678030
  0
ARC
  8
0
  6
CONTINUOUS
 62
256
 10
-290.443535776684940
 20
-103.165032616937520
 40
27.499999999999893
 50
277.928141766202600
 51
322.071858233798880
  0
ARC
  8
0
  6
CONTINUOUS
 62
256
 10
-286.443535776684940
 20
-131.887845849627520
 40
1.499999999999967
 50
97.928141766195438
 51
180.000000000000000
  0
ARC
  8
0
  6
CONTINUOUS
 62
256
 10
-286.443535776684940
 20
-134.914048349711830
 40
1.500000000000000
 50
180.000000000000000
 51
277.180755781458290
  0
ARC
  8
0
  6
CONTINUOUS
 62
256
 10
-286.443535776684940
 20
-141.456676614028420
 40
1.500000000000182
 50
95.963570118326047
 51
179.999999999982630
  0
LINE
  8
0
  6
CONTINUOUS
 62
256
 10
-287.943535776684940
 20
-131.887845849627520
 11
-287.943535776684940
 21
-134.914048349711830
  0
LINE
  8
0
  6
CONTINUOUS
 62
256
 10
-287.943535776684940
 20
-141.456676614027970
 11
-287.943535776684940
 21
-144.471811721582180
  0
ARC
  8
0
  6
CONTINUOUS
 62
256
 10
-286.443535776684940
 20
-144.471811721582180
 40
1.500000000000000
 50
180.000000000000000
 51
275.531071524830680
  0
ARC
  8
0
  6
CONTINUOUS
 62
256
 10
-260.948081606950150
 20
-115.575438868186770
 40
1.499999999999926
 50
239.999999999998410
 51
337.180755781453000
  0
LINE
  8
0
  6
CONTINUOUS
 62
256
 10
-261.698081606950150
 20
-116.874476973863350
 11
-264.318849849019440
 21
-115.361375723821420
  0
ARC
  8
0
  6
CONTINUOUS
 62
256
 10
-263.568849849019440
 20
-114.062337618144380
 40
1.499999999999899
 50
157.928141766199360
 51
240.000000000007500
  0
ARC
  8
0
  6
CONTINUOUS
 62
256
 10
-290.443535776685390
 20
-103.165032616937520
 40
33.500000000000135
 50
337.180755781459030
 51
22.819244218541971
  0
ARC
  8
0
  6
CONTINUOUS
 62
256
 10
-290.443535776684710
 20
-103.165032616937080
 40
27.499999999999886
 50
337.928141766202200
 51
22.071858233797808
  0
ARC
  8
0
  6
CONTINUOUS
 62
256
 10
-263.568849849019220
 20
-92.267727615729768
 40
1.499999999999926
 50
120.000000000001620
 51
202.071858233797310
  0
ARC
  8
0
  6
CONTINUOUS
 62
256
 10
-260.948081606950380
 20
-90.754626365687841
 40
1.499999999999948
 50
22.819244218550036
 51
119.999999999996500
  0
LINE
  8
0
  6
CONTINUOUS
 62
256
 10
-264.318849849019220
 20
-90.968689510053196
 11
-261.698081606950380
 21
-89.455588260011041
  0
ARC
  8
0
  6
CONTINUOUS
 62
256
 10
-290.443535776685620
 20
-103.165032616937080
 40
33.500000000000071
 50
37.180755781458252
 51
82.819244218540945
  0
ARC
  8
0
  6
CONTINUOUS
 62
256
 10
-290.443535776685620
 20
-103.165032616937080
 40
36.999999999999943
 50
35.963570118321186
 51
84.036429881678188
  0
ARC
  8
0
  6
CONTINUOUS
 62
256
 10
-259.281999322534380
 20
-80.555109003253506
 40
1.500000000000102
 50
215.963570118316280
 51
299.999999999997500
  0
ARC
  8
0
  6
CONTINUOUS
 62
256
 10
-264.948081606950610
 20
-83.826423135411801
 40
1.499999999999926
 50
300.000000000001590
 51
37.180755781456647
  0
ARC
  8
0
  6
CONTINUOUS
 62
256
 10
-290.443535776684940
 20
-103.165032616936610
 40
27.500000000000060
 50
37.928141766201819
 51
82.071858233798267
  0
ARC
  8
0
  6
CONTINUOUS
 62
256
 10
-286.443535776685170
 20
-74.442219384246641
 40
1.500000000000000
 50
180.000000000000000
 51
262.071858233795980
  0
LINE
  8
0
  6
CONTINUOUS
 62
256
 10
-266.818849849019440
 20
-86.638562491130529
 11
-264.198081606950610
 21
-85.125461241088374
  0
ARC
  8
0
  6
CONTINUOUS
 62
256
 10
-267.568849849019440
 20
-85.339524385453956
 40
1.499999999999843
 50
217.928141766204960
 51
300.000000000001080
  0
CIRCLE
  8
0
  6
CONTINUOUS
 62
256
 10
-290.443535776685170
 20
-103.165032616936610
 40
5.000000000000000
  0
ARC
  8
0
  6
CONTINUOUS
 62
256
 10
-284.506281843491250
 20
-95.118355306843227
 40
1.499999999999693
 50
233.578178478195380
 51
300.000000000001650
  0
ARC
  8
0
  6
CONTINUOUS
 62
256
 10
-286.443535776685170
 20
-93.999881227024730
 40
1.500000000000000
 50
180.000000000000000
 51
246.421821521804330
  0
ARC
  8
0
  6
CONTINUOUS
 62
256
 10
-273.268356507640420
 20
-88.630136089056691
 40
1.499999999999926
 50
300.000000000001590
 51
40.240348321183539
  0
ARC
  8
0
  6
CONTINUOUS
 62
256
 10
-286.443535776685170
 20
-90.795715740083665
 40
1.500000000000138
 50
72.079786860605211
 51
180.000000000000000
  0
ARC
  8
0
  6
CONTINUOUS
 62
256
 10
-286.443535776685170
 20
-84.079697932944441
 40
1.500000000000000
 50
180.000000000000000
 51
258.162995844103650
  0
ARC
  8
0
  6
CONTINUOUS
 62
256
 10
-275.915151100619370
 20
-90.158263659802856
 40
1.499999999999967
 50
221.837004155893250
 51
300.000000000000800
  0
ARC
  8
0
  6
CONTINUOUS
 62
256
 10
-286.443535776685170
 20
-81.023442791452112
 40
1.499999999999952
 50
79.759651678814038
 51
180.000000000000000
  0
ARC
  8
0
  6
CONTINUOUS
 62
256
 10
-281.731393133870820
 20
-93.516272563372354
 40
1.499999999999926
 50
300.000000000001590
 51
47.920213139381502
  0
LINE
  8
0
  6
CONTINUOUS
 62
256
 10
-275.165151100619370
 20
-91.457301765479428
 11
-272.518356507640420
 21
-89.929174194733264
  0
ARC
  8
0
  6
CONTINUOUS
 62
256
 10
-290.443535776684940
 20
-103.165032616936610
 40
14.499999999999860
 50
47.920213139391755
 51
72.079786860608280
  0
LINE
  8
0
  6
CONTINUOUS
 62
256
 10
-287.943535776685170
 20
-90.795715740083665
 11
-287.943535776685170
 21
-93.999881227024730
  0
LINE
  8
0
  6
CONTINUOUS
 62
256
 10
-287.943535776685170
 20
-81.023442791452112
 11
-287.943535776685170
 21
-84.079697932944441
  0
LINE
  8
0
  6
CONTINUOUS
 62
256
 10
-283.756281843491250
 20
-96.417393412519800
 11
-280.981393133870820
 21
-94.815310669048927
  0
ARC
  8
0
  6
CONTINUOUS
 62
256
 10
-290.443535776684940
 20
-103.165032616936610
 40
23.999999999999819
 50
40.240348321186090
 51
79.759651678814294
  0
ARC
  8
0
  6
CONTINUOUS
 62
256
 10
-290.443535776684940
 20
-103.165032616936610
 40
8.500000000000101
 50
53.578178478202645
 51
66.421821521799075
  0
ARC
  8
0
  6
CONTINUOUS
 62
256
 10
-277.731393133870820
 20
-105.885589440225540
 40
1.499999999999926
 50
239.999999999998410
 51
347.920213139390340
  0
LINE
  8
0
  6
CONTINUOUS
 62
256
 10
-278.481393133870820
 20
-107.184627545902100
 11
-281.256281843491250
 21
-105.582544802431680
  0
ARC
  8
0
  6
CONTINUOUS
 62
256
 10
-280.506281843491250
 20
-104.283506696755130
 40
1.500000000000099
 50
173.578178478198990
 51
239.999999999997580
  0
ARC
  8
0
  6
CONTINUOUS
 62
256
 10
-290.443535776684940
 20
-103.165032616936610
 40
8.499999999999865
 50
353.578178478199500
 51
6.421821521797406
  0
ARC
  8
0
  6
CONTINUOUS
 62
256
 10
-280.506281843491250
 20
-102.046558537118590
 40
1.499999999999926
 50
120.000000000001620
 51
186.421821521801180
  0
LINE
  8
0
  6
CONTINUOUS
 62
256
 10
-281.256281843491250
 20
-100.747520431442010
 11
-278.481393133870820
 21
-99.145437687971139
  0
ARC
  8
0
  6
CONTINUOUS
 62
256
 10
-277.731393133870820
 20
-100.444475793647710
 40
1.500000000000192
 50
12.079786860592611
 51
120.000000000001070
  0
ARC
  8
0
  6
CONTINUOUS
 62
256
 10
-290.443535776684940
 20
-103.165032616936610
 40
14.500000000000165
 50
347.920213139391310
 51
12.079786860606941
  0
ARC
  8
0
  6
CONTINUOUS
 62
256
 10
-269.268356507640420
 20
-110.771725914541190
 40
1.499999999999926
 50
239.999999999998410
 51
340.240348321188610
  0
LINE
  8
0
  6
CONTINUOUS
 62
256
 10
-270.018356507640420
 20
-112.070764020217780
 11
-272.665151100619370
 21
-110.542636449472070
  0
ARC
  8
0
  6
CONTINUOUS
 62
256
 10
-271.915151100619370
 20
-109.243598343795040
 40
1.500000000000038
 50
161.837004155895410
 51
240.000000000006200
  0
ARC
  8
0
  6
CONTINUOUS
 62
256
 10
-290.443535776684940
 20
-103.165032616936610
 40
17.999999999999943
 50
341.837004155893340
 51
18.162995844106639
  0
ARC
  8
0
  6
CONTINUOUS
 62
256
 10
-271.915151100619370
 20
-97.086466890078214
 40
1.499999999999926
 50
120.000000000001620
 51
198.162995844104900
  0
LINE
  8
0
  6
CONTINUOUS
 62
256
 10
-272.665151100619370
 20
-95.787428784401641
 11
-270.018356507640420
 21
-94.259301213655476
  0
ARC
  8
0
  6
CONTINUOUS
 62
256
 10
-269.268356507640420
 20
-95.558339319332049
 40
1.500000000000246
 50
19.759651678811821
 51
120.000000000001850
  0
ARC
  8
0
  6
CONTINUOUS
 62
256
 10
-290.443535776684940
 20
-103.165032616936610
 40
24.000000000000146
 50
340.240348321186050
 51
19.759651678813920
  0
ARC
  8
0
  6
CONTINUOUS
 62
256
 10
-303.155678419499510
 20
-105.885589440225540
 40
1.500000000000287
 50
192.079786860609570
 51
300.000000000001310
  0
LINE
  8
0
  6
CONTINUOUS
 62
256
 10
-302.405678419499510
 20
-107.184627545902100
 11
-299.630789709879080
 21
-105.582544802431680
  0
ARC
  8
0
  6
CONTINUOUS
 62
256
 10
-300.380789709879080
 20
-104.283506696755130
 40
1.499999999999926
 50
300.000000000001590
 51
6.421821521801724
  0
ARC
  8
0
  6
CONTINUOUS
 62
256
 10
-290.443535776685620
 20
-103.165032616936610
 40
8.499999999999814
 50
173.578178478202570
 51
186.421821521800520
  0
ARC
  8
0
  6
CONTINUOUS
 62
256
 10
-300.380789709879080
 20
-102.046558537118590
 40
1.499999999999873
 50
353.578178478198030
 51
59.999999999997563
  0
LINE
  8
0
  6
CONTINUOUS
 62
256
 10
-299.630789709879080
 20
-100.747520431442010
 11
-302.405678419499740
 21
-99.145437687971139
  0
ARC
  8
0
  6
CONTINUOUS
 62
256
 10
-303.155678419499740
 20
-100.444475793647710
 40
1.499999999999926
 50
59.999999999998380
 51
167.920213139405660
  0
ARC
  8
0
  6
CONTINUOUS
 62
256
 10
-290.443535776685620
 20
-103.165032616936610
 40
14.499999999999851
 50
167.920213139392840
 51
192.079786860608890
  0
ARC
  8
0
  6
CONTINUOUS
 62
256
 10
-311.618715045729910
 20
-110.771725914541190
 40
1.500000000000246
 50
199.759651678811790
 51
300.000000000001880
  0
LINE
  8
0
  6
CONTINUOUS
 62
256
 10
-310.868715045729910
 20
-112.070764020217780
 11
-308.221920452750960
 21
-110.542636449472070
  0
ARC
  8
0
  6
CONTINUOUS
 62
256
 10
-308.971920452750960
 20
-109.243598343795040
 40
1.500000000000320
 50
299.999999999992950
 51
18.162995844104298
  0
ARC
  8
0
  6
CONTINUOUS
 62
256
 10
-290.443535776685620
 20
-103.165032616936610
 40
17.999999999999726
 50
161.837004155893140
 51
198.162995844106860
  0
ARC
  8
0
  6
CONTINUOUS
 62
256
 10
-308.971920452750960
 20
-97.086466890078214
 40
1.500000000000038
 50
341.837004155895390
 51
59.999999999998394
  0
LINE
  8
0
  6
CONTINUOUS
 62
256
 10
-308.221920452750960
 20
-95.787428784401641
 11
-310.868715045730140
 21
-94.259301213655476
  0
ARC
  8
0
  6
CONTINUOUS
 62
256
 10
-311.618715045730140
 20
-95.558339319332049
 40
1.499999999999926
 50
59.999999999998380
 51
160.240348321185310
  0
ARC
  8
0
  6
CONTINUOUS
 62
256
 10
-290.443535776685620
 20
-103.165032616936610
 40
23.999999999999925
 50
160.240348321185910
 51
199.759651678814070
  0
ARC
  8
0
  6
CONTINUOUS
 62
256
 10
-299.155678419499510
 20
-112.813792670501360
 40
1.500000000000320
 50
119.999999999992940
 51
227.920213139382700
  0
LINE
  8
0
  6
CONTINUOUS
 62
256
 10
-299.905678419499510
 20
-111.514754564824320
 11
-297.130789709879080
 21
-109.912671821353910
  0
ARC
  8
0
  6
CONTINUOUS
 62
256
 10
-296.380789709879080
 20
-111.211709927030480
 40
1.500000000000059
 50
53.578178478205700
 51
120.000000000001340
  0
ARC
  8
0
  6
CONTINUOUS
 62
256
 10
-290.443535776685170
 20
-103.165032616937080
 40
8.499999999999870
 50
233.578178478199590
 51
246.421821521797570
  0
ARC
  8
0
  6
CONTINUOUS
 62
256
 10
-294.443535776685170
 20
-112.330184006848980
 40
1.500000000000000
 50
0.000000000017370
 51
66.421821521804318
  0
LINE
  8
0
  6
CONTINUOUS
 62
256
 10
-292.943535776685170
 20
-112.330184006848530
 11
-292.943535776685170
 21
-115.534349493789800
  0
ARC
  8
0
  6
CONTINUOUS
 62
256
 10
-294.443535776685170
 20
-115.534349493789800
 40
1.500000000000355
 50
252.079786860607900
 51
0.000000000000000
  0
ARC
  8
0
  6
CONTINUOUS
 62
256
 10
-290.443535776685170
 20
-103.165032616937080
 40
14.500000000000011
 50
227.920213139391080
 51
252.079786860607530
  0
ARC
  8
0
  6
CONTINUOUS
 62
256
 10
-307.618715045729910
 20
-117.699929144817020
 40
1.499999999999926
 50
120.000000000001620
 51
220.240348321176580
  0
LINE
  8
0
  6
CONTINUOUS
 62
256
 10
-308.368715045729910
 20
-116.400891039140450
 11
-305.721920452750960
 21
-114.872763468394280
  0
ARC
  8
0
  6
CONTINUOUS
 62
256
 10
-304.971920452750960
 20
-116.171801574070860
 40
1.500000000000118
 50
41.837004155899741
 51
120.000000000002130
  0
ARC
  8
0
  6
CONTINUOUS
 62
256
 10
-290.443535776685170
 20
-103.165032616937080
 40
17.999999999999940
 50
221.837004155892290
 51
258.162995844106770
  0
ARC
  8
0
  6
CONTINUOUS
 62
256
 10
-294.443535776685170
 20
-122.250367300929270
 40
1.500000000000000
 50
0.000000000000000
 51
78.162995844101530
  0
LINE
  8
0
  6
CONTINUOUS
 62
256
 10
-292.943535776685170
 20
-122.250367300929270
 11
-292.943535776685170
 21
-125.306622442421580
  0
ARC
  8
0
  6
CONTINUOUS
 62
256
 10
-294.443535776685170
 20
-125.306622442421580
 40
1.499999999999728
 50
259.759651678812470
 51
0.000000000000000
  0
ARC
  8
0
  6
CONTINUOUS
 62
256
 10
-290.443535776685170
 20
-103.165032616937080
 40
23.999999999999844
 50
220.240348321185310
 51
259.759651678813730
  0
ARC
  8
0
  6
CONTINUOUS
 62
256
 10
-281.731393133870820
 20
-112.813792670501360
 40
1.499999999999944
 50
312.079786860618130
 51
60.000000000006459
  0
LINE
  8
0
  6
CONTINUOUS
 62
256
 10
-280.981393133870820
 20
-111.514754564824320
 11
-283.756281843491250
 21
-109.912671821353910
  0
ARC
  8
0
  6
CONTINUOUS
 62
256
 10
-284.506281843491250
 20
-111.211709927030480
 40
1.499999999999926
 50
59.999999999998380
 51
126.421821521800880
  0
ARC
  8
0
  6
CONTINUOUS
 62
256
 10
-290.443535776685170
 20
-103.165032616937080
 40
8.500000000000060
 50
293.578178478202350
 51
306.421821521799070
  0
ARC
  8
0
  6
CONTINUOUS
 62
256
 10
-286.443535776685170
 20
-112.330184006848980
 40
1.500000000000139
 50
113.578178478195710
 51
179.999999999982630
  0
LINE
  8
0
  6
CONTINUOUS
 62
256
 10
-287.943535776685170
 20
-112.330184006848530
 11
-287.943535776685170
 21
-115.534349493789800
  0
ARC
  8
0
  6
CONTINUOUS
 62
256
 10
-286.443535776685170
 20
-115.534349493789800
 40
1.500000000000000
 50
180.000000000000000
 51
287.920213139391990
  0
ARC
  8
0
  6
CONTINUOUS
 62
256
 10
-290.443535776685170
 20
-103.165032616937080
 40
14.500000000000121
 50
287.920213139392560
 51
312.079786860608810
  0
ARC
  8
0
  6
CONTINUOUS
 62
256
 10
-273.268356507640420
 20
-117.699929144817020
 40
1.499999999999828
 50
319.759651678823670
 51
59.999999999998622
  0
LINE
  8
0
  6
CONTINUOUS
 62
256
 10
-272.518356507640420
 20
-116.400891039140450
 11
-275.165151100619370
 21
-114.872763468394280
  0
ARC
  8
0
  6
CONTINUOUS
 62
256
 10
-275.915151100619370
 20
-116.171801574070860
 40
1.499999999999926
 50
59.999999999998380
 51
138.162995844099560
  0
ARC
  8
0
  6
CONTINUOUS
 62
256
 10
-290.443535776685170
 20
-103.165032616937080
 40
18.000000000000146
 50
281.837004155893230
 51
318.162995844107740
  0
ARC
  8
0
  6
CONTINUOUS
 62
256
 10
-286.443535776685170
 20
-122.250367300929270
 40
1.499999999999731
 50
101.837004155898460
 51
180.000000000000000
  0
LINE
  8
0
  6
CONTINUOUS
 62
256
 10
-287.943535776685170
 20
-122.250367300929270
 11
-287.943535776685170
 21
-125.306622442421580
  0
ARC
  8
0
  6
CONTINUOUS
 62
256
 10
-286.443535776685170
 20
-125.306622442421580
 40
1.500000000000000
 50
180.000000000000000
 51
280.240348321187810
  0
ARC
  8
0
  6
CONTINUOUS
 62
256
 10
-290.443535776685170
 20
-103.165032616937080
 40
23.999999999999716
 50
280.240348321186270
 51
319.759651678814690
  0
ARC
  8
0
  6
CONTINUOUS
 62
256
 10
-294.443535776685170
 20
-90.795715740083665
 40
1.500000000000000
 50
0.000000000000000
 51
107.920213139394220
  0
LINE
  8
0
  6
CONTINUOUS
 62
256
 10
-292.943535776685170
 20
-90.795715740083665
 11
-292.943535776685170
 21
-93.999881227024730
  0
ARC
  8
0
  6
CONTINUOUS
 62
256
 10
-294.443535776685170
 20
-93.999881227024730
 40
1.500000000000139
 50
293.578178478195700
 51
0.000000000000000
  0
ARC
  8
0
  6
CONTINUOUS
 62
256
 10
-290.443535776685620
 20
-103.165032616936610
 40
8.499999999999879
 50
113.578178478199520
 51
126.421821521797470
  0
ARC
  8
0
  6
CONTINUOUS
 62
256
 10
-296.380789709879080
 20
-95.118355306843227
 40
1.499999999999926
 50
239.999999999998410
 51
306.421821521797880
  0
LINE
  8
0
  6
CONTINUOUS
 62
256
 10
-297.130789709879080
 20
-96.417393412519800
 11
-299.905678419499740
 21
-94.815310669048927
  0
ARC
  8
0
  6
CONTINUOUS
 62
256
 10
-299.155678419499740
 20
-93.516272563372354
 40
1.499999999999792
 50
132.079786860611680
 51
239.999999999998100
  0
ARC
  8
0
  6
CONTINUOUS
 62
256
 10
-290.443535776685620
 20
-103.165032616936610
 40
14.499999999999980
 50
107.920213139390850
 51
132.079786860607500
  0
ARC
  8
0
  6
CONTINUOUS
 62
256
 10
-294.443535776685170
 20
-81.023442791452112
 40
1.500000000000000
 50
0.000000000000000
 51
100.240348321194420
  0
LINE
  8
0
  6
CONTINUOUS
 62
256
 10
-292.943535776685170
 20
-81.023442791452112
 11
-292.943535776685170
 21
-84.079697932944441
  0
ARC
  8
0
  6
CONTINUOUS
 62
256
 10
-294.443535776685170
 20
-84.079697932944441
 40
1.499999999999954
 50
281.837004155896690
 51
0.000000000000000
  0
ARC
  8
0
  6
CONTINUOUS
 62
256
 10
-290.443535776685620
 20
-103.165032616936610
 40
17.999999999999829
 50
101.837004155891990
 51
138.162995844106180
  0
ARC
  8
0
  6
CONTINUOUS
 62
256
 10
-304.971920452750960
 20
-90.158263659802856
 40
1.499999999999926
 50
239.999999999998410
 51
318.162995844106090
  0
LINE
  8
0
  6
CONTINUOUS
 62
256
 10
-305.721920452750960
 20
-91.457301765479428
 11
-308.368715045730140
 21
-89.929174194733264
  0
ARC
  8
0
  6
CONTINUOUS
 62
256
 10
-307.618715045730140
 20
-88.630136089056691
 40
1.499999999999802
 50
139.759651678811450
 51
239.999999999998100
  0
ARC
  8
0
  6
CONTINUOUS
 62
256
 10
-290.443535776685620
 20
-103.165032616936610
 40
23.999999999999901
 50
100.240348321185680
 51
139.759651678813530
  0
ARC
  8
0
  6
CONTINUOUS
 62
256
 10
-294.443535776685170
 20
-71.416016884162104
 40
1.500000000000000
 50
0.000000000000000
 51
97.180755781458302
  0
LINE
  8
0
  6
CONTINUOUS
 62
256
 10
-292.943535776685170
 20
-71.416016884162104
 11
-292.943535776685170
 21
-74.442219384246641
  0
ARC
  8
0
  6
CONTINUOUS
 62
256
 10
-294.443535776685170
 20
-64.873388619845514
 40
1.499999999999933
 50
275.963570118318330
 51
0.000000000000000
  0
LINE
  8
0
  6
CONTINUOUS
 62
256
 10
-292.943535776685170
 20
-61.858253512291299
 11
-292.943535776685170
 21
-64.873388619845514
  0
LINE
  8
0
  6
CONTINUOUS
 62
256
 10
-255.920815723549820
 20
-125.983485678721190
 11
-258.531999322533920
 21
-124.475918124943860
  0
ARC
  8
0
  6
CONTINUOUS
 62
256
 10
-256.670815723549820
 20
-127.282523784397750
 40
1.499999999999836
 50
324.468928475168300
 51
59.999999999997961
  0
ARC
  8
0
  6
CONTINUOUS
 62
256
 10
-255.281999322533920
 20
-118.846753000345070
 40
1.500000000000063
 50
155.963570118322880
 51
239.999999999998660
  0
LINE
  8
0
  6
CONTINUOUS
 62
256
 10
-253.420815723549820
 20
-121.653358659798980
 11
-256.031999322533920
 21
-120.145791106021630
  0
ARC
  8
0
  6
CONTINUOUS
 62
256
 10
-252.670815723549820
 20
-120.354320554121950
 40
1.500000000000320
 50
240.000000000007050
 51
335.531071524832270
  0
ARC
  8
0
  6
CONTINUOUS
 62
256
 10
-290.443535776685390
 20
-103.165032616937520
 40
42.999999999999936
 50
335.531071524839770
 51
24.468928475160773
  0
ARC
  8
0
  6
CONTINUOUS
 62
256
 10
-290.443535776685390
 20
-103.165032616937520
 40
36.999999999999979
 50
335.963570118321740
 51
24.036429881678874
  0
ARC
  8
0
  6
CONTINUOUS
 62
256
 10
-255.281999322534150
 20
-87.483312233529546
 40
1.500000000000123
 50
119.999999999997300
 51
204.036429881681070
  0
LINE
  8
0
  6
CONTINUOUS
 62
256
 10
-256.031999322534150
 20
-86.184274127852746
 11
-253.420815723549820
 21
-84.676706574075638
  0
ARC
  8
0
  6
CONTINUOUS
 62
256
 10
-252.670815723549820
 20
-85.975744679752438
 40
1.500000000000034
 50
24.468928475159586
 51
119.999999999996760
  0
ARC
  8
0
  6
CONTINUOUS
 62
256
 10
-290.443535776685620
 20
-103.165032616937080
 40
42.999999999999908
 50
35.531071524839241
 51
84.468928475160197
  0
ARC
  8
0
  6
CONTINUOUS
 62
256
 10
-256.670815723550280
 20
-79.047541449476398
 40
1.500000000000123
 50
299.999999999997270
 51
35.531071524839312
  0
ARC
  8
0
  6
CONTINUOUS
 62
256
 10
-286.443535776685170
 20
-64.873388619845514
 40
1.500000000000000
 50
180.000000000000000
 51
264.036429881682010
  0
ARC
  8
0
  6
CONTINUOUS
 62
256
 10
-286.443535776685170
 20
-71.416016884162104
 40
1.499999999999998
 50
82.819244218541712
 51
180.000000000000000
  0
LINE
  8
0
  6
CONTINUOUS
 62
256
 10
-287.943535776685170
 20
-71.416016884162104
 11
-287.943535776685170
 21
-74.442219384246641
  0
LINE
  8
0
  6
CONTINUOUS
 62
256
 10
-258.531999322534380
 20
-81.854147108930306
 11
-255.920815723550280
 21
-80.346579555153198
  0
LINE
  8
0
  6
CONTINUOUS
 62
256
 10
-287.943535776685170
 20
-61.858253512291526
 11
-287.943535776685170
 21
-64.873388619845514
  0
ARC
  8
0
  6
CONTINUOUS
 62
256
 10
-290.443535776685390
 20
-103.165032616936610
 40
27.499999999999815
 50
97.928141766201691
 51
142.071858233797880
  0
ARC
  8
0
  6
CONTINUOUS
 62
256
 10
-290.443535776684940
 20
-103.165032616936610
 40
17.999999999999922
 50
41.837004155893318
 51
78.162995844107343
  0
ARC
  8
0
  6
CONTINUOUS
 62
256
 10
-294.443535776685170
 20
-61.858253512291299
 40
1.500000000000000
 50
0.000000000000000
 51
95.531071524841636
  0
ARC
  8
0
  6
CONTINUOUS
 62
256
 10
-286.443535776685170
 20
-61.858253512291526
 40
1.500000000000203
 50
84.468928475159146
 51
180.000000000000000
  0
LINE
  8
0
  6
CONTINUOUS
 62
256
 10
-339.059027962798840
 20
-157.928551840296790
 11
-346.125477081458030
 21
-150.862102721637140
  0
LINE
  8
0
  6
CONTINUOUS
 62
256
 10
-241.828043590571500
 20
-48.401513393577602
 11
-234.761594471912530
 21
-55.467962512236568
  0
ARC
  8
0
  6
CONTINUOUS
 62
256
 10
-54.843535776685258
 20
-103.165032616937080
 40
300.599999999999850
 50
173.948014641331500
 51
186.051985358668500
  0
ARC
  8
0
  6
CONTINUOUS
 62
256
 10
-290.443535776685170
 20
-343.765032616936990
 40
300.599999999999910
 50
90.000000000000000
 51
98.597082237249069
  0
ARC
  8
0
  6
CONTINUOUS
 62
256
 10
-290.443535776685170
 20
137.434967383063050
 40
300.600000000000140
 50
270.000000000000000
 51
278.597082237249140
  0
ARC
  8
0
  6
CONTINUOUS
 62
256
 10
-246.494948346402680
 20
-53.068418149408785
 40
6.600000000000118
 50
45.000000000001400
 51
81.402917762751329
  0
ARC
  8
0
  6
CONTINUOUS
 62
256
 10
-290.443535776685170
 20
-343.765032616936990
 40
300.599999999999800
 50
81.402917762750931
 51
90.000000000000000
  0
ARC
  8
0
  6
CONTINUOUS
 62
256
 10
-526.043535776685080
 20
-103.165032616937080
 40
300.600000000000080
 50
353.948014641331550
 51
6.051985358668500
  0
LINE
  8
0
  6
CONTINUOUS
 62
256
 10
-241.828043590571500
 20
-157.928551840296790
 11
-234.761594471912080
 21
-150.862102721637140
  0
ARC
  8
0
  6
CONTINUOUS
 62
256
 10
-246.494948346402680
 20
-153.261647084465610
 40
6.599999999999747
 50
278.597082237248910
 51
315.000000000000000
  0
ARC
  8
0
  6
CONTINUOUS
 62
256
 10
-290.443535776685170
 20
137.434967383063050
 40
300.599999999999970
 50
261.402917762750920
 51
270.000000000000000
  0
ARC
  8
0
  6
CONTINUOUS
 62
256
 10
-334.392123206967650
 20
-153.261647084465610
 40
6.599999999999957
 50
225.000000000000000
 51
261.402917762750860
  0
LINE
  8
0
  6
CONTINUOUS
 62
256
 10
-339.059027962798840
 20
-48.401513393577602
 11
-346.125477081457800
 21
-55.467962512236568
  0
ARC
  8
0
  6
CONTINUOUS
 62
256
 10
-253.570634851474780
 20
-74.277002891798816
 40
26.600000000000193
 50
6.051985358668552
 51
45.000000000000000
  0
ARC
  8
0
  6
CONTINUOUS
 62
256
 10
-327.316436701895550
 20
-74.277002891798816
 40
26.600000000000119
 50
135.000000000000000
 51
173.948014641331440
  0
ARC
  8
0
  6
CONTINUOUS
 62
256
 10
-327.316436701895550
 20
-132.053062342075350
 40
26.599999999999969
 50
186.051985358668590
 51
224.999999999998950
  0
ARC
  8
0
  6
CONTINUOUS
 62
256
 10
-253.570634851474550
 20
-132.053062342075350
 40
26.599999999999955
 50
315.000000000001020
 51
353.948014641331330
  0
ARC
  8
0
  6
CONTINUOUS
 62
256
 10
-327.316436701895550
 20
-74.277002891798816
 40
15.396999999999876
 50
135.000000000000000
 51
173.948014641331180
  0
ARC
  8
0
  6
CONTINUOUS
 62
256
 10
-526.043535776685080
 20
-103.165032616937080
 40
289.397000000000160
 50
0.000000000000000
 51
6.051985358668508
  0
ARC
  8
0
  6
CONTINUOUS
 62
256
 10
-253.570634851474550
 20
-74.277002891798816
 40
15.397000000000052
 50
6.051985358668850
 51
45.000000000000036
  0
LINE
  8
0
  6
CONTINUOUS
 62
256
 10
-247.259377134183750
 20
-58.813614389230793
 11
-242.683311741545140
 21
-63.389679781869404
  0
ARC
  8
0
  6
CONTINUOUS
 62
256
 10
-251.502017821302840
 20
-63.056255076350340
 40
6.000000000000049
 50
45.000000000003070
 51
82.102011327574274
  0
ARC
  8
0
  6
CONTINUOUS
 62
256
 10
-290.443535776685170
 20
-343.765032616936990
 40
289.396999999999820
 50
82.102011327572214
 51
90.000000000000000
  0
ARC
  8
0
  6
CONTINUOUS
 62
256
 10
-526.043535776685080
 20
-103.165032616937080
 40
289.397000000000160
 50
353.948014641331550
 51
0.000000000000000
  0
ARC
  8
0
  6
CONTINUOUS
 62
256
 10
-253.570634851474550
 20
-132.053062342075350
 40
15.396999999999876
 50
315.000000000000000
 51
353.948014641331160
  0
LINE
  8
0
  6
CONTINUOUS
 62
256
 10
-247.259377134183750
 20
-147.516450844643370
 11
-242.683311741545140
 21
-142.940385452004760
  0
ARC
  8
0
  6
CONTINUOUS
 62
256
 10
-251.502017821302840
 20
-143.273810157523830
 40
5.999999999999923
 50
277.897988672425640
 51
314.999999999996930
  0
ARC
  8
0
  6
CONTINUOUS
 62
256
 10
-290.443535776685170
 20
137.434967383062830
 40
289.396999999999930
 50
270.000000000000000
 51
277.897988672427800
  0
ARC
  8
0
  6
CONTINUOUS
 62
256
 10
-54.843535776685030
 20
-103.165032616937080
 40
289.397000000000160
 50
180.000000000000000
 51
186.051985358668500
  0
ARC
  8
0
  6
CONTINUOUS
 62
256
 10
-327.316436701895550
 20
-132.053062342075350
 40
15.397000000000052
 50
186.051985358668840
 51
225.000000000000000
  0
LINE
  8
0
  6
CONTINUOUS
 62
256
 10
-333.627694419186350
 20
-147.516450844643370
 11
-338.203759811824970
 21
-142.940385452004760
  0
ARC
  8
0
  6
CONTINUOUS
 62
256
 10
-329.385053732067260
 20
-143.273810157523830
 40
6.000000000000049
 50
225.000000000003040
 51
262.102011327574530
  0
ARC
  8
0
  6
CONTINUOUS
 62
256
 10
-290.443535776684940
 20
137.434967383062830
 40
289.396999999999820
 50
262.102011327572200
 51
270.000000000000000
  0
ARC
  8
0
  6
CONTINUOUS
 62
256
 10
-375.743535776685120
 20
-117.207532616937100
 40
20.800000000000082
 50
274.191726156007410
 51
354.952683218987430
  0
LINE
  8
0
  6
CONTINUOUS
 62
256
 10
-354.943535776685170
 20
-85.834423856711680
 11
-354.943535776685170
 21
-77.207532616937101
  0
ARC
  8
0
  6
CONTINUOUS
 62
256
 10
-373.743535776685120
 20
-77.207532616937101
 40
18.799999999999955
 50
0.000000000000000
 51
79.401214733933926
  0
ARC
  8
0
  6
CONTINUOUS
 62
256
 10
-375.743535776685120
 20
-117.207532616937100
 40
20.799999999999986
 50
174.275189547776620
 51
205.640070215894870
  0
ARC
  8
0
  6
CONTINUOUS
 62
256
 10
-375.743535776685120
 20
-117.207532616937100
 40
20.799999999999926
 50
205.640070215894870
 51
260.083463391769380
  0
ARC
  8
0
  6
CONTINUOUS
 62
256
 10
-375.743535776685120
 20
-117.207532616937100
 40
20.799999999999986
 50
174.275189547776620
 51
205.640070215894870
  0
ARC
  8
0
  6
CONTINUOUS
 62
256
 10
-369.917781142598190
 20
-56.762396239799386
 40
1.999999999999927
 50
177.137594773887290
 51
259.401214733933840
  0
ARC
  8
0
  6
CONTINUOUS
 62
256
 10
-375.510794240314000
 20
-56.482745584913573
 40
1.999999999999928
 50
274.873974813840960
 51
357.137594773887320
  0
ARC
  8
0
  6
CONTINUOUS
 62
256
 10
-374.076988510301590
 20
-139.946543593866410
 40
1.999999999999962
 50
94.191726156001650
 51
177.137594773887370
  0
LINE
  8
0
  6
CONTINUOUS
 62
256
 10
-372.245407268368350
 20
-47.244962450601861
 11
-377.339044196645320
 21
-149.117701016141950
  0
ARC
  8
0
  6
CONTINUOUS
 62
256
 10
-379.670001608017400
 20
-139.666892938980600
 40
2.000000000000154
 50
357.137594773887600
 51
80.083463391768120
  0
LINE
  8
0
  6
CONTINUOUS
 62
256
 10
-396.439795128306060
 20
-115.132719649356090
 11
-392.449770190650040
 21
-75.332220896238823
  0
ARC
  8
0
  6
CONTINUOUS
 62
256
 10
-373.743535776685120
 20
-77.207532616937101
 40
18.800000000000036
 50
94.873974813842736
 51
144.191373186504220
  0
ARC
  8
0
  6
CONTINUOUS
 62
256
 10
-373.743535776685120
 20
-77.207532616937101
 40
18.799999999999933
 50
144.191373186504250
 51
174.275189547776420
  0
LINE
  8
0
  6
CONTINUOUS
 62
256
 10
-373.044409139470640
 20
-47.205012357046712
 11
-371.446405397266060
 21
-47.284912544156896
  0
ARC
  8
0
  6
CONTINUOUS
 62
256
 10
-366.902082636365090
 20
-52.518374780827003
 40
9.000000000000060
 50
160.536063666407810
 51
193.739143184213500
  0
POINT
  8
0
  6
CONTINUOUS
 62
256
 10
-373.294097224189500
 20
-52.198774051435748
  0
LINE
  8
0
  6
CONTINUOUS
 62
256
 10
-373.119315564885940
 20
-48.703140865363366
 11
-373.468878883493060
 21
-55.694407237508244
  0
LINE
  8
0
  6
CONTINUOUS
 62
256
 10
-373.119315564885940
 20
-48.703140865363366
 11
-373.468878883493060
 21
-55.694407237508244
  0
LINE
  8
0
  6
CONTINUOUS
 62
256
 10
-373.468878883493060
 20
-55.694407237508244
 11
-374.446682696000830
 21
-55.645517046882901
  0
LINE
  8
0
  6
CONTINUOUS
 62
256
 10
-373.119315564885940
 20
-48.703140865363366
 11
-374.097119377393480
 21
-48.654250674738023
  0
ARC
  8
0
  6
CONTINUOUS
 62
256
 10
-374.381763832073150
 20
-54.347139768329271
 40
1.299999237060493
 50
193.739143184211430
 51
267.137612759980130
  0
ARC
  8
0
  6
CONTINUOUS
 62
256
 10
-374.162038241321170
 20
-49.952627953291540
 40
1.299999237060475
 50
87.137594090651845
 51
160.536063666412730
  0
LINE
  8
0
  6
CONTINUOUS
 62
256
 10
-373.044409139470640
 20
-47.205012357046712
 11
-378.138046067747610
 21
-149.077750922586690
  0
LINE
  8
0
  6
CONTINUOUS
 62
256
 10
-376.540042325543030
 20
-149.157651109697670
 11
-378.138046067747610
 21
-149.077750922586690
  0
LINE
  8
0
  6
CONTINUOUS
 62
256
 10
-371.446405397266060
 20
-47.284912544156896
 11
-376.540042325543030
 21
-149.157651109697670
  0
ARC
  8
0
  6
CONTINUOUS
 62
256
 10
-329.943535776685170
 20
-162.165032616937080
 40
2.000000000000000
 50
180.000000000000000
 51
270.000000000000000
  0
ARC
  8
0
  6
CONTINUOUS
 62
256
 10
-250.943535776685170
 20
-162.165032616937080
 40
2.000000000000000
 50
270.000000000000000
 51
0.000000000000000
  0
ARC
  8
0
  6
CONTINUOUS
 62
256
 10
-254.943535776685170
 20
-159.165032616937080
 40
7.000000000000012
 50
214.849904579046410
 51
225.584691402807100
  0
ARC
  8
0
  6
CONTINUOUS
 62
256
 10
-325.943535776685170
 20
-159.165032616937080
 40
6.999999999999971
 50
314.415308597192730
 51
325.150095420953510
  0
ARC
  8
0
  6
CONTINUOUS
 62
256
 10
-329.943535776685170
 20
-162.165032616937080
 40
2.000000000000000
 50
180.000000000000000
 51
270.000000000000000
  0
LINE
  8
0
  6
CONTINUOUS
 62
256
 10
-259.842515262251480
 20
-164.165032616937080
 11
-250.943535776685170
 21
-164.165032616937080
  0
LINE
  8
0
  6
CONTINUOUS
 62
256
 10
-321.044556291118850
 20
-164.165032616937080
 11
-329.943535776685170
 21
-164.165032616937080
  0
LINE
  8
0
  6
CONTINUOUS
 62
256
 10
-290.443535776685170
 20
-163.165032616937080
 11
-320.198973130147120
 21
-163.165032616937080
  0
LINE
  8
0
  6
CONTINUOUS
 62
256
 10
-290.443535776685170
 20
-163.165032616937080
 11
-260.688098423223210
 21
-163.165032616937080
  0
LINE
  8
0
  6
CONTINUOUS
 62
256
 10
-338.943535776685170
 20
-164.665032616937080
 11
-362.943535776685170
 21
-164.665032616937080
  0
LINE
  8
0
  6
CONTINUOUS
 62
256
 10
-241.943535776685170
 20
-164.665032616937080
 11
-217.943535776685170
 21
-164.665032616937080
  0
ARC
  8
0
  6
CONTINUOUS
 62
256
 10
-254.943535776685170
 20
-159.665032616937080
 40
6.999999999999984
 50
210.000000000000060
 51
220.005200884860160
  0
ARC
  8
0
  6
CONTINUOUS
 62
256
 10
-242.943535776685170
 20
-165.165032616937080
 40
1.000000000000000
 50
0.000000000000000
 51
90.000000000000000
  0
LINE
  8
0
  6
CONTINUOUS
 62
256
 10
-338.943535776685170
 20
-165.165032616937080
 11
-362.943535776685170
 21
-165.165032616937080
  0
LINE
  8
0
  6
CONTINUOUS
 62
256
 10
-241.943535776685170
 20
-165.165032616937080
 11
-217.943535776685170
 21
-165.165032616937080
  0
LINE
  8
0
  6
DASHDOT
 62
256
 10
-290.443535776685170
 20
-175.490542804179000
 11
-290.443535776685170
 21
-158.965032616937040
  0
ARC
  8
0
  6
CONTINUOUS
 62
256
 10
-245.943535776685170
 20
-163.165032616937080
 40
1.000000000000000
 50
180.000000000000000
 51
270.000000000000000
  0
ARC
  8
0
  6
CONTINUOUS
 62
256
 10
-337.943535776685170
 20
-165.165032616937080
 40
1.000000000000000
 50
90.000000000000000
 51
180.000000000000000
  0
ARC
  8
0
  6
CONTINUOUS
 62
256
 10
-334.943535776685170
 20
-163.165032616937080
 40
1.000000000000000
 50
270.000000000000000
 51
0.000000000000000
  0
ARC
  8
0
  6
CONTINUOUS
 62
256
 10
-250.943535776685170
 20
-162.165032616937080
 40
2.000000000000000
 50
270.000000000000000
 51
0.000000000000000
  0
ARC
  8
0
  6
CONTINUOUS
 62
256
 10
-329.943535776685170
 20
-162.165032616937080
 40
2.000000000000000
 50
180.000000000000000
 51
270.000000000000000
  0
LINE
  8
0
  6
DASHDOT
 62
256
 10
-352.943535776685170
 20
-169.462426949822800
 11
-352.943535776685170
 21
-146.201792242606300
  0
LINE
  8
0
  6
CONTINUOUS
 62
256
 10
-260.305438424067010
 20
-164.165032616937080
 11
-242.943535776685170
 21
-164.165032616937080
  0
LINE
  8
0
  6
CONTINUOUS
 62
256
 10
-290.443535776685170
 20
-163.165032616937080
 11
-261.005713603176220
 21
-163.165032616937080
  0
ARC
  8
0
  6
CONTINUOUS
 62
256
 10
-325.943535776685170
 20
-159.665032616937080
 40
7.000000000000027
 50
319.994799115139980
 51
329.999999999999940
  0
LINE
  8
0
  6
CONTINUOUS
 62
256
 10
-290.443535776685170
 20
-163.165032616937080
 11
-319.881357950194110
 21
-163.165032616937080
  0
LINE
  8
0
  6
CONTINUOUS
 62
256
 10
-320.581633129303330
 20
-164.165032616937080
 11
-337.943535776685170
 21
-164.165032616937080
  0
LINE
  8
0
  6
CONTINUOUS
 62
256
 10
-362.943535776685170
 20
-165.165032616937080
 11
-362.943535776685170
 21
-152.665032616937080
  0
ARC
  8
0
  6
CONTINUOUS
 62
256
 10
-361.943535776685170
 20
-148.422391929817880
 40
1.999999999999821
 50
289.471220634487910
 51
0.000000000000000
  0
ARC
  8
0
  6
CONTINUOUS
 62
256
 10
-360.443535776685170
 20
-152.665032616937080
 40
2.500000000000000
 50
90.000000000000000
 51
180.000000000000000
  0
LINE
  8
0
  6
DASHDOT
 62
256
 10
-227.943535776685170
 20
-169.462426949822800
 11
-227.943535776685170
 21
-146.201792242606300
  0
ARC
  8
0
  6
CONTINUOUS
 62
256
 10
-220.443535776685170
 20
-152.665032616937080
 40
2.500000000000000
 50
0.000000000000000
 51
90.000000000000000
  0
ARC
  8
0
  6
CONTINUOUS
 62
256
 10
-218.943535776685170
 20
-148.422391929817880
 40
2.000000000000000
 50
180.000000000000000
 51
250.528779365506010
  0
ARC
  8
0
  6
CONTINUOUS
 62
256
 10
-223.943535776685170
 20
-138.165032616937200
 40
3.000000000000000
 50
0.000000000000000
 51
90.000000000000000
  0
LINE
  8
0
  6
CONTINUOUS
 62
256
 10
-227.075950625795940
 20
-135.165032616937080
 11
-223.943535776685170
 21
-135.165032616937080
  0
ARC
  8
0
  6
CONTINUOUS
 62
256
 10
-356.943535776685170
 20
-138.165032616937200
 40
3.000000000000114
 50
90.000000000000000
 51
180.000000000000000
  0
LINE
  8
0
  6
CONTINUOUS
 62
256
 10
-353.811120927574390
 20
-135.165032616937080
 11
-356.943535776685170
 21
-135.165032616937080
  0
LINE
  8
0
  6
CONTINUOUS
 62
256
 10
-217.943535776685170
 20
-165.165032616937080
 11
-217.943535776685170
 21
-152.665032616937080
  0
ARC
  8
0
  6
CONTINUOUS
 62
256
 10
-261.193535776685170
 20
-162.165032616937200
 40
1.000000000000000
 50
270.000000000000000
 51
0.000000000000000
  0
ARC
  8
0
  6
CONTINUOUS
 62
256
 10
-319.693535776685170
 20
-162.165032616937080
 40
1.000000000000000
 50
180.000000000000000
 51
270.000000000000000
  0
ARC
  8
0
  6
CONTINUOUS
 62
256
 10
-290.443535776685390
 20
-837.665032616937080
 40
799.999999999999890
 50
88.510141843146044
 51
90.000000000000000
  0
ARC
  8
0
  6
CONTINUOUS
 62
256
 10
-263.693535776685170
 20
-39.457895535473426
 40
1.000000000000000
 50
0.000000000000000
 51
81.491323261727445
  0
ARC
  8
0
  6
CONTINUOUS
 62
256
 10
-251.193535776685170
 20
-43.075097686293475
 40
1.000000000000052
 50
66.230309577334467
 51
180.000000000000000
  0
ARC
  8
0
  6
CONTINUOUS
 62
256
 10
-317.193535776685170
 20
-39.457895535473426
 40
1.000000000000061
 50
98.508676738272086
 51
180.000000000000000
  0
ARC
  8
0
  6
CONTINUOUS
 62
256
 10
-329.693535776685170
 20
-43.075097686293475
 40
1.000000000000000
 50
0.000000000000000
 51
113.769690422666680
  0
ARC
  8
0
  6
CONTINUOUS
 62
256
 10
-250.943535776685170
 20
-162.165032616937080
 40
2.000000000000000
 50
270.000000000000000
 51
0.000000000000000
  0
ARC
  8
0
  6
CONTINUOUS
 62
256
 10
-329.943535776685170
 20
-162.165032616937080
 40
2.000000000000000
 50
180.000000000000000
 51
270.000000000000000
  0
ARC
  8
0
  6
CONTINUOUS
 62
256
 10
-290.443535776684940
 20
-837.665032616937080
 40
800.000000000000000
 50
90.000000000000000
 51
91.489858156853956
  0
ARC
  8
0
  6
CONTINUOUS
 62
256
 10
-325.943535776685170
 20
-159.165032616937080
 40
6.999999999999971
 50
314.415308597192730
 51
325.150095420953510
  0
ARC
  8
0
  6
CONTINUOUS
 62
256
 10
-254.943535776685170
 20
-159.165032616937080
 40
7.000000000000012
 50
214.849904579046410
 51
225.584691402807100
  0
LINE
  8
0
  6
CONTINUOUS
 62
256
 10
-290.443535776685170
 20
-163.165032616937080
 11
-320.198973130147120
 21
-163.165032616937080
  0
LINE
  8
0
  6
CONTINUOUS
 62
256
 10
-290.443535776685170
 20
-163.165032616937080
 11
-260.688098423223210
 21
-163.165032616937080
  0
LINE
  8
0
  6
CONTINUOUS
 62
256
 10
-321.044556291118850
 20
-164.165032616937080
 11
-329.943535776685170
 21
-164.165032616937080
  0
LINE
  8
0
  6
CONTINUOUS
 62
256
 10
-259.842515262251480
 20
-164.165032616937080
 11
-250.943535776685170
 21
-164.165032616937080
  0
LINE
  8
0
  6
CONTINUOUS
 62
256
 10
-252.943536966463630
 20
-160.819731927674410
 11
-254.943537720576610
 21
-161.974430142145250
  0
LINE
  8
0
  6
CONTINUOUS
 62
256
 10
-327.943534586906820
 20
-160.819731927674410
 11
-325.943533832793830
 21
-161.974430142145250
  0
INSERT
  8
0
  2
ZU_SYM_3
 10
-377.888357983028530
 20
-144.083989228197540
 50
357.137594773886350
  0
TEXT
  8
0
  6
CONTINUOUS
 62
256
 10
-322.572113037109380
 20
67.339614868164062
 40
7.919999599456787
  1
rb`kdP^P
 50
0.000002504478167
 41
0.984848598876354
  7
STANDARD1
  0
TEXT
  8
0
  6
CONTINUOUS
 62
256
 10
-322.572113037109380
 20
80.059616088867188
 40
7.919999599456787
  1
P^R`P^RO
 50
0.000002504478167
 41
0.984848598876354
  7
STANDARD1
  0
TEXT
  8
0
  6
CONTINUOUS
 62
256
 10
-322.572113037109380
 20
92.779617309570313
 40
7.919999599456787
  1
ODSv
 50
0.000002504478167
 41
0.984848598876354
  7
STANDARD1
  0
TEXT
  8
0
  6
CONTINUOUS
 62
256
 10
-322.572113037109380
 20
105.499618530273440
 40
7.919999599456787
  1
fl|rr
 50
0.000002504478167
 41
0.984848598876354
  7
STANDARD1
  0
TEXT
  8
0
  6
CONTINUOUS
 62
256
 10
-322.572113037109380
 20
118.219619750976560
 40
7.919999599456787
  1
OHM[h[g
 50
0.000002504478167
 41
0.984848598876354
  7
STANDARD1
  0
TEXT
  8
0
  6
CONTINUOUS
 62
256
 10
-322.572113037109380
 20
130.939620971679690
 40
7.919999599456787
  1
rOSU
 50
0.000002504478167
 41
0.984848598876354
  7
STANDARD1
  0
ARC
  8
0
  6
CONTINUOUS
 62
256
 10
-241.016771636875630
 20
-53.738268477127541
 40
6.099999427795398
 50
354.601910595264830
 51
95.398072101890989
  0
POINT
  8
0
  6
CONTINUOUS
 62
256
 10
-238.754030071948590
 20
-51.475526912200507
  0
LINE
  8
0
  6
CONTINUOUS
 62
256
 10
-235.430628335241720
 20
-54.798928648907363
 11
-242.077431808655460
 21
-48.152125175493651
  0
LINE
  8
0
  6
CONTINUOUS
 62
256
 10
-235.117489726272960
 20
-54.546381698056997
 11
-241.794589028745860
 21
-47.869282395584072
  0
LINE
  8
0
  6
CONTINUOUS
 62
256
 10
-242.077431808655460
 20
-48.152125175493651
 11
-241.590628416949840
 21
-47.665321783788031
  0
LINE
  8
0
  6
CONTINUOUS
 62
256
 10
-235.430628335241720
 20
-54.798928648907363
 11
-234.943824943536130
 21
-54.312125257201743
  0
ARC
  8
0
  6
CONTINUOUS
 62
256
 10
-339.870299916494730
 20
-53.738268477127541
 40
6.099999427795406
 50
84.601927898108485
 51
185.398089404735230
  0
POINT
  8
0
  6
CONTINUOUS
 62
256
 10
-342.133041481421740
 20
-51.475526912200507
  0
LINE
  8
0
  6
CONTINUOUS
 62
256
 10
-345.456443218128580
 20
-54.798928648907363
 11
-338.809639744714900
 21
-48.152125175493651
  0
LINE
  8
0
  6
CONTINUOUS
 62
256
 10
-345.769581827097400
 20
-54.546381698056997
 11
-339.092482524624470
 21
-47.869282395584072
  0
LINE
  8
0
  6
CONTINUOUS
 62
256
 10
-338.809639744714900
 20
-48.152125175493651
 11
-339.296443136420520
 21
-47.665321783788031
  0
LINE
  8
0
  6
CONTINUOUS
 62
256
 10
-345.456443218128580
 20
-54.798928648907363
 11
-345.943246609834200
 21
-54.312125257201743
  0
ARC
  8
0
  6
CONTINUOUS
 62
256
 10
-339.870299916494730
 20
-152.591796756746850
 40
6.099999427795398
 50
174.601910595264910
 51
275.398072101891500
  0
POINT
  8
0
  6
CONTINUOUS
 62
256
 10
-342.133041481421740
 20
-154.854538321673890
  0
LINE
  8
0
  6
CONTINUOUS
 62
256
 10
-345.456443218128580
 20
-151.531136584967020
 11
-338.809639744714900
 21
-158.177940058380760
  0
LINE
  8
0
  6
CONTINUOUS
 62
256
 10
-345.769581827097400
 20
-151.783683535817400
 11
-339.092482524624470
 21
-158.460782838290330
  0
LINE
  8
0
  6
CONTINUOUS
 62
256
 10
-338.809639744714900
 20
-158.177940058380760
 11
-339.296443136420520
 21
-158.664743450086350
  0
LINE
  8
0
  6
CONTINUOUS
 62
256
 10
-345.456443218128580
 20
-151.531136584967020
 11
-345.943246609834200
 21
-152.017939976672640
  0
ARC
  8
0
  6
CONTINUOUS
 62
256
 10
-241.016771636875630
 20
-152.591796756746850
 40
6.099999427795400
 50
264.601927898109010
 51
5.398089404735109
  0
POINT
  8
0
  6
CONTINUOUS
 62
256
 10
-238.754030071948590
 20
-154.854538321673890
  0
LINE
  8
0
  6
CONTINUOUS
 62
256
 10
-235.430628335241720
 20
-151.531136584967020
 11
-242.077431808655460
 21
-158.177940058380760
  0
LINE
  8
0
  6
CONTINUOUS
 62
256
 10
-235.117489726272960
 20
-151.783683535817400
 11
-241.794589028745860
 21
-158.460782838290330
  0
LINE
  8
0
  6
CONTINUOUS
 62
256
 10
-242.077431808655460
 20
-158.177940058380760
 11
-241.590628416949840
 21
-158.664743450086350
  0
LINE
  8
0
  6
CONTINUOUS
 62
256
 10
-235.430628335241720
 20
-151.531136584967020
 11
-234.943824943536130
 21
-152.017939976672640
  0
ENDSEC
  0
EOF
