  0
SECTION
  2
HEADER
  9
$TEXTSIZE
 40
2.5
  9
$ACADVER
  1
AC1009
  9
$DIMASZ
 40
3.863703297614046
  9
$DIMEXE
 40
2.000000000000000
  9
$DIMEXO
 40
1.000000000000000
  9
$DIMLFAC
 40
1.000000000000000
  9
$DIMSCALE
 40
1.000000000000000
  9
$DIMTAD
 70
1
  9
$DIMTFAC
 40
0.625000000000000
  9
$DIMTXT
 40
3.200000047683716
  9
$LUPREC
 70
3
  9
$REGENMODE
 70
1
  9
$TEXTSTYLE
  7
STANDARD1
  0
ENDSEC
  0
SECTION
  2
TABLES
  0
TABLE
  2
LTYPE
 70
4
  0
LTYPE
  2
CONTINUOUS
 70
64
  3
Solid line
 72
65
 73
0
 40
0.0
  0
LTYPE
  2
DASHED
 70
64
  3
-- -- -- -- -- -- -- -- -- -- -- -- -- -- --
 72
65
 73
2
 40
0.75
 49
0.5
 49
-0.25
  0
LTYPE
  2
DASHDOT
 70
64
  3
__ . __ . __ . __ . __ . __ . __ . __ . __ . __
 72
65
 73
4
 40
1.0
 49
0.5
 49
-0.25
 49
0.0
 49
-0.25
  0
LTYPE
  2
DIVIDE
 70
64
  3
__ . . __ . . __ . . __ . . __ . . __ . . __
 72
65
 73
6
 40
1.25
 49
0.5
 49
-0.25
 49
0.0
 49
-0.25
 49
0.0
 49
-0.25
  0
ENDTAB
  0
TABLE
  2
LAYER
 70
1
  0
LAYER
  2
0
 70
64
 62
2
  6
CONTINUOUS
  0
ENDTAB
  0
TABLE
  2
STYLE
 70
4
  0
STYLE
  2
STANDARD1
 70
64
 40
0.0
 41
1.0
 50
0.0
 71
0
 42
3.200000047683716
  3
MONOTXT
  4
BIGFONT
  0
STYLE
  2
STANDARD2
 70
68
 40
0.0
 41
1.0
 50
0.0
 71
0
 42
3.200000047683716
  3
MONOTXT
  4
BIGFONT
  0
STYLE
  2
STANDARD3
 70
64
 40
0.0
 41
1.0
 50
0.0
 71
0
 42
3.200000047683716
  3
MONOTXT
  4

  0
STYLE
  2
STANDARD4
 70
68
 40
0.0
 41
1.0
 50
0.0
 71
0
 42
3.200000047683716
  3
MONOTXT
  4

  0
ENDTAB
  0
TABLE
  2
VIEW
 70
0
  0
ENDTAB
  0
ENDSEC
  0
SECTION
  2
BLOCKS
  0
BLOCK
  8
0
  2
ZU_SYM_1
 70
64
 10
0.000000000000000
 20
0.000000000000000
  0
LINE
  8
0
  6
CONTINUOUS
 62
256
 10
0.000000000000000
 20
-4.249999046325684
 11
-5.000000000000000
 21
-4.249999046325684
  0
LINE
  8
0
  6
CONTINUOUS
 62
256
 10
0.000000000000000
 20
4.249999046325684
 11
-5.000000000000000
 21
4.249999046325684
  0
LINE
  8
0
  6
CONTINUOUS
 62
256
 10
-5.000000000000000
 20
-4.249999046325684
 11
-5.000000000000000
 21
4.249999046325684
  0
LINE
  8
0
  6
CONTINUOUS
 62
256
 10
0.000000000000000
 20
-4.249999046325684
 11
0.000000000000000
 21
4.249999046325684
  0
POINT
  8
0
  6
CONTINUOUS
 62
256
 10
0.000000000000000
 20
0.000000000000000
  0
ENDBLK
  8
0
  0
ENDSEC
  0
SECTION
  2
ENTITIES
  0
LINE
  8
0
  6
CONTINUOUS
 62
256
 10
57.811951784113830
 20
-92.286093360070481
 11
57.811951784113830
 21
-39.786093360070481
  0
LINE
  8
0
  6
CONTINUOUS
 62
256
 10
84.811951784125881
 20
-35.303553744815872
 11
97.811951784124517
 21
-35.757523748208769
  0
LINE
  8
0
  6
CONTINUOUS
 62
256
 10
84.811951784125881
 20
-35.303553744815872
 11
84.811951784125881
 21
-77.286093360070481
  0
LINE
  8
0
  6
CONTINUOUS
 62
256
 10
84.811951784125881
 20
-129.380633125141690
 11
84.811951784125881
 21
-77.286093360070481
  0
ARC
  8
0
  6
CONTINUOUS
 62
256
 10
135.811951784125880
 20
-134.580558857691360
 40
1.000000000000000
 50
180.000000000000000
 51
244.623066474844900
  0
ARC
  8
0
  6
CONTINUOUS
 62
256
 10
134.311951784125880
 20
-137.742836517859360
 40
2.500000000000000
 50
0.000000000000000
 51
89.000000000003439
  0
LINE
  8
0
  6
CONTINUOUS
 62
256
 10
134.811951784125880
 20
-134.580558857691360
 11
134.811951784125880
 21
-77.286093360070481
  0
LINE
  8
0
  6
CONTINUOUS
 62
256
 10
136.811951784125880
 20
-137.742836517859360
 11
136.811951784125880
 21
-146.786093360070480
  0
LINE
  8
0
  6
CONTINUOUS
 62
256
 10
134.355582800218940
 20
-135.243217279969030
 11
86.811951784125881
 21
-134.413340113659610
  0
LINE
  8
0
  6
DASHDOT
 62
256
 10
126.811951784125880
 20
-149.243941257666850
 11
126.811951784125880
 21
-134.009629894129830
  0
ARC
  8
0
  6
CONTINUOUS
 62
256
 10
78.932732003327033
 20
-132.641714449383470
 40
1.999999999999826
 50
271.666365925982290
 51
316.322680344548870
  0
ARC
  8
0
  6
CONTINUOUS
 62
256
 10
84.811951784125881
 20
-126.484584640142200
 40
2.000000000000529
 50
316.322680344538920
 51
0.000000000000000
  0
ARC
  8
0
  6
CONTINUOUS
 62
256
 10
59.311951784125881
 20
-137.714421613334710
 40
2.499999999999789
 50
91.666365925987520
 51
180.000000000000000
  0
ARC
  8
0
  6
CONTINUOUS
 62
256
 10
96.066976948999013
 20
-85.727065099164065
 40
50.000000000000121
 50
40.046696754629615
 51
87.999999999999503
  0
ARC
  8
0
  6
CONTINUOUS
 62
256
 10
132.811951784124520
 20
-54.843301980560682
 40
2.000000000000000
 50
0.000000000000000
 51
40.046696754630069
  0
ARC
  8
0
  6
CONTINUOUS
 62
256
 10
135.811951784125880
 20
-58.286093360070481
 40
1.000000000000000
 50
0.000000000000000
 51
90.000000000000000
  0
ARC
  8
0
  6
CONTINUOUS
 62
256
 10
135.811951784125880
 20
-56.286093360070481
 40
1.000000000000000
 50
180.000000000000000
 51
270.000000000000000
  0
ARC
  8
0
  6
CONTINUOUS
 62
256
 10
135.811951784125880
 20
-96.286093360070481
 40
1.000000000000000
 50
270.000000000000000
 51
0.000000000000000
  0
ARC
  8
0
  6
CONTINUOUS
 62
256
 10
135.811951784125880
 20
-98.286093360070481
 40
1.000000000000000
 50
90.000000000000000
 51
180.000000000000000
  0
ARC
  8
0
  6
CONTINUOUS
 62
256
 10
84.811951784125881
 20
-114.720075881458800
 40
2.000000000000000
 50
0.000000000000000
 51
88.499999999997286
  0
ARC
  8
0
  6
CONTINUOUS
 62
256
 10
118.866688016803760
 20
-132.972552959769930
 40
2.000000000000000
 50
180.000000000000000
 51
268.999999999998240
  0
LINE
  8
0
  6
CONTINUOUS
 62
256
 10
80.379213148874783
 20
-134.022906794994010
 11
86.258432929674086
 21
-127.865776985753660
  0
LINE
  8
0
  6
CONTINUOUS
 62
256
 10
86.811951784126791
 20
-134.413340113659610
 11
59.239253104005343
 21
-135.215478856505800
  0
LINE
  8
0
  6
CONTINUOUS
 62
256
 10
134.811951784125880
 20
-54.843301980560682
 11
134.811951784125880
 21
-77.286093360070481
  0
LINE
  8
0
  6
CONTINUOUS
 62
256
 10
56.811951784125881
 20
-146.786093360070480
 11
56.811951784125881
 21
-137.764371386558200
  0
LINE
  8
0
  6
CONTINUOUS
 62
256
 10
136.811951784125880
 20
-77.286093360070481
 11
136.811951784125880
 21
-96.286093360070481
  0
LINE
  8
0
  6
CONTINUOUS
 62
256
 10
136.811951784125880
 20
-77.286093360070481
 11
136.811951784125880
 21
-58.286093360070481
  0
LINE
  8
0
  6
CONTINUOUS
 62
256
 10
134.811951784125880
 20
-147.286093360070480
 11
58.811951784125881
 21
-147.286093360070480
  0
LINE
  8
0
  6
DASHDOT
 62
256
 10
66.811951784125881
 20
-149.243941257666850
 11
66.811951784125881
 21
-132.208659844275640
  0
LINE
  8
0
  6
CONTINUOUS
 62
256
 10
86.811951784125881
 20
-126.484584640142200
 11
86.811951784125881
 21
-114.720075881458800
  0
LINE
  8
0
  6
CONTINUOUS
 62
256
 10
134.811951784125880
 20
-147.286093360070480
 11
134.811951784125880
 21
-146.786093360070480
  0
LINE
  8
0
  6
CONTINUOUS
 62
256
 10
134.811951784125880
 20
-146.786093360070480
 11
136.811951784125880
 21
-146.786093360070480
  0
LINE
  8
0
  6
CONTINUOUS
 62
256
 10
56.811951784125881
 20
-146.786093360070480
 11
58.811951784125881
 21
-146.786093360070480
  0
LINE
  8
0
  6
CONTINUOUS
 62
256
 10
58.811951784125881
 20
-147.286093360070480
 11
58.811951784125881
 21
-146.786093360070480
  0
ARC
  8
0
  6
CONTINUOUS
 62
256
 10
134.466688016804140
 20
-133.244851972650390
 40
2.000000000000000
 50
180.000000000000000
 51
268.999999999998240
  0
LINE
  8
0
  6
CONTINUOUS
 62
256
 10
132.466688016804140
 20
-133.244851972650390
 11
132.466688016804140
 21
-77.813691932226902
  0
LINE
  8
0
  6
CONTINUOUS
 62
256
 10
116.866688016803760
 20
-132.972552959769930
 11
116.866688016803760
 21
-77.813691316070617
  0
LINE
  8
0
  6
CONTINUOUS
 62
256
 10
116.999497778329750
 20
-75.307531799533876
 11
116.866688016803930
 21
-77.813692548384097
  0
LINE
  8
0
  6
CONTINUOUS
 62
256
 10
117.393404515133450
 20
-72.886715330642247
 11
116.999497778329750
 21
-75.307531799533876
  0
LINE
  8
0
  6
CONTINUOUS
 62
256
 10
118.034994205347570
 20
-70.633681145472153
 11
117.393404515133450
 21
-72.886715330642247
  0
LINE
  8
0
  6
CONTINUOUS
 62
256
 10
118.902418280947300
 20
-68.625153623183223
 11
118.034994205347570
 21
-70.633681145472153
  0
LINE
  8
0
  6
CONTINUOUS
 62
256
 10
119.966137654551470
 20
-66.929530761545280
 11
118.902418280947300
 21
-68.625153623183223
  0
LINE
  8
0
  6
CONTINUOUS
 62
256
 10
121.189928637643940
 20
-65.604554965091879
 11
119.966137654551470
 21
-66.929530761545280
  0
LINE
  8
0
  6
CONTINUOUS
 62
256
 10
122.532116494875840
 20
-64.695346696731889
 11
121.189928637643940
 21
-65.604554965091879
  0
LINE
  8
0
  6
CONTINUOUS
 62
256
 10
123.946994627235260
 20
-64.232867954457134
 11
122.532116494875840
 21
-64.695346696731889
  0
LINE
  8
0
  6
CONTINUOUS
 62
256
 10
125.386381055502210
 20
-64.232867897605331
 11
123.946994627235260
 21
-64.232867954457134
  0
LINE
  8
0
  6
CONTINUOUS
 62
256
 10
126.801259199810100
 20
-64.695346528112466
 11
125.386381055502210
 21
-64.232867897605331
  0
LINE
  8
0
  6
CONTINUOUS
 62
256
 10
128.143447080532040
 20
-65.604554690446975
 11
126.801259199810100
 21
-64.695346528112466
  0
LINE
  8
0
  6
CONTINUOUS
 62
256
 10
129.367238097856220
 20
-66.929530390227612
 11
128.143447080532040
 21
-65.604554690446975
  0
LINE
  8
0
  6
CONTINUOUS
 62
256
 10
130.430957515268030
 20
-68.625153167837553
 11
129.367238097856220
 21
-66.929530390227612
  0
LINE
  8
0
  6
CONTINUOUS
 62
256
 10
131.298381642759520
 20
-70.633680621604739
 11
130.430957515268030
 21
-68.625153167837553
  0
LINE
  8
0
  6
CONTINUOUS
 62
256
 10
131.939971391182410
 20
-72.886714756092758
 11
131.298381642759520
 21
-70.633680621604739
  0
LINE
  8
0
  6
CONTINUOUS
 62
256
 10
132.333878190529670
 20
-75.307531193867916
 11
131.939971391182410
 21
-72.886714756092758
  0
LINE
  8
0
  6
CONTINUOUS
 62
256
 10
132.466688016803970
 20
-77.813691932226902
 11
132.333878190529670
 21
-75.307531193867916
  0
LINE
  8
0
  6
CONTINUOUS
 62
256
 10
77.311951784125881
 20
-87.535718640296182
 11
77.311951784125881
 21
-134.689711975023780
  0
LINE
  8
0
  6
DASHDOT
 62
256
 10
174.959228015917120
 20
-77.286093360070481
 11
107.693950476966510
 21
-77.286093360070481
  0
ARC
  8
0
  6
CONTINUOUS
 62
256
 10
79.811951784125881
 20
-35.873071082633032
 40
0.499999999999321
 50
90.999999999977078
 51
180.000000000000000
  0
LINE
  8
0
  6
CONTINUOUS
 62
256
 10
79.311951784125881
 20
-35.873071082633032
 11
79.311951784125881
 21
-40.279475075039954
  0
LINE
  8
0
  6
CONTINUOUS
 62
256
 10
84.311951784125881
 20
-35.294447126434534
 11
84.311951784125881
 21
-129.904268066410620
  0
LINE
  8
0
  6
CONTINUOUS
 62
256
 10
78.311951784125881
 20
-40.679475075039591
 11
78.911951784125790
 21
-40.679475075039591
  0
ARC
  8
0
  6
CONTINUOUS
 62
256
 10
78.911951784125790
 20
-40.279475075039954
 40
0.399999999999636
 50
270.000000000000000
 51
0.000000000000000
  0
ARC
  8
0
  6
CONTINUOUS
 62
256
 10
78.311951784125881
 20
-41.679475075039591
 40
1.000000000000000
 50
90.000000000000000
 51
180.000000000000000
  0
LINE
  8
0
  6
CONTINUOUS
 62
256
 10
58.811951784114058
 20
-41.786093360070481
 11
58.811951784114058
 21
-135.264931870554390
  0
LINE
  8
0
  6
CONTINUOUS
 62
256
 10
77.311951784125881
 20
-41.679475075039591
 11
77.311951784125881
 21
-79.035720547644814
  0
LINE
  8
0
  6
CONTINUOUS
 62
256
 10
163.811951784102230
 20
-77.286093360070481
 11
163.811951784102230
 21
-69.686093360070117
  0
LINE
  8
0
  6
CONTINUOUS
 62
256
 10
79.311951784125881
 20
-78.436093360070117
 11
79.311951784125881
 21
-88.136093360070845
  0
LINE
  8
0
  6
CONTINUOUS
 62
256
 10
78.311951784125881
 20
-88.536093360070481
 11
78.911951784125790
 21
-88.536093360070481
  0
ARC
  8
0
  6
CONTINUOUS
 62
256
 10
78.911951784125790
 20
-88.136093360070845
 40
0.399999999999636
 50
270.000000000000000
 51
0.000000000000000
  0
ARC
  8
0
  6
CONTINUOUS
 62
256
 10
78.311951784125881
 20
-89.536093360070481
 40
1.000000000000000
 50
90.000000000000000
 51
180.000000000000000
  0
LINE
  8
0
  6
CONTINUOUS
 62
256
 10
78.311951784125881
 20
-78.036093360070481
 11
78.911951784125790
 21
-78.036093360070481
  0
ARC
  8
0
  6
CONTINUOUS
 62
256
 10
78.911951784125790
 20
-78.436093360070117
 40
0.400000000000091
 50
0.000000000000000
 51
90.000000000000000
  0
ARC
  8
0
  6
CONTINUOUS
 62
256
 10
78.311951784125881
 20
-77.036093360070481
 40
1.000000000000000
 50
180.000000000000000
 51
270.000000000000000
  0
LINE
  8
0
  6
CONTINUOUS
 62
256
 10
74.811951784125881
 20
-76.286093360070481
 11
76.811951784125881
 21
-76.286093360070481
  0
LINE
  8
0
  6
CONTINUOUS
 62
256
 10
74.311951784125881
 20
-75.786093360070481
 11
74.311951784125881
 21
-71.286093360070481
  0
LINE
  8
0
  6
CONTINUOUS
 62
256
 10
74.811951784125881
 20
-66.286093360070481
 11
76.811951784125881
 21
-66.286093360070481
  0
LINE
  8
0
  6
CONTINUOUS
 62
256
 10
74.311951784125881
 20
-66.786093360070481
 11
74.311951784125881
 21
-71.286093360070481
  0
ARC
  8
0
  6
CONTINUOUS
 62
256
 10
74.811951784125881
 20
-75.786093360070481
 40
0.500000000000000
 50
180.000000000000000
 51
270.000000000000000
  0
ARC
  8
0
  6
CONTINUOUS
 62
256
 10
76.811951784125881
 20
-76.786093360070481
 40
0.500000000000000
 50
0.000000000000000
 51
90.000000000000000
  0
ARC
  8
0
  6
CONTINUOUS
 62
256
 10
76.811951784125881
 20
-65.786093360070481
 40
0.500000000000000
 50
270.000000000000000
 51
0.000000000000000
  0
ARC
  8
0
  6
CONTINUOUS
 62
256
 10
74.811951784125881
 20
-66.786093360070481
 40
0.500000000000000
 50
90.000000000000000
 51
180.000000000000000
  0
LINE
  8
0
  6
CONTINUOUS
 62
256
 10
57.811951784114058
 20
-39.786093360070481
 11
57.811951784113603
 21
-135.714421613344710
  0
ARC
  8
0
  6
CONTINUOUS
 62
256
 10
59.311951784114058
 20
-41.786093360070481
 40
0.500000000000000
 50
90.000000000000000
 51
180.000000000000000
  0
LINE
  8
0
  6
CONTINUOUS
 62
256
 10
59.259687552480386
 20
-41.288832412386000
 11
74.311952547065346
 21
-40.499976630840251
  0
LINE
  8
0
  6
CONTINUOUS
 62
256
 10
77.311951784125881
 20
-35.907981212489176
 11
77.311951784125881
 21
-39.036094313744798
  0
LINE
  8
0
  6
CONTINUOUS
 62
256
 10
74.311952547065346
 20
-39.340932673415239
 11
57.811951784114058
 21
-39.773000399285593
  0
LINE
  8
0
  6
CONTINUOUS
 62
256
 10
77.803225580907451
 20
-35.408057364911656
 11
84.311951784125881
 21
-35.294447126434534
  0
ARC
  8
0
  6
CONTINUOUS
 62
256
 10
76.311951784125881
 20
-38.288218057764425
 40
1.000000000000499
 50
311.593253995556780
 51
0.000000000000000
  0
ARC
  8
0
  6
CONTINUOUS
 62
256
 10
77.811951784125881
 20
-35.907981212489176
 40
0.499999999999321
 50
90.999999999977078
 51
180.000000000000000
  0
LINE
  8
0
  6
CONTINUOUS
 62
256
 10
163.811951784102230
 20
-77.286093360070481
 11
163.811951784102230
 21
-84.886093360070845
  0
LINE
  8
0
  6
CONTINUOUS
 62
256
 10
138.811951784102230
 20
-77.286093360070481
 11
138.811951784102230
 21
-85.486100798731968
  0
LINE
  8
0
  6
CONTINUOUS
 62
256
 10
163.411951784102140
 20
-85.286093360070481
 11
141.931567026372590
 21
-85.286093360070481
  0
ARC
  8
0
  6
CONTINUOUS
 62
256
 10
163.411951784102140
 20
-84.886093360070845
 40
0.399999999999636
 50
270.000000000000000
 51
0.000000000000000
  0
LINE
  8
0
  6
CONTINUOUS
 62
256
 10
141.371759405237190
 20
-85.136093360070845
 11
139.211951784101870
 21
-85.136093360070845
  0
LINE
  8
0
  6
CONTINUOUS
 62
256
 10
141.371759405237190
 20
-85.136093360070845
 11
141.931567026372590
 21
-85.286093360070481
  0
ARC
  8
0
  6
CONTINUOUS
 62
256
 10
139.211951784101870
 20
-85.536093360070481
 40
0.399999999999636
 50
90.000000000000000
 51
172.299196497413900
  0
LINE
  8
0
  6
CONTINUOUS
 62
256
 10
138.511951784102050
 20
-85.786100798731241
 11
138.815559255851330
 21
-85.482493326981967
  0
LINE
  8
0
  6
CONTINUOUS
 62
256
 10
136.811951784125880
 20
-85.786100798731241
 11
138.511951784102050
 21
-85.786100798731241
  0
LINE
  8
0
  6
CONTINUOUS
 62
256
 10
138.811951784102230
 20
-77.286093360070481
 11
138.811951784102230
 21
-69.086085921408994
  0
LINE
  8
0
  6
CONTINUOUS
 62
256
 10
163.411951784102140
 20
-69.286093360070481
 11
141.931567026372590
 21
-69.286093360070481
  0
LINE
  8
0
  6
CONTINUOUS
 62
256
 10
136.811951784125880
 20
-68.786085921408812
 11
138.511951784102050
 21
-68.786085921408812
  0
ARC
  8
0
  6
CONTINUOUS
 62
256
 10
163.411951784102140
 20
-69.686093360070117
 40
0.400000000000091
 50
0.000000000000000
 51
90.000000000000000
  0
LINE
  8
0
  6
CONTINUOUS
 62
256
 10
141.371759405237190
 20
-69.436093360070117
 11
139.211951784101870
 21
-69.436093360070117
  0
LINE
  8
0
  6
CONTINUOUS
 62
256
 10
141.371759405237190
 20
-69.436093360070117
 11
141.931567026372590
 21
-69.286093360070481
  0
ARC
  8
0
  6
CONTINUOUS
 62
256
 10
139.211951784101870
 20
-69.036093360070481
 40
0.399999999999814
 50
187.700803502457570
 51
270.000000000000000
  0
LINE
  8
0
  6
CONTINUOUS
 62
256
 10
138.511951784102050
 20
-68.786085921408812
 11
138.815559255851330
 21
-69.089693393158086
  0
ARC
  8
0
  6
CONTINUOUS
 62
256
 10
142.311951784102230
 20
-77.286093360070481
 40
2.500000000000000
 50
90.000000000000000
 51
270.000000000000000
  0
LINE
  8
0
  6
CONTINUOUS
 62
256
 10
163.811951784102230
 20
-74.786093360070481
 11
142.311951784102230
 21
-74.786093360070481
  0
LINE
  8
0
  6
CONTINUOUS
 62
256
 10
163.811951784102230
 20
-79.786093360070481
 11
142.311951784102230
 21
-79.786093360070481
  0
LINE
  8
0
  6
CONTINUOUS
 62
256
 10
57.811951784113830
 20
-92.286093360070481
 11
57.811951784113830
 21
-39.786093360070481
  0
LINE
  8
0
  6
CONTINUOUS
 62
256
 10
-62.688048215907315
 20
-146.286093360070710
 11
-140.192893165000100
 21
-146.286093360070710
  0
LINE
  8
0
  6
CONTINUOUS
 62
256
 10
-62.688048215907315
 20
-146.286093360070710
 11
-62.688048215907315
 21
-133.286093360070480
  0
LINE
  8
0
  6
CONTINUOUS
 62
256
 10
-62.688048215907315
 20
-38.286093360070254
 11
-62.688048215907315
 21
-51.286093360070481
  0
LINE
  8
0
  6
CONTINUOUS
 62
256
 10
-62.688048215907315
 20
-38.286093360070254
 11
-140.192893165000100
 21
-38.286093360070254
  0
LINE
  8
0
  6
CONTINUOUS
 62
256
 10
-73.688048215907315
 20
-141.430014382795660
 11
-75.688048215907315
 21
-139.777372743672230
  0
LINE
  8
0
  6
CONTINUOUS
 62
256
 10
-71.688048215907315
 20
-142.605799868418440
 11
-73.688048215907315
 21
-141.430014382795660
  0
LINE
  8
0
  6
CONTINUOUS
 62
256
 10
-73.688048215907315
 20
-141.430014382795660
 11
-71.688048215907315
 21
-139.777372743672230
  0
LINE
  8
0
  6
CONTINUOUS
 62
256
 10
-75.688048215907315
 20
-142.605799868418440
 11
-73.688048215907315
 21
-141.430014382795660
  0
LINE
  8
0
  6
CONTINUOUS
 62
256
 10
-69.078357398011917
 20
-140.316381280618490
 11
-68.988048215907099
 21
-139.613424314418130
  0
LINE
  8
0
  6
CONTINUOUS
 62
256
 10
-69.345814413104051
 20
-140.992324004830580
 11
-69.078357398011917
 21
-140.316381280618490
  0
LINE
  8
0
  6
CONTINUOUS
 62
256
 10
-69.780141038085134
 20
-141.615276387235980
 11
-69.345814413104051
 21
-140.992324004830580
  0
LINE
  8
0
  6
CONTINUOUS
 62
256
 10
-70.364646344330325
 20
-142.161298717134570
 11
-69.780141038085134
 21
-141.615276387235980
  0
LINE
  8
0
  6
CONTINUOUS
 62
256
 10
-71.076868120714963
 20
-142.609407662601200
 11
-70.364646344330325
 21
-142.161298717134570
  0
LINE
  8
0
  6
CONTINUOUS
 62
256
 10
-71.889436083791168
 20
-142.942382648163940
 11
-71.076868120714963
 21
-142.609407662601200
  0
LINE
  8
0
  6
CONTINUOUS
 62
256
 10
-72.771123702431282
 20
-143.147427631862200
 11
-71.889436083791168
 21
-142.942382648163940
  0
LINE
  8
0
  6
CONTINUOUS
 62
256
 10
-73.688048215907088
 20
-143.216662849962970
 11
-72.771123702431282
 21
-143.147427631862200
  0
LINE
  8
0
  6
CONTINUOUS
 62
256
 10
-74.604972729382894
 20
-143.147427631862200
 11
-73.688048215907088
 21
-143.216662849962970
  0
LINE
  8
0
  6
CONTINUOUS
 62
256
 10
-75.486660348023008
 20
-142.942382648163940
 11
-74.604972729382894
 21
-143.147427631862200
  0
LINE
  8
0
  6
CONTINUOUS
 62
256
 10
-76.299228311099213
 20
-142.609407662601200
 11
-75.486660348023008
 21
-142.942382648163940
  0
LINE
  8
0
  6
CONTINUOUS
 62
256
 10
-77.011450087483851
 20
-142.161298717134570
 11
-76.299228311099213
 21
-142.609407662601200
  0
LINE
  8
0
  6
CONTINUOUS
 62
256
 10
-77.595955393729042
 20
-141.615276387235980
 11
-77.011450087483851
 21
-142.161298717134570
  0
LINE
  8
0
  6
CONTINUOUS
 62
256
 10
-78.030282018710125
 20
-140.992324004830580
 11
-77.595955393729042
 21
-141.615276387235980
  0
LINE
  8
0
  6
CONTINUOUS
 62
256
 10
-78.297739033802259
 20
-140.316381280618490
 11
-78.030282018710125
 21
-140.992324004830580
  0
LINE
  8
0
  6
CONTINUOUS
 62
256
 10
-78.388048215907077
 20
-139.613424314418130
 11
-78.297739033802259
 21
-140.316381280618490
  0
LINE
  8
0
  6
CONTINUOUS
 62
256
 10
-78.297739033802259
 20
-138.910467348217760
 11
-78.388048215907077
 21
-139.613424314418130
  0
LINE
  8
0
  6
CONTINUOUS
 62
256
 10
-78.030282018710125
 20
-138.234524624005670
 11
-78.297739033802259
 21
-138.910467348217760
  0
LINE
  8
0
  6
CONTINUOUS
 62
256
 10
-77.595955393729042
 20
-137.611572241600270
 11
-78.030282018710125
 21
-138.234524624005670
  0
LINE
  8
0
  6
CONTINUOUS
 62
256
 10
-77.011450087483851
 20
-137.065549911701680
 11
-77.595955393729042
 21
-137.611572241600270
  0
LINE
  8
0
  6
CONTINUOUS
 62
256
 10
-76.299228311099213
 20
-136.617440966235050
 11
-77.011450087483851
 21
-137.065549911701680
  0
LINE
  8
0
  6
CONTINUOUS
 62
256
 10
-75.486660348023008
 20
-136.284465980672310
 11
-76.299228311099213
 21
-136.617440966235050
  0
LINE
  8
0
  6
CONTINUOUS
 62
256
 10
-74.604972729382894
 20
-136.079420996974050
 11
-75.486660348023008
 21
-136.284465980672310
  0
LINE
  8
0
  6
CONTINUOUS
 62
256
 10
-73.688048215907088
 20
-136.010185778873280
 11
-74.604972729382894
 21
-136.079420996974050
  0
LINE
  8
0
  6
CONTINUOUS
 62
256
 10
-72.771123702431282
 20
-136.079420996974050
 11
-73.688048215907088
 21
-136.010185778873280
  0
LINE
  8
0
  6
CONTINUOUS
 62
256
 10
-71.889436083791168
 20
-136.284465980672310
 11
-72.771123702431282
 21
-136.079420996974050
  0
LINE
  8
0
  6
CONTINUOUS
 62
256
 10
-71.076868120714963
 20
-136.617440966235050
 11
-71.889436083791168
 21
-136.284465980672310
  0
LINE
  8
0
  6
CONTINUOUS
 62
256
 10
-70.364646344330325
 20
-137.065549911701680
 11
-71.076868120714963
 21
-136.617440966235050
  0
LINE
  8
0
  6
CONTINUOUS
 62
256
 10
-69.780141038085134
 20
-137.611572241600270
 11
-70.364646344330325
 21
-137.065549911701680
  0
LINE
  8
0
  6
CONTINUOUS
 62
256
 10
-69.345814413104051
 20
-138.234524624005670
 11
-69.780141038085134
 21
-137.611572241600270
  0
LINE
  8
0
  6
CONTINUOUS
 62
256
 10
-69.078357398011917
 20
-138.910467348217760
 11
-69.345814413104051
 21
-138.234524624005670
  0
LINE
  8
0
  6
CONTINUOUS
 62
256
 10
-68.988048215907099
 20
-139.613424314418130
 11
-69.078357398011917
 21
-138.910467348217760
  0
LINE
  8
0
  6
CONTINUOUS
 62
256
 10
-73.688048215907315
 20
-43.142172337345301
 11
-75.688048215907315
 21
-44.794813976468731
  0
LINE
  8
0
  6
CONTINUOUS
 62
256
 10
-71.688048215907315
 20
-41.966386851722518
 11
-73.688048215907315
 21
-43.142172337345301
  0
LINE
  8
0
  6
CONTINUOUS
 62
256
 10
-73.688048215907315
 20
-43.142172337345301
 11
-71.688048215907315
 21
-44.794813976468731
  0
LINE
  8
0
  6
CONTINUOUS
 62
256
 10
-75.688048215907315
 20
-41.966386851722518
 11
-73.688048215907315
 21
-43.142172337345301
  0
LINE
  8
0
  6
CONTINUOUS
 62
256
 10
-69.078357398011917
 20
-45.661719371923198
 11
-68.988048215907099
 21
-44.958762405722837
  0
LINE
  8
0
  6
CONTINUOUS
 62
256
 10
-69.345814413104051
 20
-46.337662096135290
 11
-69.078357398011917
 21
-45.661719371923198
  0
LINE
  8
0
  6
CONTINUOUS
 62
256
 10
-69.780141038085134
 20
-46.960614478540691
 11
-69.345814413104051
 21
-46.337662096135290
  0
LINE
  8
0
  6
CONTINUOUS
 62
256
 10
-70.364646344330325
 20
-47.506636808439268
 11
-69.780141038085134
 21
-46.960614478540691
  0
LINE
  8
0
  6
CONTINUOUS
 62
256
 10
-71.076868120714963
 20
-47.954745753905890
 11
-70.364646344330325
 21
-47.506636808439268
  0
LINE
  8
0
  6
CONTINUOUS
 62
256
 10
-71.889436083791168
 20
-48.287720739468647
 11
-71.076868120714963
 21
-47.954745753905890
  0
LINE
  8
0
  6
CONTINUOUS
 62
256
 10
-72.771123702431282
 20
-48.492765723166897
 11
-71.889436083791168
 21
-48.287720739468647
  0
LINE
  8
0
  6
CONTINUOUS
 62
256
 10
-73.688048215907088
 20
-48.562000941267669
 11
-72.771123702431282
 21
-48.492765723166897
  0
LINE
  8
0
  6
CONTINUOUS
 62
256
 10
-74.604972729382894
 20
-48.492765723166897
 11
-73.688048215907088
 21
-48.562000941267669
  0
LINE
  8
0
  6
CONTINUOUS
 62
256
 10
-75.486660348023008
 20
-48.287720739468647
 11
-74.604972729382894
 21
-48.492765723166897
  0
LINE
  8
0
  6
CONTINUOUS
 62
256
 10
-76.299228311099213
 20
-47.954745753905890
 11
-75.486660348023008
 21
-48.287720739468647
  0
LINE
  8
0
  6
CONTINUOUS
 62
256
 10
-77.011450087483851
 20
-47.506636808439268
 11
-76.299228311099213
 21
-47.954745753905890
  0
LINE
  8
0
  6
CONTINUOUS
 62
256
 10
-77.595955393729042
 20
-46.960614478540691
 11
-77.011450087483851
 21
-47.506636808439268
  0
LINE
  8
0
  6
CONTINUOUS
 62
256
 10
-78.030282018710125
 20
-46.337662096135290
 11
-77.595955393729042
 21
-46.960614478540691
  0
LINE
  8
0
  6
CONTINUOUS
 62
256
 10
-78.297739033802259
 20
-45.661719371923198
 11
-78.030282018710125
 21
-46.337662096135290
  0
LINE
  8
0
  6
CONTINUOUS
 62
256
 10
-78.388048215907077
 20
-44.958762405722837
 11
-78.297739033802259
 21
-45.661719371923198
  0
LINE
  8
0
  6
CONTINUOUS
 62
256
 10
-78.297739033802259
 20
-44.255805439522476
 11
-78.388048215907077
 21
-44.958762405722837
  0
LINE
  8
0
  6
CONTINUOUS
 62
256
 10
-78.030282018710125
 20
-43.579862715310384
 11
-78.297739033802259
 21
-44.255805439522476
  0
LINE
  8
0
  6
CONTINUOUS
 62
256
 10
-77.595955393729042
 20
-42.956910332904982
 11
-78.030282018710125
 21
-43.579862715310384
  0
LINE
  8
0
  6
CONTINUOUS
 62
256
 10
-77.011450087483851
 20
-42.410888003006399
 11
-77.595955393729042
 21
-42.956910332904982
  0
LINE
  8
0
  6
CONTINUOUS
 62
256
 10
-76.299228311099213
 20
-41.962779057539784
 11
-77.011450087483851
 21
-42.410888003006399
  0
LINE
  8
0
  6
CONTINUOUS
 62
256
 10
-75.486660348023008
 20
-41.629804071977027
 11
-76.299228311099213
 21
-41.962779057539784
  0
LINE
  8
0
  6
CONTINUOUS
 62
256
 10
-74.604972729382894
 20
-41.424759088278776
 11
-75.486660348023008
 21
-41.629804071977027
  0
LINE
  8
0
  6
CONTINUOUS
 62
256
 10
-73.688048215907088
 20
-41.355523870178004
 11
-74.604972729382894
 21
-41.424759088278776
  0
LINE
  8
0
  6
CONTINUOUS
 62
256
 10
-72.771123702431282
 20
-41.424759088278776
 11
-73.688048215907088
 21
-41.355523870178004
  0
LINE
  8
0
  6
CONTINUOUS
 62
256
 10
-71.889436083791168
 20
-41.629804071977027
 11
-72.771123702431282
 21
-41.424759088278776
  0
LINE
  8
0
  6
CONTINUOUS
 62
256
 10
-71.076868120714963
 20
-41.962779057539784
 11
-71.889436083791168
 21
-41.629804071977027
  0
LINE
  8
0
  6
CONTINUOUS
 62
256
 10
-70.364646344330325
 20
-42.410888003006399
 11
-71.076868120714963
 21
-41.962779057539784
  0
LINE
  8
0
  6
CONTINUOUS
 62
256
 10
-69.780141038085134
 20
-42.956910332904982
 11
-70.364646344330325
 21
-42.410888003006399
  0
LINE
  8
0
  6
CONTINUOUS
 62
256
 10
-69.345814413104051
 20
-43.579862715310384
 11
-69.780141038085134
 21
-42.956910332904982
  0
LINE
  8
0
  6
CONTINUOUS
 62
256
 10
-69.078357398011917
 20
-44.255805439522476
 11
-69.345814413104051
 21
-43.579862715310384
  0
LINE
  8
0
  6
CONTINUOUS
 62
256
 10
-68.988048215907099
 20
-44.958762405722837
 11
-69.078357398011917
 21
-44.255805439522476
  0
LINE
  8
0
  6
CONTINUOUS
 62
256
 10
-72.688048215907315
 20
-92.286093360070481
 11
-72.688048215907315
 21
-57.286093360070481
  0
LINE
  8
0
  6
CONTINUOUS
 62
256
 10
57.811951784113830
 20
-39.786093360070481
 11
-62.688048215907315
 21
-39.786093360070481
  0
LINE
  8
0
  6
CONTINUOUS
 62
256
 10
-62.688048215907315
 20
-41.786093360070481
 11
57.811951784113830
 21
-41.786093360070481
  0
LINE
  8
0
  6
CONTINUOUS
 62
256
 10
-62.688048215907315
 20
-41.286093360070254
 11
57.811951784113830
 21
-41.286093360070254
  0
LINE
  8
0
  6
CONTINUOUS
 62
256
 10
-62.688048215907315
 20
-46.153010765187673
 11
57.811951784113830
 21
-46.153010765187673
  0
LINE
  8
0
  6
CONTINUOUS
 62
256
 10
-62.688048215907315
 20
-47.781437832965594
 11
57.811951784113830
 21
-47.781437832965594
  0
LINE
  8
0
  6
CONTINUOUS
 62
256
 10
-62.688048215907315
 20
-51.244179589730720
 11
57.811951784113830
 21
-51.244179589730720
  0
LINE
  8
0
  6
CONTINUOUS
 62
256
 10
-62.845648562278598
 20
-52.245657953546015
 11
57.811951784113830
 21
-52.245657953546015
  0
LINE
  8
0
  6
CONTINUOUS
 62
256
 10
-72.688048215907315
 20
-58.982492408561711
 11
-70.488048215885669
 21
-58.982492408561711
  0
LINE
  8
0
  6
CONTINUOUS
 62
256
 10
-72.688048215907315
 20
-60.571702201300468
 11
-70.488048215885669
 21
-60.571702201300468
  0
LINE
  8
0
  6
CONTINUOUS
 62
256
 10
-72.688048215907315
 20
-63.529697809433401
 11
-70.488048215885669
 21
-63.529697809433401
  0
LINE
  8
0
  6
CONTINUOUS
 62
256
 10
-72.688048215907315
 20
-65.008720962910502
 11
-70.488048215885669
 21
-65.008720962910502
  0
LINE
  8
0
  6
CONTINUOUS
 62
256
 10
-72.688048215907315
 20
-68.101451954575850
 11
-70.488048215885669
 21
-68.101451954575850
  0
LINE
  8
0
  6
CONTINUOUS
 62
256
 10
-72.688048215907315
 20
-69.447853680074331
 11
-70.488048215885669
 21
-69.447853680074331
  0
LINE
  8
0
  6
CONTINUOUS
 62
256
 10
-72.688048215907315
 20
-72.286093360070481
 11
-70.488048215885669
 21
-72.286093360070481
  0
LINE
  8
0
  6
CONTINUOUS
 62
256
 10
19.511951784114331
 20
-63.529697809433401
 11
57.811951784113830
 21
-63.529697809433415
  0
LINE
  8
0
  6
CONTINUOUS
 62
256
 10
19.511951784114331
 20
-65.008720962910502
 11
57.811951784113830
 21
-65.008720962910502
  0
LINE
  8
0
  6
CONTINUOUS
 62
256
 10
19.511951784114331
 20
-68.101451954575850
 11
57.811951784113830
 21
-68.101451954575850
  0
LINE
  8
0
  6
CONTINUOUS
 62
256
 10
19.511951784114331
 20
-69.447853680074331
 11
57.811951784113830
 21
-69.447853680074331
  0
LINE
  8
0
  6
CONTINUOUS
 62
256
 10
19.511951784114331
 20
-72.286093360070481
 11
57.811951784113830
 21
-72.286093360070481
  0
LINE
  8
0
  6
CONTINUOUS
 62
256
 10
19.511951784114331
 20
-60.571702201300468
 11
57.811951784113830
 21
-60.571702201300461
  0
LINE
  8
0
  6
CONTINUOUS
 62
256
 10
19.511951784114331
 20
-58.982492408561711
 11
57.811951784113830
 21
-58.982492408561711
  0
ARC
  8
0
  6
CONTINUOUS
 62
256
 10
18.511951784114331
 20
-57.286093360070481
 40
1.000000000000227
 50
0.000000000000000
 51
90.000000000000000
  0
LINE
  8
0
  6
CONTINUOUS
 62
256
 10
18.511951784114331
 20
-56.286093360070481
 11
-69.488048215885669
 21
-56.286093360070481
  0
LINE
  8
0
  6
CONTINUOUS
 62
256
 10
19.511951784114558
 20
-57.286093360070481
 11
19.511951784113876
 21
-92.286093360072073
  0
ARC
  8
0
  6
CONTINUOUS
 62
256
 10
-69.488048215885669
 20
-57.286093360070481
 40
1.000000000000000
 50
90.000000000000000
 51
180.000000000000000
  0
LINE
  8
0
  6
CONTINUOUS
 62
256
 10
-70.488048215885442
 20
-57.286093360070481
 11
-70.488048215886124
 21
-92.286093360070709
  0
ARC
  8
0
  6
CONTINUOUS
 62
256
 10
-65.688048215907315
 20
-51.286093360070481
 40
3.000000000000000
 50
270.000000000000000
 51
0.000000000000000
  0
LINE
  8
0
  6
CONTINUOUS
 62
256
 10
-65.688048215907315
 20
-54.286093360070481
 11
-69.688048215907315
 21
-54.286093360070481
  0
ARC
  8
0
  6
CONTINUOUS
 62
256
 10
-69.688048215907315
 20
-57.286093360070481
 40
3.000000000000000
 50
90.000000000000000
 51
180.000000000000000
  0
LINE
  8
0
  6
CONTINUOUS
 62
256
 10
-152.008567753831470
 20
-42.011561247716827
 11
-159.579346950420240
 21
-47.312677911289711
  0
LINE
  8
0
  6
CONTINUOUS
 62
256
 10
-160.688048215907320
 20
-49.442473226440825
 11
-160.688048215907320
 21
-92.286093360070481
  0
ARC
  8
0
  6
CONTINUOUS
 62
256
 10
-158.088048215907410
 20
-49.442473226440825
 40
2.600000000000037
 50
125.000000000002630
 51
180.000000000000000
  0
ARC
  8
0
  6
CONTINUOUS
 62
256
 10
-140.192893165000100
 20
-58.886093360070163
 40
20.599999999999909
 50
90.000000000000000
 51
124.999999999999790
  0
LINE
  8
0
  6
CONTINUOUS
 62
256
 10
-72.688048215907315
 20
-92.286093360070481
 11
-72.688048215907315
 21
-127.286093360070480
  0
LINE
  8
0
  6
CONTINUOUS
 62
256
 10
56.811951784125881
 20
-144.786093360070480
 11
-62.688048215907315
 21
-144.786093360070480
  0
LINE
  8
0
  6
CONTINUOUS
 62
256
 10
-62.688048215907315
 20
-142.786093360070480
 11
56.811951784125881
 21
-142.786093360070480
  0
LINE
  8
0
  6
CONTINUOUS
 62
256
 10
-62.688048215907315
 20
-143.286093360070710
 11
56.811951784125881
 21
-143.286093360070710
  0
LINE
  8
0
  6
CONTINUOUS
 62
256
 10
-62.688048215907315
 20
-138.419175954953290
 11
56.811951784125881
 21
-138.419175954953290
  0
LINE
  8
0
  6
CONTINUOUS
 62
256
 10
-62.688048215907315
 20
-136.790748887175370
 11
56.988844232816774
 21
-136.790748887175370
  0
LINE
  8
0
  6
CONTINUOUS
 62
256
 10
-62.688048215907315
 20
-133.328007130410010
 11
57.811951784113610
 21
-133.328007130410010
  0
LINE
  8
0
  6
CONTINUOUS
 62
256
 10
-62.845648562278598
 20
-132.326528766594720
 11
57.811951784113617
 21
-132.326528766594720
  0
LINE
  8
0
  6
CONTINUOUS
 62
256
 10
-72.688048215907315
 20
-125.589694311579250
 11
-70.488048215885669
 21
-125.589694311579250
  0
LINE
  8
0
  6
CONTINUOUS
 62
256
 10
-72.688048215907315
 20
-124.000484518840490
 11
-70.488048215885669
 21
-124.000484518840490
  0
LINE
  8
0
  6
CONTINUOUS
 62
256
 10
-72.688048215907315
 20
-121.042488910707560
 11
-70.488048215885669
 21
-121.042488910707560
  0
LINE
  8
0
  6
CONTINUOUS
 62
256
 10
-72.688048215907315
 20
-119.563465757230460
 11
-70.488048215885669
 21
-119.563465757230460
  0
LINE
  8
0
  6
CONTINUOUS
 62
256
 10
-72.688048215907315
 20
-116.470734765565110
 11
-70.488048215885669
 21
-116.470734765565110
  0
LINE
  8
0
  6
CONTINUOUS
 62
256
 10
-72.688048215907315
 20
-115.124333040066630
 11
-70.488048215885669
 21
-115.124333040066630
  0
LINE
  8
0
  6
CONTINUOUS
 62
256
 10
-72.688048215907315
 20
-112.286093360070480
 11
-70.488048215885669
 21
-112.286093360070480
  0
LINE
  8
0
  6
CONTINUOUS
 62
256
 10
19.511951784114331
 20
-121.042488910707560
 11
57.811951784113667
 21
-121.042488910707580
  0
LINE
  8
0
  6
CONTINUOUS
 62
256
 10
19.511951784114331
 20
-119.563465757230460
 11
57.811951784113674
 21
-119.563465757230460
  0
LINE
  8
0
  6
CONTINUOUS
 62
256
 10
19.511951784114331
 20
-116.470734765565110
 11
57.811951784113688
 21
-116.470734765565080
  0
LINE
  8
0
  6
CONTINUOUS
 62
256
 10
19.511951784114331
 20
-115.124333040066630
 11
57.811951784113695
 21
-115.124333040066650
  0
LINE
  8
0
  6
CONTINUOUS
 62
256
 10
19.511951784114331
 20
-112.286093360070480
 11
57.811951784113710
 21
-112.286093360070480
  0
LINE
  8
0
  6
CONTINUOUS
 62
256
 10
19.511951784114331
 20
-124.000484518840490
 11
57.811951784113653
 21
-124.000484518840490
  0
LINE
  8
0
  6
CONTINUOUS
 62
256
 10
19.511951784114331
 20
-125.589694311579250
 11
57.811951784113646
 21
-125.589694311579250
  0
ARC
  8
0
  6
CONTINUOUS
 62
256
 10
18.511951784114331
 20
-127.286093360070480
 40
1.000000000000000
 50
270.000000000000000
 51
0.000000000000000
  0
LINE
  8
0
  6
CONTINUOUS
 62
256
 10
18.511951784114331
 20
-128.286093360070480
 11
-69.488048215885669
 21
-128.286093360070480
  0
LINE
  8
0
  6
CONTINUOUS
 62
256
 10
19.511951784114558
 20
-127.286093360070480
 11
19.511951784113876
 21
-92.286093360068890
  0
ARC
  8
0
  6
CONTINUOUS
 62
256
 10
-69.488048215885669
 20
-127.286093360070480
 40
0.999999999999773
 50
180.000000000000000
 51
270.000000000000000
  0
LINE
  8
0
  6
CONTINUOUS
 62
256
 10
-70.488048215885442
 20
-127.286093360070480
 11
-70.488048215886124
 21
-92.286093360070254
  0
ARC
  8
0
  6
CONTINUOUS
 62
256
 10
-65.688048215907315
 20
-133.286093360070480
 40
3.000000000000000
 50
0.000000000000000
 51
90.000000000000000
  0
LINE
  8
0
  6
CONTINUOUS
 62
256
 10
-65.688048215907315
 20
-130.286093360070480
 11
-69.688048215907315
 21
-130.286093360070480
  0
ARC
  8
0
  6
CONTINUOUS
 62
256
 10
-69.688048215907315
 20
-127.286093360070480
 40
3.000000000000000
 50
180.000000000000000
 51
270.000000000000000
  0
LINE
  8
0
  6
CONTINUOUS
 62
256
 10
-152.008567753831470
 20
-142.560625472423910
 11
-159.579346950420240
 21
-137.259508808851250
  0
LINE
  8
0
  6
CONTINUOUS
 62
256
 10
-160.688048215907320
 20
-135.129713493700140
 11
-160.688048215907320
 21
-92.286093360070481
  0
ARC
  8
0
  6
CONTINUOUS
 62
256
 10
-158.088048215907410
 20
-135.129713493700140
 40
2.599999999999909
 50
180.000000000000000
 51
234.999999999994740
  0
ARC
  8
0
  6
CONTINUOUS
 62
256
 10
-140.192893165000100
 20
-125.686093360070790
 40
20.599999999999810
 50
235.000000000000260
 51
270.000000000000000
  0
LINE
  8
0
  6
DASHDOT
 62
256
 10
97.634737829060555
 20
-92.286093360070481
 11
-178.468820240638370
 21
-92.286093360070481
  0
INSERT
  8
0
  2
ZU_SYM_1
 10
79.311951784125881
 20
-83.285719593970725
  0
LINE
  8
0
  6
CONTINUOUS
 62
256
 10
74.311952547065346
 20
-47.536092406396051
 11
74.311952547065346
 21
-39.036094313744684
  0
LINE
  8
0
  6
CONTINUOUS
 62
256
 10
79.311952547065346
 20
-39.036094313744684
 11
74.311952547065346
 21
-39.036094313744684
  0
LINE
  8
0
  6
CONTINUOUS
 62
256
 10
77.311951784125881
 20
-47.536092406396051
 11
74.311952547065346
 21
-47.536092406396051
  0
LINE
  8
0
  6
DASHDOT
 62
256
 10
288.283517257958010
 20
-26.872542982485356
 11
288.283517257958010
 21
-155.846887843804320
  0
LINE
  8
0
  6
DASHDOT
 62
256
 10
305.716207328430300
 20
-92.286093360070481
 11
270.834560593200420
 21
-92.286093360070481
  0
LINE
  8
0
  6
DASHDOT
 62
256
 10
361.024782264149960
 20
-77.286093360070481
 11
183.209983042684600
 21
-77.286093360070481
  0
ARC
  8
0
  6
CONTINUOUS
 62
256
 10
288.283517257958070
 20
254.313906639929660
 40
400.599999999999910
 50
270.000000000000000
 51
273.933897417636050
  0
ARC
  8
0
  6
CONTINUOUS
 62
256
 10
288.283517257958070
 20
254.313906639929660
 40
400.600000000000080
 50
266.066102582363950
 51
270.000000000000000
  0
ARC
  8
0
  6
CONTINUOUS
 62
256
 10
251.293450019811640
 20
-64.222336729054859
 40
20.600000000000069
 50
135.000000000002700
 51
157.340457143262710
  0
ARC
  8
0
  6
CONTINUOUS
 62
256
 10
288.283517257957950
 20
-438.886093360070620
 40
400.600000000000140
 50
95.317822841624434
 51
95.743681810993436
  0
ARC
  8
0
  6
CONTINUOUS
 62
256
 10
288.283517257957950
 20
-438.886093360070620
 40
400.599999999999910
 50
84.256318189006564
 51
84.682177158375538
  0
ARC
  8
0
  6
CONTINUOUS
 62
256
 10
325.273584496104380
 20
-64.222336729054859
 40
20.599999999999973
 50
19.861001831245090
 51
44.999999999997293
  0
ARC
  8
0
  6
CONTINUOUS
 62
256
 10
327.714384258045360
 20
-46.864146617772121
 40
6.600000000000278
 50
44.999999999997208
 51
84.256318189005128
  0
LINE
  8
0
  6
CONTINUOUS
 62
256
 10
339.839984188547990
 20
-49.655937036612613
 11
332.381289013876990
 21
-42.197241861940938
  0
LINE
  8
0
  6
CONTINUOUS
 62
256
 10
236.727050327368030
 20
-49.655937036612613
 11
244.185745502039030
 21
-42.197241861940938
  0
ARC
  8
0
  6
CONTINUOUS
 62
256
 10
248.852650257870660
 20
-46.864146617772121
 40
6.600000000000009
 50
95.743681810995113
 51
135.000000000002760
  0
ARC
  8
0
  6
CONTINUOUS
 62
256
 10
288.283509897950810
 20
-77.286093360070481
 40
8.000000000000096
 50
198.209956864282790
 51
161.789968677645760
  0
LINE
  8
0
  6
CONTINUOUS
 62
256
 10
278.283509897950810
 20
-74.786093360070481
 11
283.283509897950810
 21
-74.786093360070481
  0
LINE
  8
0
  6
CONTINUOUS
 62
256
 10
278.283509897950810
 20
-74.786093360070481
 11
278.283509897950810
 21
-79.786093360070481
  0
LINE
  8
0
  6
CONTINUOUS
 62
256
 10
283.283509897950810
 20
-74.786093360070481
 11
283.283509897950810
 21
-79.786093360070481
  0
LINE
  8
0
  6
CONTINUOUS
 62
256
 10
230.455204449737580
 20
-76.365987455367005
 11
230.238659086534030
 21
-78.712982947466045
  0
LINE
  8
0
  6
CONTINUOUS
 62
256
 10
230.884512407195270
 20
-74.017247365117456
 11
230.455204449737580
 21
-76.365987455367005
  0
LINE
  8
0
  6
CONTINUOUS
 62
256
 10
231.510385797008330
 20
-71.755377208172234
 11
230.884512407195270
 21
-74.017247365117456
  0
LINE
  8
0
  6
CONTINUOUS
 62
256
 10
232.309211330750880
 20
-69.665714040343190
 11
231.510385797008330
 21
-71.755377208172234
  0
LINE
  8
0
  6
CONTINUOUS
 62
256
 10
233.250850488337050
 20
-67.827097799384305
 11
232.309211330750880
 21
-69.665714040343190
  0
LINE
  8
0
  6
CONTINUOUS
 62
256
 10
234.299776600342910
 20
-66.308896789346804
 11
233.250850488337050
 21
-67.827097799384305
  0
LINE
  8
0
  6
CONTINUOUS
 62
256
 10
235.416415217329790
 20
-65.168390515833352
 11
234.299776600342910
 21
-66.308896789346804
  0
LINE
  8
0
  6
CONTINUOUS
 62
256
 10
236.558637195992560
 20
-64.448608613952644
 11
235.416415217329790
 21
-65.168390515833352
  0
LINE
  8
0
  6
CONTINUOUS
 62
256
 10
237.683348170174360
 20
-64.176707403064839
 11
236.558637195992560
 21
-64.448608613952644
  0
LINE
  8
0
  6
CONTINUOUS
 62
256
 10
238.748114438329050
 20
-64.362945318534855
 11
237.683348170174360
 21
-64.176707403064839
  0
LINE
  8
0
  6
CONTINUOUS
 62
256
 10
239.712763925073230
 20
-65.000295875956411
 11
238.748114438329050
 21
-64.362945318534855
  0
LINE
  8
0
  6
CONTINUOUS
 62
256
 10
240.540901814888260
 20
-66.064712770141128
 11
239.712763925073230
 21
-65.000295875956411
  0
LINE
  8
0
  6
CONTINUOUS
 62
256
 10
241.201283675326890
 20
-67.516037107075036
 11
240.540901814888260
 21
-66.064712770141128
  0
LINE
  8
0
  6
CONTINUOUS
 62
256
 10
332.446768733894260
 20
-80.742725067841093
 11
332.446768733894260
 21
-133.286093360070480
  0
LINE
  8
0
  6
CONTINUOUS
 62
256
 10
244.120265782022220
 20
-80.742725067841093
 11
244.120265782022220
 21
-133.286093360070480
  0
LINE
  8
0
  6
CONTINUOUS
 62
256
 10
244.783510573791320
 20
-147.286093360070480
 11
244.783510573791320
 21
-146.286093360070480
  0
LINE
  8
0
  6
CONTINUOUS
 62
256
 10
259.645435884101060
 20
-147.286093360070480
 11
223.283523942124700
 21
-147.286093360070480
  0
LINE
  8
0
  6
CONTINUOUS
 62
256
 10
316.921598631814960
 20
-147.286093360070480
 11
353.283510573791320
 21
-147.286093360070480
  0
LINE
  8
0
  6
CONTINUOUS
 62
256
 10
245.783510573791320
 20
-145.286093360070480
 11
288.283517257958010
 21
-145.286093360070480
  0
LINE
  8
0
  6
CONTINUOUS
 62
256
 10
223.283523942124700
 20
-147.286093360070480
 11
223.283523942124700
 21
-137.777917695647370
  0
LINE
  8
0
  6
CONTINUOUS
 62
256
 10
353.283523942124700
 20
-147.286093360070480
 11
353.283523942124700
 21
-137.786093360070480
  0
LINE
  8
0
  6
CONTINUOUS
 62
256
 10
225.783510573791320
 20
-135.286093360070480
 11
288.283517257958010
 21
-135.286093360070480
  0
LINE
  8
0
  6
CONTINUOUS
 62
256
 10
350.783523942124700
 20
-135.286093360070480
 11
288.283517257958010
 21
-135.286093360070480
  0
LINE
  8
0
  6
DASHDOT
 62
256
 10
231.283517257958010
 20
-132.813945131677430
 11
231.283517257958010
 21
-150.838949056227650
  0
LINE
  8
0
  6
CONTINUOUS
 62
256
 10
330.783523942125160
 20
-145.286093360070480
 11
288.283517257958010
 21
-145.286093360070480
  0
LINE
  8
0
  6
CONTINUOUS
 62
256
 10
230.238659086534430
 20
-78.712982947466116
 11
230.238659086534430
 21
-133.286093360070480
  0
LINE
  8
0
  6
CONTINUOUS
 62
256
 10
241.368594340880920
 20
-68.503899007455402
 11
241.368594340880920
 21
-133.286093360070480
  0
LINE
  8
0
  6
DASHDOT
 62
256
 10
345.283517257958010
 20
-132.813945131677430
 11
345.283517257958010
 21
-150.838949056227650
  0
LINE
  8
0
  6
CONTINUOUS
 62
256
 10
351.283517257958010
 20
-80.742725067841093
 11
351.283517257958010
 21
-134.044440439352000
  0
LINE
  8
0
  6
CONTINUOUS
 62
256
 10
225.283517257958010
 20
-80.742725067841093
 11
225.283517257958010
 21
-134.044440439352000
  0
ARC
  8
0
  6
CONTINUOUS
 62
256
 10
288.283517257958010
 20
-435.286093360070480
 40
381.163251475935400
 50
87.093615629290099
 51
90.000000000000000
  0
ARC
  8
0
  6
CONTINUOUS
 62
256
 10
306.283517257958010
 20
-80.742725067841093
 40
26.163251475936249
 50
0.000000000000000
 51
87.093615629290255
  0
ARC
  8
0
  6
CONTINUOUS
 62
256
 10
270.283517257958010
 20
-80.742725067841093
 40
26.163251475936192
 50
92.906384370708764
 51
180.000000000000000
  0
ARC
  8
0
  6
CONTINUOUS
 62
256
 10
288.283517257958010
 20
-435.286093360070480
 40
381.163251475935790
 50
90.000000000000000
 51
92.906384370709830
  0
ARC
  8
0
  6
CONTINUOUS
 62
256
 10
288.283517257958010
 20
-77.286093360071391
 40
20.000000000000398
 50
75.608178603069376
 51
158.452064872031570
  0
ARC
  8
0
  6
CONTINUOUS
 62
256
 10
288.283517257958010
 20
-77.286093360071391
 40
19.999999999999751
 50
301.817285839823170
 51
33.739346948272932
  0
ARC
  8
0
  6
CONTINUOUS
 62
256
 10
288.283517257958010
 20
-77.286093360071391
 40
19.999999999999886
 50
151.820240962304300
 51
313.242851348263170
  0
ARC
  8
0
  6
CONTINUOUS
 62
256
 10
306.283517257958010
 20
-80.742725067841093
 40
45.000000000000000
 50
0.000000000000000
 51
87.093615629290099
  0
ARC
  8
0
  6
CONTINUOUS
 62
256
 10
270.283517257958010
 20
-80.742725067841093
 40
45.000000000000597
 50
92.906384370709858
 51
180.000000000000000
  0
ARC
  8
0
  6
CONTINUOUS
 62
256
 10
288.283517257958010
 20
-435.286093360070480
 40
399.999999999999090
 50
90.000000000000000
 51
92.906384370709901
  0
ARC
  8
0
  6
CONTINUOUS
 62
256
 10
353.283517257958010
 20
-134.044440439352000
 40
2.000000000000000
 50
180.000000000000000
 51
236.250909049805780
  0
ARC
  8
0
  6
CONTINUOUS
 62
256
 10
245.783510573791320
 20
-146.286093360070480
 40
1.000000000000000
 50
90.000000000000000
 51
180.000000000000000
  0
ARC
  8
0
  6
CONTINUOUS
 62
256
 10
225.783510573791320
 20
-137.786093360070480
 40
2.500000000000000
 50
90.000000000000000
 51
180.000000000000000
  0
ARC
  8
0
  6
DASHED
 62
256
 10
225.783523942124700
 20
-137.786093360070480
 40
2.500000000000000
 50
90.000000000000000
 51
180.000000000000000
  0
ARC
  8
0
  6
CONTINUOUS
 62
256
 10
350.783523942124700
 20
-137.786093360070480
 40
2.500000000000000
 50
0.000000000000000
 51
90.000000000000000
  0
ARC
  8
0
  6
CONTINUOUS
 62
256
 10
223.283517257958010
 20
-134.044440439352000
 40
2.000000000000160
 50
303.749090950205020
 51
0.000000000000000
  0
ARC
  8
0
  6
CONTINUOUS
 62
256
 10
288.283517257958010
 20
-435.286093360070480
 40
399.999999999999770
 50
87.093615629290099
 51
90.000000000000000
  0
LINE
  8
0
  6
CONTINUOUS
 62
256
 10
315.008786199542100
 20
-77.286093360070481
 11
324.983517257957830
 21
-77.286093360070481
  0
LINE
  8
0
  6
CONTINUOUS
 62
256
 10
261.558248316373920
 20
-77.286093360070481
 11
251.583517257958190
 21
-77.286093360070481
  0
LINE
  8
0
  6
CONTINUOUS
 62
256
 10
327.483517257957830
 20
-79.786093360070481
 11
327.483517257957830
 21
-125.486093360071190
  0
ARC
  8
0
  6
CONTINUOUS
 62
256
 10
324.983517257957830
 20
-79.786093360070481
 40
2.500000000000000
 50
0.000000000000000
 51
90.000000000000000
  0
ARC
  8
0
  6
CONTINUOUS
 62
256
 10
315.008786199542100
 20
-79.286093360070481
 40
2.000000000000000
 50
90.000000000000000
 51
175.720216799741140
  0
ARC
  8
0
  6
CONTINUOUS
 62
256
 10
288.283517257958010
 20
-77.286093360070481
 40
24.800000000000182
 50
270.000000000000000
 51
355.720216799716350
  0
ARC
  8
0
  6
CONTINUOUS
 62
256
 10
322.483517257957830
 20
-125.486093360071190
 40
5.000000000000014
 50
270.000000000000000
 51
0.000000000000000
  0
LINE
  8
0
  6
CONTINUOUS
 62
256
 10
322.483517257957830
 20
-130.486093360071210
 11
288.283517257958010
 21
-130.486093360071210
  0
LINE
  8
0
  6
CONTINUOUS
 62
256
 10
249.083517257958190
 20
-79.786093360070481
 11
249.083517257958190
 21
-125.486093360071190
  0
ARC
  8
0
  6
CONTINUOUS
 62
256
 10
254.083517257958190
 20
-125.486093360071190
 40
5.000000000000000
 50
180.000000000000000
 51
270.000000000000000
  0
LINE
  8
0
  6
CONTINUOUS
 62
256
 10
254.083517257958190
 20
-130.486093360071210
 11
288.283517257958010
 21
-130.486093360071210
  0
ARC
  8
0
  6
CONTINUOUS
 62
256
 10
251.583517257958190
 20
-79.786093360070481
 40
2.500000000000000
 50
90.000000000000000
 51
180.000000000000000
  0
ARC
  8
0
  6
CONTINUOUS
 62
256
 10
261.558248316373920
 20
-79.286093360070481
 40
2.000000000000236
 50
4.279783200257985
 51
90.000000000000000
  0
ARC
  8
0
  6
CONTINUOUS
 62
256
 10
288.283517257958010
 20
-77.286093360070481
 40
24.799999999999748
 50
184.279783200283820
 51
270.000000000000000
  0
LINE
  8
0
  6
CONTINUOUS
 62
256
 10
278.283509897950810
 20
-79.786093360070481
 11
283.283509897950810
 21
-79.786093360070481
  0
ARC
  8
0
  6
CONTINUOUS
 62
256
 10
254.283533236719450
 20
-142.786093360070480
 40
7.000000000000203
 50
319.994853367670830
 51
339.075167572361120
  0
ARC
  8
0
  6
CONTINUOUS
 62
256
 10
322.283501279197030
 20
-142.786093360070480
 40
7.000000000000222
 50
200.924832427637600
 51
220.005146632326730
  0
LINE
  8
0
  6
CONTINUOUS
 62
256
 10
331.783523942124700
 20
-147.286093360070480
 11
331.783523942124700
 21
-146.286093360070480
  0
ARC
  8
0
  6
CONTINUOUS
 62
256
 10
330.783523942124700
 20
-146.286093360070480
 40
1.000000000000000
 50
0.000000000000000
 51
90.000000000000000
  0
ARC
  8
0
  6
CONTINUOUS
 62
256
 10
288.283517257958010
 20
-77.286093360071391
 40
20.000000000000288
 50
31.725452044934123
 51
75.608178603069305
  0
ARC
  8
0
  6
CONTINUOUS
 62
256
 10
288.283517257958010
 20
-77.286093360070481
 40
14.999999999999222
 50
71.480227576789375
 51
31.760752476936535
  0
ARC
  8
0
  6
CONTINUOUS
 62
256
 10
288.283517257958010
 20
-77.286093360070481
 40
14.999999999999194
 50
29.495546123202022
 51
74.327299558595001
  0
ARC
  8
0
  6
CONTINUOUS
 62
256
 10
348.328375429382050
 20
-133.286093360070480
 40
2.000000000000000
 50
180.000000000000000
 51
270.000000000000000
  0
ARC
  8
0
  6
CONTINUOUS
 62
256
 10
337.198440175035560
 20
-133.286093360070480
 40
2.000000000000000
 50
180.000000000000000
 51
270.000000000000000
  0
ARC
  8
0
  6
CONTINUOUS
 62
256
 10
334.446768733894260
 20
-133.286093360070480
 40
2.000000000000000
 50
180.000000000000000
 51
270.000000000000000
  0
ARC
  8
0
  6
CONTINUOUS
 62
256
 10
242.120265782022220
 20
-133.286093360070480
 40
2.000000000000000
 50
270.000000000000000
 51
0.000000000000000
  0
ARC
  8
0
  6
CONTINUOUS
 62
256
 10
239.368594340880920
 20
-133.286093360070480
 40
2.000000000000000
 50
270.000000000000000
 51
0.000000000000000
  0
ARC
  8
0
  6
CONTINUOUS
 62
256
 10
228.238659086534430
 20
-133.286093360070480
 40
2.000000000000000
 50
270.000000000000000
 51
0.000000000000000
  0
LINE
  8
0
  6
CONTINUOUS
 62
256
 10
346.328375429382050
 20
-78.712982947466116
 11
346.328375429382050
 21
-133.286093360070480
  0
ARC
  8
0
  6
CONTINUOUS
 62
256
 10
238.368594340832710
 20
-68.503899007464497
 40
3.000000000048203
 50
0.000000000173701
 51
19.225523228942780
  0
LINE
  8
0
  6
CONTINUOUS
 62
256
 10
335.198440175035560
 20
-68.503899007455402
 11
335.198440175035560
 21
-133.286093360070480
  0
ARC
  8
0
  6
CONTINUOUS
 62
256
 10
338.198440175083310
 20
-68.503899007464497
 40
2.999999999999738
 50
160.774476771054340
 51
179.999999999826310
  0
LINE
  8
0
  6
CONTINUOUS
 62
256
 10
336.026132701027730
 20
-66.064712770141199
 11
335.365750840589160
 21
-67.516037107075121
  0
LINE
  8
0
  6
CONTINUOUS
 62
256
 10
336.854270590842760
 20
-65.000295875956454
 11
336.026132701027730
 21
-66.064712770141199
  0
LINE
  8
0
  6
CONTINUOUS
 62
256
 10
337.818920077586940
 20
-64.362945318534869
 11
336.854270590842760
 21
-65.000295875956454
  0
LINE
  8
0
  6
CONTINUOUS
 62
256
 10
338.883686345741640
 20
-64.176707403064839
 11
337.818920077586940
 21
-64.362945318534869
  0
LINE
  8
0
  6
CONTINUOUS
 62
256
 10
340.008397319923400
 20
-64.448608613952644
 11
338.883686345741640
 21
-64.176707403064839
  0
LINE
  8
0
  6
CONTINUOUS
 62
256
 10
341.150619298586210
 20
-65.168390515833352
 11
340.008397319923400
 21
-64.448608613952644
  0
LINE
  8
0
  6
CONTINUOUS
 62
256
 10
342.267257915573110
 20
-66.308896789346818
 11
341.150619298586210
 21
-65.168390515833352
  0
LINE
  8
0
  6
CONTINUOUS
 62
256
 10
343.316184027578970
 20
-67.827097799384319
 11
342.267257915573110
 21
-66.308896789346818
  0
LINE
  8
0
  6
CONTINUOUS
 62
256
 10
344.257823185165140
 20
-69.665714040343204
 11
343.316184027578970
 21
-67.827097799384319
  0
LINE
  8
0
  6
CONTINUOUS
 62
256
 10
345.056648718907750
 20
-71.755377208172263
 11
344.257823185165140
 21
-69.665714040343204
  0
LINE
  8
0
  6
CONTINUOUS
 62
256
 10
345.682522108720780
 20
-74.017247365117498
 11
345.056648718907750
 21
-71.755377208172263
  0
LINE
  8
0
  6
CONTINUOUS
 62
256
 10
346.111830066178470
 20
-76.365987455367062
 11
345.682522108720780
 21
-74.017247365117498
  0
LINE
  8
0
  6
CONTINUOUS
 62
256
 10
346.328375429381990
 20
-78.712982947466131
 11
346.111830066178470
 21
-76.365987455367062
  0
CIRCLE
  8
0
  6
CONTINUOUS
 62
256
 10
288.524119661014990
 20
-77.286093360070481
 40
2.458500000000015
  0
CIRCLE
  8
0
  6
CONTINUOUS
 62
256
 10
288.524119661014990
 20
-77.286093360070481
 40
3.000000000000000
  0
LINE
  8
0
  6
CONTINUOUS
 62
256
 10
230.783517257958010
 20
-59.184663930530974
 11
230.783517257958010
 21
-56.286093360070083
  0
LINE
  8
0
  6
CONTINUOUS
 62
256
 10
232.509542546386460
 20
-56.286093360070083
 11
203.416852485015620
 21
-56.286093360070083
  0
LINE
  8
0
  6
CONTINUOUS
 62
256
 10
225.283517257958010
 20
-128.286093360069910
 11
203.416852485015620
 21
-128.286093360069970
  0
LINE
  8
0
  6
CONTINUOUS
 62
256
 10
196.283517257958010
 20
-89.786093360069856
 11
196.793934105475730
 21
-89.786093360069856
  0
LINE
  8
0
  6
CONTINUOUS
 62
256
 10
196.283517257958010
 20
-94.786093360069970
 11
196.283517257958010
 21
-89.786093360069970
  0
LINE
  8
0
  6
CONTINUOUS
 62
256
 10
196.283517257958010
 20
-94.786093360069970
 11
196.793934105475730
 21
-94.786093360069970
  0
ARC
  8
0
  6
CONTINUOUS
 62
256
 10
203.416852485015620
 20
-123.286093360069970
 40
5.000000000000143
 50
186.032049146370330
 51
270.000000000000000
  0
ARC
  8
0
  6
CONTINUOUS
 62
256
 10
203.416852485015620
 20
-61.286093360070083
 40
5.000000000000000
 50
90.000000000000000
 51
173.967950853629670
  0
ARC
  8
0
  6
CONTINUOUS
 62
256
 10
496.783517257958010
 20
-92.286093360070026
 40
300.000000000000060
 50
173.967950853630190
 51
186.032049146369810
  0
LINE
  8
0
  6
DASHDOT
 62
256
 10
133.606132881100960
 20
177.061622709370570
 11
119.379001027091230
 21
177.061622709370570
  0
LINE
  8
0
  6
DASHDOT
 62
256
 10
126.811951784125880
 20
169.703913826865570
 11
126.811951784125880
 21
183.545954419088050
  0
LINE
  8
0
  6
DASHDOT
 62
256
 10
126.811951784125880
 20
70.309474256965586
 11
126.811951784125880
 21
56.063930015933693
  0
LINE
  8
0
  6
CONTINUOUS
 62
256
 10
56.811951784125881
 20
56.996060161177411
 11
56.811951784125881
 21
66.561622709370567
  0
LINE
  8
0
  6
CONTINUOUS
 62
256
 10
56.811951784125881
 20
183.127185257563720
 11
56.811951784125881
 21
173.561622709370570
  0
CIRCLE
  8
0
  6
DASHED
 62
256
 10
-58.488048215874187
 20
42.561622709370567
 40
6.000000000000000
  0
ARC
  8
0
  6
DASHED
 62
256
 10
-58.488048215874187
 20
42.561622709370567
 40
7.000000000000000
 50
180.000000000000000
 51
0.000000000000000
  0
LINE
  8
0
  6
DASHED
 62
256
 10
-51.488048215874187
 20
62.561622709370567
 11
-51.488048215874187
 21
42.561622709370567
  0
LINE
  8
0
  6
DASHED
 62
256
 10
-65.488048215874187
 20
62.561622709370567
 11
-65.488048215874187
 21
42.561622709370567
  0
LINE
  8
0
  6
DASHDOT
 62
256
 10
-58.488048215874187
 20
33.561622709370567
 11
-58.488048215874187
 21
60.563222031920304
  0
LINE
  8
0
  6
DASHDOT
 62
256
 10
-49.488048215874187
 20
42.561622709370567
 11
-67.488048215874187
 21
42.561622709370567
  0
LINE
  8
0
  6
DASHDOT
 62
256
 10
175.525552727773060
 20
120.061622709370550
 11
-184.565055844919810
 21
120.061622709370550
  0
ARC
  8
0
  6
CONTINUOUS
 62
256
 10
-140.192893164988160
 20
81.661622709370590
 40
20.599999999999891
 50
235.000000000000400
 51
270.000000000000000
  0
ARC
  8
0
  6
CONTINUOUS
 62
256
 10
-158.088048215895470
 20
72.218002575741252
 40
2.599999999999909
 50
180.000000000000000
 51
234.999999999998520
  0
LINE
  8
0
  6
CONTINUOUS
 62
256
 10
-152.008567753819530
 20
64.787090597017368
 11
-159.579346950408310
 21
70.088207260589911
  0
LINE
  8
0
  6
CONTINUOUS
 62
256
 10
-160.688048215895380
 20
72.218002575741252
 11
-160.688048215895380
 21
120.061622709370550
  0
LINE
  8
0
  6
CONTINUOUS
 62
256
 10
-62.688048215895378
 20
79.019708939030807
 11
57.811951784125768
 21
79.019708939030792
  0
LINE
  8
0
  6
CONTINUOUS
 62
256
 10
-62.688048215895378
 20
73.928540114487873
 11
57.811951784125768
 21
73.928540114487873
  0
LINE
  8
0
  6
CONTINUOUS
 62
256
 10
-62.688048215895378
 20
69.561622709370567
 11
57.811951784125768
 21
69.561622709370567
  0
LINE
  8
0
  6
CONTINUOUS
 62
256
 10
-62.688048215895378
 20
69.061622709370567
 11
57.811951784125768
 21
69.061622709370567
  0
LINE
  8
0
  6
CONTINUOUS
 62
256
 10
57.811951784125768
 20
66.561622709370567
 11
19.511951784125813
 21
66.561622709370567
  0
LINE
  8
0
  6
CONTINUOUS
 62
256
 10
19.511951784125813
 20
67.561622709370567
 11
19.511951784125813
 21
29.561622709370567
  0
ARC
  8
0
  6
CONTINUOUS
 62
256
 10
18.511951784125813
 20
29.561622709370567
 40
1.000000000000000
 50
270.000000000000000
 51
0.000000000000000
  0
LINE
  8
0
  6
CONTINUOUS
 62
256
 10
-69.488048215874187
 20
28.561622709370567
 11
18.511951784125813
 21
28.561622709370567
  0
ARC
  8
0
  6
CONTINUOUS
 62
256
 10
-69.488048215874187
 20
29.561622709370567
 40
1.000000000000000
 50
180.000000000000000
 51
270.000000000000000
  0
LINE
  8
0
  6
CONTINUOUS
 62
256
 10
-63.488048215874187
 20
28.061622709370567
 11
-55.488048215874187
 21
28.061622709370567
  0
LINE
  8
0
  6
CONTINUOUS
 62
256
 10
4.511951784125813
 20
28.061622709370567
 11
12.511951784125813
 21
28.061622709370567
  0
LINE
  8
0
  6
CONTINUOUS
 62
256
 10
4.511951784125813
 20
28.561622709370567
 11
4.511951784125813
 21
28.061622709370567
  0
LINE
  8
0
  6
CONTINUOUS
 62
256
 10
12.511951784125813
 20
28.561622709370567
 11
12.511951784125813
 21
28.061622709370567
  0
LINE
  8
0
  6
CONTINUOUS
 62
256
 10
-55.488048215874187
 20
28.561622709370567
 11
-55.488048215874187
 21
28.061622709370567
  0
LINE
  8
0
  6
CONTINUOUS
 62
256
 10
-63.488048215874187
 20
28.561622709370567
 11
-63.488048215874187
 21
28.061622709370567
  0
LINE
  8
0
  6
CONTINUOUS
 62
256
 10
19.511951784125813
 20
67.561622709370567
 11
-62.688048215895378
 21
67.561622709370567
  0
LINE
  8
0
  6
CONTINUOUS
 62
256
 10
-69.078357397999980
 20
72.031334788822676
 11
-68.988048215895162
 21
72.734291755023037
  0
LINE
  8
0
  6
CONTINUOUS
 62
256
 10
-69.345814413092114
 20
71.355392064610584
 11
-69.078357397999980
 21
72.031334788822676
  0
LINE
  8
0
  6
CONTINUOUS
 62
256
 10
-69.780141038073197
 20
70.732439682205182
 11
-69.345814413092114
 21
71.355392064610584
  0
LINE
  8
0
  6
CONTINUOUS
 62
256
 10
-70.364646344318388
 20
70.186417352306606
 11
-69.780141038073197
 21
70.732439682205182
  0
LINE
  8
0
  6
CONTINUOUS
 62
256
 10
-71.076868120703026
 20
69.738308406839991
 11
-70.364646344318388
 21
70.186417352306606
  0
LINE
  8
0
  6
CONTINUOUS
 62
256
 10
-71.889436083779231
 20
69.405333421277220
 11
-71.076868120703026
 21
69.738308406839991
  0
LINE
  8
0
  6
CONTINUOUS
 62
256
 10
-72.771123702419345
 20
69.200288437578976
 11
-71.889436083779231
 21
69.405333421277220
  0
LINE
  8
0
  6
CONTINUOUS
 62
256
 10
-73.688048215895151
 20
69.131053219478204
 11
-72.771123702419345
 21
69.200288437578976
  0
LINE
  8
0
  6
CONTINUOUS
 62
256
 10
-74.604972729370957
 20
69.200288437578976
 11
-73.688048215895151
 21
69.131053219478204
  0
LINE
  8
0
  6
CONTINUOUS
 62
256
 10
-75.486660348011071
 20
69.405333421277220
 11
-74.604972729370957
 21
69.200288437578976
  0
LINE
  8
0
  6
CONTINUOUS
 62
256
 10
-76.299228311087276
 20
69.738308406839991
 11
-75.486660348011071
 21
69.405333421277220
  0
LINE
  8
0
  6
CONTINUOUS
 62
256
 10
-77.011450087471914
 20
70.186417352306606
 11
-76.299228311087276
 21
69.738308406839991
  0
LINE
  8
0
  6
CONTINUOUS
 62
256
 10
-77.595955393717105
 20
70.732439682205182
 11
-77.011450087471914
 21
70.186417352306606
  0
LINE
  8
0
  6
CONTINUOUS
 62
256
 10
-78.030282018698188
 20
71.355392064610584
 11
-77.595955393717105
 21
70.732439682205182
  0
LINE
  8
0
  6
CONTINUOUS
 62
256
 10
-78.297739033790322
 20
72.031334788822676
 11
-78.030282018698188
 21
71.355392064610584
  0
LINE
  8
0
  6
CONTINUOUS
 62
256
 10
-78.388048215895139
 20
72.734291755023037
 11
-78.297739033790322
 21
72.031334788822676
  0
LINE
  8
0
  6
CONTINUOUS
 62
256
 10
-78.297739033790322
 20
73.437248721223398
 11
-78.388048215895139
 21
72.734291755023037
  0
LINE
  8
0
  6
CONTINUOUS
 62
256
 10
-78.030282018698188
 20
74.113191445435490
 11
-78.297739033790322
 21
73.437248721223398
  0
LINE
  8
0
  6
CONTINUOUS
 62
256
 10
-77.595955393717105
 20
74.736143827840891
 11
-78.030282018698188
 21
74.113191445435490
  0
LINE
  8
0
  6
CONTINUOUS
 62
256
 10
-77.011450087471914
 20
75.282166157739468
 11
-77.595955393717105
 21
74.736143827840891
  0
LINE
  8
0
  6
CONTINUOUS
 62
256
 10
-76.299228311087276
 20
75.730275103206083
 11
-77.011450087471914
 21
75.282166157739468
  0
LINE
  8
0
  6
CONTINUOUS
 62
256
 10
-75.486660348011071
 20
76.063250088768854
 11
-76.299228311087276
 21
75.730275103206083
  0
LINE
  8
0
  6
CONTINUOUS
 62
256
 10
-74.604972729370957
 20
76.268295072467097
 11
-75.486660348011071
 21
76.063250088768854
  0
LINE
  8
0
  6
CONTINUOUS
 62
256
 10
-73.688048215895151
 20
76.337530290567869
 11
-74.604972729370957
 21
76.268295072467097
  0
LINE
  8
0
  6
CONTINUOUS
 62
256
 10
-72.771123702419345
 20
76.268295072467097
 11
-73.688048215895151
 21
76.337530290567869
  0
LINE
  8
0
  6
CONTINUOUS
 62
256
 10
-71.889436083779231
 20
76.063250088768854
 11
-72.771123702419345
 21
76.268295072467097
  0
LINE
  8
0
  6
CONTINUOUS
 62
256
 10
-71.076868120703026
 20
75.730275103206083
 11
-71.889436083779231
 21
76.063250088768854
  0
LINE
  8
0
  6
CONTINUOUS
 62
256
 10
-70.364646344318388
 20
75.282166157739468
 11
-71.076868120703026
 21
75.730275103206083
  0
LINE
  8
0
  6
CONTINUOUS
 62
256
 10
-69.780141038073197
 20
74.736143827840891
 11
-70.364646344318388
 21
75.282166157739468
  0
LINE
  8
0
  6
CONTINUOUS
 62
256
 10
-69.345814413092114
 20
74.113191445435490
 11
-69.780141038073197
 21
74.736143827840891
  0
LINE
  8
0
  6
CONTINUOUS
 62
256
 10
-69.078357397999980
 20
73.437248721223398
 11
-69.345814413092114
 21
74.113191445435490
  0
LINE
  8
0
  6
CONTINUOUS
 62
256
 10
-68.988048215895162
 20
72.734291755023037
 11
-69.078357397999980
 21
73.437248721223398
  0
LINE
  8
0
  6
CONTINUOUS
 62
256
 10
-75.688048215895378
 20
69.741916201022605
 11
-73.688048215895378
 21
70.917701686645501
  0
LINE
  8
0
  6
CONTINUOUS
 62
256
 10
-73.688048215895378
 20
70.917701686645501
 11
-71.688048215895378
 21
72.570343325768818
  0
LINE
  8
0
  6
CONTINUOUS
 62
256
 10
-71.688048215895378
 20
69.741916201022605
 11
-73.688048215895378
 21
70.917701686645501
  0
LINE
  8
0
  6
CONTINUOUS
 62
256
 10
-73.688048215895378
 20
70.917701686645501
 11
-75.688048215895378
 21
72.570343325768818
  0
LINE
  8
0
  6
CONTINUOUS
 62
256
 10
-62.688048215895378
 20
68.721926348561510
 11
-62.688048215895151
 21
120.061622709370550
  0
ARC
  8
0
  6
CONTINUOUS
 62
256
 10
-65.688048215895378
 20
68.721926348561624
 40
3.000000000000000
 50
270.000000000000000
 51
359.999999999997780
  0
LINE
  8
0
  6
CONTINUOUS
 62
256
 10
-69.688048215895378
 20
65.721926348561624
 11
-65.688048215895378
 21
65.721926348561624
  0
ARC
  8
0
  6
CONTINUOUS
 62
256
 10
-69.688048215895378
 20
62.721926348561624
 40
3.000000000000000
 50
90.000000000000000
 51
180.000000000000000
  0
LINE
  8
0
  6
CONTINUOUS
 62
256
 10
-72.688048215895378
 20
61.061622709370567
 11
-140.192893164988160
 21
61.061622709370567
  0
LINE
  8
0
  6
CONTINUOUS
 62
256
 10
-72.688048215895378
 20
61.061622709370567
 11
-72.688048215895378
 21
62.721926348561624
  0
LINE
  8
0
  6
CONTINUOUS
 62
256
 10
-70.488048215874187
 20
65.613292807527614
 11
-70.488048215874187
 21
29.561622709370567
  0
LINE
  8
0
  6
CONTINUOUS
 62
256
 10
-70.488048215874187
 20
62.561622709370567
 11
19.511951784125813
 21
62.561622709370567
  0
LINE
  8
0
  6
CONTINUOUS
 62
256
 10
-69.078357397999980
 20
166.685996697517740
 11
-68.988048215895162
 21
167.388953663718100
  0
LINE
  8
0
  6
CONTINUOUS
 62
256
 10
-69.345814413092114
 20
166.010053973305650
 11
-69.078357397999980
 21
166.685996697517740
  0
LINE
  8
0
  6
CONTINUOUS
 62
256
 10
-69.780141038073197
 20
165.387101590900240
 11
-69.345814413092114
 21
166.010053973305650
  0
LINE
  8
0
  6
CONTINUOUS
 62
256
 10
-70.364646344318388
 20
164.841079261001650
 11
-69.780141038073197
 21
165.387101590900240
  0
LINE
  8
0
  6
CONTINUOUS
 62
256
 10
-71.076868120703026
 20
164.392970315535020
 11
-70.364646344318388
 21
164.841079261001650
  0
LINE
  8
0
  6
CONTINUOUS
 62
256
 10
-71.889436083779231
 20
164.059995329972280
 11
-71.076868120703026
 21
164.392970315535020
  0
LINE
  8
0
  6
CONTINUOUS
 62
256
 10
-72.771123702419345
 20
163.854950346274020
 11
-71.889436083779231
 21
164.059995329972280
  0
LINE
  8
0
  6
CONTINUOUS
 62
256
 10
-73.688048215895151
 20
163.785715128173250
 11
-72.771123702419345
 21
163.854950346274020
  0
LINE
  8
0
  6
CONTINUOUS
 62
256
 10
-74.604972729370957
 20
163.854950346274020
 11
-73.688048215895151
 21
163.785715128173250
  0
LINE
  8
0
  6
CONTINUOUS
 62
256
 10
-75.486660348011071
 20
164.059995329972280
 11
-74.604972729370957
 21
163.854950346274020
  0
LINE
  8
0
  6
CONTINUOUS
 62
256
 10
-76.299228311087276
 20
164.392970315535020
 11
-75.486660348011071
 21
164.059995329972280
  0
LINE
  8
0
  6
CONTINUOUS
 62
256
 10
-77.011450087471914
 20
164.841079261001650
 11
-76.299228311087276
 21
164.392970315535020
  0
LINE
  8
0
  6
CONTINUOUS
 62
256
 10
-77.595955393717105
 20
165.387101590900240
 11
-77.011450087471914
 21
164.841079261001650
  0
LINE
  8
0
  6
CONTINUOUS
 62
256
 10
-78.030282018698188
 20
166.010053973305650
 11
-77.595955393717105
 21
165.387101590900240
  0
LINE
  8
0
  6
CONTINUOUS
 62
256
 10
-78.297739033790322
 20
166.685996697517740
 11
-78.030282018698188
 21
166.010053973305650
  0
LINE
  8
0
  6
CONTINUOUS
 62
256
 10
-78.388048215895139
 20
167.388953663718100
 11
-78.297739033790322
 21
166.685996697517740
  0
LINE
  8
0
  6
CONTINUOUS
 62
256
 10
-78.297739033790322
 20
168.091910629918460
 11
-78.388048215895139
 21
167.388953663718100
  0
LINE
  8
0
  6
CONTINUOUS
 62
256
 10
-78.030282018698188
 20
168.767853354130550
 11
-78.297739033790322
 21
168.091910629918460
  0
LINE
  8
0
  6
CONTINUOUS
 62
256
 10
-77.595955393717105
 20
169.390805736535950
 11
-78.030282018698188
 21
168.767853354130550
  0
LINE
  8
0
  6
CONTINUOUS
 62
256
 10
-77.011450087471914
 20
169.936828066434540
 11
-77.595955393717105
 21
169.390805736535950
  0
LINE
  8
0
  6
CONTINUOUS
 62
256
 10
-76.299228311087276
 20
170.384937011901170
 11
-77.011450087471914
 21
169.936828066434540
  0
LINE
  8
0
  6
CONTINUOUS
 62
256
 10
-75.486660348011071
 20
170.717911997463910
 11
-76.299228311087276
 21
170.384937011901170
  0
LINE
  8
0
  6
CONTINUOUS
 62
256
 10
-74.604972729370957
 20
170.922956981162170
 11
-75.486660348011071
 21
170.717911997463910
  0
LINE
  8
0
  6
CONTINUOUS
 62
256
 10
-73.688048215895151
 20
170.992192199262940
 11
-74.604972729370957
 21
170.922956981162170
  0
LINE
  8
0
  6
CONTINUOUS
 62
256
 10
-72.771123702419345
 20
170.922956981162170
 11
-73.688048215895151
 21
170.992192199262940
  0
LINE
  8
0
  6
CONTINUOUS
 62
256
 10
-71.889436083779231
 20
170.717911997463910
 11
-72.771123702419345
 21
170.922956981162170
  0
LINE
  8
0
  6
CONTINUOUS
 62
256
 10
-71.076868120703026
 20
170.384937011901170
 11
-71.889436083779231
 21
170.717911997463910
  0
LINE
  8
0
  6
CONTINUOUS
 62
256
 10
-70.364646344318388
 20
169.936828066434540
 11
-71.076868120703026
 21
170.384937011901170
  0
LINE
  8
0
  6
CONTINUOUS
 62
256
 10
-69.780141038073197
 20
169.390805736535950
 11
-70.364646344318388
 21
169.936828066434540
  0
LINE
  8
0
  6
CONTINUOUS
 62
256
 10
-69.345814413092114
 20
168.767853354130550
 11
-69.780141038073197
 21
169.390805736535950
  0
LINE
  8
0
  6
CONTINUOUS
 62
256
 10
-69.078357397999980
 20
168.091910629918460
 11
-69.345814413092114
 21
168.767853354130550
  0
LINE
  8
0
  6
CONTINUOUS
 62
256
 10
-68.988048215895162
 20
167.388953663718100
 11
-69.078357397999980
 21
168.091910629918460
  0
LINE
  8
0
  6
CONTINUOUS
 62
256
 10
-75.688048215895378
 20
170.381329217718530
 11
-73.688048215895378
 21
169.205543732095750
  0
LINE
  8
0
  6
CONTINUOUS
 62
256
 10
-73.688048215895378
 20
169.205543732095750
 11
-71.688048215895378
 21
167.552902092972320
  0
LINE
  8
0
  6
CONTINUOUS
 62
256
 10
-71.688048215895378
 20
170.381329217718530
 11
-73.688048215895378
 21
169.205543732095750
  0
LINE
  8
0
  6
CONTINUOUS
 62
256
 10
-73.688048215895378
 20
169.205543732095750
 11
-75.688048215895378
 21
167.552902092972320
  0
LINE
  8
0
  6
CONTINUOUS
 62
256
 10
-62.688048215895378
 20
179.061622709370570
 11
-62.688048215895151
 21
120.061622709370550
  0
ARC
  8
0
  6
CONTINUOUS
 62
256
 10
-140.192893164988160
 20
158.461622709370540
 40
20.600000000000023
 50
90.000000000000000
 51
124.999999999999630
  0
ARC
  8
0
  6
CONTINUOUS
 62
256
 10
-158.088048215895470
 20
167.905242842999880
 40
2.600000000000131
 50
125.000000000001180
 51
180.000000000000000
  0
LINE
  8
0
  6
CONTINUOUS
 62
256
 10
-160.688048215895380
 20
167.905242842999880
 11
-160.688048215895380
 21
120.061622709370550
  0
LINE
  8
0
  6
CONTINUOUS
 62
256
 10
-152.008567753819530
 20
175.336154821723770
 11
-159.579346950408310
 21
170.035038158151220
  0
LINE
  8
0
  6
CONTINUOUS
 62
256
 10
-62.688048215895378
 20
179.061622709370570
 11
-140.192893164988160
 21
179.061622709370570
  0
LINE
  8
0
  6
CONTINUOUS
 62
256
 10
57.811951784125768
 20
66.561622709370567
 11
57.811951784125768
 21
120.061622709370550
  0
LINE
  8
0
  6
CONTINUOUS
 62
256
 10
-62.688048215895378
 20
106.061622709370550
 11
57.811951784125768
 21
106.061622709370550
  0
LINE
  8
0
  6
CONTINUOUS
 62
256
 10
-62.688048215895151
 20
101.675507917620620
 11
57.811951784125768
 21
101.675507917620620
  0
LINE
  8
0
  6
CONTINUOUS
 62
256
 10
-62.688048215895151
 20
100.433588052732720
 11
57.811951784125768
 21
100.433588052732720
  0
LINE
  8
0
  6
CONTINUOUS
 62
256
 10
-62.688048215895151
 20
97.223383029374418
 11
57.811951784125768
 21
97.223383029374418
  0
LINE
  8
0
  6
CONTINUOUS
 62
256
 10
-62.688048215895378
 20
95.876981303875823
 11
57.811951784125768
 21
95.876981303875809
  0
LINE
  8
0
  6
CONTINUOUS
 62
256
 10
-62.688048215895378
 20
92.784250312210588
 11
57.811951784125768
 21
92.784250312210588
  0
LINE
  8
0
  6
CONTINUOUS
 62
256
 10
-62.688048215895378
 20
91.305227158733487
 11
57.811951784125768
 21
91.305227158733487
  0
LINE
  8
0
  6
CONTINUOUS
 62
256
 10
-62.688048215895378
 20
88.347231550600554
 11
57.811951784125768
 21
88.347231550600554
  0
LINE
  8
0
  6
CONTINUOUS
 62
256
 10
-62.688048215895378
 20
86.758021757861798
 11
57.811951784125768
 21
86.758021757861798
  0
LINE
  8
0
  6
CONTINUOUS
 62
256
 10
57.811951784125768
 20
173.561622709370570
 11
57.811951784125768
 21
120.061622709370550
  0
LINE
  8
0
  6
CONTINUOUS
 62
256
 10
-62.688048215895378
 20
171.061622709370570
 11
57.811951784125768
 21
171.061622709370570
  0
LINE
  8
0
  6
CONTINUOUS
 62
256
 10
-62.688048215895378
 20
170.561622709370570
 11
57.811951784125768
 21
170.561622709370570
  0
LINE
  8
0
  6
CONTINUOUS
 62
256
 10
-62.688048215895378
 20
166.194705304253260
 11
57.811951784125768
 21
166.194705304253260
  0
LINE
  8
0
  6
CONTINUOUS
 62
256
 10
-62.688048215895378
 20
161.103536479710330
 11
57.811951784125768
 21
161.103536479710330
  0
LINE
  8
0
  6
CONTINUOUS
 62
256
 10
-62.688048215895378
 20
153.365223660879340
 11
57.811951784125768
 21
153.365223660879340
  0
LINE
  8
0
  6
CONTINUOUS
 62
256
 10
-62.688048215895378
 20
151.776013868140580
 11
57.811951784125768
 21
151.776013868140580
  0
LINE
  8
0
  6
CONTINUOUS
 62
256
 10
-62.688048215895378
 20
148.818018260007650
 11
57.811951784125768
 21
148.818018260007650
  0
LINE
  8
0
  6
CONTINUOUS
 62
256
 10
-62.688048215895378
 20
147.338995106530550
 11
57.811951784125768
 21
147.338995106530550
  0
LINE
  8
0
  6
CONTINUOUS
 62
256
 10
-62.688048215895378
 20
144.246264114865310
 11
57.811951784125768
 21
144.246264114865310
  0
LINE
  8
0
  6
CONTINUOUS
 62
256
 10
-62.688048215895378
 20
142.899862389366720
 11
57.811951784125768
 21
142.899862389366720
  0
LINE
  8
0
  6
CONTINUOUS
 62
256
 10
-62.688048215895378
 20
138.447737501120510
 11
57.811951784125768
 21
138.447737501120510
  0
LINE
  8
0
  6
CONTINUOUS
 62
256
 10
-62.688048215895378
 20
139.689657366008420
 11
57.811951784125768
 21
139.689657366008420
  0
LINE
  8
0
  6
CONTINUOUS
 62
256
 10
-62.688048215895378
 20
134.061622709370570
 11
57.811951784125768
 21
134.061622709370570
  0
LINE
  8
0
  6
CONTINUOUS
 62
256
 10
57.811951784125768
 20
173.561622709370570
 11
-62.688048215895378
 21
173.561622709370570
  0
LINE
  8
0
  6
CONTINUOUS
 62
256
 10
77.311951784125768
 20
156.311621755697160
 11
77.311951784125768
 21
182.561622709371480
  0
LINE
  8
0
  6
CONTINUOUS
 62
256
 10
78.311951784125768
 20
157.311622709371480
 11
78.911951784126131
 21
157.311622709371480
  0
LINE
  8
0
  6
CONTINUOUS
 62
256
 10
79.311951784125768
 20
156.911622709371840
 11
79.311951784125768
 21
147.211622709372020
  0
ARC
  8
0
  6
CONTINUOUS
 62
256
 10
78.911951784126131
 20
156.911622709371840
 40
0.399999999999636
 50
0.000000000000000
 51
90.000000000000000
  0
ARC
  8
0
  6
CONTINUOUS
 62
256
 10
78.311951784125768
 20
158.311622709371480
 40
1.000000000000000
 50
180.000000000000000
 51
270.000000000000000
  0
LINE
  8
0
  6
CONTINUOUS
 62
256
 10
78.311951784125768
 20
146.811622709371480
 11
78.911951784126131
 21
146.811622709371480
  0
ARC
  8
0
  6
CONTINUOUS
 62
256
 10
78.911951784126131
 20
147.211622709372020
 40
0.400000000000546
 50
270.000000000000000
 51
0.000000000000000
  0
ARC
  8
0
  6
CONTINUOUS
 62
256
 10
78.311951784125768
 20
145.811622709371480
 40
1.000000000000000
 50
90.000000000000000
 51
180.000000000000000
  0
ARC
  8
0
  6
CONTINUOUS
 62
256
 10
76.311951784125768
 20
170.061622709371480
 40
1.000000000000000
 50
270.000000000000000
 51
0.000000000000000
  0
ARC
  8
0
  6
CONTINUOUS
 62
256
 10
77.811951784125768
 20
182.561622709371480
 40
0.500000000000000
 50
90.000000000000000
 51
180.000000000000000
  0
ARC
  8
0
  6
CONTINUOUS
 62
256
 10
66.811951784125768
 20
177.061622709371480
 40
7.999999999999964
 50
207.975174367152760
 51
270.000000000000000
  0
ARC
  8
0
  6
CONTINUOUS
 62
256
 10
59.305168905904566
 20
173.074366657993780
 40
0.500000000000217
 50
27.975174367227915
 51
91.499999999989853
  0
ARC
  8
0
  6
CONTINUOUS
 62
256
 10
59.311951784125768
 20
173.074544273910760
 40
0.500000000000872
 50
91.499999999987068
 51
180.000000000000000
  0
ARC
  8
0
  6
CONTINUOUS
 62
256
 10
58.311951784125768
 20
173.087980027185950
 40
0.499999999999054
 50
271.499999999992550
 51
0.000000000000000
  0
LINE
  8
0
  6
CONTINUOUS
 62
256
 10
84.311951784125768
 20
183.061622709371480
 11
84.311951784125768
 21
120.061622709371480
  0
LINE
  8
0
  6
CONTINUOUS
 62
256
 10
77.311951784125768
 20
120.061622709371480
 11
77.311951784125768
 21
147.811623663045790
  0
LINE
  8
0
  6
CONTINUOUS
 62
256
 10
76.311951784125768
 20
169.061622709371480
 11
66.811951784125768
 21
169.061622709371480
  0
LINE
  8
0
  6
CONTINUOUS
 62
256
 10
84.811951784125881
 20
183.061622709371480
 11
77.811951784125768
 21
183.061622709371480
  0
LINE
  8
0
  6
CONTINUOUS
 62
256
 10
57.811951784125768
 20
120.061622709371480
 11
57.811951784125768
 21
172.561622709371480
  0
LINE
  8
0
  6
CONTINUOUS
 62
256
 10
58.325040258279614
 20
172.588151364699120
 11
57.811951784125768
 21
172.561622709371480
  0
LINE
  8
0
  6
CONTINUOUS
 62
256
 10
58.811951784125768
 20
173.074544273910760
 11
58.811951784125768
 21
120.061622709371480
  0
LINE
  8
0
  6
CONTINUOUS
 62
256
 10
74.311951784125768
 20
179.561622709371480
 11
74.311951784125768
 21
171.061622709371480
  0
ARC
  8
0
  6
CONTINUOUS
 62
256
 10
72.311951784125768
 20
171.061622709371480
 40
2.000000000000000
 50
270.000000000000000
 51
0.000000000000000
  0
LINE
  8
0
  6
CONTINUOUS
 62
256
 10
76.811951784125768
 20
180.061622709371480
 11
74.811951784125768
 21
180.061622709371480
  0
ARC
  8
0
  6
CONTINUOUS
 62
256
 10
74.811951784125768
 20
179.561622709371480
 40
0.500000000000000
 50
90.000000000000000
 51
180.000000000000000
  0
ARC
  8
0
  6
CONTINUOUS
 62
256
 10
76.811951784125768
 20
180.561622709371480
 40
0.500000000000000
 50
270.000000000000000
 51
0.000000000000000
  0
LINE
  8
0
  6
CONTINUOUS
 62
256
 10
74.311951784125768
 20
179.561622709371480
 11
74.311951784125768
 21
182.311605776936630
  0
LINE
  8
0
  6
CONTINUOUS
 62
256
 10
77.311951784125881
 20
182.311605776936630
 11
74.311951784125768
 21
182.311605776936630
  0
LINE
  8
0
  6
CONTINUOUS
 62
256
 10
77.311951784125768
 20
83.811623663045793
 11
77.311951784125768
 21
57.561622709371477
  0
LINE
  8
0
  6
CONTINUOUS
 62
256
 10
78.311951784125768
 20
82.811622709371477
 11
78.911951784126131
 21
82.811622709371477
  0
LINE
  8
0
  6
CONTINUOUS
 62
256
 10
79.311951784125768
 20
83.211622709372023
 11
79.311951784125768
 21
92.911622709371841
  0
ARC
  8
0
  6
CONTINUOUS
 62
256
 10
78.911951784126131
 20
83.211622709372023
 40
0.400000000000546
 50
270.000000000000000
 51
0.000000000000000
  0
ARC
  8
0
  6
CONTINUOUS
 62
256
 10
78.311951784125768
 20
81.811622709371477
 40
1.000000000000000
 50
90.000000000000000
 51
180.000000000000000
  0
LINE
  8
0
  6
CONTINUOUS
 62
256
 10
78.311951784125768
 20
93.311622709371477
 11
78.911951784126131
 21
93.311622709371477
  0
ARC
  8
0
  6
CONTINUOUS
 62
256
 10
78.911951784126131
 20
92.911622709371841
 40
0.399999999999636
 50
0.000000000000000
 51
90.000000000000000
  0
ARC
  8
0
  6
CONTINUOUS
 62
256
 10
78.311951784125768
 20
94.311622709371477
 40
1.000000000000000
 50
180.000000000000000
 51
270.000000000000000
  0
ARC
  8
0
  6
CONTINUOUS
 62
256
 10
76.311951784125768
 20
70.061622709371477
 40
1.000000000000000
 50
0.000000000000000
 51
90.000000000000000
  0
ARC
  8
0
  6
CONTINUOUS
 62
256
 10
77.811951784125768
 20
57.561622709371477
 40
0.500000000000000
 50
180.000000000000000
 51
270.000000000000000
  0
ARC
  8
0
  6
CONTINUOUS
 62
256
 10
66.811951784125768
 20
63.061622709371477
 40
8.000000000000000
 50
90.000000000000000
 51
152.024825632841500
  0
ARC
  8
0
  6
CONTINUOUS
 62
256
 10
59.305168905904566
 20
67.048878760750085
 40
0.499999999999963
 50
268.500000000010170
 51
332.024825632771410
  0
ARC
  8
0
  6
CONTINUOUS
 62
256
 10
59.311951784125768
 20
67.048701144832194
 40
0.500000000000000
 50
180.000000000000000
 51
268.500000000010350
  0
ARC
  8
0
  6
CONTINUOUS
 62
256
 10
58.311951784125768
 20
67.035265391557004
 40
0.500000000000000
 50
0.000000000000000
 51
88.500000000010331
  0
LINE
  8
0
  6
CONTINUOUS
 62
256
 10
84.311951784125768
 20
57.061622709371477
 11
84.311951784125768
 21
120.061622709371480
  0
LINE
  8
0
  6
CONTINUOUS
 62
256
 10
77.311951784125768
 20
120.061622709371480
 11
77.311951784125768
 21
92.311621755697161
  0
LINE
  8
0
  6
CONTINUOUS
 62
256
 10
76.311951784125768
 20
71.061622709371477
 11
66.811951784125768
 21
71.061622709371477
  0
LINE
  8
0
  6
CONTINUOUS
 62
256
 10
84.811951784125881
 20
57.061622709371477
 11
77.811951784125768
 21
57.061622709371477
  0
LINE
  8
0
  6
CONTINUOUS
 62
256
 10
57.811951784125768
 20
120.061622709372390
 11
57.811951784125768
 21
67.561622709371477
  0
LINE
  8
0
  6
CONTINUOUS
 62
256
 10
58.325040258279614
 20
67.535094054044748
 11
57.811951784125768
 21
67.561622709371477
  0
LINE
  8
0
  6
CONTINUOUS
 62
256
 10
58.811951784125768
 20
67.048701144832194
 11
58.811951784125768
 21
120.061622709371480
  0
LINE
  8
0
  6
CONTINUOUS
 62
256
 10
74.311951784125768
 20
60.561622709371477
 11
74.311951784125768
 21
69.061622709371477
  0
ARC
  8
0
  6
CONTINUOUS
 62
256
 10
72.311951784125768
 20
69.061622709371477
 40
2.000000000000000
 50
0.000000000000000
 51
90.000000000000000
  0
LINE
  8
0
  6
CONTINUOUS
 62
256
 10
76.811951784125768
 20
60.061622709371477
 11
74.811951784125768
 21
60.061622709371477
  0
ARC
  8
0
  6
CONTINUOUS
 62
256
 10
74.811951784125768
 20
60.561622709371477
 40
0.500000000000000
 50
180.000000000000000
 51
270.000000000000000
  0
ARC
  8
0
  6
CONTINUOUS
 62
256
 10
76.811951784125768
 20
59.561622709371477
 40
0.500000000000000
 50
0.000000000000000
 51
90.000000000000000
  0
LINE
  8
0
  6
CONTINUOUS
 62
256
 10
74.311951784125768
 20
60.561622709371477
 11
74.311951784125768
 21
57.811639641807233
  0
LINE
  8
0
  6
CONTINUOUS
 62
256
 10
77.311951784125881
 20
57.811639641807233
 11
74.311951784125768
 21
57.811639641807233
  0
LINE
  8
0
  6
CONTINUOUS
 62
256
 10
139.811951784102230
 20
112.211622709370200
 11
139.811951784102230
 21
110.061622709370380
  0
LINE
  8
0
  6
CONTINUOUS
 62
256
 10
141.371759405237190
 20
112.211622709370200
 11
141.931567026372590
 21
112.061622709370550
  0
LINE
  8
0
  6
CONTINUOUS
 62
256
 10
141.371759405237190
 20
112.211622709370200
 11
139.211951784101870
 21
112.211622709370200
  0
LINE
  8
0
  6
CONTINUOUS
 62
256
 10
138.511951784102050
 20
128.561630148032240
 11
138.815559255851330
 21
128.258022676282960
  0
ARC
  8
0
  6
CONTINUOUS
 62
256
 10
139.211951784101870
 20
128.311622709370570
 40
0.399999999999814
 50
187.700803502457570
 51
270.000000000000000
  0
LINE
  8
0
  6
CONTINUOUS
 62
256
 10
138.811951784102230
 20
120.061622709370550
 11
138.811951784102230
 21
128.261630148032050
  0
LINE
  8
0
  6
CONTINUOUS
 62
256
 10
136.811951784125880
 20
128.561630148032240
 11
138.511951784102050
 21
128.561630148032240
  0
LINE
  8
0
  6
CONTINUOUS
 62
256
 10
136.811951784125880
 20
111.561615270708880
 11
138.511951784102050
 21
111.561615270708880
  0
LINE
  8
0
  6
CONTINUOUS
 62
256
 10
138.511951784102050
 20
111.561615270708880
 11
138.815559255851330
 21
111.865222742458170
  0
ARC
  8
0
  6
CONTINUOUS
 62
256
 10
139.211951784101870
 20
111.811622709370550
 40
0.399999999999636
 50
90.000000000000000
 51
172.299196497543190
  0
LINE
  8
0
  6
CONTINUOUS
 62
256
 10
141.371759405237190
 20
127.911622709370930
 11
141.931567026372590
 21
128.061622709370570
  0
LINE
  8
0
  6
CONTINUOUS
 62
256
 10
141.371759405237190
 20
127.911622709370930
 11
139.211951784101870
 21
127.911622709370930
  0
LINE
  8
0
  6
CONTINUOUS
 62
256
 10
138.811951784102230
 20
120.061622709370550
 11
138.811951784102230
 21
111.861615270709080
  0
LINE
  8
0
  6
CONTINUOUS
 62
256
 10
163.811951784102230
 20
120.061622709370550
 11
163.811951784102230
 21
127.661622709370930
  0
LINE
  8
0
  6
CONTINUOUS
 62
256
 10
163.411951784102140
 20
128.061622709370570
 11
141.931567026372590
 21
128.061622709370570
  0
LINE
  8
0
  6
CONTINUOUS
 62
256
 10
163.811951784102230
 20
110.061622709370380
 11
139.811951784102230
 21
110.061622709370380
  0
LINE
  8
0
  6
CONTINUOUS
 62
256
 10
163.811951784102230
 20
110.061622709370380
 11
163.811951784102230
 21
112.461622709370200
  0
ARC
  8
0
  6
CONTINUOUS
 62
256
 10
163.411951784102140
 20
112.461622709370200
 40
0.399999999999636
 50
270.000000000000000
 51
0.000000000000000
  0
ARC
  8
0
  6
CONTINUOUS
 62
256
 10
163.411951784102140
 20
127.661622709370930
 40
0.400000000000091
 50
0.000000000000000
 51
90.000000000000000
  0
LINE
  8
0
  6
CONTINUOUS
 62
256
 10
163.411951784102140
 20
112.061622709370550
 11
141.931567026372590
 21
112.061622709370550
  0
LINE
  8
0
  6
CONTINUOUS
 62
256
 10
163.811951784102230
 20
120.061622709370550
 11
163.811951784102230
 21
112.461622709370200
  0
LINE
  8
0
  6
CONTINUOUS
 62
256
 10
116.818043513935090
 20
176.712627742345830
 11
116.810152487477230
 21
176.938597174653300
  0
LINE
  8
0
  6
CONTINUOUS
 62
256
 10
84.811951784125881
 20
120.061622709370550
 11
84.811951784125881
 21
57.061616025203875
  0
LINE
  8
0
  6
CONTINUOUS
 62
256
 10
84.811951784125881
 20
120.061622709370550
 11
84.811951784125881
 21
183.079089778283560
  0
LINE
  8
0
  6
DASHDOT
 62
256
 10
66.811951784125881
 20
170.561622709370570
 11
66.811951784125881
 21
183.561622709370570
  0
LINE
  8
0
  6
DASHDOT
 62
256
 10
60.311951784125881
 20
177.061622709370570
 11
73.311951784125881
 21
177.061622709370570
  0
LINE
  8
0
  6
CONTINUOUS
 62
256
 10
134.811951784125880
 20
120.061622709370550
 11
134.811951784125880
 21
163.521881157791540
  0
LINE
  8
0
  6
CONTINUOUS
 62
256
 10
136.811951784125880
 20
120.061622709370550
 11
136.811951784125880
 21
183.101229433529620
  0
LINE
  8
0
  6
CONTINUOUS
 62
256
 10
131.684529574404560
 20
166.891468543525660
 11
126.811951784125430
 21
167.061622709370570
  0
LINE
  8
0
  6
CONTINUOUS
 62
256
 10
85.344169193781340
 20
57.061616025203875
 11
84.811951784125881
 21
57.061616025203875
  0
LINE
  8
0
  6
CONTINUOUS
 62
256
 10
97.811951784124517
 20
57.515586028596772
 11
84.811951784125881
 21
57.061616025203875
  0
LINE
  8
0
  6
CONTINUOUS
 62
256
 10
97.811951784124517
 20
182.607659390144360
 11
84.811951784125881
 21
183.061629393537260
  0
LINE
  8
0
  6
DASHDOT
 62
256
 10
134.974345120450270
 20
63.061622709370567
 11
119.379001027091230
 21
63.061622709370567
  0
LINE
  8
0
  6
DASHDOT
 62
256
 10
66.811951784125881
 20
69.561622709370567
 11
66.811951784125881
 21
56.561622709370567
  0
LINE
  8
0
  6
DASHDOT
 62
256
 10
60.311951784125881
 20
63.061622709370567
 11
73.311951784125881
 21
63.061622709370567
  0
LINE
  8
0
  6
CONTINUOUS
 62
256
 10
134.811951784125880
 20
120.061622709370550
 11
134.811951784125880
 21
76.601364260949595
  0
LINE
  8
0
  6
CONTINUOUS
 62
256
 10
131.684529574404560
 20
73.231776875215473
 11
126.811951784125430
 21
73.061622709370567
  0
LINE
  8
0
  6
CONTINUOUS
 62
256
 10
86.811951784125881
 20
186.061629393537260
 11
134.851943786525110
 21
185.100829553489350
  0
LINE
  8
0
  6
CONTINUOUS
 62
256
 10
86.811951784125881
 20
54.061616025203875
 11
134.851943786525110
 21
55.022415865251787
  0
LINE
  8
0
  6
CONTINUOUS
 62
256
 10
136.811951784125880
 20
120.061622709370550
 11
136.811951784125880
 21
57.022015985211510
  0
LINE
  8
0
  6
CONTINUOUS
 62
256
 10
58.745322123660912
 20
185.126075071521880
 11
86.811951784125881
 21
186.061629393537260
  0
LINE
  8
0
  6
CONTINUOUS
 62
256
 10
58.745322123660912
 20
54.997170347219253
 11
86.811951784125881
 21
54.061616025203875
  0
ARC
  8
0
  6
CONTINUOUS
 62
256
 10
58.811951784125881
 20
56.996060161177411
 40
2.000000000000000
 50
180.000000000000000
 51
268.090847567012250
  0
ARC
  8
0
  6
CONTINUOUS
 62
256
 10
134.811951784125880
 20
57.022015985211510
 40
1.999999999999710
 50
271.145762838176150
 51
0.000000000000000
  0
ARC
  8
0
  6
CONTINUOUS
 62
256
 10
134.811951784125880
 20
183.101229433529620
 40
2.000000000000000
 50
0.000000000000000
 51
88.854237161824017
  0
ARC
  8
0
  6
CONTINUOUS
 62
256
 10
58.811951784125881
 20
183.127185257563720
 40
1.999999999999839
 50
91.909152432987696
 51
180.000000000000000
  0
ARC
  8
0
  6
CONTINUOUS
 62
256
 10
135.811951784125880
 20
99.061622709370567
 40
1.000000000000000
 50
90.000000000000000
 51
163.398450400950540
  0
ARC
  8
0
  6
CONTINUOUS
 62
256
 10
135.811951784125880
 20
101.061622709370550
 40
1.000000000000000
 50
270.000000000000000
 51
0.000000000000000
  0
ARC
  8
0
  6
CONTINUOUS
 62
256
 10
131.614730580999440
 20
164.892686889487780
 40
2.000000000000186
 50
42.219307289537625
 51
87.999999999995723
  0
ARC
  8
0
  6
CONTINUOUS
 62
256
 10
96.066976948999013
 20
132.638118039189980
 40
50.000000000000334
 50
40.046696754626673
 51
42.219307289536644
  0
CIRCLE
  8
0
  6
CONTINUOUS
 62
256
 10
66.811951784125881
 20
177.061622709370570
 40
3.500000000000000
  0
CIRCLE
  8
0
  6
CONTINUOUS
 62
256
 10
126.811951784125880
 20
177.061622709370570
 40
3.500000000000000
  0
CIRCLE
  8
0
  6
CONTINUOUS
 62
256
 10
66.811951784125881
 20
177.061622709370570
 40
3.500000000000000
  0
ARC
  8
0
  6
CONTINUOUS
 62
256
 10
135.811951784125880
 20
141.061622709370570
 40
0.999999999999645
 50
196.601549599049580
 51
270.000000000000000
  0
ARC
  8
0
  6
CONTINUOUS
 62
256
 10
135.811951784125880
 20
139.061622709370570
 40
1.000000000000000
 50
0.000000000000000
 51
90.000000000000000
  0
ARC
  8
0
  6
CONTINUOUS
 62
256
 10
96.066976948999013
 20
107.485127379551140
 40
49.999999999999616
 50
272.000000000000510
 51
292.989886801797520
  0
ARC
  8
0
  6
CONTINUOUS
 62
256
 10
131.614730580999440
 20
75.230558529253358
 40
1.999999999999698
 50
272.000000000003920
 51
317.780692710462180
  0
ARC
  8
0
  6
CONTINUOUS
 62
256
 10
96.066976948999013
 20
107.485127379551140
 40
50.000000000000199
 50
317.780692710463370
 51
319.953303245374120
  0
ARC
  8
0
  6
CONTINUOUS
 62
256
 10
114.814271926972990
 20
63.297584666600414
 40
1.999999999999803
 50
292.989886801789740
 51
358.873292028276640
  0
ARC
  8
0
  6
CONTINUOUS
 62
256
 10
126.811951784125880
 20
63.061622709370567
 40
9.999999999999954
 50
97.216447257426452
 51
169.206675526603420
  0
CIRCLE
  8
0
  6
CONTINUOUS
 62
256
 10
66.811951784125881
 20
63.061622709370567
 40
3.500000000000000
  0
CIRCLE
  8
0
  6
CONTINUOUS
 62
256
 10
126.811951784125880
 20
63.061622709370567
 40
3.500000000000000
  0
CIRCLE
  8
0
  6
CONTINUOUS
 62
256
 10
66.811951784125881
 20
63.061622709370567
 40
3.500000000000000
  0
ARC
  8
0
  6
CONTINUOUS
 62
256
 10
126.811951784125880
 20
63.061622709370567
 40
10.000000000000000
 50
90.000000000000000
 51
178.873292028281720
  0
ARC
  8
0
  6
CONTINUOUS
 62
256
 10
96.066976948999013
 20
132.638118039189980
 40
49.999999999999957
 50
67.010113198202461
 51
87.999999999999460
  0
ARC
  8
0
  6
CONTINUOUS
 62
256
 10
114.814271926972990
 20
176.825660752140720
 40
2.000000000000022
 50
1.126707971723436
 51
67.010113198210234
  0
ARC
  8
0
  6
CONTINUOUS
 62
256
 10
126.811951784125880
 20
177.061622709370570
 40
9.999999999999819
 50
181.999999999998470
 51
270.000000000000000
  0
ARC
  8
0
  6
CONTINUOUS
 62
256
 10
132.811951784125880
 20
163.521881157791540
 40
2.000000000000000
 50
0.000000000000000
 51
40.046696754622253
  0
ARC
  8
0
  6
CONTINUOUS
 62
256
 10
132.811951784125880
 20
76.601364260949595
 40
1.999999999999740
 50
319.953303245398050
 51
0.000000000000000
  0
LINE
  8
0
  6
CONTINUOUS
 62
256
 10
79.311951784125768
 20
92.311621755697161
 11
74.311951784125768
 21
92.311621755697161
  0
LINE
  8
0
  6
CONTINUOUS
 62
256
 10
79.311951784125768
 20
83.811623663045793
 11
74.311951784125768
 21
83.811623663045793
  0
LINE
  8
0
  6
CONTINUOUS
 62
256
 10
74.311951784125768
 20
92.311621755697161
 11
74.311951784125768
 21
83.811623663045793
  0
LINE
  8
0
  6
CONTINUOUS
 62
256
 10
79.311951784125768
 20
147.811623663045790
 11
74.311951784125768
 21
147.811623663045790
  0
LINE
  8
0
  6
CONTINUOUS
 62
256
 10
79.311951784125768
 20
156.311621755697160
 11
74.311951784125768
 21
156.311621755697160
  0
LINE
  8
0
  6
CONTINUOUS
 62
256
 10
74.311951784125768
 20
147.811623663045790
 11
74.311951784125768
 21
156.311621755697160
  0
LINE
  8
0
  6
DASHDOT
 62
256
 10
-293.945210573939330
 20
-26.122600610685708
 11
-293.945210573939330
 21
-155.521088502121420
  0
LINE
  8
0
  6
DASHDOT
 62
256
 10
-367.758147721192590
 20
-92.286093360070481
 11
-187.698911068549930
 21
-92.286093360070481
  0
LINE
  8
0
  6
DASHDOT
 62
256
 10
-312.232804407150980
 20
-77.286093360070367
 11
-276.064063958467160
 21
-77.286093360070367
  0
ARC
  8
0
  6
CONTINUOUS
 62
256
 10
-265.708556357020370
 20
-108.377760026737060
 40
35.499999999999986
 50
308.712608107085200
 51
314.999999999999320
  0
LINE
  8
0
  6
CONTINUOUS
 62
256
 10
-250.445203889772760
 20
-147.286093360070370
 11
-250.445203889772760
 21
-142.904394808453840
  0
ARC
  8
0
  6
CONTINUOUS
 62
256
 10
-259.945226552700430
 20
-142.786093360070370
 40
7.000000000000026
 50
319.994853367676850
 51
348.763010699952590
  0
LINE
  8
0
  6
CONTINUOUS
 62
256
 10
-259.945212876130880
 20
-145.095490560917370
 11
-260.330141243473520
 21
-144.873251362313680
  0
LINE
  8
0
  6
CONTINUOUS
 62
256
 10
-259.426731828367450
 20
-144.796146634967840
 11
-259.945212517830560
 21
-145.095490885278480
  0
ARC
  8
0
  6
CONTINUOUS
 62
256
 10
-259.945210573939220
 20
-142.786093360070480
 40
4.249999046325112
 50
213.421052387187270
 51
336.366492255661850
  0
ARC
  8
0
  6
CONTINUOUS
 62
256
 10
-259.945226552700660
 20
-142.786093360070370
 40
7.000000000000505
 50
201.417537750194010
 51
220.005146632323260
  0
ARC
  8
0
  6
CONTINUOUS
 62
256
 10
-327.945194595178240
 20
-142.786093360070370
 40
7.000000000000026
 50
319.994853367676850
 51
338.582462249805870
  0
LINE
  8
0
  6
CONTINUOUS
 62
256
 10
-328.463651731138840
 20
-144.796149885932610
 11
-327.945176672525350
 21
-145.095490885278480
  0
LINE
  8
0
  6
CONTINUOUS
 62
256
 10
-327.945176314225140
 20
-145.095490560917370
 11
-327.560252014691740
 21
-144.873253710871840
  0
ARC
  8
0
  6
CONTINUOUS
 62
256
 10
-327.945178616416800
 20
-142.786093360070480
 40
4.249999046324948
 50
203.633554367305890
 51
326.578910144747740
  0
ARC
  8
0
  6
CONTINUOUS
 62
256
 10
-327.945194595178240
 20
-142.786093360070370
 40
7.000000000000036
 50
191.236989300047410
 51
220.005146632323090
  0
LINE
  8
0
  6
CONTINUOUS
 62
256
 10
-337.445217258106140
 20
-147.286093360070590
 11
-337.445217258106140
 21
-142.904394808453620
  0
ARC
  8
0
  6
CONTINUOUS
 62
256
 10
-322.181864790858530
 20
-108.377760026737290
 40
35.500000000000128
 50
225.000000000000630
 51
231.287391892914830
  0
LINE
  8
0
  6
CONTINUOUS
 62
256
 10
-350.144113971991150
 20
-127.791665185103620
 11
-351.087346197670290
 21
-126.848432959424490
  0
ARC
  8
0
  6
CONTINUOUS
 62
256
 10
-336.945210573939450
 20
-112.706297335693420
 40
20.000000000000000
 50
180.000000000000000
 51
225.000000000000450
  0
ARC
  8
0
  6
CONTINUOUS
 62
256
 10
-351.945178616416800
 20
-83.286093360070595
 40
4.249999046325202
 50
99.623734769746221
 51
256.934963210617070
  0
LINE
  8
0
  6
CONTINUOUS
 62
256
 10
-353.945177426638340
 20
-84.440792670807753
 11
-352.858540489228400
 21
-85.068161299956955
  0
LINE
  8
0
  6
CONTINUOUS
 62
256
 10
-353.945176702463870
 20
-82.131397604869051
 11
-352.749514225104350
 21
-81.441078474952064
  0
LINE
  8
0
  6
CONTINUOUS
 62
256
 10
-352.921818945249240
 20
-88.536093360070595
 11
-355.945194595178010
 21
-88.536093360070595
  0
LINE
  8
0
  6
CONTINUOUS
 62
256
 10
-352.607258625303640
 20
-78.036093360070595
 11
-355.788790266415500
 21
-78.036093360070595
  0
ARC
  8
0
  6
CONTINUOUS
 62
256
 10
-348.945194595178010
 20
-71.286093360070595
 40
5.000000000000000
 50
180.000000000000000
 51
225.659458187388340
  0
ARC
  8
0
  6
CONTINUOUS
 62
256
 10
-348.945194595178010
 20
-71.286093360070595
 40
4.999999999999968
 50
126.240697575483220
 51
180.000000000000000
  0
ARC
  8
0
  6
CONTINUOUS
 62
256
 10
-311.945210573939450
 20
-80.742725067840070
 40
44.999999999999986
 50
148.490164730418230
 51
180.000000000000000
  0
ARC
  8
0
  6
CONTINUOUS
 62
256
 10
-325.945194595178010
 20
-43.286093360070481
 40
4.249999046325360
 50
65.218588681291848
 51
124.030555795935090
  0
ARC
  8
0
  6
CONTINUOUS
 62
256
 10
-311.945210573939450
 20
-80.742725067840070
 40
44.999999999999915
 50
92.906384370709901
 51
115.154512373014270
  0
LINE
  8
0
  6
CONTINUOUS
 62
256
 10
-320.695194595178010
 20
-39.180203542490517
 11
-320.695194595178010
 21
-37.430630913897517
  0
LINE
  8
0
  6
CONTINUOUS
 62
256
 10
-267.195194595178010
 20
-39.180205681222390
 11
-267.195194595178010
 21
-37.430630913897517
  0
ARC
  8
0
  6
CONTINUOUS
 62
256
 10
-261.945194595178010
 20
-43.286093360070481
 40
4.249999046324875
 50
55.969368198859584
 51
114.781478127106790
  0
LINE
  8
0
  6
CONTINUOUS
 62
256
 10
-240.606265624897790
 20
-133.480050758859650
 11
-235.412308226108510
 21
-128.286093360070480
  0
ARC
  8
0
  6
CONTINUOUS
 62
256
 10
-232.945210573939450
 20
-129.286093360070370
 40
2.000000000000000
 50
0.000000000000000
 51
29.999999999996092
  0
LINE
  8
0
  6
CONTINUOUS
 62
256
 10
-230.945210573939450
 20
-128.286093360070480
 11
-230.945210573939450
 21
-134.044440439351890
  0
ARC
  8
0
  6
CONTINUOUS
 62
256
 10
-275.945210573939450
 20
-80.742725067840070
 40
45.000000000000014
 50
64.845487626985800
 51
87.093615629290099
  0
LINE
  8
0
  6
CONTINUOUS
 62
256
 10
-236.445210573939330
 20
-56.286093360070709
 11
-209.078545800996950
 21
-56.286093360070709
  0
LINE
  8
0
  6
CONTINUOUS
 62
256
 10
-236.445210573939330
 20
-128.286093360070480
 11
-209.078545800996950
 21
-128.286093360070480
  0
LINE
  8
0
  6
CONTINUOUS
 62
256
 10
-201.945210573939330
 20
-89.786093360070254
 11
-202.455627421457050
 21
-89.786093360070254
  0
LINE
  8
0
  6
CONTINUOUS
 62
256
 10
-201.945210573939330
 20
-94.786093360070481
 11
-201.945210573939330
 21
-89.786093360070481
  0
LINE
  8
0
  6
CONTINUOUS
 62
256
 10
-201.945210573939330
 20
-94.786093360070481
 11
-202.455627421457050
 21
-94.786093360070481
  0
ARC
  8
0
  6
CONTINUOUS
 62
256
 10
-209.078545800996950
 20
-123.286093360070480
 40
5.000000000000000
 50
270.000000000000000
 51
353.967950853629650
  0
ARC
  8
0
  6
CONTINUOUS
 62
256
 10
-209.078545800996950
 20
-61.286093360070709
 40
5.000000000000143
 50
6.032049146370343
 51
90.000000000000000
  0
ARC
  8
0
  6
CONTINUOUS
 62
256
 10
-502.445210573939330
 20
-92.286093360070481
 40
300.000000000000060
 50
353.967950853630270
 51
6.032049146369773
  0
ARC
  8
0
  6
CONTINUOUS
 62
256
 10
-290.445210573939330
 20
-74.629649777060877
 40
1.000000000000000
 50
180.000000000000000
 51
258.787728582356180
  0
LINE
  8
0
  6
CONTINUOUS
 62
256
 10
-291.445210573939330
 20
-71.579814119221965
 11
-291.445210573939330
 21
-74.629649777060877
  0
ARC
  8
0
  6
CONTINUOUS
 62
256
 10
-290.445210573939330
 20
-71.579814119221965
 40
1.000000000000268
 50
80.405931773124522
 51
180.000000000000000
  0
ARC
  8
0
  6
CONTINUOUS
 62
256
 10
-290.445210573939330
 20
-66.018242286943178
 40
1.000000000000000
 50
179.999999999986980
 51
262.410457608142620
  0
LINE
  8
0
  6
CONTINUOUS
 62
256
 10
-291.445210573939330
 20
-62.994456328316801
 11
-291.445210573939330
 21
-66.018242286942950
  0
ARC
  8
0
  6
CONTINUOUS
 62
256
 10
-290.445210573939330
 20
-62.994456328316801
 40
1.000000000000077
 50
83.186145655820326
 51
180.000000000000000
  0
ARC
  8
0
  6
CONTINUOUS
 62
256
 10
-290.445210573939330
 20
-57.461533061338741
 40
1.000000000000000
 50
180.000000000000000
 51
264.260829522738450
  0
LINE
  8
0
  6
CONTINUOUS
 62
256
 10
-291.445210573939330
 20
-54.447620875045459
 11
-291.445210573939330
 21
-57.461533061338741
  0
ARC
  8
0
  6
CONTINUOUS
 62
256
 10
-290.445210573939330
 20
-54.447620875045459
 40
1.000000000000042
 50
84.715267045464316
 51
180.000000000000000
  0
ARC
  8
0
  6
CONTINUOUS
 62
256
 10
-270.327908786007470
 20
-74.609185930948115
 40
1.000000000000082
 50
299.999999999997270
 51
36.813854344187355
  0
LINE
  8
0
  6
CONTINUOUS
 62
256
 10
-269.827908786007470
 20
-75.475211334732649
 11
-272.446584241784990
 21
-76.987104314045837
  0
ARC
  8
0
  6
CONTINUOUS
 62
256
 10
-272.946584241784990
 20
-76.121078910261303
 40
0.999999999999834
 50
217.589542391867670
 51
299.999999999997730
  0
ARC
  8
0
  6
CONTINUOUS
 62
256
 10
-262.926132161509140
 20
-70.335768204312444
 40
0.999999999999885
 50
300.000000000003810
 51
35.284732954544275
  0
LINE
  8
0
  6
CONTINUOUS
 62
256
 10
-262.426132161509140
 20
-71.201793608096750
 11
-265.036256679614890
 21
-72.708749701243505
  0
ARC
  8
0
  6
CONTINUOUS
 62
256
 10
-265.536256679614890
 20
-71.842724297459199
 40
0.999999999999940
 50
215.739170477274090
 51
300.000000000002560
  0
ARC
  8
0
  6
CONTINUOUS
 62
256
 10
-288.046681303550140
 20
-84.839124013660921
 40
0.999999999999961
 50
231.618272422159780
 51
299.999999999997330
  0
LINE
  8
0
  6
CONTINUOUS
 62
256
 10
-284.802905728525840
 20
-84.121029850609375
 11
-287.546681303550140
 21
-85.705149417445455
  0
ARC
  8
0
  6
CONTINUOUS
 62
256
 10
-280.404281890566490
 20
-80.426782655320267
 40
0.999999999999673
 50
221.212271417651180
 51
300.000000000003410
  0
LINE
  8
0
  6
CONTINUOUS
 62
256
 10
-277.263046733510350
 20
-79.767890230185003
 11
-279.904281890566490
 21
-81.292808059104573
  0
ARC
  8
0
  6
CONTINUOUS
 62
256
 10
-277.763046733510350
 20
-78.901864826400470
 40
1.000000000000082
 50
299.999999999997270
 51
39.594068226849963
  0
ARC
  8
0
  6
CONTINUOUS
 62
256
 10
-290.445210573939330
 20
-83.454332493742641
 40
1.000000000000000
 50
180.000000000000000
 51
248.381727577839200
  0
ARC
  8
0
  6
CONTINUOUS
 62
256
 10
-293.945210573939330
 20
-92.286093360070481
 40
8.500000000000128
 50
51.618272422158320
 51
68.381727577842469
  0
ARC
  8
0
  6
CONTINUOUS
 62
256
 10
-285.302905728525840
 20
-83.255004446825069
 40
0.999999999999885
 50
300.000000000003810
 51
46.260204708329255
  0
LINE
  8
0
  6
CONTINUOUS
 62
256
 10
-291.445210573939330
 20
-80.286093360070481
 11
-291.445210573939330
 21
-83.454332493742641
  0
ARC
  8
0
  6
CONTINUOUS
 62
256
 10
-290.445210573939330
 20
-80.286093360070481
 40
0.999999999999964
 50
73.739795291702634
 51
180.000000000000000
  0
ARC
  8
0
  6
CONTINUOUS
 62
256
 10
-293.945210573939330
 20
-92.286093360070481
 40
13.499999999999927
 50
46.260204708312138
 51
73.739795291689092
  0
ARC
  8
0
  6
CONTINUOUS
 62
256
 10
-293.945210573939330
 20
-92.286093360070481
 40
17.000000000000114
 50
41.212271417649752
 51
78.787728582350027
  0
ARC
  8
0
  6
CONTINUOUS
 62
256
 10
-293.945210573939330
 20
-92.286093360070481
 40
22.000000000000025
 50
39.594068226860820
 51
80.405931773138747
  0
ARC
  8
0
  6
CONTINUOUS
 62
256
 10
-293.945210573939330
 20
-92.286093360070481
 40
30.499999999999964
 50
36.813854344181067
 51
83.186145655818933
  0
ARC
  8
0
  6
CONTINUOUS
 62
256
 10
-293.945210573939330
 20
-92.286093360070481
 40
25.499999999999890
 50
37.589542391857954
 51
82.410457608141925
  0
ARC
  8
0
  6
CONTINUOUS
 62
256
 10
-293.945210573939330
 20
-92.286093360070481
 40
33.999999999999829
 50
35.739170477266640
 51
84.260829522733033
  0
ARC
  8
0
  6
CONTINUOUS
 62
256
 10
-293.945210573939330
 20
-92.286093360070481
 40
38.999999999999865
 50
35.284732954534789
 51
84.715267045465410
  0
ARC
  8
0
  6
CONTINUOUS
 62
256
 10
-266.827908786007470
 20
-80.671363757439167
 40
0.999999999999730
 50
23.186145655819846
 51
119.999999999997370
  0
LINE
  8
0
  6
CONTINUOUS
 62
256
 10
-267.327908786007470
 20
-79.805338353654633
 11
-269.946584241784990
 21
-81.317231332967822
  0
ARC
  8
0
  6
CONTINUOUS
 62
256
 10
-269.446584241784990
 20
-82.183256736752355
 40
1.000000000000082
 50
119.999999999997300
 51
202.410457608146120
  0
ARC
  8
0
  6
CONTINUOUS
 62
256
 10
-259.426132161509140
 20
-76.397946030803496
 40
1.000000000000249
 50
24.715267045455473
 51
119.999999999996050
  0
LINE
  8
0
  6
CONTINUOUS
 62
256
 10
-259.926132161509140
 20
-75.531920627018962
 11
-262.536256679614890
 21
-77.038876720165717
  0
ARC
  8
0
  6
CONTINUOUS
 62
256
 10
-262.036256679614890
 20
-77.904902123950023
 40
0.999999999999885
 50
120.000000000003810
 51
204.260829522746350
  0
ARC
  8
0
  6
CONTINUOUS
 62
256
 10
-284.546681303550140
 20
-90.901301840152200
 40
1.000000000000082
 50
119.999999999997300
 51
188.381727577833000
  0
LINE
  8
0
  6
CONTINUOUS
 62
256
 10
-282.302905728525840
 20
-88.451156869531587
 11
-285.046681303550140
 21
-90.035276436367667
  0
ARC
  8
0
  6
CONTINUOUS
 62
256
 10
-276.904281890566490
 20
-86.488960481811318
 40
1.000000000000082
 50
119.999999999997300
 51
198.787728582347000
  0
LINE
  8
0
  6
CONTINUOUS
 62
256
 10
-274.763046733509900
 20
-84.098017249107443
 11
-277.404281890566490
 21
-85.622935078026785
  0
ARC
  8
0
  6
CONTINUOUS
 62
256
 10
-274.263046733509900
 20
-84.964042652891749
 40
1.000000000000094
 50
20.405931773138683
 51
120.000000000004160
  0
ARC
  8
0
  6
CONTINUOUS
 62
256
 10
-284.546681303550140
 20
-93.670884879988989
 40
1.000000000000059
 50
171.618272422154460
 51
239.999999999995050
  0
ARC
  8
0
  6
CONTINUOUS
 62
256
 10
-293.945210573939330
 20
-92.286093360070481
 40
8.499999999999972
 50
351.618272422157820
 51
8.381727577842204
  0
ARC
  8
0
  6
CONTINUOUS
 62
256
 10
-281.802905728525840
 20
-89.317182273315893
 40
0.999999999999879
 50
13.739795291686027
 51
120.000000000003810
  0
LINE
  8
0
  6
CONTINUOUS
 62
256
 10
-282.302905728525840
 20
-96.121029850609375
 11
-285.046681303550140
 21
-94.536910283773295
  0
ARC
  8
0
  6
CONTINUOUS
 62
256
 10
-281.802905728525840
 20
-95.255004446825069
 40
0.999999999999885
 50
239.999999999996160
 51
346.260204708314010
  0
ARC
  8
0
  6
CONTINUOUS
 62
256
 10
-293.945210573939330
 20
-92.286093360070481
 40
13.500000000000130
 50
346.260204708311850
 51
13.739795291688171
  0
ARC
  8
0
  6
CONTINUOUS
 62
256
 10
-276.904281890566490
 20
-98.083226238329644
 40
0.999999999999646
 50
161.212271417644640
 51
239.999999999995770
  0
LINE
  8
0
  6
CONTINUOUS
 62
256
 10
-274.763046733509900
 20
-100.474169471033520
 11
-277.404281890566490
 21
-98.949251642113950
  0
ARC
  8
0
  6
CONTINUOUS
 62
256
 10
-293.945210573939330
 20
-92.286093360070481
 40
17.000000000000146
 50
341.212271417650070
 51
18.787728582350436
  0
ARC
  8
0
  6
CONTINUOUS
 62
256
 10
-274.263046733509900
 20
-99.608144067249214
 40
0.999999999999885
 50
239.999999999996160
 51
339.594068226861740
  0
ARC
  8
0
  6
CONTINUOUS
 62
256
 10
-269.446584241784990
 20
-102.388929983388830
 40
0.999999999999701
 50
157.589542391853970
 51
240.000000000001820
  0
ARC
  8
0
  6
CONTINUOUS
 62
256
 10
-262.036256679614890
 20
-106.667284596190710
 40
0.999999999999769
 50
155.739170477266270
 51
240.000000000003440
  0
ARC
  8
0
  6
CONTINUOUS
 62
256
 10
-293.945210573939330
 20
-92.286093360070481
 40
22.000000000000206
 50
339.594068226860770
 51
20.405931773139223
  0
LINE
  8
0
  6
CONTINUOUS
 62
256
 10
-267.327908786007470
 20
-104.766848366486310
 11
-269.946584241784990
 21
-103.254955387173350
  0
ARC
  8
0
  6
CONTINUOUS
 62
256
 10
-266.827908786007470
 20
-103.900822962701800
 40
1.000000000000082
 50
240.000000000002670
 51
336.813854344180360
  0
ARC
  8
0
  6
CONTINUOUS
 62
256
 10
-293.945210573939330
 20
-92.286093360070481
 40
30.499999999999954
 50
336.813854344181150
 51
23.186145655818844
  0
ARC
  8
0
  6
CONTINUOUS
 62
256
 10
-293.945210573939330
 20
-92.286093360070481
 40
25.500000000000085
 50
337.589542391857490
 51
22.410457608142028
  0
ARC
  8
0
  6
CONTINUOUS
 62
256
 10
-293.945210573939330
 20
-92.286093360070481
 40
34.000000000000007
 50
335.739170477266780
 51
24.260829522733218
  0
ARC
  8
0
  6
CONTINUOUS
 62
256
 10
-293.945210573939330
 20
-92.286093360070481
 40
39.000000000000220
 50
335.284732954534830
 51
24.715267045465190
  0
LINE
  8
0
  6
CONTINUOUS
 62
256
 10
-259.926132161509140
 20
-109.040266093121770
 11
-262.536256679614890
 21
-107.533309999975240
  0
ARC
  8
0
  6
CONTINUOUS
 62
256
 10
-259.426132161509140
 20
-108.174240689337470
 40
0.999999999999885
 50
239.999999999996160
 51
335.284732954544490
  0
CIRCLE
  8
0
  6
CONTINUOUS
 62
256
 10
-293.945210573939330
 20
-92.286093360070481
 40
5.000000000000000
  0
ARC
  8
0
  6
CONTINUOUS
 62
256
 10
-262.926132161509140
 20
-114.236418515828750
 40
0.999999999999776
 50
324.715267045465680
 51
60.000000000003446
  0
ARC
  8
0
  6
CONTINUOUS
 62
256
 10
-265.536256679614890
 20
-112.729462422681760
 40
0.999999999999885
 50
59.999999999996206
 51
144.260829522736400
  0
ARC
  8
0
  6
CONTINUOUS
 62
256
 10
-290.445210573939330
 20
-127.110653658802220
 40
0.999999999999973
 50
95.739170477261709
 51
180.000000000000000
  0
ARC
  8
0
  6
CONTINUOUS
 62
256
 10
-290.445210573939330
 20
-130.124565845095500
 40
1.000000000000000
 50
180.000000000000000
 51
275.284732954535800
  0
ARC
  8
0
  6
CONTINUOUS
 62
256
 10
-290.445210573939330
 20
-118.553944433197780
 40
0.999999999999975
 50
97.589542391854238
 51
180.000000000000000
  0
ARC
  8
0
  6
CONTINUOUS
 62
256
 10
-270.327908786007470
 20
-109.963000789192620
 40
0.999999999999911
 50
323.186145655802870
 51
59.999999999997016
  0
ARC
  8
0
  6
CONTINUOUS
 62
256
 10
-272.946584241784540
 20
-108.451107809879640
 40
1.000000000000082
 50
60.000000000002721
 51
142.410457608147480
  0
ARC
  8
0
  6
CONTINUOUS
 62
256
 10
-290.445210573939330
 20
-121.577730391824160
 40
1.000000000000000
 50
180.000000000000000
 51
276.813854344180130
  0
ARC
  8
0
  6
CONTINUOUS
 62
256
 10
-290.445210573939330
 20
-112.992372600918980
 40
1.000000000000000
 50
180.000000000000000
 51
279.594068226874810
  0
ARC
  8
0
  6
CONTINUOUS
 62
256
 10
-290.445210573939330
 20
-109.942536943080090
 40
0.999999999999982
 50
101.212271417644000
 51
180.000000000000000
  0
ARC
  8
0
  6
CONTINUOUS
 62
256
 10
-277.763046733510350
 20
-105.670321893740270
 40
1.000000000000318
 50
320.405931773139570
 51
59.999999999995502
  0
ARC
  8
0
  6
CONTINUOUS
 62
256
 10
-280.404281890566490
 20
-104.145404064820920
 40
1.000000000000082
 50
60.000000000002721
 51
138.787728582338080
  0
ARC
  8
0
  6
CONTINUOUS
 62
256
 10
-285.302905728525840
 20
-101.317182273315890
 40
0.999999999999858
 50
313.739795291671330
 51
59.999999999995389
  0
ARC
  8
0
  6
CONTINUOUS
 62
256
 10
-290.445210573939330
 20
-104.286093360070480
 40
1.000000000000000
 50
180.000000000000000
 51
286.260204708296900
  0
ARC
  8
0
  6
CONTINUOUS
 62
256
 10
-290.445210573939330
 20
-101.117854226398320
 40
1.000000000000090
 50
111.618272422161990
 51
180.000000000000000
  0
ARC
  8
0
  6
CONTINUOUS
 62
256
 10
-288.046681303550140
 20
-99.733062706479814
 40
0.999999999999885
 50
59.999999999996206
 51
128.381727577839710
  0
ARC
  8
0
  6
CONTINUOUS
 62
256
 10
-293.945210573939330
 20
-92.286093360070481
 40
38.999999999999986
 50
275.284732954534600
 51
324.715267045465230
  0
ARC
  8
0
  6
CONTINUOUS
 62
256
 10
-293.945210573939330
 20
-92.286093360070481
 40
30.500000000000135
 50
276.813854344181040
 51
323.186145655818850
  0
ARC
  8
0
  6
CONTINUOUS
 62
256
 10
-293.945210573939330
 20
-92.286093360070481
 40
34.000000000000071
 50
275.739170477266950
 51
324.260829522732990
  0
ARC
  8
0
  6
CONTINUOUS
 62
256
 10
-293.945210573939330
 20
-92.286093360070481
 40
25.499999999999932
 50
277.589542391858170
 51
322.410457608142050
  0
ARC
  8
0
  6
CONTINUOUS
 62
256
 10
-293.945210573939330
 20
-92.286093360070481
 40
22.000000000000131
 50
279.594068226861170
 51
320.405931773139120
  0
ARC
  8
0
  6
CONTINUOUS
 62
256
 10
-293.945210573939330
 20
-92.286093360070481
 40
17.000000000000046
 50
281.212271417650020
 51
318.787728582350210
  0
ARC
  8
0
  6
CONTINUOUS
 62
256
 10
-293.945210573939330
 20
-92.286093360070481
 40
13.499999999999963
 50
286.260204708310820
 51
313.739795291687760
  0
ARC
  8
0
  6
CONTINUOUS
 62
256
 10
-293.945210573939330
 20
-92.286093360070481
 40
8.499999999999904
 50
291.618272422157700
 51
308.381727577842750
  0
LINE
  8
0
  6
CONTINUOUS
 62
256
 10
-269.827908786007470
 20
-109.096975385408310
 11
-272.446584241784540
 21
-107.585082406095130
  0
LINE
  8
0
  6
CONTINUOUS
 62
256
 10
-291.445210573939330
 20
-130.124565845095500
 11
-291.445210573939330
 21
-127.110653658802220
  0
LINE
  8
0
  6
CONTINUOUS
 62
256
 10
-262.426132161509140
 20
-113.370393112044210
 11
-265.036256679614890
 21
-111.863437018897440
  0
LINE
  8
0
  6
CONTINUOUS
 62
256
 10
-277.263046733510350
 20
-104.804296489955950
 11
-279.904281890566490
 21
-103.279378661036390
  0
LINE
  8
0
  6
CONTINUOUS
 62
256
 10
-284.802905728525840
 20
-100.451156869531570
 11
-287.546681303550140
 21
-98.867037302695508
  0
LINE
  8
0
  6
CONTINUOUS
 62
256
 10
-291.445210573939330
 20
-104.286093360070480
 11
-291.445210573939330
 21
-101.117854226398320
  0
LINE
  8
0
  6
CONTINUOUS
 62
256
 10
-291.445210573939330
 20
-112.992372600918980
 11
-291.445210573939330
 21
-109.942536943080090
  0
LINE
  8
0
  6
CONTINUOUS
 62
256
 10
-291.445210573939330
 20
-121.577730391824160
 11
-291.445210573939330
 21
-118.553944433197780
  0
ARC
  8
0
  6
CONTINUOUS
 62
256
 10
-293.945210573939330
 20
-92.286093360070481
 40
39.000000000000220
 50
155.284732954534800
 51
204.715267045465200
  0
ARC
  8
0
  6
CONTINUOUS
 62
256
 10
-293.945210573939330
 20
-92.286093360070481
 40
34.000000000000007
 50
155.739170477266780
 51
204.260829522733220
  0
ARC
  8
0
  6
CONTINUOUS
 62
256
 10
-293.945210573939330
 20
-92.286093360070481
 40
25.500000000000000
 50
157.589542391858000
 51
202.410457608142480
  0
ARC
  8
0
  6
CONTINUOUS
 62
256
 10
-293.945210573939330
 20
-92.286093360070481
 40
30.499999999999954
 50
156.813854344181150
 51
203.186145655818820
  0
ARC
  8
0
  6
CONTINUOUS
 62
256
 10
-293.945210573939330
 20
-92.286093360070481
 40
22.000000000000206
 50
159.594068226860770
 51
200.405931773139230
  0
ARC
  8
0
  6
CONTINUOUS
 62
256
 10
-293.945210573939330
 20
-92.286093360070481
 40
16.999999999999716
 50
161.212271417649590
 51
198.787728582350440
  0
ARC
  8
0
  6
CONTINUOUS
 62
256
 10
-293.945210573939330
 20
-92.286093360070481
 40
13.499999999999687
 50
166.260204708311360
 51
193.739795291688210
  0
ARC
  8
0
  6
CONTINUOUS
 62
256
 10
-306.087515419352830
 20
-89.317182273315893
 40
0.999999999999885
 50
59.999999999996206
 51
166.260204708308440
  0
ARC
  8
0
  6
CONTINUOUS
 62
256
 10
-313.627374414368770
 20
-84.964042652891749
 40
0.999999999999885
 50
59.999999999996206
 51
159.594068226861740
  0
LINE
  8
0
  6
CONTINUOUS
 62
256
 10
-313.127374414368770
 20
-84.098017249107443
 11
-310.486139257312170
 21
-85.622935078026785
  0
ARC
  8
0
  6
CONTINUOUS
 62
256
 10
-310.986139257312170
 20
-86.488960481811318
 40
1.000000000000076
 50
341.212271417653030
 51
60.000000000002721
  0
LINE
  8
0
  6
CONTINUOUS
 62
256
 10
-305.587515419352830
 20
-88.451156869531587
 11
-302.843739844328520
 21
-90.035276436367667
  0
ARC
  8
0
  6
CONTINUOUS
 62
256
 10
-303.343739844328520
 20
-90.901301840152200
 40
1.000000000000026
 50
351.618272422167310
 51
60.000000000001499
  0
ARC
  8
0
  6
CONTINUOUS
 62
256
 10
-325.854164468263780
 20
-77.904902123950023
 40
0.999999999999863
 50
335.739170477254390
 51
59.999999999995801
  0
LINE
  8
0
  6
CONTINUOUS
 62
256
 10
-327.964288986369520
 20
-75.531920627018962
 11
-325.354164468263780
 21
-77.038876720165717
  0
ARC
  8
0
  6
CONTINUOUS
 62
256
 10
-328.464288986369520
 20
-76.397946030803496
 40
1.000000000000082
 50
60.000000000002721
 51
155.284732954544150
  0
ARC
  8
0
  6
CONTINUOUS
 62
256
 10
-318.443836906093680
 20
-82.183256736752355
 40
0.999999999999701
 50
337.589542391853970
 51
60.000000000001812
  0
LINE
  8
0
  6
CONTINUOUS
 62
256
 10
-320.562512361871200
 20
-79.805338353654633
 11
-317.943836906093680
 21
-81.317231332967822
  0
ARC
  8
0
  6
CONTINUOUS
 62
256
 10
-321.062512361871200
 20
-80.671363757439167
 40
1.000000000000082
 50
60.000000000002721
 51
156.813854344180360
  0
ARC
  8
0
  6
CONTINUOUS
 62
256
 10
-293.945210573939330
 20
-92.286093360070481
 40
38.999999999999986
 50
95.284732954534590
 51
144.715267045465230
  0
ARC
  8
0
  6
CONTINUOUS
 62
256
 10
-293.945210573939330
 20
-92.286093360070481
 40
34.000000000000071
 50
95.739170477266939
 51
144.260829522733360
  0
ARC
  8
0
  6
CONTINUOUS
 62
256
 10
-293.945210573939330
 20
-92.286093360070481
 40
25.500000000000160
 50
97.589542391858117
 51
142.410457608142050
  0
ARC
  8
0
  6
CONTINUOUS
 62
256
 10
-293.945210573939330
 20
-92.286093360070481
 40
30.500000000000135
 50
96.813854344181038
 51
143.186145655818930
  0
ARC
  8
0
  6
CONTINUOUS
 62
256
 10
-293.945210573939330
 20
-92.286093360070481
 40
22.000000000000131
 50
99.594068226861211
 51
140.405931773139140
  0
ARC
  8
0
  6
CONTINUOUS
 62
256
 10
-293.945210573939330
 20
-92.286093360070481
 40
17.000000000000046
 50
101.212271417650020
 51
138.787728582350240
  0
ARC
  8
0
  6
CONTINUOUS
 62
256
 10
-293.945210573939330
 20
-92.286093360070481
 40
13.499999999999963
 50
106.260204708310880
 51
133.739795291687780
  0
ARC
  8
0
  6
CONTINUOUS
 62
256
 10
-297.445210573939330
 20
-80.286093360070481
 40
1.000000000000000
 50
0.000000000000000
 51
106.260204708296920
  0
LINE
  8
0
  6
CONTINUOUS
 62
256
 10
-296.445210573939330
 20
-80.286093360070481
 11
-296.445210573939330
 21
-83.454332493742641
  0
ARC
  8
0
  6
CONTINUOUS
 62
256
 10
-302.587515419352830
 20
-83.255004446825069
 40
0.999999999999858
 50
133.739795291671330
 51
239.999999999995340
  0
ARC
  8
0
  6
CONTINUOUS
 62
256
 10
-293.945210573939330
 20
-92.286093360070481
 40
8.499999999999904
 50
111.618272422157720
 51
128.381727577841810
  0
ARC
  8
0
  6
CONTINUOUS
 62
256
 10
-297.445210573939330
 20
-83.454332493742641
 40
1.000000000000090
 50
291.618272422162020
 51
0.000000000000000
  0
ARC
  8
0
  6
CONTINUOUS
 62
256
 10
-310.127374414368320
 20
-78.901864826400470
 40
1.000000000000173
 50
140.405931773149600
 51
240.000000000002330
  0
LINE
  8
0
  6
CONTINUOUS
 62
256
 10
-310.627374414368320
 20
-79.767890230185003
 11
-307.986139257312170
 21
-81.292808059104573
  0
ARC
  8
0
  6
CONTINUOUS
 62
256
 10
-307.486139257312170
 20
-80.426782655320267
 40
0.999999999999885
 50
239.999999999996160
 51
318.787728582349130
  0
LINE
  8
0
  6
CONTINUOUS
 62
256
 10
-303.087515419352830
 20
-84.121029850609375
 11
-300.343739844328520
 21
-85.705149417445455
  0
ARC
  8
0
  6
CONTINUOUS
 62
256
 10
-299.843739844328520
 20
-84.839124013660921
 40
1.000000000000082
 50
240.000000000002670
 51
308.381727577839230
  0
ARC
  8
0
  6
CONTINUOUS
 62
256
 10
-322.354164468263780
 20
-71.842724297459199
 40
0.999999999999885
 50
239.999999999996160
 51
324.260829522725320
  0
LINE
  8
0
  6
CONTINUOUS
 62
256
 10
-325.464288986369520
 20
-71.201793608096750
 11
-322.854164468263780
 21
-72.708749701243505
  0
ARC
  8
0
  6
CONTINUOUS
 62
256
 10
-324.964288986369520
 20
-70.335768204312444
 40
0.999999999999908
 50
144.715267045455050
 51
239.999999999996560
  0
ARC
  8
0
  6
CONTINUOUS
 62
256
 10
-314.943836906093680
 20
-76.121078910261303
 40
1.000000000000082
 50
240.000000000002670
 51
322.410457608131140
  0
LINE
  8
0
  6
CONTINUOUS
 62
256
 10
-318.062512361871200
 20
-75.475211334732649
 11
-315.443836906093680
 21
-76.987104314045837
  0
ARC
  8
0
  6
CONTINUOUS
 62
256
 10
-317.562512361871200
 20
-74.609185930948115
 40
0.999999999999774
 50
143.186145655813330
 51
240.000000000003440
  0
ARC
  8
0
  6
CONTINUOUS
 62
256
 10
-297.445210573939330
 20
-54.447620875045459
 40
1.000000000000000
 50
0.000000000000000
 51
95.284732954535926
  0
LINE
  8
0
  6
CONTINUOUS
 62
256
 10
-296.445210573939330
 20
-54.447620875045459
 11
-296.445210573939330
 21
-57.461533061338741
  0
ARC
  8
0
  6
CONTINUOUS
 62
256
 10
-297.445210573939330
 20
-57.461533061338741
 40
0.999999999999973
 50
275.739170477261670
 51
0.000000000000000
  0
ARC
  8
0
  6
CONTINUOUS
 62
256
 10
-297.445210573939330
 20
-62.994456328316801
 40
1.000000000000000
 50
0.000000000000000
 51
96.813854344180214
  0
LINE
  8
0
  6
CONTINUOUS
 62
256
 10
-296.445210573939330
 20
-62.994456328316801
 11
-296.445210573939330
 21
-66.018242286942950
  0
ARC
  8
0
  6
CONTINUOUS
 62
256
 10
-297.445210573939330
 20
-66.018242286943178
 40
0.999999999999749
 50
277.589542391855960
 51
0.000000000013028
  0
ARC
  8
0
  6
CONTINUOUS
 62
256
 10
-297.445210573939330
 20
-71.579814119221965
 40
1.000000000000000
 50
0.000000000000000
 51
99.594068226874853
  0
LINE
  8
0
  6
CONTINUOUS
 62
256
 10
-296.445210573939330
 20
-71.579814119221965
 11
-296.445210573939330
 21
-74.629649777060877
  0
ARC
  8
0
  6
CONTINUOUS
 62
256
 10
-297.445210573939330
 20
-74.629649777060877
 40
0.999999999999982
 50
281.212271417643990
 51
0.000000000000000
  0
ARC
  8
0
  6
CONTINUOUS
 62
256
 10
-306.087515419352830
 20
-95.255004446825069
 40
0.999999999999879
 50
193.739795291686020
 51
300.000000000003810
  0
LINE
  8
0
  6
CONTINUOUS
 62
256
 10
-305.587515419352830
 20
-96.121029850609375
 11
-302.843739844328520
 21
-94.536910283773295
  0
ARC
  8
0
  6
CONTINUOUS
 62
256
 10
-293.945210573939330
 20
-92.286093360070481
 40
8.499999999999972
 50
171.618272422157790
 51
188.381727577842210
  0
ARC
  8
0
  6
CONTINUOUS
 62
256
 10
-303.343739844328520
 20
-93.670884879988989
 40
0.999999999999885
 50
300.000000000003810
 51
8.381727577845361
  0
LINE
  8
0
  6
CONTINUOUS
 62
256
 10
-296.445210573939330
 20
-121.577730391824160
 11
-296.445210573939330
 21
-118.553944433197780
  0
LINE
  8
0
  6
CONTINUOUS
 62
256
 10
-296.445210573939330
 20
-112.992372600918980
 11
-296.445210573939330
 21
-109.942536943080090
  0
LINE
  8
0
  6
CONTINUOUS
 62
256
 10
-296.445210573939330
 20
-104.286093360070480
 11
-296.445210573939330
 21
-101.117854226398320
  0
LINE
  8
0
  6
CONTINUOUS
 62
256
 10
-303.087515419352830
 20
-100.451156869531570
 11
-300.343739844328520
 21
-98.867037302695508
  0
LINE
  8
0
  6
CONTINUOUS
 62
256
 10
-310.627374414368320
 20
-104.804296489955950
 11
-307.986139257312170
 21
-103.279378661036390
  0
LINE
  8
0
  6
CONTINUOUS
 62
256
 10
-325.464288986369520
 20
-113.370393112044210
 11
-322.854164468263780
 21
-111.863437018897440
  0
LINE
  8
0
  6
CONTINUOUS
 62
256
 10
-318.062512361871200
 20
-109.096975385408310
 11
-315.443836906094130
 21
-107.585082406095130
  0
ARC
  8
0
  6
CONTINUOUS
 62
256
 10
-293.945210573939330
 20
-92.286093360070481
 40
8.499999999999949
 50
231.618272422157330
 51
248.381727577842410
  0
ARC
  8
0
  6
CONTINUOUS
 62
256
 10
-293.945210573939330
 20
-92.286093360070481
 40
13.499999999999927
 50
226.260204708312130
 51
253.739795291689090
  0
ARC
  8
0
  6
CONTINUOUS
 62
256
 10
-293.945210573939330
 20
-92.286093360070481
 40
16.999999999999773
 50
221.212271417650750
 51
258.787728582349980
  0
ARC
  8
0
  6
CONTINUOUS
 62
256
 10
-293.945210573939330
 20
-92.286093360070481
 40
22.000000000000025
 50
219.594068226860800
 51
260.405931773138780
  0
ARC
  8
0
  6
CONTINUOUS
 62
256
 10
-293.945210573939330
 20
-92.286093360070481
 40
25.499999999999890
 50
217.589542391857950
 51
262.410457608141830
  0
ARC
  8
0
  6
CONTINUOUS
 62
256
 10
-293.945210573939330
 20
-92.286093360070481
 40
33.999999999999964
 50
215.739170477266950
 51
264.260829522733050
  0
ARC
  8
0
  6
CONTINUOUS
 62
256
 10
-293.945210573939330
 20
-92.286093360070481
 40
30.499999999999964
 50
216.813854344181040
 51
263.186145655819020
  0
ARC
  8
0
  6
CONTINUOUS
 62
256
 10
-293.945210573939330
 20
-92.286093360070481
 40
38.999999999999872
 50
215.284732954534800
 51
264.715267045465400
  0
ARC
  8
0
  6
CONTINUOUS
 62
256
 10
-299.843739844328520
 20
-99.733062706479814
 40
0.999999999999961
 50
51.618272422159770
 51
120.000000000004590
  0
ARC
  8
0
  6
CONTINUOUS
 62
256
 10
-297.445210573939330
 20
-101.117854226398320
 40
1.000000000000000
 50
0.000000000000000
 51
68.381727577839243
  0
ARC
  8
0
  6
CONTINUOUS
 62
256
 10
-297.445210573939330
 20
-104.286093360070480
 40
0.999999999999964
 50
253.739795291702650
 51
0.000000000000000
  0
ARC
  8
0
  6
CONTINUOUS
 62
256
 10
-302.587515419352830
 20
-101.317182273315890
 40
0.999999999999885
 50
120.000000000003810
 51
226.260204708329240
  0
ARC
  8
0
  6
CONTINUOUS
 62
256
 10
-307.486139257312170
 20
-104.145404064820920
 40
1.000000000000165
 50
41.212271417643834
 51
119.999999999998080
  0
ARC
  8
0
  6
CONTINUOUS
 62
256
 10
-310.127374414368320
 20
-105.670321893740270
 40
0.999999999999885
 50
120.000000000003810
 51
219.594068226860970
  0
ARC
  8
0
  6
CONTINUOUS
 62
256
 10
-297.445210573939330
 20
-109.942536943080090
 40
1.000000000000000
 50
0.000000000000000
 51
78.787728582356166
  0
ARC
  8
0
  6
CONTINUOUS
 62
256
 10
-297.445210573939330
 20
-112.992372600918980
 40
1.000000000000268
 50
260.405931773124510
 51
0.000000000000000
  0
ARC
  8
0
  6
CONTINUOUS
 62
256
 10
-314.943836906094130
 20
-108.451107809879640
 40
1.000000000000194
 50
37.589542391851786
 51
119.999999999997270
  0
ARC
  8
0
  6
CONTINUOUS
 62
256
 10
-317.562512361871200
 20
-109.963000789192620
 40
0.999999999999885
 50
120.000000000003810
 51
216.813854344196470
  0
ARC
  8
0
  6
CONTINUOUS
 62
256
 10
-297.445210573939330
 20
-118.553944433197780
 40
1.000000000000000
 50
0.000000000000000
 51
82.410457608145990
  0
ARC
  8
0
  6
CONTINUOUS
 62
256
 10
-322.354164468263780
 20
-112.729462422681760
 40
0.999999999999807
 50
35.739170477263514
 51
120.000000000003010
  0
ARC
  8
0
  6
CONTINUOUS
 62
256
 10
-324.964288986369520
 20
-114.236418515828750
 40
1.000000000000082
 50
119.999999999997300
 51
215.284732954534750
  0
ARC
  8
0
  6
CONTINUOUS
 62
256
 10
-328.464288986369520
 20
-108.174240689337470
 40
1.000000000000249
 50
204.715267045455480
 51
300.000000000003300
  0
LINE
  8
0
  6
CONTINUOUS
 62
256
 10
-327.964288986369520
 20
-109.040266093121770
 11
-325.354164468263780
 21
-107.533309999975240
  0
ARC
  8
0
  6
CONTINUOUS
 62
256
 10
-321.062512361871200
 20
-103.900822962701800
 40
0.999999999999730
 50
203.186145655819840
 51
299.999999999997390
  0
LINE
  8
0
  6
CONTINUOUS
 62
256
 10
-320.562512361871200
 20
-104.766848366486310
 11
-317.943836906093680
 21
-103.254955387173350
  0
ARC
  8
0
  6
CONTINUOUS
 62
256
 10
-325.854164468263780
 20
-106.667284596190710
 40
1.000000000000082
 50
299.999999999997270
 51
24.260829522733705
  0
ARC
  8
0
  6
CONTINUOUS
 62
256
 10
-318.443836906093680
 20
-102.388929983388830
 40
1.000000000000082
 50
299.999999999997270
 51
22.410457608146118
  0
ARC
  8
0
  6
CONTINUOUS
 62
256
 10
-313.627374414368770
 20
-99.608144067249214
 40
1.000000000000094
 50
200.405931773138660
 51
300.000000000004150
  0
LINE
  8
0
  6
CONTINUOUS
 62
256
 10
-313.127374414368770
 20
-100.474169471033520
 11
-310.486139257312170
 21
-98.949251642113950
  0
ARC
  8
0
  6
CONTINUOUS
 62
256
 10
-310.986139257312170
 20
-98.083226238329644
 40
0.999999999999885
 50
300.000000000003810
 51
18.787728582347054
  0
LINE
  8
0
  6
CONTINUOUS
 62
256
 10
-296.445210573939330
 20
-130.124565845095500
 11
-296.445210573939330
 21
-127.110653658802220
  0
ARC
  8
0
  6
CONTINUOUS
 62
256
 10
-297.445210573939330
 20
-121.577730391824160
 40
1.000000000000077
 50
263.186145655820330
 51
0.000000000000000
  0
ARC
  8
0
  6
CONTINUOUS
 62
256
 10
-297.445210573939330
 20
-130.124565845095500
 40
1.000000000000042
 50
264.715267045464260
 51
0.000000000000000
  0
ARC
  8
0
  6
CONTINUOUS
 62
256
 10
-297.445210573939330
 20
-127.110653658802220
 40
1.000000000000000
 50
0.000000000000000
 51
84.260829522738462
  0
ARC
  8
0
  6
CONTINUOUS
 62
256
 10
-293.945210573939330
 20
-438.886093360070620
 40
400.599999999999910
 50
84.256318189006564
 51
90.000000000000000
  0
ARC
  8
0
  6
CONTINUOUS
 62
256
 10
-254.514343573851990
 20
-46.864146617772121
 40
6.600000000000278
 50
44.999999999997208
 51
84.256318189004887
  0
ARC
  8
0
  6
CONTINUOUS
 62
256
 10
-293.945210573939330
 20
-438.886093360070620
 40
390.797000000000030
 50
84.582036237639471
 51
90.000000000000000
  0
ARC
  8
0
  6
CONTINUOUS
 62
256
 10
-257.329245634920990
 20
-52.821611284103710
 40
3.000000000000346
 50
44.999999999996930
 51
84.582036237634824
  0
ARC
  8
0
  6
CONTINUOUS
 62
256
 10
-257.329245634920990
 20
-131.750575436037250
 40
3.000000000000067
 50
275.417963762365730
 51
315.000000000003070
  0
ARC
  8
0
  6
CONTINUOUS
 62
256
 10
-293.945210573939330
 20
254.313906639929660
 40
390.797000000000030
 50
270.000000000000000
 51
275.417963762360500
  0
ARC
  8
0
  6
CONTINUOUS
 62
256
 10
-266.573319986419960
 20
-115.825891017982490
 40
20.797000000000015
 50
315.000000000000000
 51
354.998349729064670
  0
LINE
  8
0
  6
CONTINUOUS
 62
256
 10
-251.867620258083320
 20
-130.531590746319130
 11
-255.207925291360990
 21
-133.871895779597030
  0
ARC
  8
0
  6
CONTINUOUS
 62
256
 10
-535.545210573939700
 20
-92.286093360070481
 40
290.797000000000140
 50
354.998349729065010
 51
0.000000000000000
  0
ARC
  8
0
  6
CONTINUOUS
 62
256
 10
-330.561175512957670
 20
-131.750575436037250
 40
3.000000000000346
 50
224.999999999996930
 51
264.582036237634780
  0
ARC
  8
0
  6
CONTINUOUS
 62
256
 10
-293.945210573939330
 20
254.313906639929660
 40
390.797000000000030
 50
264.582036237639500
 51
270.000000000000000
  0
ARC
  8
0
  6
CONTINUOUS
 62
256
 10
-321.317101161458710
 20
-115.825891017982490
 40
20.796999999999880
 50
185.001650270935300
 51
225.000000000000060
  0
LINE
  8
0
  6
CONTINUOUS
 62
256
 10
-336.022800889795350
 20
-130.531590746319130
 11
-332.682495856517680
 21
-133.871895779597030
  0
ARC
  8
0
  6
CONTINUOUS
 62
256
 10
-52.345210573939198
 20
-92.286093360070481
 40
290.797000000000250
 50
180.000000000000000
 51
185.001650270934930
  0
ARC
  8
0
  6
CONTINUOUS
 62
256
 10
-330.561175512957670
 20
-52.821611284103710
 40
3.000000000000067
 50
95.417963762365673
 51
135.000000000003470
  0
ARC
  8
0
  6
CONTINUOUS
 62
256
 10
-293.945210573939330
 20
-438.886093360070620
 40
390.797000000000030
 50
90.000000000000000
 51
95.417963762360529
  0
ARC
  8
0
  6
CONTINUOUS
 62
256
 10
-321.317101161458710
 20
-68.746295702158477
 40
20.797000000000015
 50
135.000000000000000
 51
174.998349729064670
  0
LINE
  8
0
  6
CONTINUOUS
 62
256
 10
-336.022800889795350
 20
-54.040595973821837
 11
-332.682495856517680
 21
-50.700290940543937
  0
ARC
  8
0
  6
CONTINUOUS
 62
256
 10
-52.345210573939198
 20
-92.286093360070481
 40
290.796999999999910
 50
174.998349729065040
 51
180.000000000000000
  0
ARC
  8
0
  6
CONTINUOUS
 62
256
 10
-256.955143335792970
 20
-64.222336729054859
 40
20.599999999999916
 50
5.752282731536487
 51
44.999999999997335
  0
LINE
  8
0
  6
CONTINUOUS
 62
256
 10
-242.388743643349360
 20
-49.655937036612613
 11
-249.847438818020350
 21
-42.197241861940938
  0
ARC
  8
0
  6
CONTINUOUS
 62
256
 10
-535.545210573939700
 20
-92.286093360070481
 40
300.600000000000360
 50
0.000000000000000
 51
5.752282731536604
  0
ARC
  8
0
  6
CONTINUOUS
 62
256
 10
-256.955143335792970
 20
-64.222336729054859
 40
10.797000000000011
 50
5.752282731536912
 51
44.999999999998295
  0
LINE
  8
0
  6
CONTINUOUS
 62
256
 10
-249.320511419321630
 20
-56.587704812583979
 11
-255.207925291360990
 21
-50.700290940543937
  0
ARC
  8
0
  6
CONTINUOUS
 62
256
 10
-535.545210573939700
 20
-92.286093360070481
 40
290.797000000000480
 50
0.000000000000000
 51
5.752282731536623
  0
ARC
  8
0
  6
CONTINUOUS
 62
256
 10
-535.545210573939700
 20
-92.286093360070481
 40
300.599999999999910
 50
354.247717268463420
 51
0.000000000000000
  0
LINE
  8
0
  6
CONTINUOUS
 62
256
 10
-242.388743643349360
 20
-134.916249683528350
 11
-249.847438818020350
 21
-142.374944858200020
  0
ARC
  8
0
  6
CONTINUOUS
 62
256
 10
-256.955143335792970
 20
-120.349849991086100
 40
20.600000000000069
 50
315.000000000002670
 51
354.247717268463480
  0
ARC
  8
0
  6
CONTINUOUS
 62
256
 10
-293.945210573939330
 20
254.313906639929660
 40
400.599999999999910
 50
270.000000000000000
 51
275.743681810993510
  0
ARC
  8
0
  6
CONTINUOUS
 62
256
 10
-254.514343573851990
 20
-137.708040102368840
 40
6.600000000000009
 50
275.743681810995100
 51
315.000000000002790
  0
ARC
  8
0
  6
CONTINUOUS
 62
256
 10
-52.345210573938971
 20
-92.286093360070481
 40
300.600000000000360
 50
180.000000000000000
 51
185.752282731536610
  0
LINE
  8
0
  6
CONTINUOUS
 62
256
 10
-345.501677504529310
 20
-134.916249683528350
 11
-338.042982329858320
 21
-142.374944858200020
  0
ARC
  8
0
  6
CONTINUOUS
 62
256
 10
-330.935277812085700
 20
-120.349849991086100
 40
20.599999999999916
 50
185.752282731536470
 51
224.999999999997300
  0
ARC
  8
0
  6
CONTINUOUS
 62
256
 10
-293.945210573939330
 20
254.313906639929660
 40
400.599999999999910
 50
264.256318189006550
 51
270.000000000000000
  0
ARC
  8
0
  6
CONTINUOUS
 62
256
 10
-333.376077574026680
 20
-137.708040102368840
 40
6.600000000000278
 50
224.999999999997190
 51
264.256318189004620
  0
ARC
  8
0
  6
CONTINUOUS
 62
256
 10
-52.345210573938971
 20
-92.286093360070481
 40
300.599999999999910
 50
174.247717268463390
 51
180.000000000000000
  0
LINE
  8
0
  6
CONTINUOUS
 62
256
 10
-345.501677504529310
 20
-49.655937036612613
 11
-338.042982329858320
 21
-42.197241861940938
  0
ARC
  8
0
  6
CONTINUOUS
 62
256
 10
-330.935277812085700
 20
-64.222336729054859
 40
20.600000000000069
 50
135.000000000002700
 51
174.247717268463500
  0
ARC
  8
0
  6
CONTINUOUS
 62
256
 10
-293.945210573939330
 20
-438.886093360070620
 40
400.599999999999910
 50
90.000000000000000
 51
95.743681810993436
  0
ARC
  8
0
  6
CONTINUOUS
 62
256
 10
-333.376077574026680
 20
-46.864146617772121
 40
6.600000000000009
 50
95.743681810995113
 51
135.000000000002930
  0
LINE
  8
0
  6
CONTINUOUS
 62
256
 10
-236.445210573939330
 20
-62.298107505640246
 11
-236.445210573939330
 21
-56.286093360070709
  0
LINE
  8
0
  6
CONTINUOUS
 62
256
 10
-237.945250090741520
 20
-56.286093360070709
 11
-236.445210573939330
 21
-56.286093360070709
  0
LINE
  8
0
  6
CONTINUOUS
 62
256
 10
-237.945250090741520
 20
-128.286093360070250
 11
-236.445210573939330
 21
-128.286093360070250
  0
LINE
  8
0
  6
CONTINUOUS
 62
256
 10
-236.445210573939330
 20
-128.286093360070480
 11
-236.445210573939330
 21
-122.278592422332840
  0
ARC
  8
0
  6
CONTINUOUS
 62
256
 10
-293.945210573939450
 20
-435.286093360070370
 40
400.000000000000000
 50
87.093615629290099
 51
90.000000000000000
  0
ARC
  8
0
  6
CONTINUOUS
 62
256
 10
-293.945210573939450
 20
-435.286093360070370
 40
400.000000000000000
 50
90.000000000000000
 51
92.906384370709901
  0
LINE
  8
0
  6
CONTINUOUS
 62
256
 10
-356.945210573939450
 20
-80.742725067840070
 11
-356.945210573939450
 21
-134.044440439351890
  0
ARC
  8
0
  6
CONTINUOUS
 62
256
 10
-355.945194595178010
 20
-89.536093360070595
 40
1.000000000000000
 50
90.000000000000000
 51
180.000000000000000
  0
ARC
  8
0
  6
CONTINUOUS
 62
256
 10
-268.195194595178010
 20
-37.430630913897517
 40
1.000000000000000
 50
0.000000000000000
 51
79.855205773687274
  0
ARC
  8
0
  6
CONTINUOUS
 62
256
 10
-355.788790266415500
 20
-77.036093360070595
 40
0.999999999999993
 50
175.167582959106710
 51
270.000000000000000
  0
ARC
  8
0
  6
CONTINUOUS
 62
256
 10
-319.695194595178010
 20
-37.430630913897517
 40
1.000000000000044
 50
100.144794226312310
 51
180.000000000000000
  0
ARC
  8
0
  6
CONTINUOUS
 62
256
 10
-259.945210573939220
 20
-142.786093360070480
 40
7.000000000000009
 50
200.924832427638280
 51
214.849904579047720
  0
ARC
  8
0
  6
CONTINUOUS
 62
256
 10
-327.945178616416800
 20
-142.786093360070480
 40
6.999999999999983
 50
325.150095420952310
 51
339.075167572360670
  0
ARC
  8
0
  6
CONTINUOUS
 62
256
 10
-336.945194595178010
 20
-112.706297335693420
 40
20.000000000000000
 50
180.000000000000000
 51
225.000000000000450
  0
LINE
  8
0
  6
CONTINUOUS
 62
256
 10
-254.200647927401290
 20
-146.786093360070590
 11
-258.509072734535150
 21
-146.786093360070590
  0
LINE
  8
0
  6
CONTINUOUS
 62
256
 10
-333.689741262954730
 20
-146.786093360070590
 11
-329.381316455820870
 21
-146.786093360070590
  0
LINE
  8
0
  6
CONTINUOUS
 62
256
 10
-228.945217258106140
 20
-147.286093360070370
 11
-228.945217258106140
 21
-137.786093360070370
  0
LINE
  8
0
  6
CONTINUOUS
 62
256
 10
-347.284155522981110
 20
-133.480050758859650
 11
-352.892326484143270
 21
-127.871879797697720
  0
LINE
  8
0
  6
CONTINUOUS
 62
256
 10
-354.945210573939450
 20
-127.286093360070590
 11
-354.306540046516260
 21
-127.286093360070590
  0
LINE
  8
0
  6
CONTINUOUS
 62
256
 10
-356.445217258106140
 20
-135.286093360070590
 11
-346.068226252765840
 21
-135.286093360070590
  0
LINE
  8
0
  6
CONTINUOUS
 62
256
 10
-358.945203889772760
 20
-147.286093360070590
 11
-358.945203889772760
 21
-137.786093360070590
  0
LINE
  8
0
  6
DASHDOT
 62
256
 10
-350.945210573939330
 20
-130.322057123971380
 11
-350.945210573939330
 21
-154.496871446687350
  0
LINE
  8
0
  6
CONTINUOUS
 62
256
 10
-231.445203889772760
 20
-135.286093360070370
 11
-241.822194895113060
 21
-135.286093360070370
  0
LINE
  8
0
  6
DASHDOT
 62
256
 10
-236.945210573939560
 20
-130.322057123971150
 11
-236.945210573939560
 21
-154.496871446687120
  0
ARC
  8
0
  6
DASHED
 62
256
 10
-231.445217258106140
 20
-137.786093360070370
 40
2.500000000000000
 50
0.000000000000000
 51
56.250909049796419
  0
ARC
  8
0
  6
CONTINUOUS
 62
256
 10
-354.306540046516260
 20
-129.286093360070590
 40
1.999999999999775
 50
44.999999999997698
 51
90.000000000000000
  0
ARC
  8
0
  6
CONTINUOUS
 62
256
 10
-354.945210573939450
 20
-129.286093360070590
 40
2.000000000000000
 50
90.000000000000000
 51
180.000000000000000
  0
ARC
  8
0
  6
CONTINUOUS
 62
256
 10
-356.445217258106140
 20
-137.786093360070590
 40
2.500000000000000
 50
90.000000000000000
 51
180.000000000000000
  0
ARC
  8
0
  6
DASHED
 62
256
 10
-356.445203889772760
 20
-137.786093360070590
 40
2.500000000000074
 50
123.749090950200680
 51
180.000000000000000
  0
ARC
  8
0
  6
CONTINUOUS
 62
256
 10
-358.945210573939450
 20
-134.044440439351890
 40
2.000000000000034
 50
303.749090950199620
 51
0.000000000000000
  0
ARC
  8
0
  6
CONTINUOUS
 62
256
 10
-241.822194895113060
 20
-137.286093360070370
 40
2.000000000000000
 50
90.000000000000000
 51
129.566222467277900
  0
ARC
  8
0
  6
CONTINUOUS
 62
256
 10
-231.445203889772760
 20
-137.786093360070370
 40
2.500000000000000
 50
0.000000000000000
 51
90.000000000000000
  0
ARC
  8
0
  6
CONTINUOUS
 62
256
 10
-228.945210573939450
 20
-134.044440439351890
 40
2.000000000000000
 50
180.000000000000000
 51
236.250909049800580
  0
LINE
  8
0
  6
CONTINUOUS
 62
256
 10
-337.445217258106140
 20
-146.786093360070590
 11
-358.945203889772760
 21
-146.786093360070590
  0
LINE
  8
0
  6
CONTINUOUS
 62
256
 10
-250.445203889772760
 20
-146.786093360070370
 11
-228.945217258106140
 21
-146.786093360070370
  0
ARC
  8
0
  6
CONTINUOUS
 62
256
 10
-346.068226252765840
 20
-137.286093360070590
 40
1.999999999999928
 50
50.433777532722338
 51
90.000000000000000
  0
LINE
  8
0
  6
CONTINUOUS
 62
256
 10
-326.509040777012730
 20
-146.786093360070590
 11
-322.200615969878870
 21
-146.786093360070590
  0
LINE
  8
0
  6
CONTINUOUS
 62
256
 10
-322.583291947796620
 20
-147.286093360070590
 11
-358.945203889772760
 21
-147.286093360070590
  0
LINE
  8
0
  6
CONTINUOUS
 62
256
 10
-261.381348413343290
 20
-146.786093360070590
 11
-265.689773220477150
 21
-146.786093360070590
  0
LINE
  8
0
  6
CONTINUOUS
 62
256
 10
-265.307129200082500
 20
-147.286093360070370
 11
-228.945217258106140
 21
-147.286093360070370
  0
LINE
  8
0
  6
CONTINUOUS
 62
256
 10
-353.945176232232260
 20
-82.131397976973062
 11
-353.945177185906460
 21
-84.440792813398843
  0
LINE
  8
0
  6
CONTINUOUS
 62
256
 10
59.311951784112061
 20
-41.286093360070254
 11
74.311952547065346
 21
-41.286093360070254
  0
LINE
  8
0
  6
CONTINUOUS
 62
256
 10
58.811951784114058
 20
-41.786093360070481
 11
74.311952547065346
 21
-41.786093360070481
  0
LINE
  8
0
  6
CONTINUOUS
 62
256
 10
58.811951784114058
 20
-46.153010765187673
 11
74.311952547065346
 21
-46.153010765187673
  0
LINE
  8
0
  6
CONTINUOUS
 62
256
 10
58.811951784114058
 20
-47.781437832965594
 11
77.311951784125881
 21
-47.781437832965594
  0
LINE
  8
0
  6
CONTINUOUS
 62
256
 10
58.811951784114058
 20
-51.244179589730720
 11
77.311951784125881
 21
-51.244179589730720
  0
LINE
  8
0
  6
CONTINUOUS
 62
256
 10
58.811951784114058
 20
-52.245657953546015
 11
77.311951784125881
 21
-52.245657953546015
  0
LINE
  8
0
  6
CONTINUOUS
 62
256
 10
58.811951784114058
 20
-58.982492408561711
 11
77.311951784125881
 21
-58.982492408561711
  0
LINE
  8
0
  6
CONTINUOUS
 62
256
 10
58.811951784114058
 20
-60.571702201300454
 11
77.311951784125881
 21
-60.571702201300461
  0
LINE
  8
0
  6
CONTINUOUS
 62
256
 10
58.811951784114058
 20
-63.529697809433415
 11
77.311951784125881
 21
-63.529697809433408
  0
LINE
  8
0
  6
CONTINUOUS
 62
256
 10
58.811951784114058
 20
-65.008720962910502
 11
77.311951784125881
 21
-65.008720962910502
  0
LINE
  8
0
  6
CONTINUOUS
 62
256
 10
58.811951784114058
 20
-68.101451954575850
 11
74.311951784125881
 21
-68.101451954575850
  0
LINE
  8
0
  6
CONTINUOUS
 62
256
 10
58.811951784114058
 20
-69.447853680074331
 11
74.311951784125881
 21
-69.447853680074331
  0
LINE
  8
0
  6
CONTINUOUS
 62
256
 10
58.811951784114058
 20
-72.286093360070481
 11
74.311951784125881
 21
-72.286093360070481
  0
LINE
  8
0
  6
CONTINUOUS
 62
256
 10
58.811951784114058
 20
-112.286093360070480
 11
77.311951784125881
 21
-112.286093360070480
  0
LINE
  8
0
  6
CONTINUOUS
 62
256
 10
58.811951784114058
 20
-115.124333040066650
 11
77.311951784125881
 21
-115.124333040066650
  0
LINE
  8
0
  6
CONTINUOUS
 62
256
 10
58.811951784114058
 20
-116.470734765565080
 11
77.311951784125881
 21
-116.470734765565080
  0
LINE
  8
0
  6
CONTINUOUS
 62
256
 10
58.811951784114058
 20
-119.563465757230460
 11
77.311951784125881
 21
-119.563465757230460
  0
LINE
  8
0
  6
CONTINUOUS
 62
256
 10
58.811951784114058
 20
-121.042488910707580
 11
77.311951784125881
 21
-121.042488910707580
  0
LINE
  8
0
  6
CONTINUOUS
 62
256
 10
58.811951784114058
 20
-124.000484518840490
 11
77.311951784125881
 21
-124.000484518840490
  0
LINE
  8
0
  6
CONTINUOUS
 62
256
 10
58.811951784114058
 20
-125.589694311579250
 11
77.311951784125881
 21
-125.589694311579250
  0
LINE
  8
0
  6
CONTINUOUS
 62
256
 10
58.811951784114058
 20
-132.326528766594720
 11
77.311951784125881
 21
-132.326528766594720
  0
LINE
  8
0
  6
CONTINUOUS
 62
256
 10
58.811951784114058
 20
-133.328007130410010
 11
77.311951784125881
 21
-133.328007130410010
  0
LINE
  8
0
  6
CONTINUOUS
 62
256
 10
58.811951784125768
 20
166.194705304253260
 11
77.311951784125768
 21
166.194705304253260
  0
LINE
  8
0
  6
CONTINUOUS
 62
256
 10
58.811951784125768
 20
161.103536479710330
 11
77.311951784125768
 21
161.103536479710330
  0
LINE
  8
0
  6
CONTINUOUS
 62
256
 10
58.811951784125768
 20
153.365223660879340
 11
74.311951784125768
 21
153.365223660879340
  0
LINE
  8
0
  6
CONTINUOUS
 62
256
 10
58.811951784125768
 20
151.776013868140580
 11
74.311951784125768
 21
151.776013868140580
  0
LINE
  8
0
  6
CONTINUOUS
 62
256
 10
58.811951784125768
 20
148.818018260007650
 11
74.311951784125768
 21
148.818018260007650
  0
LINE
  8
0
  6
CONTINUOUS
 62
256
 10
58.811951784125768
 20
147.338995106530550
 11
77.311951784125768
 21
147.338995106530550
  0
LINE
  8
0
  6
CONTINUOUS
 62
256
 10
58.811951784125768
 20
144.246264114865280
 11
77.311951784125768
 21
144.246264114865280
  0
LINE
  8
0
  6
CONTINUOUS
 62
256
 10
58.811951784125768
 20
142.899862389366720
 11
77.311951784125768
 21
142.899862389366720
  0
LINE
  8
0
  6
CONTINUOUS
 62
256
 10
58.811951784125768
 20
139.689657366008420
 11
77.311951784125768
 21
139.689657366008420
  0
LINE
  8
0
  6
CONTINUOUS
 62
256
 10
58.811951784125768
 20
138.447737501120510
 11
77.311951784125768
 21
138.447737501120510
  0
LINE
  8
0
  6
CONTINUOUS
 62
256
 10
58.811951784125768
 20
134.061622709370570
 11
77.311951784125768
 21
134.061622709370570
  0
LINE
  8
0
  6
CONTINUOUS
 62
256
 10
58.811951784125768
 20
106.061622709370550
 11
77.311951784125768
 21
106.061622709370550
  0
LINE
  8
0
  6
CONTINUOUS
 62
256
 10
58.811951784125768
 20
101.675507917620620
 11
77.311951784125768
 21
101.675507917620620
  0
LINE
  8
0
  6
CONTINUOUS
 62
256
 10
58.811951784125768
 20
100.433588052732720
 11
77.311951784125768
 21
100.433588052732720
  0
LINE
  8
0
  6
CONTINUOUS
 62
256
 10
58.811951784125768
 20
97.223383029374418
 11
77.311951784125768
 21
97.223383029374418
  0
LINE
  8
0
  6
CONTINUOUS
 62
256
 10
58.811951784125768
 20
95.876981303875809
 11
77.311951784125768
 21
95.876981303875809
  0
LINE
  8
0
  6
CONTINUOUS
 62
256
 10
58.811951784125768
 20
92.784250312210602
 11
77.311951784125768
 21
92.784250312210588
  0
LINE
  8
0
  6
CONTINUOUS
 62
256
 10
58.811951784125768
 20
91.305227158733487
 11
74.311951784125768
 21
91.305227158733487
  0
LINE
  8
0
  6
CONTINUOUS
 62
256
 10
58.811951784125768
 20
88.347231550600554
 11
74.311951784125768
 21
88.347231550600554
  0
LINE
  8
0
  6
CONTINUOUS
 62
256
 10
58.811951784125768
 20
86.758021757861798
 11
74.311951784125768
 21
86.758021757861798
  0
LINE
  8
0
  6
CONTINUOUS
 62
256
 10
58.811951784125768
 20
79.019708939030792
 11
77.311951784125768
 21
79.019708939030792
  0
LINE
  8
0
  6
CONTINUOUS
 62
256
 10
58.811951784125768
 20
73.928540114487873
 11
77.311951784125768
 21
73.928540114487873
  0
TEXT
  8
0
  6
CONTINUOUS
 62
256
 10
-324.038757324218750
 20
70.374275207519531
 40
7.919999599456787
  1
rb`kdP^P
 50
0.000002504478167
 41
0.984848598876354
  7
STANDARD1
  0
TEXT
  8
0
  6
CONTINUOUS
 62
256
 10
-324.038757324218750
 20
83.094276428222656
 40
7.919999599456787
  1
P^R`P^TO
 50
0.000002504478167
 41
0.984848598876354
  7
STANDARD1
  0
TEXT
  8
0
  6
CONTINUOUS
 62
256
 10
-324.038757324218750
 20
95.814277648925781
 40
7.919999599456787
  1
ODPv
 50
0.000002504478167
 41
0.984848598876354
  7
STANDARD1
  0
TEXT
  8
0
  6
CONTINUOUS
 62
256
 10
-324.038757324218750
 20
108.534278869628910
 40
7.919999599456787
  1
fl|rra
 50
0.000002504478167
 41
0.984848598876354
  7
STANDARD1
  0
TEXT
  8
0
  6
CONTINUOUS
 62
256
 10
-324.038757324218750
 20
121.254280090332030
 40
7.919999599456787
  1
OHM[h[g
 50
0.000002504478167
 41
0.984848598876354
  7
STANDARD1
  0
TEXT
  8
0
  6
CONTINUOUS
 62
256
 10
-324.038757324218750
 20
133.974273681640620
 40
7.919999599456787
  1
rOWT
 50
0.000002504478167
 41
0.984848598876354
  7
STANDARD1
  0
LINE
  8
0
  6
CONTINUOUS
 62
256
 10
338.700230621688770
 20
-48.516183469753187
 11
339.187034013394400
 21
-48.029380078047573
  0
LINE
  8
0
  6
CONTINUOUS
 62
256
 10
332.053427148275090
 20
-41.869379996339475
 11
332.540230539980710
 21
-41.382576604633854
  0
LINE
  8
0
  6
CONTINUOUS
 62
256
 10
339.013369230657590
 20
-48.263636518902821
 11
332.336269928184660
 21
-41.586537216429896
  0
LINE
  8
0
  6
CONTINUOUS
 62
256
 10
338.700230621688770
 20
-48.516183469753187
 11
332.053427148275090
 21
-41.869379996339475
  0
POINT
  8
0
  6
CONTINUOUS
 62
256
 10
335.376828884981930
 20
-45.192781733046331
  0
ARC
  8
0
  6
CONTINUOUS
 62
256
 10
333.114087320054920
 20
-47.455523297973365
 40
6.099999427795400
 50
354.601910595264770
 51
95.398072101891529
  0
LINE
  8
0
  6
CONTINUOUS
 62
256
 10
237.866803894227220
 20
-48.516183469753187
 11
237.380000502521630
 21
-48.029380078047566
  0
LINE
  8
0
  6
CONTINUOUS
 62
256
 10
244.513607367640960
 20
-41.869379996339475
 11
244.026803975935340
 21
-41.382576604633854
  0
LINE
  8
0
  6
CONTINUOUS
 62
256
 10
237.553665285258460
 20
-48.263636518902814
 11
244.230764587731360
 21
-41.586537216429896
  0
LINE
  8
0
  6
CONTINUOUS
 62
256
 10
237.866803894227220
 20
-48.516183469753187
 11
244.513607367640960
 21
-41.869379996339475
  0
POINT
  8
0
  6
CONTINUOUS
 62
256
 10
241.190205630934090
 20
-45.192781733046331
  0
ARC
  8
0
  6
CONTINUOUS
 62
256
 10
243.452947195861130
 20
-47.455523297973365
 40
6.099999427795400
 50
84.601927898109011
 51
185.398089404735170
  0
LINE
  8
0
  6
CONTINUOUS
 62
256
 10
-243.528497210208540
 20
-48.516183469753187
 11
-243.041693818502950
 21
-48.029380078047566
  0
LINE
  8
0
  6
CONTINUOUS
 62
256
 10
-250.175300683622280
 20
-41.869379996339475
 11
-249.688497291916660
 21
-41.382576604633854
  0
LINE
  8
0
  6
CONTINUOUS
 62
256
 10
-243.215358601239790
 20
-48.263636518902821
 11
-249.892457903712680
 21
-41.586537216429896
  0
LINE
  8
0
  6
CONTINUOUS
 62
256
 10
-243.528497210208540
 20
-48.516183469753187
 11
-250.175300683622280
 21
-41.869379996339475
  0
POINT
  8
0
  6
CONTINUOUS
 62
256
 10
-246.851898946915410
 20
-45.192781733046331
  0
ARC
  8
0
  6
CONTINUOUS
 62
256
 10
-249.114640511842450
 20
-47.455523297973365
 40
6.099999427795398
 50
354.601910595264830
 51
95.398072101890989
  0
LINE
  8
0
  6
CONTINUOUS
 62
256
 10
-344.361923937670100
 20
-48.516183469753187
 11
-344.848727329375720
 21
-48.029380078047566
  0
LINE
  8
0
  6
CONTINUOUS
 62
256
 10
-337.715120464256420
 20
-41.869379996339475
 11
-338.201923855962040
 21
-41.382576604633854
  0
LINE
  8
0
  6
CONTINUOUS
 62
256
 10
-344.675062546638910
 20
-48.263636518902821
 11
-337.997963244165990
 21
-41.586537216429896
  0
LINE
  8
0
  6
CONTINUOUS
 62
256
 10
-344.361923937670100
 20
-48.516183469753187
 11
-337.715120464256420
 21
-41.869379996339475
  0
POINT
  8
0
  6
CONTINUOUS
 62
256
 10
-341.038522200963260
 20
-45.192781733046331
  0
ARC
  8
0
  6
CONTINUOUS
 62
256
 10
-338.775780636036250
 20
-47.455523297973365
 40
6.099999427795406
 50
84.601927898108485
 51
185.398089404735230
  0
LINE
  8
0
  6
CONTINUOUS
 62
256
 10
-344.361923937670100
 20
-136.056003250387530
 11
-344.848727329375720
 21
-136.542806642093150
  0
LINE
  8
0
  6
CONTINUOUS
 62
256
 10
-337.715120464256420
 20
-142.702806723801270
 11
-338.201923855962040
 21
-143.189610115506870
  0
LINE
  8
0
  6
CONTINUOUS
 62
256
 10
-344.675062546638910
 20
-136.308550201237920
 11
-337.997963244165990
 21
-142.985649503710850
  0
LINE
  8
0
  6
CONTINUOUS
 62
256
 10
-344.361923937670100
 20
-136.056003250387530
 11
-337.715120464256420
 21
-142.702806723801270
  0
POINT
  8
0
  6
CONTINUOUS
 62
256
 10
-341.038522200963260
 20
-139.379404987094400
  0
ARC
  8
0
  6
CONTINUOUS
 62
256
 10
-338.775780636036250
 20
-137.116663422167360
 40
6.099999427795398
 50
174.601910595264910
 51
275.398072101891500
  0
LINE
  8
0
  6
CONTINUOUS
 62
256
 10
-243.528497210208540
 20
-136.056003250387530
 11
-243.041693818502950
 21
-136.542806642093150
  0
LINE
  8
0
  6
CONTINUOUS
 62
256
 10
-250.175300683622280
 20
-142.702806723801270
 11
-249.688497291916660
 21
-143.189610115506870
  0
LINE
  8
0
  6
CONTINUOUS
 62
256
 10
-243.215358601239790
 20
-136.308550201237920
 11
-249.892457903712680
 21
-142.985649503710850
  0
LINE
  8
0
  6
CONTINUOUS
 62
256
 10
-243.528497210208540
 20
-136.056003250387530
 11
-250.175300683622280
 21
-142.702806723801270
  0
POINT
  8
0
  6
CONTINUOUS
 62
256
 10
-246.851898946915410
 20
-139.379404987094400
  0
ARC
  8
0
  6
CONTINUOUS
 62
256
 10
-249.114640511842450
 20
-137.116663422167360
 40
6.099999427795400
 50
264.601927898109010
 51
5.398089404735109
  0
ENDSEC
  0
EOF
