  0
SECTION
  2
HEADER
  9
$ACADVER
  1
AC1009
  9
$DWGCODEPAGE
  3
ansi_1250
  9
$INSBASE
 10
0.0
 20
0.0
 30
0.0
  9
$EXTMIN
 10
-5.23622
 20
-2.48
 30
0.0
  9
$EXTMAX
 10
0.0
 20
2.362
 30
0.0
  9
$LIMMIN
 10
0.0
 20
0.0
  9
$LIMMAX
 10
0.0
 20
0.0
  9
$ORTHOMODE
 70
     0
  9
$REGENMODE
 70
     1
  9
$FILLMODE
 70
     1
  9
$QTEXTMODE
 70
     0
  9
$MIRRTEXT
 70
     1
  9
$DRAGMODE
 70
     2
  9
$LTSCALE
 40
1.0
  9
$OSMODE
 70
     0
  9
$ATTMODE
 70
     1
  9
$TEXTSIZE
 40
0.2
  9
$TRACEWID
 40
0.05
  9
$TEXTSTYLE
  7
STANDARD
  9
$CLAYER
  8
0
  9
$CELTYPE
  6
CONTINUOUS
  9
$CECOLOR
 62
   256
  9
$DIMSCALE
 40
1.0
  9
$DIMASZ
 40
0.18
  9
$DIMEXO
 40
0.0625
  9
$DIMDLI
 40
0.38
  9
$DIMRND
 40
0.0
  9
$DIMDLE
 40
0.0
  9
$DIMEXE
 40
0.18
  9
$DIMTP
 40
0.0
  9
$DIMTM
 40
0.0
  9
$DIMTXT
 40
0.18
  9
$DIMCEN
 40
0.09
  9
$DIMTSZ
 40
0.0
  9
$DIMTOL
 70
     0
  9
$DIMLIM
 70
     0
  9
$DIMTIH
 70
     1
  9
$DIMTOH
 70
     1
  9
$DIMSE1
 70
     0
  9
$DIMSE2
 70
     0
  9
$DIMTAD
 70
     0
  9
$DIMZIN
 70
     0
  9
$DIMBLK
  1

  9
$DIMASO
 70
     1
  9
$DIMSHO
 70
     1
  9
$DIMPOST
  1

  9
$DIMAPOST
  1

  9
$DIMALT
 70
     0
  9
$DIMALTD
 70
     2
  9
$DIMALTF
 40
25.4
  9
$DIMLFAC
 40
1.0
  9
$DIMTOFL
 70
     0
  9
$DIMTVP
 40
0.0
  9
$DIMTIX
 70
     0
  9
$DIMSOXD
 70
     0
  9
$DIMSAH
 70
     0
  9
$DIMBLK1
  1

  9
$DIMBLK2
  1

  9
$DIMSTYLE
  2
STANDARD
  9
$DIMCLRD
 70
     0
  9
$DIMCLRE
 70
     0
  9
$DIMCLRT
 70
     0
  9
$DIMTFAC
 40
1.0
  9
$DIMGAP
 40
0.09
  9
$LUNITS
 70
     2
  9
$LUPREC
 70
     4
  9
$AXISMODE
 70
     0
  9
$AXISUNIT
 10
0.0
 20
0.0
  9
$SKETCHINC
 40
0.1
  9
$FILLETRAD
 40
0.0
  9
$AUNITS
 70
     0
  9
$AUPREC
 70
     0
  9
$MENU
  1
acad
  9
$ELEVATION
 40
0.0
  9
$PELEVATION
 40
0.0
  9
$THICKNESS
 40
0.0
  9
$LIMCHECK
 70
     0
  9
$BLIPMODE
 70
     1
  9
$CHAMFERA
 40
0.0
  9
$CHAMFERB
 40
0.0
  9
$SKPOLY
 70
     0
  9
$TDCREATE
 40
0.000000000
  9
$TDUPDATE
 40
0.000000000
  9
$TDINDWG
 40
0.0000000000
  9
$TDUSRTIMER
 40
0.0000000000
  9
$USRTIMER
 70
     1
  9
$ANGBASE
 50
0.0
  9
$ANGDIR
 70
     0
  9
$PDMODE
 70
     0
  9
$PDSIZE
 40
0.0
  9
$PLINEWID
 40
0.0
  9
$COORDS
 70
     0
  9
$SPLFRAME
 70
     0
  9
$SPLINETYPE
 70
     6
  9
$SPLINESEGS
 70
     8
  9
$ATTDIA
 70
     0
  9
$ATTREQ
 70
     1
  9
$HANDLING
 70
     1
  9
$HANDSEED
  5
3EB
  9
$SURFTAB1
 70
     6
  9
$SURFTAB2
 70
     6
  9
$SURFTYPE
 70
     6
  9
$SURFU
 70
     6
  9
$SURFV
 70
     6
  9
$UCSNAME
  2

  9
$UCSORG
 10
0.0
 20
0.0
 30
0.0
  9
$UCSXDIR
 10
1.0
 20
0.0
 30
0.0
  9
$UCSYDIR
 10
0.0
 20
1.0
 30
0.0
  9
$PUCSNAME
  2

  9
$PUCSORG
 10
0.0
 20
0.0
 30
0.0
  9
$PUCSXDIR
 10
1.0
 20
0.0
 30
0.0
  9
$PUCSYDIR
 10
0.0
 20
1.0
 30
0.0
  9
$USERI1
 70
     0
  9
$USERI2
 70
     0
  9
$USERI3
 70
     0
  9
$USERI4
 70
     0
  9
$USERI5
 70
     0
  9
$USERR1
 40
0.0
  9
$USERR2
 40
0.0
  9
$USERR3
 40
0.0
  9
$USERR4
 40
0.0
  9
$USERR5
 40
0.0
  9
$WORLDVIEW
 70
     1
  9
$SHADEDGE
 70
     3
  9
$SHADEDIF
 70
    70
  9
$TILEMODE
 70
     1
  9
$MAXACTVP
 70
    16
  9
$PINSBASE
 10
0.0
 20
0.0
 30
0.0
  9
$PLIMCHECK
 70
     0
  9
$PEXTMIN
 10
1.000000E+20
 20
1.000000E+20
 30
1.000000E+20
  9
$PEXTMAX
 10
-1.000000E+20
 20
-1.000000E+20
 30
-1.000000E+20
  9
$PLIMMIN
 10
0.0
 20
0.0
  9
$PLIMMAX
 10
12.0
 20
9.0
  9
$UNITMODE
 70
     0
  9
$VISRETAIN
 70
     0
  9
$PLINEGEN
 70
     1
  9
$PSLTSCALE
 70
     0
  9
$TREEDEPTH
 70
  3020
  0
ENDSEC
  0
SECTION
  2
TABLES
  0
TABLE
  2
VPORT
 70
     1
  0
VPORT
  2
*ACTIVE
 70
     0
 10
0.0
 20
0.0
 11
1.0
 21
1.0
 12
6.591288
 22
4.579184
 13
0.0
 23
0.0
 14
1.0
 24
1.0
 15
0.0
 25
0.0
 16
0.0
 26
0.0
 36
1.0
 17
0.0
 27
0.0
 37
0.0
 40
9.158369
 41
0.688564
 42
50.0
 43
0.0
 44
0.0
 50
0.0
 51
0.0
 71
     0
 72
   100
 73
     1
 74
     1
 75
     0
 76
     0
 77
     0
 78
     0
  0
ENDTAB
  0
TABLE
  2
LTYPE
 70
     5
  0
LTYPE
  2
CONTINUOUS
 70
    64
  3
Solid line
 72
    65
 73
     0
 40
0.0
  0
LTYPE
  2
CENTER
 70
    64
  3
Center ____ _ ____ _ ____ _ ____ _ ____ _ ____
 72
    65
 73
     4
 40
50.8
 49
31.75
 49
-6.35
 49
6.35
 49
-6.35
  0
LTYPE
  2
HIDDEN
 70
    64
  3
Hidden __ __ __ __ __ __ __ __ __ __ __ __ __ __
 72
    65
 73
     2
 40
9.525
 49
6.35
 49
-3.175
  0
LTYPE
  2
CENTER2
 70
    64
  3
Center (.5x) ___ _ ___ _ ___ _ ___ _ ___ _ ___
 72
    65
 73
     4
 40
28.575
 49
19.05
 49
-3.175
 49
3.175
 49
-3.175
  0
LTYPE
  2
HIDDEN2
 70
    64
  3
Hidden (.5x) _ _ _ _ _ _ _ _ _ _ _ _ _ _ _ _ _
 72
    65
 73
     2
 40
4.7625
 49
3.175
 49
-1.5875
  0
ENDTAB
  0
TABLE
  2
LAYER
 70
     1
  0
LAYER
  2
0
 70
     0
 62
     7
  6
CONTINUOUS
  0
ENDTAB
  0
TABLE
  2
STYLE
 70
     1
  0
STYLE
  2
STANDARD
 70
     0
 40
0.0
 41
1.0
 50
0.0
 71
     0
 42
0.0
  3
txt
  4

  0
ENDTAB
  0
TABLE
  2
VIEW
 70
     0
  0
ENDTAB
  0
TABLE
  2
UCS
 70
     0
  0
ENDTAB
  0
TABLE
  2
APPID
 70
     1
  0
APPID
  2
ACAD
 70
     0
  0
ENDTAB
  0
TABLE
  2
DIMSTYLE
 70
     1
  0
DIMSTYLE
  2
STANDARD
 70
     0
  3

  4

  5

  6

  7

 40
1.0
 41
0.18
 42
0.0625
 43
0.38
 44
0.18
 45
0.0
 46
0.0
 47
0.0
 48
0.0
 71
     0
 72
     0
 73
     1
 74
     1
 75
     0
 76
     0
 77
     0
 78
     0
140
0.18
141
0.09
142
0.0
143
25.4
144
1.0
145
0.0
146
1.0
147
0.09
170
     0
171
     2
172
     0
173
     0
174
     0
175
     0
176
     0
177
     0
178
     0
  0
ENDTAB
  0
ENDSEC
  0
SECTION
  2
BLOCKS
  0
ENDSEC
  0
SECTION
  2
ENTITIES
  0
LINE
  8
0
  6
CONTINUOUS
 62
     7
  5
216
 10
-5.080326
 20
1.575
 30
0.0
 11
-5.081038
 21
1.510679
 31
0.0
  0
LINE
  8
0
  6
CONTINUOUS
 62
     7
  5
217
 10
-5.081038
 20
1.510679
 30
0.0
 11
-5.08174
 21
1.446343
 31
0.0
  0
LINE
  8
0
  6
CONTINUOUS
 62
     7
  5
218
 10
-5.08174
 20
1.446343
 30
0.0
 11
-5.082432
 21
1.381994
 31
0.0
  0
LINE
  8
0
  6
CONTINUOUS
 62
     7
  5
219
 10
-5.082432
 20
1.381994
 30
0.0
 11
-5.083113
 21
1.31763
 31
0.0
  0
LINE
  8
0
  6
CONTINUOUS
 62
     7
  5
21A
 10
-5.083113
 20
1.31763
 30
0.0
 11
-5.083784
 21
1.253252
 31
0.0
  0
LINE
  8
0
  6
CONTINUOUS
 62
     7
  5
21B
 10
-5.083784
 20
1.253252
 30
0.0
 11
-5.084445
 21
1.188861
 31
0.0
  0
LINE
  8
0
  6
CONTINUOUS
 62
     7
  5
21C
 10
-5.084445
 20
1.188861
 30
0.0
 11
-5.085095
 21
1.124457
 31
0.0
  0
LINE
  8
0
  6
CONTINUOUS
 62
     7
  5
21D
 10
-5.085095
 20
1.124457
 30
0.0
 11
-5.085736
 21
1.06004
 31
0.0
  0
LINE
  8
0
  6
CONTINUOUS
 62
     7
  5
21E
 10
-5.085736
 20
1.06004
 30
0.0
 11
-5.086366
 21
0.995609
 31
0.0
  0
LINE
  8
0
  6
CONTINUOUS
 62
     7
  5
21F
 10
-5.086366
 20
0.995609
 30
0.0
 11
-5.086985
 21
0.931166
 31
0.0
  0
LINE
  8
0
  6
CONTINUOUS
 62
     7
  5
220
 10
-5.086985
 20
0.931166
 30
0.0
 11
-5.087595
 21
0.86671
 31
0.0
  0
LINE
  8
0
  6
CONTINUOUS
 62
     7
  5
221
 10
-5.087595
 20
0.86671
 30
0.0
 11
-5.088194
 21
0.802243
 31
0.0
  0
LINE
  8
0
  6
CONTINUOUS
 62
     7
  5
222
 10
-5.088194
 20
0.802243
 30
0.0
 11
-5.088783
 21
0.737763
 31
0.0
  0
LINE
  8
0
  6
CONTINUOUS
 62
     7
  5
223
 10
-5.088783
 20
0.737763
 30
0.0
 11
-5.089361
 21
0.673271
 31
0.0
  0
LINE
  8
0
  6
CONTINUOUS
 62
     7
  5
224
 10
-5.089361
 20
0.673271
 30
0.0
 11
-5.08993
 21
0.608767
 31
0.0
  0
LINE
  8
0
  6
CONTINUOUS
 62
     7
  5
225
 10
-5.08993
 20
0.608767
 30
0.0
 11
-5.090488
 21
0.544252
 31
0.0
  0
LINE
  8
0
  6
CONTINUOUS
 62
     7
  5
226
 10
-5.090488
 20
0.544252
 30
0.0
 11
-5.091036
 21
0.479726
 31
0.0
  0
LINE
  8
0
  6
CONTINUOUS
 62
     7
  5
227
 10
-5.091036
 20
0.479726
 30
0.0
 11
-5.091573
 21
0.415189
 31
0.0
  0
LINE
  8
0
  6
CONTINUOUS
 62
     7
  5
228
 10
-5.091573
 20
0.415189
 30
0.0
 11
-5.0921
 21
0.35064
 31
0.0
  0
LINE
  8
0
  6
CONTINUOUS
 62
     7
  5
229
 10
-5.0921
 20
0.35064
 30
0.0
 11
-5.092617
 21
0.286082
 31
0.0
  0
LINE
  8
0
  6
CONTINUOUS
 62
     7
  5
22A
 10
-5.092617
 20
0.286082
 30
0.0
 11
-5.093124
 21
0.221513
 31
0.0
  0
LINE
  8
0
  6
CONTINUOUS
 62
     7
  5
22B
 10
-5.093124
 20
0.221513
 30
0.0
 11
-5.09362
 21
0.156933
 31
0.0
  0
LINE
  8
0
  6
CONTINUOUS
 62
     7
  5
22C
 10
-5.09362
 20
0.156933
 30
0.0
 11
-5.094106
 21
0.092344
 31
0.0
  0
LINE
  8
0
  6
CONTINUOUS
 62
     7
  5
22D
 10
-5.094106
 20
0.092344
 30
0.0
 11
-5.094582
 21
0.027745
 31
0.0
  0
LINE
  8
0
  6
CONTINUOUS
 62
     7
  5
22E
 10
-5.094582
 20
0.027745
 30
0.0
 11
-5.095047
 21
-0.036864
 31
0.0
  0
LINE
  8
0
  6
CONTINUOUS
 62
     7
  5
22F
 10
-5.095047
 20
-0.036864
 30
0.0
 11
-5.095502
 21
-0.101482
 31
0.0
  0
LINE
  8
0
  6
CONTINUOUS
 62
     7
  5
230
 10
-5.095502
 20
-0.101482
 30
0.0
 11
-5.095947
 21
-0.166109
 31
0.0
  0
LINE
  8
0
  6
CONTINUOUS
 62
     7
  5
231
 10
-5.095947
 20
-0.166109
 30
0.0
 11
-5.096382
 21
-0.230745
 31
0.0
  0
LINE
  8
0
  6
CONTINUOUS
 62
     7
  5
232
 10
-5.096382
 20
-0.230745
 30
0.0
 11
-5.096806
 21
-0.29539
 31
0.0
  0
LINE
  8
0
  6
CONTINUOUS
 62
     7
  5
233
 10
-5.096806
 20
-0.29539
 30
0.0
 11
-5.09722
 21
-0.360044
 31
0.0
  0
LINE
  8
0
  6
CONTINUOUS
 62
     7
  5
234
 10
-5.09722
 20
-0.360044
 30
0.0
 11
-5.097623
 21
-0.424706
 31
0.0
  0
LINE
  8
0
  6
CONTINUOUS
 62
     7
  5
235
 10
-5.097623
 20
-0.424706
 30
0.0
 11
-5.098017
 21
-0.489375
 31
0.0
  0
LINE
  8
0
  6
CONTINUOUS
 62
     7
  5
236
 10
-5.098017
 20
-0.489375
 30
0.0
 11
-5.0984
 21
-0.554053
 31
0.0
  0
LINE
  8
0
  6
CONTINUOUS
 62
     7
  5
237
 10
-5.0984
 20
-0.554053
 30
0.0
 11
-5.098772
 21
-0.618739
 31
0.0
  0
LINE
  8
0
  6
CONTINUOUS
 62
     7
  5
238
 10
-5.098772
 20
-0.618739
 30
0.0
 11
-5.099135
 21
-0.683432
 31
0.0
  0
LINE
  8
0
  6
CONTINUOUS
 62
     7
  5
239
 10
-5.105315
 20
1.575
 30
0.0
 11
-5.080326
 21
1.575
 31
0.0
  0
LINE
  8
0
  6
CONTINUOUS
 62
     7
  5
23A
 10
-5.105315
 20
1.575
 30
0.0
 11
-5.105315
 21
-0.683432
 31
0.0
  0
LINE
  8
0
  6
CONTINUOUS
 62
     7
  5
23B
 10
-5.105315
 20
-0.683432
 30
0.0
 11
-5.105315
 21
-0.865
 31
0.0
  0
LINE
  8
0
  6
CONTINUOUS
 62
     7
  5
23C
 10
-5.099135
 20
-0.683432
 30
0.0
 11
-5.099191
 21
-0.691718
 31
0.0
  0
LINE
  8
0
  6
CONTINUOUS
 62
     7
  5
23D
 10
-5.099191
 20
-0.691718
 30
0.0
 11
-5.09927
 21
-0.70003
 31
0.0
  0
LINE
  8
0
  6
CONTINUOUS
 62
     7
  5
23E
 10
-5.09927
 20
-0.70003
 30
0.0
 11
-5.09937
 21
-0.708339
 31
0.0
  0
LINE
  8
0
  6
CONTINUOUS
 62
     7
  5
23F
 10
-5.09937
 20
-0.708339
 30
0.0
 11
-5.099491
 21
-0.716616
 31
0.0
  0
LINE
  8
0
  6
CONTINUOUS
 62
     7
  5
240
 10
-5.099491
 20
-0.716616
 30
0.0
 11
-5.099633
 21
-0.724831
 31
0.0
  0
LINE
  8
0
  6
CONTINUOUS
 62
     7
  5
241
 10
-5.099633
 20
-0.724831
 30
0.0
 11
-5.099794
 21
-0.732958
 31
0.0
  0
LINE
  8
0
  6
CONTINUOUS
 62
     7
  5
242
 10
-5.099794
 20
-0.732958
 30
0.0
 11
-5.099973
 21
-0.740968
 31
0.0
  0
LINE
  8
0
  6
CONTINUOUS
 62
     7
  5
243
 10
-5.099973
 20
-0.740968
 30
0.0
 11
-5.100168
 21
-0.748839
 31
0.0
  0
LINE
  8
0
  6
CONTINUOUS
 62
     7
  5
244
 10
-5.100168
 20
-0.748839
 30
0.0
 11
-5.100379
 21
-0.75655
 31
0.0
  0
LINE
  8
0
  6
CONTINUOUS
 62
     7
  5
245
 10
-5.100379
 20
-0.75655
 30
0.0
 11
-5.100602
 21
-0.764077
 31
0.0
  0
LINE
  8
0
  6
CONTINUOUS
 62
     7
  5
246
 10
-5.100602
 20
-0.764077
 30
0.0
 11
-5.100837
 21
-0.771399
 31
0.0
  0
LINE
  8
0
  6
CONTINUOUS
 62
     7
  5
247
 10
-5.100837
 20
-0.771399
 30
0.0
 11
-5.10108
 21
-0.778493
 31
0.0
  0
LINE
  8
0
  6
CONTINUOUS
 62
     7
  5
248
 10
-5.10108
 20
-0.778493
 30
0.0
 11
-5.10133
 21
-0.785339
 31
0.0
  0
LINE
  8
0
  6
CONTINUOUS
 62
     7
  5
249
 10
-5.10133
 20
-0.785339
 30
0.0
 11
-5.101583
 21
-0.791918
 31
0.0
  0
LINE
  8
0
  6
CONTINUOUS
 62
     7
  5
24A
 10
-5.101583
 20
-0.791918
 30
0.0
 11
-5.101839
 21
-0.798213
 31
0.0
  0
LINE
  8
0
  6
CONTINUOUS
 62
     7
  5
24B
 10
-5.101839
 20
-0.798213
 30
0.0
 11
-5.102094
 21
-0.80421
 31
0.0
  0
LINE
  8
0
  6
CONTINUOUS
 62
     7
  5
24C
 10
-5.102094
 20
-0.80421
 30
0.0
 11
-5.102347
 21
-0.809923
 31
0.0
  0
LINE
  8
0
  6
CONTINUOUS
 62
     7
  5
24D
 10
-5.102347
 20
-0.809923
 30
0.0
 11
-5.102602
 21
-0.815455
 31
0.0
  0
LINE
  8
0
  6
CONTINUOUS
 62
     7
  5
24E
 10
-5.102602
 20
-0.815455
 30
0.0
 11
-5.102858
 21
-0.820794
 31
0.0
  0
LINE
  8
0
  6
CONTINUOUS
 62
     7
  5
24F
 10
-5.102858
 20
-0.820794
 30
0.0
 11
-5.103111
 21
-0.825913
 31
0.0
  0
LINE
  8
0
  6
CONTINUOUS
 62
     7
  5
250
 10
-5.103111
 20
-0.825913
 30
0.0
 11
-5.10336
 21
-0.830787
 31
0.0
  0
LINE
  8
0
  6
CONTINUOUS
 62
     7
  5
251
 10
-5.10336
 20
-0.830787
 30
0.0
 11
-5.103602
 21
-0.835393
 31
0.0
  0
LINE
  8
0
  6
CONTINUOUS
 62
     7
  5
252
 10
-5.103602
 20
-0.835393
 30
0.0
 11
-5.103834
 21
-0.83971
 31
0.0
  0
LINE
  8
0
  6
CONTINUOUS
 62
     7
  5
253
 10
-5.103834
 20
-0.83971
 30
0.0
 11
-5.104056
 21
-0.843721
 31
0.0
  0
LINE
  8
0
  6
CONTINUOUS
 62
     7
  5
254
 10
-5.104056
 20
-0.843721
 30
0.0
 11
-5.104264
 21
-0.84741
 31
0.0
  0
LINE
  8
0
  6
CONTINUOUS
 62
     7
  5
255
 10
-5.104264
 20
-0.84741
 30
0.0
 11
-5.104457
 21
-0.850765
 31
0.0
  0
LINE
  8
0
  6
CONTINUOUS
 62
     7
  5
256
 10
-5.104457
 20
-0.850765
 30
0.0
 11
-5.104633
 21
-0.853776
 31
0.0
  0
LINE
  8
0
  6
CONTINUOUS
 62
     7
  5
257
 10
-5.104633
 20
-0.853776
 30
0.0
 11
-5.104791
 21
-0.856436
 31
0.0
  0
LINE
  8
0
  6
CONTINUOUS
 62
     7
  5
258
 10
-5.104791
 20
-0.856436
 30
0.0
 11
-5.10493
 21
-0.858738
 31
0.0
  0
LINE
  8
0
  6
CONTINUOUS
 62
     7
  5
259
 10
-5.10493
 20
-0.858738
 30
0.0
 11
-5.105048
 21
-0.860678
 31
0.0
  0
LINE
  8
0
  6
CONTINUOUS
 62
     7
  5
25A
 10
-5.105048
 20
-0.860678
 30
0.0
 11
-5.105145
 21
-0.862255
 31
0.0
  0
LINE
  8
0
  6
CONTINUOUS
 62
     7
  5
25B
 10
-5.105145
 20
-0.862255
 30
0.0
 11
-5.10522
 21
-0.86347
 31
0.0
  0
LINE
  8
0
  6
CONTINUOUS
 62
     7
  5
25C
 10
-5.10522
 20
-0.86347
 30
0.0
 11
-5.105273
 21
-0.864327
 31
0.0
  0
LINE
  8
0
  6
CONTINUOUS
 62
     7
  5
25D
 10
-5.105273
 20
-0.864327
 30
0.0
 11
-5.105305
 21
-0.864834
 31
0.0
  0
LINE
  8
0
  6
CONTINUOUS
 62
     7
  5
25E
 10
-5.105305
 20
-0.864834
 30
0.0
 11
-5.105315
 21
-0.865
 31
0.0
  0
LINE
  8
0
  6
CONTINUOUS
 62
     7
  5
25F
 10
-5.225388
 20
-2.05074
 30
0.0
 11
-5.225073
 21
-2.050822
 31
0.0
  0
LINE
  8
0
  6
CONTINUOUS
 62
     7
  5
260
 10
-5.225073
 20
-2.050822
 30
0.0
 11
-5.224749
 21
-2.051072
 31
0.0
  0
LINE
  8
0
  6
CONTINUOUS
 62
     7
  5
261
 10
-5.224749
 20
-2.051072
 30
0.0
 11
-5.224418
 21
-2.051496
 31
0.0
  0
LINE
  8
0
  6
CONTINUOUS
 62
     7
  5
262
 10
-5.224418
 20
-2.051496
 30
0.0
 11
-5.224082
 21
-2.052097
 31
0.0
  0
LINE
  8
0
  6
CONTINUOUS
 62
     7
  5
263
 10
-5.224082
 20
-2.052097
 30
0.0
 11
-5.223741
 21
-2.052877
 31
0.0
  0
LINE
  8
0
  6
CONTINUOUS
 62
     7
  5
264
 10
-5.223741
 20
-2.052877
 30
0.0
 11
-5.223397
 21
-2.053836
 31
0.0
  0
LINE
  8
0
  6
CONTINUOUS
 62
     7
  5
265
 10
-5.223397
 20
-2.053836
 30
0.0
 11
-5.223051
 21
-2.054973
 31
0.0
  0
LINE
  8
0
  6
CONTINUOUS
 62
     7
  5
266
 10
-5.223051
 20
-2.054973
 30
0.0
 11
-5.222705
 21
-2.056285
 31
0.0
  0
LINE
  8
0
  6
CONTINUOUS
 62
     7
  5
267
 10
-5.222705
 20
-2.056285
 30
0.0
 11
-5.22236
 21
-2.05777
 31
0.0
  0
LINE
  8
0
  6
CONTINUOUS
 62
     7
  5
268
 10
-5.22236
 20
-2.05777
 30
0.0
 11
-5.222018
 21
-2.059421
 31
0.0
  0
LINE
  8
0
  6
CONTINUOUS
 62
     7
  5
269
 10
-5.222018
 20
-2.059421
 30
0.0
 11
-5.221679
 21
-2.061235
 31
0.0
  0
LINE
  8
0
  6
CONTINUOUS
 62
     7
  5
26A
 10
-5.221679
 20
-2.061235
 30
0.0
 11
-5.221346
 21
-2.063202
 31
0.0
  0
LINE
  8
0
  6
CONTINUOUS
 62
     7
  5
26B
 10
-5.221346
 20
-2.063202
 30
0.0
 11
-5.221019
 21
-2.065315
 31
0.0
  0
LINE
  8
0
  6
CONTINUOUS
 62
     7
  5
26C
 10
-5.221019
 20
-2.065315
 30
0.0
 11
-5.220701
 21
-2.067563
 31
0.0
  0
LINE
  8
0
  6
CONTINUOUS
 62
     7
  5
26D
 10
-5.220701
 20
-2.067563
 30
0.0
 11
-5.220392
 21
-2.069935
 31
0.0
  0
LINE
  8
0
  6
CONTINUOUS
 62
     7
  5
26E
 10
-5.220392
 20
-2.069935
 30
0.0
 11
-5.220094
 21
-2.072417
 31
0.0
  0
LINE
  8
0
  6
CONTINUOUS
 62
     7
  5
26F
 10
-5.220094
 20
-2.072417
 30
0.0
 11
-5.219808
 21
-2.074996
 31
0.0
  0
LINE
  8
0
  6
CONTINUOUS
 62
     7
  5
270
 10
-5.219808
 20
-2.074996
 30
0.0
 11
-5.219535
 21
-2.077666
 31
0.0
  0
LINE
  8
0
  6
CONTINUOUS
 62
     7
  5
271
 10
-5.219535
 20
-2.077666
 30
0.0
 11
-5.219268
 21
-2.080478
 31
0.0
  0
LINE
  8
0
  6
CONTINUOUS
 62
     7
  5
272
 10
-5.219268
 20
-2.080478
 30
0.0
 11
-5.21901
 21
-2.083438
 31
0.0
  0
LINE
  8
0
  6
CONTINUOUS
 62
     7
  5
273
 10
-5.21901
 20
-2.083438
 30
0.0
 11
-5.218761
 21
-2.086537
 31
0.0
  0
LINE
  8
0
  6
CONTINUOUS
 62
     7
  5
274
 10
-5.218761
 20
-2.086537
 30
0.0
 11
-5.218523
 21
-2.089767
 31
0.0
  0
LINE
  8
0
  6
CONTINUOUS
 62
     7
  5
275
 10
-5.218523
 20
-2.089767
 30
0.0
 11
-5.218297
 21
-2.093117
 31
0.0
  0
LINE
  8
0
  6
CONTINUOUS
 62
     7
  5
276
 10
-5.218297
 20
-2.093117
 30
0.0
 11
-5.218086
 21
-2.096576
 31
0.0
  0
LINE
  8
0
  6
CONTINUOUS
 62
     7
  5
277
 10
-5.218086
 20
-2.096576
 30
0.0
 11
-5.217891
 21
-2.100133
 31
0.0
  0
LINE
  8
0
  6
CONTINUOUS
 62
     7
  5
278
 10
-5.217891
 20
-2.100133
 30
0.0
 11
-5.217711
 21
-2.103775
 31
0.0
  0
LINE
  8
0
  6
CONTINUOUS
 62
     7
  5
279
 10
-5.217711
 20
-2.103775
 30
0.0
 11
-5.217549
 21
-2.107491
 31
0.0
  0
LINE
  8
0
  6
CONTINUOUS
 62
     7
  5
27A
 10
-5.217549
 20
-2.107491
 30
0.0
 11
-5.217405
 21
-2.111269
 31
0.0
  0
LINE
  8
0
  6
CONTINUOUS
 62
     7
  5
27B
 10
-5.217405
 20
-2.111269
 30
0.0
 11
-5.21728
 21
-2.115096
 31
0.0
  0
LINE
  8
0
  6
CONTINUOUS
 62
     7
  5
27C
 10
-5.21728
 20
-2.115096
 30
0.0
 11
-5.217174
 21
-2.118957
 31
0.0
  0
LINE
  8
0
  6
CONTINUOUS
 62
     7
  5
27D
 10
-5.217174
 20
-2.118957
 30
0.0
 11
-5.217088
 21
-2.122837
 31
0.0
  0
LINE
  8
0
  6
CONTINUOUS
 62
     7
  5
27E
 10
-5.217088
 20
-2.122837
 30
0.0
 11
-5.217021
 21
-2.126722
 31
0.0
  0
LINE
  8
0
  6
CONTINUOUS
 62
     7
  5
27F
 10
-5.217021
 20
-2.126722
 30
0.0
 11
-5.216974
 21
-2.130594
 31
0.0
  0
LINE
  8
0
  6
CONTINUOUS
 62
     7
  5
280
 10
-5.216974
 20
-2.130594
 30
0.0
 11
-5.216947
 21
-2.134438
 31
0.0
  0
LINE
  8
0
  6
CONTINUOUS
 62
     7
  5
281
 10
-5.216947
 20
-2.134438
 30
0.0
 11
-5.216937
 21
-2.13824
 31
0.0
  0
LINE
  8
0
  6
CONTINUOUS
 62
     7
  5
282
 10
-5.225388
 20
-2.22574
 30
0.0
 11
-5.226008
 21
-2.225408
 31
0.0
  0
LINE
  8
0
  6
CONTINUOUS
 62
     7
  5
283
 10
-5.226008
 20
-2.225408
 30
0.0
 11
-5.226619
 21
-2.224384
 31
0.0
  0
LINE
  8
0
  6
CONTINUOUS
 62
     7
  5
284
 10
-5.226619
 20
-2.224384
 30
0.0
 11
-5.22721
 21
-2.222646
 31
0.0
  0
LINE
  8
0
  6
CONTINUOUS
 62
     7
  5
285
 10
-5.22721
 20
-2.222646
 30
0.0
 11
-5.227773
 21
-2.220197
 31
0.0
  0
LINE
  8
0
  6
CONTINUOUS
 62
     7
  5
286
 10
-5.227773
 20
-2.220197
 30
0.0
 11
-5.228301
 21
-2.21706
 31
0.0
  0
LINE
  8
0
  6
CONTINUOUS
 62
     7
  5
287
 10
-5.228301
 20
-2.21706
 30
0.0
 11
-5.228788
 21
-2.213277
 31
0.0
  0
LINE
  8
0
  6
CONTINUOUS
 62
     7
  5
288
 10
-5.228788
 20
-2.213277
 30
0.0
 11
-5.229232
 21
-2.208913
 31
0.0
  0
LINE
  8
0
  6
CONTINUOUS
 62
     7
  5
289
 10
-5.229232
 20
-2.208913
 30
0.0
 11
-5.229629
 21
-2.204056
 31
0.0
  0
LINE
  8
0
  6
CONTINUOUS
 62
     7
  5
28A
 10
-5.229629
 20
-2.204056
 30
0.0
 11
-5.229978
 21
-2.198803
 31
0.0
  0
LINE
  8
0
  6
CONTINUOUS
 62
     7
  5
28B
 10
-5.229978
 20
-2.198803
 30
0.0
 11
-5.230292
 21
-2.193027
 31
0.0
  0
LINE
  8
0
  6
CONTINUOUS
 62
     7
  5
28C
 10
-5.230292
 20
-2.193027
 30
0.0
 11
-5.230571
 21
-2.186695
 31
0.0
  0
LINE
  8
0
  6
CONTINUOUS
 62
     7
  5
28D
 10
-5.230571
 20
-2.186695
 30
0.0
 11
-5.230813
 21
-2.179884
 31
0.0
  0
LINE
  8
0
  6
CONTINUOUS
 62
     7
  5
28E
 10
-5.230813
 20
-2.179884
 30
0.0
 11
-5.231014
 21
-2.172685
 31
0.0
  0
LINE
  8
0
  6
CONTINUOUS
 62
     7
  5
28F
 10
-5.231014
 20
-2.172685
 30
0.0
 11
-5.231174
 21
-2.165192
 31
0.0
  0
LINE
  8
0
  6
CONTINUOUS
 62
     7
  5
290
 10
-5.231174
 20
-2.165192
 30
0.0
 11
-5.231292
 21
-2.157508
 31
0.0
  0
LINE
  8
0
  6
CONTINUOUS
 62
     7
  5
291
 10
-5.231292
 20
-2.157508
 30
0.0
 11
-5.231369
 21
-2.149748
 31
0.0
  0
LINE
  8
0
  6
CONTINUOUS
 62
     7
  5
292
 10
-5.231369
 20
-2.149748
 30
0.0
 11
-5.231406
 21
-2.142038
 31
0.0
  0
LINE
  8
0
  6
CONTINUOUS
 62
     7
  5
293
 10
-5.231406
 20
-2.142038
 30
0.0
 11
-5.231406
 21
-2.134442
 31
0.0
  0
LINE
  8
0
  6
CONTINUOUS
 62
     7
  5
294
 10
-5.231406
 20
-2.134442
 30
0.0
 11
-5.231369
 21
-2.126732
 31
0.0
  0
LINE
  8
0
  6
CONTINUOUS
 62
     7
  5
295
 10
-5.231369
 20
-2.126732
 30
0.0
 11
-5.231292
 21
-2.118972
 31
0.0
  0
LINE
  8
0
  6
CONTINUOUS
 62
     7
  5
296
 10
-5.231292
 20
-2.118972
 30
0.0
 11
-5.231174
 21
-2.111288
 31
0.0
  0
LINE
  8
0
  6
CONTINUOUS
 62
     7
  5
297
 10
-5.231174
 20
-2.111288
 30
0.0
 11
-5.231014
 21
-2.103795
 31
0.0
  0
LINE
  8
0
  6
CONTINUOUS
 62
     7
  5
298
 10
-5.231014
 20
-2.103795
 30
0.0
 11
-5.230813
 21
-2.096596
 31
0.0
  0
LINE
  8
0
  6
CONTINUOUS
 62
     7
  5
299
 10
-5.230813
 20
-2.096596
 30
0.0
 11
-5.230571
 21
-2.089785
 31
0.0
  0
LINE
  8
0
  6
CONTINUOUS
 62
     7
  5
29A
 10
-5.230571
 20
-2.089785
 30
0.0
 11
-5.230292
 21
-2.083453
 31
0.0
  0
LINE
  8
0
  6
CONTINUOUS
 62
     7
  5
29B
 10
-5.230292
 20
-2.083453
 30
0.0
 11
-5.229978
 21
-2.077677
 31
0.0
  0
LINE
  8
0
  6
CONTINUOUS
 62
     7
  5
29C
 10
-5.229978
 20
-2.077677
 30
0.0
 11
-5.229629
 21
-2.072424
 31
0.0
  0
LINE
  8
0
  6
CONTINUOUS
 62
     7
  5
29D
 10
-5.229629
 20
-2.072424
 30
0.0
 11
-5.229232
 21
-2.067567
 31
0.0
  0
LINE
  8
0
  6
CONTINUOUS
 62
     7
  5
29E
 10
-5.229232
 20
-2.067567
 30
0.0
 11
-5.228788
 21
-2.063203
 31
0.0
  0
LINE
  8
0
  6
CONTINUOUS
 62
     7
  5
29F
 10
-5.228788
 20
-2.063203
 30
0.0
 11
-5.228301
 21
-2.05942
 31
0.0
  0
LINE
  8
0
  6
CONTINUOUS
 62
     7
  5
2A0
 10
-5.228301
 20
-2.05942
 30
0.0
 11
-5.227773
 21
-2.056283
 31
0.0
  0
LINE
  8
0
  6
CONTINUOUS
 62
     7
  5
2A1
 10
-5.227773
 20
-2.056283
 30
0.0
 11
-5.22721
 21
-2.053834
 31
0.0
  0
LINE
  8
0
  6
CONTINUOUS
 62
     7
  5
2A2
 10
-5.22721
 20
-2.053834
 30
0.0
 11
-5.226619
 21
-2.052096
 31
0.0
  0
LINE
  8
0
  6
CONTINUOUS
 62
     7
  5
2A3
 10
-5.226619
 20
-2.052096
 30
0.0
 11
-5.226008
 21
-2.051072
 31
0.0
  0
LINE
  8
0
  6
CONTINUOUS
 62
     7
  5
2A4
 10
-5.226008
 20
-2.051072
 30
0.0
 11
-5.225388
 21
-2.05074
 31
0.0
  0
LINE
  8
0
  6
CONTINUOUS
 62
     7
  5
2A5
 10
-5.216937
 20
-2.13824
 30
0.0
 11
-5.216947
 21
-2.142042
 31
0.0
  0
LINE
  8
0
  6
CONTINUOUS
 62
     7
  5
2A6
 10
-5.216947
 20
-2.142042
 30
0.0
 11
-5.216974
 21
-2.145886
 31
0.0
  0
LINE
  8
0
  6
CONTINUOUS
 62
     7
  5
2A7
 10
-5.216974
 20
-2.145886
 30
0.0
 11
-5.217021
 21
-2.149758
 31
0.0
  0
LINE
  8
0
  6
CONTINUOUS
 62
     7
  5
2A8
 10
-5.217021
 20
-2.149758
 30
0.0
 11
-5.217088
 21
-2.153643
 31
0.0
  0
LINE
  8
0
  6
CONTINUOUS
 62
     7
  5
2A9
 10
-5.217088
 20
-2.153643
 30
0.0
 11
-5.217174
 21
-2.157523
 31
0.0
  0
LINE
  8
0
  6
CONTINUOUS
 62
     7
  5
2AA
 10
-5.217174
 20
-2.157523
 30
0.0
 11
-5.21728
 21
-2.161384
 31
0.0
  0
LINE
  8
0
  6
CONTINUOUS
 62
     7
  5
2AB
 10
-5.21728
 20
-2.161384
 30
0.0
 11
-5.217405
 21
-2.165211
 31
0.0
  0
LINE
  8
0
  6
CONTINUOUS
 62
     7
  5
2AC
 10
-5.217405
 20
-2.165211
 30
0.0
 11
-5.217549
 21
-2.168989
 31
0.0
  0
LINE
  8
0
  6
CONTINUOUS
 62
     7
  5
2AD
 10
-5.217549
 20
-2.168989
 30
0.0
 11
-5.217711
 21
-2.172705
 31
0.0
  0
LINE
  8
0
  6
CONTINUOUS
 62
     7
  5
2AE
 10
-5.217711
 20
-2.172705
 30
0.0
 11
-5.217891
 21
-2.176347
 31
0.0
  0
LINE
  8
0
  6
CONTINUOUS
 62
     7
  5
2AF
 10
-5.217891
 20
-2.176347
 30
0.0
 11
-5.218086
 21
-2.179904
 31
0.0
  0
LINE
  8
0
  6
CONTINUOUS
 62
     7
  5
2B0
 10
-5.218086
 20
-2.179904
 30
0.0
 11
-5.218297
 21
-2.183363
 31
0.0
  0
LINE
  8
0
  6
CONTINUOUS
 62
     7
  5
2B1
 10
-5.218297
 20
-2.183363
 30
0.0
 11
-5.218523
 21
-2.186713
 31
0.0
  0
LINE
  8
0
  6
CONTINUOUS
 62
     7
  5
2B2
 10
-5.218523
 20
-2.186713
 30
0.0
 11
-5.218761
 21
-2.189943
 31
0.0
  0
LINE
  8
0
  6
CONTINUOUS
 62
     7
  5
2B3
 10
-5.218761
 20
-2.189943
 30
0.0
 11
-5.21901
 21
-2.193042
 31
0.0
  0
LINE
  8
0
  6
CONTINUOUS
 62
     7
  5
2B4
 10
-5.21901
 20
-2.193042
 30
0.0
 11
-5.219268
 21
-2.196002
 31
0.0
  0
LINE
  8
0
  6
CONTINUOUS
 62
     7
  5
2B5
 10
-5.219268
 20
-2.196002
 30
0.0
 11
-5.219535
 21
-2.198814
 31
0.0
  0
LINE
  8
0
  6
CONTINUOUS
 62
     7
  5
2B6
 10
-5.219535
 20
-2.198814
 30
0.0
 11
-5.219808
 21
-2.201484
 31
0.0
  0
LINE
  8
0
  6
CONTINUOUS
 62
     7
  5
2B7
 10
-5.219808
 20
-2.201484
 30
0.0
 11
-5.220094
 21
-2.204063
 31
0.0
  0
LINE
  8
0
  6
CONTINUOUS
 62
     7
  5
2B8
 10
-5.220094
 20
-2.204063
 30
0.0
 11
-5.220392
 21
-2.206545
 31
0.0
  0
LINE
  8
0
  6
CONTINUOUS
 62
     7
  5
2B9
 10
-5.220392
 20
-2.206545
 30
0.0
 11
-5.220701
 21
-2.208917
 31
0.0
  0
LINE
  8
0
  6
CONTINUOUS
 62
     7
  5
2BA
 10
-5.220701
 20
-2.208917
 30
0.0
 11
-5.221019
 21
-2.211165
 31
0.0
  0
LINE
  8
0
  6
CONTINUOUS
 62
     7
  5
2BB
 10
-5.221019
 20
-2.211165
 30
0.0
 11
-5.221346
 21
-2.213278
 31
0.0
  0
LINE
  8
0
  6
CONTINUOUS
 62
     7
  5
2BC
 10
-5.221346
 20
-2.213278
 30
0.0
 11
-5.221679
 21
-2.215245
 31
0.0
  0
LINE
  8
0
  6
CONTINUOUS
 62
     7
  5
2BD
 10
-5.221679
 20
-2.215245
 30
0.0
 11
-5.222018
 21
-2.217059
 31
0.0
  0
LINE
  8
0
  6
CONTINUOUS
 62
     7
  5
2BE
 10
-5.222018
 20
-2.217059
 30
0.0
 11
-5.22236
 21
-2.21871
 31
0.0
  0
LINE
  8
0
  6
CONTINUOUS
 62
     7
  5
2BF
 10
-5.22236
 20
-2.21871
 30
0.0
 11
-5.222705
 21
-2.220195
 31
0.0
  0
LINE
  8
0
  6
CONTINUOUS
 62
     7
  5
2C0
 10
-5.222705
 20
-2.220195
 30
0.0
 11
-5.223051
 21
-2.221507
 31
0.0
  0
LINE
  8
0
  6
CONTINUOUS
 62
     7
  5
2C1
 10
-5.223051
 20
-2.221507
 30
0.0
 11
-5.223397
 21
-2.222644
 31
0.0
  0
LINE
  8
0
  6
CONTINUOUS
 62
     7
  5
2C2
 10
-5.223397
 20
-2.222644
 30
0.0
 11
-5.223741
 21
-2.223603
 31
0.0
  0
LINE
  8
0
  6
CONTINUOUS
 62
     7
  5
2C3
 10
-5.223741
 20
-2.223603
 30
0.0
 11
-5.224082
 21
-2.224383
 31
0.0
  0
LINE
  8
0
  6
CONTINUOUS
 62
     7
  5
2C4
 10
-5.224082
 20
-2.224383
 30
0.0
 11
-5.224418
 21
-2.224984
 31
0.0
  0
LINE
  8
0
  6
CONTINUOUS
 62
     7
  5
2C5
 10
-5.224418
 20
-2.224984
 30
0.0
 11
-5.224749
 21
-2.225408
 31
0.0
  0
LINE
  8
0
  6
CONTINUOUS
 62
     7
  5
2C6
 10
-5.224749
 20
-2.225408
 30
0.0
 11
-5.225073
 21
-2.225658
 31
0.0
  0
LINE
  8
0
  6
CONTINUOUS
 62
     7
  5
2C7
 10
-5.225073
 20
-2.225658
 30
0.0
 11
-5.225388
 21
-2.22574
 31
0.0
  0
LINE
  8
0
  6
CONTINUOUS
 62
     7
  5
2C8
 10
-5.23622
 20
-2.22574
 30
0.0
 11
-5.236211
 21
-2.225407
 31
0.0
  0
LINE
  8
0
  6
CONTINUOUS
 62
     7
  5
2C9
 10
-5.236211
 20
-2.225407
 30
0.0
 11
-5.236183
 21
-2.224379
 31
0.0
  0
LINE
  8
0
  6
CONTINUOUS
 62
     7
  5
2CA
 10
-5.236183
 20
-2.224379
 30
0.0
 11
-5.236137
 21
-2.222636
 31
0.0
  0
LINE
  8
0
  6
CONTINUOUS
 62
     7
  5
2CB
 10
-5.236137
 20
-2.222636
 30
0.0
 11
-5.236073
 21
-2.220179
 31
0.0
  0
LINE
  8
0
  6
CONTINUOUS
 62
     7
  5
2CC
 10
-5.236073
 20
-2.220179
 30
0.0
 11
-5.235993
 21
-2.217035
 31
0.0
  0
LINE
  8
0
  6
CONTINUOUS
 62
     7
  5
2CD
 10
-5.235993
 20
-2.217035
 30
0.0
 11
-5.235902
 21
-2.213246
 31
0.0
  0
LINE
  8
0
  6
CONTINUOUS
 62
     7
  5
2CE
 10
-5.235902
 20
-2.213246
 30
0.0
 11
-5.235802
 21
-2.208876
 31
0.0
  0
LINE
  8
0
  6
CONTINUOUS
 62
     7
  5
2CF
 10
-5.235802
 20
-2.208876
 30
0.0
 11
-5.235698
 21
-2.204015
 31
0.0
  0
LINE
  8
0
  6
CONTINUOUS
 62
     7
  5
2D0
 10
-5.235698
 20
-2.204015
 30
0.0
 11
-5.235594
 21
-2.198761
 31
0.0
  0
LINE
  8
0
  6
CONTINUOUS
 62
     7
  5
2D1
 10
-5.235594
 20
-2.198761
 30
0.0
 11
-5.235489
 21
-2.192982
 31
0.0
  0
LINE
  8
0
  6
CONTINUOUS
 62
     7
  5
2D2
 10
-5.235489
 20
-2.192982
 30
0.0
 11
-5.235387
 21
-2.18665
 31
0.0
  0
LINE
  8
0
  6
CONTINUOUS
 62
     7
  5
2D3
 10
-5.235387
 20
-2.18665
 30
0.0
 11
-5.23529
 21
-2.179842
 31
0.0
  0
LINE
  8
0
  6
CONTINUOUS
 62
     7
  5
2D4
 10
-5.23529
 20
-2.179842
 30
0.0
 11
-5.235205
 21
-2.172647
 31
0.0
  0
LINE
  8
0
  6
CONTINUOUS
 62
     7
  5
2D5
 10
-5.235205
 20
-2.172647
 30
0.0
 11
-5.235132
 21
-2.165162
 31
0.0
  0
LINE
  8
0
  6
CONTINUOUS
 62
     7
  5
2D6
 10
-5.235132
 20
-2.165162
 30
0.0
 11
-5.235077
 21
-2.157485
 31
0.0
  0
LINE
  8
0
  6
CONTINUOUS
 62
     7
  5
2D7
 10
-5.235077
 20
-2.157485
 30
0.0
 11
-5.235039
 21
-2.149735
 31
0.0
  0
LINE
  8
0
  6
CONTINUOUS
 62
     7
  5
2D8
 10
-5.235039
 20
-2.149735
 30
0.0
 11
-5.235021
 21
-2.142033
 31
0.0
  0
LINE
  8
0
  6
CONTINUOUS
 62
     7
  5
2D9
 10
-5.235021
 20
-2.142033
 30
0.0
 11
-5.235021
 21
-2.134447
 31
0.0
  0
LINE
  8
0
  6
CONTINUOUS
 62
     7
  5
2DA
 10
-5.235021
 20
-2.134447
 30
0.0
 11
-5.235039
 21
-2.126745
 31
0.0
  0
LINE
  8
0
  6
CONTINUOUS
 62
     7
  5
2DB
 10
-5.235039
 20
-2.126745
 30
0.0
 11
-5.235077
 21
-2.118995
 31
0.0
  0
LINE
  8
0
  6
CONTINUOUS
 62
     7
  5
2DC
 10
-5.235077
 20
-2.118995
 30
0.0
 11
-5.235132
 21
-2.111318
 31
0.0
  0
LINE
  8
0
  6
CONTINUOUS
 62
     7
  5
2DD
 10
-5.235132
 20
-2.111318
 30
0.0
 11
-5.235205
 21
-2.103833
 31
0.0
  0
LINE
  8
0
  6
CONTINUOUS
 62
     7
  5
2DE
 10
-5.235205
 20
-2.103833
 30
0.0
 11
-5.23529
 21
-2.096638
 31
0.0
  0
LINE
  8
0
  6
CONTINUOUS
 62
     7
  5
2DF
 10
-5.23529
 20
-2.096638
 30
0.0
 11
-5.235387
 21
-2.08983
 31
0.0
  0
LINE
  8
0
  6
CONTINUOUS
 62
     7
  5
2E0
 10
-5.235387
 20
-2.08983
 30
0.0
 11
-5.235489
 21
-2.083498
 31
0.0
  0
LINE
  8
0
  6
CONTINUOUS
 62
     7
  5
2E1
 10
-5.235489
 20
-2.083498
 30
0.0
 11
-5.235594
 21
-2.077719
 31
0.0
  0
LINE
  8
0
  6
CONTINUOUS
 62
     7
  5
2E2
 10
-5.235594
 20
-2.077719
 30
0.0
 11
-5.235698
 21
-2.072465
 31
0.0
  0
LINE
  8
0
  6
CONTINUOUS
 62
     7
  5
2E3
 10
-5.235698
 20
-2.072465
 30
0.0
 11
-5.235802
 21
-2.067604
 31
0.0
  0
LINE
  8
0
  6
CONTINUOUS
 62
     7
  5
2E4
 10
-5.235802
 20
-2.067604
 30
0.0
 11
-5.235902
 21
-2.063234
 31
0.0
  0
LINE
  8
0
  6
CONTINUOUS
 62
     7
  5
2E5
 10
-5.235902
 20
-2.063234
 30
0.0
 11
-5.235993
 21
-2.059445
 31
0.0
  0
LINE
  8
0
  6
CONTINUOUS
 62
     7
  5
2E6
 10
-5.235993
 20
-2.059445
 30
0.0
 11
-5.236073
 21
-2.056301
 31
0.0
  0
LINE
  8
0
  6
CONTINUOUS
 62
     7
  5
2E7
 10
-5.236073
 20
-2.056301
 30
0.0
 11
-5.236137
 21
-2.053844
 31
0.0
  0
LINE
  8
0
  6
CONTINUOUS
 62
     7
  5
2E8
 10
-5.236137
 20
-2.053844
 30
0.0
 11
-5.236183
 21
-2.052101
 31
0.0
  0
LINE
  8
0
  6
CONTINUOUS
 62
     7
  5
2E9
 10
-5.236183
 20
-2.052101
 30
0.0
 11
-5.236211
 21
-2.051073
 31
0.0
  0
LINE
  8
0
  6
CONTINUOUS
 62
     7
  5
2EA
 10
-5.236211
 20
-2.051073
 30
0.0
 11
-5.23622
 21
-2.05074
 31
0.0
  0
LINE
  8
0
  6
CONTINUOUS
 62
     7
  5
2EB
 10
-5.23622
 20
-2.05074
 30
0.0
 11
-5.236211
 21
-2.051073
 31
0.0
  0
LINE
  8
0
  6
CONTINUOUS
 62
     7
  5
2EC
 10
-5.236211
 20
-2.051073
 30
0.0
 11
-5.236183
 21
-2.052101
 31
0.0
  0
LINE
  8
0
  6
CONTINUOUS
 62
     7
  5
2ED
 10
-5.236183
 20
-2.052101
 30
0.0
 11
-5.236137
 21
-2.053844
 31
0.0
  0
LINE
  8
0
  6
CONTINUOUS
 62
     7
  5
2EE
 10
-5.236137
 20
-2.053844
 30
0.0
 11
-5.236073
 21
-2.056301
 31
0.0
  0
LINE
  8
0
  6
CONTINUOUS
 62
     7
  5
2EF
 10
-5.236073
 20
-2.056301
 30
0.0
 11
-5.235993
 21
-2.059445
 31
0.0
  0
LINE
  8
0
  6
CONTINUOUS
 62
     7
  5
2F0
 10
-5.235993
 20
-2.059445
 30
0.0
 11
-5.235902
 21
-2.063234
 31
0.0
  0
LINE
  8
0
  6
CONTINUOUS
 62
     7
  5
2F1
 10
-5.235902
 20
-2.063234
 30
0.0
 11
-5.235802
 21
-2.067604
 31
0.0
  0
LINE
  8
0
  6
CONTINUOUS
 62
     7
  5
2F2
 10
-5.235802
 20
-2.067604
 30
0.0
 11
-5.235698
 21
-2.072465
 31
0.0
  0
LINE
  8
0
  6
CONTINUOUS
 62
     7
  5
2F3
 10
-5.235698
 20
-2.072465
 30
0.0
 11
-5.235594
 21
-2.077719
 31
0.0
  0
LINE
  8
0
  6
CONTINUOUS
 62
     7
  5
2F4
 10
-5.235594
 20
-2.077719
 30
0.0
 11
-5.235489
 21
-2.083498
 31
0.0
  0
LINE
  8
0
  6
CONTINUOUS
 62
     7
  5
2F5
 10
-5.235489
 20
-2.083498
 30
0.0
 11
-5.235387
 21
-2.08983
 31
0.0
  0
LINE
  8
0
  6
CONTINUOUS
 62
     7
  5
2F6
 10
-5.235387
 20
-2.08983
 30
0.0
 11
-5.23529
 21
-2.096638
 31
0.0
  0
LINE
  8
0
  6
CONTINUOUS
 62
     7
  5
2F7
 10
-5.23529
 20
-2.096638
 30
0.0
 11
-5.235205
 21
-2.103833
 31
0.0
  0
LINE
  8
0
  6
CONTINUOUS
 62
     7
  5
2F8
 10
-5.235205
 20
-2.103833
 30
0.0
 11
-5.235132
 21
-2.111318
 31
0.0
  0
LINE
  8
0
  6
CONTINUOUS
 62
     7
  5
2F9
 10
-5.235132
 20
-2.111318
 30
0.0
 11
-5.235077
 21
-2.118995
 31
0.0
  0
LINE
  8
0
  6
CONTINUOUS
 62
     7
  5
2FA
 10
-5.235077
 20
-2.118995
 30
0.0
 11
-5.235039
 21
-2.126745
 31
0.0
  0
LINE
  8
0
  6
CONTINUOUS
 62
     7
  5
2FB
 10
-5.235039
 20
-2.126745
 30
0.0
 11
-5.235021
 21
-2.134447
 31
0.0
  0
LINE
  8
0
  6
CONTINUOUS
 62
     7
  5
2FC
 10
-5.235021
 20
-2.134447
 30
0.0
 11
-5.235021
 21
-2.142033
 31
0.0
  0
LINE
  8
0
  6
CONTINUOUS
 62
     7
  5
2FD
 10
-5.235021
 20
-2.142033
 30
0.0
 11
-5.235039
 21
-2.149735
 31
0.0
  0
LINE
  8
0
  6
CONTINUOUS
 62
     7
  5
2FE
 10
-5.235039
 20
-2.149735
 30
0.0
 11
-5.235077
 21
-2.157485
 31
0.0
  0
LINE
  8
0
  6
CONTINUOUS
 62
     7
  5
2FF
 10
-5.235077
 20
-2.157485
 30
0.0
 11
-5.235132
 21
-2.165162
 31
0.0
  0
LINE
  8
0
  6
CONTINUOUS
 62
     7
  5
300
 10
-5.235132
 20
-2.165162
 30
0.0
 11
-5.235205
 21
-2.172647
 31
0.0
  0
LINE
  8
0
  6
CONTINUOUS
 62
     7
  5
301
 10
-5.235205
 20
-2.172647
 30
0.0
 11
-5.23529
 21
-2.179842
 31
0.0
  0
LINE
  8
0
  6
CONTINUOUS
 62
     7
  5
302
 10
-5.23529
 20
-2.179842
 30
0.0
 11
-5.235387
 21
-2.18665
 31
0.0
  0
LINE
  8
0
  6
CONTINUOUS
 62
     7
  5
303
 10
-5.235387
 20
-2.18665
 30
0.0
 11
-5.235489
 21
-2.192982
 31
0.0
  0
LINE
  8
0
  6
CONTINUOUS
 62
     7
  5
304
 10
-5.235489
 20
-2.192982
 30
0.0
 11
-5.235594
 21
-2.198761
 31
0.0
  0
LINE
  8
0
  6
CONTINUOUS
 62
     7
  5
305
 10
-5.235594
 20
-2.198761
 30
0.0
 11
-5.235698
 21
-2.204015
 31
0.0
  0
LINE
  8
0
  6
CONTINUOUS
 62
     7
  5
306
 10
-5.235698
 20
-2.204015
 30
0.0
 11
-5.235802
 21
-2.208876
 31
0.0
  0
LINE
  8
0
  6
CONTINUOUS
 62
     7
  5
307
 10
-5.235802
 20
-2.208876
 30
0.0
 11
-5.235902
 21
-2.213246
 31
0.0
  0
LINE
  8
0
  6
CONTINUOUS
 62
     7
  5
308
 10
-5.235902
 20
-2.213246
 30
0.0
 11
-5.235993
 21
-2.217035
 31
0.0
  0
LINE
  8
0
  6
CONTINUOUS
 62
     7
  5
309
 10
-5.235993
 20
-2.217035
 30
0.0
 11
-5.236073
 21
-2.220179
 31
0.0
  0
LINE
  8
0
  6
CONTINUOUS
 62
     7
  5
30A
 10
-5.236073
 20
-2.220179
 30
0.0
 11
-5.236137
 21
-2.222636
 31
0.0
  0
LINE
  8
0
  6
CONTINUOUS
 62
     7
  5
30B
 10
-5.236137
 20
-2.222636
 30
0.0
 11
-5.236183
 21
-2.224379
 31
0.0
  0
LINE
  8
0
  6
CONTINUOUS
 62
     7
  5
30C
 10
-5.236183
 20
-2.224379
 30
0.0
 11
-5.236211
 21
-2.225407
 31
0.0
  0
LINE
  8
0
  6
CONTINUOUS
 62
     7
  5
30D
 10
-5.236211
 20
-2.225407
 30
0.0
 11
-5.23622
 21
-2.22574
 31
0.0
  0
LINE
  8
0
  6
CONTINUOUS
 62
     7
  5
30E
 10
-5.225388
 20
2.05074
 30
0.0
 11
-5.225699
 21
2.050822
 31
0.0
  0
LINE
  8
0
  6
CONTINUOUS
 62
     7
  5
30F
 10
-5.225699
 20
2.050822
 30
0.0
 11
-5.226008
 21
2.051072
 31
0.0
  0
LINE
  8
0
  6
CONTINUOUS
 62
     7
  5
310
 10
-5.226008
 20
2.051072
 30
0.0
 11
-5.226316
 21
2.051495
 31
0.0
  0
LINE
  8
0
  6
CONTINUOUS
 62
     7
  5
311
 10
-5.226316
 20
2.051495
 30
0.0
 11
-5.226619
 21
2.052096
 31
0.0
  0
LINE
  8
0
  6
CONTINUOUS
 62
     7
  5
312
 10
-5.226619
 20
2.052096
 30
0.0
 11
-5.226918
 21
2.052875
 31
0.0
  0
LINE
  8
0
  6
CONTINUOUS
 62
     7
  5
313
 10
-5.226918
 20
2.052875
 30
0.0
 11
-5.22721
 21
2.053834
 31
0.0
  0
LINE
  8
0
  6
CONTINUOUS
 62
     7
  5
314
 10
-5.22721
 20
2.053834
 30
0.0
 11
-5.227496
 21
2.05497
 31
0.0
  0
LINE
  8
0
  6
CONTINUOUS
 62
     7
  5
315
 10
-5.227496
 20
2.05497
 30
0.0
 11
-5.227773
 21
2.056283
 31
0.0
  0
LINE
  8
0
  6
CONTINUOUS
 62
     7
  5
316
 10
-5.227773
 20
2.056283
 30
0.0
 11
-5.228042
 21
2.057768
 31
0.0
  0
LINE
  8
0
  6
CONTINUOUS
 62
     7
  5
317
 10
-5.228042
 20
2.057768
 30
0.0
 11
-5.228301
 21
2.05942
 31
0.0
  0
LINE
  8
0
  6
CONTINUOUS
 62
     7
  5
318
 10
-5.228301
 20
2.05942
 30
0.0
 11
-5.22855
 21
2.061234
 31
0.0
  0
LINE
  8
0
  6
CONTINUOUS
 62
     7
  5
319
 10
-5.22855
 20
2.061234
 30
0.0
 11
-5.228788
 21
2.063203
 31
0.0
  0
LINE
  8
0
  6
CONTINUOUS
 62
     7
  5
31A
 10
-5.228788
 20
2.063203
 30
0.0
 11
-5.229016
 21
2.065317
 31
0.0
  0
LINE
  8
0
  6
CONTINUOUS
 62
     7
  5
31B
 10
-5.229016
 20
2.065317
 30
0.0
 11
-5.229232
 21
2.067567
 31
0.0
  0
LINE
  8
0
  6
CONTINUOUS
 62
     7
  5
31C
 10
-5.229232
 20
2.067567
 30
0.0
 11
-5.229436
 21
2.06994
 31
0.0
  0
LINE
  8
0
  6
CONTINUOUS
 62
     7
  5
31D
 10
-5.229436
 20
2.06994
 30
0.0
 11
-5.229629
 21
2.072424
 31
0.0
  0
LINE
  8
0
  6
CONTINUOUS
 62
     7
  5
31E
 10
-5.229629
 20
2.072424
 30
0.0
 11
-5.229809
 21
2.075004
 31
0.0
  0
LINE
  8
0
  6
CONTINUOUS
 62
     7
  5
31F
 10
-5.229809
 20
2.075004
 30
0.0
 11
-5.229978
 21
2.077677
 31
0.0
  0
LINE
  8
0
  6
CONTINUOUS
 62
     7
  5
320
 10
-5.229978
 20
2.077677
 30
0.0
 11
-5.230139
 21
2.080491
 31
0.0
  0
LINE
  8
0
  6
CONTINUOUS
 62
     7
  5
321
 10
-5.230139
 20
2.080491
 30
0.0
 11
-5.230292
 21
2.083453
 31
0.0
  0
LINE
  8
0
  6
CONTINUOUS
 62
     7
  5
322
 10
-5.230292
 20
2.083453
 30
0.0
 11
-5.230436
 21
2.086554
 31
0.0
  0
LINE
  8
0
  6
CONTINUOUS
 62
     7
  5
323
 10
-5.230436
 20
2.086554
 30
0.0
 11
-5.230571
 21
2.089785
 31
0.0
  0
LINE
  8
0
  6
CONTINUOUS
 62
     7
  5
324
 10
-5.230571
 20
2.089785
 30
0.0
 11
-5.230697
 21
2.093136
 31
0.0
  0
LINE
  8
0
  6
CONTINUOUS
 62
     7
  5
325
 10
-5.230697
 20
2.093136
 30
0.0
 11
-5.230813
 21
2.096596
 31
0.0
  0
LINE
  8
0
  6
CONTINUOUS
 62
     7
  5
326
 10
-5.230813
 20
2.096596
 30
0.0
 11
-5.230919
 21
2.100153
 31
0.0
  0
LINE
  8
0
  6
CONTINUOUS
 62
     7
  5
327
 10
-5.230919
 20
2.100153
 30
0.0
 11
-5.231014
 21
2.103795
 31
0.0
  0
LINE
  8
0
  6
CONTINUOUS
 62
     7
  5
328
 10
-5.231014
 20
2.103795
 30
0.0
 11
-5.231099
 21
2.107511
 31
0.0
  0
LINE
  8
0
  6
CONTINUOUS
 62
     7
  5
329
 10
-5.231099
 20
2.107511
 30
0.0
 11
-5.231174
 21
2.111288
 31
0.0
  0
LINE
  8
0
  6
CONTINUOUS
 62
     7
  5
32A
 10
-5.231174
 20
2.111288
 30
0.0
 11
-5.231238
 21
2.115113
 31
0.0
  0
LINE
  8
0
  6
CONTINUOUS
 62
     7
  5
32B
 10
-5.231238
 20
2.115113
 30
0.0
 11
-5.231292
 21
2.118972
 31
0.0
  0
LINE
  8
0
  6
CONTINUOUS
 62
     7
  5
32C
 10
-5.231292
 20
2.118972
 30
0.0
 11
-5.231335
 21
2.12285
 31
0.0
  0
LINE
  8
0
  6
CONTINUOUS
 62
     7
  5
32D
 10
-5.231335
 20
2.12285
 30
0.0
 11
-5.231369
 21
2.126732
 31
0.0
  0
LINE
  8
0
  6
CONTINUOUS
 62
     7
  5
32E
 10
-5.231369
 20
2.126732
 30
0.0
 11
-5.231392
 21
2.130601
 31
0.0
  0
LINE
  8
0
  6
CONTINUOUS
 62
     7
  5
32F
 10
-5.231392
 20
2.130601
 30
0.0
 11
-5.231406
 21
2.134442
 31
0.0
  0
LINE
  8
0
  6
CONTINUOUS
 62
     7
  5
330
 10
-5.231406
 20
2.134442
 30
0.0
 11
-5.231411
 21
2.13824
 31
0.0
  0
LINE
  8
0
  6
CONTINUOUS
 62
     7
  5
331
 10
-5.225388
 20
2.22574
 30
0.0
 11
-5.224749
 21
2.225408
 31
0.0
  0
LINE
  8
0
  6
CONTINUOUS
 62
     7
  5
332
 10
-5.224749
 20
2.225408
 30
0.0
 11
-5.224082
 21
2.224383
 31
0.0
  0
LINE
  8
0
  6
CONTINUOUS
 62
     7
  5
333
 10
-5.224082
 20
2.224383
 30
0.0
 11
-5.223397
 21
2.222644
 31
0.0
  0
LINE
  8
0
  6
CONTINUOUS
 62
     7
  5
334
 10
-5.223397
 20
2.222644
 30
0.0
 11
-5.222705
 21
2.220195
 31
0.0
  0
LINE
  8
0
  6
CONTINUOUS
 62
     7
  5
335
 10
-5.222705
 20
2.220195
 30
0.0
 11
-5.222018
 21
2.217059
 31
0.0
  0
LINE
  8
0
  6
CONTINUOUS
 62
     7
  5
336
 10
-5.222018
 20
2.217059
 30
0.0
 11
-5.221346
 21
2.213278
 31
0.0
  0
LINE
  8
0
  6
CONTINUOUS
 62
     7
  5
337
 10
-5.221346
 20
2.213278
 30
0.0
 11
-5.220701
 21
2.208917
 31
0.0
  0
LINE
  8
0
  6
CONTINUOUS
 62
     7
  5
338
 10
-5.220701
 20
2.208917
 30
0.0
 11
-5.220094
 21
2.204063
 31
0.0
  0
LINE
  8
0
  6
CONTINUOUS
 62
     7
  5
339
 10
-5.220094
 20
2.204063
 30
0.0
 11
-5.219535
 21
2.198814
 31
0.0
  0
LINE
  8
0
  6
CONTINUOUS
 62
     7
  5
33A
 10
-5.219535
 20
2.198814
 30
0.0
 11
-5.21901
 21
2.193042
 31
0.0
  0
LINE
  8
0
  6
CONTINUOUS
 62
     7
  5
33B
 10
-5.21901
 20
2.193042
 30
0.0
 11
-5.218523
 21
2.186713
 31
0.0
  0
LINE
  8
0
  6
CONTINUOUS
 62
     7
  5
33C
 10
-5.218523
 20
2.186713
 30
0.0
 11
-5.218086
 21
2.179904
 31
0.0
  0
LINE
  8
0
  6
CONTINUOUS
 62
     7
  5
33D
 10
-5.218086
 20
2.179904
 30
0.0
 11
-5.217711
 21
2.172705
 31
0.0
  0
LINE
  8
0
  6
CONTINUOUS
 62
     7
  5
33E
 10
-5.217711
 20
2.172705
 30
0.0
 11
-5.217405
 21
2.165211
 31
0.0
  0
LINE
  8
0
  6
CONTINUOUS
 62
     7
  5
33F
 10
-5.217405
 20
2.165211
 30
0.0
 11
-5.217174
 21
2.157523
 31
0.0
  0
LINE
  8
0
  6
CONTINUOUS
 62
     7
  5
340
 10
-5.217174
 20
2.157523
 30
0.0
 11
-5.217021
 21
2.149758
 31
0.0
  0
LINE
  8
0
  6
CONTINUOUS
 62
     7
  5
341
 10
-5.217021
 20
2.149758
 30
0.0
 11
-5.216947
 21
2.142042
 31
0.0
  0
LINE
  8
0
  6
CONTINUOUS
 62
     7
  5
342
 10
-5.216947
 20
2.142042
 30
0.0
 11
-5.216947
 21
2.134438
 31
0.0
  0
LINE
  8
0
  6
CONTINUOUS
 62
     7
  5
343
 10
-5.216947
 20
2.134438
 30
0.0
 11
-5.217021
 21
2.126722
 31
0.0
  0
LINE
  8
0
  6
CONTINUOUS
 62
     7
  5
344
 10
-5.217021
 20
2.126722
 30
0.0
 11
-5.217174
 21
2.118957
 31
0.0
  0
LINE
  8
0
  6
CONTINUOUS
 62
     7
  5
345
 10
-5.217174
 20
2.118957
 30
0.0
 11
-5.217405
 21
2.111269
 31
0.0
  0
LINE
  8
0
  6
CONTINUOUS
 62
     7
  5
346
 10
-5.217405
 20
2.111269
 30
0.0
 11
-5.217711
 21
2.103775
 31
0.0
  0
LINE
  8
0
  6
CONTINUOUS
 62
     7
  5
347
 10
-5.217711
 20
2.103775
 30
0.0
 11
-5.218086
 21
2.096576
 31
0.0
  0
LINE
  8
0
  6
CONTINUOUS
 62
     7
  5
348
 10
-5.218086
 20
2.096576
 30
0.0
 11
-5.218523
 21
2.089767
 31
0.0
  0
LINE
  8
0
  6
CONTINUOUS
 62
     7
  5
349
 10
-5.218523
 20
2.089767
 30
0.0
 11
-5.21901
 21
2.083438
 31
0.0
  0
LINE
  8
0
  6
CONTINUOUS
 62
     7
  5
34A
 10
-5.21901
 20
2.083438
 30
0.0
 11
-5.219535
 21
2.077666
 31
0.0
  0
LINE
  8
0
  6
CONTINUOUS
 62
     7
  5
34B
 10
-5.219535
 20
2.077666
 30
0.0
 11
-5.220094
 21
2.072417
 31
0.0
  0
LINE
  8
0
  6
CONTINUOUS
 62
     7
  5
34C
 10
-5.220094
 20
2.072417
 30
0.0
 11
-5.220701
 21
2.067563
 31
0.0
  0
LINE
  8
0
  6
CONTINUOUS
 62
     7
  5
34D
 10
-5.220701
 20
2.067563
 30
0.0
 11
-5.221346
 21
2.063202
 31
0.0
  0
LINE
  8
0
  6
CONTINUOUS
 62
     7
  5
34E
 10
-5.221346
 20
2.063202
 30
0.0
 11
-5.222018
 21
2.059421
 31
0.0
  0
LINE
  8
0
  6
CONTINUOUS
 62
     7
  5
34F
 10
-5.222018
 20
2.059421
 30
0.0
 11
-5.222705
 21
2.056285
 31
0.0
  0
LINE
  8
0
  6
CONTINUOUS
 62
     7
  5
350
 10
-5.222705
 20
2.056285
 30
0.0
 11
-5.223397
 21
2.053836
 31
0.0
  0
LINE
  8
0
  6
CONTINUOUS
 62
     7
  5
351
 10
-5.223397
 20
2.053836
 30
0.0
 11
-5.224082
 21
2.052097
 31
0.0
  0
LINE
  8
0
  6
CONTINUOUS
 62
     7
  5
352
 10
-5.224082
 20
2.052097
 30
0.0
 11
-5.224749
 21
2.051072
 31
0.0
  0
LINE
  8
0
  6
CONTINUOUS
 62
     7
  5
353
 10
-5.224749
 20
2.051072
 30
0.0
 11
-5.225388
 21
2.05074
 31
0.0
  0
LINE
  8
0
  6
CONTINUOUS
 62
     7
  5
354
 10
-5.231411
 20
2.13824
 30
0.0
 11
-5.231406
 21
2.142038
 31
0.0
  0
LINE
  8
0
  6
CONTINUOUS
 62
     7
  5
355
 10
-5.231406
 20
2.142038
 30
0.0
 11
-5.231392
 21
2.145879
 31
0.0
  0
LINE
  8
0
  6
CONTINUOUS
 62
     7
  5
356
 10
-5.231392
 20
2.145879
 30
0.0
 11
-5.231369
 21
2.149748
 31
0.0
  0
LINE
  8
0
  6
CONTINUOUS
 62
     7
  5
357
 10
-5.231369
 20
2.149748
 30
0.0
 11
-5.231335
 21
2.15363
 31
0.0
  0
LINE
  8
0
  6
CONTINUOUS
 62
     7
  5
358
 10
-5.231335
 20
2.15363
 30
0.0
 11
-5.231292
 21
2.157508
 31
0.0
  0
LINE
  8
0
  6
CONTINUOUS
 62
     7
  5
359
 10
-5.231292
 20
2.157508
 30
0.0
 11
-5.231238
 21
2.161367
 31
0.0
  0
LINE
  8
0
  6
CONTINUOUS
 62
     7
  5
35A
 10
-5.231238
 20
2.161367
 30
0.0
 11
-5.231174
 21
2.165192
 31
0.0
  0
LINE
  8
0
  6
CONTINUOUS
 62
     7
  5
35B
 10
-5.231174
 20
2.165192
 30
0.0
 11
-5.231099
 21
2.168969
 31
0.0
  0
LINE
  8
0
  6
CONTINUOUS
 62
     7
  5
35C
 10
-5.231099
 20
2.168969
 30
0.0
 11
-5.231014
 21
2.172685
 31
0.0
  0
LINE
  8
0
  6
CONTINUOUS
 62
     7
  5
35D
 10
-5.231014
 20
2.172685
 30
0.0
 11
-5.230919
 21
2.176327
 31
0.0
  0
LINE
  8
0
  6
CONTINUOUS
 62
     7
  5
35E
 10
-5.230919
 20
2.176327
 30
0.0
 11
-5.230813
 21
2.179884
 31
0.0
  0
LINE
  8
0
  6
CONTINUOUS
 62
     7
  5
35F
 10
-5.230813
 20
2.179884
 30
0.0
 11
-5.230697
 21
2.183344
 31
0.0
  0
LINE
  8
0
  6
CONTINUOUS
 62
     7
  5
360
 10
-5.230697
 20
2.183344
 30
0.0
 11
-5.230571
 21
2.186695
 31
0.0
  0
LINE
  8
0
  6
CONTINUOUS
 62
     7
  5
361
 10
-5.230571
 20
2.186695
 30
0.0
 11
-5.230436
 21
2.189926
 31
0.0
  0
LINE
  8
0
  6
CONTINUOUS
 62
     7
  5
362
 10
-5.230436
 20
2.189926
 30
0.0
 11
-5.230292
 21
2.193027
 31
0.0
  0
LINE
  8
0
  6
CONTINUOUS
 62
     7
  5
363
 10
-5.230292
 20
2.193027
 30
0.0
 11
-5.230139
 21
2.195989
 31
0.0
  0
LINE
  8
0
  6
CONTINUOUS
 62
     7
  5
364
 10
-5.230139
 20
2.195989
 30
0.0
 11
-5.229978
 21
2.198803
 31
0.0
  0
LINE
  8
0
  6
CONTINUOUS
 62
     7
  5
365
 10
-5.229978
 20
2.198803
 30
0.0
 11
-5.229809
 21
2.201476
 31
0.0
  0
LINE
  8
0
  6
CONTINUOUS
 62
     7
  5
366
 10
-5.229809
 20
2.201476
 30
0.0
 11
-5.229629
 21
2.204056
 31
0.0
  0
LINE
  8
0
  6
CONTINUOUS
 62
     7
  5
367
 10
-5.229629
 20
2.204056
 30
0.0
 11
-5.229436
 21
2.20654
 31
0.0
  0
LINE
  8
0
  6
CONTINUOUS
 62
     7
  5
368
 10
-5.229436
 20
2.20654
 30
0.0
 11
-5.229232
 21
2.208913
 31
0.0
  0
LINE
  8
0
  6
CONTINUOUS
 62
     7
  5
369
 10
-5.229232
 20
2.208913
 30
0.0
 11
-5.229016
 21
2.211163
 31
0.0
  0
LINE
  8
0
  6
CONTINUOUS
 62
     7
  5
36A
 10
-5.229016
 20
2.211163
 30
0.0
 11
-5.228788
 21
2.213277
 31
0.0
  0
LINE
  8
0
  6
CONTINUOUS
 62
     7
  5
36B
 10
-5.228788
 20
2.213277
 30
0.0
 11
-5.22855
 21
2.215246
 31
0.0
  0
LINE
  8
0
  6
CONTINUOUS
 62
     7
  5
36C
 10
-5.22855
 20
2.215246
 30
0.0
 11
-5.228301
 21
2.21706
 31
0.0
  0
LINE
  8
0
  6
CONTINUOUS
 62
     7
  5
36D
 10
-5.228301
 20
2.21706
 30
0.0
 11
-5.228042
 21
2.218712
 31
0.0
  0
LINE
  8
0
  6
CONTINUOUS
 62
     7
  5
36E
 10
-5.228042
 20
2.218712
 30
0.0
 11
-5.227773
 21
2.220197
 31
0.0
  0
LINE
  8
0
  6
CONTINUOUS
 62
     7
  5
36F
 10
-5.227773
 20
2.220197
 30
0.0
 11
-5.227496
 21
2.22151
 31
0.0
  0
LINE
  8
0
  6
CONTINUOUS
 62
     7
  5
370
 10
-5.227496
 20
2.22151
 30
0.0
 11
-5.22721
 21
2.222646
 31
0.0
  0
LINE
  8
0
  6
CONTINUOUS
 62
     7
  5
371
 10
-5.22721
 20
2.222646
 30
0.0
 11
-5.226918
 21
2.223605
 31
0.0
  0
LINE
  8
0
  6
CONTINUOUS
 62
     7
  5
372
 10
-5.226918
 20
2.223605
 30
0.0
 11
-5.226619
 21
2.224384
 31
0.0
  0
LINE
  8
0
  6
CONTINUOUS
 62
     7
  5
373
 10
-5.226619
 20
2.224384
 30
0.0
 11
-5.226316
 21
2.224985
 31
0.0
  0
LINE
  8
0
  6
CONTINUOUS
 62
     7
  5
374
 10
-5.226316
 20
2.224985
 30
0.0
 11
-5.226008
 21
2.225408
 31
0.0
  0
LINE
  8
0
  6
CONTINUOUS
 62
     7
  5
375
 10
-5.226008
 20
2.225408
 30
0.0
 11
-5.225699
 21
2.225658
 31
0.0
  0
LINE
  8
0
  6
CONTINUOUS
 62
     7
  5
376
 10
-5.225699
 20
2.225658
 30
0.0
 11
-5.225388
 21
2.22574
 31
0.0
  0
LINE
  8
0
  6
CONTINUOUS
 62
     7
  5
377
 10
-5.23622
 20
2.22574
 30
0.0
 11
-5.236211
 21
2.225407
 31
0.0
  0
LINE
  8
0
  6
CONTINUOUS
 62
     7
  5
378
 10
-5.236211
 20
2.225407
 30
0.0
 11
-5.236183
 21
2.224379
 31
0.0
  0
LINE
  8
0
  6
CONTINUOUS
 62
     7
  5
379
 10
-5.236183
 20
2.224379
 30
0.0
 11
-5.236137
 21
2.222636
 31
0.0
  0
LINE
  8
0
  6
CONTINUOUS
 62
     7
  5
37A
 10
-5.236137
 20
2.222636
 30
0.0
 11
-5.236073
 21
2.220179
 31
0.0
  0
LINE
  8
0
  6
CONTINUOUS
 62
     7
  5
37B
 10
-5.236073
 20
2.220179
 30
0.0
 11
-5.235993
 21
2.217035
 31
0.0
  0
LINE
  8
0
  6
CONTINUOUS
 62
     7
  5
37C
 10
-5.235993
 20
2.217035
 30
0.0
 11
-5.235902
 21
2.213246
 31
0.0
  0
LINE
  8
0
  6
CONTINUOUS
 62
     7
  5
37D
 10
-5.235902
 20
2.213246
 30
0.0
 11
-5.235802
 21
2.208876
 31
0.0
  0
LINE
  8
0
  6
CONTINUOUS
 62
     7
  5
37E
 10
-5.235802
 20
2.208876
 30
0.0
 11
-5.235698
 21
2.204015
 31
0.0
  0
LINE
  8
0
  6
CONTINUOUS
 62
     7
  5
37F
 10
-5.235698
 20
2.204015
 30
0.0
 11
-5.235594
 21
2.198761
 31
0.0
  0
LINE
  8
0
  6
CONTINUOUS
 62
     7
  5
380
 10
-5.235594
 20
2.198761
 30
0.0
 11
-5.235489
 21
2.192982
 31
0.0
  0
LINE
  8
0
  6
CONTINUOUS
 62
     7
  5
381
 10
-5.235489
 20
2.192982
 30
0.0
 11
-5.235387
 21
2.18665
 31
0.0
  0
LINE
  8
0
  6
CONTINUOUS
 62
     7
  5
382
 10
-5.235387
 20
2.18665
 30
0.0
 11
-5.23529
 21
2.179842
 31
0.0
  0
LINE
  8
0
  6
CONTINUOUS
 62
     7
  5
383
 10
-5.23529
 20
2.179842
 30
0.0
 11
-5.235205
 21
2.172647
 31
0.0
  0
LINE
  8
0
  6
CONTINUOUS
 62
     7
  5
384
 10
-5.235205
 20
2.172647
 30
0.0
 11
-5.235132
 21
2.165162
 31
0.0
  0
LINE
  8
0
  6
CONTINUOUS
 62
     7
  5
385
 10
-5.235132
 20
2.165162
 30
0.0
 11
-5.235077
 21
2.157485
 31
0.0
  0
LINE
  8
0
  6
CONTINUOUS
 62
     7
  5
386
 10
-5.235077
 20
2.157485
 30
0.0
 11
-5.235039
 21
2.149735
 31
0.0
  0
LINE
  8
0
  6
CONTINUOUS
 62
     7
  5
387
 10
-5.235039
 20
2.149735
 30
0.0
 11
-5.235021
 21
2.142033
 31
0.0
  0
LINE
  8
0
  6
CONTINUOUS
 62
     7
  5
388
 10
-5.235021
 20
2.142033
 30
0.0
 11
-5.235021
 21
2.134447
 31
0.0
  0
LINE
  8
0
  6
CONTINUOUS
 62
     7
  5
389
 10
-5.235021
 20
2.134447
 30
0.0
 11
-5.235039
 21
2.126745
 31
0.0
  0
LINE
  8
0
  6
CONTINUOUS
 62
     7
  5
38A
 10
-5.235039
 20
2.126745
 30
0.0
 11
-5.235077
 21
2.118995
 31
0.0
  0
LINE
  8
0
  6
CONTINUOUS
 62
     7
  5
38B
 10
-5.235077
 20
2.118995
 30
0.0
 11
-5.235132
 21
2.111318
 31
0.0
  0
LINE
  8
0
  6
CONTINUOUS
 62
     7
  5
38C
 10
-5.235132
 20
2.111318
 30
0.0
 11
-5.235205
 21
2.103833
 31
0.0
  0
LINE
  8
0
  6
CONTINUOUS
 62
     7
  5
38D
 10
-5.235205
 20
2.103833
 30
0.0
 11
-5.23529
 21
2.096638
 31
0.0
  0
LINE
  8
0
  6
CONTINUOUS
 62
     7
  5
38E
 10
-5.23529
 20
2.096638
 30
0.0
 11
-5.235387
 21
2.08983
 31
0.0
  0
LINE
  8
0
  6
CONTINUOUS
 62
     7
  5
38F
 10
-5.235387
 20
2.08983
 30
0.0
 11
-5.235489
 21
2.083498
 31
0.0
  0
LINE
  8
0
  6
CONTINUOUS
 62
     7
  5
390
 10
-5.235489
 20
2.083498
 30
0.0
 11
-5.235594
 21
2.077719
 31
0.0
  0
LINE
  8
0
  6
CONTINUOUS
 62
     7
  5
391
 10
-5.235594
 20
2.077719
 30
0.0
 11
-5.235698
 21
2.072465
 31
0.0
  0
LINE
  8
0
  6
CONTINUOUS
 62
     7
  5
392
 10
-5.235698
 20
2.072465
 30
0.0
 11
-5.235802
 21
2.067604
 31
0.0
  0
LINE
  8
0
  6
CONTINUOUS
 62
     7
  5
393
 10
-5.235802
 20
2.067604
 30
0.0
 11
-5.235902
 21
2.063234
 31
0.0
  0
LINE
  8
0
  6
CONTINUOUS
 62
     7
  5
394
 10
-5.235902
 20
2.063234
 30
0.0
 11
-5.235993
 21
2.059445
 31
0.0
  0
LINE
  8
0
  6
CONTINUOUS
 62
     7
  5
395
 10
-5.235993
 20
2.059445
 30
0.0
 11
-5.236073
 21
2.056301
 31
0.0
  0
LINE
  8
0
  6
CONTINUOUS
 62
     7
  5
396
 10
-5.236073
 20
2.056301
 30
0.0
 11
-5.236137
 21
2.053844
 31
0.0
  0
LINE
  8
0
  6
CONTINUOUS
 62
     7
  5
397
 10
-5.236137
 20
2.053844
 30
0.0
 11
-5.236183
 21
2.052101
 31
0.0
  0
LINE
  8
0
  6
CONTINUOUS
 62
     7
  5
398
 10
-5.236183
 20
2.052101
 30
0.0
 11
-5.236211
 21
2.051073
 31
0.0
  0
LINE
  8
0
  6
CONTINUOUS
 62
     7
  5
399
 10
-5.236211
 20
2.051073
 30
0.0
 11
-5.23622
 21
2.05074
 31
0.0
  0
LINE
  8
0
  6
CONTINUOUS
 62
     7
  5
39A
 10
-5.23622
 20
2.05074
 30
0.0
 11
-5.23622
 21
2.050745
 31
0.0
  0
LINE
  8
0
  6
CONTINUOUS
 62
     7
  5
39B
 10
-5.23622
 20
2.050745
 30
0.0
 11
-5.23622
 21
2.05076
 31
0.0
  0
LINE
  8
0
  6
CONTINUOUS
 62
     7
  5
39C
 10
-5.23622
 20
2.05076
 30
0.0
 11
-5.236219
 21
2.050786
 31
0.0
  0
LINE
  8
0
  6
CONTINUOUS
 62
     7
  5
39D
 10
-5.236219
 20
2.050786
 30
0.0
 11
-5.236218
 21
2.050822
 31
0.0
  0
LINE
  8
0
  6
CONTINUOUS
 62
     7
  5
39E
 10
-5.236218
 20
2.050822
 30
0.0
 11
-5.236217
 21
2.050869
 31
0.0
  0
LINE
  8
0
  6
CONTINUOUS
 62
     7
  5
39F
 10
-5.236217
 20
2.050869
 30
0.0
 11
-5.236215
 21
2.050926
 31
0.0
  0
LINE
  8
0
  6
CONTINUOUS
 62
     7
  5
3A0
 10
-5.236215
 20
2.050926
 30
0.0
 11
-5.236213
 21
2.050994
 31
0.0
  0
LINE
  8
0
  6
CONTINUOUS
 62
     7
  5
3A1
 10
-5.236213
 20
2.050994
 30
0.0
 11
-5.236211
 21
2.051073
 31
0.0
  0
LINE
  8
0
  6
CONTINUOUS
 62
     7
  5
3A2
 10
-5.236211
 20
2.051073
 30
0.0
 11
-5.236209
 21
2.051163
 31
0.0
  0
LINE
  8
0
  6
CONTINUOUS
 62
     7
  5
3A3
 10
-5.236209
 20
2.051163
 30
0.0
 11
-5.236206
 21
2.051264
 31
0.0
  0
LINE
  8
0
  6
CONTINUOUS
 62
     7
  5
3A4
 10
-5.236206
 20
2.051264
 30
0.0
 11
-5.236203
 21
2.051376
 31
0.0
  0
LINE
  8
0
  6
CONTINUOUS
 62
     7
  5
3A5
 10
-5.236203
 20
2.051376
 30
0.0
 11
-5.2362
 21
2.051498
 31
0.0
  0
LINE
  8
0
  6
CONTINUOUS
 62
     7
  5
3A6
 10
-5.2362
 20
2.051498
 30
0.0
 11
-5.236196
 21
2.051632
 31
0.0
  0
LINE
  8
0
  6
CONTINUOUS
 62
     7
  5
3A7
 10
-5.236196
 20
2.051632
 30
0.0
 11
-5.236192
 21
2.051777
 31
0.0
  0
LINE
  8
0
  6
CONTINUOUS
 62
     7
  5
3A8
 10
-5.236192
 20
2.051777
 30
0.0
 11
-5.236188
 21
2.051933
 31
0.0
  0
LINE
  8
0
  6
CONTINUOUS
 62
     7
  5
3A9
 10
-5.236188
 20
2.051933
 30
0.0
 11
-5.236183
 21
2.052101
 31
0.0
  0
LINE
  8
0
  6
CONTINUOUS
 62
     7
  5
3AA
 10
-5.236183
 20
2.052101
 30
0.0
 11
-5.236179
 21
2.052279
 31
0.0
  0
LINE
  8
0
  6
CONTINUOUS
 62
     7
  5
3AB
 10
-5.236179
 20
2.052279
 30
0.0
 11
-5.236173
 21
2.052469
 31
0.0
  0
LINE
  8
0
  6
CONTINUOUS
 62
     7
  5
3AC
 10
-5.236173
 20
2.052469
 30
0.0
 11
-5.236168
 21
2.05267
 31
0.0
  0
LINE
  8
0
  6
CONTINUOUS
 62
     7
  5
3AD
 10
-5.236168
 20
2.05267
 30
0.0
 11
-5.236162
 21
2.052883
 31
0.0
  0
LINE
  8
0
  6
CONTINUOUS
 62
     7
  5
3AE
 10
-5.236162
 20
2.052883
 30
0.0
 11
-5.236156
 21
2.053106
 31
0.0
  0
LINE
  8
0
  6
CONTINUOUS
 62
     7
  5
3AF
 10
-5.236156
 20
2.053106
 30
0.0
 11
-5.23615
 21
2.053341
 31
0.0
  0
LINE
  8
0
  6
CONTINUOUS
 62
     7
  5
3B0
 10
-5.23615
 20
2.053341
 30
0.0
 11
-5.236144
 21
2.053587
 31
0.0
  0
LINE
  8
0
  6
CONTINUOUS
 62
     7
  5
3B1
 10
-5.236144
 20
2.053587
 30
0.0
 11
-5.236137
 21
2.053844
 31
0.0
  0
LINE
  8
0
  6
CONTINUOUS
 62
     7
  5
3B2
 10
-5.236137
 20
2.053844
 30
0.0
 11
-5.23613
 21
2.054113
 31
0.0
  0
LINE
  8
0
  6
CONTINUOUS
 62
     7
  5
3B3
 10
-5.23613
 20
2.054113
 30
0.0
 11
-5.236122
 21
2.054392
 31
0.0
  0
LINE
  8
0
  6
CONTINUOUS
 62
     7
  5
3B4
 10
-5.236122
 20
2.054392
 30
0.0
 11
-5.236115
 21
2.054683
 31
0.0
  0
LINE
  8
0
  6
CONTINUOUS
 62
     7
  5
3B5
 10
-5.236115
 20
2.054683
 30
0.0
 11
-5.236107
 21
2.054985
 31
0.0
  0
LINE
  8
0
  6
CONTINUOUS
 62
     7
  5
3B6
 10
-5.236107
 20
2.054985
 30
0.0
 11
-5.236099
 21
2.055297
 31
0.0
  0
LINE
  8
0
  6
CONTINUOUS
 62
     7
  5
3B7
 10
-5.236099
 20
2.055297
 30
0.0
 11
-5.23609
 21
2.055621
 31
0.0
  0
LINE
  8
0
  6
CONTINUOUS
 62
     7
  5
3B8
 10
-5.23609
 20
2.055621
 30
0.0
 11
-5.236082
 21
2.055955
 31
0.0
  0
LINE
  8
0
  6
CONTINUOUS
 62
     7
  5
3B9
 10
-5.236082
 20
2.055955
 30
0.0
 11
-5.236073
 21
2.056301
 31
0.0
  0
LINE
  8
0
  6
CONTINUOUS
 62
     7
  5
3BA
 10
-5.236073
 20
2.056301
 30
0.0
 11
-5.236063
 21
2.056657
 31
0.0
  0
LINE
  8
0
  6
CONTINUOUS
 62
     7
  5
3BB
 10
-5.236063
 20
2.056657
 30
0.0
 11
-5.236054
 21
2.057023
 31
0.0
  0
LINE
  8
0
  6
CONTINUOUS
 62
     7
  5
3BC
 10
-5.236054
 20
2.057023
 30
0.0
 11
-5.236044
 21
2.057401
 31
0.0
  0
LINE
  8
0
  6
CONTINUOUS
 62
     7
  5
3BD
 10
-0.314961
 20
-2.362
 30
0.0
 11
-0.314961
 21
-2.48
 31
0.0
  0
LINE
  8
0
  6
CONTINUOUS
 62
     7
  5
3BE
 10
-0.314961
 20
-2.244
 30
0.0
 11
-0.15748
 21
-2.244
 31
0.0
  0
LINE
  8
0
  6
CONTINUOUS
 62
     7
  5
3BF
 10
-0.15748
 20
-2.48
 30
0.0
 11
-0.314961
 21
-2.48
 31
0.0
  0
LINE
  8
0
  6
CONTINUOUS
 62
     7
  5
3C0
 10
-0.15748
 20
-2.244
 30
0.0
 11
-0.15748
 21
-2.48
 31
0.0
  0
LINE
  8
0
  6
CONTINUOUS
 62
     7
  5
3C1
 10
-0.314961
 20
-2.362
 30
0.0
 11
-0.314961
 21
2.362
 31
0.0
  0
LINE
  8
0
  6
CONTINUOUS
 62
     7
  5
3C2
 10
-0.314961
 20
1.494
 30
0.0
 11
0.0
 21
1.494
 31
0.0
  0
LINE
  8
0
  6
CONTINUOUS
 62
     7
  5
3C3
 10
0.0
 20
1.494
 30
0.0
 11
0.0
 21
1.267
 31
0.0
  0
LINE
  8
0
  6
CONTINUOUS
 62
     7
  5
3C4
 10
0.0
 20
1.267
 30
0.0
 11
-0.275961
 21
1.267
 31
0.0
  0
LINE
  8
0
  6
CONTINUOUS
 62
     7
  5
3C5
 10
-0.275961
 20
1.267
 30
0.0
 11
-0.275961
 21
1.377
 31
0.0
  0
LINE
  8
0
  6
CONTINUOUS
 62
     7
  5
3C6
 10
-0.275961
 20
1.377
 30
0.0
 11
-0.314961
 21
1.377
 31
0.0
  0
LINE
  8
0
  6
CONTINUOUS
 62
     7
  5
3C7
 10
-0.314961
 20
0.8055
 30
0.0
 11
0.0
 21
0.8055
 31
0.0
  0
LINE
  8
0
  6
CONTINUOUS
 62
     7
  5
3C8
 10
0.0
 20
0.8055
 30
0.0
 11
0.0
 21
0.5785
 31
0.0
  0
LINE
  8
0
  6
CONTINUOUS
 62
     7
  5
3C9
 10
0.0
 20
0.5785
 30
0.0
 11
-0.275961
 21
0.5785
 31
0.0
  0
LINE
  8
0
  6
CONTINUOUS
 62
     7
  5
3CA
 10
-0.275961
 20
0.5785
 30
0.0
 11
-0.275961
 21
0.6885
 31
0.0
  0
LINE
  8
0
  6
CONTINUOUS
 62
     7
  5
3CB
 10
-0.275961
 20
0.6885
 30
0.0
 11
-0.314961
 21
0.6885
 31
0.0
  0
LINE
  8
0
  6
CONTINUOUS
 62
     7
  5
3CC
 10
-0.275961
 20
-1.377
 30
0.0
 11
-0.275961
 21
-1.29438
 31
0.0
  0
LINE
  8
0
  6
CONTINUOUS
 62
     7
  5
3CD
 10
-0.275961
 20
-1.29438
 30
0.0
 11
-0.256461
 21
-1.29438
 31
0.0
  0
LINE
  8
0
  6
CONTINUOUS
 62
     7
  5
3CE
 10
-0.256461
 20
-1.29438
 30
0.0
 11
0.0
 21
-1.442448
 31
0.0
  0
LINE
  8
0
  6
CONTINUOUS
 62
     7
  5
3CF
 10
0.0
 20
-1.442448
 30
0.0
 11
0.0
 21
-1.557
 31
0.0
  0
LINE
  8
0
  6
CONTINUOUS
 62
     7
  5
3D0
 10
0.0
 20
-1.557
 30
0.0
 11
-0.314961
 21
-1.557
 31
0.0
  0
LINE
  8
0
  6
CONTINUOUS
 62
     7
  5
3D1
 10
-0.314961
 20
-1.377
 30
0.0
 11
-0.275961
 21
-1.377
 31
0.0
  0
LINE
  8
0
  6
CONTINUOUS
 62
     7
  5
3D2
 10
-0.275961
 20
-0.6885
 30
0.0
 11
-0.275961
 21
-0.60588
 31
0.0
  0
LINE
  8
0
  6
CONTINUOUS
 62
     7
  5
3D3
 10
-0.275961
 20
-0.60588
 30
0.0
 11
-0.256461
 21
-0.60588
 31
0.0
  0
LINE
  8
0
  6
CONTINUOUS
 62
     7
  5
3D4
 10
-0.256461
 20
-0.60588
 30
0.0
 11
0.0
 21
-0.753948
 31
0.0
  0
LINE
  8
0
  6
CONTINUOUS
 62
     7
  5
3D5
 10
0.0
 20
-0.753948
 30
0.0
 11
0.0
 21
-0.8685
 31
0.0
  0
LINE
  8
0
  6
CONTINUOUS
 62
     7
  5
3D6
 10
0.0
 20
-0.8685
 30
0.0
 11
-0.314961
 21
-0.8685
 31
0.0
  0
LINE
  8
0
  6
CONTINUOUS
 62
     7
  5
3D7
 10
-0.314961
 20
-0.6885
 30
0.0
 11
-0.275961
 21
-0.6885
 31
0.0
  0
LINE
  8
0
  6
CONTINUOUS
 62
     7
  5
3D8
 10
-0.314961
 20
-2.362
 30
0.0
 11
-5.191659
 21
-2.362
 31
0.0
  0
LINE
  8
0
  6
CONTINUOUS
 62
     7
  5
3D9
 10
-5.191659
 20
-2.362
 30
0.0
 11
-5.23622
 21
-2.362
 31
0.0
  0
LINE
  8
0
  6
CONTINUOUS
 62
     7
  5
3DA
 10
-0.314961
 20
2.362
 30
0.0
 11
-5.191659
 21
2.362
 31
0.0
  0
LINE
  8
0
  6
CONTINUOUS
 62
     7
  5
3DB
 10
-5.191659
 20
2.362
 30
0.0
 11
-5.191659
 21
1.75
 31
0.0
  0
LINE
  8
0
  6
CONTINUOUS
 62
     7
  5
3DC
 10
-5.191659
 20
1.75
 30
0.0
 11
-5.060753
 21
1.75
 31
0.0
  0
LINE
  8
0
  6
CONTINUOUS
 62
     7
  5
3DD
 10
-5.060753
 20
-1.75
 30
0.0
 11
-5.060753
 21
1.75
 31
0.0
  0
LINE
  8
0
  6
CONTINUOUS
 62
     7
  5
3DE
 10
-5.060753
 20
-1.75
 30
0.0
 11
-5.191659
 21
-1.75
 31
0.0
  0
LINE
  8
0
  6
CONTINUOUS
 62
     7
  5
3DF
 10
-5.191659
 20
-2.362
 30
0.0
 11
-5.191659
 21
-1.75
 31
0.0
  0
LINE
  8
0
  6
CONTINUOUS
 62
     7
  5
3E0
 10
-5.23622
 20
1.75
 30
0.0
 11
-5.191659
 21
1.75
 31
0.0
  0
LINE
  8
0
  6
CONTINUOUS
 62
     7
  5
3E1
 10
-5.191659
 20
2.362
 30
0.0
 11
-5.23622
 21
2.362
 31
0.0
  0
LINE
  8
0
  6
CONTINUOUS
 62
     7
  5
3E2
 10
-5.191659
 20
-1.75
 30
0.0
 11
-5.23622
 21
-1.75
 31
0.0
  0
LINE
  8
0
  6
CONTINUOUS
 62
     7
  5
3E3
 10
-5.23622
 20
2.362
 30
0.0
 11
-5.23622
 21
2.22574
 31
0.0
  0
LINE
  8
0
  6
CONTINUOUS
 62
     7
  5
3E4
 10
-5.23622
 20
2.05074
 30
0.0
 11
-5.23622
 21
1.75
 31
0.0
  0
LINE
  8
0
  6
CONTINUOUS
 62
     7
  5
3E5
 10
-5.23622
 20
-1.75
 30
0.0
 11
-5.23622
 21
-2.05074
 31
0.0
  0
LINE
  8
0
  6
CONTINUOUS
 62
     7
  5
3E6
 10
-5.23622
 20
-2.22574
 30
0.0
 11
-5.23622
 21
-2.362
 31
0.0
  0
LINE
  8
0
  6
CONTINUOUS
 62
     7
  5
3E7
 10
-5.105315
 20
1.75
 30
0.0
 11
-5.105315
 21
1.575
 31
0.0
  0
LINE
  8
0
  6
CONTINUOUS
 62
     7
  5
3E8
 10
-5.105315
 20
-0.865
 30
0.0
 11
-5.105315
 21
-1.75
 31
0.0
  0
ENDSEC
  0
EOF
