  0
SECTION
  2
HEADER
  9
$ACADVER
  1
AC1009
  9
$DWGCODEPAGE
  3
ansi_1250
  9
$INSBASE
 10
0.0
 20
0.0
 30
0.0
  9
$EXTMIN
 10
-0.531
 20
-2.48
 30
0.0
  9
$EXTMAX
 10
0.531
 20
2.362
 30
0.0
  9
$LIMMIN
 10
0.0
 20
0.0
  9
$LIMMAX
 10
0.0
 20
0.0
  9
$ORTHOMODE
 70
     0
  9
$REGENMODE
 70
     1
  9
$FILLMODE
 70
     1
  9
$QTEXTMODE
 70
     0
  9
$MIRRTEXT
 70
     1
  9
$DRAGMODE
 70
     2
  9
$LTSCALE
 40
1.0
  9
$OSMODE
 70
     0
  9
$ATTMODE
 70
     1
  9
$TEXTSIZE
 40
0.2
  9
$TRACEWID
 40
0.05
  9
$TEXTSTYLE
  7
STANDARD
  9
$CLAYER
  8
0
  9
$CELTYPE
  6
CONTINUOUS
  9
$CECOLOR
 62
   256
  9
$DIMSCALE
 40
1.0
  9
$DIMASZ
 40
0.18
  9
$DIMEXO
 40
0.0625
  9
$DIMDLI
 40
0.38
  9
$DIMRND
 40
0.0
  9
$DIMDLE
 40
0.0
  9
$DIMEXE
 40
0.18
  9
$DIMTP
 40
0.0
  9
$DIMTM
 40
0.0
  9
$DIMTXT
 40
0.18
  9
$DIMCEN
 40
0.09
  9
$DIMTSZ
 40
0.0
  9
$DIMTOL
 70
     0
  9
$DIMLIM
 70
     0
  9
$DIMTIH
 70
     1
  9
$DIMTOH
 70
     1
  9
$DIMSE1
 70
     0
  9
$DIMSE2
 70
     0
  9
$DIMTAD
 70
     0
  9
$DIMZIN
 70
     0
  9
$DIMBLK
  1

  9
$DIMASO
 70
     1
  9
$DIMSHO
 70
     1
  9
$DIMPOST
  1

  9
$DIMAPOST
  1

  9
$DIMALT
 70
     0
  9
$DIMALTD
 70
     2
  9
$DIMALTF
 40
25.4
  9
$DIMLFAC
 40
1.0
  9
$DIMTOFL
 70
     0
  9
$DIMTVP
 40
0.0
  9
$DIMTIX
 70
     0
  9
$DIMSOXD
 70
     0
  9
$DIMSAH
 70
     0
  9
$DIMBLK1
  1

  9
$DIMBLK2
  1

  9
$DIMSTYLE
  2
STANDARD
  9
$DIMCLRD
 70
     0
  9
$DIMCLRE
 70
     0
  9
$DIMCLRT
 70
     0
  9
$DIMTFAC
 40
1.0
  9
$DIMGAP
 40
0.09
  9
$LUNITS
 70
     2
  9
$LUPREC
 70
     4
  9
$AXISMODE
 70
     0
  9
$AXISUNIT
 10
0.0
 20
0.0
  9
$SKETCHINC
 40
0.1
  9
$FILLETRAD
 40
0.0
  9
$AUNITS
 70
     0
  9
$AUPREC
 70
     0
  9
$MENU
  1
acad
  9
$ELEVATION
 40
0.0
  9
$PELEVATION
 40
0.0
  9
$THICKNESS
 40
0.0
  9
$LIMCHECK
 70
     0
  9
$BLIPMODE
 70
     1
  9
$CHAMFERA
 40
0.0
  9
$CHAMFERB
 40
0.0
  9
$SKPOLY
 70
     0
  9
$TDCREATE
 40
0.000000000
  9
$TDUPDATE
 40
0.000000000
  9
$TDINDWG
 40
0.0000000000
  9
$TDUSRTIMER
 40
0.0000000000
  9
$USRTIMER
 70
     1
  9
$ANGBASE
 50
0.0
  9
$ANGDIR
 70
     0
  9
$PDMODE
 70
     0
  9
$PDSIZE
 40
0.0
  9
$PLINEWID
 40
0.0
  9
$COORDS
 70
     0
  9
$SPLFRAME
 70
     0
  9
$SPLINETYPE
 70
     6
  9
$SPLINESEGS
 70
     8
  9
$ATTDIA
 70
     0
  9
$ATTREQ
 70
     1
  9
$HANDLING
 70
     1
  9
$HANDSEED
  5
29B
  9
$SURFTAB1
 70
     6
  9
$SURFTAB2
 70
     6
  9
$SURFTYPE
 70
     6
  9
$SURFU
 70
     6
  9
$SURFV
 70
     6
  9
$UCSNAME
  2

  9
$UCSORG
 10
0.0
 20
0.0
 30
0.0
  9
$UCSXDIR
 10
1.0
 20
0.0
 30
0.0
  9
$UCSYDIR
 10
0.0
 20
1.0
 30
0.0
  9
$PUCSNAME
  2

  9
$PUCSORG
 10
0.0
 20
0.0
 30
0.0
  9
$PUCSXDIR
 10
1.0
 20
0.0
 30
0.0
  9
$PUCSYDIR
 10
0.0
 20
1.0
 30
0.0
  9
$USERI1
 70
     0
  9
$USERI2
 70
     0
  9
$USERI3
 70
     0
  9
$USERI4
 70
     0
  9
$USERI5
 70
     0
  9
$USERR1
 40
0.0
  9
$USERR2
 40
0.0
  9
$USERR3
 40
0.0
  9
$USERR4
 40
0.0
  9
$USERR5
 40
0.0
  9
$WORLDVIEW
 70
     1
  9
$SHADEDGE
 70
     3
  9
$SHADEDIF
 70
    70
  9
$TILEMODE
 70
     1
  9
$MAXACTVP
 70
    16
  9
$PINSBASE
 10
0.0
 20
0.0
 30
0.0
  9
$PLIMCHECK
 70
     0
  9
$PEXTMIN
 10
1.000000E+20
 20
1.000000E+20
 30
1.000000E+20
  9
$PEXTMAX
 10
-1.000000E+20
 20
-1.000000E+20
 30
-1.000000E+20
  9
$PLIMMIN
 10
0.0
 20
0.0
  9
$PLIMMAX
 10
12.0
 20
9.0
  9
$UNITMODE
 70
     0
  9
$VISRETAIN
 70
     0
  9
$PLINEGEN
 70
     1
  9
$PSLTSCALE
 70
     0
  9
$TREEDEPTH
 70
  3020
  0
ENDSEC
  0
SECTION
  2
TABLES
  0
TABLE
  2
VPORT
 70
     1
  0
VPORT
  2
*ACTIVE
 70
     0
 10
0.0
 20
0.0
 11
1.0
 21
1.0
 12
6.591288
 22
4.579184
 13
0.0
 23
0.0
 14
1.0
 24
1.0
 15
0.0
 25
0.0
 16
0.0
 26
0.0
 36
1.0
 17
0.0
 27
0.0
 37
0.0
 40
9.158369
 41
0.688564
 42
50.0
 43
0.0
 44
0.0
 50
0.0
 51
0.0
 71
     0
 72
   100
 73
     1
 74
     1
 75
     0
 76
     0
 77
     0
 78
     0
  0
ENDTAB
  0
TABLE
  2
LTYPE
 70
     5
  0
LTYPE
  2
CONTINUOUS
 70
    64
  3
Solid line
 72
    65
 73
     0
 40
0.0
  0
LTYPE
  2
CENTER
 70
    64
  3
Center ____ _ ____ _ ____ _ ____ _ ____ _ ____
 72
    65
 73
     4
 40
50.8
 49
31.75
 49
-6.35
 49
6.35
 49
-6.35
  0
LTYPE
  2
HIDDEN
 70
    64
  3
Hidden __ __ __ __ __ __ __ __ __ __ __ __ __ __
 72
    65
 73
     2
 40
9.525
 49
6.35
 49
-3.175
  0
LTYPE
  2
CENTER2
 70
    64
  3
Center (.5x) ___ _ ___ _ ___ _ ___ _ ___ _ ___
 72
    65
 73
     4
 40
28.575
 49
19.05
 49
-3.175
 49
3.175
 49
-3.175
  0
LTYPE
  2
HIDDEN2
 70
    64
  3
Hidden (.5x) _ _ _ _ _ _ _ _ _ _ _ _ _ _ _ _ _
 72
    65
 73
     2
 40
4.7625
 49
3.175
 49
-1.5875
  0
ENDTAB
  0
TABLE
  2
LAYER
 70
     1
  0
LAYER
  2
0
 70
     0
 62
     7
  6
CONTINUOUS
  0
ENDTAB
  0
TABLE
  2
STYLE
 70
     1
  0
STYLE
  2
STANDARD
 70
     0
 40
0.0
 41
1.0
 50
0.0
 71
     0
 42
0.0
  3
txt
  4

  0
ENDTAB
  0
TABLE
  2
VIEW
 70
     0
  0
ENDTAB
  0
TABLE
  2
UCS
 70
     0
  0
ENDTAB
  0
TABLE
  2
APPID
 70
     1
  0
APPID
  2
ACAD
 70
     0
  0
ENDTAB
  0
TABLE
  2
DIMSTYLE
 70
     1
  0
DIMSTYLE
  2
STANDARD
 70
     0
  3

  4

  5

  6

  7

 40
1.0
 41
0.18
 42
0.0625
 43
0.38
 44
0.18
 45
0.0
 46
0.0
 47
0.0
 48
0.0
 71
     0
 72
     0
 73
     1
 74
     1
 75
     0
 76
     0
 77
     0
 78
     0
140
0.18
141
0.09
142
0.0
143
25.4
144
1.0
145
0.0
146
1.0
147
0.09
170
     0
171
     2
172
     0
173
     0
174
     0
175
     0
176
     0
177
     0
178
     0
  0
ENDTAB
  0
ENDSEC
  0
SECTION
  2
BLOCKS
  0
ENDSEC
  0
SECTION
  2
ENTITIES
  0
LINE
  8
0
  6
CONTINUOUS
 62
     7
  5
16E
 10
0.39825
 20
1.575
 30
0.0
 11
0.19835
 21
-0.683432
 31
0.0
  0
LINE
  8
0
  6
CONTINUOUS
 62
     7
  5
16F
 10
-0.39825
 20
1.575
 30
0.0
 11
0.0
 21
1.575
 31
0.0
  0
LINE
  8
0
  6
CONTINUOUS
 62
     7
  5
170
 10
-0.19835
 20
-0.683432
 30
0.0
 11
-0.39825
 21
1.575
 31
0.0
  0
ARC
  8
0
  6
CONTINUOUS
 62
     7
  5
171
 10
0.0
 20
-0.665875
 30
0.0
 40
0.199125
 50
185.058237
 51
270.0
  0
ARC
  8
0
  6
CONTINUOUS
 62
     7
  5
172
 10
0.0
 20
-0.665875
 30
0.0
 40
0.199125
 50
270.0
 51
354.941763
  0
LINE
  8
0
  6
CONTINUOUS
 62
     7
  5
173
 10
0.0
 20
1.575
 30
0.0
 11
0.39825
 21
1.575
 31
0.0
  0
LINE
  8
0
  6
CONTINUOUS
 62
     7
  5
174
 10
0.35
 20
-2.13824
 30
0.0
 11
0.348635
 21
-2.153635
 31
0.0
  0
LINE
  8
0
  6
CONTINUOUS
 62
     7
  5
175
 10
0.348635
 20
-2.153635
 30
0.0
 11
0.344425
 21
-2.168974
 31
0.0
  0
LINE
  8
0
  6
CONTINUOUS
 62
     7
  5
176
 10
0.344425
 20
-2.168974
 30
0.0
 11
0.33748
 21
-2.183343
 31
0.0
  0
LINE
  8
0
  6
CONTINUOUS
 62
     7
  5
177
 10
0.33748
 20
-2.183343
 30
0.0
 11
0.328245
 21
-2.195979
 31
0.0
  0
LINE
  8
0
  6
CONTINUOUS
 62
     7
  5
178
 10
0.328245
 20
-2.195979
 30
0.0
 11
0.317216
 21
-2.206522
 31
0.0
  0
LINE
  8
0
  6
CONTINUOUS
 62
     7
  5
179
 10
0.317216
 20
-2.206522
 30
0.0
 11
0.304091
 21
-2.215223
 31
0.0
  0
LINE
  8
0
  6
CONTINUOUS
 62
     7
  5
17A
 10
0.304091
 20
-2.215223
 30
0.0
 11
0.289437
 21
-2.22149
 31
0.0
  0
LINE
  8
0
  6
CONTINUOUS
 62
     7
  5
17B
 10
0.289437
 20
-2.22149
 30
0.0
 11
0.27404
 21
-2.224976
 31
0.0
  0
LINE
  8
0
  6
CONTINUOUS
 62
     7
  5
17C
 10
0.27404
 20
-2.224976
 30
0.0
 11
0.258778
 21
-2.225661
 31
0.0
  0
LINE
  8
0
  6
CONTINUOUS
 62
     7
  5
17D
 10
0.258778
 20
-2.225661
 30
0.0
 11
0.243346
 21
-2.223618
 31
0.0
  0
LINE
  8
0
  6
CONTINUOUS
 62
     7
  5
17E
 10
0.243346
 20
-2.223618
 30
0.0
 11
0.228189
 21
-2.218732
 31
0.0
  0
LINE
  8
0
  6
CONTINUOUS
 62
     7
  5
17F
 10
0.228189
 20
-2.218732
 30
0.0
 11
0.214178
 21
-2.211186
 31
0.0
  0
LINE
  8
0
  6
CONTINUOUS
 62
     7
  5
180
 10
0.214178
 20
-2.211186
 30
0.0
 11
0.202047
 21
-2.201499
 31
0.0
  0
LINE
  8
0
  6
CONTINUOUS
 62
     7
  5
181
 10
0.202047
 20
-2.201499
 30
0.0
 11
0.191913
 21
-2.189948
 31
0.0
  0
LINE
  8
0
  6
CONTINUOUS
 62
     7
  5
182
 10
0.191913
 20
-2.189948
 30
0.0
 11
0.183733
 21
-2.176344
 31
0.0
  0
LINE
  8
0
  6
CONTINUOUS
 62
     7
  5
183
 10
0.183733
 20
-2.176344
 30
0.0
 11
0.178115
 21
-2.161379
 31
0.0
  0
LINE
  8
0
  6
CONTINUOUS
 62
     7
  5
184
 10
0.178115
 20
-2.161379
 30
0.0
 11
0.175334
 21
-2.145883
 31
0.0
  0
LINE
  8
0
  6
CONTINUOUS
 62
     7
  5
185
 10
0.175334
 20
-2.145883
 30
0.0
 11
0.175334
 21
-2.130597
 31
0.0
  0
LINE
  8
0
  6
CONTINUOUS
 62
     7
  5
186
 10
0.175334
 20
-2.130597
 30
0.0
 11
0.178115
 21
-2.115101
 31
0.0
  0
LINE
  8
0
  6
CONTINUOUS
 62
     7
  5
187
 10
0.178115
 20
-2.115101
 30
0.0
 11
0.183733
 21
-2.100136
 31
0.0
  0
LINE
  8
0
  6
CONTINUOUS
 62
     7
  5
188
 10
0.183733
 20
-2.100136
 30
0.0
 11
0.191913
 21
-2.086532
 31
0.0
  0
LINE
  8
0
  6
CONTINUOUS
 62
     7
  5
189
 10
0.191913
 20
-2.086532
 30
0.0
 11
0.202047
 21
-2.074981
 31
0.0
  0
LINE
  8
0
  6
CONTINUOUS
 62
     7
  5
18A
 10
0.202047
 20
-2.074981
 30
0.0
 11
0.214178
 21
-2.065294
 31
0.0
  0
LINE
  8
0
  6
CONTINUOUS
 62
     7
  5
18B
 10
0.214178
 20
-2.065294
 30
0.0
 11
0.228189
 21
-2.057748
 31
0.0
  0
LINE
  8
0
  6
CONTINUOUS
 62
     7
  5
18C
 10
0.228189
 20
-2.057748
 30
0.0
 11
0.243346
 21
-2.052862
 31
0.0
  0
LINE
  8
0
  6
CONTINUOUS
 62
     7
  5
18D
 10
0.243346
 20
-2.052862
 30
0.0
 11
0.258778
 21
-2.050819
 31
0.0
  0
LINE
  8
0
  6
CONTINUOUS
 62
     7
  5
18E
 10
0.258778
 20
-2.050819
 30
0.0
 11
0.27404
 21
-2.051504
 31
0.0
  0
LINE
  8
0
  6
CONTINUOUS
 62
     7
  5
18F
 10
0.27404
 20
-2.051504
 30
0.0
 11
0.289437
 21
-2.05499
 31
0.0
  0
LINE
  8
0
  6
CONTINUOUS
 62
     7
  5
190
 10
0.289437
 20
-2.05499
 30
0.0
 11
0.304091
 21
-2.061257
 31
0.0
  0
LINE
  8
0
  6
CONTINUOUS
 62
     7
  5
191
 10
0.304091
 20
-2.061257
 30
0.0
 11
0.317216
 21
-2.069958
 31
0.0
  0
LINE
  8
0
  6
CONTINUOUS
 62
     7
  5
192
 10
0.317216
 20
-2.069958
 30
0.0
 11
0.328245
 21
-2.080501
 31
0.0
  0
LINE
  8
0
  6
CONTINUOUS
 62
     7
  5
193
 10
0.328245
 20
-2.080501
 30
0.0
 11
0.33748
 21
-2.093137
 31
0.0
  0
LINE
  8
0
  6
CONTINUOUS
 62
     7
  5
194
 10
0.33748
 20
-2.093137
 30
0.0
 11
0.344425
 21
-2.107506
 31
0.0
  0
LINE
  8
0
  6
CONTINUOUS
 62
     7
  5
195
 10
0.344425
 20
-2.107506
 30
0.0
 11
0.348635
 21
-2.122845
 31
0.0
  0
LINE
  8
0
  6
CONTINUOUS
 62
     7
  5
196
 10
0.348635
 20
-2.122845
 30
0.0
 11
0.35
 21
-2.13824
 31
0.0
  0
LINE
  8
0
  6
CONTINUOUS
 62
     7
  5
197
 10
0.0
 20
-2.22574
 30
0.0
 11
-0.00763
 21
-2.225407
 31
0.0
  0
LINE
  8
0
  6
CONTINUOUS
 62
     7
  5
198
 10
-0.00763
 20
-2.225407
 30
0.0
 11
-0.015372
 21
-2.224379
 31
0.0
  0
LINE
  8
0
  6
CONTINUOUS
 62
     7
  5
199
 10
-0.015372
 20
-2.224379
 30
0.0
 11
-0.0231
 21
-2.222636
 31
0.0
  0
LINE
  8
0
  6
CONTINUOUS
 62
     7
  5
19A
 10
-0.0231
 20
-2.222636
 30
0.0
 11
-0.030695
 21
-2.220179
 31
0.0
  0
LINE
  8
0
  6
CONTINUOUS
 62
     7
  5
19B
 10
-0.030695
 20
-2.220179
 30
0.0
 11
-0.038047
 21
-2.217035
 31
0.0
  0
LINE
  8
0
  6
CONTINUOUS
 62
     7
  5
19C
 10
-0.038047
 20
-2.217035
 30
0.0
 11
-0.04506
 21
-2.213246
 31
0.0
  0
LINE
  8
0
  6
CONTINUOUS
 62
     7
  5
19D
 10
-0.04506
 20
-2.213246
 30
0.0
 11
-0.051641
 21
-2.208876
 31
0.0
  0
LINE
  8
0
  6
CONTINUOUS
 62
     7
  5
19E
 10
-0.051641
 20
-2.208876
 30
0.0
 11
-0.057705
 21
-2.204015
 31
0.0
  0
LINE
  8
0
  6
CONTINUOUS
 62
     7
  5
19F
 10
-0.057705
 20
-2.204015
 30
0.0
 11
-0.063194
 21
-2.198761
 31
0.0
  0
LINE
  8
0
  6
CONTINUOUS
 62
     7
  5
1A0
 10
-0.063194
 20
-2.198761
 30
0.0
 11
-0.068261
 21
-2.192982
 31
0.0
  0
LINE
  8
0
  6
CONTINUOUS
 62
     7
  5
1A1
 10
-0.068261
 20
-2.192982
 30
0.0
 11
-0.072888
 21
-2.18665
 31
0.0
  0
LINE
  8
0
  6
CONTINUOUS
 62
     7
  5
1A2
 10
-0.072888
 20
-2.18665
 30
0.0
 11
-0.076978
 21
-2.179842
 31
0.0
  0
LINE
  8
0
  6
CONTINUOUS
 62
     7
  5
1A3
 10
-0.076978
 20
-2.179842
 30
0.0
 11
-0.080451
 21
-2.172647
 31
0.0
  0
LINE
  8
0
  6
CONTINUOUS
 62
     7
  5
1A4
 10
-0.080451
 20
-2.172647
 30
0.0
 11
-0.083255
 21
-2.165162
 31
0.0
  0
LINE
  8
0
  6
CONTINUOUS
 62
     7
  5
1A5
 10
-0.083255
 20
-2.165162
 30
0.0
 11
-0.085357
 21
-2.157485
 31
0.0
  0
LINE
  8
0
  6
CONTINUOUS
 62
     7
  5
1A6
 10
-0.085357
 20
-2.157485
 30
0.0
 11
-0.086742
 21
-2.149735
 31
0.0
  0
LINE
  8
0
  6
CONTINUOUS
 62
     7
  5
1A7
 10
-0.086742
 20
-2.149735
 30
0.0
 11
-0.087418
 21
-2.142033
 31
0.0
  0
LINE
  8
0
  6
CONTINUOUS
 62
     7
  5
1A8
 10
-0.087418
 20
-2.142033
 30
0.0
 11
-0.087418
 21
-2.134447
 31
0.0
  0
LINE
  8
0
  6
CONTINUOUS
 62
     7
  5
1A9
 10
-0.087418
 20
-2.134447
 30
0.0
 11
-0.086742
 21
-2.126745
 31
0.0
  0
LINE
  8
0
  6
CONTINUOUS
 62
     7
  5
1AA
 10
-0.086742
 20
-2.126745
 30
0.0
 11
-0.085357
 21
-2.118995
 31
0.0
  0
LINE
  8
0
  6
CONTINUOUS
 62
     7
  5
1AB
 10
-0.085357
 20
-2.118995
 30
0.0
 11
-0.083255
 21
-2.111318
 31
0.0
  0
LINE
  8
0
  6
CONTINUOUS
 62
     7
  5
1AC
 10
-0.083255
 20
-2.111318
 30
0.0
 11
-0.080451
 21
-2.103833
 31
0.0
  0
LINE
  8
0
  6
CONTINUOUS
 62
     7
  5
1AD
 10
-0.080451
 20
-2.103833
 30
0.0
 11
-0.076978
 21
-2.096638
 31
0.0
  0
LINE
  8
0
  6
CONTINUOUS
 62
     7
  5
1AE
 10
-0.076978
 20
-2.096638
 30
0.0
 11
-0.072888
 21
-2.08983
 31
0.0
  0
LINE
  8
0
  6
CONTINUOUS
 62
     7
  5
1AF
 10
-0.072888
 20
-2.08983
 30
0.0
 11
-0.068261
 21
-2.083498
 31
0.0
  0
LINE
  8
0
  6
CONTINUOUS
 62
     7
  5
1B0
 10
-0.068261
 20
-2.083498
 30
0.0
 11
-0.063194
 21
-2.077719
 31
0.0
  0
LINE
  8
0
  6
CONTINUOUS
 62
     7
  5
1B1
 10
-0.063194
 20
-2.077719
 30
0.0
 11
-0.057705
 21
-2.072465
 31
0.0
  0
LINE
  8
0
  6
CONTINUOUS
 62
     7
  5
1B2
 10
-0.057705
 20
-2.072465
 30
0.0
 11
-0.051641
 21
-2.067604
 31
0.0
  0
LINE
  8
0
  6
CONTINUOUS
 62
     7
  5
1B3
 10
-0.051641
 20
-2.067604
 30
0.0
 11
-0.04506
 21
-2.063234
 31
0.0
  0
LINE
  8
0
  6
CONTINUOUS
 62
     7
  5
1B4
 10
-0.04506
 20
-2.063234
 30
0.0
 11
-0.038047
 21
-2.059445
 31
0.0
  0
LINE
  8
0
  6
CONTINUOUS
 62
     7
  5
1B5
 10
-0.038047
 20
-2.059445
 30
0.0
 11
-0.030695
 21
-2.056301
 31
0.0
  0
LINE
  8
0
  6
CONTINUOUS
 62
     7
  5
1B6
 10
-0.030695
 20
-2.056301
 30
0.0
 11
-0.0231
 21
-2.053844
 31
0.0
  0
LINE
  8
0
  6
CONTINUOUS
 62
     7
  5
1B7
 10
-0.0231
 20
-2.053844
 30
0.0
 11
-0.015372
 21
-2.052101
 31
0.0
  0
LINE
  8
0
  6
CONTINUOUS
 62
     7
  5
1B8
 10
-0.015372
 20
-2.052101
 30
0.0
 11
-0.00763
 21
-2.051073
 31
0.0
  0
LINE
  8
0
  6
CONTINUOUS
 62
     7
  5
1B9
 10
-0.00763
 20
-2.051073
 30
0.0
 11
0.0
 21
-2.05074
 31
0.0
  0
LINE
  8
0
  6
CONTINUOUS
 62
     7
  5
1BA
 10
0.0
 20
-2.05074
 30
0.0
 11
0.00763
 21
-2.051073
 31
0.0
  0
LINE
  8
0
  6
CONTINUOUS
 62
     7
  5
1BB
 10
0.00763
 20
-2.051073
 30
0.0
 11
0.015372
 21
-2.052101
 31
0.0
  0
LINE
  8
0
  6
CONTINUOUS
 62
     7
  5
1BC
 10
0.015372
 20
-2.052101
 30
0.0
 11
0.0231
 21
-2.053844
 31
0.0
  0
LINE
  8
0
  6
CONTINUOUS
 62
     7
  5
1BD
 10
0.0231
 20
-2.053844
 30
0.0
 11
0.030695
 21
-2.056301
 31
0.0
  0
LINE
  8
0
  6
CONTINUOUS
 62
     7
  5
1BE
 10
0.030695
 20
-2.056301
 30
0.0
 11
0.038047
 21
-2.059445
 31
0.0
  0
LINE
  8
0
  6
CONTINUOUS
 62
     7
  5
1BF
 10
0.038047
 20
-2.059445
 30
0.0
 11
0.04506
 21
-2.063234
 31
0.0
  0
LINE
  8
0
  6
CONTINUOUS
 62
     7
  5
1C0
 10
0.04506
 20
-2.063234
 30
0.0
 11
0.051641
 21
-2.067604
 31
0.0
  0
LINE
  8
0
  6
CONTINUOUS
 62
     7
  5
1C1
 10
0.051641
 20
-2.067604
 30
0.0
 11
0.057705
 21
-2.072465
 31
0.0
  0
LINE
  8
0
  6
CONTINUOUS
 62
     7
  5
1C2
 10
0.057705
 20
-2.072465
 30
0.0
 11
0.063194
 21
-2.077719
 31
0.0
  0
LINE
  8
0
  6
CONTINUOUS
 62
     7
  5
1C3
 10
0.063194
 20
-2.077719
 30
0.0
 11
0.068261
 21
-2.083498
 31
0.0
  0
LINE
  8
0
  6
CONTINUOUS
 62
     7
  5
1C4
 10
0.068261
 20
-2.083498
 30
0.0
 11
0.072888
 21
-2.08983
 31
0.0
  0
LINE
  8
0
  6
CONTINUOUS
 62
     7
  5
1C5
 10
0.072888
 20
-2.08983
 30
0.0
 11
0.076978
 21
-2.096638
 31
0.0
  0
LINE
  8
0
  6
CONTINUOUS
 62
     7
  5
1C6
 10
0.076978
 20
-2.096638
 30
0.0
 11
0.080451
 21
-2.103833
 31
0.0
  0
LINE
  8
0
  6
CONTINUOUS
 62
     7
  5
1C7
 10
0.080451
 20
-2.103833
 30
0.0
 11
0.083255
 21
-2.111318
 31
0.0
  0
LINE
  8
0
  6
CONTINUOUS
 62
     7
  5
1C8
 10
0.083255
 20
-2.111318
 30
0.0
 11
0.085357
 21
-2.118995
 31
0.0
  0
LINE
  8
0
  6
CONTINUOUS
 62
     7
  5
1C9
 10
0.085357
 20
-2.118995
 30
0.0
 11
0.086742
 21
-2.126745
 31
0.0
  0
LINE
  8
0
  6
CONTINUOUS
 62
     7
  5
1CA
 10
0.086742
 20
-2.126745
 30
0.0
 11
0.087418
 21
-2.134447
 31
0.0
  0
LINE
  8
0
  6
CONTINUOUS
 62
     7
  5
1CB
 10
0.087418
 20
-2.134447
 30
0.0
 11
0.087418
 21
-2.142033
 31
0.0
  0
LINE
  8
0
  6
CONTINUOUS
 62
     7
  5
1CC
 10
0.087418
 20
-2.142033
 30
0.0
 11
0.086742
 21
-2.149735
 31
0.0
  0
LINE
  8
0
  6
CONTINUOUS
 62
     7
  5
1CD
 10
0.086742
 20
-2.149735
 30
0.0
 11
0.085357
 21
-2.157485
 31
0.0
  0
LINE
  8
0
  6
CONTINUOUS
 62
     7
  5
1CE
 10
0.085357
 20
-2.157485
 30
0.0
 11
0.083255
 21
-2.165162
 31
0.0
  0
LINE
  8
0
  6
CONTINUOUS
 62
     7
  5
1CF
 10
0.083255
 20
-2.165162
 30
0.0
 11
0.080451
 21
-2.172647
 31
0.0
  0
LINE
  8
0
  6
CONTINUOUS
 62
     7
  5
1D0
 10
0.080451
 20
-2.172647
 30
0.0
 11
0.076978
 21
-2.179842
 31
0.0
  0
LINE
  8
0
  6
CONTINUOUS
 62
     7
  5
1D1
 10
0.076978
 20
-2.179842
 30
0.0
 11
0.072888
 21
-2.18665
 31
0.0
  0
LINE
  8
0
  6
CONTINUOUS
 62
     7
  5
1D2
 10
0.072888
 20
-2.18665
 30
0.0
 11
0.068261
 21
-2.192982
 31
0.0
  0
LINE
  8
0
  6
CONTINUOUS
 62
     7
  5
1D3
 10
0.068261
 20
-2.192982
 30
0.0
 11
0.063194
 21
-2.198761
 31
0.0
  0
LINE
  8
0
  6
CONTINUOUS
 62
     7
  5
1D4
 10
0.063194
 20
-2.198761
 30
0.0
 11
0.057705
 21
-2.204015
 31
0.0
  0
LINE
  8
0
  6
CONTINUOUS
 62
     7
  5
1D5
 10
0.057705
 20
-2.204015
 30
0.0
 11
0.051641
 21
-2.208876
 31
0.0
  0
LINE
  8
0
  6
CONTINUOUS
 62
     7
  5
1D6
 10
0.051641
 20
-2.208876
 30
0.0
 11
0.04506
 21
-2.213246
 31
0.0
  0
LINE
  8
0
  6
CONTINUOUS
 62
     7
  5
1D7
 10
0.04506
 20
-2.213246
 30
0.0
 11
0.038047
 21
-2.217035
 31
0.0
  0
LINE
  8
0
  6
CONTINUOUS
 62
     7
  5
1D8
 10
0.038047
 20
-2.217035
 30
0.0
 11
0.030695
 21
-2.220179
 31
0.0
  0
LINE
  8
0
  6
CONTINUOUS
 62
     7
  5
1D9
 10
0.030695
 20
-2.220179
 30
0.0
 11
0.0231
 21
-2.222636
 31
0.0
  0
LINE
  8
0
  6
CONTINUOUS
 62
     7
  5
1DA
 10
0.0231
 20
-2.222636
 30
0.0
 11
0.015372
 21
-2.224379
 31
0.0
  0
LINE
  8
0
  6
CONTINUOUS
 62
     7
  5
1DB
 10
0.015372
 20
-2.224379
 30
0.0
 11
0.00763
 21
-2.225407
 31
0.0
  0
LINE
  8
0
  6
CONTINUOUS
 62
     7
  5
1DC
 10
0.00763
 20
-2.225407
 30
0.0
 11
0.0
 21
-2.22574
 31
0.0
  0
LINE
  8
0
  6
CONTINUOUS
 62
     7
  5
1DD
 10
-0.175
 20
-2.13824
 30
0.0
 11
-0.176365
 21
-2.153638
 31
0.0
  0
LINE
  8
0
  6
CONTINUOUS
 62
     7
  5
1DE
 10
-0.176365
 20
-2.153638
 30
0.0
 11
-0.180579
 21
-2.168984
 31
0.0
  0
LINE
  8
0
  6
CONTINUOUS
 62
     7
  5
1DF
 10
-0.180579
 20
-2.168984
 30
0.0
 11
-0.187533
 21
-2.183364
 31
0.0
  0
LINE
  8
0
  6
CONTINUOUS
 62
     7
  5
1E0
 10
-0.187533
 20
-2.183364
 30
0.0
 11
-0.196783
 21
-2.196011
 31
0.0
  0
LINE
  8
0
  6
CONTINUOUS
 62
     7
  5
1E1
 10
-0.196783
 20
-2.196011
 30
0.0
 11
-0.207836
 21
-2.206564
 31
0.0
  0
LINE
  8
0
  6
CONTINUOUS
 62
     7
  5
1E2
 10
-0.207836
 20
-2.206564
 30
0.0
 11
-0.220992
 21
-2.215268
 31
0.0
  0
LINE
  8
0
  6
CONTINUOUS
 62
     7
  5
1E3
 10
-0.220992
 20
-2.215268
 30
0.0
 11
-0.235674
 21
-2.221526
 31
0.0
  0
LINE
  8
0
  6
CONTINUOUS
 62
     7
  5
1E4
 10
-0.235674
 20
-2.221526
 30
0.0
 11
-0.251088
 21
-2.224993
 31
0.0
  0
LINE
  8
0
  6
CONTINUOUS
 62
     7
  5
1E5
 10
-0.251088
 20
-2.224993
 30
0.0
 11
-0.266352
 21
-2.225655
 31
0.0
  0
LINE
  8
0
  6
CONTINUOUS
 62
     7
  5
1E6
 10
-0.266352
 20
-2.225655
 30
0.0
 11
-0.281776
 21
-2.22359
 31
0.0
  0
LINE
  8
0
  6
CONTINUOUS
 62
     7
  5
1E7
 10
-0.281776
 20
-2.22359
 30
0.0
 11
-0.296909
 21
-2.21869
 31
0.0
  0
LINE
  8
0
  6
CONTINUOUS
 62
     7
  5
1E8
 10
-0.296909
 20
-2.21869
 30
0.0
 11
-0.31089
 21
-2.211142
 31
0.0
  0
LINE
  8
0
  6
CONTINUOUS
 62
     7
  5
1E9
 10
-0.31089
 20
-2.211142
 30
0.0
 11
-0.322992
 21
-2.201461
 31
0.0
  0
LINE
  8
0
  6
CONTINUOUS
 62
     7
  5
1EA
 10
-0.322992
 20
-2.201461
 30
0.0
 11
-0.333106
 21
-2.189922
 31
0.0
  0
LINE
  8
0
  6
CONTINUOUS
 62
     7
  5
1EB
 10
-0.333106
 20
-2.189922
 30
0.0
 11
-0.341275
 21
-2.17633
 31
0.0
  0
LINE
  8
0
  6
CONTINUOUS
 62
     7
  5
1EC
 10
-0.341275
 20
-2.17633
 30
0.0
 11
-0.346887
 21
-2.161373
 31
0.0
  0
LINE
  8
0
  6
CONTINUOUS
 62
     7
  5
1ED
 10
-0.346887
 20
-2.161373
 30
0.0
 11
-0.349666
 21
-2.145882
 31
0.0
  0
LINE
  8
0
  6
CONTINUOUS
 62
     7
  5
1EE
 10
-0.349666
 20
-2.145882
 30
0.0
 11
-0.349666
 21
-2.130598
 31
0.0
  0
LINE
  8
0
  6
CONTINUOUS
 62
     7
  5
1EF
 10
-0.349666
 20
-2.130598
 30
0.0
 11
-0.346887
 21
-2.115107
 31
0.0
  0
LINE
  8
0
  6
CONTINUOUS
 62
     7
  5
1F0
 10
-0.346887
 20
-2.115107
 30
0.0
 11
-0.341275
 21
-2.10015
 31
0.0
  0
LINE
  8
0
  6
CONTINUOUS
 62
     7
  5
1F1
 10
-0.341275
 20
-2.10015
 30
0.0
 11
-0.333106
 21
-2.086558
 31
0.0
  0
LINE
  8
0
  6
CONTINUOUS
 62
     7
  5
1F2
 10
-0.333106
 20
-2.086558
 30
0.0
 11
-0.322992
 21
-2.075019
 31
0.0
  0
LINE
  8
0
  6
CONTINUOUS
 62
     7
  5
1F3
 10
-0.322992
 20
-2.075019
 30
0.0
 11
-0.31089
 21
-2.065338
 31
0.0
  0
LINE
  8
0
  6
CONTINUOUS
 62
     7
  5
1F4
 10
-0.31089
 20
-2.065338
 30
0.0
 11
-0.296909
 21
-2.05779
 31
0.0
  0
LINE
  8
0
  6
CONTINUOUS
 62
     7
  5
1F5
 10
-0.296909
 20
-2.05779
 30
0.0
 11
-0.281776
 21
-2.05289
 31
0.0
  0
LINE
  8
0
  6
CONTINUOUS
 62
     7
  5
1F6
 10
-0.281776
 20
-2.05289
 30
0.0
 11
-0.266352
 21
-2.050825
 31
0.0
  0
LINE
  8
0
  6
CONTINUOUS
 62
     7
  5
1F7
 10
-0.266352
 20
-2.050825
 30
0.0
 11
-0.251088
 21
-2.051487
 31
0.0
  0
LINE
  8
0
  6
CONTINUOUS
 62
     7
  5
1F8
 10
-0.251088
 20
-2.051487
 30
0.0
 11
-0.235674
 21
-2.054954
 31
0.0
  0
LINE
  8
0
  6
CONTINUOUS
 62
     7
  5
1F9
 10
-0.235674
 20
-2.054954
 30
0.0
 11
-0.220992
 21
-2.061212
 31
0.0
  0
LINE
  8
0
  6
CONTINUOUS
 62
     7
  5
1FA
 10
-0.220992
 20
-2.061212
 30
0.0
 11
-0.207836
 21
-2.069916
 31
0.0
  0
LINE
  8
0
  6
CONTINUOUS
 62
     7
  5
1FB
 10
-0.207836
 20
-2.069916
 30
0.0
 11
-0.196783
 21
-2.080469
 31
0.0
  0
LINE
  8
0
  6
CONTINUOUS
 62
     7
  5
1FC
 10
-0.196783
 20
-2.080469
 30
0.0
 11
-0.187533
 21
-2.093116
 31
0.0
  0
LINE
  8
0
  6
CONTINUOUS
 62
     7
  5
1FD
 10
-0.187533
 20
-2.093116
 30
0.0
 11
-0.180579
 21
-2.107496
 31
0.0
  0
LINE
  8
0
  6
CONTINUOUS
 62
     7
  5
1FE
 10
-0.180579
 20
-2.107496
 30
0.0
 11
-0.176365
 21
-2.122842
 31
0.0
  0
LINE
  8
0
  6
CONTINUOUS
 62
     7
  5
1FF
 10
-0.176365
 20
-2.122842
 30
0.0
 11
-0.175
 21
-2.13824
 31
0.0
  0
LINE
  8
0
  6
CONTINUOUS
 62
     7
  5
200
 10
0.175
 20
2.13824
 30
0.0
 11
0.176365
 21
2.153638
 31
0.0
  0
LINE
  8
0
  6
CONTINUOUS
 62
     7
  5
201
 10
0.176365
 20
2.153638
 30
0.0
 11
0.180579
 21
2.168984
 31
0.0
  0
LINE
  8
0
  6
CONTINUOUS
 62
     7
  5
202
 10
0.180579
 20
2.168984
 30
0.0
 11
0.187533
 21
2.183364
 31
0.0
  0
LINE
  8
0
  6
CONTINUOUS
 62
     7
  5
203
 10
0.187533
 20
2.183364
 30
0.0
 11
0.196783
 21
2.196011
 31
0.0
  0
LINE
  8
0
  6
CONTINUOUS
 62
     7
  5
204
 10
0.196783
 20
2.196011
 30
0.0
 11
0.207836
 21
2.206564
 31
0.0
  0
LINE
  8
0
  6
CONTINUOUS
 62
     7
  5
205
 10
0.207836
 20
2.206564
 30
0.0
 11
0.220992
 21
2.215268
 31
0.0
  0
LINE
  8
0
  6
CONTINUOUS
 62
     7
  5
206
 10
0.220992
 20
2.215268
 30
0.0
 11
0.235674
 21
2.221526
 31
0.0
  0
LINE
  8
0
  6
CONTINUOUS
 62
     7
  5
207
 10
0.235674
 20
2.221526
 30
0.0
 11
0.251088
 21
2.224993
 31
0.0
  0
LINE
  8
0
  6
CONTINUOUS
 62
     7
  5
208
 10
0.251088
 20
2.224993
 30
0.0
 11
0.266352
 21
2.225655
 31
0.0
  0
LINE
  8
0
  6
CONTINUOUS
 62
     7
  5
209
 10
0.266352
 20
2.225655
 30
0.0
 11
0.281776
 21
2.22359
 31
0.0
  0
LINE
  8
0
  6
CONTINUOUS
 62
     7
  5
20A
 10
0.281776
 20
2.22359
 30
0.0
 11
0.296909
 21
2.21869
 31
0.0
  0
LINE
  8
0
  6
CONTINUOUS
 62
     7
  5
20B
 10
0.296909
 20
2.21869
 30
0.0
 11
0.31089
 21
2.211142
 31
0.0
  0
LINE
  8
0
  6
CONTINUOUS
 62
     7
  5
20C
 10
0.31089
 20
2.211142
 30
0.0
 11
0.322992
 21
2.201461
 31
0.0
  0
LINE
  8
0
  6
CONTINUOUS
 62
     7
  5
20D
 10
0.322992
 20
2.201461
 30
0.0
 11
0.333106
 21
2.189922
 31
0.0
  0
LINE
  8
0
  6
CONTINUOUS
 62
     7
  5
20E
 10
0.333106
 20
2.189922
 30
0.0
 11
0.341275
 21
2.17633
 31
0.0
  0
LINE
  8
0
  6
CONTINUOUS
 62
     7
  5
20F
 10
0.341275
 20
2.17633
 30
0.0
 11
0.346887
 21
2.161373
 31
0.0
  0
LINE
  8
0
  6
CONTINUOUS
 62
     7
  5
210
 10
0.346887
 20
2.161373
 30
0.0
 11
0.349666
 21
2.145882
 31
0.0
  0
LINE
  8
0
  6
CONTINUOUS
 62
     7
  5
211
 10
0.349666
 20
2.145882
 30
0.0
 11
0.349666
 21
2.130598
 31
0.0
  0
LINE
  8
0
  6
CONTINUOUS
 62
     7
  5
212
 10
0.349666
 20
2.130598
 30
0.0
 11
0.346887
 21
2.115107
 31
0.0
  0
LINE
  8
0
  6
CONTINUOUS
 62
     7
  5
213
 10
0.346887
 20
2.115107
 30
0.0
 11
0.341275
 21
2.10015
 31
0.0
  0
LINE
  8
0
  6
CONTINUOUS
 62
     7
  5
214
 10
0.341275
 20
2.10015
 30
0.0
 11
0.333106
 21
2.086558
 31
0.0
  0
LINE
  8
0
  6
CONTINUOUS
 62
     7
  5
215
 10
0.333106
 20
2.086558
 30
0.0
 11
0.322992
 21
2.075019
 31
0.0
  0
LINE
  8
0
  6
CONTINUOUS
 62
     7
  5
216
 10
0.322992
 20
2.075019
 30
0.0
 11
0.31089
 21
2.065338
 31
0.0
  0
LINE
  8
0
  6
CONTINUOUS
 62
     7
  5
217
 10
0.31089
 20
2.065338
 30
0.0
 11
0.296909
 21
2.05779
 31
0.0
  0
LINE
  8
0
  6
CONTINUOUS
 62
     7
  5
218
 10
0.296909
 20
2.05779
 30
0.0
 11
0.281776
 21
2.05289
 31
0.0
  0
LINE
  8
0
  6
CONTINUOUS
 62
     7
  5
219
 10
0.281776
 20
2.05289
 30
0.0
 11
0.266352
 21
2.050825
 31
0.0
  0
LINE
  8
0
  6
CONTINUOUS
 62
     7
  5
21A
 10
0.266352
 20
2.050825
 30
0.0
 11
0.251088
 21
2.051487
 31
0.0
  0
LINE
  8
0
  6
CONTINUOUS
 62
     7
  5
21B
 10
0.251088
 20
2.051487
 30
0.0
 11
0.235674
 21
2.054954
 31
0.0
  0
LINE
  8
0
  6
CONTINUOUS
 62
     7
  5
21C
 10
0.235674
 20
2.054954
 30
0.0
 11
0.220992
 21
2.061212
 31
0.0
  0
LINE
  8
0
  6
CONTINUOUS
 62
     7
  5
21D
 10
0.220992
 20
2.061212
 30
0.0
 11
0.207836
 21
2.069916
 31
0.0
  0
LINE
  8
0
  6
CONTINUOUS
 62
     7
  5
21E
 10
0.207836
 20
2.069916
 30
0.0
 11
0.196783
 21
2.080469
 31
0.0
  0
LINE
  8
0
  6
CONTINUOUS
 62
     7
  5
21F
 10
0.196783
 20
2.080469
 30
0.0
 11
0.187533
 21
2.093116
 31
0.0
  0
LINE
  8
0
  6
CONTINUOUS
 62
     7
  5
220
 10
0.187533
 20
2.093116
 30
0.0
 11
0.180579
 21
2.107496
 31
0.0
  0
LINE
  8
0
  6
CONTINUOUS
 62
     7
  5
221
 10
0.180579
 20
2.107496
 30
0.0
 11
0.176365
 21
2.122842
 31
0.0
  0
LINE
  8
0
  6
CONTINUOUS
 62
     7
  5
222
 10
0.176365
 20
2.122842
 30
0.0
 11
0.175
 21
2.13824
 31
0.0
  0
LINE
  8
0
  6
CONTINUOUS
 62
     7
  5
223
 10
0.0
 20
2.22574
 30
0.0
 11
0.00763
 21
2.225407
 31
0.0
  0
LINE
  8
0
  6
CONTINUOUS
 62
     7
  5
224
 10
0.00763
 20
2.225407
 30
0.0
 11
0.015372
 21
2.224379
 31
0.0
  0
LINE
  8
0
  6
CONTINUOUS
 62
     7
  5
225
 10
0.015372
 20
2.224379
 30
0.0
 11
0.0231
 21
2.222636
 31
0.0
  0
LINE
  8
0
  6
CONTINUOUS
 62
     7
  5
226
 10
0.0231
 20
2.222636
 30
0.0
 11
0.030695
 21
2.220179
 31
0.0
  0
LINE
  8
0
  6
CONTINUOUS
 62
     7
  5
227
 10
0.030695
 20
2.220179
 30
0.0
 11
0.038047
 21
2.217035
 31
0.0
  0
LINE
  8
0
  6
CONTINUOUS
 62
     7
  5
228
 10
0.038047
 20
2.217035
 30
0.0
 11
0.04506
 21
2.213246
 31
0.0
  0
LINE
  8
0
  6
CONTINUOUS
 62
     7
  5
229
 10
0.04506
 20
2.213246
 30
0.0
 11
0.051641
 21
2.208876
 31
0.0
  0
LINE
  8
0
  6
CONTINUOUS
 62
     7
  5
22A
 10
0.051641
 20
2.208876
 30
0.0
 11
0.057705
 21
2.204015
 31
0.0
  0
LINE
  8
0
  6
CONTINUOUS
 62
     7
  5
22B
 10
0.057705
 20
2.204015
 30
0.0
 11
0.063194
 21
2.198761
 31
0.0
  0
LINE
  8
0
  6
CONTINUOUS
 62
     7
  5
22C
 10
0.063194
 20
2.198761
 30
0.0
 11
0.068261
 21
2.192982
 31
0.0
  0
LINE
  8
0
  6
CONTINUOUS
 62
     7
  5
22D
 10
0.068261
 20
2.192982
 30
0.0
 11
0.072888
 21
2.18665
 31
0.0
  0
LINE
  8
0
  6
CONTINUOUS
 62
     7
  5
22E
 10
0.072888
 20
2.18665
 30
0.0
 11
0.076978
 21
2.179842
 31
0.0
  0
LINE
  8
0
  6
CONTINUOUS
 62
     7
  5
22F
 10
0.076978
 20
2.179842
 30
0.0
 11
0.080451
 21
2.172647
 31
0.0
  0
LINE
  8
0
  6
CONTINUOUS
 62
     7
  5
230
 10
0.080451
 20
2.172647
 30
0.0
 11
0.083255
 21
2.165162
 31
0.0
  0
LINE
  8
0
  6
CONTINUOUS
 62
     7
  5
231
 10
0.083255
 20
2.165162
 30
0.0
 11
0.085357
 21
2.157485
 31
0.0
  0
LINE
  8
0
  6
CONTINUOUS
 62
     7
  5
232
 10
0.085357
 20
2.157485
 30
0.0
 11
0.086742
 21
2.149735
 31
0.0
  0
LINE
  8
0
  6
CONTINUOUS
 62
     7
  5
233
 10
0.086742
 20
2.149735
 30
0.0
 11
0.087418
 21
2.142033
 31
0.0
  0
LINE
  8
0
  6
CONTINUOUS
 62
     7
  5
234
 10
0.087418
 20
2.142033
 30
0.0
 11
0.087418
 21
2.134447
 31
0.0
  0
LINE
  8
0
  6
CONTINUOUS
 62
     7
  5
235
 10
0.087418
 20
2.134447
 30
0.0
 11
0.086742
 21
2.126745
 31
0.0
  0
LINE
  8
0
  6
CONTINUOUS
 62
     7
  5
236
 10
0.086742
 20
2.126745
 30
0.0
 11
0.085357
 21
2.118995
 31
0.0
  0
LINE
  8
0
  6
CONTINUOUS
 62
     7
  5
237
 10
0.085357
 20
2.118995
 30
0.0
 11
0.083255
 21
2.111318
 31
0.0
  0
LINE
  8
0
  6
CONTINUOUS
 62
     7
  5
238
 10
0.083255
 20
2.111318
 30
0.0
 11
0.080451
 21
2.103833
 31
0.0
  0
LINE
  8
0
  6
CONTINUOUS
 62
     7
  5
239
 10
0.080451
 20
2.103833
 30
0.0
 11
0.076978
 21
2.096638
 31
0.0
  0
LINE
  8
0
  6
CONTINUOUS
 62
     7
  5
23A
 10
0.076978
 20
2.096638
 30
0.0
 11
0.072888
 21
2.08983
 31
0.0
  0
LINE
  8
0
  6
CONTINUOUS
 62
     7
  5
23B
 10
0.072888
 20
2.08983
 30
0.0
 11
0.068261
 21
2.083498
 31
0.0
  0
LINE
  8
0
  6
CONTINUOUS
 62
     7
  5
23C
 10
0.068261
 20
2.083498
 30
0.0
 11
0.063194
 21
2.077719
 31
0.0
  0
LINE
  8
0
  6
CONTINUOUS
 62
     7
  5
23D
 10
0.063194
 20
2.077719
 30
0.0
 11
0.057705
 21
2.072465
 31
0.0
  0
LINE
  8
0
  6
CONTINUOUS
 62
     7
  5
23E
 10
0.057705
 20
2.072465
 30
0.0
 11
0.051641
 21
2.067604
 31
0.0
  0
LINE
  8
0
  6
CONTINUOUS
 62
     7
  5
23F
 10
0.051641
 20
2.067604
 30
0.0
 11
0.04506
 21
2.063234
 31
0.0
  0
LINE
  8
0
  6
CONTINUOUS
 62
     7
  5
240
 10
0.04506
 20
2.063234
 30
0.0
 11
0.038047
 21
2.059445
 31
0.0
  0
LINE
  8
0
  6
CONTINUOUS
 62
     7
  5
241
 10
0.038047
 20
2.059445
 30
0.0
 11
0.030695
 21
2.056301
 31
0.0
  0
LINE
  8
0
  6
CONTINUOUS
 62
     7
  5
242
 10
0.030695
 20
2.056301
 30
0.0
 11
0.0231
 21
2.053844
 31
0.0
  0
LINE
  8
0
  6
CONTINUOUS
 62
     7
  5
243
 10
0.0231
 20
2.053844
 30
0.0
 11
0.015372
 21
2.052101
 31
0.0
  0
LINE
  8
0
  6
CONTINUOUS
 62
     7
  5
244
 10
0.015372
 20
2.052101
 30
0.0
 11
0.00763
 21
2.051073
 31
0.0
  0
LINE
  8
0
  6
CONTINUOUS
 62
     7
  5
245
 10
0.00763
 20
2.051073
 30
0.0
 11
0.0
 21
2.05074
 31
0.0
  0
LINE
  8
0
  6
CONTINUOUS
 62
     7
  5
246
 10
0.0
 20
2.05074
 30
0.0
 11
-0.00763
 21
2.051073
 31
0.0
  0
LINE
  8
0
  6
CONTINUOUS
 62
     7
  5
247
 10
-0.00763
 20
2.051073
 30
0.0
 11
-0.015372
 21
2.052101
 31
0.0
  0
LINE
  8
0
  6
CONTINUOUS
 62
     7
  5
248
 10
-0.015372
 20
2.052101
 30
0.0
 11
-0.0231
 21
2.053844
 31
0.0
  0
LINE
  8
0
  6
CONTINUOUS
 62
     7
  5
249
 10
-0.0231
 20
2.053844
 30
0.0
 11
-0.030695
 21
2.056301
 31
0.0
  0
LINE
  8
0
  6
CONTINUOUS
 62
     7
  5
24A
 10
-0.030695
 20
2.056301
 30
0.0
 11
-0.038047
 21
2.059445
 31
0.0
  0
LINE
  8
0
  6
CONTINUOUS
 62
     7
  5
24B
 10
-0.038047
 20
2.059445
 30
0.0
 11
-0.04506
 21
2.063234
 31
0.0
  0
LINE
  8
0
  6
CONTINUOUS
 62
     7
  5
24C
 10
-0.04506
 20
2.063234
 30
0.0
 11
-0.051641
 21
2.067604
 31
0.0
  0
LINE
  8
0
  6
CONTINUOUS
 62
     7
  5
24D
 10
-0.051641
 20
2.067604
 30
0.0
 11
-0.057705
 21
2.072465
 31
0.0
  0
LINE
  8
0
  6
CONTINUOUS
 62
     7
  5
24E
 10
-0.057705
 20
2.072465
 30
0.0
 11
-0.063194
 21
2.077719
 31
0.0
  0
LINE
  8
0
  6
CONTINUOUS
 62
     7
  5
24F
 10
-0.063194
 20
2.077719
 30
0.0
 11
-0.068261
 21
2.083498
 31
0.0
  0
LINE
  8
0
  6
CONTINUOUS
 62
     7
  5
250
 10
-0.068261
 20
2.083498
 30
0.0
 11
-0.072888
 21
2.08983
 31
0.0
  0
LINE
  8
0
  6
CONTINUOUS
 62
     7
  5
251
 10
-0.072888
 20
2.08983
 30
0.0
 11
-0.076978
 21
2.096638
 31
0.0
  0
LINE
  8
0
  6
CONTINUOUS
 62
     7
  5
252
 10
-0.076978
 20
2.096638
 30
0.0
 11
-0.080451
 21
2.103833
 31
0.0
  0
LINE
  8
0
  6
CONTINUOUS
 62
     7
  5
253
 10
-0.080451
 20
2.103833
 30
0.0
 11
-0.083255
 21
2.111318
 31
0.0
  0
LINE
  8
0
  6
CONTINUOUS
 62
     7
  5
254
 10
-0.083255
 20
2.111318
 30
0.0
 11
-0.085357
 21
2.118995
 31
0.0
  0
LINE
  8
0
  6
CONTINUOUS
 62
     7
  5
255
 10
-0.085357
 20
2.118995
 30
0.0
 11
-0.086742
 21
2.126745
 31
0.0
  0
LINE
  8
0
  6
CONTINUOUS
 62
     7
  5
256
 10
-0.086742
 20
2.126745
 30
0.0
 11
-0.087418
 21
2.134447
 31
0.0
  0
LINE
  8
0
  6
CONTINUOUS
 62
     7
  5
257
 10
-0.087418
 20
2.134447
 30
0.0
 11
-0.087418
 21
2.142033
 31
0.0
  0
LINE
  8
0
  6
CONTINUOUS
 62
     7
  5
258
 10
-0.087418
 20
2.142033
 30
0.0
 11
-0.086742
 21
2.149735
 31
0.0
  0
LINE
  8
0
  6
CONTINUOUS
 62
     7
  5
259
 10
-0.086742
 20
2.149735
 30
0.0
 11
-0.085357
 21
2.157485
 31
0.0
  0
LINE
  8
0
  6
CONTINUOUS
 62
     7
  5
25A
 10
-0.085357
 20
2.157485
 30
0.0
 11
-0.083255
 21
2.165162
 31
0.0
  0
LINE
  8
0
  6
CONTINUOUS
 62
     7
  5
25B
 10
-0.083255
 20
2.165162
 30
0.0
 11
-0.080451
 21
2.172647
 31
0.0
  0
LINE
  8
0
  6
CONTINUOUS
 62
     7
  5
25C
 10
-0.080451
 20
2.172647
 30
0.0
 11
-0.076978
 21
2.179842
 31
0.0
  0
LINE
  8
0
  6
CONTINUOUS
 62
     7
  5
25D
 10
-0.076978
 20
2.179842
 30
0.0
 11
-0.072888
 21
2.18665
 31
0.0
  0
LINE
  8
0
  6
CONTINUOUS
 62
     7
  5
25E
 10
-0.072888
 20
2.18665
 30
0.0
 11
-0.068261
 21
2.192982
 31
0.0
  0
LINE
  8
0
  6
CONTINUOUS
 62
     7
  5
25F
 10
-0.068261
 20
2.192982
 30
0.0
 11
-0.063194
 21
2.198761
 31
0.0
  0
LINE
  8
0
  6
CONTINUOUS
 62
     7
  5
260
 10
-0.063194
 20
2.198761
 30
0.0
 11
-0.057705
 21
2.204015
 31
0.0
  0
LINE
  8
0
  6
CONTINUOUS
 62
     7
  5
261
 10
-0.057705
 20
2.204015
 30
0.0
 11
-0.051641
 21
2.208876
 31
0.0
  0
LINE
  8
0
  6
CONTINUOUS
 62
     7
  5
262
 10
-0.051641
 20
2.208876
 30
0.0
 11
-0.04506
 21
2.213246
 31
0.0
  0
LINE
  8
0
  6
CONTINUOUS
 62
     7
  5
263
 10
-0.04506
 20
2.213246
 30
0.0
 11
-0.038047
 21
2.217035
 31
0.0
  0
LINE
  8
0
  6
CONTINUOUS
 62
     7
  5
264
 10
-0.038047
 20
2.217035
 30
0.0
 11
-0.030695
 21
2.220179
 31
0.0
  0
LINE
  8
0
  6
CONTINUOUS
 62
     7
  5
265
 10
-0.030695
 20
2.220179
 30
0.0
 11
-0.0231
 21
2.222636
 31
0.0
  0
LINE
  8
0
  6
CONTINUOUS
 62
     7
  5
266
 10
-0.0231
 20
2.222636
 30
0.0
 11
-0.015372
 21
2.224379
 31
0.0
  0
LINE
  8
0
  6
CONTINUOUS
 62
     7
  5
267
 10
-0.015372
 20
2.224379
 30
0.0
 11
-0.00763
 21
2.225407
 31
0.0
  0
LINE
  8
0
  6
CONTINUOUS
 62
     7
  5
268
 10
-0.00763
 20
2.225407
 30
0.0
 11
0.0
 21
2.22574
 31
0.0
  0
LINE
  8
0
  6
CONTINUOUS
 62
     7
  5
269
 10
-0.35
 20
2.13824
 30
0.0
 11
-0.348635
 21
2.153635
 31
0.0
  0
LINE
  8
0
  6
CONTINUOUS
 62
     7
  5
26A
 10
-0.348635
 20
2.153635
 30
0.0
 11
-0.344425
 21
2.168974
 31
0.0
  0
LINE
  8
0
  6
CONTINUOUS
 62
     7
  5
26B
 10
-0.344425
 20
2.168974
 30
0.0
 11
-0.33748
 21
2.183343
 31
0.0
  0
LINE
  8
0
  6
CONTINUOUS
 62
     7
  5
26C
 10
-0.33748
 20
2.183343
 30
0.0
 11
-0.328245
 21
2.195979
 31
0.0
  0
LINE
  8
0
  6
CONTINUOUS
 62
     7
  5
26D
 10
-0.328245
 20
2.195979
 30
0.0
 11
-0.317216
 21
2.206522
 31
0.0
  0
LINE
  8
0
  6
CONTINUOUS
 62
     7
  5
26E
 10
-0.317216
 20
2.206522
 30
0.0
 11
-0.304091
 21
2.215223
 31
0.0
  0
LINE
  8
0
  6
CONTINUOUS
 62
     7
  5
26F
 10
-0.304091
 20
2.215223
 30
0.0
 11
-0.289437
 21
2.22149
 31
0.0
  0
LINE
  8
0
  6
CONTINUOUS
 62
     7
  5
270
 10
-0.289437
 20
2.22149
 30
0.0
 11
-0.27404
 21
2.224976
 31
0.0
  0
LINE
  8
0
  6
CONTINUOUS
 62
     7
  5
271
 10
-0.27404
 20
2.224976
 30
0.0
 11
-0.258778
 21
2.225661
 31
0.0
  0
LINE
  8
0
  6
CONTINUOUS
 62
     7
  5
272
 10
-0.258778
 20
2.225661
 30
0.0
 11
-0.243346
 21
2.223618
 31
0.0
  0
LINE
  8
0
  6
CONTINUOUS
 62
     7
  5
273
 10
-0.243346
 20
2.223618
 30
0.0
 11
-0.228189
 21
2.218732
 31
0.0
  0
LINE
  8
0
  6
CONTINUOUS
 62
     7
  5
274
 10
-0.228189
 20
2.218732
 30
0.0
 11
-0.214178
 21
2.211186
 31
0.0
  0
LINE
  8
0
  6
CONTINUOUS
 62
     7
  5
275
 10
-0.214178
 20
2.211186
 30
0.0
 11
-0.202047
 21
2.201499
 31
0.0
  0
LINE
  8
0
  6
CONTINUOUS
 62
     7
  5
276
 10
-0.202047
 20
2.201499
 30
0.0
 11
-0.191913
 21
2.189948
 31
0.0
  0
LINE
  8
0
  6
CONTINUOUS
 62
     7
  5
277
 10
-0.191913
 20
2.189948
 30
0.0
 11
-0.183733
 21
2.176344
 31
0.0
  0
LINE
  8
0
  6
CONTINUOUS
 62
     7
  5
278
 10
-0.183733
 20
2.176344
 30
0.0
 11
-0.178115
 21
2.161379
 31
0.0
  0
LINE
  8
0
  6
CONTINUOUS
 62
     7
  5
279
 10
-0.178115
 20
2.161379
 30
0.0
 11
-0.175334
 21
2.145883
 31
0.0
  0
LINE
  8
0
  6
CONTINUOUS
 62
     7
  5
27A
 10
-0.175334
 20
2.145883
 30
0.0
 11
-0.175334
 21
2.130597
 31
0.0
  0
LINE
  8
0
  6
CONTINUOUS
 62
     7
  5
27B
 10
-0.175334
 20
2.130597
 30
0.0
 11
-0.178115
 21
2.115101
 31
0.0
  0
LINE
  8
0
  6
CONTINUOUS
 62
     7
  5
27C
 10
-0.178115
 20
2.115101
 30
0.0
 11
-0.183733
 21
2.100136
 31
0.0
  0
LINE
  8
0
  6
CONTINUOUS
 62
     7
  5
27D
 10
-0.183733
 20
2.100136
 30
0.0
 11
-0.191913
 21
2.086532
 31
0.0
  0
LINE
  8
0
  6
CONTINUOUS
 62
     7
  5
27E
 10
-0.191913
 20
2.086532
 30
0.0
 11
-0.202047
 21
2.074981
 31
0.0
  0
LINE
  8
0
  6
CONTINUOUS
 62
     7
  5
27F
 10
-0.202047
 20
2.074981
 30
0.0
 11
-0.214178
 21
2.065294
 31
0.0
  0
LINE
  8
0
  6
CONTINUOUS
 62
     7
  5
280
 10
-0.214178
 20
2.065294
 30
0.0
 11
-0.228189
 21
2.057748
 31
0.0
  0
LINE
  8
0
  6
CONTINUOUS
 62
     7
  5
281
 10
-0.228189
 20
2.057748
 30
0.0
 11
-0.243346
 21
2.052862
 31
0.0
  0
LINE
  8
0
  6
CONTINUOUS
 62
     7
  5
282
 10
-0.243346
 20
2.052862
 30
0.0
 11
-0.258778
 21
2.050819
 31
0.0
  0
LINE
  8
0
  6
CONTINUOUS
 62
     7
  5
283
 10
-0.258778
 20
2.050819
 30
0.0
 11
-0.27404
 21
2.051504
 31
0.0
  0
LINE
  8
0
  6
CONTINUOUS
 62
     7
  5
284
 10
-0.27404
 20
2.051504
 30
0.0
 11
-0.289437
 21
2.05499
 31
0.0
  0
LINE
  8
0
  6
CONTINUOUS
 62
     7
  5
285
 10
-0.289437
 20
2.05499
 30
0.0
 11
-0.304091
 21
2.061257
 31
0.0
  0
LINE
  8
0
  6
CONTINUOUS
 62
     7
  5
286
 10
-0.304091
 20
2.061257
 30
0.0
 11
-0.317216
 21
2.069958
 31
0.0
  0
LINE
  8
0
  6
CONTINUOUS
 62
     7
  5
287
 10
-0.317216
 20
2.069958
 30
0.0
 11
-0.328245
 21
2.080501
 31
0.0
  0
LINE
  8
0
  6
CONTINUOUS
 62
     7
  5
288
 10
-0.328245
 20
2.080501
 30
0.0
 11
-0.33748
 21
2.093137
 31
0.0
  0
LINE
  8
0
  6
CONTINUOUS
 62
     7
  5
289
 10
-0.33748
 20
2.093137
 30
0.0
 11
-0.344425
 21
2.107506
 31
0.0
  0
LINE
  8
0
  6
CONTINUOUS
 62
     7
  5
28A
 10
-0.344425
 20
2.107506
 30
0.0
 11
-0.348635
 21
2.122845
 31
0.0
  0
LINE
  8
0
  6
CONTINUOUS
 62
     7
  5
28B
 10
-0.348635
 20
2.122845
 30
0.0
 11
-0.35
 21
2.13824
 31
0.0
  0
LINE
  8
0
  6
CONTINUOUS
 62
     7
  5
28C
 10
-0.39825
 20
-2.362
 30
0.0
 11
-0.39825
 21
-2.48
 31
0.0
  0
LINE
  8
0
  6
CONTINUOUS
 62
     7
  5
28D
 10
0.39825
 20
-2.48
 30
0.0
 11
-0.39825
 21
-2.48
 31
0.0
  0
LINE
  8
0
  6
CONTINUOUS
 62
     7
  5
28E
 10
0.39825
 20
-2.362
 30
0.0
 11
0.39825
 21
-2.48
 31
0.0
  0
LINE
  8
0
  6
CONTINUOUS
 62
     7
  5
28F
 10
0.531
 20
-2.362
 30
0.0
 11
-0.531
 21
-2.362
 31
0.0
  0
LINE
  8
0
  6
CONTINUOUS
 62
     7
  5
290
 10
0.531
 20
2.362
 30
0.0
 11
0.531
 21
1.75
 31
0.0
  0
LINE
  8
0
  6
CONTINUOUS
 62
     7
  5
291
 10
0.531
 20
-1.75
 30
0.0
 11
0.531
 21
1.75
 31
0.0
  0
LINE
  8
0
  6
CONTINUOUS
 62
     7
  5
292
 10
0.531
 20
-2.362
 30
0.0
 11
0.531
 21
-1.75
 31
0.0
  0
LINE
  8
0
  6
CONTINUOUS
 62
     7
  5
293
 10
-0.531
 20
1.75
 30
0.0
 11
0.531
 21
1.75
 31
0.0
  0
LINE
  8
0
  6
CONTINUOUS
 62
     7
  5
294
 10
0.531
 20
2.362
 30
0.0
 11
-0.531
 21
2.362
 31
0.0
  0
LINE
  8
0
  6
CONTINUOUS
 62
     7
  5
295
 10
-0.531
 20
2.362
 30
0.0
 11
-0.531
 21
1.75
 31
0.0
  0
LINE
  8
0
  6
CONTINUOUS
 62
     7
  5
296
 10
0.531
 20
-1.75
 30
0.0
 11
-0.531
 21
-1.75
 31
0.0
  0
LINE
  8
0
  6
CONTINUOUS
 62
     7
  5
297
 10
-0.531
 20
-2.362
 30
0.0
 11
-0.531
 21
-1.75
 31
0.0
  0
LINE
  8
0
  6
CONTINUOUS
 62
     7
  5
298
 10
-0.531
 20
-1.75
 30
0.0
 11
-0.531
 21
1.75
 31
0.0
  0
ENDSEC
  0
EOF
