  0
SECTION
  2
HEADER
  9
$ACADVER
  1
AC1009
  9
$INSBASE
 10
2776.480747799962046
 20
51.7424676866179709
 30
0.0
  9
$EXTMIN
 10
2743.4807481843608912
 20
33.7424676891679667
 30
0.0
  9
$EXTMAX
 10
2809.4807474155618365
 20
69.7424676840679894
 30
0.0
  9
$LIMMIN
 10
0.0
 20
0.0
  9
$LIMMAX
 10
11.6929133858000007
 20
8.2677165353999982
  9
$ORTHOMODE
 70
     1
  9
$REGENMODE
 70
     1
  9
$FILLMODE
 70
     1
  9
$QTEXTMODE
 70
     0
  9
$MIRRTEXT
 70
     0
  9
$DRAGMODE
 70
     2
  9
$LTSCALE
 40
0.6431102362
  9
$OSMODE
 70
  4095
  9
$ATTMODE
 70
     1
  9
$TEXTSIZE
 40
0.2
  9
$TRACEWID
 40
0.05
  9
$TEXTSTYLE
  7
STANDARD
  9
$CLAYER
  8
0
  9
$CELTYPE
  6
BYLAYER
  9
$CECOLOR
 62
   256
  9
$DIMSCALE
 40
1.0
  9
$DIMASZ
 40
0.1875
  9
$DIMEXO
 40
0.0625
  9
$DIMDLI
 40
0.4443307087
  9
$DIMRND
 40
0.0
  9
$DIMDLE
 40
0.0
  9
$DIMEXE
 40
0.125
  9
$DIMTP
 40
0.01
  9
$DIMTM
 40
0.01
  9
$DIMTXT
 40
2.0
  9
$DIMCEN
 40
0.1052362205
  9
$DIMTSZ
 40
0.0
  9
$DIMTOL
 70
     1
  9
$DIMLIM
 70
     0
  9
$DIMTIH
 70
     1
  9
$DIMTOH
 70
     1
  9
$DIMSE1
 70
     0
  9
$DIMSE2
 70
     0
  9
$DIMTAD
 70
     0
  9
$DIMZIN
 70
     0
  9
$DIMBLK
  1

  9
$DIMASO
 70
     1
  9
$DIMSHO
 70
     1
  9
$DIMPOST
  1
\X
  9
$DIMAPOST
  1

  9
$DIMALT
 70
     1
  9
$DIMALTD
 70
     2
  9
$DIMALTF
 40
25.3999999999999986
  9
$DIMLFAC
 40
1.0
  9
$DIMTOFL
 70
     0
  9
$DIMTVP
 40
0.0
  9
$DIMTIX
 70
     0
  9
$DIMSOXD
 70
     0
  9
$DIMSAH
 70
     0
  9
$DIMBLK1
  1

  9
$DIMBLK2
  1

  9
$DIMSTYLE
  2
STANDARD
  9
$DIMCLRD
 70
     0
  9
$DIMCLRE
 70
     0
  9
$DIMCLRT
 70
     0
  9
$DIMTFAC
 40
1.0
  9
$DIMGAP
 40
0.09
  9
$LUNITS
 70
     2
  9
$LUPREC
 70
     4
  9
$SKETCHINC
 40
0.1
  9
$FILLETRAD
 40
0.0
  9
$AUNITS
 70
     0
  9
$AUPREC
 70
     0
  9
$MENU
  1
.
  9
$ELEVATION
 40
0.0
  9
$PELEVATION
 40
0.0
  9
$THICKNESS
 40
0.0
  9
$LIMCHECK
 70
     0
  9
$BLIPMODE
 70
     0
  9
$CHAMFERA
 40
0.0
  9
$CHAMFERB
 40
0.0
  9
$SKPOLY
 70
     0
  9
$TDCREATE
 40
2458060.468368056230247
  9
$TDUPDATE
 40
2458750.9726388892158866
  9
$TDINDWG
 40
0.2780857639
  9
$TDUSRTIMER
 40
0.2780857639
  9
$USRTIMER
 70
     1
  9
$ANGBASE
 50
0.0
  9
$ANGDIR
 70
     0
  9
$PDMODE
 70
     0
  9
$PDSIZE
 40
0.3125
  9
$PLINEWID
 40
0.0
  9
$COORDS
 70
     1
  9
$SPLFRAME
 70
     0
  9
$SPLINETYPE
 70
     6
  9
$SPLINESEGS
 70
     8
  9
$ATTDIA
 70
     1
  9
$ATTREQ
 70
     1
  9
$HANDLING
 70
     1
  9
$HANDSEED
  5
5844
  9
$SURFTAB1
 70
     6
  9
$SURFTAB2
 70
     6
  9
$SURFTYPE
 70
     6
  9
$SURFU
 70
     6
  9
$SURFV
 70
     6
  9
$UCSNAME
  2

  9
$UCSORG
 10
0.0
 20
0.0
 30
0.0
  9
$UCSXDIR
 10
1.0
 20
0.0
 30
0.0
  9
$UCSYDIR
 10
0.0
 20
1.0
 30
0.0
  9
$PUCSNAME
  2

  9
$PUCSORG
 10
0.0
 20
0.0
 30
0.0
  9
$PUCSXDIR
 10
1.0
 20
0.0
 30
0.0
  9
$PUCSYDIR
 10
0.0
 20
1.0
 30
0.0
  9
$USERI1
 70
     0
  9
$USERI2
 70
     0
  9
$USERI3
 70
     0
  9
$USERI4
 70
     0
  9
$USERI5
 70
     0
  9
$USERR1
 40
0.0
  9
$USERR2
 40
0.0
  9
$USERR3
 40
0.0
  9
$USERR4
 40
0.0
  9
$USERR5
 40
0.0
  9
$WORLDVIEW
 70
     1
  9
$SHADEDGE
 70
     3
  9
$SHADEDIF
 70
    70
  9
$TILEMODE
 70
     1
  9
$MAXACTVP
 70
    64
  9
$PLIMCHECK
 70
     0
  9
$PEXTMIN
 10
1.0000000000000000E+20
 20
1.0000000000000000E+20
 30
1.0000000000000000E+20
  9
$PEXTMAX
 10
-1.0000000000000000E+20
 20
-1.0000000000000000E+20
 30
-1.0000000000000000E+20
  9
$PLIMMIN
 10
0.0
 20
0.0
  9
$PLIMMAX
 10
12.0
 20
9.0
  9
$UNITMODE
 70
     0
  9
$VISRETAIN
 70
     1
  9
$PLINEGEN
 70
     0
  9
$PSLTSCALE
 70
     1
  0
ENDSEC
  0
SECTION
  2
TABLES
  0
TABLE
  2
VPORT
 70
     1
  0
VPORT
  2
*ACTIVE
 70
     0
 10
0.0
 20
0.0
 11
1.0
 21
1.0
 12
0.0
 22
0.0
 13
0.0
 23
0.0
 14
1.0
 24
1.0
 15
0.0
 25
0.0
 16
0.0
 26
0.0
 36
215.3788733471737942
 17
2776.480712890625
 27
51.7424678802490234
 37
0.0
 40
75.1968145902497156
 41
2.1481900452488678
 42
50.0
 43
0.0
 44
0.0
 50
0.0
 51
0.0
 71
     0
 72
   100
 73
     1
 74
     1
 75
     0
 76
     0
 77
     0
 78
     0
  0
ENDTAB
  0
TABLE
  2
LTYPE
 70
     2
  0
LTYPE
  2
CONTINUOUS
 70
     0
  3
Solid line
 72
    65
 73
     0
 40
0.0
  0
LTYPE
  2
PHANTOM2
 70
     0
  3
___ _ _ ___ _ _ ___ _ _ ___ _ _
 72
    65
 73
     6
 40
1.25
 49
0.625
 49
-0.125
 49
0.125
 49
-0.125
 49
0.125
 49
-0.125
  0
ENDTAB
  0
TABLE
  2
LAYER
 70
     2
  0
LAYER
  2
0
 70
     0
 62
   255
  6
CONTINUOUS
  0
LAYER
  2
DEFPOINTS
 70
     0
 62
     7
  6
CONTINUOUS
  0
ENDTAB
  0
TABLE
  2
STYLE
 70
     1
  0
STYLE
  2
STANDARD
 70
     0
 40
0.0
 41
0.8
 50
0.0
 71
     0
 42
0.2
  3
txt
  4

  0
ENDTAB
  0
TABLE
  2
VIEW
 70
     0
  0
ENDTAB
  0
TABLE
  2
UCS
 70
     0
  0
ENDTAB
  0
TABLE
  2
APPID
 70
     9
  0
APPID
  2
ACAD
 70
     0
  0
APPID
  2
ACAD_MLEADERVER
 70
     0
  0
APPID
  2
ACAD_EXEMPT_FROM_CAD_STANDARDS
 70
     0
  0
APPID
  2
ACAD_NAV_VCDISPLAY
 70
     0
  0
APPID
  2
ACAECLAYERSTANDARD
 70
     0
  0
APPID
  2
ACCMTRANSPARENCY
 70
     0
  0
APPID
  2
ACAD_DSTYLE_DIMJAG
 70
     0
  0
APPID
  2
ACAD_DSTYLE_DIMTALN
 70
     0
  0
APPID
  2
ACDBATTR
 70
     0
  0
ENDTAB
  0
TABLE
  2
DIMSTYLE
 70
     1
  0
DIMSTYLE
  2
STANDARD
 70
     0
  3

  4

  5

  6

  7

 40
1.0
 41
0.1875
 42
0.0625
 43
0.38
 44
0.125
 45
0.0
 46
0.0
 47
0.01
 48
0.01
140
0.15625
141
0.09
142
0.0
143
25.3999999999999986
144
1.0
145
0.0
146
1.0
147
0.09
 71
     1
 72
     0
 73
     1
 74
     1
 75
     0
 76
     0
 77
     0
 78
     4
170
     0
171
     2
172
     0
173
     0
174
     0
175
     0
176
     0
177
     0
178
     0
  0
ENDTAB
  0
ENDSEC
  0
SECTION
  2
BLOCKS
  0
BLOCK
  8
0
  2
$MODEL_SPACE
 70
     0
 10
0.0
 20
0.0
 30
0.0
  3
$MODEL_SPACE
  1

  0
ENDBLK
  5
21
  8
0
  0
BLOCK
 67
     1
  8
0
  2
$PAPER_SPACE
 70
     0
 10
0.0
 20
0.0
 30
0.0
  3
$PAPER_SPACE
  1

  0
ENDBLK
  5
1D
 67
     1
  8
0
  0
ENDSEC
  0
SECTION
  2
ENTITIES
  0
ATTDEF
  5
3930
  8
DEFPOINTS
 10
2776.4772635369549789
 20
51.7464053488798186
 30
0.0
 40
0.001
  1
K-856-GH*
  3

  2
MODELNUMBER
 70
     0
1001
ACDBATTR
1070
     0
1070
     1
  0
ATTDEF
  5
3931
  8
DEFPOINTS
 10
2776.4772635369549789
 20
51.7447386822131605
 30
0.0
 40
0.001
  1
TEA-FOR-TWO
  3

  2
TRADENAME
 70
     0
1001
ACDBATTR
1070
     0
1070
     1
  0
ATTDEF
  5
3932
  8
DEFPOINTS
 10
2776.4772635369549789
 20
51.7430720155464883
 30
0.0
 40
0.001
  1
BATH
  3

  2
PRODUCT
 70
     0
1001
ACDBATTR
1070
     0
1070
     1
  0
LINE
  5
55D6
  8
0
 10
2743.4807481843608912
 20
34.7424676788679889
 30
0.0
 11
2743.4807481843608912
 21
68.7424676942679866
 31
0.0
  0
LINE
  5
55D7
  8
0
 10
2745.5444774578609213
 20
54.6731783773679894
 30
0.0
 11
2745.5444774578609213
 21
48.8117569964679916
 31
0.0
  0
LINE
  5
55D8
  8
0
 10
2746.0238435741612193
 20
54.6731783770679769
 30
0.0
 11
2746.0238435741612193
 21
48.811756996667981
 31
0.0
  0
LINE
  5
55D9
  8
0
 10
2747.1412514556618589
 20
64.0549300197679941
 30
0.0
 11
2747.1412514568310144
 21
55.8215650241586587
 31
0.0
  0
LINE
  5
55DA
  8
0
 10
2747.1412514570952226
 20
53.9706751247680501
 30
0.0
 11
2747.1412514577277761
 21
49.5142602490675898
 31
0.0
  0
LINE
  5
55DB
  8
0
 10
2747.1412514579910749
 20
47.6633700591072582
 30
0.0
 11
2747.1412514591611398
 21
39.4306529929718792
 31
0.0
  0
LINE
  5
55DC
  8
0
 10
2747.804666397461915
 20
49.5142602490679806
 30
0.0
 11
2747.804666397461915
 21
53.970675124767979
 31
0.0
  0
ARC
  5
55DD
  8
0
 10
2744.5653945285789632
 20
68.6578213725070867
 30
0.0
 40
1.0879442503235739
 50
94.4623678955271515
 51
175.537654209188986
  0
ARC
  5
55DE
  8
0
 10
2744.5358071815771837
 20
34.7975266651412909
 30
0.0
 40
1.056494666136125
 50
182.9873101725615072
 51
267.0126677227281107
  0
LINE
  5
55DF
  8
0
 10
2797.0320440023479023
 20
64.4725147155148335
 30
0.0
 11
2755.9294515975748254
 21
64.4725147155148335
 31
0.0
  0
ARC
  5
55E0
  8
0
 10
2756.4093635666690716
 20
62.1861464050868307
 30
0.0
 40
2.336192532521379
 50
101.8543696996483021
 51
173.4417507819657089
  0
LINE
  5
55E1
  8
0
 10
2754.0884584817640643
 20
62.4529705716657375
 30
0.0
 11
2754.0884584817640643
 21
40.9701346161540769
 31
0.0
  0
ARC
  5
55E2
  8
0
 10
2756.147273090177805
 20
41.0985535435527325
 30
0.0
 40
2.062815797092493
 50
183.5692103663070043
 51
266.3676567940677842
  0
LINE
  5
55E3
  8
0
 10
2756.0165856829607947
 20
39.0398816866679894
 30
0.0
 11
2796.944909916961933
 21
39.0398816866679894
 31
0.0
  0
ARC
  5
55E4
  8
0
 10
2749.3208675060191126
 20
39.4692251874558622
 30
0.0
 40
2.179957322037358
 50
181.0138452082302081
 51
261.8007532303126936
  0
ARC
  5
55E5
  8
0
 10
2749.3193596707869801
 20
64.0170283745599562
 30
0.0
 40
2.1784379567726639
 50
98.1649386090923031
 51
179.0030866493150938
  0
LINE
  5
55E6
  8
0
 10
2809.4807474155618365
 20
34.7424676788679889
 30
0.0
 11
2809.4807474155618365
 21
68.7424676942679866
 31
0.0
  0
LINE
  5
55E7
  8
0
 10
2805.8202441442608688
 20
64.0549300197679941
 30
0.0
 11
2805.8202441407611332
 21
39.4306529929718792
 31
0.0
  0
ARC
  5
55E8
  8
0
 10
2808.3961010713442192
 20
68.6578213725070867
 30
0.0
 40
1.0879442503235739
 50
4.462345790810998
 51
85.5376321044728343
  0
ARC
  5
55E9
  8
0
 10
2808.4256884183459988
 20
34.7975266651412909
 30
0.0
 40
1.056494666136125
 50
272.9873322772717756
 51
357.0126898274385212
  0
ARC
  5
55EA
  8
0
 10
2796.5521320332541109
 20
62.1861464050868307
 30
0.0
 40
2.336192532521379
 50
6.5582492180343408
 51
78.1456303003516553
  0
LINE
  5
55EB
  8
0
 10
2798.8730371181600276
 20
62.4529705716657375
 30
0.0
 11
2798.8730371181600276
 21
40.9701346161540769
 31
0.0
  0
ARC
  5
55EC
  8
0
 10
2796.8142225097449227
 20
41.0985535435527325
 30
0.0
 40
2.062815797092493
 50
273.6323432059322158
 51
356.430789633692882
  0
ARC
  5
55ED
  8
0
 10
2803.6406280939040698
 20
39.4692251874558622
 30
0.0
 40
2.179957322037358
 50
278.1992467696873064
 51
358.9861547917698203
  0
ARC
  5
55EE
  8
0
 10
2803.6421359291362023
 20
64.0170283745599562
 30
0.0
 40
2.1784379567726639
 50
0.9969133506848598
 51
81.8350613909077254
  0
LINE
  5
55EF
  8
0
 10
2744.4807477882618514
 20
33.7424676891679809
 30
0.0
 11
2808.4807478116608763
 21
33.7424676891679809
 31
0.0
  0
LINE
  5
55F0
  8
0
 10
2749.0099708831608041
 20
37.3115511583679691
 30
0.0
 11
2803.9515247167619236
 21
37.3115511583679691
 31
0.0
  0
LINE
  5
55F1
  8
0
 10
2744.4807477883618958
 20
69.7424676840679894
 30
0.0
 11
2808.4807478115608319
 21
69.7424676840679894
 31
0.0
  0
LINE
  5
55F2
  8
0
 10
2749.0099708831608041
 20
66.1733842147679923
 30
0.0
 11
2803.9515247167610141
 21
66.1733842147680065
 31
0.0
  0
ARC
  5
55F3
  8
0
 10
2746.4077702275289994
 20
55.8324417390140297
 30
0.0
 40
0.7335618696911455
 50
289.03072701576491
 51
359.1504292702929888
  0
ARC
  5
55F4
  8
0
 10
2746.6302916021008969
 20
54.5115880138604965
 30
0.0
 40
0.6276070873350451
 50
88.4775247477887063
 51
165.0799716876516925
  0
ARC
  5
55F5
  8
0
 10
2746.3847485021901775
 20
47.6444332413098905
 30
0.0
 40
0.7567399323441411
 50
1.433931212741596
 51
69.3738884389072155
  0
ARC
  5
55F6
  8
0
 10
2746.5228456375798487
 20
48.8354247699869504
 30
0.0
 40
0.4995630318491137
 50
182.7155158530013921
 51
284.9028773952571783
  0
ARC
  5
55F7
  8
0
 10
2748.7310839291008051
 20
56.8659399373809009
 30
0.0
 40
1.902179342030613
 50
213.3012631723881043
 51
231.3736173020114961
  0
ARC
  5
55F8
  8
0
 10
2741.6443059015718973
 20
53.5585102169771901
 30
0.0
 40
6.1741332469043746
 50
3.8277251426052858
 51
17.157682278633871
  0
ARC
  5
55F9
  8
0
 10
2742.8587000204329343
 20
49.6858357629512497
 30
0.0
 40
4.9489414585003653
 50
341.2189588926194119
 51
358.0132068109393231
  0
ARC
  5
55FA
  8
0
 10
2748.5025407456278117
 20
46.7890529081918487
 30
0.0
 40
1.617881023134172
 50
126.3261317632842946
 51
147.2885276659114879
  0
ARC
  5
55FB
  8
0
 10
2749.0316493190239271
 20
46.87748194892567
 30
0.0
 40
2.8003777228660689
 50
136.5496030024866911
 51
148.2118377500557074
  0
ARC
  5
55FC
  8
0
 10
2745.0772661202759082
 20
49.5585203304982329
 30
0.0
 40
2.0644598392856959
 50
338.5442055181383125
 51
358.7715381408522717
  0
ARC
  5
55FD
  8
0
 10
2749.0341715395811661
 20
56.610263961495761
 30
0.0
 40
2.8041831580927128
 50
211.6465018738412027
 51
223.4562125439751128
  0
ARC
  5
55FE
  8
0
 10
2744.7867555412649381
 20
53.8679891058313416
 30
0.0
 40
2.3567340613966739
 50
2.4972434434726529
 51
20.19434253608744
  0
ARC
  5
55FF
  8
0
 10
2740.3261341116372023
 20
51.7424676811658415
 30
0.0
 40
6.0033218308999308
 50
347.9823547215946178
 51
12.0176453838350596
  0
ARC
  5
5600
  8
0
 10
2752.0842989735169795
 20
51.7424676919836273
 30
0.0
 40
6.0176657290984146
 50
168.011426397162694
 51
191.9885737082663866
  0
ARC
  5
5601
  8
0
 10
2746.9013221356458416
 20
54.4708643260690266
 30
0.0
 40
1.371844909231601
 50
79.927430728344703
 51
171.5193209975271884
  0
ARC
  5
5602
  8
0
 10
2746.8390338338249421
 20
48.9274619699599569
 30
0.0
 40
1.299716835098969
 50
185.107415965790608
 51
283.4458186040081955
  0
ARC
  5
5603
  8
0
 10
2776.4760741596251137
 20
61.412963608031518
 30
0.0
 40
4.686951471634897
 50
79.6205145316175873
 51
100.2660944669978988
  0
ARC
  5
5604
  8
0
 10
2776.4854228826761755
 20
70.8606656884021362
 30
0.0
 40
4.9089986019652434
 50
260.0922122197994781
 51
279.7943967788247051
  0
ARC
  5
5605
  8
0
 10
2776.1509334117899925
 20
63.7803755503159806
 30
0.0
 40
0.9832398653651166
 50
79.9673514463836312
 51
100.1690144519690051
  0
ARC
  5
5606
  8
0
 10
2776.1485976307048986
 20
65.7431879032579332
 30
0.0
 40
1.0096484284634311
 50
260.2342125283968244
 51
279.9021533699346946
  0
ARC
  5
5607
  8
0
 10
2772.9009316399519776
 20
63.6054642871747475
 30
0.0
 40
0.9832398653651166
 50
79.9673514463836312
 51
100.1690144519690051
  0
ARC
  5
5608
  8
0
 10
2772.8985958588659742
 20
65.568276640116693
 30
0.0
 40
1.0096484284634311
 50
260.2342125283968244
 51
279.9021533699346946
  0
ARC
  5
5609
  8
0
 10
2769.6509334118532024
 20
63.7803759353873687
 30
0.0
 40
0.9832398653651166
 50
79.9673514463836312
 51
100.1690144519690051
  0
ARC
  5
560A
  8
0
 10
2769.648597630767199
 20
65.7431882883293213
 30
0.0
 40
1.0096484284634311
 50
260.2342125283968244
 51
279.9021533699346946
  0
ARC
  5
560B
  8
0
 10
2766.400933411790902
 20
63.6053982232160706
 30
0.0
 40
0.9832398653651166
 50
79.9673514463836312
 51
100.1690144519690051
  0
ARC
  5
560C
  8
0
 10
2766.3985976307058081
 20
65.5682105761580232
 30
0.0
 40
1.0096484284634311
 50
260.2342125283968244
 51
279.9021533699346946
  0
ARC
  5
560D
  8
0
 10
2763.150933411790902
 20
63.7803755503160517
 30
0.0
 40
0.9832398653651166
 50
79.9673514463836312
 51
100.1690144519690051
  0
ARC
  5
560E
  8
0
 10
2763.1485976307058081
 20
65.7431879032580042
 30
0.0
 40
1.0096484284634311
 50
260.2342125283968244
 51
279.9021533699346946
  0
ARC
  5
560F
  8
0
 10
2759.900933411790902
 20
63.6053982232160706
 30
0.0
 40
0.9832398653651166
 50
79.9673514463836312
 51
100.1690144519690051
  0
ARC
  5
5610
  8
0
 10
2759.8985976307058081
 20
65.5682105761580232
 30
0.0
 40
1.0096484284634311
 50
260.2342125283968244
 51
279.9021533699346946
  0
ARC
  5
5611
  8
0
 10
2756.650933411790902
 20
63.7803755503160517
 30
0.0
 40
0.9832398653651166
 50
79.9673514463836312
 51
100.1690144519690051
  0
ARC
  5
5612
  8
0
 10
2756.6485976307058081
 20
65.7431879032580042
 30
0.0
 40
1.0096484284634311
 50
260.2342125283968244
 51
279.9021533699346946
  0
ARC
  5
5613
  8
0
 10
2756.6504582586908327
 20
63.5616538818160706
 30
0.0
 40
0.9832398653651166
 50
79.9673514463836312
 51
100.1690144519690051
  0
ARC
  5
5614
  8
0
 10
2756.6481224776061936
 20
65.5244662347580231
 30
0.0
 40
1.0096484284634311
 50
260.2342125283968244
 51
279.9021533699346946
  0
ARC
  5
5615
  8
0
 10
2756.6502629092910865
 20
37.9861580848160614
 30
0.0
 40
0.9832398653651166
 50
79.9673514463836312
 51
100.1690144519690051
  0
ARC
  5
5616
  8
0
 10
2756.6479271282059926
 20
39.948970437758021
 30
0.0
 40
1.0096484284634311
 50
260.2342125283968244
 51
279.9021533699346946
  0
ARC
  5
5617
  8
0
 10
2756.6505518120061424
 20
37.767157556234622
 30
0.0
 40
0.9832398653651166
 50
79.9673514463836312
 51
100.1690144519690051
  0
ARC
  5
5618
  8
0
 10
2756.6482160309210485
 20
39.7299699091765675
 30
0.0
 40
1.0096484284634311
 50
260.2342125283968244
 51
279.9021533699346946
  0
ARC
  5
5619
  8
0
 10
2759.9006681733499136
 20
37.9423036749958129
 30
0.0
 40
0.9832398653651166
 50
79.9673514463836312
 51
100.1690144519690051
  0
ARC
  5
561A
  8
0
 10
2759.8983323922648196
 20
39.9051160279377584
 30
0.0
 40
1.0096484284634311
 50
260.2342125283968244
 51
279.9021533699346946
  0
ARC
  5
561B
  8
0
 10
2763.1507687072480621
 20
37.7675044282571477
 30
0.0
 40
0.9832398653651166
 50
79.9673514463836312
 51
100.1690144519690051
  0
ARC
  5
561C
  8
0
 10
2763.1484329261629682
 20
39.7303167811991074
 30
0.0
 40
1.0096484284634311
 50
260.2342125283968244
 51
279.9021533699346946
  0
ARC
  5
561D
  8
0
 10
2766.4008412046268859
 20
37.942646973401267
 30
0.0
 40
0.9832398653651166
 50
79.9673514463836312
 51
100.1690144519690051
  0
ARC
  5
561E
  8
0
 10
2766.398505423541792
 20
39.9054593263432267
 30
0.0
 40
1.0096484284634311
 50
260.2342125283968244
 51
279.9021533699346946
  0
ARC
  5
561F
  8
0
 10
2769.6508938207821302
 20
37.7678372518198771
 30
0.0
 40
0.9832398653651166
 50
79.9673514463836312
 51
100.1690144519690051
  0
ARC
  5
5620
  8
0
 10
2769.6485580396961268
 20
39.7306496047618296
 30
0.0
 40
1.0096484284634311
 50
260.2342125283968244
 51
279.9021533699346946
  0
ARC
  5
5621
  8
0
 10
2772.9009235979751793
 20
37.9429728308550409
 30
0.0
 40
0.9832398653651166
 50
79.9673514463836312
 51
100.1690144519690051
  0
ARC
  5
5622
  8
0
 10
2772.8985878168891759
 20
39.9057851837969935
 30
0.0
 40
1.0096484284634311
 50
260.2342125283968244
 51
279.9021533699346946
  0
ARC
  5
5623
  8
0
 10
2776.150933411790902
 20
37.76815025301606
 30
0.0
 40
0.9832398653651166
 50
79.9673514463836312
 51
100.1690144519690051
  0
ARC
  5
5624
  8
0
 10
2776.1485976307058081
 20
39.7309626059580125
 30
0.0
 40
1.0096484284634311
 50
260.2342125283968244
 51
279.9021533699346946
  0
ARC
  5
5625
  8
0
 10
2779.4009236016759132
 20
37.9432830353544688
 30
0.0
 40
0.9832398653651166
 50
79.9673514463836312
 51
100.1690144519690051
  0
ARC
  5
5626
  8
0
 10
2779.3985878205908193
 20
39.9060953882964213
 30
0.0
 40
1.0096484284634311
 50
260.2342125283968244
 51
279.9021533699346946
  0
ARC
  5
5627
  8
0
 10
2782.650933411790902
 20
37.76815025301606
 30
0.0
 40
0.9832398653651166
 50
79.9673514463836312
 51
100.1690144519690051
  0
ARC
  5
5628
  8
0
 10
2782.6485976307058081
 20
39.7309626059580125
 30
0.0
 40
1.0096484284634311
 50
260.2342125283968244
 51
279.9021533699346946
  0
ARC
  5
5629
  8
0
 10
2785.900841216200206
 20
37.9436088484362202
 30
0.0
 40
0.9832398653651166
 50
79.9673514463836312
 51
100.1690144519690051
  0
ARC
  5
562A
  8
0
 10
2785.8985054351142026
 20
39.9064212013781727
 30
0.0
 40
1.0096484284634311
 50
260.2342125283968244
 51
279.9021533699346946
  0
ARC
  5
562B
  8
0
 10
2789.1483540995491239
 20
37.7655549380465132
 30
0.0
 40
0.9832398653651166
 50
79.9673514463836312
 51
100.1690144519690051
  0
ARC
  5
562C
  8
0
 10
2789.1460183184631205
 20
39.7283672909884729
 30
0.0
 40
1.0096484284634311
 50
260.2342125283968244
 51
279.9021533699346946
  0
ARC
  5
562D
  8
0
 10
2792.400933411790902
 20
37.9431275800160606
 30
0.0
 40
0.9832398653651166
 50
79.9673514463836312
 51
100.1690144519690051
  0
ARC
  5
562E
  8
0
 10
2792.3985976307058081
 20
39.9059399329580202
 30
0.0
 40
1.0096484284634311
 50
260.2342125283968244
 51
279.9021533699346946
  0
ARC
  5
562F
  8
0
 10
2795.650933411790902
 20
37.76815025301606
 30
0.0
 40
0.9832398653651166
 50
79.9673514463836312
 51
100.1690144519690051
  0
ARC
  5
5630
  8
0
 10
2795.6485976307058081
 20
39.7309626059580125
 30
0.0
 40
1.0096484284634311
 50
260.2342125283968244
 51
279.9021533699346946
  0
ARC
  5
5631
  8
0
 10
2779.4009316364481492
 20
63.6053328486639273
 30
0.0
 40
0.9832398653651166
 50
79.9673514463836312
 51
100.1690144519690051
  0
ARC
  5
5632
  8
0
 10
2779.3985958553621458
 20
65.568145201605887
 30
0.0
 40
1.0096484284634311
 50
260.2342125283968244
 51
279.9021533699346946
  0
ARC
  5
5633
  8
0
 10
2782.6509334118518382
 20
63.780375935530877
 30
0.0
 40
0.9832398653651166
 50
79.9673514463836312
 51
100.1690144519690051
  0
ARC
  5
5634
  8
0
 10
2782.648597630767199
 20
65.7431882884728367
 30
0.0
 40
1.0096484284634311
 50
260.2342125283968244
 51
279.9021533699346946
  0
ARC
  5
5635
  8
0
 10
2785.900933411790902
 20
63.6053982232160706
 30
0.0
 40
0.9832398653651166
 50
79.9673514463836312
 51
100.1690144519690051
  0
ARC
  5
5636
  8
0
 10
2785.8985976307058081
 20
65.5682105761580232
 30
0.0
 40
1.0096484284634311
 50
260.2342125283968244
 51
279.9021533699346946
  0
ARC
  5
5637
  8
0
 10
2789.1509334118518382
 20
63.7803759354949875
 30
0.0
 40
0.9832398653651166
 50
79.9673514463836312
 51
100.1690144519690051
  0
ARC
  5
5638
  8
0
 10
2789.148597630767199
 20
65.7431882884369401
 30
0.0
 40
1.0096484284634311
 50
260.2342125283968244
 51
279.9021533699346946
  0
ARC
  5
5639
  8
0
 10
2792.4009333414560388
 20
63.6053855411025566
 30
0.0
 40
0.9832398653651166
 50
79.9673514463836312
 51
100.1690144519690051
  0
ARC
  5
563A
  8
0
 10
2792.3985975603709448
 20
65.5681978940445163
 30
0.0
 40
1.0096484284634311
 50
260.2342125283968244
 51
279.9021533699346946
  0
ARC
  5
563B
  8
0
 10
2795.6509334118518382
 20
63.7803759354830291
 30
0.0
 40
0.9832398653651166
 50
79.9673514463836312
 51
100.1690144519690051
  0
ARC
  5
563C
  8
0
 10
2795.648597630767199
 20
65.7431882884249887
 30
0.0
 40
1.0096484284634311
 50
260.2342125283968244
 51
279.9021533699346946
  0
ARC
  5
563D
  8
0
 10
2753.2633278851380965
 20
59.2433698375017173
 30
0.0
 40
0.3097289450787024
 50
326.094627453723092
 51
33.7573041601069619
  0
ARC
  5
563E
  8
0
 10
2753.721453653385197
 20
59.2427778743458617
 30
0.0
 40
0.2647130677605371
 50
139.2765836237740018
 51
220.5753479900645004
  0
ARC
  5
563F
  8
0
 10
2752.5287291088429811
 20
56.7409863011180988
 30
0.0
 40
0.2391261090231763
 50
314.3472617836083032
 51
46.6433807323552969
  0
ARC
  5
5640
  8
0
 10
2752.8662278900751517
 20
56.7439040463162669
 30
0.0
 40
0.2434481089392044
 50
135.3961180386332046
 51
225.5945244773444074
  0
ARC
  5
5641
  8
0
 10
2753.2930856618399957
 20
54.2400705650406678
 30
0.0
 40
0.2799811540869643
 50
322.5913765424745066
 51
38.62669596613339
  0
ARC
  5
5642
  8
0
 10
2753.7464639944978444
 20
54.2448900167366119
 30
0.0
 40
0.2897333533199839
 50
144.0840371388947005
 51
217.1340353697135868
  0
ARC
  5
5643
  8
0
 10
2751.5243756159097757
 20
59.2418322404159596
 30
0.0
 40
0.2141423782160321
 50
306.6306413685558141
 51
53.9025709713407366
  0
ARC
  5
5644
  8
0
 10
2751.77962983248608
 20
59.243019986542798
 30
0.0
 40
0.2149283397465905
 50
126.9142521228952063
 51
233.6189602170032913
  0
ARC
  5
5645
  8
0
 10
2752.4600242787842035
 20
51.7508087837046205
 30
0.0
 40
0.3078217101580871
 50
325.0535653788044215
 51
33.1927728477105575
  0
ARC
  5
5646
  8
0
 10
2752.9777779427367932
 20
51.7428846773862787
 30
0.0
 40
0.3143478582684791
 50
145.8542485898578036
 51
212.3920896366452951
  0
ARC
  5
5647
  8
0
 10
2753.2887266780030586
 20
49.2415239843538828
 30
0.0
 40
0.2843304644919012
 50
322.892350644964381
 51
37.5636225111484592
  0
ARC
  5
5648
  8
0
 10
2753.741838437100796
 20
49.2433269783183576
 30
0.0
 40
0.2851063566488477
 50
143.0111934353317054
 51
217.4447797207859026
  0
ARC
  5
5649
  8
0
 10
2752.5267675077461718
 20
46.7418039565497381
 30
0.0
 40
0.2410834305798748
 50
314.544811333541702
 51
45.876737650510421
  0
ARC
  5
564A
  8
0
 10
2752.8642046902677976
 20
46.743045295304178
 30
0.0
 40
0.2414203923753701
 50
134.626603002063689
 51
225.7949459820069933
  0
ARC
  5
564B
  8
0
 10
2751.5217080768920823
 20
44.2431686058868365
 30
0.0
 40
0.2168105693818809
 50
306.9856455956859804
 51
52.3634477932505789
  0
ARC
  5
564C
  8
0
 10
2751.7770614119408492
 20
44.2417181241674484
 30
0.0
 40
0.2123607104034899
 50
125.3805709621892959
 51
233.9685224267576018
  0
ARC
  5
564D
  8
0
 10
2753.3021993754300638
 20
44.2371944831850783
 30
0.0
 40
0.2710142251604877
 50
321.9038466549026225
 51
40.934184452893021
  0
ARC
  5
564E
  8
0
 10
2753.7569445741951313
 20
44.248459230499769
 30
0.0
 40
0.3002635912591084
 50
146.3683378992434996
 51
216.4696932085562082
  0
ARC
  5
564F
  8
0
 10
2800.171939948023919
 20
44.23895930753865
 30
0.0
 40
0.2355795156110416
 50
314.169797546384018
 51
48.2765888013241806
  0
ARC
  5
5650
  8
0
 10
2800.5223955514761656
 20
44.2464422328602609
 30
0.0
 40
0.256608634632243
 50
139.0013976828138027
 51
223.4449886649040877
  0
ARC
  5
5651
  8
0
 10
2798.6025762718390979
 20
44.2461203861984913
 30
0.0
 40
0.3845859829837182
 50
332.7424261528960869
 51
26.0223275895829786
  0
ARC
  5
5652
  8
0
 10
2799.2676552304210418
 20
44.2389508518669103
 30
0.0
 40
0.3647018473320476
 50
151.1642875528060017
 51
207.6004661896718062
  0
ARC
  5
5653
  8
0
 10
2799.3126995154148062
 20
46.741228412218689
 30
0.0
 40
0.2855393986567371
 50
323.1499652947541108
 51
37.4516176263029479
  0
ARC
  5
5654
  8
0
 10
2799.7832757245341782
 20
46.7436988665313393
 30
0.0
 40
0.2979633555918265
 50
144.939224568347214
 51
215.6623583526987886
  0
ARC
  5
5655
  8
0
 10
2798.535621648734832
 20
49.2453198260641329
 30
0.0
 40
0.4448469970655927
 50
336.787016522677277
 51
22.4027934880484203
  0
ARC
  5
5656
  8
0
 10
2799.2723776263528634
 20
49.2401106966213291
 30
0.0
 40
0.3694260149026667
 50
151.7692605377235964
 51
207.4205494729901034
  0
ARC
  5
5657
  8
0
 10
2799.3059825296300005
 20
51.7434499315451788
 30
0.0
 40
0.2922553457572994
 50
323.5912029818908877
 51
35.9105371677619516
  0
ARC
  5
5658
  8
0
 10
2799.7761954273278207
 20
51.7414053683456814
 30
0.0
 40
0.2908825373632905
 50
143.3933384392597929
 51
216.108401710386687
  0
ARC
  5
5659
  8
0
 10
2798.626950703339844
 20
54.24008433681459
 30
0.0
 40
0.3602003710731089
 50
331.8201996648992917
 51
29.0262217008151318
  0
ARC
  5
565A
  8
0
 10
2799.3452803485370168
 20
54.2453903176584689
 30
0.0
 40
0.4375241254536861
 50
157.2114538072314929
 51
203.6349675584723968
  0
ARC
  5
565B
  8
0
 10
2799.3110749422130539
 20
56.7417657140091265
 30
0.0
 40
0.2871621430203905
 50
323.2585743573931154
 51
37.0703741443515966
  0
ARC
  5
565C
  8
0
 10
2799.8542599064230672
 20
56.7433249944000124
 30
0.0
 40
0.3578541829423717
 50
151.3564280096647963
 51
208.9725204920871136
  0
ARC
  5
565D
  8
0
 10
2798.6294729678811564
 20
59.2442574144204031
 30
0.0
 40
0.3576987327862115
 50
330.3004675198802147
 51
27.9439485059289687
  0
ARC
  5
565E
  8
0
 10
2799.2958890138997958
 20
59.2340468816085419
 30
0.0
 40
0.3929629384519879
 50
153.093330452782709
 51
205.1510855730273022
  0
ARC
  5
565F
  8
0
 10
2800.1658926216350665
 20
59.2414567032601767
 30
0.0
 40
0.2415985048951103
 50
314.7858047746706802
 51
45.8679605649883086
  0
ARC
  5
5660
  8
0
 10
2800.5150456044530074
 20
59.2434487050880279
 30
0.0
 40
0.249230443822484
 50
136.5464827769415876
 51
224.1072825627389875
  0
CIRCLE
  5
5661
  8
0
 10
2759.3607478043618357
 20
51.7424676865679913
 30
0.0
 40
1.4399999999999991
  0
CIRCLE
  5
5662
  8
0
 10
2759.3607478043618357
 20
51.7424676865679913
 30
0.0
 40
0.8449999999999999
  0
ENDSEC
  0
EOF
