  0
SECTION
  2
HEADER
  9
$ACADVER
  1
AC1009
  9
$INSBASE
 10
4380.9926105528220432
 20
126.6974755321964068
 30
0.0
  9
$EXTMIN
 10
4372.167259896206815
 20
97.6667425997493694
 30
0.0
  9
$EXTMAX
 10
4389.8179612094372715
 20
126.7028940319808044
 30
0.0
  9
$LIMMIN
 10
0.0
 20
0.0
  9
$LIMMAX
 10
11.6929133858000007
 20
8.2677165353999982
  9
$ORTHOMODE
 70
     0
  9
$REGENMODE
 70
     1
  9
$FILLMODE
 70
     1
  9
$QTEXTMODE
 70
     0
  9
$MIRRTEXT
 70
     0
  9
$DRAGMODE
 70
     2
  9
$LTSCALE
 40
0.6431102362
  9
$OSMODE
 70
  4095
  9
$ATTMODE
 70
     1
  9
$TEXTSIZE
 40
0.2
  9
$TRACEWID
 40
0.05
  9
$TEXTSTYLE
  7
STANDARD
  9
$CLAYER
  8
0
  9
$CELTYPE
  6
BYLAYER
  9
$CECOLOR
 62
   256
  9
$DIMSCALE
 40
1.0
  9
$DIMASZ
 40
0.1875
  9
$DIMEXO
 40
0.0625
  9
$DIMDLI
 40
0.4443307087
  9
$DIMRND
 40
0.0
  9
$DIMDLE
 40
0.0
  9
$DIMEXE
 40
0.125
  9
$DIMTP
 40
0.01
  9
$DIMTM
 40
0.01
  9
$DIMTXT
 40
2.0
  9
$DIMCEN
 40
0.1052362205
  9
$DIMTSZ
 40
0.0
  9
$DIMTOL
 70
     1
  9
$DIMLIM
 70
     0
  9
$DIMTIH
 70
     1
  9
$DIMTOH
 70
     1
  9
$DIMSE1
 70
     0
  9
$DIMSE2
 70
     0
  9
$DIMTAD
 70
     0
  9
$DIMZIN
 70
     0
  9
$DIMBLK
  1

  9
$DIMASO
 70
     1
  9
$DIMSHO
 70
     1
  9
$DIMPOST
  1
\X
  9
$DIMAPOST
  1

  9
$DIMALT
 70
     1
  9
$DIMALTD
 70
     2
  9
$DIMALTF
 40
25.3999999999999986
  9
$DIMLFAC
 40
1.0
  9
$DIMTOFL
 70
     0
  9
$DIMTVP
 40
0.0
  9
$DIMTIX
 70
     0
  9
$DIMSOXD
 70
     0
  9
$DIMSAH
 70
     0
  9
$DIMBLK1
  1

  9
$DIMBLK2
  1

  9
$DIMSTYLE
  2
STANDARD
  9
$DIMCLRD
 70
     0
  9
$DIMCLRE
 70
     0
  9
$DIMCLRT
 70
     0
  9
$DIMTFAC
 40
1.0
  9
$DIMGAP
 40
0.09
  9
$LUNITS
 70
     2
  9
$LUPREC
 70
     4
  9
$SKETCHINC
 40
0.1
  9
$FILLETRAD
 40
0.0
  9
$AUNITS
 70
     0
  9
$AUPREC
 70
     0
  9
$MENU
  1
.
  9
$ELEVATION
 40
0.0
  9
$PELEVATION
 40
0.0
  9
$THICKNESS
 40
0.0
  9
$LIMCHECK
 70
     0
  9
$BLIPMODE
 70
     0
  9
$CHAMFERA
 40
0.0
  9
$CHAMFERB
 40
0.0
  9
$SKPOLY
 70
     0
  9
$TDCREATE
 40
2458060.468368056230247
  9
$TDUPDATE
 40
2459506.5631249998696148
  9
$TDINDWG
 40
0.3572640046
  9
$TDUSRTIMER
 40
0.3572640046
  9
$USRTIMER
 70
     1
  9
$ANGBASE
 50
0.0
  9
$ANGDIR
 70
     0
  9
$PDMODE
 70
     0
  9
$PDSIZE
 40
0.3125
  9
$PLINEWID
 40
0.0
  9
$COORDS
 70
     1
  9
$SPLFRAME
 70
     0
  9
$SPLINETYPE
 70
     6
  9
$SPLINESEGS
 70
     8
  9
$ATTDIA
 70
     1
  9
$ATTREQ
 70
     1
  9
$HANDLING
 70
     1
  9
$HANDSEED
  5
B196
  9
$SURFTAB1
 70
     6
  9
$SURFTAB2
 70
     6
  9
$SURFTYPE
 70
     6
  9
$SURFU
 70
     6
  9
$SURFV
 70
     6
  9
$UCSNAME
  2

  9
$UCSORG
 10
0.0
 20
0.0
 30
0.0
  9
$UCSXDIR
 10
1.0
 20
0.0
 30
0.0
  9
$UCSYDIR
 10
0.0
 20
1.0
 30
0.0
  9
$PUCSNAME
  2

  9
$PUCSORG
 10
0.0
 20
0.0
 30
0.0
  9
$PUCSXDIR
 10
1.0
 20
0.0
 30
0.0
  9
$PUCSYDIR
 10
0.0
 20
1.0
 30
0.0
  9
$USERI1
 70
     0
  9
$USERI2
 70
     0
  9
$USERI3
 70
     0
  9
$USERI4
 70
     0
  9
$USERI5
 70
     0
  9
$USERR1
 40
0.0
  9
$USERR2
 40
0.0
  9
$USERR3
 40
0.0
  9
$USERR4
 40
0.0
  9
$USERR5
 40
0.0
  9
$WORLDVIEW
 70
     1
  9
$SHADEDGE
 70
     3
  9
$SHADEDIF
 70
    70
  9
$TILEMODE
 70
     1
  9
$MAXACTVP
 70
    64
  9
$PLIMCHECK
 70
     0
  9
$PEXTMIN
 10
1.0000000000000000E+20
 20
1.0000000000000000E+20
 30
1.0000000000000000E+20
  9
$PEXTMAX
 10
-1.0000000000000000E+20
 20
-1.0000000000000000E+20
 30
-1.0000000000000000E+20
  9
$PLIMMIN
 10
0.0
 20
0.0
  9
$PLIMMAX
 10
12.0
 20
9.0
  9
$UNITMODE
 70
     0
  9
$VISRETAIN
 70
     1
  9
$PLINEGEN
 70
     0
  9
$PSLTSCALE
 70
     1
  0
ENDSEC
  0
SECTION
  2
TABLES
  0
TABLE
  2
VPORT
 70
     1
  0
VPORT
  2
*ACTIVE
 70
     0
 10
0.0
 20
0.0
 11
1.0
 21
1.0
 12
115.9044423393143006
 22
7.8771865027833874
 13
0.0
 23
0.0
 14
1.0
 24
1.0
 15
0.0
 25
0.0
 16
0.0
 26
0.0
 36
122.0237731519760018
 17
4265.00634765625
 27
104.3040122985839986
 37
0.0
 40
29.2833904308707389
 41
1.67063492063492
 42
50.0
 43
0.0
 44
0.0
 50
0.0
 51
0.0
 71
     0
 72
   100
 73
     1
 74
     1
 75
     0
 76
     0
 77
     0
 78
     0
  0
ENDTAB
  0
TABLE
  2
LTYPE
 70
     2
  0
LTYPE
  2
CONTINUOUS
 70
     0
  3
Solid line
 72
    65
 73
     0
 40
0.0
  0
LTYPE
  2
PHANTOM2
 70
     0
  3
___ _ _ ___ _ _ ___ _ _ ___ _ _
 72
    65
 73
     6
 40
1.25
 49
0.625
 49
-0.125
 49
0.125
 49
-0.125
 49
0.125
 49
-0.125
  0
ENDTAB
  0
TABLE
  2
LAYER
 70
     2
  0
LAYER
  2
0
 70
     0
 62
   255
  6
CONTINUOUS
  0
LAYER
  2
DEFPOINTS
 70
     0
 62
     7
  6
CONTINUOUS
  0
ENDTAB
  0
TABLE
  2
STYLE
 70
     1
  0
STYLE
  2
STANDARD
 70
     0
 40
0.0
 41
0.8
 50
0.0
 71
     0
 42
0.2
  3
txt
  4

  0
ENDTAB
  0
TABLE
  2
VIEW
 70
     0
  0
ENDTAB
  0
TABLE
  2
UCS
 70
     0
  0
ENDTAB
  0
TABLE
  2
APPID
 70
    10
  0
APPID
  2
ACAD
 70
     0
  0
APPID
  2
ACAD_MLEADERVER
 70
     0
  0
APPID
  2
ACAD_EXEMPT_FROM_CAD_STANDARDS
 70
     0
  0
APPID
  2
ACAD_NAV_VCDISPLAY
 70
     0
  0
APPID
  2
ACAECLAYERSTANDARD
 70
     0
  0
APPID
  2
ACCMTRANSPARENCY
 70
     0
  0
APPID
  2
ACAD_DSTYLE_DIMJAG
 70
     0
  0
APPID
  2
ACAD_DSTYLE_DIMTALN
 70
     0
  0
APPID
  2
ACDBATTR
 70
     0
  0
APPID
  2
DCO15
 70
     0
  0
ENDTAB
  0
TABLE
  2
DIMSTYLE
 70
     1
  0
DIMSTYLE
  2
STANDARD
 70
     0
  3

  4

  5

  6

  7

 40
1.0
 41
0.1875
 42
0.0625
 43
0.38
 44
0.125
 45
0.0
 46
0.0
 47
0.01
 48
0.01
140
0.15625
141
0.09
142
0.0
143
25.3999999999999986
144
1.0
145
0.0
146
1.0
147
0.09
 71
     1
 72
     0
 73
     1
 74
     1
 75
     0
 76
     0
 77
     0
 78
     4
170
     0
171
     2
172
     0
173
     0
174
     0
175
     0
176
     0
177
     0
178
     0
  0
ENDTAB
  0
ENDSEC
  0
SECTION
  2
BLOCKS
  0
BLOCK
  8
0
  2
$MODEL_SPACE
 70
     0
 10
0.0
 20
0.0
 30
0.0
  3
$MODEL_SPACE
  1

  0
ENDBLK
  5
21
  8
0
  0
BLOCK
 67
     1
  8
0
  2
$PAPER_SPACE
 70
     0
 10
0.0
 20
0.0
 30
0.0
  3
$PAPER_SPACE
  1

  0
ENDBLK
  5
1D
 67
     1
  8
0
  0
ENDSEC
  0
SECTION
  2
ENTITIES
  0
ATTDEF
  5
9852
  8
DEFPOINTS
 10
4380.9889137793488771
 20
126.7018940319807001
 30
0.0
 40
0.001
  1
K-32820
  3

  2
MODELNUMBER
 70
     0
1001
ACDBATTR
1070
     0
1070
     1
  0
ATTDEF
  5
9853
  8
DEFPOINTS
 10
4380.9889137793488771
 20
126.700227365314106
 30
0.0
 40
0.001
  1

  3

  2
TRADENAME
 70
     0
1001
ACDBATTR
1070
     0
1070
     1
  0
ATTDEF
  5
9854
  8
DEFPOINTS
 10
4380.9889137793488771
 20
126.6985606986473982
 30
0.0
 40
0.001
  1
TOILET
  3

  2
PRODUCT
 70
     0
1001
ACDBATTR
1070
     0
1070
     1
  0
ARC
  5
B012
  8
0
 10
4349.5871037184861052
 20
122.2234751642737933
 30
0.0
 40
26.9048756468316483
 50
343.7944157873820927
 51
351.9175559174576051
  0
LINE
  5
B013
  8
0
 10
4379.0220752779514441
 20
115.7281048353466986
 30
0.0
 11
4378.9465422999001021
 21
115.7281044149466993
 31
0.0
  0
LINE
  5
B014
  8
0
 10
4379.0126184878481581
 20
116.811745640338998
 30
0.0
 11
4379.0220752779514441
 21
115.7281048353466986
 31
0.0
  0
LINE
  5
B015
  8
0
 10
4379.0126184878781714
 20
116.811745635478303
 30
0.0
 11
4379.0220752779514441
 21
115.7281048353466986
 31
0.0
  0
ARC
  5
B016
  8
0
 10
4378.5163589895528276
 20
116.8060939696137979
 30
0.0
 40
0.4962916793886211
 50
0.6524870201963667
 51
87.5491773985539083
  0
ARC
  5
B017
  8
0
 10
4378.9465511096459522
 20
115.7623208009007953
 30
0.0
 40
0.0342163870882467
 50
246.6790265703772889
 51
269.9852479664713201
  0
ARC
  5
B018
  8
0
 10
4378.9236015603437409
 20
115.2855063438772021
 30
0.0
 40
0.4454927611010737
 50
88.7904533124578847
 51
96.033146976407366
  0
LINE
  5
B019
  8
0
 10
4378.6913848691001476
 20
115.7313980586467039
 30
0.0
 11
4378.242853697600367
 21
115.7313980586467039
 31
0.0
  0
ARC
  5
B01A
  8
0
 10
4378.8600515995967726
 20
119.7815051619417943
 30
0.0
 40
4.0536175983444673
 50
267.6153093448323261
 51
267.726905176220896
  0
ARC
  5
B01B
  8
0
 10
4378.700764308468024
 20
110.416974942754706
 30
0.0
 40
5.3141024989332593
 50
88.2251720845197838
 51
90.0160611760781251
  0
ARC
  5
B01C
  8
0
 10
4378.8712777920909502
 20
115.0445370053645036
 30
0.0
 40
0.6840167482919948
 50
89.5392287975985397
 51
90.4964761888570877
  0
LINE
  5
B01D
  8
0
 10
4377.4636321172492899
 20
115.7281048353466986
 30
0.0
 11
4377.5391650952997225
 21
115.7281044149466993
 31
0.0
  0
ARC
  5
B01E
  8
0
 10
4377.969348405646997
 20
116.8060939696137979
 30
0.0
 40
0.4962916793886256
 50
87.5491773980322989
 51
179.6905843765435975
  0
ARC
  5
B01F
  8
0
 10
4377.5391562855529628
 20
115.7623208009007953
 30
0.0
 40
0.0342163870882469
 50
270.0147520335286799
 51
293.3209734296236775
  0
ARC
  5
B020
  8
0
 10
4377.5621058348560837
 20
115.2855063438772021
 30
0.0
 40
0.4454927611010737
 50
83.9668530235926625
 51
91.209546687542101
  0
LINE
  5
B021
  8
0
 10
4377.7943225260996769
 20
115.7313980586467039
 30
0.0
 11
4378.242853697600367
 21
115.7313980586467039
 31
0.0
  0
ARC
  5
B022
  8
0
 10
4377.625655795603052
 20
119.7815051619417943
 30
0.0
 40
4.0536175983444673
 50
272.2730948237792177
 51
272.3846906551676739
  0
ARC
  5
B023
  8
0
 10
4377.7849430867327101
 20
110.416974942754706
 30
0.0
 40
5.3141024989332593
 50
89.9839388239219033
 51
91.7748279154802162
  0
ARC
  5
B024
  8
0
 10
4377.6144296031088743
 20
115.0445370053663936
 30
0.0
 40
0.6840167482901545
 50
89.5035238111428981
 51
90.4607712024014745
  0
LINE
  5
B025
  8
0
 10
4377.4730639630352016
 20
116.8087740911569057
 30
0.0
 11
4377.4636321172492899
 21
115.7281048353466986
 31
0.0
  0
ARC
  5
B026
  8
0
 10
4377.5905051552526857
 20
115.7232778163297979
 30
0.0
 40
0.1269648293224247
 50
116.030997884528702
 51
177.8211723056612072
  0
ARC
  5
B027
  8
0
 10
4378.8951782597841884
 20
115.7232627034924946
 30
0.0
 40
0.1269893675091976
 50
2.1852301179697129
 51
63.9618720597025288
  0
LINE
  5
B028
  8
0
 10
4378.2428550814001937
 20
115.8424725891466949
 30
0.0
 11
4377.5347857075003049
 21
115.8373629206466973
 31
0.0
  0
LINE
  5
B029
  8
0
 10
4378.2428523138014498
 20
115.8424725891466949
 30
0.0
 11
4378.9509226757008946
 21
115.8373629206466973
 31
0.0
  0
LINE
  5
B02A
  8
0
 10
4384.39261068464657
 20
115.2197729396963979
 30
0.0
 11
4377.592610420998426
 21
115.2197729396963979
 31
0.0
  0
LINE
  5
B02B
  8
0
 10
4378.5375813551927422
 20
117.3019316872464941
 30
0.0
 11
4377.9905707712869116
 21
117.3019316872464941
 31
0.0
  0
ARC
  5
B02C
  8
0
 10
4379.7991651023430677
 20
107.9920532084350953
 30
0.0
 40
18.6203134168805704
 50
97.768798928437306
 51
113.6100704182632057
  0
ARC
  5
B02D
  8
0
 10
4381.1424773856424508
 20
97.5090888143316477
 30
0.0
 40
29.1887714585455207
 50
90.2941807520143414
 51
97.599862893054393
  0
ARC
  5
B02E
  8
0
 10
4413.0809692663624446
 20
122.0414404185827948
 30
0.0
 40
40.9143733779928098
 50
175.9158173332091053
 51
179.6735724023203886
  0
ARC
  5
B02F
  8
0
 10
4392.3747221497087594
 20
123.2052254982178994
 30
0.0
 40
20.2288830616576796
 50
182.6369866751153097
 51
188.8943209928195017
  0
ARC
  5
B030
  8
0
 10
4381.0674495137418489
 20
138.0460882129983986
 30
0.0
 40
20.1946263924002487
 50
245.5254625808377966
 51
269.7876679501010813
  0
ARC
  5
B031
  8
0
 10
4372.3913499239497469
 20
124.9428791323592947
 30
0.0
 40
0.1215030541388486
 50
114.2006657165259043
 51
174.0627372043533967
  0
ARC
  5
B032
  8
0
 10
4372.9302757434297746
 20
120.1638054075404938
 30
0.0
 40
0.5480129467107731
 50
189.0517882303898034
 51
245.2726778027951013
  0
LINE
  5
B033
  8
0
 10
4377.4310424493723986
 20
115.7148050051962969
 30
0.0
 11
4377.436213931671773
 21
115.641461491896294
 31
0.0
  0
LINE
  5
B034
  8
0
 10
4377.436213931671773
 20
115.641461491896294
 30
0.0
 11
4377.4394746137722905
 21
115.3160153238963943
 31
0.0
  0
LINE
  5
B035
  8
0
 10
4377.4768028766729913
 20
115.7281018155964034
 30
0.0
 11
4377.4692512315723434
 21
115.6218416463963052
 31
0.0
  0
LINE
  5
B036
  8
0
 10
4377.4692512315723434
 20
115.6218416463963052
 30
0.0
 11
4377.4665214046171968
 21
115.2758154613788975
 31
0.0
  0
LINE
  5
B037
  8
0
 10
4377.4385552851972534
 20
115.407772800607006
 30
0.0
 11
4377.4675624262199563
 21
115.4077728124404985
 31
0.0
  0
ARC
  5
B038
  8
0
 10
6418.4706392967800639
 20
294.0203606519339132
 30
0.0
 40
2048.8505539376428715
 50
184.9987956560038072
 51
185.0021422188403051
  0
ARC
  5
B039
  8
0
 10
4377.5926176435141315
 20
115.3897798774387979
 30
0.0
 40
0.1700069378958918
 50
185.0021422188403051
 51
269.9975658661124953
  0
ARC
  5
B03A
  8
0
 10
4377.3231758870688282
 20
115.4866730273759003
 30
0.0
 40
0.0899643945611873
 50
4.7810269135655963
 51
89.8462567541876069
  0
ARC
  5
B03B
  8
0
 10
4377.1593139806509498
 20
54.4201001278034582
 30
0.0
 40
61.1567571417095692
 50
89.8462567541876069
 51
90.1424351525755441
  0
ARC
  5
B03C
  8
0
 10
4377.0036178583395667
 20
117.0500910926468947
 30
0.0
 40
1.4734273505851929
 50
267.7768594068023162
 51
270.1424351525755014
  0
ARC
  5
B03D
  8
0
 10
4376.951345325532202
 20
115.7035760063160978
 30
0.0
 40
0.1258980205137979
 50
254.6300245971870879
 51
267.7768594068023162
  0
ARC
  5
B03E
  8
0
 10
4376.9192442055837091
 20
115.5873385100757957
 30
0.0
 40
0.0053113514265249
 50
210.1796269605077896
 51
256.185285278482695
  0
LINE
  5
B03F
  8
0
 10
4376.9078514359389374
 20
115.6816525567312937
 30
0.0
 11
4376.9146527886732656
 21
115.5846684267962985
 31
0.0
  0
LINE
  5
B040
  8
0
 10
4376.8757500690817324
 20
115.7116491377963001
 30
0.0
 11
4376.7629337584403402
 21
115.7116490933032935
 31
0.0
  0
ARC
  5
B041
  8
0
 10
4376.875281472593997
 20
115.6789724503384065
 30
0.0
 40
0.0326800471932153
 50
4.7041375832313097
 51
89.1784124005948655
  0
ARC
  5
B042
  8
0
 10
4376.7623135977155471
 20
115.4367749012927931
 30
0.0
 40
0.2748748916011817
 50
89.870731655165855
 51
147.2212716687089085
  0
ARC
  5
B043
  8
0
 10
4386.0897043941649827
 20
109.0755969970973069
 30
0.0
 40
11.5648122615605899
 50
145.7424429954766083
 51
150.3574068558259
  0
ARC
  5
B044
  8
0
 10
4376.5970223157728469
 20
114.5297757322267955
 30
0.0
 40
0.6185583382880743
 50
154.5673432031661889
 51
175.1817073733323014
  0
ARC
  5
B045
  8
0
 10
4374.5630878051670152
 20
114.607798397858204
 30
0.0
 40
1.4178017339041371
 50
348.8800133119727889
 51
358.9465592266161025
  0
ARC
  5
B046
  8
0
 10
4374.8329763880210521
 20
114.6655195552847033
 30
0.0
 40
1.1691755086473059
 50
333.7316037206244914
 51
343.5459599122349914
  0
LINE
  5
B047
  8
0
 10
4377.0006159480717542
 20
115.7209423862963007
 30
0.0
 11
4377.3810663857702821
 21
115.7209425462962997
 31
0.0
  0
LINE
  5
B048
  8
0
 10
4376.9406097343717192
 20
115.5782644349962993
 30
0.0
 11
4376.9406097065711947
 21
115.6616425357964033
 31
0.0
  0
ARC
  5
B049
  8
0
 10
4377.0002714178681344
 20
115.6612805717776951
 30
0.0
 40
0.0596628092928533
 50
89.6691366606782339
 51
179.6523942122132951
  0
LINE
  5
B04A
  8
0
 10
4377.3810663857721011
 20
115.7209425462962997
 30
0.0
 11
4377.4310424493723986
 21
115.7148050051962969
 31
0.0
  0
ARC
  5
B04B
  8
0
 10
6304.0340087049116846
 20
-932.3274383167075712
 30
0.0
 40
2193.8284858832698774
 50
151.5097759922431919
 51
151.5330708820889072
  0
ARC
  5
B04C
  8
0
 10
4386.0878223313929993
 20
107.9555101046715038
 30
0.0
 40
11.9283591117378407
 50
153.036772658658208
 51
175.6427244201678946
  0
ARC
  5
B04D
  8
0
 10
4386.5589718967994486
 20
108.0788153366191011
 30
0.0
 40
12.3897957285788607
 50
176.3768486125925108
 51
202.3135104654072052
  0
ARC
  5
B04E
  8
0
 10
4389.31381393006086
 20
109.209417332708
 30
0.0
 40
15.3676163245490098
 50
202.3135104654072052
 51
215.534378748728102
  0
ARC
  5
B04F
  8
0
 10
4383.4260981692323185
 20
105.0395081987916939
 30
0.0
 40
8.1529228386945345
 50
215.7350548767423106
 51
231.8379848544209949
  0
ARC
  5
B050
  8
0
 10
4375.92814584964799
 20
114.4704006525756057
 30
0.0
 40
0.1116542246450957
 50
94.3575202003747791
 51
145.4564485117234085
  0
ARC
  5
B051
  8
0
 10
4386.0621383872039587
 20
107.9692337090702949
 30
0.0
 40
12.1565789157781605
 50
153.8606892042820959
 51
167.2842930605565073
  0
ARC
  5
B052
  8
0
 10
4386.2249488156903681
 20
107.927017745101594
 30
0.0
 40
12.3246897620668605
 50
167.2594505120148938
 51
175.7052826671068999
  0
ARC
  5
B053
  8
0
 10
4386.2474856011504016
 20
107.9237135782920944
 30
0.0
 40
12.3474108082180205
 50
175.6978248515571863
 51
179.3606323356787868
  0
ARC
  5
B054
  8
0
 10
4386.1936575704239658
 20
108.0762210332001985
 30
0.0
 40
12.2928228244693596
 50
180.0686304812763865
 51
194.5680777310955136
  0
ARC
  5
B055
  8
0
 10
4388.3934224871427432
 20
108.6875901015488068
 30
0.0
 40
14.5756924711893099
 50
194.7190485466724965
 51
211.3497928334905112
  0
ARC
  5
B056
  8
0
 10
4385.6179199394300667
 20
106.8873305717251014
 30
0.0
 40
11.2691755722728804
 50
210.8746744974382068
 51
220.2472048404499105
  0
ARC
  5
B057
  8
0
 10
4381.5027308498401908
 20
103.3459467870297033
 30
0.0
 40
5.8403263789373421
 50
219.8131741544686975
 51
240.9959387900728132
  0
ARC
  5
B058
  8
0
 10
4380.9740777348606571
 20
102.5945884996507971
 30
0.0
 40
4.9278458999014623
 50
242.1359189488036918
 51
270.2154805114573151
  0
ARC
  5
B059
  8
0
 10
4380.7199264972523451
 20
101.3424340487048028
 30
0.0
 40
3.5606513479672812
 50
239.3092449278169909
 51
258.6289378175337106
  0
ARC
  5
B05A
  8
0
 10
4381.021746081447418
 20
103.9575284196667013
 30
0.0
 40
6.1878227061082578
 50
260.6636894898571768
 51
269.7302202936548952
  0
ARC
  5
B05B
  8
0
 10
4283.763897907442697
 20
140.665258549848005
 30
0.0
 40
95.2618088210087706
 50
342.6915733524862731
 51
344.1921154122148891
  0
LINE
  5
B05C
  8
0
 10
4375.9806499051719584
 20
114.5817321496962933
 30
0.0
 11
4375.919662386238997
 21
114.5817321248990055
 31
0.0
  0
ARC
  5
B05D
  8
0
 10
4385.4737670857193734
 20
108.2542374068240036
 30
0.0
 40
11.5028236092848495
 50
146.9133161536416026
 51
153.8439781522324949
  0
ARC
  5
B05E
  8
0
 10
4368.762591377821991
 20
118.7831909335672975
 30
0.0
 40
8.5614618941141511
 50
327.2215556591987138
 51
336.8918642591979733
  0
LINE
  5
B05F
  8
0
 10
4385.0307703838616362
 20
115.051086308856398
 30
0.0
 11
4376.9544507217824503
 21
115.0629271282962947
 31
0.0
  0
LINE
  5
B060
  8
0
 10
4376.9544507217824503
 20
115.0629271282962947
 30
0.0
 11
4376.7140982342716597
 21
115.0918986362964063
 31
0.0
  0
ARC
  5
B061
  8
0
 10
4365.8900341384232888
 20
108.5334172311434031
 30
0.0
 40
12.7658815023348708
 50
32.3323353038837524
 51
33.5334395647264571
  0
ARC
  5
B062
  8
0
 10
4375.9092044638773586
 20
115.1171602932165996
 30
0.0
 40
0.80529009240821
 50
358.2023573513884003
 51
17.6245483690307303
  0
ARC
  5
B063
  8
0
 10
4385.2198787464485576
 20
108.3860944659189016
 30
0.0
 40
10.9055164001008809
 50
148.1056634440195978
 51
151.4713845683801026
  0
ARC
  5
B064
  8
0
 10
4385.7132864771401728
 20
108.1178767692539964
 30
0.0
 40
11.46711405101445
 50
151.4713845683801026
 51
156.5199903716194001
  0
ARC
  5
B065
  8
0
 10
4386.0674386691780455
 20
107.964033915207807
 30
0.0
 40
11.8532376049001407
 50
156.5199903716186896
 51
181.2488489684494084
  0
ARC
  5
B066
  8
0
 10
4386.8901777071150718
 20
108.1853694450051933
 30
0.0
 40
12.6822355878225999
 50
182.1675894524371131
 51
202.7548728399931974
  0
ARC
  5
B067
  8
0
 10
4388.2090622193918534
 20
108.5771878914715955
 30
0.0
 40
14.0508080179138393
 50
202.1480583492640051
 51
221.3382585827392859
  0
ARC
  5
B068
  8
0
 10
4381.4996548004801298
 20
102.6630938560590067
 30
0.0
 40
5.094313332323182
 50
232.3592020745570039
 51
239.3502222536141062
  0
ARC
  5
B069
  8
0
 10
4383.0809801350633279
 20
104.4871737069408937
 30
0.0
 40
7.50572231244732
 50
223.7530018940834111
 51
231.304191921443703
  0
ARC
  5
B06A
  8
0
 10
4359.3378559415486961
 20
115.4945311926245068
 30
0.0
 40
17.3809064548098
 50
355.5569849408112191
 51
358.6726118118779141
  0
ARC
  5
B06B
  8
0
 10
4367.8043639250936394
 20
114.8366746356513062
 30
0.0
 40
8.8888788591765824
 50
344.8017357867412898
 51
355.5569849408112191
  0
ARC
  5
B06C
  8
0
 10
4473.113634910433575
 20
86.228204804003667
 30
0.0
 40
100.2371359199395044
 50
164.8017357867412898
 51
166.9169868974350095
  0
ARC
  5
B06D
  8
0
 10
4384.602180411394329
 20
106.797804691432205
 30
0.0
 40
9.3669757073346673
 50
166.9169868974350095
 51
190.2521865506126915
  0
ARC
  5
B06E
  8
0
 10
4386.3409997534417926
 20
106.8930292788334953
 30
0.0
 40
11.0970790255025094
 50
189.1380512653088886
 51
221.7688307245805106
  0
ARC
  5
B06F
  8
0
 10
4381.0914285024045967
 20
102.230091052250998
 30
0.0
 40
4.0756831628623233
 50
222.0370779352026034
 51
268.6106853508736094
  0
LINE
  5
B070
  8
0
 10
4382.963626644280339
 20
115.7832009585467006
 30
0.0
 11
4379.021594461364657
 21
115.7832009585467006
 31
0.0
  0
ARC
  5
B071
  8
0
 10
4412.3981173871579813
 20
122.2234751642737933
 30
0.0
 40
26.9048756468316483
 50
188.0824440825423096
 51
196.2055842126171115
  0
LINE
  5
B072
  8
0
 10
4382.9631458276935518
 20
115.7281048353466986
 30
0.0
 11
4383.0391903569443457
 21
115.728108372146707
 31
0.0
  0
LINE
  5
B073
  8
0
 10
4382.9726026177959284
 20
116.811745640338998
 30
0.0
 11
4382.9631458276935518
 21
115.7281048353466986
 31
0.0
  0
LINE
  5
B074
  8
0
 10
4382.9726026177659151
 20
116.811745635478303
 30
0.0
 11
4382.9631458276935518
 21
115.7281048353466986
 31
0.0
  0
ARC
  5
B075
  8
0
 10
4383.4688621160912589
 20
116.8060939696137979
 30
0.0
 40
0.4962916793886211
 50
92.4508226014460774
 51
179.3475129798036107
  0
ARC
  5
B076
  8
0
 10
4383.038670006340908
 20
115.7623207685071947
 30
0.0
 40
0.0342163532463565
 50
270.8713682170396737
 51
293.3209789984176723
  0
ARC
  5
B077
  8
0
 10
4383.0616195453003456
 20
115.2855063438772021
 30
0.0
 40
0.4454927611010737
 50
83.9668530235926625
 51
91.209546687542101
  0
LINE
  5
B078
  8
0
 10
4383.2938362365448484
 20
115.7313980586467039
 30
0.0
 11
4383.742367408044629
 21
115.7313980586467039
 31
0.0
  0
ARC
  5
B079
  8
0
 10
4383.1251695060473139
 20
119.7815051619417943
 30
0.0
 40
4.0536175983444673
 50
272.2730948237792177
 51
272.3846906551676739
  0
ARC
  5
B07A
  8
0
 10
4383.2844567971760625
 20
110.416974942754706
 30
0.0
 40
5.3141024989332593
 50
89.9839388239219033
 51
91.7748279154802162
  0
ARC
  5
B07B
  8
0
 10
4383.1139433135540457
 20
115.0445370053643046
 30
0.0
 40
0.6840167482921938
 50
89.5035238111428981
 51
90.4607712024014745
  0
LINE
  5
B07C
  8
0
 10
4384.5215889883957061
 20
115.7281048353466986
 30
0.0
 11
4384.446056010344364
 21
115.7281044149466993
 31
0.0
  0
ARC
  5
B07D
  8
0
 10
4384.015872699997999
 20
116.8060939696137979
 30
0.0
 40
0.4962916793886256
 50
0.3094156234563403
 51
92.4508226019676869
  0
ARC
  5
B07E
  8
0
 10
4384.4460648200920332
 20
115.7623208009007953
 30
0.0
 40
0.0342163870882398
 50
246.679026570376692
 51
269.9852479664713201
  0
ARC
  5
B07F
  8
0
 10
4384.4231152707889123
 20
115.2855063438772021
 30
0.0
 40
0.4454927611010737
 50
88.7904533124578847
 51
96.033146976407366
  0
LINE
  5
B080
  8
0
 10
4384.1908985795444096
 20
115.7313980586467039
 30
0.0
 11
4383.742367408044629
 21
115.7313980586467039
 31
0.0
  0
ARC
  5
B081
  8
0
 10
4384.359565310041944
 20
119.7815051619417943
 30
0.0
 40
4.0536175983444673
 50
267.6153093448323261
 51
267.726905176220896
  0
ARC
  5
B082
  8
0
 10
4384.2002780189122859
 20
110.416974942754706
 30
0.0
 40
5.3141024989332593
 50
88.2251720845197838
 51
90.0160611760781251
  0
ARC
  5
B083
  8
0
 10
4384.3707915025361217
 20
115.0445370053662941
 30
0.0
 40
0.684016748290261
 50
89.5392287975985397
 51
90.4964761888570877
  0
LINE
  5
B084
  8
0
 10
4384.5121571426097944
 20
116.8087740911569057
 30
0.0
 11
4384.5215889883957061
 21
115.7281048353466986
 31
0.0
  0
ARC
  5
B085
  8
0
 10
4384.3947159503923103
 20
115.7232778163297979
 30
0.0
 40
0.1269648293224247
 50
2.1788276943387519
 51
63.9690021154713335
  0
ARC
  5
B086
  8
0
 10
4383.0900428458598981
 20
115.7232627034924946
 30
0.0
 40
0.1269893675091976
 50
116.0381279402974002
 51
177.8147698820303049
  0
LINE
  5
B087
  8
0
 10
4383.7423660242448022
 20
115.8424725891466949
 30
0.0
 11
4384.4504353981446911
 21
115.8373629206466973
 31
0.0
  0
LINE
  5
B088
  8
0
 10
4383.7423687918435462
 20
115.8424725891466949
 30
0.0
 11
4383.0342984299450109
 21
115.8373629206466973
 31
0.0
  0
LINE
  5
B089
  8
0
 10
4383.4476397504522538
 20
117.3019316872464941
 30
0.0
 11
4383.9946503343571749
 21
117.3019316872464941
 31
0.0
  0
ARC
  5
B08A
  8
0
 10
4382.1860560033019283
 20
107.9920532084350953
 30
0.0
 40
18.6203134168805704
 50
66.3899295817368227
 51
82.2312010715626656
  0
ARC
  5
B08B
  8
0
 10
4380.8427437200016357
 20
97.5090888143305818
 30
0.0
 40
29.1887714585465901
 50
82.4001371069456212
 51
89.7058192479856444
  0
ARC
  5
B08C
  8
0
 10
4367.377197937411438
 20
123.4307234518080065
 30
0.0
 40
22.4705278309284218
 50
351.418058331259715
 51
357.0506340008093957
  0
ARC
  5
B08D
  8
0
 10
3611.5392454816728787
 20
93.6463590551991842
 30
0.0
 40
778.8050667434600882
 50
2.1066163057653711
 51
2.3039939587072551
  0
ARC
  5
B08E
  8
0
 10
4380.9177715919031471
 20
138.0460882129981997
 30
0.0
 40
20.1946263924001101
 50
270.2123320498989756
 51
294.474537419162175
  0
ARC
  5
B08F
  8
0
 10
4389.5938711816943396
 20
124.9428791323592947
 30
0.0
 40
0.1215030541388486
 50
5.9372627956466042
 51
65.7993342834740815
  0
ARC
  5
B090
  8
0
 10
4389.0549453622143119
 20
120.1638054075404938
 30
0.0
 40
0.5480129467107731
 50
294.7273221972050123
 51
350.9482117696093724
  0
LINE
  5
B091
  8
0
 10
4384.5541786562716879
 20
115.7148050051962969
 30
0.0
 11
4384.5490071739723135
 21
115.641461491896294
 31
0.0
  0
LINE
  5
B092
  8
0
 10
4384.5490071739723135
 20
115.641461491896294
 30
0.0
 11
4384.545746491871796
 21
115.3160153238963943
 31
0.0
  0
LINE
  5
B093
  8
0
 10
4384.5084182289729142
 20
115.7281018155964034
 30
0.0
 11
4384.5159698740717431
 21
115.6218416463963052
 31
0.0
  0
LINE
  5
B094
  8
0
 10
4384.5159698740717431
 20
115.6218416463963052
 30
0.0
 11
4384.5186997010277992
 21
115.2758154613788975
 31
0.0
  0
LINE
  5
B095
  8
0
 10
4384.5466658204468331
 20
115.407772800607006
 30
0.0
 11
4384.5176586794250397
 21
115.4077728124404985
 31
0.0
  0
ARC
  5
B096
  8
0
 10
2343.5145818088658416
 20
294.0203606519339132
 30
0.0
 40
2048.8505539376428715
 50
354.9978577811589275
 51
355.0012043439962213
  0
ARC
  5
B097
  8
0
 10
4384.3926034621308645
 20
115.3897798774387979
 30
0.0
 40
0.1700069378958905
 50
270.0024341338875047
 51
354.9978577811589275
  0
ARC
  5
B098
  8
0
 10
4384.6620452185752583
 20
115.4866730273759003
 30
0.0
 40
0.0899643945611873
 50
90.1537432458123931
 51
175.218973086433607
  0
ARC
  5
B099
  8
0
 10
4384.8259071249931367
 20
54.4201001278034582
 30
0.0
 40
61.1567571417095692
 50
89.8575648474244701
 51
90.1537432458123931
  0
ARC
  5
B09A
  8
0
 10
4384.9816032473036103
 20
117.0500910926468947
 30
0.0
 40
1.4734273505851929
 50
269.8575648474243849
 51
272.2231405931976838
  0
ARC
  5
B09B
  8
0
 10
4385.0338757801118845
 20
115.7035760063160978
 30
0.0
 40
0.1258980205137979
 50
272.2231405931976838
 51
285.3699754028128837
  0
ARC
  5
B09C
  8
0
 10
4385.0659769000612869
 20
115.5873385100757957
 30
0.0
 40
0.0053113514265249
 50
283.814714721517305
 51
329.8203730394920967
  0
LINE
  5
B09D
  8
0
 10
4385.0773696697060586
 20
115.6816525567312937
 30
0.0
 11
4385.0705683169717304
 21
115.5846684267962985
 31
0.0
  0
LINE
  5
B09E
  8
0
 10
4385.1094710365623541
 20
115.7116491377963001
 30
0.0
 11
4385.2222873472037463
 21
115.7116490933032935
 31
0.0
  0
ARC
  5
B09F
  8
0
 10
4385.109939633050999
 20
115.6789724503384065
 30
0.0
 40
0.0326800471932153
 50
90.8215875994051487
 51
175.2958624167679034
  0
ARC
  5
B0A0
  8
0
 10
4385.2229075079276299
 20
115.4367749012927931
 30
0.0
 40
0.2748748916011817
 50
32.7787283312910773
 51
90.129268344834145
  0
ARC
  5
B0A1
  8
0
 10
4375.8955167114809228
 20
109.0755969970973069
 30
0.0
 40
11.5648122615605899
 50
29.6425931441740715
 51
34.2575570045233206
  0
ARC
  5
B0A2
  8
0
 10
4385.3881987898721491
 20
114.5297757322267955
 30
0.0
 40
0.6185583382880743
 50
4.8182926266676791
 51
25.4326567968337791
  0
ARC
  5
B0A3
  8
0
 10
4387.4221333004770713
 20
114.607798397858204
 30
0.0
 40
1.4178017339041371
 50
181.0534407733838975
 51
191.1199866880263869
  0
ARC
  5
B0A4
  8
0
 10
4387.1522447176239439
 20
114.6655195552847033
 30
0.0
 40
1.1691755086473059
 50
196.4540400877650086
 51
206.268396279374798
  0
LINE
  5
B0A5
  8
0
 10
4384.9846051575723322
 20
115.7209423862963007
 30
0.0
 11
4384.6041547198738044
 21
115.7209425462962997
 31
0.0
  0
LINE
  5
B0A6
  8
0
 10
4385.0446113712732767
 20
115.5782644349962993
 30
0.0
 11
4385.0446114006717835
 21
115.6616260643963017
 31
0.0
  0
ARC
  5
B0A7
  8
0
 10
4384.9849497547284045
 20
115.6612807361244961
 30
0.0
 40
0.0596626453354996
 50
0.3316306692164704
 51
90.3309285450785779
  0
LINE
  5
B0A8
  8
0
 10
4384.6041547198719854
 20
115.7209425462962997
 30
0.0
 11
4384.5541786562716879
 21
115.7148050051962969
 31
0.0
  0
ARC
  5
B0A9
  8
0
 10
2457.9512124007328566
 20
-932.3274383167075712
 30
0.0
 40
2193.8284858832698774
 50
28.4669291179110608
 51
28.4902240077568187
  0
ARC
  5
B0AA
  8
0
 10
4375.8973987742510872
 20
107.9555101046715038
 30
0.0
 40
11.9283591117378407
 50
4.3572755798320806
 51
26.9632273413418098
  0
ARC
  5
B0AB
  8
0
 10
4375.4262492088446379
 20
108.0788153366191011
 30
0.0
 40
12.3897957285788607
 50
337.6864895345927948
 51
3.6231513874074448
  0
ARC
  5
B0AC
  8
0
 10
4372.671407175584136
 20
109.209417332708
 30
0.0
 40
15.3676163245490098
 50
324.465621251271898
 51
337.6864895345927948
  0
ARC
  5
B0AD
  8
0
 10
4378.5591229364126775
 20
105.0395081987916939
 30
0.0
 40
8.1529228386945345
 50
308.1620151455790051
 51
324.2649451232576894
  0
ARC
  5
B0AE
  8
0
 10
4386.0570752559960965
 20
114.4704006525756057
 30
0.0
 40
0.1116542246450896
 50
34.5435514882751917
 51
85.6424797996252352
  0
ARC
  5
B0AF
  8
0
 10
4375.9230827184410373
 20
107.9692337090702949
 30
0.0
 40
12.1565789157781605
 50
12.7157069394434306
 51
26.1393107957178294
  0
ARC
  5
B0B0
  8
0
 10
4375.7602722899537184
 20
107.927017745101594
 30
0.0
 40
12.3246897620668605
 50
4.2947173328922403
 51
12.7405494879850991
  0
ARC
  5
B0B1
  8
0
 10
4375.7377355044936849
 20
107.9237135782920944
 30
0.0
 40
12.3474108082180205
 50
0.6393676643211724
 51
4.3021751484435882
  0
ARC
  5
B0B2
  8
0
 10
4375.7915635352219397
 20
108.0762210332001985
 30
0.0
 40
12.2928228244693596
 50
345.4319222689035769
 51
359.9313695187236135
  0
ARC
  5
B0B3
  8
0
 10
4373.5917986185022528
 20
108.6875901015488068
 30
0.0
 40
14.5756924711893099
 50
328.6502071665095173
 51
345.2809514533266793
  0
ARC
  5
B0B4
  8
0
 10
4376.3673011662140198
 20
106.8873305717251014
 30
0.0
 40
11.2691755722728804
 50
319.7527951595500895
 51
329.1253255025616795
  0
ARC
  5
B0B5
  8
0
 10
4380.4824902558038957
 20
103.3459467870297033
 30
0.0
 40
5.8403263789373421
 50
299.0040612099272153
 51
320.1868258455313025
  0
ARC
  5
B0B6
  8
0
 10
4380.972966086348606
 20
102.7497344763933
 30
0.0
 40
5.0829949876240024
 50
270.221433982204303
 51
297.4271665575316774
  0
ARC
  5
B0B7
  8
0
 10
4381.2652946083917413
 20
101.3424340487048028
 30
0.0
 40
3.5606513479672812
 50
281.3710621824661757
 51
300.6907550721829807
  0
ARC
  5
B0B8
  8
0
 10
4380.9578040195819995
 20
104.0250195950202965
 30
0.0
 40
6.2553421259337041
 50
270.3188119378430088
 51
279.287278278646113
  0
ARC
  5
B0B9
  8
0
 10
4478.2213231982013895
 20
140.665258549848005
 30
0.0
 40
95.2618088210087706
 50
195.8078845877849972
 51
197.3084266475136985
  0
LINE
  5
B0BA
  8
0
 10
4386.0045712004721281
 20
114.5817321496962933
 30
0.0
 11
4386.065558719405999
 21
114.5817321248990055
 31
0.0
  0
ARC
  5
B0BB
  8
0
 10
4376.5114540199247131
 20
108.2542374068240036
 30
0.0
 40
11.5028236092848495
 50
26.1560218477674802
 51
33.0866838463583477
  0
ARC
  5
B0BC
  8
0
 10
4393.2226297278220954
 20
118.7831909335672975
 30
0.0
 40
8.5614618941141511
 50
203.1081357408019983
 51
212.7784443408012862
  0
LINE
  5
B0BD
  8
0
 10
4385.0307703838616362
 20
115.051086308856398
 30
0.0
 11
4385.2711228713724267
 21
115.0918986362964063
 31
0.0
  0
ARC
  5
B0BE
  8
0
 10
4396.0951869672217072
 20
108.5334172311434031
 30
0.0
 40
12.7658815023348708
 50
146.4665604352734931
 51
147.6676646961161907
  0
ARC
  5
B0BF
  8
0
 10
4386.0760166417676373
 20
115.1171602932165996
 30
0.0
 40
0.80529009240821
 50
162.3754516309699909
 51
181.7976426486115997
  0
ARC
  5
B0C0
  8
0
 10
4376.7653423591964383
 20
108.3860944659189016
 30
0.0
 40
10.9055164001008809
 50
28.5286154316198903
 51
31.8943365559803489
  0
ARC
  5
B0C1
  8
0
 10
4376.2719346285039137
 20
108.1178767692539964
 30
0.0
 40
11.46711405101445
 50
23.4800096283805608
 51
28.5286154316198903
  0
ARC
  5
B0C2
  8
0
 10
4375.9177824364669505
 20
107.964033915207807
 30
0.0
 40
11.8532376049001407
 50
358.7511510315505916
 51
23.4800096283812998
  0
ARC
  5
B0C3
  8
0
 10
4375.0950433985290147
 20
108.1853694450051933
 30
0.0
 40
12.6822355878225999
 50
337.2451271600068026
 51
357.8324105475621195
  0
ARC
  5
B0C4
  8
0
 10
4373.7761588862531426
 20
108.5771878914715955
 30
0.0
 40
14.0508080179138393
 50
318.6617414172606004
 51
337.8519416507360233
  0
ARC
  5
B0C5
  8
0
 10
4380.4855663051639567
 20
102.6630938560590067
 30
0.0
 40
5.094313332323182
 50
300.6497777463858938
 51
307.6407979254429961
  0
ARC
  5
B0C6
  8
0
 10
4378.9042409705807586
 20
104.4871737069408937
 30
0.0
 40
7.50572231244732
 50
308.695808078556297
 51
316.2469981059165889
  0
ARC
  5
B0C7
  8
0
 10
4402.6473651640962998
 20
115.4945311926245068
 30
0.0
 40
17.3809064548098
 50
181.3273881881220859
 51
184.4430150591886957
  0
ARC
  5
B0C8
  8
0
 10
4394.1808571805504471
 20
114.8366746356513062
 30
0.0
 40
8.8888788591765824
 50
184.4430150591886957
 51
195.1982642132587102
  0
ARC
  5
B0C9
  8
0
 10
4288.871586195211421
 20
86.228204804003667
 30
0.0
 40
100.2371359199395044
 50
13.0830131025649994
 51
15.1982642132587102
  0
ARC
  5
B0CA
  8
0
 10
4377.3830406942497575
 20
106.797804691432205
 30
0.0
 40
9.3669757073346673
 50
349.7478134493865127
 51
13.0830131025649994
  0
ARC
  5
B0CB
  8
0
 10
4375.6442213522032034
 20
106.8930292788334953
 30
0.0
 40
11.0970790255025094
 50
318.2311692754195178
 51
350.8619487346903156
  0
ARC
  5
B0CC
  8
0
 10
4380.8937926032385803
 20
102.230091052250998
 30
0.0
 40
4.0756831628623296
 50
271.3893146491265043
 51
317.9629220647972829
  0
ENDSEC
  0
EOF
