  0
SECTION
  2
HEADER
  9
$ACADVER
  1
AC1009
  9
$INSBASE
 10
3753.1586071812030241
 20
118.3673744576378937
 30
0.0
  9
$EXTMIN
 10
3706.3509547222702167
 20
99.3904938808303768
 30
0.0
  9
$EXTMAX
 10
3781.5614680621538355
 20
140.7304067153555138
 30
0.0
  9
$LIMMIN
 10
0.0
 20
0.0
  9
$LIMMAX
 10
11.6929133858000007
 20
8.2677165353999982
  9
$ORTHOMODE
 70
     0
  9
$REGENMODE
 70
     1
  9
$FILLMODE
 70
     1
  9
$QTEXTMODE
 70
     0
  9
$MIRRTEXT
 70
     0
  9
$DRAGMODE
 70
     2
  9
$LTSCALE
 40
0.6431102362
  9
$OSMODE
 70
  4095
  9
$ATTMODE
 70
     1
  9
$TEXTSIZE
 40
0.2
  9
$TRACEWID
 40
0.05
  9
$TEXTSTYLE
  7
STANDARD
  9
$CLAYER
  8
0
  9
$CELTYPE
  6
BYLAYER
  9
$CECOLOR
 62
   256
  9
$DIMSCALE
 40
1.0
  9
$DIMASZ
 40
0.1875
  9
$DIMEXO
 40
0.0625
  9
$DIMDLI
 40
0.4443307087
  9
$DIMRND
 40
0.0
  9
$DIMDLE
 40
0.0
  9
$DIMEXE
 40
0.125
  9
$DIMTP
 40
0.01
  9
$DIMTM
 40
0.01
  9
$DIMTXT
 40
2.0
  9
$DIMCEN
 40
0.1052362205
  9
$DIMTSZ
 40
0.0
  9
$DIMTOL
 70
     1
  9
$DIMLIM
 70
     0
  9
$DIMTIH
 70
     1
  9
$DIMTOH
 70
     1
  9
$DIMSE1
 70
     0
  9
$DIMSE2
 70
     0
  9
$DIMTAD
 70
     0
  9
$DIMZIN
 70
     0
  9
$DIMBLK
  1

  9
$DIMASO
 70
     1
  9
$DIMSHO
 70
     1
  9
$DIMPOST
  1
\X
  9
$DIMAPOST
  1

  9
$DIMALT
 70
     1
  9
$DIMALTD
 70
     2
  9
$DIMALTF
 40
25.3999999999999986
  9
$DIMLFAC
 40
1.0
  9
$DIMTOFL
 70
     0
  9
$DIMTVP
 40
0.0
  9
$DIMTIX
 70
     0
  9
$DIMSOXD
 70
     0
  9
$DIMSAH
 70
     0
  9
$DIMBLK1
  1

  9
$DIMBLK2
  1

  9
$DIMSTYLE
  2
STANDARD
  9
$DIMCLRD
 70
     0
  9
$DIMCLRE
 70
     0
  9
$DIMCLRT
 70
     0
  9
$DIMTFAC
 40
1.0
  9
$DIMGAP
 40
0.09
  9
$LUNITS
 70
     2
  9
$LUPREC
 70
     4
  9
$SKETCHINC
 40
0.1
  9
$FILLETRAD
 40
0.0
  9
$AUNITS
 70
     0
  9
$AUPREC
 70
     0
  9
$MENU
  1
.
  9
$ELEVATION
 40
0.0
  9
$PELEVATION
 40
0.0
  9
$THICKNESS
 40
0.0
  9
$LIMCHECK
 70
     0
  9
$BLIPMODE
 70
     0
  9
$CHAMFERA
 40
0.0
  9
$CHAMFERB
 40
0.0
  9
$SKPOLY
 70
     0
  9
$TDCREATE
 40
2458060.468368056230247
  9
$TDUPDATE
 40
2459297.3184953709132969
  9
$TDINDWG
 40
0.6446945602
  9
$TDUSRTIMER
 40
0.6446945602
  9
$USRTIMER
 70
     1
  9
$ANGBASE
 50
0.0
  9
$ANGDIR
 70
     0
  9
$PDMODE
 70
     0
  9
$PDSIZE
 40
0.3125
  9
$PLINEWID
 40
0.0
  9
$COORDS
 70
     1
  9
$SPLFRAME
 70
     0
  9
$SPLINETYPE
 70
     6
  9
$SPLINESEGS
 70
     8
  9
$ATTDIA
 70
     1
  9
$ATTREQ
 70
     1
  9
$HANDLING
 70
     1
  9
$HANDSEED
  5
2F726
  9
$SURFTAB1
 70
     6
  9
$SURFTAB2
 70
     6
  9
$SURFTYPE
 70
     6
  9
$SURFU
 70
     6
  9
$SURFV
 70
     6
  9
$UCSNAME
  2

  9
$UCSORG
 10
0.0
 20
0.0
 30
0.0
  9
$UCSXDIR
 10
1.0
 20
0.0
 30
0.0
  9
$UCSYDIR
 10
0.0
 20
1.0
 30
0.0
  9
$PUCSNAME
  2

  9
$PUCSORG
 10
0.0
 20
0.0
 30
0.0
  9
$PUCSXDIR
 10
1.0
 20
0.0
 30
0.0
  9
$PUCSYDIR
 10
0.0
 20
1.0
 30
0.0
  9
$USERI1
 70
     0
  9
$USERI2
 70
     0
  9
$USERI3
 70
     0
  9
$USERI4
 70
     0
  9
$USERI5
 70
     0
  9
$USERR1
 40
0.0
  9
$USERR2
 40
0.0
  9
$USERR3
 40
0.0
  9
$USERR4
 40
0.0
  9
$USERR5
 40
0.0
  9
$WORLDVIEW
 70
     1
  9
$SHADEDGE
 70
     3
  9
$SHADEDIF
 70
    70
  9
$TILEMODE
 70
     1
  9
$MAXACTVP
 70
    64
  9
$PLIMCHECK
 70
     0
  9
$PEXTMIN
 10
1.0000000000000000E+20
 20
1.0000000000000000E+20
 30
1.0000000000000000E+20
  9
$PEXTMAX
 10
-1.0000000000000000E+20
 20
-1.0000000000000000E+20
 30
-1.0000000000000000E+20
  9
$PLIMMIN
 10
0.0
 20
0.0
  9
$PLIMMAX
 10
12.0
 20
9.0
  9
$UNITMODE
 70
     0
  9
$VISRETAIN
 70
     1
  9
$PLINEGEN
 70
     0
  9
$PSLTSCALE
 70
     1
  0
ENDSEC
  0
SECTION
  2
TABLES
  0
TABLE
  2
VPORT
 70
     1
  0
VPORT
  2
*ACTIVE
 70
     0
 10
0.0
 20
0.0
 11
1.0
 21
1.0
 12
460.8848533988914937
 22
-78.7961535399101649
 13
0.0
 23
0.0
 14
1.0
 24
1.0
 15
0.0
 25
0.0
 16
0.0
 26
0.0
 36
96.5995694866707311
 17
3303.693115234375
 27
195.2615115758877096
 37
0.0
 40
84.099063130011416
 41
2.0416666666666661
 42
50.0
 43
0.0
 44
0.0
 50
0.0
 51
0.0
 71
     0
 72
   100
 73
     1
 74
     1
 75
     0
 76
     0
 77
     0
 78
     0
  0
ENDTAB
  0
TABLE
  2
LTYPE
 70
     2
  0
LTYPE
  2
CONTINUOUS
 70
     0
  3
Solid line
 72
    65
 73
     0
 40
0.0
  0
LTYPE
  2
PHANTOM2
 70
     0
  3
___ _ _ ___ _ _ ___ _ _ ___ _ _
 72
    65
 73
     6
 40
1.25
 49
0.625
 49
-0.125
 49
0.125
 49
-0.125
 49
0.125
 49
-0.125
  0
ENDTAB
  0
TABLE
  2
LAYER
 70
     2
  0
LAYER
  2
0
 70
     0
 62
   255
  6
CONTINUOUS
  0
LAYER
  2
DEFPOINTS
 70
     0
 62
     7
  6
CONTINUOUS
  0
ENDTAB
  0
TABLE
  2
STYLE
 70
     1
  0
STYLE
  2
STANDARD
 70
     0
 40
0.0
 41
0.8
 50
0.0
 71
     0
 42
0.2
  3
txt
  4

  0
ENDTAB
  0
TABLE
  2
VIEW
 70
     0
  0
ENDTAB
  0
TABLE
  2
UCS
 70
     0
  0
ENDTAB
  0
TABLE
  2
APPID
 70
     9
  0
APPID
  2
ACAD
 70
     0
  0
APPID
  2
ACAD_MLEADERVER
 70
     0
  0
APPID
  2
ACAD_EXEMPT_FROM_CAD_STANDARDS
 70
     0
  0
APPID
  2
ACAD_NAV_VCDISPLAY
 70
     0
  0
APPID
  2
ACAECLAYERSTANDARD
 70
     0
  0
APPID
  2
ACCMTRANSPARENCY
 70
     0
  0
APPID
  2
ACAD_DSTYLE_DIMJAG
 70
     0
  0
APPID
  2
ACAD_DSTYLE_DIMTALN
 70
     0
  0
APPID
  2
ACDBATTR
 70
     0
  0
ENDTAB
  0
TABLE
  2
DIMSTYLE
 70
     1
  0
DIMSTYLE
  2
STANDARD
 70
     0
  3

  4

  5

  6

  7

 40
1.0
 41
0.1875
 42
0.0625
 43
0.38
 44
0.125
 45
0.0
 46
0.0
 47
0.01
 48
0.01
140
0.15625
141
0.09
142
0.0
143
25.3999999999999986
144
1.0
145
0.0
146
1.0
147
0.09
 71
     1
 72
     0
 73
     1
 74
     1
 75
     0
 76
     0
 77
     0
 78
     4
170
     0
171
     2
172
     0
173
     0
174
     0
175
     0
176
     0
177
     0
178
     0
  0
ENDTAB
  0
ENDSEC
  0
SECTION
  2
BLOCKS
  0
BLOCK
  8
0
  2
$MODEL_SPACE
 70
     0
 10
0.0
 20
0.0
 30
0.0
  3
$MODEL_SPACE
  1

  0
ENDBLK
  5
21
  8
0
  0
BLOCK
 67
     1
  8
0
  2
$PAPER_SPACE
 70
     0
 10
0.0
 20
0.0
 30
0.0
  3
$PAPER_SPACE
  1

  0
ENDBLK
  5
1D
 67
     1
  8
0
  0
BLOCK
  8
0
  2
_FILLED
 70
     0
 10
0.0
 20
0.0
 30
0.0
  3
_FILLED
  1

  0
SOLID
  5
27E58
  8
0
  6
BYBLOCK
 62
     0
 10
0.0
 20
0.0
 30
0.0
 11
-1.0
 21
0.1666666667
 31
0.0
 12
-1.0
 22
-0.1666666667
 32
0.0
 13
-1.0
 23
-0.1666666667
 33
0.0
  0
ENDBLK
  5
27E59
  8
0
  6
BYBLOCK
 62
     0
  0
BLOCK
  8
0
  2
A$CC23E797B
 70
     0
 10
0.0
 20
0.0
 30
0.0
  3
A$CC23E797B
  1

  0
LINE
  5
2B2F8
  8
0
 10
0.0
 20
27.9921259842999994
 30
0.0
 11
24.0159850394000003
 21
27.9921259842999994
 31
0.0
  0
LINE
  5
2B2F9
  8
0
 10
24.0159850394000003
 20
27.9921259842999994
 30
0.0
 11
24.0159850394000003
 21
0.0
 31
0.0
  0
LINE
  5
2B2FA
  8
0
 10
24.0159850394000003
 20
0.0
 30
0.0
 11
0.0000000000000009
 21
0.0
 31
0.0
  0
LINE
  5
2B2FB
  8
0
 10
0.0000000000000009
 20
0.0
 30
0.0
 11
0.0000000000000009
 21
27.9921259842999994
 31
0.0
  0
LINE
  5
2B2FC
  8
0
 10
1.2598425197000001
 20
27.9921259842999994
 30
0.0
 11
1.2598425197000001
 21
0.0
 31
0.0
  0
LINE
  5
2B2FD
  8
0
 10
22.7561425196999991
 20
27.9921259842999994
 30
0.0
 11
22.7561425196999991
 21
0.0
 31
0.0
  0
LINE
  5
2B2FE
  8
0
 10
1.2598425197000001
 20
26.7322859842999989
 30
0.0
 11
22.7561425196999991
 21
26.7322859842999989
 31
0.0
  0
LINE
  5
2B2FF
  8
0
 10
1.3578425196999999
 20
26.6342859842999999
 30
0.0
 11
11.9483937008000005
 21
26.6342859842999999
 31
0.0
  0
LINE
  5
2B300
  8
0
 10
11.9483937008000005
 20
26.6342859842999999
 30
0.0
 11
11.9483937008000005
 21
8.6009043621999979
 31
0.0
  0
LINE
  5
2B301
  8
0
 10
11.9483937008000005
 20
8.6009043621999979
 30
0.0
 11
1.3578425196999999
 21
8.6009043621999979
 31
0.0
  0
LINE
  5
2B302
  8
0
 10
1.3578425196999999
 20
8.6009043621999979
 30
0.0
 11
1.3578425196999999
 21
26.6342859842999999
 31
0.0
  0
LINE
  5
2B303
  8
0
 10
1.2598425197000001
 20
25.1571259842999986
 30
0.0
 11
1.299661999999999
 21
25.1571259842999986
 31
0.0
  0
LINE
  5
2B304
  8
0
 10
1.299661999999999
 20
25.1571259842999986
 30
0.0
 11
1.299661999999999
 21
22.6374409448999998
 31
0.0
  0
LINE
  5
2B305
  8
0
 10
1.299661999999999
 20
22.6374409448999998
 30
0.0
 11
1.2598425197000001
 21
22.6374409448999998
 31
0.0
  0
LINE
  5
2B306
  8
0
 10
1.299661999999999
 20
23.3376747046999995
 30
0.0
 11
1.3551319398999999
 21
23.3376747046999995
 31
0.0
  0
LINE
  5
2B307
  8
0
 10
1.3551319398999999
 20
23.3376747046999995
 30
0.0
 11
1.3551319398999999
 21
23.1970497046999995
 31
0.0
  0
LINE
  5
2B308
  8
0
 10
1.3551319398999999
 20
23.1970497046999995
 30
0.0
 11
1.299661999999999
 21
23.1970497046999995
 31
0.0
  0
LINE
  5
2B309
  8
0
 10
1.299661999999999
 20
24.5975172244000007
 30
0.0
 11
1.3551319398999999
 21
24.5975172244000007
 31
0.0
  0
LINE
  5
2B30A
  8
0
 10
1.3551319398999999
 20
24.5975172244000007
 30
0.0
 11
1.3551319398999999
 21
24.4568922244000007
 31
0.0
  0
LINE
  5
2B30B
  8
0
 10
1.3551319398999999
 20
24.4568922244000007
 30
0.0
 11
1.2996619999999981
 21
24.4568922244000007
 31
0.0
  0
LINE
  5
2B30C
  8
0
 10
1.3578425196999999
 20
24.4689316536000092
 30
0.0
 11
11.9483937008000005
 21
24.4689316535999986
 31
0.0
  0
LINE
  5
2B30D
  8
0
 10
1.3578425196999999
 20
22.9728686613999891
 30
0.0
 11
11.9483937008000005
 21
22.9728686613999891
 31
0.0
  0
LINE
  5
2B30E
  8
0
 10
1.357842519699999
 20
18.2090891339000009
 30
0.0
 11
11.9483937008000005
 21
18.2090891339000009
 31
0.0
  0
LINE
  5
2B30F
  8
0
 10
1.357842519699999
 20
16.7130261418000003
 30
0.0
 11
11.9483937008000005
 21
16.7130261418000003
 31
0.0
  0
LINE
  5
2B310
  8
0
 10
1.2598425197000001
 20
16.2591259842999989
 30
0.0
 11
1.3578425196999999
 21
16.2591259842999989
 31
0.0
  0
LINE
  5
2B311
  8
0
 10
1.357842519699999
 20
14.5476718110000007
 30
0.0
 11
11.9483937008000005
 21
14.5476718110000007
 31
0.0
  0
LINE
  5
2B312
  8
0
 10
1.3578425196999999
 20
13.0516088189000001
 30
0.0
 11
11.9483937008000005
 21
13.0516088189000001
 31
0.0
  0
LINE
  5
2B313
  8
0
 10
1.2598425197000001
 20
12.5584409448999992
 30
0.0
 11
1.299661999999999
 21
12.5584409448999992
 31
0.0
  0
LINE
  5
2B314
  8
0
 10
1.299661999999999
 20
12.5584409448999992
 30
0.0
 11
1.299661999999999
 21
10.0387559055000004
 31
0.0
  0
LINE
  5
2B315
  8
0
 10
1.299661999999999
 20
10.0387559055000004
 30
0.0
 11
1.2598425197000001
 21
10.0387559055000004
 31
0.0
  0
LINE
  5
2B316
  8
0
 10
1.299661999999999
 20
10.7389896654000001
 30
0.0
 11
1.3551319398999999
 21
10.7389896654000001
 31
0.0
  0
LINE
  5
2B317
  8
0
 10
1.3551319398999999
 20
10.7389896654000001
 30
0.0
 11
1.3551319398999999
 21
10.5983646654000001
 31
0.0
  0
LINE
  5
2B318
  8
0
 10
1.3551319398999999
 20
10.5983646654000001
 30
0.0
 11
1.299661999999999
 21
10.5983646654000001
 31
0.0
  0
LINE
  5
2B319
  8
0
 10
1.299661999999999
 20
11.9988321850999995
 30
0.0
 11
1.3551319398999999
 21
11.9988321850999995
 31
0.0
  0
LINE
  5
2B31A
  8
0
 10
1.3551319398999999
 20
11.9988321850999995
 30
0.0
 11
1.3551319398999999
 21
11.8582071850999995
 31
0.0
  0
LINE
  5
2B31B
  8
0
 10
1.3551319398999999
 20
11.8582071850999995
 30
0.0
 11
1.299661999999999
 21
11.8582071850999995
 31
0.0
  0
LINE
  5
2B31C
  8
0
 10
1.2598425197000001
 20
15.6681259842999996
 30
0.0
 11
1.3578425196999999
 21
15.6681259842999996
 31
0.0
  0
LINE
  5
2B31D
  8
0
 10
12.0675913385999998
 20
8.6009043621999979
 30
0.0
 11
22.6581425197000002
 21
8.6009043621999979
 31
0.0
  0
LINE
  5
2B31E
  8
0
 10
22.6581425197000002
 20
8.6009043621999979
 30
0.0
 11
22.6581425197000002
 21
26.6342859842999999
 31
0.0
  0
LINE
  5
2B31F
  8
0
 10
22.6581425197000002
 20
26.6342859842999999
 30
0.0
 11
12.0675913385999998
 21
26.6342859842999999
 31
0.0
  0
LINE
  5
2B320
  8
0
 10
12.0675913385999998
 20
26.6342859842999999
 30
0.0
 11
12.0675913385999998
 21
8.6009043621999979
 31
0.0
  0
LINE
  5
2B321
  8
0
 10
12.0675913385999998
 20
13.0516088189000001
 30
0.0
 11
22.6581425197000002
 21
13.0516088189000001
 31
0.0
  0
LINE
  5
2B322
  8
0
 10
11.9483937008000005
 20
16.2591259842999989
 30
0.0
 11
12.0675913385999998
 21
16.2591259842999989
 31
0.0
  0
LINE
  5
2B323
  8
0
 10
11.9483937008000005
 20
15.6681259842999996
 30
0.0
 11
12.0675913385999998
 21
15.6681259842999996
 31
0.0
  0
LINE
  5
2B324
  8
0
 10
12.0675913385999998
 20
14.5476718110000007
 30
0.0
 11
22.6581425197000002
 21
14.5476718110000007
 31
0.0
  0
LINE
  5
2B325
  8
0
 10
12.0675913385999998
 20
16.7130261418000003
 30
0.0
 11
22.6581425197000002
 21
16.7130261418000003
 31
0.0
  0
LINE
  5
2B326
  8
0
 10
12.0675913385999998
 20
18.2090891339000009
 30
0.0
 11
22.6581425197000002
 21
18.2090891339000009
 31
0.0
  0
LINE
  5
2B327
  8
0
 10
12.0675913385999998
 20
22.9728686613999997
 30
0.0
 11
22.6581425197000002
 21
22.9728686613999891
 31
0.0
  0
LINE
  5
2B328
  8
0
 10
12.0675913385999998
 20
24.4689316535999986
 30
0.0
 11
22.6581425197000002
 21
24.4689316536000092
 31
0.0
  0
LINE
  5
2B329
  8
0
 10
22.7561425196999991
 20
25.1571259842999986
 30
0.0
 11
22.7163230393999989
 21
25.1571259842999986
 31
0.0
  0
LINE
  5
2B32A
  8
0
 10
22.7163230393999989
 20
25.1571259842999986
 30
0.0
 11
22.7163230393999989
 21
22.6374409448999998
 31
0.0
  0
LINE
  5
2B32B
  8
0
 10
22.7163230393999989
 20
22.6374409448999998
 30
0.0
 11
22.7561425196999991
 21
22.6374409448999998
 31
0.0
  0
LINE
  5
2B32C
  8
0
 10
22.6581425197000002
 20
16.2591259842999989
 30
0.0
 11
22.7561425196999991
 21
16.2591259842999989
 31
0.0
  0
LINE
  5
2B32D
  8
0
 10
22.6581425197000002
 20
15.6681259842999996
 30
0.0
 11
22.7561425196999991
 21
15.6681259842999996
 31
0.0
  0
LINE
  5
2B32E
  8
0
 10
22.7561425196999991
 20
12.5584409448999992
 30
0.0
 11
22.7163230393999989
 21
12.5584409448999992
 31
0.0
  0
LINE
  5
2B32F
  8
0
 10
22.7163230393999989
 20
12.5584409448999992
 30
0.0
 11
22.7163230393999989
 21
10.0387559055000004
 31
0.0
  0
LINE
  5
2B330
  8
0
 10
22.7163230393999989
 20
10.0387559055000004
 30
0.0
 11
22.7561425196999991
 21
10.0387559055000004
 31
0.0
  0
LINE
  5
2B331
  8
0
 10
1.2598425197000001
 20
8.5039279843000006
 30
0.0
 11
22.7561425196999991
 21
8.5039279843000006
 31
0.0
  0
LINE
  5
2B332
  8
0
 10
22.7561425196999991
 20
7.2440879842999983
 30
0.0
 11
1.2598425197000001
 21
7.2440879843000001
 31
0.0
  0
CIRCLE
  5
2B333
  8
0
 10
10.3342204725000002
 20
10.8262565905999999
 30
0.0
 40
0.4415145545999999
  0
CIRCLE
  5
2B334
  8
0
 10
13.6817645670000001
 20
10.8262565905999999
 30
0.0
 40
0.4415145546000004
  0
ENDBLK
  5
2B336
  8
0
  0
ENDSEC
  0
SECTION
  2
ENTITIES
  0
ATTDEF
  5
29A98
  8
DEFPOINTS
 10
3753.1599851290147853
 20
118.3717469504276067
 30
0.0
 40
0.001
  1
K-33544-ASB
  3

  2
MODELNUMBER
 70
     0
1001
ACDBATTR
1070
     0
1070
     1
  0
ATTDEF
  5
29A99
  8
DEFPOINTS
 10
3753.1599851290147853
 20
118.370080283760899
 30
0.0
 40
0.001
  1
SOUTHERK
  3

  2
TRADENAME
 70
     0
1001
ACDBATTR
1070
     0
1070
     1
  0
ATTDEF
  5
29A9A
  8
DEFPOINTS
 10
3753.1599851290147853
 20
118.3684136170943049
 30
0.0
 40
0.001
  1
VANITY CABINET
  3

  2
PRODUCT
 70
     0
1001
ACDBATTR
1070
     0
1070
     1
  0
CIRCLE
  5
2F5C9
  8
0
 10
3753.1586071812530463
 20
115.9390446459378978
 30
0.0
 40
0.6899999999999981
  0
ARC
  5
2F5CA
  8
0
 10
3746.3457946411190278
 20
113.463353249072
 30
0.0
 40
0.2361291454546616
 50
89.9865679128403144
 51
180.0134320871499085
  0
LINE
  5
2F5CB
  8
0
 10
3746.3458372407308161
 20
113.6994823880378931
 30
0.0
 11
3759.9713771904480382
 21
113.6994823895049933
 31
0.0
  0
ARC
  5
2F5CC
  8
0
 10
3759.9714197268949647
 20
113.4633532514365015
 30
0.0
 40
0.2361291399463794
 50
359.9865675086654164
 51
90.0072258327118249
  0
LINE
  5
2F5CD
  8
0
 10
3760.2075488603531994
 20
113.4632978930379039
 30
0.0
 11
3760.2075488604200473
 21
103.4913268325378937
 31
0.0
  0
ARC
  5
2F5CE
  8
0
 10
3759.9713710939809062
 20
103.4913201033099028
 30
0.0
 40
0.2361777665678193
 50
269.9983675162371242
 51
0.0016324837465483
  0
LINE
  5
2F5CF
  8
0
 10
3759.9713643647528443
 20
103.2551423368379062
 30
0.0
 11
3746.345849997852838
 21
103.2551423368379062
 31
0.0
  0
ARC
  5
2F5D0
  8
0
 10
3746.3457946410758268
 20
103.491271475661307
 30
0.0
 40
0.236129145312167
 50
179.9865680481215975
 51
270.0134320974253797
  0
LINE
  5
2F5D1
  8
0
 10
3746.1096655022520281
 20
103.4913268318378954
 30
0.0
 11
3746.1096655021528932
 21
113.4632978923379056
 31
0.0
  0
CIRCLE
  5
2F5D2
  8
0
 10
3753.1586071812530463
 20
108.3572237797378932
 30
0.0
 40
0.7705397300999999
  0
CIRCLE
  5
2F5D3
  8
0
 10
3753.1586071812530463
 20
108.3572237797378932
 30
0.0
 40
1.2915491750494821
  0
ARC
  5
2F5D4
  8
0
 10
3746.4933546407828544
 20
113.2862652224207949
 30
0.0
 40
0.2579368867567068
 50
90.7575419335750837
 51
179.2422579719948885
  0
LINE
  5
2F5D5
  8
0
 10
3746.4896421721900879
 20
113.5441795490374943
 30
0.0
 11
3759.8275722589901306
 21
113.5448591964223937
 31
0.0
  0
ARC
  5
2F5D6
  8
0
 10
3759.824334271655971
 20
113.2868380180251933
 30
0.0
 40
0.2580507743926573
 50
0.473636610797225
 51
89.2139199921740982
  0
LINE
  5
2F5D7
  8
0
 10
3760.0823762291070125
 20
113.288971175183093
 30
0.0
 11
3760.0822291030531233
 21
103.6644933030379008
 31
0.0
  0
ARC
  5
2F5D8
  8
0
 10
3759.8243044714117786
 20
103.6679087693732981
 30
0.0
 40
0.2579472446398076
 50
271.3135797030358276
 51
359.2413273302659036
  0
LINE
  5
2F5D9
  8
0
 10
3759.8302177269079039
 20
103.4100293122102983
 30
0.0
 11
3746.4894290315378385
 21
103.4099298096399053
 31
0.0
  0
ARC
  5
2F5DA
  8
0
 10
3746.4928404732900162
 20
103.6678447471560958
 30
0.0
 40
0.2579374981020353
 50
180.7577514442361917
 51
269.242192791876505
  0
LINE
  5
2F5DB
  8
0
 10
3746.2349255324529622
 20
103.6644335567379045
 30
0.0
 11
3746.2354403106769496
 21
113.289676362367203
 31
0.0
  0
POINT
  5
2F5DC
  8
DEFPOINTS
 10
3753.1586071812530463
 20
115.9390446459378978
 30
0.0
  0
ARC
  5
2F5DD
  8
0
 10
3750.3726596156279811
 20
99.477030465074364
 30
0.0
 40
0.0855724803588532
 50
258.1297075334272222
 51
270.6558169678029913
  0
ARC
  5
2F5DE
  8
0
 10
3750.3549410413579608
 20
99.4053532119771006
 30
0.0
 40
0.0113042603549477
 50
181.1532981538115905
 51
226.7622144767391887
  0
ARC
  5
2F5DF
  8
0
 10
3750.3585862124568848
 20
99.410510556646301
 30
0.0
 40
0.0175804228426216
 50
229.6227607982879988
 51
258.4214655257189861
  0
LINE
  5
2F5E0
  8
0
 10
3750.3436390710021442
 20
99.4051256855808134
 30
0.0
 11
3750.3436390710021442
 21
99.5856279366808224
 31
0.0
  0
LINE
  5
2F5E1
  8
0
 10
3750.373639071002799
 20
99.3914635902808214
 30
0.0
 11
3755.9435603339029512
 21
99.3914654206670747
 31
0.0
  0
ARC
  5
2F5E2
  8
0
 10
3750.3733282335938384
 20
99.6595862895959641
 30
0.0
 40
0.1127267046740991
 50
260.7270218253249823
 51
270.1579900190067178
  0
ARC
  5
2F5E3
  8
0
 10
3750.3448453537889691
 20
99.5521685862303372
 30
0.0
 40
0.0012104099241163
 50
184.7328127778748978
 51
231.7323558181170995
  0
ARC
  5
2F5E4
  8
0
 10
3750.3498845545068434
 20
99.5593944807666134
 30
0.0
 40
0.0100180513906894
 50
234.7010967857943058
 51
259.1058965236160248
  0
ARC
  5
2F5E5
  8
0
 10
3750.3606450457841675
 20
99.6020686154410413
 30
0.0
 40
0.0540147426872202
 50
256.4516083808074995
 51
264.1755593659032115
  0
LINE
  5
2F5E6
  8
0
 10
3750.373639071002799
 20
99.5468600134808099
 30
0.0
 11
3755.9435603308020291
 21
99.546860124595085
 31
0.0
  0
LINE
  5
2F5E7
  8
0
 10
3750.7964345321029214
 20
99.8834768416808316
 30
0.0
 11
3750.7964345321029214
 21
100.0215744576378967
 31
0.0
  0
ARC
  5
2F5E8
  8
0
 10
3750.8698347896411178
 20
100.0866394409321032
 30
0.0
 40
0.2234461716019833
 50
266.5875093313330808
 51
270.9742689118036765
  0
ARC
  5
2F5E9
  8
0
 10
3750.8577003270511341
 20
99.8850999034286389
 30
0.0
 40
0.0215420122646782
 50
245.8402783565728953
 51
266.8973922321177952
  0
ARC
  5
2F5EA
  8
0
 10
3750.8592141500757862
 20
99.9127049346896854
 30
0.0
 40
0.0291388446885931
 50
88.967827572338777
 51
111.0752037013170934
  0
ARC
  5
2F5EB
  8
0
 10
3750.8697048034450745
 20
99.5970631464457909
 30
0.0
 40
0.3449199047952851
 50
89.4257910273452268
 51
91.6556740963382168
  0
ARC
  5
2F5EC
  8
0
 10
3750.8603678446238519
 20
99.887068726798276
 30
0.0
 40
0.0244843367335731
 50
211.0198362660827058
 51
242.0276451672926044
  0
ARC
  5
2F5ED
  8
0
 10
3750.8599354457701338
 20
99.9177379658783167
 30
0.0
 40
0.0248263191242761
 50
116.8149740489367048
 51
155.0220794418436867
  0
ARC
  5
2F5EE
  8
0
 10
3750.8930893716828905
 20
99.9033232497161379
 30
0.0
 40
0.0609734091685931
 50
155.8991761638046967
 51
208.2630577436474937
  0
LINE
  5
2F5EF
  8
0
 10
3750.8731670446018143
 20
99.9419657299808364
 30
0.0
 11
3755.4440323572021043
 21
99.9419657299808364
 31
0.0
  0
LINE
  5
2F5F0
  8
0
 10
3755.4435652700030914
 20
99.8632255724808147
 30
0.0
 11
3750.8736341313028788
 21
99.8632255725029268
 31
0.0
  0
ARC
  5
2F5F1
  8
0
 10
26890.9792117464203329
 20
-136.5971716260094979
 30
0.0
 40
23141.3136978568509221
 50
179.4145354611374898
 51
179.4145660274145939
  0
ARC
  5
2F5F2
  8
0
 10
3750.5915215084078227
 20
99.8541644642200197
 30
0.0
 40
0.2820055621087615
 50
334.6342092584338275
 51
359.3323458141139781
  0
ARC
  5
2F5F3
  8
0
 10
3750.6535406971001976
 20
99.8279163077279179
 30
0.0
 40
0.2147398978268306
 50
304.0760928155812053
 51
333.8734578984036148
  0
ARC
  5
2F5F4
  8
0
 10
3750.5508787325497906
 20
99.9877764694656435
 30
0.0
 40
0.4046973681605289
 50
283.2498542887889812
 51
303.4341289991583039
  0
ARC
  5
2F5F5
  8
0
 10
3750.3288913325191061
 20
100.8055154116781011
 30
0.0
 40
1.2518749910843929
 50
276.9153902709800263
 51
284.5614042612049275
  0
ARC
  5
2F5F6
  8
0
 10
3749.722401069083844
 20
105.379627355675396
 30
0.0
 40
5.8659586501594729
 50
276.2087674126750017
 51
277.4168504227664016
  0
ARC
  5
2F5F7
  8
0
 10
3750.30897932445896
 20
100.6759058139210055
 30
0.0
 40
1.0908286518193211
 50
271.820809793663102
 51
285.2086780313533723
  0
ARC
  5
2F5F8
  8
0
 10
3750.5257483504369702
 20
99.9125230494610577
 30
0.0
 40
0.2974494621874273
 50
283.4912201734916835
 51
300.7451906263920023
  0
ARC
  5
2F5F9
  8
0
 10
3750.5770759334350259
 20
99.8520147273900278
 30
0.0
 40
0.2196017837938137
 50
297.3042727677341759
 51
330.9231996489173753
  0
ARC
  5
2F5FA
  8
0
 10
3750.4113183051690612
 20
99.8767045651133429
 30
0.0
 40
0.3851757676409022
 50
346.2504762228574009
 51
1.0074435944646329
  0
ARC
  5
2F5FB
  8
0
 10
3750.598277007733941
 20
99.8390928212658366
 30
0.0
 40
0.1947954084882888
 50
331.2143972596152821
 51
343.9256004524053196
  0
ARC
  5
2F5FC
  8
0
 10
3755.944539786176847
 20
99.477030465074364
 30
0.0
 40
0.0855724803588532
 50
269.3441830321968951
 51
281.8702924665727778
  0
ARC
  5
2F5FD
  8
0
 10
3755.9622583769428275
 20
99.4053532002714633
 30
0.0
 40
0.0113042405270852
 50
313.2377652552364111
 51
358.8467591653492832
  0
ARC
  5
2F5FE
  8
0
 10
3755.9586131893479433
 20
99.410510556646301
 30
0.0
 40
0.0175804228426216
 50
281.5785344742810139
 51
310.3772392017119728
  0
LINE
  5
2F5FF
  8
0
 10
3755.9735603277031259
 20
99.4051256855808134
 30
0.0
 11
3755.9735603277031259
 21
99.5856279366808224
 31
0.0
  0
ARC
  5
2F600
  8
0
 10
3755.9438711682118992
 20
99.6595862895959641
 30
0.0
 40
0.1127267046740991
 50
269.8420099809932822
 51
279.2729781746750177
  0
ARC
  5
2F601
  8
0
 10
3755.9723540625677742
 20
99.5521685740192481
 30
0.0
 40
0.0012103913241081
 50
308.2674613373549164
 51
355.2676943358404174
  0
ARC
  5
2F602
  8
0
 10
3755.9673148472979847
 20
99.5593944807666134
 30
0.0
 40
0.0100180513906894
 50
280.8941034763839184
 51
305.2989032142057226
  0
ARC
  5
2F603
  8
0
 10
3755.9565543560202059
 20
99.6020686154410413
 30
0.0
 40
0.0540147426872202
 50
275.8244406340967885
 51
283.5483916191922731
  0
LINE
  5
2F604
  8
0
 10
3755.5207648697028162
 20
99.8834768416808316
 30
0.0
 11
3755.5207648697028162
 21
100.0215744576378967
 31
0.0
  0
ARC
  5
2F605
  8
0
 10
3755.4473646121650745
 20
100.0866394409321032
 30
0.0
 40
0.2234461716019833
 50
269.0257310881963235
 51
273.4124906686669192
  0
ARC
  5
2F606
  8
0
 10
3755.4594990747550582
 20
99.8850999034286389
 30
0.0
 40
0.0215420122646782
 50
273.1026077678820911
 51
294.1597216434270763
  0
ARC
  5
2F607
  8
0
 10
3755.4579852517299514
 20
99.9127049346896854
 30
0.0
 40
0.0291388446885931
 50
68.9247962986828497
 51
91.0321724276611945
  0
ARC
  5
2F608
  8
0
 10
3755.4474945983611178
 20
99.5970631464457909
 30
0.0
 40
0.3449199047952851
 50
88.3443259036617974
 51
90.5742089726547732
  0
ARC
  5
2F609
  8
0
 10
3755.4568315571809762
 20
99.887068726798276
 30
0.0
 40
0.0244843367335731
 50
297.9723548327074241
 51
328.9801637339173226
  0
ARC
  5
2F60A
  8
0
 10
3755.457263956035149
 20
99.9177379658783167
 30
0.0
 40
0.0248263191242761
 50
24.9779205581563204
 51
63.1850259510632881
  0
ARC
  5
2F60B
  8
0
 10
3755.4241100301228471
 20
99.9033232497161379
 30
0.0
 40
0.0609734091685931
 50
331.7369422563518242
 51
24.1008238361952607
  0
ARC
  5
2F60C
  8
0
 10
3477.9359310655981972
 20
101.2188115971690934
 30
0.0
 40
277.5110387315066873
 50
359.7201201173368759
 51
359.7526086436545256
  0
ARC
  5
2F60D
  8
0
 10
-19384.6620123446009529
 20
-136.5971716260067126
 30
0.0
 40
23141.3136978568509221
 50
0.5854339725853271
 51
0.5854645388624511
  0
ARC
  5
2F60E
  8
0
 10
3755.7256778933970054
 20
99.8541644642200197
 30
0.0
 40
0.2820055621087615
 50
180.6676541858859935
 51
205.3657907415662009
  0
ARC
  5
2F60F
  8
0
 10
3755.6636587047059948
 20
99.8279163077279179
 30
0.0
 40
0.2147398978268306
 50
206.1265421015964137
 51
235.9239071844187947
  0
ARC
  5
2F610
  8
0
 10
3755.7663206692550375
 20
99.9877764694656435
 30
0.0
 40
0.4046973681605289
 50
236.5658710008416961
 51
256.7501457112110188
  0
ARC
  5
2F611
  8
0
 10
3755.9883080692861768
 20
100.8055154116781011
 30
0.0
 40
1.2518749910843929
 50
255.4385957387951009
 51
263.0846097290199737
  0
ARC
  5
2F612
  8
0
 10
3756.594798332720984
 20
105.379627355675396
 30
0.0
 40
5.8659586501594729
 50
262.5831495772335984
 51
263.7912325873248847
  0
ARC
  5
2F613
  8
0
 10
3756.0082200788351656
 20
100.6759058210040934
 30
0.0
 40
1.090828659044625
 50
254.7913219908409985
 51
268.1791899773010073
  0
ARC
  5
2F614
  8
0
 10
3755.7914510513692221
 20
99.9125230494610577
 30
0.0
 40
0.2974494621874273
 50
239.2548093736079124
 51
256.5087798265080892
  0
ARC
  5
2F615
  8
0
 10
3755.7401234683698021
 20
99.8520147273900278
 30
0.0
 40
0.2196017837938137
 50
209.076800351082511
 51
242.6957272322657957
  0
ARC
  5
2F616
  8
0
 10
3755.9058810966371311
 20
99.8767045651133429
 30
0.0
 40
0.3851757676409022
 50
178.9925564055361917
 51
193.7495237771425991
  0
ARC
  5
2F617
  8
0
 10
3755.7189223940717966
 20
99.8390928212658366
 30
0.0
 40
0.1947954084882888
 50
196.0743995475945951
 51
208.7856027403846895
  0
LINE
  5
2F618
  8
0
 10
3750.8724912846541883
 20
100.0215744576378967
 30
0.0
 11
3750.8724912846541883
 21
99.8632090610868346
 31
0.0
  0
ARC
  5
2F619
  8
0
 10
3750.3037327883648686
 20
97.1537270473509977
 30
0.0
 40
2.4319051173454662
 50
89.059761344463098
 51
100.2447876542969993
  0
ARC
  5
2F61A
  8
0
 10
3750.3039393962180839
 20
97.147358304666966
 30
0.0
 40
2.2834645391828778
 50
89.0038214393000686
 51
100.6301183894914999
  0
ARC
  5
2F61B
  8
0
 10
3749.8816587910978342
 20
99.4020484225311662
 30
0.0
 40
0.0104664658860693
 50
183.2031711150831939
 51
275.7819558689067776
  0
LINE
  5
2F61C
  8
0
 10
3749.8712086772529801
 20
99.4014635902763928
 30
0.0
 11
3749.8712086772529801
 21
99.5468600133763744
 31
0.0
  0
ARC
  5
2F61D
  8
0
 10
3750.0058721985301418
 20
99.0309976451936649
 30
0.0
 40
0.5331493663785422
 50
103.1976947674515941
 51
104.6303086482397049
  0
ARC
  5
2F61E
  8
0
 10
3749.6686293273060073
 20
100.4891962719494956
 30
0.0
 40
0.9635428656597206
 50
282.924864780149278
 51
287.61093457011998
  0
ARC
  5
2F61F
  8
0
 10
3749.6051674408759027
 20
99.8570527853263883
 30
0.0
 40
0.5319785048523207
 50
352.4640450958992233
 51
0.6648437474782924
  0
ARC
  5
2F620
  8
0
 10
3749.8881762793957932
 20
99.8191493668574878
 30
0.0
 40
0.2585573229413969
 50
286.1629615785337251
 51
312.0399605100844838
  0
ARC
  5
2F621
  8
0
 10
3749.7859570319519662
 20
99.8279301866527362
 30
0.0
 40
0.3489692202316688
 50
338.5572494581551837
 51
353.3114072827120822
  0
ARC
  5
2F622
  8
0
 10
3749.9134886118899885
 20
99.7802659497869939
 30
0.0
 40
0.2128522381367958
 50
313.9890237907438859
 51
337.9497451487475814
  0
ARC
  5
2F623
  8
0
 10
3750.9914523417492092
 20
99.8570534788008786
 30
0.0
 40
0.5207202524181822
 50
179.3208576158066876
 51
185.0854094611478899
  0
ARC
  5
2F624
  8
0
 10
3750.705429536641077
 20
99.7872751228304651
 30
0.0
 40
0.2258574704474348
 50
195.5684841630877884
 51
220.3199420964263027
  0
ARC
  5
2F625
  8
0
 10
3750.8933238052559318
 20
99.8426949744467152
 30
0.0
 40
0.4217424663532038
 50
184.3240823825678945
 51
195.9702886143307126
  0
ARC
  5
2F626
  8
0
 10
3750.7044319614551569
 20
99.7946429835679538
 30
0.0
 40
0.229949596892685
 50
221.8806813385058945
 51
231.5078692359614934
  0
ARC
  5
2F627
  8
0
 10
3747.3188427932141167
 20
85.4060164879567765
 30
0.0
 40
14.5481038105699199
 50
76.4109579190165533
 51
76.4109580422685895
  0
ARC
  5
2F628
  8
0
 10
3750.1371101316531167
 20
99.90259565112639
 30
0.0
 40
0.0393700787500002
 50
270.0000000727458769
 51
89.9999999272280888
  0
ARC
  5
2F629
  8
0
 10
3750.4707687190830256
 20
99.9025956002963511
 30
0.0
 40
0.0393701294800665
 50
90.0000739007427057
 51
269.9999260992573227
  0
LINE
  5
2F62A
  8
0
 10
3750.470768668303208
 20
99.9419657297763848
 30
0.0
 11
3750.470768668303208
 21
100.0215744576378967
 31
0.0
  0
LINE
  5
2F62B
  8
0
 10
3750.1371101317031389
 20
99.9419657297763848
 30
0.0
 11
3750.1371101317031389
 21
100.0215744576378967
 31
0.0
  0
ARC
  5
2F62C
  8
0
 10
3756.012402904209921
 20
97.1401590083945621
 30
0.0
 40
2.4444649101280111
 50
79.7827251161448032
 51
90.9104689353435163
  0
ARC
  5
2F62D
  8
0
 10
3756.0126052299901858
 20
97.1463582979804983
 30
0.0
 40
2.2834645458687231
 50
79.3698816264137719
 51
90.9797468252284176
  0
ARC
  5
2F62E
  8
0
 10
3756.4355460088640939
 20
99.4009655970762225
 30
0.0
 40
0.010471716245848
 50
260.5761905695168821
 51
357.2522261467369162
  0
LINE
  5
2F62F
  8
0
 10
3756.4460056852531125
 20
99.4004635901239482
 30
0.0
 11
3756.4460056852531125
 21
99.5458600133239457
 31
0.0
  0
ARC
  5
2F630
  8
0
 10
3755.3138332677249309
 20
99.8560527852739455
 30
0.0
 40
0.5319785048523207
 50
352.4640450958992233
 51
0.6648437474774783
  0
ARC
  5
2F631
  8
0
 10
3755.5968421062461857
 20
99.818149366805045
 30
0.0
 40
0.2585573229413969
 50
308.062659474405109
 51
312.0399605100844838
  0
ARC
  5
2F632
  8
0
 10
3755.4946228588009944
 20
99.8269301866003076
 30
0.0
 40
0.3489692202316688
 50
338.5572494581551837
 51
353.3114072827120822
  0
ARC
  5
2F633
  8
0
 10
3755.6221544387399263
 20
99.7792659497345511
 30
0.0
 40
0.2128522381367958
 50
313.9890237907438859
 51
337.9497451487475814
  0
ARC
  5
2F634
  8
0
 10
3756.7001181685977826
 20
99.8560534787484357
 30
0.0
 40
0.5207202524181822
 50
179.3208576158066876
 51
185.0854094611478899
  0
ARC
  5
2F635
  8
0
 10
3756.4140953634910147
 20
99.7862751227780365
 30
0.0
 40
0.2258574704474348
 50
195.5684841630877884
 51
220.3199420964263027
  0
ARC
  5
2F636
  8
0
 10
3756.6019896321058695
 20
99.8416949743942723
 30
0.0
 40
0.4217424663532038
 50
184.3240823825678945
 51
195.9702886143307126
  0
ARC
  5
2F637
  8
0
 10
3756.4130977883050946
 20
99.7936429835154968
 30
0.0
 40
0.229949596892685
 50
221.8806813385058945
 51
251.5096124635753938
  0
ARC
  5
2F638
  8
0
 10
3756.6491618637592182
 20
100.4756807736838056
 30
0.0
 40
0.9516752645553802
 50
251.0537064302095871
 51
257.6740920280976184
  0
ARC
  5
2F639
  8
0
 10
3755.8457759585030544
 20
99.9015956510739471
 30
0.0
 40
0.0393700787500002
 50
270.0000000727458769
 51
89.9999999272280888
  0
ARC
  5
2F63A
  8
0
 10
3756.1794345459329634
 20
99.9015956002439367
 30
0.0
 40
0.0393701294800665
 50
90.0000739007427057
 51
269.9999260992573227
  0
LINE
  5
2F63B
  8
0
 10
3756.1794344951531457
 20
99.9409657297239562
 30
0.0
 11
3756.1794344951531457
 21
100.0215744576378967
 31
0.0
  0
LINE
  5
2F63C
  8
0
 10
3755.8457759585530766
 20
99.9409657297239562
 30
0.0
 11
3755.8457759585530766
 21
100.0215744576378967
 31
0.0
  0
ARC
  5
2F63D
  8
0
 10
3738.1628399798578357
 20
118.3047975100367069
 30
0.0
 40
0.0625769900720947
 50
90.0667538208103053
 51
179.9201196068841
  0
ARC
  5
2F63E
  8
0
 10
3738.1627160926709621
 20
100.3831616986657025
 30
0.0
 40
0.0624530567616934
 50
179.9606985092646028
 51
270.7545439840669133
  0
LINE
  5
2F63F
  8
0
 10
3738.1002630506018249
 20
100.3832045377378961
 30
0.0
 11
3738.1002630506018249
 21
118.3048847533379018
 31
0.0
  0
LINE
  5
2F640
  8
0
 10
3738.1002630506018249
 20
117.7294951068379021
 30
0.0
 11
3738.0080469543531763
 21
117.7294951068379021
 31
0.0
  0
LINE
  5
2F641
  8
0
 10
3738.0080469543531763
 20
117.7294951068379021
 30
0.0
 11
3738.0080469543531763
 21
100.2230506373379058
 31
0.0
  0
LINE
  5
2F642
  8
0
 10
3738.0080469543531763
 20
100.2230506373379058
 30
0.0
 11
3740.3702545640799144
 21
100.2230506373379058
 31
0.0
  0
LINE
  5
2F643
  8
0
 10
3737.9423715513530624
 20
100.1573752343379056
 30
0.0
 11
3737.9423715513530624
 21
117.7951705098379023
 31
0.0
  0
LINE
  5
2F644
  8
0
 10
3737.9423715513530624
 20
117.7951705098379023
 30
0.0
 11
3738.1002630506018249
 21
117.7951705098379023
 31
0.0
  0
LINE
  5
2F645
  8
0
 10
3738.0080469543531763
 20
117.7294951068379021
 30
0.0
 11
3737.9423715513530624
 21
117.7951705098379023
 31
0.0
  0
LINE
  5
2F646
  8
0
 10
3738.0080469543531763
 20
100.2230506373379058
 30
0.0
 11
3737.9423715513530624
 21
100.1573752343379056
 31
0.0
  0
LINE
  5
2F647
  8
0
 10
3737.9423715513530624
 20
100.1573752343379056
 30
0.0
 11
3740.4274767001411419
 21
100.1573752343379056
 31
0.0
  0
LINE
  5
2F648
  8
0
 10
3740.2649120631531332
 20
100.2564618484263974
 30
0.0
 11
3740.2648823781528336
 21
100.3193755624048009
 31
0.0
  0
ARC
  5
2F649
  8
0
 10
3740.264829803712928
 20
100.0734292381469004
 30
0.0
 40
0.1830326287697012
 50
14.4186014913373892
 51
89.9742498431030953
  0
ARC
  5
2F64A
  8
0
 10
3740.6368742374838803
 20
100.1515845963900944
 30
0.0
 40
0.1300266437095338
 50
194.5106366365156134
 51
270.9129211139389781
  0
LINE
  5
2F64B
  8
0
 10
3740.2649319995530277
 20
100.2568004311379042
 30
0.0
 11
3766.052329965853005
 21
100.2568000351378998
 31
0.0
  0
LINE
  5
2F64C
  8
0
 10
3740.4420973386659171
 20
100.1190051555379057
 30
0.0
 11
3765.8751666300531724
 21
100.1190051555379057
 31
0.0
  0
LINE
  5
2F64D
  8
0
 10
3765.6782684357531252
 20
100.0215744576378967
 30
0.0
 11
3740.6389459266529229
 21
100.0215744576378967
 31
0.0
  0
ARC
  5
2F64E
  8
0
 10
3768.1543743691649979
 20
118.3047974777749971
 30
0.0
 40
0.0625770223493798
 50
0.079909890896358
 51
89.9332339607706786
  0
ARC
  5
2F64F
  8
0
 10
3768.154498256916213
 20
100.3831617304837067
 30
0.0
 40
0.0624530884081592
 50
269.2454681590552923
 51
0.0392722802830705
  0
LINE
  5
2F650
  8
0
 10
3768.2169513306539557
 20
100.3832045377378961
 30
0.0
 11
3768.2169513306539557
 21
118.3048847533379018
 31
0.0
  0
LINE
  5
2F651
  8
0
 10
3768.2169513306539557
 20
117.7294951068379021
 30
0.0
 11
3768.3091674080519624
 21
117.7294951068379021
 31
0.0
  0
LINE
  5
2F652
  8
0
 10
3768.3091674080519624
 20
117.7294951068379021
 30
0.0
 11
3768.3091674080519624
 21
100.2230506373379058
 31
0.0
  0
LINE
  5
2F653
  8
0
 10
3768.3091674080519624
 20
100.2230506373379058
 30
0.0
 11
3765.9469597983261338
 21
100.2230506373379058
 31
0.0
  0
LINE
  5
2F654
  8
0
 10
3768.3748428110529858
 20
100.1573752343379056
 30
0.0
 11
3768.3748428110529858
 21
117.7951705098379023
 31
0.0
  0
LINE
  5
2F655
  8
0
 10
3768.3748428110529858
 20
117.7951705098379023
 30
0.0
 11
3768.2169513306539557
 21
117.7951705098379023
 31
0.0
  0
LINE
  5
2F656
  8
0
 10
3768.3091674080519624
 20
117.7294951068379021
 30
0.0
 11
3768.3748428110529858
 21
117.7951705098379023
 31
0.0
  0
LINE
  5
2F657
  8
0
 10
3768.3091674080519624
 20
100.2230506373379058
 30
0.0
 11
3768.3748428110529858
 21
100.1573752343379056
 31
0.0
  0
LINE
  5
2F658
  8
0
 10
3768.3748428110529858
 20
100.1573752343379056
 30
0.0
 11
3765.8897376622649062
 21
100.1573752343379056
 31
0.0
  0
LINE
  5
2F659
  8
0
 10
3766.052302299252915
 20
100.2564618484263974
 30
0.0
 11
3766.0523319621529481
 21
100.3207140574378968
 31
0.0
  0
ARC
  5
2F65A
  8
0
 10
3766.0523845586931202
 20
100.0734292381469004
 30
0.0
 40
0.1830326287697012
 50
90.0257501568969332
 51
165.5813985086626019
  0
ARC
  5
2F65B
  8
0
 10
3765.6803401249208036
 20
100.1515845963900944
 30
0.0
 40
0.1300266437095298
 50
269.0870788860610219
 51
345.4893633634860066
  0
LINE
  5
2F65C
  8
0
 10
3738.1627670730531463
 20
118.3673744576378937
 30
0.0
 11
3768.1544472893529019
 21
118.3673744576378937
 31
0.0
  0
LINE
  5
2F65D
  8
0
 10
3768.1536758319111868
 20
100.3207140574378968
 30
0.0
 11
3738.1635385304939518
 21
100.3207140574378968
 31
0.0
  0
CIRCLE
  5
2F65E
  8
0
 10
3749.1586071812530463
 20
115.9390446459378978
 30
0.0
 40
0.6899999999999999
  0
CIRCLE
  5
2F65F
  8
0
 10
3757.4538802520519312
 20
115.9390446459378978
 30
0.0
 40
0.6899999999999995
  0
ENDSEC
  0
EOF
