  0
SECTION
  2
HEADER
  9
$ACADVER
  1
AC1014
  9
$ACADMAINTVER
 70
     0
  9
$DWGCODEPAGE
  3
ANSI_1252
  9
$INSBASE
 10
93.894301
 20
236.06014
 30
0.0
  9
$EXTMIN
 10
40.432435
 20
62.734544
 30
-0.001526
  9
$EXTMAX
 10
179.837494
 20
149.383713
 30
0.0
  9
$LIMMIN
 10
0.0
 20
0.0
  9
$LIMMAX
 10
210.0
 20
297.0
  9
$ORTHOMODE
 70
     0
  9
$REGENMODE
 70
     1
  9
$FILLMODE
 70
     1
  9
$QTEXTMODE
 70
     0
  9
$MIRRTEXT
 70
     0
  9
$DRAGMODE
 70
     1
  9
$LTSCALE
 40
7.0
  9
$OSMODE
 70
  2559
  9
$ATTMODE
 70
     1
  9
$TEXTSIZE
 40
2.5
  9
$TRACEWID
 40
0.05
  9
$TEXTSTYLE
  7
STANDARD
  9
$CLAYER
  8
COTATION1
  9
$CELTYPE
  6
BYLAYER
  9
$CECOLOR
 62
   256
  9
$CELTSCALE
 40
1.0
  9
$DELOBJ
 70
     1
  9
$DISPSILH
 70
     0
  9
$DIMSCALE
 40
1.0
  9
$DIMASZ
 40
3.0
  9
$DIMEXO
 40
0.0625
  9
$DIMDLI
 40
0.38
  9
$DIMRND
 40
0.01
  9
$DIMDLE
 40
0.0
  9
$DIMEXE
 40
0.18
  9
$DIMTP
 40
0.0
  9
$DIMTM
 40
0.0
  9
$DIMTXT
 40
2.5
  9
$DIMCEN
 40
0.09
  9
$DIMTSZ
 40
0.0
  9
$DIMTOL
 70
     0
  9
$DIMLIM
 70
     0
  9
$DIMTIH
 70
     0
  9
$DIMTOH
 70
     0
  9
$DIMSE1
 70
     0
  9
$DIMSE2
 70
     0
  9
$DIMTAD
 70
     1
  9
$DIMZIN
 70
    12
  9
$DIMBLK
  1

  9
$DIMASO
 70
     1
  9
$DIMSHO
 70
     1
  9
$DIMPOST
  1

  9
$DIMAPOST
  1

  9
$DIMALT
 70
     0
  9
$DIMALTD
 70
     2
  9
$DIMALTF
 40
25.4
  9
$DIMLFAC
 40
1.0
  9
$DIMTOFL
 70
     1
  9
$DIMTVP
 40
0.0
  9
$DIMTIX
 70
     0
  9
$DIMSOXD
 70
     0
  9
$DIMSAH
 70
     0
  9
$DIMBLK1
  1

  9
$DIMBLK2
  1

  9
$DIMSTYLE
  2
SC_STAND
  9
$DIMCLRD
 70
     0
  9
$DIMCLRE
 70
     0
  9
$DIMCLRT
 70
     0
  9
$DIMTFAC
 40
1.0
  9
$DIMGAP
 40
1.0
  9
$DIMJUST
 70
     0
  9
$DIMSD1
 70
     0
  9
$DIMSD2
 70
     0
  9
$DIMTOLJ
 70
     1
  9
$DIMTZIN
 70
    12
  9
$DIMALTZ
 70
    12
  9
$DIMALTTZ
 70
    12
  9
$DIMFIT
 70
     5
  9
$DIMUPT
 70
     0
  9
$DIMUNIT
 70
     2
  9
$DIMDEC
 70
     3
  9
$DIMTDEC
 70
     3
  9
$DIMALTU
 70
     2
  9
$DIMALTTD
 70
     2
  9
$DIMTXSTY
  7
STANDARD
  9
$DIMAUNIT
 70
     0
  9
$LUNITS
 70
     2
  9
$LUPREC
 70
     3
  9
$SKETCHINC
 40
0.1
  9
$FILLETRAD
 40
0.0625
  9
$AUNITS
 70
     0
  9
$AUPREC
 70
     0
  9
$MENU
  1
ACAD
  9
$ELEVATION
 40
0.0
  9
$PELEVATION
 40
0.0
  9
$THICKNESS
 40
0.0
  9
$LIMCHECK
 70
     0
  9
$BLIPMODE
 70
     1
  9
$CHAMFERA
 40
0.0
  9
$CHAMFERB
 40
0.0
  9
$CHAMFERC
 40
0.0
  9
$CHAMFERD
 40
0.0
  9
$SKPOLY
 70
     0
  9
$TDCREATE
 40
2450953.590960648
  9
$TDUPDATE
 40
2452839.722537246
  9
$TDINDWG
 40
0.0124391319
  9
$TDUSRTIMER
 40
0.0124391319
  9
$USRTIMER
 70
     1
  9
$ANGBASE
 50
0.0
  9
$ANGDIR
 70
     0
  9
$PDMODE
 70
     0
  9
$PDSIZE
 40
0.0
  9
$PLINEWID
 40
0.0
  9
$COORDS
 70
     0
  9
$SPLFRAME
 70
     0
  9
$SPLINETYPE
 70
     6
  9
$SPLINESEGS
 70
     8
  9
$ATTDIA
 70
     0
  9
$ATTREQ
 70
     1
  9
$HANDLING
 70
     1
  9
$HANDSEED
  5
6E8
  9
$SURFTAB1
 70
     6
  9
$SURFTAB2
 70
     6
  9
$SURFTYPE
 70
     6
  9
$SURFU
 70
     6
  9
$SURFV
 70
     6
  9
$UCSNAME
  2

  9
$UCSORG
 10
0.0
 20
0.0
 30
0.0
  9
$UCSXDIR
 10
1.0
 20
0.0
 30
0.0
  9
$UCSYDIR
 10
0.0
 20
1.0
 30
0.0
  9
$PUCSNAME
  2

  9
$PUCSORG
 10
0.0
 20
0.0
 30
0.0
  9
$PUCSXDIR
 10
1.0
 20
0.0
 30
0.0
  9
$PUCSYDIR
 10
0.0
 20
1.0
 30
0.0
  9
$USERI1
 70
     0
  9
$USERI2
 70
     0
  9
$USERI3
 70
     0
  9
$USERI4
 70
     0
  9
$USERI5
 70
     0
  9
$USERR1
 40
0.0
  9
$USERR2
 40
0.0
  9
$USERR3
 40
0.0
  9
$USERR4
 40
0.0
  9
$USERR5
 40
0.0
  9
$WORLDVIEW
 70
     1
  9
$SHADEDGE
 70
     3
  9
$SHADEDIF
 70
    70
  9
$TILEMODE
 70
     1
  9
$MAXACTVP
 70
    32
  9
$PINSBASE
 10
0.0
 20
0.0
 30
0.0
  9
$PLIMCHECK
 70
     0
  9
$PEXTMIN
 10
-3.174999
 20
-3.175
 30
0.0
  9
$PEXTMAX
 10
203.812116
 20
370.276807
 30
0.0
  9
$PLIMMIN
 10
-3.175
 20
-3.175
  9
$PLIMMAX
 10
203.812115
 20
370.276807
  9
$UNITMODE
 70
     0
  9
$VISRETAIN
 70
     0
  9
$PLINEGEN
 70
     0
  9
$PSLTSCALE
 70
     1
  9
$TREEDEPTH
 70
  3020
  9
$PICKSTYLE
 70
     0
  9
$CMLSTYLE
  2
STANDARD
  9
$CMLJUST
 70
     0
  9
$CMLSCALE
 40
1.0
  9
$PROXYGRAPHICS
 70
     1
  9
$MEASUREMENT
 70
     0
  0
ENDSEC
  0
SECTION
  2
CLASSES
  0
CLASS
  1
DICTIONARYVAR
  2
AcDbDictionaryVar
  3
"AutoCAD"
 90
        0
280
     0
281
     0
  0
ENDSEC
  0
SECTION
  2
TABLES
  0
TABLE
  2
VPORT
  5
F4
100
AcDbSymbolTable
 70
     3
  0
VPORT
  5
6E7
100
AcDbSymbolTableRecord
100
AcDbViewportTableRecord
  2
*ACTIVE
 70
     0
 10
0.0
 20
0.0
 11
1.0
 21
1.0
 12
110.134964
 22
106.059128
 13
0.0
 23
0.0
 14
1.0
 24
1.0
 15
10.0
 25
10.0
 16
0.0
 26
0.0
 36
1.0
 17
0.0
 27
0.0
 37
0.0
 40
87.338686
 41
1.620186
 42
50.0
 43
0.0
 44
0.0
 50
0.0
 51
0.0
 71
     0
 72
   100
 73
     1
 74
     1
 75
     0
 76
     1
 77
     0
 78
     0
  0
ENDTAB
  0
TABLE
  2
LTYPE
  5
F1
100
AcDbSymbolTable
 70
    23
  0
LTYPE
  5
FD
100
AcDbSymbolTableRecord
100
AcDbLinetypeTableRecord
  2
BYBLOCK
 70
     0
  3

 72
    65
 73
     0
 40
0.0
  0
LTYPE
  5
FE
100
AcDbSymbolTableRecord
100
AcDbLinetypeTableRecord
  2
BYLAYER
 70
     0
  3

 72
    65
 73
     0
 40
0.0
  0
LTYPE
  5
FF
100
AcDbSymbolTableRecord
100
AcDbLinetypeTableRecord
  2
CONTINUOUS
 70
     0
  3
Solid line
 72
    65
 73
     0
 40
0.0
  0
LTYPE
  5
110
100
AcDbSymbolTableRecord
100
AcDbLinetypeTableRecord
  2
CACHE
 70
     0
  3
__ __ __ __ __ __ __ __ __ __ __ __ __ __ __ __
 72
    65
 73
     2
 40
0.375
 49
0.25
 74
     0
 49
-0.125
 74
     0
  0
LTYPE
  5
112
100
AcDbSymbolTableRecord
100
AcDbLinetypeTableRecord
  2
AXES2
 70
     0
  3
___ _ ___ _ ___ _ ___ _ ___ _ ___ _ ___ _ ___ _
 72
    65
 73
     4
 40
1.125
 49
0.75
 74
     0
 49
-0.125
 74
     0
 49
0.125
 74
     0
 49
-0.125
 74
     0
  0
LTYPE
  5
120
100
AcDbSymbolTableRecord
100
AcDbLinetypeTableRecord
  2
CACHE2
 70
     0
  3
_ _ _ _ _ _ _ _ _ _ _ _ _ _ _ _ _ _ _ _ _ _ _ _
 72
    65
 73
     2
 40
0.1875
 49
0.125
 74
     0
 49
-0.0625
 74
     0
  0
LTYPE
  5
121
100
AcDbSymbolTableRecord
100
AcDbLinetypeTableRecord
  2
CACHEX2
 70
     0
  3
____ ____ ____ ____ ____ ____ ____ ____ ____ __
 72
    65
 73
     2
 40
0.75
 49
0.5
 74
     0
 49
-0.25
 74
     0
  0
ENDTAB
  0
TABLE
  2
LAYER
  5
EE
100
AcDbSymbolTable
 70
    21
  0
LAYER
  5
FA
100
AcDbSymbolTableRecord
100
AcDbLayerTableRecord
  2
0
 70
     0
 62
     7
  6
CONTINUOUS
  0
LAYER
  5
12C
100
AcDbSymbolTableRecord
100
AcDbLayerTableRecord
  2
ALPHA
 70
     0
 62
   255
  6
CONTINUOUS
  0
LAYER
  5
12F
100
AcDbSymbolTableRecord
100
AcDbLayerTableRecord
  2
COTATION1
 70
     0
 62
     2
  6
CONTINUOUS
  0
LAYER
  5
132
100
AcDbSymbolTableRecord
100
AcDbLayerTableRecord
  2
TEXTE
 70
     0
 62
   131
  6
CONTINUOUS
  0
LAYER
  5
13B
100
AcDbSymbolTableRecord
100
AcDbLayerTableRecord
  2
ASHADE
 70
     0
 62
     7
  6
CONTINUOUS
  0
LAYER
  5
13E
100
AcDbSymbolTableRecord
100
AcDbLayerTableRecord
  2
DEFPOINTS
 70
     0
 62
     7
  6
CONTINUOUS
  0
ENDTAB
  0
TABLE
  2
STYLE
  5
EF
100
AcDbSymbolTable
 70
     4
  0
STYLE
  5
FB
100
AcDbSymbolTableRecord
100
AcDbTextStyleTableRecord
  2
STANDARD
 70
     0
 40
0.0
 41
1.0
 50
0.0
 71
     0
 42
2.5
  3
txt
  4

  0
ENDTAB
  0
TABLE
  2
VIEW
  5
F2
100
AcDbSymbolTable
 70
     0
  0
ENDTAB
  0
TABLE
  2
UCS
  5
F3
100
AcDbSymbolTable
 70
     0
  0
ENDTAB
  0
TABLE
  2
APPID
  5
F5
100
AcDbSymbolTable
 70
     3
  0
APPID
  5
FC
100
AcDbSymbolTableRecord
100
AcDbRegAppTableRecord
  2
ACAD
 70
     0
  0
APPID
  5
127
100
AcDbSymbolTableRecord
100
AcDbRegAppTableRecord
  2
AVE_RENDER
 70
     0
  0
APPID
  5
128
100
AcDbSymbolTableRecord
100
AcDbRegAppTableRecord
  2
AVE_MATERIAL
 70
     0
  0
ENDTAB
  0
TABLE
  2
DIMSTYLE
  5
F6
100
AcDbSymbolTable
 70
     2
  0
DIMSTYLE
105
129
100
AcDbSymbolTableRecord
100
AcDbDimStyleTableRecord
  2
STANDARD
 70
     0
  3

  4

  5

  6

  7

 40
1.0
 41
0.18
 42
0.0625
 43
0.38
 44
0.18
 45
0.0
 46
0.0
 47
0.0
 48
0.0
140
0.18
141
0.09
142
0.0
143
25.4
144
1.0
145
0.0
146
1.0
147
0.09
 71
     0
 72
     0
 73
     1
 74
     1
 75
     0
 76
     0
 77
     0
 78
     0
170
     0
171
     2
172
     0
173
     0
174
     0
175
     0
176
     0
177
     0
178
     0
270
     2
271
     3
272
     3
273
     2
274
     2
340
FB
275
     0
280
     0
281
     0
282
     0
283
     1
284
    12
285
    12
286
    12
287
     5
288
     0
  0
DIMSTYLE
105
12A
102
{ACAD_REACTORS
330
6D3
330
6E0
102
}
100
AcDbSymbolTableRecord
100
AcDbDimStyleTableRecord
  2
SC_STAND
 70
     0
  3

  4

  5

  6

  7

 40
1.0
 41
3.0
 42
0.0625
 43
0.38
 44
0.18
 45
0.01
 46
0.0
 47
0.0
 48
0.0
140
2.5
141
0.09
142
0.0
143
25.4
144
1.0
145
0.0
146
1.0
147
1.0
 71
     0
 72
     0
 73
     0
 74
     0
 75
     0
 76
     0
 77
     1
 78
    12
170
     0
171
     2
172
     1
173
     0
174
     0
175
     0
176
     0
177
     0
178
     0
270
     2
271
     3
272
     3
273
     2
274
     2
340
FB
275
     0
280
     0
281
     0
282
     0
283
     1
284
    12
285
    12
286
    12
287
     5
288
     0
  0
ENDTAB
  0
TABLE
  2
BLOCK_RECORD
  5
ED
100
AcDbSymbolTable
 70
     9
  0
BLOCK_RECORD
  5
103
100
AcDbSymbolTableRecord
100
AcDbBlockTableRecord
  2
*MODEL_SPACE
  0
BLOCK_RECORD
  5
100
100
AcDbSymbolTableRecord
100
AcDbBlockTableRecord
  2
*PAPER_SPACE
  0
BLOCK_RECORD
  5
108
100
AcDbSymbolTableRecord
100
AcDbBlockTableRecord
  2
AVE_RENDER
  0
BLOCK_RECORD
  5
109
100
AcDbSymbolTableRecord
100
AcDbBlockTableRecord
  2
AVE_GLOBAL
  0
BLOCK_RECORD
  5
10A
100
AcDbSymbolTableRecord
100
AcDbBlockTableRecord
  2
SCH_IS
  0
BLOCK_RECORD
  5
14D
100
AcDbSymbolTableRecord
100
AcDbBlockTableRecord
  2
AI9-BLK1
  0
BLOCK_RECORD
  5
6C7
100
AcDbSymbolTableRecord
100
AcDbBlockTableRecord
  2
*D7
  0
BLOCK_RECORD
  5
6D4
100
AcDbSymbolTableRecord
100
AcDbBlockTableRecord
  2
*D8
  0
ENDTAB
  0
ENDSEC
  0
SECTION
  2
BLOCKS
  0
BLOCK
  5
141
100
AcDbEntity
  8
0
100
AcDbBlockBegin
  2
*MODEL_SPACE
 70
     0
 10
0.0
 20
0.0
 30
0.0
  3
*MODEL_SPACE
  1

  0
ENDBLK
  5
142
100
AcDbEntity
  8
0
100
AcDbBlockEnd
  0
BLOCK
  5
13F
100
AcDbEntity
 67
     1
  8
0
100
AcDbBlockBegin
  2
*PAPER_SPACE
 70
     0
 10
0.0
 20
0.0
 30
0.0
  3
*PAPER_SPACE
  1

  0
ENDBLK
  5
140
100
AcDbEntity
 67
     1
  8
0
100
AcDbBlockEnd
  0
BLOCK
  5
8D
100
AcDbEntity
  8
0
100
AcDbBlockBegin
  2
AVE_RENDER
 70
     0
 10
0.0
 20
0.0
 30
0.0
  3
AVE_RENDER
  1
AVE_RENDER
  0
ENDBLK
  5
8E
100
AcDbEntity
  8
0
100
AcDbBlockEnd
  0
BLOCK
  5
90
100
AcDbEntity
  8
0
100
AcDbBlockBegin
  2
AVE_GLOBAL
 70
     0
 10
0.0
 20
0.0
 30
0.0
  3
AVE_GLOBAL
  1
AVE_GLOBAL
  0
ENDBLK
  5
91
100
AcDbEntity
  8
0
100
AcDbBlockEnd
  0
BLOCK
  5
C9
100
AcDbEntity
  8
0
100
AcDbBlockBegin
  2
SCH_IS
 70
     0
 10
0.0
 20
0.0
 30
0.0
  3
SCH_IS
  1

  0
INSERT
  5
C0
100
AcDbEntity
  8
ASHADE
 62
     1
100
AcDbBlockReference
  2
AVE_RENDER
 10
0.0
 20
0.0
 30
0.0
1001
AVE_RENDER
1002
{
1070
     6
1000
Pref
1070
    50
1070
    20
1070
     1
1070
     0
1000

1070
    10
1070
     1
1070
    30
1040
25.4
1070
     1
1040
0.3
1040
0.7
1040
0.0
1040
10.0
1010
-1.0
1020
-1.0
1030
-1.0
1040
0.3
1070
    49
1070
     0
1070
     0
1010
1.0
1020
1.0
1030
1.0
1040
45.0
1070
     1
1070
     0
1000
WCS
1040
0.0
1002
}
  0
INSERT
  5
C1
100
AcDbEntity
  8
ASHADE
 62
     3
100
AcDbBlockReference
  2
AVE_RENDER
 10
0.0
 20
0.0
 30
0.0
1001
AVE_RENDER
1002
{
1070
     0
1000
Full Opt
1070
     0
1070
     1
1070
     1
1070
     1
1070
     0
1070
     0
1070
     0
1070
     1
1070
     1
1040
0.0001
1040
0.0001
1002
}
  0
INSERT
  5
C2
100
AcDbEntity
  8
ASHADE
 62
     4
100
AcDbBlockReference
  2
AVE_RENDER
 10
0.0
 20
0.0
 30
0.0
1001
AVE_RENDER
1002
{
1070
     0
1000
Quick Opt
1070
     0
1070
     1
1070
     1
1070
     1
1070
     0
1070
     0
1070
     1
1002
}
  0
INSERT
  5
C3
100
AcDbEntity
  8
ASHADE
 62
     5
100
AcDbBlockReference
  2
AVE_RENDER
 10
0.0
 20
0.0
 30
0.0
1001
AVE_RENDER
1002
{
1070
     1
1000
Scanl Opt
1070
     2
1070
     0
1070
     2
1040
2.0
1040
4.0
1070
     0
1070
     1
1070
     0
1040
0.03
1002
}
  0
INSERT
  5
C4
100
AcDbEntity
  8
ASHADE
 62
     6
100
AcDbBlockReference
  2
AVE_RENDER
 10
0.0
 20
0.0
 30
0.0
1001
AVE_RENDER
1002
{
1070
     2
1000
Raytr Opt
1070
     2
1070
     0
1070
     2
1040
2.0
1040
4.0
1070
     0
1070
     1
1070
     1
1040
0.03
1070
     3
1040
0.03
1002
}
  0
INSERT
  5
C5
100
AcDbEntity
  8
ASHADE
 62
     7
100
AcDbBlockReference
  2
AVE_RENDER
 10
0.0
 20
0.0
 30
0.0
1001
AVE_RENDER
1002
{
1070
     0
1000
RFile Opt
1070
     5
1070
   640
1070
   480
1070
 10000
1070
     3
1070
    32
1070
    24
1070
     0
1070
     0
1070
     0
1070
     1
1070
     0
1070
     0
1070
     0
1002
}
  0
INSERT
  5
C6
100
AcDbEntity
  8
ASHADE
 62
     8
100
AcDbBlockReference
  2
AVE_RENDER
 10
0.0
 20
0.0
 30
0.0
1001
AVE_RENDER
1002
{
1070
     0
1000
Fog Opt
1070
     0
1070
     0
1040
0.0
1040
1.0
1040
0.0
1040
1.0
1010
0.5
1020
0.5
1030
0.5
1002
}
  0
INSERT
  5
C7
100
AcDbEntity
  8
ASHADE
 62
     9
100
AcDbBlockReference
  2
AVE_RENDER
 10
0.0
 20
0.0
 30
0.0
1001
AVE_RENDER
1002
{
1070
     0
1000
BG Opt
1070
     0
1070
     1
1010
0.0
1020
0.0
1030
0.0
1010
1.0
1020
0.0
1030
0.0
1010
0.0
1020
1.0
1030
0.0
1010
0.0
1020
0.0
1030
1.0
1040
0.5
1040
0.33
1040
0.0
1000

1070
     1
1000

1070
     1
1070
     1
1040
1.0
1040
1.0
1040
0.0
1040
0.0
1070
     0
1002
}
  0
INSERT
  5
C8
100
AcDbEntity
  8
ASHADE
 62
     1
100
AcDbBlockReference
  2
AVE_GLOBAL
 10
0.0
 20
0.0
 30
0.0
1001
AVE_MATERIAL
1002
{
1000
*GLOBAL*
1000
1
1000
Finition globale.
1002
{
1002
}
1002
{
1070
    63
1002
{
1002
{
1010
-1.0
1020
-1.0
1030
-1.0
1002
}
1040
0.1
1000

1040
0.0
1002
{
1002
}
1040
0.0
1002
{
1002
}
1040
0.0
1002
}
1002
{
1002
{
1010
-1.0
1020
-1.0
1030
-1.0
1002
}
1040
0.7
1000

1040
0.0
1002
{
1002
}
1040
0.0
1002
{
1002
}
1040
0.0
1002
}
1002
{
1002
{
1010
-1.0
1020
-1.0
1030
-1.0
1002
}
1040
0.2
1000

1040
0.0
1002
{
1002
}
1040
0.0
1002
{
1002
}
1040
0.0
1002
}
1002
{
1070
     0
1002
{
1070
     1
1002
{
1040
1.0
1040
1.0
1000

1040
0.0
1002
{
1002
}
1040
0.0
1002
{
1002
}
1040
0.0
1002
}
1002
}
1040
1.0
1040
0.0
1040
0.0
1002
}
1002
{
1040
1.0
1040
1.0
1000

1040
0.0
1002
{
1002
}
1040
0.0
1002
{
1002
}
1040
0.0
1002
}
1002
{
1040
0.5
1040
1.0
1000

1040
0.0
1002
{
1002
}
1040
0.0
1002
{
1002
}
1040
0.0
1002
}
1002
{
1070
     0
1040
0.0
1002
{
1002
}
1040
1.0
1002
{
1002
}
1040
0.0
1002
}
1002
{
1040
0.0
1002
{
1002
{
1010
0.0
1020
0.0
1030
0.0
1002
}
1040
1.0
1000

1040
0.0
1002
{
1002
}
1040
0.0
1002
{
1002
}
1040
0.0
1002
}
1002
}
1002
{
1002
{
1070
     1
1002
{
1040
0.0
1040
1.0
1000

1040
0.0
1002
{
1002
}
1040
0.0
1002
{
1002
}
1040
0.0
1002
}
1002
}
1040
0.0
1002
{
1002
}
1010
1.0
1020
0.0
1030
0.0
1010
0.0
1020
1.0
1030
0.0
1010
0.0
1020
0.0
1030
1.0
1070
     0
1002
}
1002
{
1002
{
1040
1.0
1040
1.0
1002
{
1070
     1
1002
{
1040
1.0
1040
1.0
1000

1040
0.0
1002
{
1002
}
1040
0.0
1002
{
1002
}
1040
0.0
1002
}
1002
}
1002
}
1070
     0
1040
0.0
1002
{
1002
}
1002
}
1002
{
1002
}
1002
}
1002
{
1071
        3
1070
     3
1070
     0
1002
{
1070
     2
1070
     0
1070
     0
1040
0.0
1002
}
1070
     0
1070
     2
1002
{
1002
}
1002
}
1002
{
1040
8030.0
1040
190.300003
1040
0.305
1040
228.0
1040
545.0
1040
14.0
1040
17.4
1040
0.456
1002
}
1002
}
  0
ENDBLK
  5
CA
100
AcDbEntity
  8
0
100
AcDbBlockEnd
  0
BLOCK
  5
232
100
AcDbEntity
  8
ALPHA
 62
     7
100
AcDbBlockBegin
  2
AI9-BLK1
 70
     0
 10
0.0
 20
0.0
 30
0.0
  3
AI9-BLK1
  1

  0
SPLINE
  5
14E
100
AcDbEntity
  8
ALPHA
 62
     7
100
AcDbSpline
210
0.0
220
0.0
230
-1.0
 70
    11
 71
     3
 72
    29
 73
    25
 74
     0
 42
0.0000001
 43
0.0000001
 40
0.0
 40
0.0
 40
0.0
 40
0.0
 40
1.0
 40
1.0
 40
1.0
 40
2.0
 40
2.0
 40
2.0
 40
3.0
 40
3.0
 40
3.0
 40
4.0
 40
4.0
 40
4.0
 40
5.0
 40
5.0
 40
5.0
 40
6.0
 40
6.0
 40
6.0
 40
7.0
 40
7.0
 40
7.0
 40
8.0
 40
8.0
 40
8.0
 40
8.0
 10
146.0000891791449
 20
-98.25020446777344
 30
0.0
 10
146.0000891791449
 20
-99.90660637749565
 30
0.0
 10
144.6571909586588
 20
-101.2501936170789
 30
0.0
 10
143.0001000298393
 20
-101.2501936170789
 30
0.0
 10
143.0001000298393
 20
-101.2501936170789
 30
0.0
 10
-143.0000139024522
 20
-101.2501936170789
 30
0.0
 10
-143.0000139024522
 20
-101.2501936170789
 30
0.0
 10
-144.656760321723
 20
-101.2501936170789
 30
0.0
 10
-146.0000030517577
 20
-99.90660637749565
 30
0.0
 10
-146.0000030517577
 20
-98.25020446777344
 30
0.0
 10
-146.0000030517577
 20
-98.25020446777344
 30
0.0
 10
-146.0000030517577
 20
98.25011834038628
 30
0.0
 10
-146.0000030517577
 20
98.25011834038628
 30
0.0
 10
-146.0000030517577
 20
99.90686475965711
 30
0.0
 10
-144.656760321723
 20
101.2501074896918
 30
0.0
 10
-143.0000139024522
 20
101.2501074896918
 30
0.0
 10
-143.0000139024522
 20
101.2501074896918
 30
0.0
 10
143.0001000298393
 20
101.2501074896918
 30
0.0
 10
143.0001000298393
 20
101.2501074896918
 30
0.0
 10
144.6571909586588
 20
101.2501074896918
 30
0.0
 10
146.0000891791449
 20
99.90686475965711
 30
0.0
 10
146.0000891791449
 20
98.25011834038628
 30
0.0
 10
146.0000891791449
 20
98.25011834038628
 30
0.0
 10
146.0000891791449
 20
-98.25020446777344
 30
0.0
 10
146.0000891791449
 20
-98.25020446777344
 30
0.0
  0
SPLINE
  5
14F
100
AcDbEntity
  8
ALPHA
 62
     7
100
AcDbSpline
210
0.0
220
0.0
230
-1.0
 70
    11
 71
     3
 72
    29
 73
    25
 74
     0
 42
0.0000001
 43
0.0000001
 40
0.0
 40
0.0
 40
0.0
 40
0.0
 40
1.0
 40
1.0
 40
1.0
 40
2.0
 40
2.0
 40
2.0
 40
3.0
 40
3.0
 40
3.0
 40
4.0
 40
4.0
 40
4.0
 40
5.0
 40
5.0
 40
5.0
 40
6.0
 40
6.0
 40
6.0
 40
7.0
 40
7.0
 40
7.0
 40
8.0
 40
8.0
 40
8.0
 40
8.0
 10
76.18936326768663
 20
40.38818935818142
 30
0.0
 10
77.01894226074218
 20
40.38818935818142
 30
0.0
 10
77.69142489963107
 20
41.0606719970703
 30
0.0
 10
77.69142489963107
 20
41.88887295193142
 30
0.0
 10
77.69142489963107
 20
41.88887295193142
 30
0.0
 10
77.87056986490885
 20
67.24339769151474
 30
0.0
 10
77.87056986490885
 20
67.24339769151474
 30
0.0
 10
77.87056986490885
 20
68.0757327609592
 30
0.0
 10
77.19808722601996
 20
68.74683736165363
 30
0.0
 10
76.36437411838106
 20
68.74683736165363
 30
0.0
 10
76.36437411838106
 20
68.74683736165363
 30
0.0
 10
-76.01202697753905
 20
68.92460428873697
 30
0.0
 10
-76.01202697753905
 20
68.92460428873697
 30
0.0
 10
-76.84022793240017
 20
68.92460428873697
 30
0.0
 10
-77.51271057128906
 20
68.25074361165363
 30
0.0
 10
-77.51271057128906
 20
67.42116461859808
 30
0.0
 10
-77.51271057128906
 20
67.42116461859808
 30
0.0
 10
-77.69185553656683
 20
41.88887295193142
 30
0.0
 10
-77.69185553656683
 20
41.88887295193142
 30
0.0
 10
-77.69185553656683
 20
41.0606719970703
 30
0.0
 10
-77.01937289767794
 20
40.38818935818142
 30
0.0
 10
-76.1870378282335
 20
40.38818935818142
 30
0.0
 10
-76.1870378282335
 20
40.38818935818142
 30
0.0
 10
76.18936326768663
 20
40.38818935818142
 30
0.0
 10
76.18936326768663
 20
40.38818935818142
 30
0.0
  0
POLYLINE
  5
150
100
AcDbEntity
  8
ALPHA
 62
     7
100
AcDb2dPolyline
 66
     1
 10
0.0
 20
0.0
 30
0.0
 70
     1
  0
VERTEX
  5
151
100
AcDbEntity
  8
ALPHA
 62
     7
100
AcDbVertex
100
AcDb2dVertex
 10
77.691425
 20
-84.679973
 30
0.0
  0
VERTEX
  5
152
100
AcDbEntity
  8
ALPHA
 62
     7
100
AcDbVertex
100
AcDb2dVertex
 10
77.691425
 20
25.69279
 30
0.0
  0
VERTEX
  5
153
100
AcDbEntity
  8
ALPHA
 62
     7
100
AcDbVertex
100
AcDb2dVertex
 10
-77.691856
 20
25.69279
 30
0.0
  0
VERTEX
  5
154
100
AcDbEntity
  8
ALPHA
 62
     7
100
AcDbVertex
100
AcDb2dVertex
 10
-77.691856
 20
-84.679973
 30
0.0
  0
SEQEND
  5
155
100
AcDbEntity
  8
ALPHA
 62
     7
  0
POLYLINE
  5
156
100
AcDbEntity
  8
ALPHA
 62
     7
100
AcDb2dPolyline
 66
     1
 10
0.0
 20
0.0
 30
0.0
 70
     1
  0
VERTEX
  5
157
100
AcDbEntity
  8
ALPHA
 62
     7
100
AcDbVertex
100
AcDb2dVertex
 10
-36.28198
 20
-29.293862
 30
0.0
  0
VERTEX
  5
158
100
AcDbEntity
  8
ALPHA
 62
     7
100
AcDbVertex
100
AcDb2dVertex
 10
-41.795511
 20
-25.282393
 30
0.0
  0
VERTEX
  5
159
100
AcDbEntity
  8
ALPHA
 62
     7
100
AcDbVertex
100
AcDb2dVertex
 10
-41.795511
 20
-25.282393
 30
0.0
  0
VERTEX
  5
15A
100
AcDbEntity
  8
ALPHA
 62
     7
100
AcDbVertex
100
AcDb2dVertex
 10
-47.307664
 20
-29.293862
 30
0.0
  0
VERTEX
  5
15B
100
AcDbEntity
  8
ALPHA
 62
     7
100
AcDbVertex
100
AcDb2dVertex
 10
-44.558477
 20
-29.297996
 30
0.0
  0
VERTEX
  5
15C
100
AcDbEntity
  8
ALPHA
 62
     7
100
AcDbVertex
100
AcDb2dVertex
 10
-44.558477
 20
-32.304876
 30
0.0
  0
VERTEX
  5
15D
100
AcDbEntity
  8
ALPHA
 62
     7
100
AcDbVertex
100
AcDb2dVertex
 10
-39.046325
 20
-32.304876
 30
0.0
  0
VERTEX
  5
15E
100
AcDbEntity
  8
ALPHA
 62
     7
100
AcDbVertex
100
AcDb2dVertex
 10
-39.046325
 20
-29.297996
 30
0.0
  0
SEQEND
  5
15F
100
AcDbEntity
  8
ALPHA
 62
     7
  0
POLYLINE
  5
160
100
AcDbEntity
  8
ALPHA
 62
     7
100
AcDb2dPolyline
 66
     1
 10
0.0
 20
0.0
 30
0.0
 70
     1
  0
VERTEX
  5
161
100
AcDbEntity
  8
ALPHA
 62
     7
100
AcDbVertex
100
AcDb2dVertex
 10
-23.222312
 20
-53.379214
 30
0.0
  0
VERTEX
  5
162
100
AcDbEntity
  8
ALPHA
 62
     7
100
AcDbVertex
100
AcDb2dVertex
 10
-19.210843
 20
-47.865683
 30
0.0
  0
VERTEX
  5
163
100
AcDbEntity
  8
ALPHA
 62
     7
100
AcDbVertex
100
AcDb2dVertex
 10
-19.210843
 20
-47.865683
 30
0.0
  0
VERTEX
  5
164
100
AcDbEntity
  8
ALPHA
 62
     7
100
AcDbVertex
100
AcDb2dVertex
 10
-23.222312
 20
-42.349396
 30
0.0
  0
VERTEX
  5
165
100
AcDbEntity
  8
ALPHA
 62
     7
100
AcDbVertex
100
AcDb2dVertex
 10
-23.231958
 20
-45.102716
 30
0.0
  0
VERTEX
  5
166
100
AcDbEntity
  8
ALPHA
 62
     7
100
AcDbVertex
100
AcDb2dVertex
 10
-26.238838
 20
-45.102716
 30
0.0
  0
VERTEX
  5
167
100
AcDbEntity
  8
ALPHA
 62
     7
100
AcDbVertex
100
AcDb2dVertex
 10
-26.238838
 20
-50.614869
 30
0.0
  0
VERTEX
  5
168
100
AcDbEntity
  8
ALPHA
 62
     7
100
AcDbVertex
100
AcDb2dVertex
 10
-23.231958
 20
-50.614869
 30
0.0
  0
SEQEND
  5
169
100
AcDbEntity
  8
ALPHA
 62
     7
  0
POLYLINE
  5
16A
100
AcDbEntity
  8
ALPHA
 62
     7
100
AcDb2dPolyline
 66
     1
 10
0.0
 20
0.0
 30
0.0
 70
     1
  0
VERTEX
  5
16B
100
AcDbEntity
  8
ALPHA
 62
     7
100
AcDbVertex
100
AcDb2dVertex
 10
-60.367159
 20
-42.349396
 30
0.0
  0
VERTEX
  5
16C
100
AcDbEntity
  8
ALPHA
 62
     7
100
AcDbVertex
100
AcDb2dVertex
 10
-64.378629
 20
-47.865683
 30
0.0
  0
VERTEX
  5
16D
100
AcDbEntity
  8
ALPHA
 62
     7
100
AcDbVertex
100
AcDb2dVertex
 10
-64.378629
 20
-47.865683
 30
0.0
  0
VERTEX
  5
16E
100
AcDbEntity
  8
ALPHA
 62
     7
100
AcDbVertex
100
AcDb2dVertex
 10
-60.367159
 20
-53.379214
 30
0.0
  0
VERTEX
  5
16F
100
AcDbEntity
  8
ALPHA
 62
     7
100
AcDbVertex
100
AcDb2dVertex
 10
-60.363025
 20
-50.62865
 30
0.0
  0
VERTEX
  5
170
100
AcDbEntity
  8
ALPHA
 62
     7
100
AcDbVertex
100
AcDb2dVertex
 10
-57.356146
 20
-50.62865
 30
0.0
  0
VERTEX
  5
171
100
AcDbEntity
  8
ALPHA
 62
     7
100
AcDbVertex
100
AcDb2dVertex
 10
-57.356146
 20
-45.112363
 30
0.0
  0
VERTEX
  5
172
100
AcDbEntity
  8
ALPHA
 62
     7
100
AcDbVertex
100
AcDb2dVertex
 10
-60.363025
 20
-45.112363
 30
0.0
  0
SEQEND
  5
173
100
AcDbEntity
  8
ALPHA
 62
     7
  0
POLYLINE
  5
174
100
AcDbEntity
  8
ALPHA
 62
     7
100
AcDb2dPolyline
 66
     1
 10
0.0
 20
0.0
 30
0.0
 70
     1
  0
VERTEX
  5
175
100
AcDbEntity
  8
ALPHA
 62
     7
100
AcDbVertex
100
AcDb2dVertex
 10
-47.307664
 20
-66.438882
 30
0.0
  0
VERTEX
  5
176
100
AcDbEntity
  8
ALPHA
 62
     7
100
AcDbVertex
100
AcDb2dVertex
 10
-41.795511
 20
-70.444839
 30
0.0
  0
VERTEX
  5
177
100
AcDbEntity
  8
ALPHA
 62
     7
100
AcDbVertex
100
AcDb2dVertex
 10
-41.795511
 20
-70.444839
 30
0.0
  0
VERTEX
  5
178
100
AcDbEntity
  8
ALPHA
 62
     7
100
AcDbVertex
100
AcDb2dVertex
 10
-36.28198
 20
-66.438882
 30
0.0
  0
VERTEX
  5
179
100
AcDbEntity
  8
ALPHA
 62
     7
100
AcDbVertex
100
AcDb2dVertex
 10
-39.032544
 20
-66.429236
 30
0.0
  0
VERTEX
  5
17A
100
AcDbEntity
  8
ALPHA
 62
     7
100
AcDbVertex
100
AcDb2dVertex
 10
-39.032544
 20
-63.422356
 30
0.0
  0
VERTEX
  5
17B
100
AcDbEntity
  8
ALPHA
 62
     7
100
AcDbVertex
100
AcDb2dVertex
 10
-44.544697
 20
-63.422356
 30
0.0
  0
VERTEX
  5
17C
100
AcDbEntity
  8
ALPHA
 62
     7
100
AcDbVertex
100
AcDb2dVertex
 10
-44.544697
 20
-66.429236
 30
0.0
  0
SEQEND
  5
17D
100
AcDbEntity
  8
ALPHA
 62
     7
  0
SPLINE
  5
17E
100
AcDbEntity
  8
ALPHA
 62
     7
100
AcDbSpline
210
0.0
220
0.0
230
-1.0
 70
     8
 71
     3
 72
    17
 73
    13
 74
     0
 42
0.0000001
 43
0.0000001
 40
0.0
 40
0.0
 40
0.0
 40
0.0
 40
1.0
 40
1.0
 40
1.0
 40
2.0
 40
2.0
 40
2.0
 40
3.0
 40
3.0
 40
3.0
 40
4.0
 40
4.0
 40
4.0
 40
4.0
 10
-48.39906989203559
 20
-38.33792690700954
 30
0.0
 10
-48.39906989203559
 20
-38.33792690700954
 30
0.0
 10
-48.39906989203559
 20
-34.95759921603732
 30
0.0
 10
-48.39906989203559
 20
-34.95759921603732
 30
0.0
 10
-48.39906989203559
 20
-34.95759921603732
 30
0.0
 10
-48.40320400661892
 20
-34.95346510145399
 30
0.0
 10
-48.40320400661892
 20
-34.95346510145399
 30
0.0
 10
-49.89975348578559
 20
-33.34667256673176
 30
0.0
 10
-50.81614888509114
 20
-31.18590867784288
 30
0.0
 10
-50.81614888509114
 20
-28.81017083062065
 30
0.0
 10
-50.81614888509114
 20
-24.42525329589843
 30
0.0
 10
-47.6893802218967
 20
-20.76931796603732
 30
0.0
 10
-43.54010721842447
 20
-19.95903150770399
 30
0.0
  0
SPLINE
  5
17F
100
AcDbEntity
  8
ALPHA
 62
     7
100
AcDbSpline
210
0.0
220
0.0
230
1.0
 70
     8
 71
     3
 72
    17
 73
    13
 74
     0
 42
0.0000001
 43
0.0000001
 40
0.0
 40
0.0
 40
0.0
 40
0.0
 40
1.0
 40
1.0
 40
1.0
 40
2.0
 40
2.0
 40
2.0
 40
3.0
 40
3.0
 40
3.0
 40
4.0
 40
4.0
 40
4.0
 40
4.0
 10
-40.0495364718967
 20
-19.95903150770399
 30
0.0
 10
-35.9043975830078
 20
-20.76931796603732
 30
0.0
 10
-32.77349480523003
 20
-24.42525329589843
 30
0.0
 10
-32.77349480523003
 20
-28.81017083062065
 30
0.0
 10
-32.77349480523003
 20
-31.28237135145399
 30
0.0
 10
-33.76292622884114
 20
-33.51617126464843
 30
0.0
 10
-35.37109680175781
 20
-35.14639044867621
 30
0.0
 10
-35.37109680175781
 20
-35.14639044867621
 30
0.0
 10
-35.36558464898003
 20
-35.15603671603732
 30
0.0
 10
-35.36558464898003
 20
-35.15603671603732
 30
0.0
 10
-35.36558464898003
 20
-35.15603671603732
 30
0.0
 10
-35.36558464898003
 20
-38.33792690700954
 30
0.0
 10
-35.36558464898003
 20
-38.33792690700954
 30
0.0
  0
SPLINE
  5
180
100
AcDbEntity
  8
ALPHA
 62
     7
100
AcDbSpline
210
0.0
220
0.0
230
-1.0
 70
     8
 71
     3
 72
    17
 73
    13
 74
     0
 42
0.0000001
 43
0.0000001
 40
0.0
 40
0.0
 40
0.0
 40
0.0
 40
1.0
 40
1.0
 40
1.0
 40
2.0
 40
2.0
 40
2.0
 40
3.0
 40
3.0
 40
3.0
 40
4.0
 40
4.0
 40
4.0
 40
4.0
 10
-32.35870530870225
 20
-41.3503184000651
 30
0.0
 10
-32.35870530870225
 20
-41.3503184000651
 30
0.0
 10
-28.9742435031467
 20
-41.3503184000651
 30
0.0
 10
-28.9742435031467
 20
-41.3503184000651
 30
0.0
 10
-28.9742435031467
 20
-41.3503184000651
 30
0.0
 10
-28.9742435031467
 20
-41.34480624728732
 30
0.0
 10
-28.9742435031467
 20
-41.34480624728732
 30
0.0
 10
-27.3619388156467
 20
-39.84825676812065
 30
0.0
 10
-25.20255296495225
 20
-38.9318613688151
 30
0.0
 10
-22.83094923231336
 20
-38.9318613688151
 30
0.0
 10
-18.44740973578558
 20
-38.9318613688151
 30
0.0
 10
-14.79009636773003
 20
-42.05863003200954
 30
0.0
 10
-13.9798099093967
 20
-46.20790303548176
 30
0.0
  0
SPLINE
  5
181
100
AcDbEntity
  8
ALPHA
 62
     7
100
AcDbSpline
210
0.0
220
0.0
230
1.0
 70
     8
 71
     3
 72
    17
 73
    13
 74
     0
 42
0.0000001
 43
0.0000001
 40
0.0
 40
0.0
 40
0.0
 40
0.0
 40
1.0
 40
1.0
 40
1.0
 40
2.0
 40
2.0
 40
2.0
 40
3.0
 40
3.0
 40
3.0
 40
4.0
 40
4.0
 40
4.0
 40
4.0
 10
-13.9798099093967
 20
-49.69847378200954
 30
0.0
 10
-14.79009636773003
 20
-53.84361267089843
 30
0.0
 10
-18.44740973578558
 20
-56.97589348687065
 30
0.0
 10
-22.83094923231336
 20
-56.97589348687065
 30
0.0
 10
-25.29901563856336
 20
-56.97589348687065
 30
0.0
 10
-27.53694966634114
 20
-55.9850840250651
 30
0.0
 10
-29.16716885036892
 20
-54.37829149034287
 30
0.0
 10
-29.16716885036892
 20
-54.37829149034287
 30
0.0
 10
-29.17681511773003
 20
-54.38242560492621
 30
0.0
 10
-29.17681511773003
 20
-54.38242560492621
 30
0.0
 10
-29.17681511773003
 20
-54.38242560492621
 30
0.0
 10
-32.35870530870225
 20
-54.38242560492621
 30
0.0
 10
-32.35870530870225
 20
-54.38242560492621
 30
0.0
  0
SPLINE
  5
182
100
AcDbEntity
  8
ALPHA
 62
     7
100
AcDbSpline
210
0.0
220
0.0
230
1.0
 70
     8
 71
     3
 72
    17
 73
    13
 74
     0
 42
0.0000001
 43
0.0000001
 40
0.0
 40
0.0
 40
0.0
 40
0.0
 40
1.0
 40
1.0
 40
1.0
 40
2.0
 40
2.0
 40
2.0
 40
3.0
 40
3.0
 40
3.0
 40
4.0
 40
4.0
 40
4.0
 40
4.0
 10
-35.36558464898003
 20
-57.38930494520399
 30
0.0
 10
-35.36558464898003
 20
-57.38930494520399
 30
0.0
 10
-35.36558464898003
 20
-60.77514478895398
 30
0.0
 10
-35.36558464898003
 20
-60.77514478895398
 30
0.0
 10
-35.36558464898003
 20
-60.77514478895398
 30
0.0
 10
-35.36558464898003
 20
-60.77514478895398
 30
0.0
 10
-35.36558464898003
 20
-60.77514478895398
 30
0.0
 10
-33.86490105523003
 20
-62.38607143825954
 30
0.0
 10
-32.94850565592447
 20
-64.54683532714843
 30
0.0
 10
-32.94850565592447
 20
-66.91843905978732
 30
0.0
 10
-32.94850565592447
 20
-71.30197855631509
 30
0.0
 10
-36.07940843370225
 20
-74.95791388617622
 30
0.0
 10
-40.22868143717447
 20
-75.76957838270399
 30
0.0
  0
SPLINE
  5
183
100
AcDbEntity
  8
ALPHA
 62
     7
100
AcDbSpline
210
0.0
220
0.0
230
-1.0
 70
     8
 71
     3
 72
    17
 73
    13
 74
     0
 42
0.0000001
 43
0.0000001
 40
0.0
 40
0.0
 40
0.0
 40
0.0
 40
1.0
 40
1.0
 40
1.0
 40
2.0
 40
2.0
 40
2.0
 40
3.0
 40
3.0
 40
3.0
 40
4.0
 40
4.0
 40
4.0
 40
4.0
 10
-43.71511806911892
 20
-75.76957838270399
 30
0.0
 10
-47.86439107259114
 20
-74.95791388617622
 30
0.0
 10
-50.99667188856336
 20
-71.30197855631509
 30
0.0
 10
-50.99667188856336
 20
-66.91843905978732
 30
0.0
 10
-50.99667188856336
 20
-64.44899461534287
 30
0.0
 10
-50.00172831217447
 20
-62.2110605875651
 30
0.0
 10
-48.39493577745225
 20
-60.58084140353732
 30
0.0
 10
-48.39493577745225
 20
-60.58084140353732
 30
0.0
 10
-48.39906989203559
 20
-60.57257317437065
 30
0.0
 10
-48.39906989203559
 20
-60.57257317437065
 30
0.0
 10
-48.39906989203559
 20
-60.57257317437065
 30
0.0
 10
-48.39906989203559
 20
-57.38930494520399
 30
0.0
 10
-48.39906989203559
 20
-57.38930494520399
 30
0.0
  0
SPLINE
  5
184
100
AcDbEntity
  8
ALPHA
 62
     7
100
AcDbSpline
210
0.0
220
0.0
230
1.0
 70
     8
 71
     3
 72
    17
 73
    13
 74
     0
 42
0.0000001
 43
0.0000001
 40
0.0
 40
0.0
 40
0.0
 40
0.0
 40
1.0
 40
1.0
 40
1.0
 40
2.0
 40
2.0
 40
2.0
 40
3.0
 40
3.0
 40
3.0
 40
4.0
 40
4.0
 40
4.0
 40
4.0
 10
-51.4100833468967
 20
-54.38242560492621
 30
0.0
 10
-51.4100833468967
 20
-54.38242560492621
 30
0.0
 10
-54.79023878309462
 20
-54.38242560492621
 30
0.0
 10
-54.79023878309462
 20
-54.38242560492621
 30
0.0
 10
-54.79023878309462
 20
-54.38242560492621
 30
0.0
 10
-54.79575093587239
 20
-54.38242560492621
 30
0.0
 10
-54.79575093587239
 20
-54.38242560492621
 30
0.0
 10
-56.40254347059461
 20
-55.88448723687065
 30
0.0
 10
-58.56192932128905
 20
-56.80088263617621
 30
0.0
 10
-60.93904520670572
 20
-56.80088263617621
 30
0.0
 10
-65.3225847032335
 20
-56.80088263617621
 30
0.0
 10
-68.97989807128905
 20
-53.66860182020399
 30
0.0
 10
-69.7901845296224
 20
-49.51932881673176
 30
0.0
  0
SPLINE
  5
185
100
AcDbEntity
  8
ALPHA
 62
     7
100
AcDbSpline
210
0.0
220
0.0
230
-1.0
 70
     8
 71
     3
 72
    17
 73
    13
 74
     0
 42
0.0000001
 43
0.0000001
 40
0.0
 40
0.0
 40
0.0
 40
0.0
 40
1.0
 40
1.0
 40
1.0
 40
2.0
 40
2.0
 40
2.0
 40
3.0
 40
3.0
 40
3.0
 40
4.0
 40
4.0
 40
4.0
 40
4.0
 10
-69.7901845296224
 20
-46.03289218478732
 30
0.0
 10
-68.97989807128905
 20
-41.88361918131509
 30
0.0
 10
-65.3225847032335
 20
-38.75271640353732
 30
0.0
 10
-60.93904520670572
 20
-38.75271640353732
 30
0.0
 10
-58.46546664767794
 20
-38.75271640353732
 30
0.0
 10
-56.2316667344835
 20
-39.74765997992621
 30
0.0
 10
-54.60161980523003
 20
-41.35445251464843
 30
0.0
 10
-54.60161980523003
 20
-41.35445251464843
 30
0.0
 10
-54.59335157606336
 20
-41.3503184000651
 30
0.0
 10
-54.59335157606336
 20
-41.3503184000651
 30
0.0
 10
-54.59335157606336
 20
-41.3503184000651
 30
0.0
 10
-51.4100833468967
 20
-41.3503184000651
 30
0.0
 10
-51.4100833468967
 20
-41.3503184000651
 30
0.0
  0
SPLINE
  5
186
100
AcDbEntity
  8
ALPHA
 62
     7
100
AcDbSpline
210
0.0
220
0.0
230
-1.0
 70
    11
 71
     3
 72
    29
 73
    25
 74
     0
 42
0.0000001
 43
0.0000001
 40
0.0
 40
0.0
 40
0.0
 40
0.0
 40
1.0
 40
1.0
 40
1.0
 40
2.0
 40
2.0
 40
2.0
 40
3.0
 40
3.0
 40
3.0
 40
4.0
 40
4.0
 40
4.0
 40
5.0
 40
5.0
 40
5.0
 40
6.0
 40
6.0
 40
6.0
 40
7.0
 40
7.0
 40
7.0
 40
8.0
 40
8.0
 40
8.0
 40
8.0
 10
-16.60497266981336
 20
-72.66485833062064
 30
0.0
 10
-16.05237935384114
 20
-72.66485833062064
 30
0.0
 10
-15.60589497884114
 20
-72.21837395562065
 30
0.0
 10
-15.60589497884114
 20
-71.66578063964843
 30
0.0
 10
-15.60589497884114
 20
-71.66578063964843
 30
0.0
 10
-15.60589497884114
 20
-64.64743211534288
 30
0.0
 10
-15.60589497884114
 20
-64.64743211534288
 30
0.0
 10
-15.60589497884114
 20
-64.09483879937065
 30
0.0
 10
-16.05237935384114
 20
-63.64422030978732
 30
0.0
 10
-16.60497266981336
 20
-63.64422030978732
 30
0.0
 10
-16.60497266981336
 20
-63.64422030978732
 30
0.0
 10
-28.63386806911892
 20
-63.64422030978732
 30
0.0
 10
-28.63386806911892
 20
-63.64422030978732
 30
0.0
 10
-29.19059549967447
 20
-63.64422030978732
 30
0.0
 10
-29.63707987467447
 20
-64.09483879937065
 30
0.0
 10
-29.63707987467447
 20
-64.64743211534288
 30
0.0
 10
-29.63707987467447
 20
-64.64743211534288
 30
0.0
 10
-29.63707987467447
 20
-71.66578063964843
 30
0.0
 10
-29.63707987467447
 20
-71.66578063964843
 30
0.0
 10
-29.63707987467447
 20
-72.21837395562065
 30
0.0
 10
-29.19059549967447
 20
-72.66485833062064
 30
0.0
 10
-28.63386806911892
 20
-72.66485833062064
 30
0.0
 10
-28.63386806911892
 20
-72.66485833062064
 30
0.0
 10
-16.60497266981336
 20
-72.66485833062064
 30
0.0
 10
-16.60497266981336
 20
-72.66485833062064
 30
0.0
  0
SPLINE
  5
187
100
AcDbEntity
  8
ALPHA
 62
     7
100
AcDbSpline
210
0.0
220
0.0
230
1.0
 70
     8
 71
     3
 72
    32
 73
    28
 74
     0
 42
0.0000001
 43
0.0000001
 40
0.0
 40
0.0
 40
0.0
 40
0.0
 40
1.0
 40
1.0
 40
1.0
 40
2.0
 40
2.0
 40
2.0
 40
3.0
 40
3.0
 40
3.0
 40
4.0
 40
4.0
 40
4.0
 40
5.0
 40
5.0
 40
5.0
 40
6.0
 40
6.0
 40
6.0
 40
7.0
 40
7.0
 40
7.0
 40
8.0
 40
8.0
 40
8.0
 40
9.0
 40
9.0
 40
9.0
 40
9.0
 10
-109.2930274115668
 20
44.47682868109808
 30
0.0
 10
-109.2930274115668
 20
44.47682868109808
 30
0.0
 10
-108.5419965955946
 20
44.47682868109808
 30
0.0
 10
-108.5419965955946
 20
44.47682868109808
 30
0.0
 10
-107.7137956407334
 20
44.47682868109808
 30
0.0
 10
-107.0413130018446
 20
45.14931131998697
 30
0.0
 10
-107.0413130018446
 20
45.98302442762586
 30
0.0
 10
-107.0413130018446
 20
45.98302442762586
 30
0.0
 10
-107.0413130018446
 20
49.49150967068142
 30
0.0
 10
-107.0413130018446
 20
49.49150967068142
 30
0.0
 10
-107.0413130018446
 20
50.32246670193142
 30
0.0
 10
-107.7137956407334
 20
50.99494934082031
 30
0.0
 10
-108.5419965955946
 20
50.99494934082031
 30
0.0
 10
-108.5419965955946
 20
50.99494934082031
 30
0.0
 10
-115.5603451199001
 20
50.99494934082031
 30
0.0
 10
-115.5603451199001
 20
50.99494934082031
 30
0.0
 10
-116.3899241129557
 20
50.99494934082031
 30
0.0
 10
-117.0624067518446
 20
50.32246670193142
 30
0.0
 10
-117.0624067518446
 20
49.49150967068142
 30
0.0
 10
-117.0624067518446
 20
49.49150967068142
 30
0.0
 10
-117.0624067518446
 20
45.98302442762586
 30
0.0
 10
-117.0624067518446
 20
45.98302442762586
 30
0.0
 10
-117.0624067518446
 20
45.14931131998697
 30
0.0
 10
-116.3899241129557
 20
44.47682868109808
 30
0.0
 10
-115.5603451199001
 20
44.47682868109808
 30
0.0
 10
-115.5603451199001
 20
44.47682868109808
 30
0.0
 10
-114.8106923421223
 20
44.47682868109808
 30
0.0
 10
-114.8106923421223
 20
44.47682868109808
 30
0.0
  0
SPLINE
  5
188
100
AcDbEntity
  8
ALPHA
 62
     7
100
AcDbSpline
210
0.0
220
0.0
230
-1.0
 70
     8
 71
     3
 72
    20
 73
    16
 74
     0
 42
0.0000001
 43
0.0000001
 40
0.0
 40
0.0
 40
0.0
 40
0.0
 40
1.0
 40
1.0
 40
1.0
 40
2.0
 40
2.0
 40
2.0
 40
3.0
 40
3.0
 40
3.0
 40
4.0
 40
4.0
 40
4.0
 40
5.0
 40
5.0
 40
5.0
 40
5.0
 10
-109.2930274115668
 20
42.47316114637587
 30
0.0
 10
-109.2930274115668
 20
42.47316114637587
 30
0.0
 10
-109.2930274115668
 20
45.23199361165364
 30
0.0
 10
-109.2930274115668
 20
45.23199361165364
 30
0.0
 10
-109.2930274115668
 20
46.75610385470919
 30
0.0
 10
-110.527749633789
 20
47.99082607693142
 30
0.0
 10
-112.0518598768446
 20
47.99082607693142
 30
0.0
 10
-112.0518598768446
 20
47.99082607693142
 30
0.0
 10
-112.0518598768446
 20
47.99082607693142
 30
0.0
 10
-112.0518598768446
 20
47.99082607693142
 30
0.0
 10
-113.5759701199001
 20
47.99082607693142
 30
0.0
 10
-114.8106923421223
 20
46.75610385470919
 30
0.0
 10
-114.8106923421223
 20
45.23199361165364
 30
0.0
 10
-114.8106923421223
 20
45.23199361165364
 30
0.0
 10
-114.8106923421223
 20
42.47316114637587
 30
0.0
 10
-114.8106923421223
 20
42.47316114637587
 30
0.0
  0
SPLINE
  5
189
100
AcDbEntity
  8
ALPHA
 62
     7
100
AcDbSpline
210
0.0
220
0.0
230
-1.0
 70
    11
 71
     3
 72
    29
 73
    25
 74
     0
 42
0.0000001
 43
0.0000001
 40
0.0
 40
0.0
 40
0.0
 40
0.0
 40
1.0
 40
1.0
 40
1.0
 40
2.0
 40
2.0
 40
2.0
 40
3.0
 40
3.0
 40
3.0
 40
4.0
 40
4.0
 40
4.0
 40
5.0
 40
5.0
 40
5.0
 40
6.0
 40
6.0
 40
6.0
 40
7.0
 40
7.0
 40
7.0
 40
8.0
 40
8.0
 40
8.0
 40
8.0
 10
-112.0518598768446
 20
43.92423536512587
 30
0.0
 10
-111.3600847032335
 20
43.92423536512587
 30
0.0
 10
-110.7992231580946
 20
44.4864749484592
 30
0.0
 10
-110.7992231580946
 20
45.17687208387586
 30
0.0
 10
-110.7992231580946
 20
45.17687208387586
 30
0.0
 10
-110.7992231580946
 20
46.18146192762586
 30
0.0
 10
-110.7992231580946
 20
46.18146192762586
 30
0.0
 10
-110.7992231580946
 20
46.87185906304253
 30
0.0
 10
-111.3600847032335
 20
47.43409864637587
 30
0.0
 10
-112.0518598768446
 20
47.43409864637587
 30
0.0
 10
-112.0518598768446
 20
47.43409864637587
 30
0.0
 10
-112.0518598768446
 20
47.43409864637587
 30
0.0
 10
-112.0518598768446
 20
47.43409864637587
 30
0.0
 10
-112.7422570122612
 20
47.43409864637587
 30
0.0
 10
-113.3044965955946
 20
46.87185906304253
 30
0.0
 10
-113.3044965955946
 20
46.18146192762586
 30
0.0
 10
-113.3044965955946
 20
46.18146192762586
 30
0.0
 10
-113.3044965955946
 20
45.17687208387586
 30
0.0
 10
-113.3044965955946
 20
45.17687208387586
 30
0.0
 10
-113.3044965955946
 20
44.4864749484592
 30
0.0
 10
-112.7422570122612
 20
43.92423536512587
 30
0.0
 10
-112.0518598768446
 20
43.92423536512587
 30
0.0
 10
-112.0518598768446
 20
43.92423536512587
 30
0.0
 10
-112.0518598768446
 20
43.92423536512587
 30
0.0
 10
-112.0518598768446
 20
43.92423536512587
 30
0.0
  0
SPLINE
  5
18A
100
AcDbEntity
  8
ALPHA
 62
     7
100
AcDbSpline
210
0.0
220
0.0
230
-1.0
 70
     8
 71
     3
 72
    32
 73
    28
 74
     0
 42
0.0000001
 43
0.0000001
 40
0.0
 40
0.0
 40
0.0
 40
0.0
 40
1.0
 40
1.0
 40
1.0
 40
2.0
 40
2.0
 40
2.0
 40
3.0
 40
3.0
 40
3.0
 40
4.0
 40
4.0
 40
4.0
 40
5.0
 40
5.0
 40
5.0
 40
6.0
 40
6.0
 40
6.0
 40
7.0
 40
7.0
 40
7.0
 40
8.0
 40
8.0
 40
8.0
 40
9.0
 40
9.0
 40
9.0
 40
9.0
 10
-127.8207509358723
 20
15.07362772623697
 30
0.0
 10
-127.8207509358723
 20
15.07362772623697
 30
0.0
 10
-127.8207509358723
 20
12.06537034776475
 30
0.0
 10
-127.8207509358723
 20
12.06537034776475
 30
0.0
 10
-127.8207509358723
 20
11.5086429172092
 30
0.0
 10
-127.3742665608723
 20
11.0621585422092
 30
0.0
 10
-126.8189171685112
 20
11.0621585422092
 30
0.0
 10
-126.8189171685112
 20
11.0621585422092
 30
0.0
 10
-112.7835981580946
 20
11.0621585422092
 30
0.0
 10
-112.7835981580946
 20
11.0621585422092
 30
0.0
 10
-112.2310048421223
 20
11.0621585422092
 30
0.0
 10
-111.780386352539
 20
11.5086429172092
 30
0.0
 10
-111.780386352539
 20
12.06537034776475
 30
0.0
 10
-111.780386352539
 20
12.06537034776475
 30
0.0
 10
-111.780386352539
 20
24.09426574707031
 30
0.0
 10
-111.780386352539
 20
24.09426574707031
 30
0.0
 10
-111.780386352539
 20
24.64685906304253
 30
0.0
 10
-112.2310048421223
 20
25.09334343804253
 30
0.0
 10
-112.7835981580946
 20
25.09334343804253
 30
0.0
 10
-112.7835981580946
 20
25.09334343804253
 30
0.0
 10
-126.8189171685112
 20
25.09334343804253
 30
0.0
 10
-126.8189171685112
 20
25.09334343804253
 30
0.0
 10
-127.3742665608723
 20
25.09334343804253
 30
0.0
 10
-127.8207509358723
 20
24.64685906304253
 30
0.0
 10
-127.8207509358723
 20
24.09426574707031
 30
0.0
 10
-127.8207509358723
 20
24.09426574707031
 30
0.0
 10
-127.8207509358723
 20
21.08738640679253
 30
0.0
 10
-127.8207509358723
 20
21.08738640679253
 30
0.0
  0
SPLINE
  5
18B
100
AcDbEntity
  8
ALPHA
 62
     7
100
AcDbSpline
210
0.0
220
0.0
230
1.0
 70
    11
 71
     3
 72
    26
 73
    22
 74
     0
 42
0.0000001
 43
0.0000001
 40
0.0
 40
0.0
 40
0.0
 40
0.0
 40
1.0
 40
1.0
 40
1.0
 40
2.0
 40
2.0
 40
2.0
 40
3.0
 40
3.0
 40
3.0
 40
4.0
 40
4.0
 40
4.0
 40
5.0
 40
5.0
 40
5.0
 40
6.0
 40
6.0
 40
6.0
 40
7.0
 40
7.0
 40
7.0
 40
7.0
 10
-124.8083594428168
 20
18.08050706651475
 30
0.0
 10
-124.8083594428168
 20
18.08050706651475
 30
0.0
 10
-127.816616821289
 20
21.08738640679253
 30
0.0
 10
-127.816616821289
 20
21.08738640679253
 30
0.0
 10
-127.816616821289
 20
21.08738640679253
 30
0.0
 10
-132.8285417344835
 20
21.08738640679253
 30
0.0
 10
-132.8285417344835
 20
21.08738640679253
 30
0.0
 10
-134.489077758789
 20
21.08738640679253
 30
0.0
 10
-135.8367991129556
 20
19.73828701443142
 30
0.0
 10
-135.8367991129556
 20
18.08050706651475
 30
0.0
 10
-135.8367991129556
 20
18.08050706651475
 30
0.0
 10
-135.8367991129556
 20
18.08050706651475
 30
0.0
 10
-135.8367991129556
 20
18.08050706651475
 30
0.0
 10
-135.8367991129556
 20
16.41721496582031
 30
0.0
 10
-134.489077758789
 20
15.07362772623697
 30
0.0
 10
-132.8285417344835
 20
15.07362772623697
 30
0.0
 10
-132.8285417344835
 20
15.07362772623697
 30
0.0
 10
-127.816616821289
 20
15.07362772623697
 30
0.0
 10
-127.816616821289
 20
15.07362772623697
 30
0.0
 10
-127.816616821289
 20
15.07362772623697
 30
0.0
 10
-124.8083594428168
 20
18.08050706651475
 30
0.0
 10
-124.8083594428168
 20
18.08050706651475
 30
0.0
  0
SPLINE
  5
18C
100
AcDbEntity
  8
ALPHA
 62
     7
100
AcDbSpline
210
0.0
220
0.0
230
-1.0
 70
     8
 71
     3
 72
    32
 73
    28
 74
     0
 42
0.0000001
 43
0.0000001
 40
0.0
 40
0.0
 40
0.0
 40
0.0
 40
1.0
 40
1.0
 40
1.0
 40
2.0
 40
2.0
 40
2.0
 40
3.0
 40
3.0
 40
3.0
 40
4.0
 40
4.0
 40
4.0
 40
5.0
 40
5.0
 40
5.0
 40
6.0
 40
6.0
 40
6.0
 40
7.0
 40
7.0
 40
7.0
 40
8.0
 40
8.0
 40
8.0
 40
9.0
 40
9.0
 40
9.0
 40
9.0
 10
-127.8207509358723
 20
-4.024775865342881
 30
0.0
 10
-127.8207509358723
 20
-4.024775865342881
 30
0.0
 10
-127.8207509358723
 20
-7.031655205620658
 30
0.0
 10
-127.8207509358723
 20
-7.031655205620658
 30
0.0
 10
-127.8207509358723
 20
-7.589760674370658
 30
0.0
 10
-127.3742665608723
 20
-8.036245049370659
 30
0.0
 10
-126.8189171685112
 20
-8.036245049370659
 30
0.0
 10
-126.8189171685112
 20
-8.036245049370659
 30
0.0
 10
-112.7835981580946
 20
-8.036245049370659
 30
0.0
 10
-112.7835981580946
 20
-8.036245049370659
 30
0.0
 10
-112.2310048421223
 20
-8.036245049370659
 30
0.0
 10
-111.780386352539
 20
-7.589760674370658
 30
0.0
 10
-111.780386352539
 20
-7.031655205620658
 30
0.0
 10
-111.780386352539
 20
-7.031655205620658
 30
0.0
 10
-111.780386352539
 20
4.997240193684895
 30
0.0
 10
-111.780386352539
 20
4.997240193684895
 30
0.0
 10
-111.780386352539
 20
5.549833509657117
 30
0.0
 10
-112.2310048421223
 20
5.996317884657117
 30
0.0
 10
-112.7835981580946
 20
5.996317884657117
 30
0.0
 10
-112.7835981580946
 20
5.996317884657117
 30
0.0
 10
-126.8189171685112
 20
5.996317884657117
 30
0.0
 10
-126.8189171685112
 20
5.996317884657117
 30
0.0
 10
-127.3742665608723
 20
5.996317884657117
 30
0.0
 10
-127.8207509358723
 20
5.549833509657117
 30
0.0
 10
-127.8207509358723
 20
4.997240193684895
 30
0.0
 10
-127.8207509358723
 20
4.997240193684895
 30
0.0
 10
-127.8207509358723
 20
1.988982815212673
 30
0.0
 10
-127.8207509358723
 20
1.988982815212673
 30
0.0
  0
SPLINE
  5
18D
100
AcDbEntity
  8
ALPHA
 62
     7
100
AcDbSpline
210
0.0
220
0.0
230
1.0
 70
    11
 71
     3
 72
    26
 73
    22
 74
     0
 42
0.0000001
 43
0.0000001
 40
0.0
 40
0.0
 40
0.0
 40
0.0
 40
1.0
 40
1.0
 40
1.0
 40
2.0
 40
2.0
 40
2.0
 40
3.0
 40
3.0
 40
3.0
 40
4.0
 40
4.0
 40
4.0
 40
5.0
 40
5.0
 40
5.0
 40
6.0
 40
6.0
 40
6.0
 40
7.0
 40
7.0
 40
7.0
 40
7.0
 10
-124.8083594428168
 20
-1.017896525065103
 30
0.0
 10
-124.8083594428168
 20
-1.017896525065103
 30
0.0
 10
-127.816616821289
 20
1.988982815212673
 30
0.0
 10
-127.816616821289
 20
1.988982815212673
 30
0.0
 10
-127.816616821289
 20
1.988982815212673
 30
0.0
 10
-132.8285417344835
 20
1.988982815212673
 30
0.0
 10
-132.8285417344835
 20
1.988982815212673
 30
0.0
 10
-134.489077758789
 20
1.988982815212673
 30
0.0
 10
-135.8367991129556
 20
0.6398834228515625
 30
0.0
 10
-135.8367991129556
 20
-1.017896525065103
 30
0.0
 10
-135.8367991129556
 20
-1.017896525065103
 30
0.0
 10
-135.8367991129556
 20
-1.017896525065103
 30
0.0
 10
-135.8367991129556
 20
-1.017896525065103
 30
0.0
 10
-135.8367991129556
 20
-2.679810587565103
 30
0.0
 10
-134.489077758789
 20
-4.024775865342881
 30
0.0
 10
-132.8285417344835
 20
-4.024775865342881
 30
0.0
 10
-132.8285417344835
 20
-4.024775865342881
 30
0.0
 10
-127.816616821289
 20
-4.024775865342881
 30
0.0
 10
-127.816616821289
 20
-4.024775865342881
 30
0.0
 10
-127.816616821289
 20
-4.024775865342881
 30
0.0
 10
-124.8083594428168
 20
-1.017896525065103
 30
0.0
 10
-124.8083594428168
 20
-1.017896525065103
 30
0.0
  0
SPLINE
  5
18E
100
AcDbEntity
  8
ALPHA
 62
     7
100
AcDbSpline
210
0.0
220
0.0
230
-1.0
 70
     8
 71
     3
 72
    32
 73
    28
 74
     0
 42
0.0000001
 43
0.0000001
 40
0.0
 40
0.0
 40
0.0
 40
0.0
 40
1.0
 40
1.0
 40
1.0
 40
2.0
 40
2.0
 40
2.0
 40
3.0
 40
3.0
 40
3.0
 40
4.0
 40
4.0
 40
4.0
 40
5.0
 40
5.0
 40
5.0
 40
6.0
 40
6.0
 40
6.0
 40
7.0
 40
7.0
 40
7.0
 40
8.0
 40
8.0
 40
8.0
 40
9.0
 40
9.0
 40
9.0
 40
9.0
 10
-127.8207509358723
 20
-23.12300720214843
 30
0.0
 10
-127.8207509358723
 20
-23.12300720214843
 30
0.0
 10
-127.8207509358723
 20
-26.12988654242621
 30
0.0
 10
-127.8207509358723
 20
-26.12988654242621
 30
0.0
 10
-127.8207509358723
 20
-26.68661397298176
 30
0.0
 10
-127.3742665608723
 20
-27.13309834798177
 30
0.0
 10
-126.8189171685112
 20
-27.13309834798177
 30
0.0
 10
-126.8189171685112
 20
-27.13309834798177
 30
0.0
 10
-112.7835981580946
 20
-27.13309834798177
 30
0.0
 10
-112.7835981580946
 20
-27.13309834798177
 30
0.0
 10
-112.2310048421223
 20
-27.13309834798177
 30
0.0
 10
-111.780386352539
 20
-26.68661397298176
 30
0.0
 10
-111.780386352539
 20
-26.12988654242621
 30
0.0
 10
-111.780386352539
 20
-26.12988654242621
 30
0.0
 10
-111.780386352539
 20
-14.10099114312066
 30
0.0
 10
-111.780386352539
 20
-14.10099114312066
 30
0.0
 10
-111.780386352539
 20
-13.54839782714843
 30
0.0
 10
-112.2310048421223
 20
-13.10191345214843
 30
0.0
 10
-112.7835981580946
 20
-13.10191345214843
 30
0.0
 10
-112.7835981580946
 20
-13.10191345214843
 30
0.0
 10
-126.8189171685112
 20
-13.10191345214843
 30
0.0
 10
-126.8189171685112
 20
-13.10191345214843
 30
0.0
 10
-127.3742665608723
 20
-13.10191345214843
 30
0.0
 10
-127.8207509358723
 20
-13.54839782714843
 30
0.0
 10
-127.8207509358723
 20
-14.10099114312066
 30
0.0
 10
-127.8207509358723
 20
-14.10099114312066
 30
0.0
 10
-127.8207509358723
 20
-17.10787048339843
 30
0.0
 10
-127.8207509358723
 20
-17.10787048339843
 30
0.0
  0
SPLINE
  5
18F
100
AcDbEntity
  8
ALPHA
 62
     7
100
AcDbSpline
210
0.0
220
0.0
230
1.0
 70
    11
 71
     3
 72
    26
 73
    22
 74
     0
 42
0.0000001
 43
0.0000001
 40
0.0
 40
0.0
 40
0.0
 40
0.0
 40
1.0
 40
1.0
 40
1.0
 40
2.0
 40
2.0
 40
2.0
 40
3.0
 40
3.0
 40
3.0
 40
4.0
 40
4.0
 40
4.0
 40
5.0
 40
5.0
 40
5.0
 40
6.0
 40
6.0
 40
6.0
 40
7.0
 40
7.0
 40
7.0
 40
7.0
 10
-124.8083594428168
 20
-20.11474982367621
 30
0.0
 10
-124.8083594428168
 20
-20.11474982367621
 30
0.0
 10
-127.816616821289
 20
-17.10787048339843
 30
0.0
 10
-127.816616821289
 20
-17.10787048339843
 30
0.0
 10
-127.816616821289
 20
-17.10787048339843
 30
0.0
 10
-132.8285417344835
 20
-17.10787048339843
 30
0.0
 10
-132.8285417344835
 20
-17.10787048339843
 30
0.0
 10
-134.489077758789
 20
-17.10787048339843
 30
0.0
 10
-135.8367991129556
 20
-18.45696987575954
 30
0.0
 10
-135.8367991129556
 20
-20.11474982367621
 30
0.0
 10
-135.8367991129556
 20
-20.11474982367621
 30
0.0
 10
-135.8367991129556
 20
-20.11474982367621
 30
0.0
 10
-135.8367991129556
 20
-20.11474982367621
 30
0.0
 10
-135.8367991129556
 20
-21.77804192437065
 30
0.0
 10
-134.489077758789
 20
-23.12300720214843
 30
0.0
 10
-132.8285417344835
 20
-23.12300720214843
 30
0.0
 10
-132.8285417344835
 20
-23.12300720214843
 30
0.0
 10
-127.816616821289
 20
-23.12300720214843
 30
0.0
 10
-127.816616821289
 20
-23.12300720214843
 30
0.0
 10
-127.816616821289
 20
-23.12300720214843
 30
0.0
 10
-124.8083594428168
 20
-20.11474982367621
 30
0.0
 10
-124.8083594428168
 20
-20.11474982367621
 30
0.0
  0
SPLINE
  5
190
100
AcDbEntity
  8
ALPHA
 62
     7
100
AcDbSpline
210
0.0
220
0.0
230
-1.0
 70
     8
 71
     3
 72
    32
 73
    28
 74
     0
 42
0.0000001
 43
0.0000001
 40
0.0
 40
0.0
 40
0.0
 40
0.0
 40
1.0
 40
1.0
 40
1.0
 40
2.0
 40
2.0
 40
2.0
 40
3.0
 40
3.0
 40
3.0
 40
4.0
 40
4.0
 40
4.0
 40
5.0
 40
5.0
 40
5.0
 40
6.0
 40
6.0
 40
6.0
 40
7.0
 40
7.0
 40
7.0
 40
8.0
 40
8.0
 40
8.0
 40
9.0
 40
9.0
 40
9.0
 40
9.0
 10
-127.8207509358723
 20
-42.21986050075954
 30
0.0
 10
-127.8207509358723
 20
-42.21986050075954
 30
0.0
 10
-127.8207509358723
 20
-45.22811787923177
 30
0.0
 10
-127.8207509358723
 20
-45.22811787923177
 30
0.0
 10
-127.8207509358723
 20
-45.78484530978732
 30
0.0
 10
-127.3742665608723
 20
-46.23132968478731
 30
0.0
 10
-126.8189171685112
 20
-46.23132968478731
 30
0.0
 10
-126.8189171685112
 20
-46.23132968478731
 30
0.0
 10
-112.7835981580946
 20
-46.23132968478731
 30
0.0
 10
-112.7835981580946
 20
-46.23132968478731
 30
0.0
 10
-112.2310048421223
 20
-46.23132968478731
 30
0.0
 10
-111.780386352539
 20
-45.78484530978732
 30
0.0
 10
-111.780386352539
 20
-45.22811787923177
 30
0.0
 10
-111.780386352539
 20
-45.22811787923177
 30
0.0
 10
-111.780386352539
 20
-33.19922247992621
 30
0.0
 10
-111.780386352539
 20
-33.19922247992621
 30
0.0
 10
-111.780386352539
 20
-32.64662916395399
 30
0.0
 10
-112.2310048421223
 20
-32.19876675075954
 30
0.0
 10
-112.7835981580946
 20
-32.19876675075954
 30
0.0
 10
-112.7835981580946
 20
-32.19876675075954
 30
0.0
 10
-126.8189171685112
 20
-32.19876675075954
 30
0.0
 10
-126.8189171685112
 20
-32.19876675075954
 30
0.0
 10
-127.3742665608723
 20
-32.19876675075954
 30
0.0
 10
-127.8207509358723
 20
-32.64662916395399
 30
0.0
 10
-127.8207509358723
 20
-33.19922247992621
 30
0.0
 10
-127.8207509358723
 20
-33.19922247992621
 30
0.0
 10
-127.8207509358723
 20
-36.20610182020399
 30
0.0
 10
-127.8207509358723
 20
-36.20610182020399
 30
0.0
  0
SPLINE
  5
191
100
AcDbEntity
  8
ALPHA
 62
     7
100
AcDbSpline
210
0.0
220
0.0
230
1.0
 70
    11
 71
     3
 72
    26
 73
    22
 74
     0
 42
0.0000001
 43
0.0000001
 40
0.0
 40
0.0
 40
0.0
 40
0.0
 40
1.0
 40
1.0
 40
1.0
 40
2.0
 40
2.0
 40
2.0
 40
3.0
 40
3.0
 40
3.0
 40
4.0
 40
4.0
 40
4.0
 40
5.0
 40
5.0
 40
5.0
 40
6.0
 40
6.0
 40
6.0
 40
7.0
 40
7.0
 40
7.0
 40
7.0
 10
-124.8083594428168
 20
-39.21298116048177
 30
0.0
 10
-124.8083594428168
 20
-39.21298116048177
 30
0.0
 10
-127.816616821289
 20
-36.20610182020399
 30
0.0
 10
-127.816616821289
 20
-36.20610182020399
 30
0.0
 10
-127.816616821289
 20
-36.20610182020399
 30
0.0
 10
-132.8285417344835
 20
-36.20610182020399
 30
0.0
 10
-132.8285417344835
 20
-36.20610182020399
 30
0.0
 10
-134.489077758789
 20
-36.20610182020399
 30
0.0
 10
-135.8367991129556
 20
-37.5552012125651
 30
0.0
 10
-135.8367991129556
 20
-39.21298116048177
 30
0.0
 10
-135.8367991129556
 20
-39.21298116048177
 30
0.0
 10
-135.8367991129556
 20
-39.21298116048177
 30
0.0
 10
-135.8367991129556
 20
-39.21298116048177
 30
0.0
 10
-135.8367991129556
 20
-40.87489522298176
 30
0.0
 10
-134.489077758789
 20
-42.21986050075954
 30
0.0
 10
-132.8285417344835
 20
-42.21986050075954
 30
0.0
 10
-132.8285417344835
 20
-42.21986050075954
 30
0.0
 10
-127.816616821289
 20
-42.21986050075954
 30
0.0
 10
-127.816616821289
 20
-42.21986050075954
 30
0.0
 10
-127.816616821289
 20
-42.21986050075954
 30
0.0
 10
-124.8083594428168
 20
-39.21298116048177
 30
0.0
 10
-124.8083594428168
 20
-39.21298116048177
 30
0.0
  0
SPLINE
  5
192
100
AcDbEntity
  8
ALPHA
 62
     7
100
AcDbSpline
210
0.0
220
0.0
230
-1.0
 70
     8
 71
     3
 72
    32
 73
    28
 74
     0
 42
0.0000001
 43
0.0000001
 40
0.0
 40
0.0
 40
0.0
 40
0.0
 40
1.0
 40
1.0
 40
1.0
 40
2.0
 40
2.0
 40
2.0
 40
3.0
 40
3.0
 40
3.0
 40
4.0
 40
4.0
 40
4.0
 40
5.0
 40
5.0
 40
5.0
 40
6.0
 40
6.0
 40
6.0
 40
7.0
 40
7.0
 40
7.0
 40
8.0
 40
8.0
 40
8.0
 40
9.0
 40
9.0
 40
9.0
 40
9.0
 10
-127.8207509358723
 20
-61.3180918375651
 30
0.0
 10
-127.8207509358723
 20
-61.3180918375651
 30
0.0
 10
-127.8207509358723
 20
-64.32497117784286
 30
0.0
 10
-127.8207509358723
 20
-64.32497117784286
 30
0.0
 10
-127.8207509358723
 20
-64.88169860839843
 30
0.0
 10
-127.3742665608723
 20
-65.32956102159288
 30
0.0
 10
-126.8189171685112
 20
-65.32956102159288
 30
0.0
 10
-126.8189171685112
 20
-65.32956102159288
 30
0.0
 10
-112.7835981580946
 20
-65.32956102159288
 30
0.0
 10
-112.7835981580946
 20
-65.32956102159288
 30
0.0
 10
-112.2310048421223
 20
-65.32956102159288
 30
0.0
 10
-111.780386352539
 20
-64.88169860839843
 30
0.0
 10
-111.780386352539
 20
-64.32497117784286
 30
0.0
 10
-111.780386352539
 20
-64.32497117784286
 30
0.0
 10
-111.780386352539
 20
-52.29607577853732
 30
0.0
 10
-111.780386352539
 20
-52.29607577853732
 30
0.0
 10
-111.780386352539
 20
-51.7434824625651
 30
0.0
 10
-112.2310048421223
 20
-51.2969980875651
 30
0.0
 10
-112.7835981580946
 20
-51.2969980875651
 30
0.0
 10
-112.7835981580946
 20
-51.2969980875651
 30
0.0
 10
-126.8189171685112
 20
-51.2969980875651
 30
0.0
 10
-126.8189171685112
 20
-51.2969980875651
 30
0.0
 10
-127.3742665608723
 20
-51.2969980875651
 30
0.0
 10
-127.8207509358723
 20
-51.7434824625651
 30
0.0
 10
-127.8207509358723
 20
-52.29607577853732
 30
0.0
 10
-127.8207509358723
 20
-52.29607577853732
 30
0.0
 10
-127.8207509358723
 20
-55.3029551188151
 30
0.0
 10
-127.8207509358723
 20
-55.3029551188151
 30
0.0
  0
SPLINE
  5
193
100
AcDbEntity
  8
ALPHA
 62
     7
100
AcDbSpline
210
0.0
220
0.0
230
1.0
 70
    11
 71
     3
 72
    26
 73
    22
 74
     0
 42
0.0000001
 43
0.0000001
 40
0.0
 40
0.0
 40
0.0
 40
0.0
 40
1.0
 40
1.0
 40
1.0
 40
2.0
 40
2.0
 40
2.0
 40
3.0
 40
3.0
 40
3.0
 40
4.0
 40
4.0
 40
4.0
 40
5.0
 40
5.0
 40
5.0
 40
6.0
 40
6.0
 40
6.0
 40
7.0
 40
7.0
 40
7.0
 40
7.0
 10
-124.8083594428168
 20
-58.31121249728732
 30
0.0
 10
-124.8083594428168
 20
-58.31121249728732
 30
0.0
 10
-127.816616821289
 20
-55.3029551188151
 30
0.0
 10
-127.816616821289
 20
-55.3029551188151
 30
0.0
 10
-127.816616821289
 20
-55.3029551188151
 30
0.0
 10
-132.8285417344835
 20
-55.3029551188151
 30
0.0
 10
-132.8285417344835
 20
-55.3029551188151
 30
0.0
 10
-134.489077758789
 20
-55.3029551188151
 30
0.0
 10
-135.8367991129556
 20
-56.65343254937066
 30
0.0
 10
-135.8367991129556
 20
-58.31121249728732
 30
0.0
 10
-135.8367991129556
 20
-58.31121249728732
 30
0.0
 10
-135.8367991129556
 20
-58.31121249728732
 30
0.0
 10
-135.8367991129556
 20
-58.31121249728732
 30
0.0
 10
-135.8367991129556
 20
-59.97312655978731
 30
0.0
 10
-134.489077758789
 20
-61.3180918375651
 30
0.0
 10
-132.8285417344835
 20
-61.3180918375651
 30
0.0
 10
-132.8285417344835
 20
-61.3180918375651
 30
0.0
 10
-127.816616821289
 20
-61.3180918375651
 30
0.0
 10
-127.816616821289
 20
-61.3180918375651
 30
0.0
 10
-127.816616821289
 20
-61.3180918375651
 30
0.0
 10
-124.8083594428168
 20
-58.31121249728732
 30
0.0
 10
-124.8083594428168
 20
-58.31121249728732
 30
0.0
  0
SPLINE
  5
194
100
AcDbEntity
  8
ALPHA
 62
     7
100
AcDbSpline
210
0.0
220
0.0
230
-1.0
 70
     8
 71
     3
 72
    32
 73
    28
 74
     0
 42
0.0000001
 43
0.0000001
 40
0.0
 40
0.0
 40
0.0
 40
0.0
 40
1.0
 40
1.0
 40
1.0
 40
2.0
 40
2.0
 40
2.0
 40
3.0
 40
3.0
 40
3.0
 40
4.0
 40
4.0
 40
4.0
 40
5.0
 40
5.0
 40
5.0
 40
6.0
 40
6.0
 40
6.0
 40
7.0
 40
7.0
 40
7.0
 40
8.0
 40
8.0
 40
8.0
 40
9.0
 40
9.0
 40
9.0
 40
9.0
 10
-127.8207509358723
 20
-80.41494513617621
 30
0.0
 10
-127.8207509358723
 20
-80.41494513617621
 30
0.0
 10
-127.8207509358723
 20
-83.42320251464842
 30
0.0
 10
-127.8207509358723
 20
-83.42320251464842
 30
0.0
 10
-127.8207509358723
 20
-83.97992994520398
 30
0.0
 10
-127.3742665608723
 20
-84.42641432020399
 30
0.0
 10
-126.8189171685112
 20
-84.42641432020399
 30
0.0
 10
-126.8189171685112
 20
-84.42641432020399
 30
0.0
 10
-112.7835981580946
 20
-84.42641432020399
 30
0.0
 10
-112.7835981580946
 20
-84.42641432020399
 30
0.0
 10
-112.2310048421223
 20
-84.42641432020399
 30
0.0
 10
-111.780386352539
 20
-83.97992994520398
 30
0.0
 10
-111.780386352539
 20
-83.42320251464842
 30
0.0
 10
-111.780386352539
 20
-83.42320251464842
 30
0.0
 10
-111.780386352539
 20
-71.39430711534287
 30
0.0
 10
-111.780386352539
 20
-71.39430711534287
 30
0.0
 10
-111.780386352539
 20
-70.84171379937065
 30
0.0
 10
-112.2310048421223
 20
-70.39522942437065
 30
0.0
 10
-112.7835981580946
 20
-70.39522942437065
 30
0.0
 10
-112.7835981580946
 20
-70.39522942437065
 30
0.0
 10
-126.8189171685112
 20
-70.39522942437065
 30
0.0
 10
-126.8189171685112
 20
-70.39522942437065
 30
0.0
 10
-127.3742665608723
 20
-70.39522942437065
 30
0.0
 10
-127.8207509358723
 20
-70.84171379937065
 30
0.0
 10
-127.8207509358723
 20
-71.39430711534287
 30
0.0
 10
-127.8207509358723
 20
-71.39430711534287
 30
0.0
 10
-127.8207509358723
 20
-74.40118645562065
 30
0.0
 10
-127.8207509358723
 20
-74.40118645562065
 30
0.0
  0
SPLINE
  5
195
100
AcDbEntity
  8
ALPHA
 62
     7
100
AcDbSpline
210
0.0
220
0.0
230
1.0
 70
    11
 71
     3
 72
    26
 73
    22
 74
     0
 42
0.0000001
 43
0.0000001
 40
0.0
 40
0.0
 40
0.0
 40
0.0
 40
1.0
 40
1.0
 40
1.0
 40
2.0
 40
2.0
 40
2.0
 40
3.0
 40
3.0
 40
3.0
 40
4.0
 40
4.0
 40
4.0
 40
5.0
 40
5.0
 40
5.0
 40
6.0
 40
6.0
 40
6.0
 40
7.0
 40
7.0
 40
7.0
 40
7.0
 10
-124.8083594428168
 20
-77.40806579589843
 30
0.0
 10
-124.8083594428168
 20
-77.40806579589843
 30
0.0
 10
-127.816616821289
 20
-74.40118645562065
 30
0.0
 10
-127.816616821289
 20
-74.40118645562065
 30
0.0
 10
-127.816616821289
 20
-74.40118645562065
 30
0.0
 10
-132.8285417344835
 20
-74.40118645562065
 30
0.0
 10
-132.8285417344835
 20
-74.40118645562065
 30
0.0
 10
-134.489077758789
 20
-74.40118645562065
 30
0.0
 10
-135.8367991129556
 20
-75.75028584798175
 30
0.0
 10
-135.8367991129556
 20
-77.40806579589843
 30
0.0
 10
-135.8367991129556
 20
-77.40806579589843
 30
0.0
 10
-135.8367991129556
 20
-77.40806579589843
 30
0.0
 10
-135.8367991129556
 20
-77.40806579589843
 30
0.0
 10
-135.8367991129556
 20
-79.07135789659287
 30
0.0
 10
-134.489077758789
 20
-80.41494513617621
 30
0.0
 10
-132.8285417344835
 20
-80.41494513617621
 30
0.0
 10
-132.8285417344835
 20
-80.41494513617621
 30
0.0
 10
-127.816616821289
 20
-80.41494513617621
 30
0.0
 10
-127.816616821289
 20
-80.41494513617621
 30
0.0
 10
-127.816616821289
 20
-80.41494513617621
 30
0.0
 10
-124.8083594428168
 20
-77.40806579589843
 30
0.0
 10
-124.8083594428168
 20
-77.40806579589843
 30
0.0
  0
SPLINE
  5
196
100
AcDbEntity
  8
ALPHA
 62
     7
100
AcDbSpline
210
0.0
220
0.0
230
-1.0
 70
     8
 71
     3
 72
    32
 73
    28
 74
     0
 42
0.0000001
 43
0.0000001
 40
0.0
 40
0.0
 40
0.0
 40
0.0
 40
1.0
 40
1.0
 40
1.0
 40
2.0
 40
2.0
 40
2.0
 40
3.0
 40
3.0
 40
3.0
 40
4.0
 40
4.0
 40
4.0
 40
5.0
 40
5.0
 40
5.0
 40
6.0
 40
6.0
 40
6.0
 40
7.0
 40
7.0
 40
7.0
 40
8.0
 40
8.0
 40
8.0
 40
9.0
 40
9.0
 40
9.0
 40
9.0
 10
-89.72075093587239
 20
15.07362772623697
 30
0.0
 10
-89.72075093587239
 20
15.07362772623697
 30
0.0
 10
-89.72075093587239
 20
12.06537034776475
 30
0.0
 10
-89.72075093587239
 20
12.06537034776475
 30
0.0
 10
-89.72075093587239
 20
11.5086429172092
 30
0.0
 10
-90.16723531087238
 20
11.0621585422092
 30
0.0
 10
-90.72534077962238
 20
11.0621585422092
 30
0.0
 10
-90.72534077962238
 20
11.0621585422092
 30
0.0
 10
-104.7565256754557
 20
11.0621585422092
 30
0.0
 10
-104.7565256754557
 20
11.0621585422092
 30
0.0
 10
-105.3091189914279
 20
11.0621585422092
 30
0.0
 10
-105.7611155192057
 20
11.5086429172092
 30
0.0
 10
-105.7611155192057
 20
12.06537034776475
 30
0.0
 10
-105.7611155192057
 20
12.06537034776475
 30
0.0
 10
-105.7611155192057
 20
24.09426574707031
 30
0.0
 10
-105.7611155192057
 20
24.09426574707031
 30
0.0
 10
-105.7611155192057
 20
24.64685906304253
 30
0.0
 10
-105.3091189914279
 20
25.09334343804253
 30
0.0
 10
-104.7565256754557
 20
25.09334343804253
 30
0.0
 10
-104.7565256754557
 20
25.09334343804253
 30
0.0
 10
-90.72534077962238
 20
25.09334343804253
 30
0.0
 10
-90.72534077962238
 20
25.09334343804253
 30
0.0
 10
-90.16723531087238
 20
25.09334343804253
 30
0.0
 10
-89.72075093587239
 20
24.64685906304253
 30
0.0
 10
-89.72075093587239
 20
24.09426574707031
 30
0.0
 10
-89.72075093587239
 20
24.09426574707031
 30
0.0
 10
-89.72075093587239
 20
21.08738640679253
 30
0.0
 10
-89.72075093587239
 20
21.08738640679253
 30
0.0
  0
SPLINE
  5
197
100
AcDbEntity
  8
ALPHA
 62
     7
100
AcDbSpline
210
0.0
220
0.0
230
1.0
 70
    11
 71
     3
 72
    26
 73
    22
 74
     0
 42
0.0000001
 43
0.0000001
 40
0.0
 40
0.0
 40
0.0
 40
0.0
 40
1.0
 40
1.0
 40
1.0
 40
2.0
 40
2.0
 40
2.0
 40
3.0
 40
3.0
 40
3.0
 40
4.0
 40
4.0
 40
4.0
 40
5.0
 40
5.0
 40
5.0
 40
6.0
 40
6.0
 40
6.0
 40
7.0
 40
7.0
 40
7.0
 40
7.0
 10
-92.73314242892794
 20
18.08050706651475
 30
0.0
 10
-92.73314242892794
 20
18.08050706651475
 30
0.0
 10
-89.72626308865017
 20
21.08738640679253
 30
0.0
 10
-89.72626308865017
 20
21.08738640679253
 30
0.0
 10
-89.72626308865017
 20
21.08738640679253
 30
0.0
 10
-84.71571621365017
 20
21.08738640679253
 30
0.0
 10
-84.71571621365017
 20
21.08738640679253
 30
0.0
 10
-83.05242411295571
 20
21.08738640679253
 30
0.0
 10
-81.70745883517794
 20
19.73828701443142
 30
0.0
 10
-81.70745883517794
 20
18.08050706651475
 30
0.0
 10
-81.70745883517794
 20
18.08050706651475
 30
0.0
 10
-81.70745883517794
 20
18.08050706651475
 30
0.0
 10
-81.70745883517794
 20
18.08050706651475
 30
0.0
 10
-81.70745883517794
 20
16.41721496582031
 30
0.0
 10
-83.05242411295571
 20
15.07362772623697
 30
0.0
 10
-84.71571621365017
 20
15.07362772623697
 30
0.0
 10
-84.71571621365017
 20
15.07362772623697
 30
0.0
 10
-89.72626308865017
 20
15.07362772623697
 30
0.0
 10
-89.72626308865017
 20
15.07362772623697
 30
0.0
 10
-89.72626308865017
 20
15.07362772623697
 30
0.0
 10
-92.73314242892794
 20
18.08050706651475
 30
0.0
 10
-92.73314242892794
 20
18.08050706651475
 30
0.0
  0
SPLINE
  5
198
100
AcDbEntity
  8
ALPHA
 62
     7
100
AcDbSpline
210
0.0
220
0.0
230
-1.0
 70
     8
 71
     3
 72
    32
 73
    28
 74
     0
 42
0.0000001
 43
0.0000001
 40
0.0
 40
0.0
 40
0.0
 40
0.0
 40
1.0
 40
1.0
 40
1.0
 40
2.0
 40
2.0
 40
2.0
 40
3.0
 40
3.0
 40
3.0
 40
4.0
 40
4.0
 40
4.0
 40
5.0
 40
5.0
 40
5.0
 40
6.0
 40
6.0
 40
6.0
 40
7.0
 40
7.0
 40
7.0
 40
8.0
 40
8.0
 40
8.0
 40
9.0
 40
9.0
 40
9.0
 40
9.0
 10
-89.72075093587239
 20
-4.024775865342881
 30
0.0
 10
-89.72075093587239
 20
-4.024775865342881
 30
0.0
 10
-89.72075093587239
 20
-7.031655205620658
 30
0.0
 10
-89.72075093587239
 20
-7.031655205620658
 30
0.0
 10
-89.72075093587239
 20
-7.589760674370658
 30
0.0
 10
-90.16723531087238
 20
-8.036245049370659
 30
0.0
 10
-90.72534077962238
 20
-8.036245049370659
 30
0.0
 10
-90.72534077962238
 20
-8.036245049370659
 30
0.0
 10
-104.7565256754557
 20
-8.036245049370659
 30
0.0
 10
-104.7565256754557
 20
-8.036245049370659
 30
0.0
 10
-105.3091189914279
 20
-8.036245049370659
 30
0.0
 10
-105.7611155192057
 20
-7.589760674370658
 30
0.0
 10
-105.7611155192057
 20
-7.031655205620658
 30
0.0
 10
-105.7611155192057
 20
-7.031655205620658
 30
0.0
 10
-105.7611155192057
 20
4.997240193684895
 30
0.0
 10
-105.7611155192057
 20
4.997240193684895
 30
0.0
 10
-105.7611155192057
 20
5.549833509657117
 30
0.0
 10
-105.3091189914279
 20
5.996317884657117
 30
0.0
 10
-104.7565256754557
 20
5.996317884657117
 30
0.0
 10
-104.7565256754557
 20
5.996317884657117
 30
0.0
 10
-90.72534077962238
 20
5.996317884657117
 30
0.0
 10
-90.72534077962238
 20
5.996317884657117
 30
0.0
 10
-90.16723531087238
 20
5.996317884657117
 30
0.0
 10
-89.72075093587239
 20
5.549833509657117
 30
0.0
 10
-89.72075093587239
 20
4.997240193684895
 30
0.0
 10
-89.72075093587239
 20
4.997240193684895
 30
0.0
 10
-89.72075093587239
 20
1.988982815212673
 30
0.0
 10
-89.72075093587239
 20
1.988982815212673
 30
0.0
  0
SPLINE
  5
199
100
AcDbEntity
  8
ALPHA
 62
     7
100
AcDbSpline
210
0.0
220
0.0
230
1.0
 70
    11
 71
     3
 72
    26
 73
    22
 74
     0
 42
0.0000001
 43
0.0000001
 40
0.0
 40
0.0
 40
0.0
 40
0.0
 40
1.0
 40
1.0
 40
1.0
 40
2.0
 40
2.0
 40
2.0
 40
3.0
 40
3.0
 40
3.0
 40
4.0
 40
4.0
 40
4.0
 40
5.0
 40
5.0
 40
5.0
 40
6.0
 40
6.0
 40
6.0
 40
7.0
 40
7.0
 40
7.0
 40
7.0
 10
-92.73314242892794
 20
-1.017896525065103
 30
0.0
 10
-92.73314242892794
 20
-1.017896525065103
 30
0.0
 10
-89.72626308865017
 20
1.988982815212673
 30
0.0
 10
-89.72626308865017
 20
1.988982815212673
 30
0.0
 10
-89.72626308865017
 20
1.988982815212673
 30
0.0
 10
-84.71571621365017
 20
1.988982815212673
 30
0.0
 10
-84.71571621365017
 20
1.988982815212673
 30
0.0
 10
-83.05242411295571
 20
1.988982815212673
 30
0.0
 10
-81.70745883517794
 20
0.6398834228515625
 30
0.0
 10
-81.70745883517794
 20
-1.017896525065103
 30
0.0
 10
-81.70745883517794
 20
-1.017896525065103
 30
0.0
 10
-81.70745883517794
 20
-1.017896525065103
 30
0.0
 10
-81.70745883517794
 20
-1.017896525065103
 30
0.0
 10
-81.70745883517794
 20
-2.679810587565103
 30
0.0
 10
-83.05242411295571
 20
-4.024775865342881
 30
0.0
 10
-84.71571621365017
 20
-4.024775865342881
 30
0.0
 10
-84.71571621365017
 20
-4.024775865342881
 30
0.0
 10
-89.72626308865017
 20
-4.024775865342881
 30
0.0
 10
-89.72626308865017
 20
-4.024775865342881
 30
0.0
 10
-89.72626308865017
 20
-4.024775865342881
 30
0.0
 10
-92.73314242892794
 20
-1.017896525065103
 30
0.0
 10
-92.73314242892794
 20
-1.017896525065103
 30
0.0
  0
SPLINE
  5
19A
100
AcDbEntity
  8
ALPHA
 62
     7
100
AcDbSpline
210
0.0
220
0.0
230
-1.0
 70
     8
 71
     3
 72
    32
 73
    28
 74
     0
 42
0.0000001
 43
0.0000001
 40
0.0
 40
0.0
 40
0.0
 40
0.0
 40
1.0
 40
1.0
 40
1.0
 40
2.0
 40
2.0
 40
2.0
 40
3.0
 40
3.0
 40
3.0
 40
4.0
 40
4.0
 40
4.0
 40
5.0
 40
5.0
 40
5.0
 40
6.0
 40
6.0
 40
6.0
 40
7.0
 40
7.0
 40
7.0
 40
8.0
 40
8.0
 40
8.0
 40
9.0
 40
9.0
 40
9.0
 40
9.0
 10
-89.72075093587239
 20
-23.12300720214843
 30
0.0
 10
-89.72075093587239
 20
-23.12300720214843
 30
0.0
 10
-89.72075093587239
 20
-26.12988654242621
 30
0.0
 10
-89.72075093587239
 20
-26.12988654242621
 30
0.0
 10
-89.72075093587239
 20
-26.68661397298176
 30
0.0
 10
-90.16723531087238
 20
-27.13309834798177
 30
0.0
 10
-90.72534077962238
 20
-27.13309834798177
 30
0.0
 10
-90.72534077962238
 20
-27.13309834798177
 30
0.0
 10
-104.7565256754557
 20
-27.13309834798177
 30
0.0
 10
-104.7565256754557
 20
-27.13309834798177
 30
0.0
 10
-105.3091189914279
 20
-27.13309834798177
 30
0.0
 10
-105.7611155192057
 20
-26.68661397298176
 30
0.0
 10
-105.7611155192057
 20
-26.12988654242621
 30
0.0
 10
-105.7611155192057
 20
-26.12988654242621
 30
0.0
 10
-105.7611155192057
 20
-14.10099114312066
 30
0.0
 10
-105.7611155192057
 20
-14.10099114312066
 30
0.0
 10
-105.7611155192057
 20
-13.54839782714843
 30
0.0
 10
-105.3091189914279
 20
-13.10191345214843
 30
0.0
 10
-104.7565256754557
 20
-13.10191345214843
 30
0.0
 10
-104.7565256754557
 20
-13.10191345214843
 30
0.0
 10
-90.72534077962238
 20
-13.10191345214843
 30
0.0
 10
-90.72534077962238
 20
-13.10191345214843
 30
0.0
 10
-90.16723531087238
 20
-13.10191345214843
 30
0.0
 10
-89.72075093587239
 20
-13.54839782714843
 30
0.0
 10
-89.72075093587239
 20
-14.10099114312066
 30
0.0
 10
-89.72075093587239
 20
-14.10099114312066
 30
0.0
 10
-89.72075093587239
 20
-17.10787048339843
 30
0.0
 10
-89.72075093587239
 20
-17.10787048339843
 30
0.0
  0
SPLINE
  5
19B
100
AcDbEntity
  8
ALPHA
 62
     7
100
AcDbSpline
210
0.0
220
0.0
230
1.0
 70
    11
 71
     3
 72
    26
 73
    22
 74
     0
 42
0.0000001
 43
0.0000001
 40
0.0
 40
0.0
 40
0.0
 40
0.0
 40
1.0
 40
1.0
 40
1.0
 40
2.0
 40
2.0
 40
2.0
 40
3.0
 40
3.0
 40
3.0
 40
4.0
 40
4.0
 40
4.0
 40
5.0
 40
5.0
 40
5.0
 40
6.0
 40
6.0
 40
6.0
 40
7.0
 40
7.0
 40
7.0
 40
7.0
 10
-92.73314242892794
 20
-20.11474982367621
 30
0.0
 10
-92.73314242892794
 20
-20.11474982367621
 30
0.0
 10
-89.72626308865017
 20
-17.10787048339843
 30
0.0
 10
-89.72626308865017
 20
-17.10787048339843
 30
0.0
 10
-89.72626308865017
 20
-17.10787048339843
 30
0.0
 10
-84.71571621365017
 20
-17.10787048339843
 30
0.0
 10
-84.71571621365017
 20
-17.10787048339843
 30
0.0
 10
-83.05242411295571
 20
-17.10787048339843
 30
0.0
 10
-81.70745883517794
 20
-18.45696987575954
 30
0.0
 10
-81.70745883517794
 20
-20.11474982367621
 30
0.0
 10
-81.70745883517794
 20
-20.11474982367621
 30
0.0
 10
-81.70745883517794
 20
-20.11474982367621
 30
0.0
 10
-81.70745883517794
 20
-20.11474982367621
 30
0.0
 10
-81.70745883517794
 20
-21.77804192437065
 30
0.0
 10
-83.05242411295571
 20
-23.12300720214843
 30
0.0
 10
-84.71571621365017
 20
-23.12300720214843
 30
0.0
 10
-84.71571621365017
 20
-23.12300720214843
 30
0.0
 10
-89.72626308865017
 20
-23.12300720214843
 30
0.0
 10
-89.72626308865017
 20
-23.12300720214843
 30
0.0
 10
-89.72626308865017
 20
-23.12300720214843
 30
0.0
 10
-92.73314242892794
 20
-20.11474982367621
 30
0.0
 10
-92.73314242892794
 20
-20.11474982367621
 30
0.0
  0
SPLINE
  5
19C
100
AcDbEntity
  8
ALPHA
 62
     7
100
AcDbSpline
210
0.0
220
0.0
230
-1.0
 70
     8
 71
     3
 72
    32
 73
    28
 74
     0
 42
0.0000001
 43
0.0000001
 40
0.0
 40
0.0
 40
0.0
 40
0.0
 40
1.0
 40
1.0
 40
1.0
 40
2.0
 40
2.0
 40
2.0
 40
3.0
 40
3.0
 40
3.0
 40
4.0
 40
4.0
 40
4.0
 40
5.0
 40
5.0
 40
5.0
 40
6.0
 40
6.0
 40
6.0
 40
7.0
 40
7.0
 40
7.0
 40
8.0
 40
8.0
 40
8.0
 40
9.0
 40
9.0
 40
9.0
 40
9.0
 10
-89.72075093587239
 20
-42.21986050075954
 30
0.0
 10
-89.72075093587239
 20
-42.21986050075954
 30
0.0
 10
-89.72075093587239
 20
-45.22811787923177
 30
0.0
 10
-89.72075093587239
 20
-45.22811787923177
 30
0.0
 10
-89.72075093587239
 20
-45.78484530978732
 30
0.0
 10
-90.16723531087238
 20
-46.23132968478731
 30
0.0
 10
-90.72534077962238
 20
-46.23132968478731
 30
0.0
 10
-90.72534077962238
 20
-46.23132968478731
 30
0.0
 10
-104.7565256754557
 20
-46.23132968478731
 30
0.0
 10
-104.7565256754557
 20
-46.23132968478731
 30
0.0
 10
-105.3091189914279
 20
-46.23132968478731
 30
0.0
 10
-105.7611155192057
 20
-45.78484530978732
 30
0.0
 10
-105.7611155192057
 20
-45.22811787923177
 30
0.0
 10
-105.7611155192057
 20
-45.22811787923177
 30
0.0
 10
-105.7611155192057
 20
-33.19922247992621
 30
0.0
 10
-105.7611155192057
 20
-33.19922247992621
 30
0.0
 10
-105.7611155192057
 20
-32.64662916395399
 30
0.0
 10
-105.3091189914279
 20
-32.19876675075954
 30
0.0
 10
-104.7565256754557
 20
-32.19876675075954
 30
0.0
 10
-104.7565256754557
 20
-32.19876675075954
 30
0.0
 10
-90.72534077962238
 20
-32.19876675075954
 30
0.0
 10
-90.72534077962238
 20
-32.19876675075954
 30
0.0
 10
-90.16723531087238
 20
-32.19876675075954
 30
0.0
 10
-89.72075093587239
 20
-32.64662916395399
 30
0.0
 10
-89.72075093587239
 20
-33.19922247992621
 30
0.0
 10
-89.72075093587239
 20
-33.19922247992621
 30
0.0
 10
-89.72075093587239
 20
-36.20610182020399
 30
0.0
 10
-89.72075093587239
 20
-36.20610182020399
 30
0.0
  0
SPLINE
  5
19D
100
AcDbEntity
  8
ALPHA
 62
     7
100
AcDbSpline
210
0.0
220
0.0
230
1.0
 70
    11
 71
     3
 72
    26
 73
    22
 74
     0
 42
0.0000001
 43
0.0000001
 40
0.0
 40
0.0
 40
0.0
 40
0.0
 40
1.0
 40
1.0
 40
1.0
 40
2.0
 40
2.0
 40
2.0
 40
3.0
 40
3.0
 40
3.0
 40
4.0
 40
4.0
 40
4.0
 40
5.0
 40
5.0
 40
5.0
 40
6.0
 40
6.0
 40
6.0
 40
7.0
 40
7.0
 40
7.0
 40
7.0
 10
-92.73314242892794
 20
-39.21298116048177
 30
0.0
 10
-92.73314242892794
 20
-39.21298116048177
 30
0.0
 10
-89.72626308865017
 20
-36.20610182020399
 30
0.0
 10
-89.72626308865017
 20
-36.20610182020399
 30
0.0
 10
-89.72626308865017
 20
-36.20610182020399
 30
0.0
 10
-84.71571621365017
 20
-36.20610182020399
 30
0.0
 10
-84.71571621365017
 20
-36.20610182020399
 30
0.0
 10
-83.05242411295571
 20
-36.20610182020399
 30
0.0
 10
-81.70745883517794
 20
-37.5552012125651
 30
0.0
 10
-81.70745883517794
 20
-39.21298116048177
 30
0.0
 10
-81.70745883517794
 20
-39.21298116048177
 30
0.0
 10
-81.70745883517794
 20
-39.21298116048177
 30
0.0
 10
-81.70745883517794
 20
-39.21298116048177
 30
0.0
 10
-81.70745883517794
 20
-40.87489522298176
 30
0.0
 10
-83.05242411295571
 20
-42.21986050075954
 30
0.0
 10
-84.71571621365017
 20
-42.21986050075954
 30
0.0
 10
-84.71571621365017
 20
-42.21986050075954
 30
0.0
 10
-89.72626308865017
 20
-42.21986050075954
 30
0.0
 10
-89.72626308865017
 20
-42.21986050075954
 30
0.0
 10
-89.72626308865017
 20
-42.21986050075954
 30
0.0
 10
-92.73314242892794
 20
-39.21298116048177
 30
0.0
 10
-92.73314242892794
 20
-39.21298116048177
 30
0.0
  0
SPLINE
  5
19E
100
AcDbEntity
  8
ALPHA
 62
     7
100
AcDbSpline
210
0.0
220
0.0
230
-1.0
 70
     8
 71
     3
 72
    32
 73
    28
 74
     0
 42
0.0000001
 43
0.0000001
 40
0.0
 40
0.0
 40
0.0
 40
0.0
 40
1.0
 40
1.0
 40
1.0
 40
2.0
 40
2.0
 40
2.0
 40
3.0
 40
3.0
 40
3.0
 40
4.0
 40
4.0
 40
4.0
 40
5.0
 40
5.0
 40
5.0
 40
6.0
 40
6.0
 40
6.0
 40
7.0
 40
7.0
 40
7.0
 40
8.0
 40
8.0
 40
8.0
 40
9.0
 40
9.0
 40
9.0
 40
9.0
 10
-89.72075093587239
 20
-61.3180918375651
 30
0.0
 10
-89.72075093587239
 20
-61.3180918375651
 30
0.0
 10
-89.72075093587239
 20
-64.32497117784286
 30
0.0
 10
-89.72075093587239
 20
-64.32497117784286
 30
0.0
 10
-89.72075093587239
 20
-64.88169860839843
 30
0.0
 10
-90.16723531087238
 20
-65.32956102159288
 30
0.0
 10
-90.72534077962238
 20
-65.32956102159288
 30
0.0
 10
-90.72534077962238
 20
-65.32956102159288
 30
0.0
 10
-104.7565256754557
 20
-65.32956102159288
 30
0.0
 10
-104.7565256754557
 20
-65.32956102159288
 30
0.0
 10
-105.3091189914279
 20
-65.32956102159288
 30
0.0
 10
-105.7611155192057
 20
-64.88169860839843
 30
0.0
 10
-105.7611155192057
 20
-64.32497117784286
 30
0.0
 10
-105.7611155192057
 20
-64.32497117784286
 30
0.0
 10
-105.7611155192057
 20
-52.29607577853732
 30
0.0
 10
-105.7611155192057
 20
-52.29607577853732
 30
0.0
 10
-105.7611155192057
 20
-51.7434824625651
 30
0.0
 10
-105.3091189914279
 20
-51.2969980875651
 30
0.0
 10
-104.7565256754557
 20
-51.2969980875651
 30
0.0
 10
-104.7565256754557
 20
-51.2969980875651
 30
0.0
 10
-90.72534077962238
 20
-51.2969980875651
 30
0.0
 10
-90.72534077962238
 20
-51.2969980875651
 30
0.0
 10
-90.16723531087238
 20
-51.2969980875651
 30
0.0
 10
-89.72075093587239
 20
-51.7434824625651
 30
0.0
 10
-89.72075093587239
 20
-52.29607577853732
 30
0.0
 10
-89.72075093587239
 20
-52.29607577853732
 30
0.0
 10
-89.72075093587239
 20
-55.3029551188151
 30
0.0
 10
-89.72075093587239
 20
-55.3029551188151
 30
0.0
  0
SPLINE
  5
19F
100
AcDbEntity
  8
ALPHA
 62
     7
100
AcDbSpline
210
0.0
220
0.0
230
1.0
 70
    11
 71
     3
 72
    26
 73
    22
 74
     0
 42
0.0000001
 43
0.0000001
 40
0.0
 40
0.0
 40
0.0
 40
0.0
 40
1.0
 40
1.0
 40
1.0
 40
2.0
 40
2.0
 40
2.0
 40
3.0
 40
3.0
 40
3.0
 40
4.0
 40
4.0
 40
4.0
 40
5.0
 40
5.0
 40
5.0
 40
6.0
 40
6.0
 40
6.0
 40
7.0
 40
7.0
 40
7.0
 40
7.0
 10
-92.73314242892794
 20
-58.31121249728732
 30
0.0
 10
-92.73314242892794
 20
-58.31121249728732
 30
0.0
 10
-89.72626308865017
 20
-55.3029551188151
 30
0.0
 10
-89.72626308865017
 20
-55.3029551188151
 30
0.0
 10
-89.72626308865017
 20
-55.3029551188151
 30
0.0
 10
-84.71571621365017
 20
-55.3029551188151
 30
0.0
 10
-84.71571621365017
 20
-55.3029551188151
 30
0.0
 10
-83.05242411295571
 20
-55.3029551188151
 30
0.0
 10
-81.70745883517794
 20
-56.65343254937066
 30
0.0
 10
-81.70745883517794
 20
-58.31121249728732
 30
0.0
 10
-81.70745883517794
 20
-58.31121249728732
 30
0.0
 10
-81.70745883517794
 20
-58.31121249728732
 30
0.0
 10
-81.70745883517794
 20
-58.31121249728732
 30
0.0
 10
-81.70745883517794
 20
-59.97312655978731
 30
0.0
 10
-83.05242411295571
 20
-61.3180918375651
 30
0.0
 10
-84.71571621365017
 20
-61.3180918375651
 30
0.0
 10
-84.71571621365017
 20
-61.3180918375651
 30
0.0
 10
-89.72626308865017
 20
-61.3180918375651
 30
0.0
 10
-89.72626308865017
 20
-61.3180918375651
 30
0.0
 10
-89.72626308865017
 20
-61.3180918375651
 30
0.0
 10
-92.73314242892794
 20
-58.31121249728732
 30
0.0
 10
-92.73314242892794
 20
-58.31121249728732
 30
0.0
  0
SPLINE
  5
1A0
100
AcDbEntity
  8
ALPHA
 62
     7
100
AcDbSpline
210
0.0
220
0.0
230
-1.0
 70
     8
 71
     3
 72
    32
 73
    28
 74
     0
 42
0.0000001
 43
0.0000001
 40
0.0
 40
0.0
 40
0.0
 40
0.0
 40
1.0
 40
1.0
 40
1.0
 40
2.0
 40
2.0
 40
2.0
 40
3.0
 40
3.0
 40
3.0
 40
4.0
 40
4.0
 40
4.0
 40
5.0
 40
5.0
 40
5.0
 40
6.0
 40
6.0
 40
6.0
 40
7.0
 40
7.0
 40
7.0
 40
8.0
 40
8.0
 40
8.0
 40
9.0
 40
9.0
 40
9.0
 40
9.0
 10
-89.72075093587239
 20
-80.41494513617621
 30
0.0
 10
-89.72075093587239
 20
-80.41494513617621
 30
0.0
 10
-89.72075093587239
 20
-83.42320251464842
 30
0.0
 10
-89.72075093587239
 20
-83.42320251464842
 30
0.0
 10
-89.72075093587239
 20
-83.97992994520398
 30
0.0
 10
-90.16723531087238
 20
-84.42641432020399
 30
0.0
 10
-90.72534077962238
 20
-84.42641432020399
 30
0.0
 10
-90.72534077962238
 20
-84.42641432020399
 30
0.0
 10
-104.7565256754557
 20
-84.42641432020399
 30
0.0
 10
-104.7565256754557
 20
-84.42641432020399
 30
0.0
 10
-105.3091189914279
 20
-84.42641432020399
 30
0.0
 10
-105.7611155192057
 20
-83.97992994520398
 30
0.0
 10
-105.7611155192057
 20
-83.42320251464842
 30
0.0
 10
-105.7611155192057
 20
-83.42320251464842
 30
0.0
 10
-105.7611155192057
 20
-71.39430711534287
 30
0.0
 10
-105.7611155192057
 20
-71.39430711534287
 30
0.0
 10
-105.7611155192057
 20
-70.84171379937065
 30
0.0
 10
-105.3091189914279
 20
-70.39522942437065
 30
0.0
 10
-104.7565256754557
 20
-70.39522942437065
 30
0.0
 10
-104.7565256754557
 20
-70.39522942437065
 30
0.0
 10
-90.72534077962238
 20
-70.39522942437065
 30
0.0
 10
-90.72534077962238
 20
-70.39522942437065
 30
0.0
 10
-90.16723531087238
 20
-70.39522942437065
 30
0.0
 10
-89.72075093587239
 20
-70.84171379937065
 30
0.0
 10
-89.72075093587239
 20
-71.39430711534287
 30
0.0
 10
-89.72075093587239
 20
-71.39430711534287
 30
0.0
 10
-89.72075093587239
 20
-74.40118645562065
 30
0.0
 10
-89.72075093587239
 20
-74.40118645562065
 30
0.0
  0
SPLINE
  5
1A1
100
AcDbEntity
  8
ALPHA
 62
     7
100
AcDbSpline
210
0.0
220
0.0
230
1.0
 70
    11
 71
     3
 72
    26
 73
    22
 74
     0
 42
0.0000001
 43
0.0000001
 40
0.0
 40
0.0
 40
0.0
 40
0.0
 40
1.0
 40
1.0
 40
1.0
 40
2.0
 40
2.0
 40
2.0
 40
3.0
 40
3.0
 40
3.0
 40
4.0
 40
4.0
 40
4.0
 40
5.0
 40
5.0
 40
5.0
 40
6.0
 40
6.0
 40
6.0
 40
7.0
 40
7.0
 40
7.0
 40
7.0
 10
-92.73314242892794
 20
-77.40806579589843
 30
0.0
 10
-92.73314242892794
 20
-77.40806579589843
 30
0.0
 10
-89.72626308865017
 20
-74.40118645562065
 30
0.0
 10
-89.72626308865017
 20
-74.40118645562065
 30
0.0
 10
-89.72626308865017
 20
-74.40118645562065
 30
0.0
 10
-84.71571621365017
 20
-74.40118645562065
 30
0.0
 10
-84.71571621365017
 20
-74.40118645562065
 30
0.0
 10
-83.05242411295571
 20
-74.40118645562065
 30
0.0
 10
-81.70745883517794
 20
-75.75028584798175
 30
0.0
 10
-81.70745883517794
 20
-77.40806579589843
 30
0.0
 10
-81.70745883517794
 20
-77.40806579589843
 30
0.0
 10
-81.70745883517794
 20
-77.40806579589843
 30
0.0
 10
-81.70745883517794
 20
-77.40806579589843
 30
0.0
 10
-81.70745883517794
 20
-79.07135789659287
 30
0.0
 10
-83.05242411295571
 20
-80.41494513617621
 30
0.0
 10
-84.71571621365017
 20
-80.41494513617621
 30
0.0
 10
-84.71571621365017
 20
-80.41494513617621
 30
0.0
 10
-89.72626308865017
 20
-80.41494513617621
 30
0.0
 10
-89.72626308865017
 20
-80.41494513617621
 30
0.0
 10
-89.72626308865017
 20
-80.41494513617621
 30
0.0
 10
-92.73314242892794
 20
-77.40806579589843
 30
0.0
 10
-92.73314242892794
 20
-77.40806579589843
 30
0.0
  0
SPLINE
  5
1A2
100
AcDbEntity
  8
ALPHA
 62
     7
100
AcDbSpline
210
0.0
220
0.0
230
-1.0
 70
     8
 71
     3
 72
    32
 73
    28
 74
     0
 42
0.0000001
 43
0.0000001
 40
0.0
 40
0.0
 40
0.0
 40
0.0
 40
1.0
 40
1.0
 40
1.0
 40
2.0
 40
2.0
 40
2.0
 40
3.0
 40
3.0
 40
3.0
 40
4.0
 40
4.0
 40
4.0
 40
5.0
 40
5.0
 40
5.0
 40
6.0
 40
6.0
 40
6.0
 40
7.0
 40
7.0
 40
7.0
 40
8.0
 40
8.0
 40
8.0
 40
9.0
 40
9.0
 40
9.0
 40
9.0
 10
89.68311326768661
 20
15.07362772623697
 30
0.0
 10
89.68311326768661
 20
15.07362772623697
 30
0.0
 10
89.68311326768661
 20
12.06537034776475
 30
0.0
 10
89.68311326768661
 20
12.06537034776475
 30
0.0
 10
89.68311326768661
 20
11.5086429172092
 30
0.0
 10
90.12959764268662
 20
11.0621585422092
 30
0.0
 10
90.68219095865885
 20
11.0621585422092
 30
0.0
 10
90.68219095865885
 20
11.0621585422092
 30
0.0
 10
104.7188880072699
 20
11.0621585422092
 30
0.0
 10
104.7188880072699
 20
11.0621585422092
 30
0.0
 10
105.2714813232421
 20
11.0621585422092
 30
0.0
 10
105.7220998128254
 20
11.5086429172092
 30
0.0
 10
105.7220998128254
 20
12.06537034776475
 30
0.0
 10
105.7220998128254
 20
12.06537034776475
 30
0.0
 10
105.7220998128254
 20
24.09426574707031
 30
0.0
 10
105.7220998128254
 20
24.09426574707031
 30
0.0
 10
105.7220998128254
 20
24.64685906304253
 30
0.0
 10
105.2714813232421
 20
25.09334343804253
 30
0.0
 10
104.7188880072699
 20
25.09334343804253
 30
0.0
 10
104.7188880072699
 20
25.09334343804253
 30
0.0
 10
90.68219095865885
 20
25.09334343804253
 30
0.0
 10
90.68219095865885
 20
25.09334343804253
 30
0.0
 10
90.12959764268662
 20
25.09334343804253
 30
0.0
 10
89.68311326768661
 20
24.64685906304253
 30
0.0
 10
89.68311326768661
 20
24.09426574707031
 30
0.0
 10
89.68311326768661
 20
24.09426574707031
 30
0.0
 10
89.68311326768661
 20
21.08738640679253
 30
0.0
 10
89.68311326768661
 20
21.08738640679253
 30
0.0
  0
SPLINE
  5
1A3
100
AcDbEntity
  8
ALPHA
 62
     7
100
AcDbSpline
210
0.0
220
0.0
230
1.0
 70
    11
 71
     3
 72
    26
 73
    22
 74
     0
 42
0.0000001
 43
0.0000001
 40
0.0
 40
0.0
 40
0.0
 40
0.0
 40
1.0
 40
1.0
 40
1.0
 40
2.0
 40
2.0
 40
2.0
 40
3.0
 40
3.0
 40
3.0
 40
4.0
 40
4.0
 40
4.0
 40
5.0
 40
5.0
 40
5.0
 40
6.0
 40
6.0
 40
6.0
 40
7.0
 40
7.0
 40
7.0
 40
7.0
 10
92.69412672254773
 20
18.08050706651475
 30
0.0
 10
92.69412672254773
 20
18.08050706651475
 30
0.0
 10
89.68724738226995
 20
21.08738640679253
 30
0.0
 10
89.68724738226995
 20
21.08738640679253
 30
0.0
 10
89.68724738226995
 20
21.08738640679253
 30
0.0
 10
84.67256639268661
 20
21.08738640679253
 30
0.0
 10
84.67256639268661
 20
21.08738640679253
 30
0.0
 10
83.01478644476995
 20
21.08738640679253
 30
0.0
 10
81.66568705240884
 20
19.73828701443142
 30
0.0
 10
81.66568705240884
 20
18.08050706651475
 30
0.0
 10
81.66568705240884
 20
18.08050706651475
 30
0.0
 10
81.66568705240884
 20
18.08050706651475
 30
0.0
 10
81.66568705240884
 20
18.08050706651475
 30
0.0
 10
81.66568705240884
 20
16.41721496582031
 30
0.0
 10
83.01478644476995
 20
15.07362772623697
 30
0.0
 10
84.67256639268661
 20
15.07362772623697
 30
0.0
 10
84.67256639268661
 20
15.07362772623697
 30
0.0
 10
89.68724738226995
 20
15.07362772623697
 30
0.0
 10
89.68724738226995
 20
15.07362772623697
 30
0.0
 10
89.68724738226995
 20
15.07362772623697
 30
0.0
 10
92.69412672254773
 20
18.08050706651475
 30
0.0
 10
92.69412672254773
 20
18.08050706651475
 30
0.0
  0
SPLINE
  5
1A4
100
AcDbEntity
  8
ALPHA
 62
     7
100
AcDbSpline
210
0.0
220
0.0
230
-1.0
 70
     8
 71
     3
 72
    32
 73
    28
 74
     0
 42
0.0000001
 43
0.0000001
 40
0.0
 40
0.0
 40
0.0
 40
0.0
 40
1.0
 40
1.0
 40
1.0
 40
2.0
 40
2.0
 40
2.0
 40
3.0
 40
3.0
 40
3.0
 40
4.0
 40
4.0
 40
4.0
 40
5.0
 40
5.0
 40
5.0
 40
6.0
 40
6.0
 40
6.0
 40
7.0
 40
7.0
 40
7.0
 40
8.0
 40
8.0
 40
8.0
 40
9.0
 40
9.0
 40
9.0
 40
9.0
 10
89.68311326768661
 20
-4.024775865342881
 30
0.0
 10
89.68311326768661
 20
-4.024775865342881
 30
0.0
 10
89.68311326768661
 20
-7.031655205620658
 30
0.0
 10
89.68311326768661
 20
-7.031655205620658
 30
0.0
 10
89.68311326768661
 20
-7.589760674370658
 30
0.0
 10
90.12959764268662
 20
-8.036245049370659
 30
0.0
 10
90.68219095865885
 20
-8.036245049370659
 30
0.0
 10
90.68219095865885
 20
-8.036245049370659
 30
0.0
 10
104.7188880072699
 20
-8.036245049370659
 30
0.0
 10
104.7188880072699
 20
-8.036245049370659
 30
0.0
 10
105.2714813232421
 20
-8.036245049370659
 30
0.0
 10
105.7220998128254
 20
-7.589760674370658
 30
0.0
 10
105.7220998128254
 20
-7.031655205620658
 30
0.0
 10
105.7220998128254
 20
-7.031655205620658
 30
0.0
 10
105.7220998128254
 20
4.997240193684895
 30
0.0
 10
105.7220998128254
 20
4.997240193684895
 30
0.0
 10
105.7220998128254
 20
5.549833509657117
 30
0.0
 10
105.2714813232421
 20
5.996317884657117
 30
0.0
 10
104.7188880072699
 20
5.996317884657117
 30
0.0
 10
104.7188880072699
 20
5.996317884657117
 30
0.0
 10
90.68219095865885
 20
5.996317884657117
 30
0.0
 10
90.68219095865885
 20
5.996317884657117
 30
0.0
 10
90.12959764268662
 20
5.996317884657117
 30
0.0
 10
89.68311326768661
 20
5.549833509657117
 30
0.0
 10
89.68311326768661
 20
4.997240193684895
 30
0.0
 10
89.68311326768661
 20
4.997240193684895
 30
0.0
 10
89.68311326768661
 20
1.988982815212673
 30
0.0
 10
89.68311326768661
 20
1.988982815212673
 30
0.0
  0
SPLINE
  5
1A5
100
AcDbEntity
  8
ALPHA
 62
     7
100
AcDbSpline
210
0.0
220
0.0
230
1.0
 70
    11
 71
     3
 72
    26
 73
    22
 74
     0
 42
0.0000001
 43
0.0000001
 40
0.0
 40
0.0
 40
0.0
 40
0.0
 40
1.0
 40
1.0
 40
1.0
 40
2.0
 40
2.0
 40
2.0
 40
3.0
 40
3.0
 40
3.0
 40
4.0
 40
4.0
 40
4.0
 40
5.0
 40
5.0
 40
5.0
 40
6.0
 40
6.0
 40
6.0
 40
7.0
 40
7.0
 40
7.0
 40
7.0
 10
92.69412672254773
 20
-1.017896525065103
 30
0.0
 10
92.69412672254773
 20
-1.017896525065103
 30
0.0
 10
89.68724738226995
 20
1.988982815212673
 30
0.0
 10
89.68724738226995
 20
1.988982815212673
 30
0.0
 10
89.68724738226995
 20
1.988982815212673
 30
0.0
 10
84.67256639268661
 20
1.988982815212673
 30
0.0
 10
84.67256639268661
 20
1.988982815212673
 30
0.0
 10
83.01478644476995
 20
1.988982815212673
 30
0.0
 10
81.66568705240884
 20
0.6398834228515625
 30
0.0
 10
81.66568705240884
 20
-1.017896525065103
 30
0.0
 10
81.66568705240884
 20
-1.017896525065103
 30
0.0
 10
81.66568705240884
 20
-1.017896525065103
 30
0.0
 10
81.66568705240884
 20
-1.017896525065103
 30
0.0
 10
81.66568705240884
 20
-2.679810587565103
 30
0.0
 10
83.01478644476995
 20
-4.024775865342881
 30
0.0
 10
84.67256639268661
 20
-4.024775865342881
 30
0.0
 10
84.67256639268661
 20
-4.024775865342881
 30
0.0
 10
89.68724738226995
 20
-4.024775865342881
 30
0.0
 10
89.68724738226995
 20
-4.024775865342881
 30
0.0
 10
89.68724738226995
 20
-4.024775865342881
 30
0.0
 10
92.69412672254773
 20
-1.017896525065103
 30
0.0
 10
92.69412672254773
 20
-1.017896525065103
 30
0.0
  0
SPLINE
  5
1A6
100
AcDbEntity
  8
ALPHA
 62
     7
100
AcDbSpline
210
0.0
220
0.0
230
-1.0
 70
     8
 71
     3
 72
    32
 73
    28
 74
     0
 42
0.0000001
 43
0.0000001
 40
0.0
 40
0.0
 40
0.0
 40
0.0
 40
1.0
 40
1.0
 40
1.0
 40
2.0
 40
2.0
 40
2.0
 40
3.0
 40
3.0
 40
3.0
 40
4.0
 40
4.0
 40
4.0
 40
5.0
 40
5.0
 40
5.0
 40
6.0
 40
6.0
 40
6.0
 40
7.0
 40
7.0
 40
7.0
 40
8.0
 40
8.0
 40
8.0
 40
9.0
 40
9.0
 40
9.0
 40
9.0
 10
89.68311326768661
 20
-23.12300720214843
 30
0.0
 10
89.68311326768661
 20
-23.12300720214843
 30
0.0
 10
89.68311326768661
 20
-26.12988654242621
 30
0.0
 10
89.68311326768661
 20
-26.12988654242621
 30
0.0
 10
89.68311326768661
 20
-26.68661397298176
 30
0.0
 10
90.12959764268662
 20
-27.13309834798177
 30
0.0
 10
90.68219095865885
 20
-27.13309834798177
 30
0.0
 10
90.68219095865885
 20
-27.13309834798177
 30
0.0
 10
104.7188880072699
 20
-27.13309834798177
 30
0.0
 10
104.7188880072699
 20
-27.13309834798177
 30
0.0
 10
105.2714813232421
 20
-27.13309834798177
 30
0.0
 10
105.7220998128254
 20
-26.68661397298176
 30
0.0
 10
105.7220998128254
 20
-26.12988654242621
 30
0.0
 10
105.7220998128254
 20
-26.12988654242621
 30
0.0
 10
105.7220998128254
 20
-14.10099114312066
 30
0.0
 10
105.7220998128254
 20
-14.10099114312066
 30
0.0
 10
105.7220998128254
 20
-13.54839782714843
 30
0.0
 10
105.2714813232421
 20
-13.10191345214843
 30
0.0
 10
104.7188880072699
 20
-13.10191345214843
 30
0.0
 10
104.7188880072699
 20
-13.10191345214843
 30
0.0
 10
90.68219095865885
 20
-13.10191345214843
 30
0.0
 10
90.68219095865885
 20
-13.10191345214843
 30
0.0
 10
90.12959764268662
 20
-13.10191345214843
 30
0.0
 10
89.68311326768661
 20
-13.54839782714843
 30
0.0
 10
89.68311326768661
 20
-14.10099114312066
 30
0.0
 10
89.68311326768661
 20
-14.10099114312066
 30
0.0
 10
89.68311326768661
 20
-17.10787048339843
 30
0.0
 10
89.68311326768661
 20
-17.10787048339843
 30
0.0
  0
SPLINE
  5
1A7
100
AcDbEntity
  8
ALPHA
 62
     7
100
AcDbSpline
210
0.0
220
0.0
230
1.0
 70
    11
 71
     3
 72
    26
 73
    22
 74
     0
 42
0.0000001
 43
0.0000001
 40
0.0
 40
0.0
 40
0.0
 40
0.0
 40
1.0
 40
1.0
 40
1.0
 40
2.0
 40
2.0
 40
2.0
 40
3.0
 40
3.0
 40
3.0
 40
4.0
 40
4.0
 40
4.0
 40
5.0
 40
5.0
 40
5.0
 40
6.0
 40
6.0
 40
6.0
 40
7.0
 40
7.0
 40
7.0
 40
7.0
 10
92.69412672254773
 20
-20.11474982367621
 30
0.0
 10
92.69412672254773
 20
-20.11474982367621
 30
0.0
 10
89.68724738226995
 20
-17.10787048339843
 30
0.0
 10
89.68724738226995
 20
-17.10787048339843
 30
0.0
 10
89.68724738226995
 20
-17.10787048339843
 30
0.0
 10
84.67256639268661
 20
-17.10787048339843
 30
0.0
 10
84.67256639268661
 20
-17.10787048339843
 30
0.0
 10
83.01478644476995
 20
-17.10787048339843
 30
0.0
 10
81.66568705240884
 20
-18.45696987575954
 30
0.0
 10
81.66568705240884
 20
-20.11474982367621
 30
0.0
 10
81.66568705240884
 20
-20.11474982367621
 30
0.0
 10
81.66568705240884
 20
-20.11474982367621
 30
0.0
 10
81.66568705240884
 20
-20.11474982367621
 30
0.0
 10
81.66568705240884
 20
-21.77804192437065
 30
0.0
 10
83.01478644476995
 20
-23.12300720214843
 30
0.0
 10
84.67256639268661
 20
-23.12300720214843
 30
0.0
 10
84.67256639268661
 20
-23.12300720214843
 30
0.0
 10
89.68724738226995
 20
-23.12300720214843
 30
0.0
 10
89.68724738226995
 20
-23.12300720214843
 30
0.0
 10
89.68724738226995
 20
-23.12300720214843
 30
0.0
 10
92.69412672254773
 20
-20.11474982367621
 30
0.0
 10
92.69412672254773
 20
-20.11474982367621
 30
0.0
  0
SPLINE
  5
1A8
100
AcDbEntity
  8
ALPHA
 62
     7
100
AcDbSpline
210
0.0
220
0.0
230
-1.0
 70
     8
 71
     3
 72
    32
 73
    28
 74
     0
 42
0.0000001
 43
0.0000001
 40
0.0
 40
0.0
 40
0.0
 40
0.0
 40
1.0
 40
1.0
 40
1.0
 40
2.0
 40
2.0
 40
2.0
 40
3.0
 40
3.0
 40
3.0
 40
4.0
 40
4.0
 40
4.0
 40
5.0
 40
5.0
 40
5.0
 40
6.0
 40
6.0
 40
6.0
 40
7.0
 40
7.0
 40
7.0
 40
8.0
 40
8.0
 40
8.0
 40
9.0
 40
9.0
 40
9.0
 40
9.0
 10
89.68311326768661
 20
-42.21986050075954
 30
0.0
 10
89.68311326768661
 20
-42.21986050075954
 30
0.0
 10
89.68311326768661
 20
-45.22811787923177
 30
0.0
 10
89.68311326768661
 20
-45.22811787923177
 30
0.0
 10
89.68311326768661
 20
-45.78484530978732
 30
0.0
 10
90.12959764268662
 20
-46.23132968478731
 30
0.0
 10
90.68219095865885
 20
-46.23132968478731
 30
0.0
 10
90.68219095865885
 20
-46.23132968478731
 30
0.0
 10
104.7188880072699
 20
-46.23132968478731
 30
0.0
 10
104.7188880072699
 20
-46.23132968478731
 30
0.0
 10
105.2714813232421
 20
-46.23132968478731
 30
0.0
 10
105.7220998128254
 20
-45.78484530978732
 30
0.0
 10
105.7220998128254
 20
-45.22811787923177
 30
0.0
 10
105.7220998128254
 20
-45.22811787923177
 30
0.0
 10
105.7220998128254
 20
-33.19922247992621
 30
0.0
 10
105.7220998128254
 20
-33.19922247992621
 30
0.0
 10
105.7220998128254
 20
-32.64662916395399
 30
0.0
 10
105.2714813232421
 20
-32.19876675075954
 30
0.0
 10
104.7188880072699
 20
-32.19876675075954
 30
0.0
 10
104.7188880072699
 20
-32.19876675075954
 30
0.0
 10
90.68219095865885
 20
-32.19876675075954
 30
0.0
 10
90.68219095865885
 20
-32.19876675075954
 30
0.0
 10
90.12959764268662
 20
-32.19876675075954
 30
0.0
 10
89.68311326768661
 20
-32.64662916395399
 30
0.0
 10
89.68311326768661
 20
-33.19922247992621
 30
0.0
 10
89.68311326768661
 20
-33.19922247992621
 30
0.0
 10
89.68311326768661
 20
-36.20610182020399
 30
0.0
 10
89.68311326768661
 20
-36.20610182020399
 30
0.0
  0
SPLINE
  5
1A9
100
AcDbEntity
  8
ALPHA
 62
     7
100
AcDbSpline
210
0.0
220
0.0
230
1.0
 70
    11
 71
     3
 72
    26
 73
    22
 74
     0
 42
0.0000001
 43
0.0000001
 40
0.0
 40
0.0
 40
0.0
 40
0.0
 40
1.0
 40
1.0
 40
1.0
 40
2.0
 40
2.0
 40
2.0
 40
3.0
 40
3.0
 40
3.0
 40
4.0
 40
4.0
 40
4.0
 40
5.0
 40
5.0
 40
5.0
 40
6.0
 40
6.0
 40
6.0
 40
7.0
 40
7.0
 40
7.0
 40
7.0
 10
92.69412672254773
 20
-39.21298116048177
 30
0.0
 10
92.69412672254773
 20
-39.21298116048177
 30
0.0
 10
89.68724738226995
 20
-36.20610182020399
 30
0.0
 10
89.68724738226995
 20
-36.20610182020399
 30
0.0
 10
89.68724738226995
 20
-36.20610182020399
 30
0.0
 10
84.67256639268661
 20
-36.20610182020399
 30
0.0
 10
84.67256639268661
 20
-36.20610182020399
 30
0.0
 10
83.01478644476995
 20
-36.20610182020399
 30
0.0
 10
81.66568705240884
 20
-37.5552012125651
 30
0.0
 10
81.66568705240884
 20
-39.21298116048177
 30
0.0
 10
81.66568705240884
 20
-39.21298116048177
 30
0.0
 10
81.66568705240884
 20
-39.21298116048177
 30
0.0
 10
81.66568705240884
 20
-39.21298116048177
 30
0.0
 10
81.66568705240884
 20
-40.87489522298176
 30
0.0
 10
83.01478644476995
 20
-42.21986050075954
 30
0.0
 10
84.67256639268661
 20
-42.21986050075954
 30
0.0
 10
84.67256639268661
 20
-42.21986050075954
 30
0.0
 10
89.68724738226995
 20
-42.21986050075954
 30
0.0
 10
89.68724738226995
 20
-42.21986050075954
 30
0.0
 10
89.68724738226995
 20
-42.21986050075954
 30
0.0
 10
92.69412672254773
 20
-39.21298116048177
 30
0.0
 10
92.69412672254773
 20
-39.21298116048177
 30
0.0
  0
SPLINE
  5
1AA
100
AcDbEntity
  8
ALPHA
 62
     7
100
AcDbSpline
210
0.0
220
0.0
230
-1.0
 70
     8
 71
     3
 72
    32
 73
    28
 74
     0
 42
0.0000001
 43
0.0000001
 40
0.0
 40
0.0
 40
0.0
 40
0.0
 40
1.0
 40
1.0
 40
1.0
 40
2.0
 40
2.0
 40
2.0
 40
3.0
 40
3.0
 40
3.0
 40
4.0
 40
4.0
 40
4.0
 40
5.0
 40
5.0
 40
5.0
 40
6.0
 40
6.0
 40
6.0
 40
7.0
 40
7.0
 40
7.0
 40
8.0
 40
8.0
 40
8.0
 40
9.0
 40
9.0
 40
9.0
 40
9.0
 10
89.68311326768661
 20
-61.3180918375651
 30
0.0
 10
89.68311326768661
 20
-61.3180918375651
 30
0.0
 10
89.68311326768661
 20
-64.32497117784286
 30
0.0
 10
89.68311326768661
 20
-64.32497117784286
 30
0.0
 10
89.68311326768661
 20
-64.88169860839843
 30
0.0
 10
90.12959764268662
 20
-65.32956102159288
 30
0.0
 10
90.68219095865885
 20
-65.32956102159288
 30
0.0
 10
90.68219095865885
 20
-65.32956102159288
 30
0.0
 10
104.7188880072699
 20
-65.32956102159288
 30
0.0
 10
104.7188880072699
 20
-65.32956102159288
 30
0.0
 10
105.2714813232421
 20
-65.32956102159288
 30
0.0
 10
105.7220998128254
 20
-64.88169860839843
 30
0.0
 10
105.7220998128254
 20
-64.32497117784286
 30
0.0
 10
105.7220998128254
 20
-64.32497117784286
 30
0.0
 10
105.7220998128254
 20
-52.29607577853732
 30
0.0
 10
105.7220998128254
 20
-52.29607577853732
 30
0.0
 10
105.7220998128254
 20
-51.7434824625651
 30
0.0
 10
105.2714813232421
 20
-51.2969980875651
 30
0.0
 10
104.7188880072699
 20
-51.2969980875651
 30
0.0
 10
104.7188880072699
 20
-51.2969980875651
 30
0.0
 10
90.68219095865885
 20
-51.2969980875651
 30
0.0
 10
90.68219095865885
 20
-51.2969980875651
 30
0.0
 10
90.12959764268662
 20
-51.2969980875651
 30
0.0
 10
89.68311326768661
 20
-51.7434824625651
 30
0.0
 10
89.68311326768661
 20
-52.29607577853732
 30
0.0
 10
89.68311326768661
 20
-52.29607577853732
 30
0.0
 10
89.68311326768661
 20
-55.3029551188151
 30
0.0
 10
89.68311326768661
 20
-55.3029551188151
 30
0.0
  0
SPLINE
  5
1AB
100
AcDbEntity
  8
ALPHA
 62
     7
100
AcDbSpline
210
0.0
220
0.0
230
1.0
 70
    11
 71
     3
 72
    26
 73
    22
 74
     0
 42
0.0000001
 43
0.0000001
 40
0.0
 40
0.0
 40
0.0
 40
0.0
 40
1.0
 40
1.0
 40
1.0
 40
2.0
 40
2.0
 40
2.0
 40
3.0
 40
3.0
 40
3.0
 40
4.0
 40
4.0
 40
4.0
 40
5.0
 40
5.0
 40
5.0
 40
6.0
 40
6.0
 40
6.0
 40
7.0
 40
7.0
 40
7.0
 40
7.0
 10
92.69412672254773
 20
-58.31121249728732
 30
0.0
 10
92.69412672254773
 20
-58.31121249728732
 30
0.0
 10
89.68724738226995
 20
-55.3029551188151
 30
0.0
 10
89.68724738226995
 20
-55.3029551188151
 30
0.0
 10
89.68724738226995
 20
-55.3029551188151
 30
0.0
 10
84.67256639268661
 20
-55.3029551188151
 30
0.0
 10
84.67256639268661
 20
-55.3029551188151
 30
0.0
 10
83.01478644476995
 20
-55.3029551188151
 30
0.0
 10
81.66568705240884
 20
-56.65343254937066
 30
0.0
 10
81.66568705240884
 20
-58.31121249728732
 30
0.0
 10
81.66568705240884
 20
-58.31121249728732
 30
0.0
 10
81.66568705240884
 20
-58.31121249728732
 30
0.0
 10
81.66568705240884
 20
-58.31121249728732
 30
0.0
 10
81.66568705240884
 20
-59.97312655978731
 30
0.0
 10
83.01478644476995
 20
-61.3180918375651
 30
0.0
 10
84.67256639268661
 20
-61.3180918375651
 30
0.0
 10
84.67256639268661
 20
-61.3180918375651
 30
0.0
 10
89.68724738226995
 20
-61.3180918375651
 30
0.0
 10
89.68724738226995
 20
-61.3180918375651
 30
0.0
 10
89.68724738226995
 20
-61.3180918375651
 30
0.0
 10
92.69412672254773
 20
-58.31121249728732
 30
0.0
 10
92.69412672254773
 20
-58.31121249728732
 30
0.0
  0
SPLINE
  5
1AC
100
AcDbEntity
  8
ALPHA
 62
     7
100
AcDbSpline
210
0.0
220
0.0
230
-1.0
 70
     8
 71
     3
 72
    32
 73
    28
 74
     0
 42
0.0000001
 43
0.0000001
 40
0.0
 40
0.0
 40
0.0
 40
0.0
 40
1.0
 40
1.0
 40
1.0
 40
2.0
 40
2.0
 40
2.0
 40
3.0
 40
3.0
 40
3.0
 40
4.0
 40
4.0
 40
4.0
 40
5.0
 40
5.0
 40
5.0
 40
6.0
 40
6.0
 40
6.0
 40
7.0
 40
7.0
 40
7.0
 40
8.0
 40
8.0
 40
8.0
 40
9.0
 40
9.0
 40
9.0
 40
9.0
 10
89.68311326768661
 20
-80.41494513617621
 30
0.0
 10
89.68311326768661
 20
-80.41494513617621
 30
0.0
 10
89.68311326768661
 20
-83.42320251464842
 30
0.0
 10
89.68311326768661
 20
-83.42320251464842
 30
0.0
 10
89.68311326768661
 20
-83.97992994520398
 30
0.0
 10
90.12959764268662
 20
-84.42641432020399
 30
0.0
 10
90.68219095865885
 20
-84.42641432020399
 30
0.0
 10
90.68219095865885
 20
-84.42641432020399
 30
0.0
 10
104.7188880072699
 20
-84.42641432020399
 30
0.0
 10
104.7188880072699
 20
-84.42641432020399
 30
0.0
 10
105.2714813232421
 20
-84.42641432020399
 30
0.0
 10
105.7220998128254
 20
-83.97992994520398
 30
0.0
 10
105.7220998128254
 20
-83.42320251464842
 30
0.0
 10
105.7220998128254
 20
-83.42320251464842
 30
0.0
 10
105.7220998128254
 20
-71.39430711534287
 30
0.0
 10
105.7220998128254
 20
-71.39430711534287
 30
0.0
 10
105.7220998128254
 20
-70.84171379937065
 30
0.0
 10
105.2714813232421
 20
-70.39522942437065
 30
0.0
 10
104.7188880072699
 20
-70.39522942437065
 30
0.0
 10
104.7188880072699
 20
-70.39522942437065
 30
0.0
 10
90.68219095865885
 20
-70.39522942437065
 30
0.0
 10
90.68219095865885
 20
-70.39522942437065
 30
0.0
 10
90.12959764268662
 20
-70.39522942437065
 30
0.0
 10
89.68311326768661
 20
-70.84171379937065
 30
0.0
 10
89.68311326768661
 20
-71.39430711534287
 30
0.0
 10
89.68311326768661
 20
-71.39430711534287
 30
0.0
 10
89.68311326768661
 20
-74.40118645562065
 30
0.0
 10
89.68311326768661
 20
-74.40118645562065
 30
0.0
  0
SPLINE
  5
1AD
100
AcDbEntity
  8
ALPHA
 62
     7
100
AcDbSpline
210
0.0
220
0.0
230
1.0
 70
    11
 71
     3
 72
    26
 73
    22
 74
     0
 42
0.0000001
 43
0.0000001
 40
0.0
 40
0.0
 40
0.0
 40
0.0
 40
1.0
 40
1.0
 40
1.0
 40
2.0
 40
2.0
 40
2.0
 40
3.0
 40
3.0
 40
3.0
 40
4.0
 40
4.0
 40
4.0
 40
5.0
 40
5.0
 40
5.0
 40
6.0
 40
6.0
 40
6.0
 40
7.0
 40
7.0
 40
7.0
 40
7.0
 10
92.69412672254773
 20
-77.40806579589843
 30
0.0
 10
92.69412672254773
 20
-77.40806579589843
 30
0.0
 10
89.68724738226995
 20
-74.40118645562065
 30
0.0
 10
89.68724738226995
 20
-74.40118645562065
 30
0.0
 10
89.68724738226995
 20
-74.40118645562065
 30
0.0
 10
84.67256639268661
 20
-74.40118645562065
 30
0.0
 10
84.67256639268661
 20
-74.40118645562065
 30
0.0
 10
83.01478644476995
 20
-74.40118645562065
 30
0.0
 10
81.66568705240884
 20
-75.75028584798175
 30
0.0
 10
81.66568705240884
 20
-77.40806579589843
 30
0.0
 10
81.66568705240884
 20
-77.40806579589843
 30
0.0
 10
81.66568705240884
 20
-77.40806579589843
 30
0.0
 10
81.66568705240884
 20
-77.40806579589843
 30
0.0
 10
81.66568705240884
 20
-79.07135789659287
 30
0.0
 10
83.01478644476995
 20
-80.41494513617621
 30
0.0
 10
84.67256639268661
 20
-80.41494513617621
 30
0.0
 10
84.67256639268661
 20
-80.41494513617621
 30
0.0
 10
89.68724738226995
 20
-80.41494513617621
 30
0.0
 10
89.68724738226995
 20
-80.41494513617621
 30
0.0
 10
89.68724738226995
 20
-80.41494513617621
 30
0.0
 10
92.69412672254773
 20
-77.40806579589843
 30
0.0
 10
92.69412672254773
 20
-77.40806579589843
 30
0.0
  0
SPLINE
  5
1AE
100
AcDbEntity
  8
ALPHA
 62
     7
100
AcDbSpline
210
0.0
220
0.0
230
-1.0
 70
     8
 71
     3
 72
    32
 73
    28
 74
     0
 42
0.0000001
 43
0.0000001
 40
0.0
 40
0.0
 40
0.0
 40
0.0
 40
1.0
 40
1.0
 40
1.0
 40
2.0
 40
2.0
 40
2.0
 40
3.0
 40
3.0
 40
3.0
 40
4.0
 40
4.0
 40
4.0
 40
5.0
 40
5.0
 40
5.0
 40
6.0
 40
6.0
 40
6.0
 40
7.0
 40
7.0
 40
7.0
 40
8.0
 40
8.0
 40
8.0
 40
9.0
 40
9.0
 40
9.0
 40
9.0
 10
127.7817352294921
 20
15.07362772623697
 30
0.0
 10
127.7817352294921
 20
15.07362772623697
 30
0.0
 10
127.7817352294921
 20
12.06537034776475
 30
0.0
 10
127.7817352294921
 20
12.06537034776475
 30
0.0
 10
127.7817352294921
 20
11.5086429172092
 30
0.0
 10
127.3352508544921
 20
11.0621585422092
 30
0.0
 10
126.7771453857421
 20
11.0621585422092
 30
0.0
 10
126.7771453857421
 20
11.0621585422092
 30
0.0
 10
112.7459604899088
 20
11.0621585422092
 30
0.0
 10
112.7459604899088
 20
11.0621585422092
 30
0.0
 10
112.1933671739366
 20
11.0621585422092
 30
0.0
 10
111.7413706461588
 20
11.5086429172092
 30
0.0
 10
111.7413706461588
 20
12.06537034776475
 30
0.0
 10
111.7413706461588
 20
12.06537034776475
 30
0.0
 10
111.7413706461588
 20
24.09426574707031
 30
0.0
 10
111.7413706461588
 20
24.09426574707031
 30
0.0
 10
111.7413706461588
 20
24.64685906304253
 30
0.0
 10
112.1933671739366
 20
25.09334343804253
 30
0.0
 10
112.7459604899088
 20
25.09334343804253
 30
0.0
 10
112.7459604899088
 20
25.09334343804253
 30
0.0
 10
126.7771453857421
 20
25.09334343804253
 30
0.0
 10
126.7771453857421
 20
25.09334343804253
 30
0.0
 10
127.3352508544921
 20
25.09334343804253
 30
0.0
 10
127.7817352294921
 20
24.64685906304253
 30
0.0
 10
127.7817352294921
 20
24.09426574707031
 30
0.0
 10
127.7817352294921
 20
24.09426574707031
 30
0.0
 10
127.7817352294921
 20
21.08738640679253
 30
0.0
 10
127.7817352294921
 20
21.08738640679253
 30
0.0
  0
SPLINE
  5
1AF
100
AcDbEntity
  8
ALPHA
 62
     7
100
AcDbSpline
210
0.0
220
0.0
230
1.0
 70
    11
 71
     3
 72
    26
 73
    22
 74
     0
 42
0.0000001
 43
0.0000001
 40
0.0
 40
0.0
 40
0.0
 40
0.0
 40
1.0
 40
1.0
 40
1.0
 40
2.0
 40
2.0
 40
2.0
 40
3.0
 40
3.0
 40
3.0
 40
4.0
 40
4.0
 40
4.0
 40
5.0
 40
5.0
 40
5.0
 40
6.0
 40
6.0
 40
6.0
 40
7.0
 40
7.0
 40
7.0
 40
7.0
 10
124.7693437364366
 20
18.08050706651475
 30
0.0
 10
124.7693437364366
 20
18.08050706651475
 30
0.0
 10
127.7776011149088
 20
21.08738640679253
 30
0.0
 10
127.7776011149088
 20
21.08738640679253
 30
0.0
 10
127.7776011149088
 20
21.08738640679253
 30
0.0
 10
132.7867699517144
 20
21.08738640679253
 30
0.0
 10
132.7867699517144
 20
21.08738640679253
 30
0.0
 10
134.4500620524088
 20
21.08738640679253
 30
0.0
 10
135.7950273301866
 20
19.73828701443142
 30
0.0
 10
135.7950273301866
 20
18.08050706651475
 30
0.0
 10
135.7950273301866
 20
18.08050706651475
 30
0.0
 10
135.7950273301866
 20
18.08050706651475
 30
0.0
 10
135.7950273301866
 20
18.08050706651475
 30
0.0
 10
135.7950273301866
 20
16.41721496582031
 30
0.0
 10
134.4500620524088
 20
15.07362772623697
 30
0.0
 10
132.7867699517144
 20
15.07362772623697
 30
0.0
 10
132.7867699517144
 20
15.07362772623697
 30
0.0
 10
127.7776011149088
 20
15.07362772623697
 30
0.0
 10
127.7776011149088
 20
15.07362772623697
 30
0.0
 10
127.7776011149088
 20
15.07362772623697
 30
0.0
 10
124.7693437364366
 20
18.08050706651475
 30
0.0
 10
124.7693437364366
 20
18.08050706651475
 30
0.0
  0
SPLINE
  5
1B0
100
AcDbEntity
  8
ALPHA
 62
     7
100
AcDbSpline
210
0.0
220
0.0
230
-1.0
 70
     8
 71
     3
 72
    32
 73
    28
 74
     0
 42
0.0000001
 43
0.0000001
 40
0.0
 40
0.0
 40
0.0
 40
0.0
 40
1.0
 40
1.0
 40
1.0
 40
2.0
 40
2.0
 40
2.0
 40
3.0
 40
3.0
 40
3.0
 40
4.0
 40
4.0
 40
4.0
 40
5.0
 40
5.0
 40
5.0
 40
6.0
 40
6.0
 40
6.0
 40
7.0
 40
7.0
 40
7.0
 40
8.0
 40
8.0
 40
8.0
 40
9.0
 40
9.0
 40
9.0
 40
9.0
 10
127.7817352294921
 20
-4.024775865342881
 30
0.0
 10
127.7817352294921
 20
-4.024775865342881
 30
0.0
 10
127.7817352294921
 20
-7.031655205620658
 30
0.0
 10
127.7817352294921
 20
-7.031655205620658
 30
0.0
 10
127.7817352294921
 20
-7.589760674370658
 30
0.0
 10
127.3352508544921
 20
-8.036245049370659
 30
0.0
 10
126.7771453857421
 20
-8.036245049370659
 30
0.0
 10
126.7771453857421
 20
-8.036245049370659
 30
0.0
 10
112.7459604899088
 20
-8.036245049370659
 30
0.0
 10
112.7459604899088
 20
-8.036245049370659
 30
0.0
 10
112.1933671739366
 20
-8.036245049370659
 30
0.0
 10
111.7413706461588
 20
-7.589760674370658
 30
0.0
 10
111.7413706461588
 20
-7.031655205620658
 30
0.0
 10
111.7413706461588
 20
-7.031655205620658
 30
0.0
 10
111.7413706461588
 20
4.997240193684895
 30
0.0
 10
111.7413706461588
 20
4.997240193684895
 30
0.0
 10
111.7413706461588
 20
5.549833509657117
 30
0.0
 10
112.1933671739366
 20
5.996317884657117
 30
0.0
 10
112.7459604899088
 20
5.996317884657117
 30
0.0
 10
112.7459604899088
 20
5.996317884657117
 30
0.0
 10
126.7771453857421
 20
5.996317884657117
 30
0.0
 10
126.7771453857421
 20
5.996317884657117
 30
0.0
 10
127.3352508544921
 20
5.996317884657117
 30
0.0
 10
127.7817352294921
 20
5.549833509657117
 30
0.0
 10
127.7817352294921
 20
4.997240193684895
 30
0.0
 10
127.7817352294921
 20
4.997240193684895
 30
0.0
 10
127.7817352294921
 20
1.988982815212673
 30
0.0
 10
127.7817352294921
 20
1.988982815212673
 30
0.0
  0
SPLINE
  5
1B1
100
AcDbEntity
  8
ALPHA
 62
     7
100
AcDbSpline
210
0.0
220
0.0
230
1.0
 70
    11
 71
     3
 72
    26
 73
    22
 74
     0
 42
0.0000001
 43
0.0000001
 40
0.0
 40
0.0
 40
0.0
 40
0.0
 40
1.0
 40
1.0
 40
1.0
 40
2.0
 40
2.0
 40
2.0
 40
3.0
 40
3.0
 40
3.0
 40
4.0
 40
4.0
 40
4.0
 40
5.0
 40
5.0
 40
5.0
 40
6.0
 40
6.0
 40
6.0
 40
7.0
 40
7.0
 40
7.0
 40
7.0
 10
124.7693437364366
 20
-1.017896525065103
 30
0.0
 10
124.7693437364366
 20
-1.017896525065103
 30
0.0
 10
127.7776011149088
 20
1.988982815212673
 30
0.0
 10
127.7776011149088
 20
1.988982815212673
 30
0.0
 10
127.7776011149088
 20
1.988982815212673
 30
0.0
 10
132.7867699517144
 20
1.988982815212673
 30
0.0
 10
132.7867699517144
 20
1.988982815212673
 30
0.0
 10
134.4500620524088
 20
1.988982815212673
 30
0.0
 10
135.7950273301866
 20
0.6398834228515625
 30
0.0
 10
135.7950273301866
 20
-1.017896525065103
 30
0.0
 10
135.7950273301866
 20
-1.017896525065103
 30
0.0
 10
135.7950273301866
 20
-1.017896525065103
 30
0.0
 10
135.7950273301866
 20
-1.017896525065103
 30
0.0
 10
135.7950273301866
 20
-2.679810587565103
 30
0.0
 10
134.4500620524088
 20
-4.024775865342881
 30
0.0
 10
132.7867699517144
 20
-4.024775865342881
 30
0.0
 10
132.7867699517144
 20
-4.024775865342881
 30
0.0
 10
127.7776011149088
 20
-4.024775865342881
 30
0.0
 10
127.7776011149088
 20
-4.024775865342881
 30
0.0
 10
127.7776011149088
 20
-4.024775865342881
 30
0.0
 10
124.7693437364366
 20
-1.017896525065103
 30
0.0
 10
124.7693437364366
 20
-1.017896525065103
 30
0.0
  0
SPLINE
  5
1B2
100
AcDbEntity
  8
ALPHA
 62
     7
100
AcDbSpline
210
0.0
220
0.0
230
-1.0
 70
     8
 71
     3
 72
    32
 73
    28
 74
     0
 42
0.0000001
 43
0.0000001
 40
0.0
 40
0.0
 40
0.0
 40
0.0
 40
1.0
 40
1.0
 40
1.0
 40
2.0
 40
2.0
 40
2.0
 40
3.0
 40
3.0
 40
3.0
 40
4.0
 40
4.0
 40
4.0
 40
5.0
 40
5.0
 40
5.0
 40
6.0
 40
6.0
 40
6.0
 40
7.0
 40
7.0
 40
7.0
 40
8.0
 40
8.0
 40
8.0
 40
9.0
 40
9.0
 40
9.0
 40
9.0
 10
127.7817352294921
 20
-23.12300720214843
 30
0.0
 10
127.7817352294921
 20
-23.12300720214843
 30
0.0
 10
127.7817352294921
 20
-26.12988654242621
 30
0.0
 10
127.7817352294921
 20
-26.12988654242621
 30
0.0
 10
127.7817352294921
 20
-26.68661397298176
 30
0.0
 10
127.3352508544921
 20
-27.13309834798177
 30
0.0
 10
126.7771453857421
 20
-27.13309834798177
 30
0.0
 10
126.7771453857421
 20
-27.13309834798177
 30
0.0
 10
112.7459604899088
 20
-27.13309834798177
 30
0.0
 10
112.7459604899088
 20
-27.13309834798177
 30
0.0
 10
112.1933671739366
 20
-27.13309834798177
 30
0.0
 10
111.7413706461588
 20
-26.68661397298176
 30
0.0
 10
111.7413706461588
 20
-26.12988654242621
 30
0.0
 10
111.7413706461588
 20
-26.12988654242621
 30
0.0
 10
111.7413706461588
 20
-14.10099114312066
 30
0.0
 10
111.7413706461588
 20
-14.10099114312066
 30
0.0
 10
111.7413706461588
 20
-13.54839782714843
 30
0.0
 10
112.1933671739366
 20
-13.10191345214843
 30
0.0
 10
112.7459604899088
 20
-13.10191345214843
 30
0.0
 10
112.7459604899088
 20
-13.10191345214843
 30
0.0
 10
126.7771453857421
 20
-13.10191345214843
 30
0.0
 10
126.7771453857421
 20
-13.10191345214843
 30
0.0
 10
127.3352508544921
 20
-13.10191345214843
 30
0.0
 10
127.7817352294921
 20
-13.54839782714843
 30
0.0
 10
127.7817352294921
 20
-14.10099114312066
 30
0.0
 10
127.7817352294921
 20
-14.10099114312066
 30
0.0
 10
127.7817352294921
 20
-17.10787048339843
 30
0.0
 10
127.7817352294921
 20
-17.10787048339843
 30
0.0
  0
SPLINE
  5
1B3
100
AcDbEntity
  8
ALPHA
 62
     7
100
AcDbSpline
210
0.0
220
0.0
230
1.0
 70
    11
 71
     3
 72
    26
 73
    22
 74
     0
 42
0.0000001
 43
0.0000001
 40
0.0
 40
0.0
 40
0.0
 40
0.0
 40
1.0
 40
1.0
 40
1.0
 40
2.0
 40
2.0
 40
2.0
 40
3.0
 40
3.0
 40
3.0
 40
4.0
 40
4.0
 40
4.0
 40
5.0
 40
5.0
 40
5.0
 40
6.0
 40
6.0
 40
6.0
 40
7.0
 40
7.0
 40
7.0
 40
7.0
 10
124.7693437364366
 20
-20.11474982367621
 30
0.0
 10
124.7693437364366
 20
-20.11474982367621
 30
0.0
 10
127.7776011149088
 20
-17.10787048339843
 30
0.0
 10
127.7776011149088
 20
-17.10787048339843
 30
0.0
 10
127.7776011149088
 20
-17.10787048339843
 30
0.0
 10
132.7867699517144
 20
-17.10787048339843
 30
0.0
 10
132.7867699517144
 20
-17.10787048339843
 30
0.0
 10
134.4500620524088
 20
-17.10787048339843
 30
0.0
 10
135.7950273301866
 20
-18.45696987575954
 30
0.0
 10
135.7950273301866
 20
-20.11474982367621
 30
0.0
 10
135.7950273301866
 20
-20.11474982367621
 30
0.0
 10
135.7950273301866
 20
-20.11474982367621
 30
0.0
 10
135.7950273301866
 20
-20.11474982367621
 30
0.0
 10
135.7950273301866
 20
-21.77804192437065
 30
0.0
 10
134.4500620524088
 20
-23.12300720214843
 30
0.0
 10
132.7867699517144
 20
-23.12300720214843
 30
0.0
 10
132.7867699517144
 20
-23.12300720214843
 30
0.0
 10
127.7776011149088
 20
-23.12300720214843
 30
0.0
 10
127.7776011149088
 20
-23.12300720214843
 30
0.0
 10
127.7776011149088
 20
-23.12300720214843
 30
0.0
 10
124.7693437364366
 20
-20.11474982367621
 30
0.0
 10
124.7693437364366
 20
-20.11474982367621
 30
0.0
  0
SPLINE
  5
1B4
100
AcDbEntity
  8
ALPHA
 62
     7
100
AcDbSpline
210
0.0
220
0.0
230
-1.0
 70
     8
 71
     3
 72
    32
 73
    28
 74
     0
 42
0.0000001
 43
0.0000001
 40
0.0
 40
0.0
 40
0.0
 40
0.0
 40
1.0
 40
1.0
 40
1.0
 40
2.0
 40
2.0
 40
2.0
 40
3.0
 40
3.0
 40
3.0
 40
4.0
 40
4.0
 40
4.0
 40
5.0
 40
5.0
 40
5.0
 40
6.0
 40
6.0
 40
6.0
 40
7.0
 40
7.0
 40
7.0
 40
8.0
 40
8.0
 40
8.0
 40
9.0
 40
9.0
 40
9.0
 40
9.0
 10
127.7817352294921
 20
-42.21986050075954
 30
0.0
 10
127.7817352294921
 20
-42.21986050075954
 30
0.0
 10
127.7817352294921
 20
-45.22811787923177
 30
0.0
 10
127.7817352294921
 20
-45.22811787923177
 30
0.0
 10
127.7817352294921
 20
-45.78484530978732
 30
0.0
 10
127.3352508544921
 20
-46.23132968478731
 30
0.0
 10
126.7771453857421
 20
-46.23132968478731
 30
0.0
 10
126.7771453857421
 20
-46.23132968478731
 30
0.0
 10
112.7459604899088
 20
-46.23132968478731
 30
0.0
 10
112.7459604899088
 20
-46.23132968478731
 30
0.0
 10
112.1933671739366
 20
-46.23132968478731
 30
0.0
 10
111.7413706461588
 20
-45.78484530978732
 30
0.0
 10
111.7413706461588
 20
-45.22811787923177
 30
0.0
 10
111.7413706461588
 20
-45.22811787923177
 30
0.0
 10
111.7413706461588
 20
-33.19922247992621
 30
0.0
 10
111.7413706461588
 20
-33.19922247992621
 30
0.0
 10
111.7413706461588
 20
-32.64662916395399
 30
0.0
 10
112.1933671739366
 20
-32.19876675075954
 30
0.0
 10
112.7459604899088
 20
-32.19876675075954
 30
0.0
 10
112.7459604899088
 20
-32.19876675075954
 30
0.0
 10
126.7771453857421
 20
-32.19876675075954
 30
0.0
 10
126.7771453857421
 20
-32.19876675075954
 30
0.0
 10
127.3352508544921
 20
-32.19876675075954
 30
0.0
 10
127.7817352294921
 20
-32.64662916395399
 30
0.0
 10
127.7817352294921
 20
-33.19922247992621
 30
0.0
 10
127.7817352294921
 20
-33.19922247992621
 30
0.0
 10
127.7817352294921
 20
-36.20610182020399
 30
0.0
 10
127.7817352294921
 20
-36.20610182020399
 30
0.0
  0
SPLINE
  5
1B5
100
AcDbEntity
  8
ALPHA
 62
     7
100
AcDbSpline
210
0.0
220
0.0
230
1.0
 70
    11
 71
     3
 72
    26
 73
    22
 74
     0
 42
0.0000001
 43
0.0000001
 40
0.0
 40
0.0
 40
0.0
 40
0.0
 40
1.0
 40
1.0
 40
1.0
 40
2.0
 40
2.0
 40
2.0
 40
3.0
 40
3.0
 40
3.0
 40
4.0
 40
4.0
 40
4.0
 40
5.0
 40
5.0
 40
5.0
 40
6.0
 40
6.0
 40
6.0
 40
7.0
 40
7.0
 40
7.0
 40
7.0
 10
124.7693437364366
 20
-39.21298116048177
 30
0.0
 10
124.7693437364366
 20
-39.21298116048177
 30
0.0
 10
127.7776011149088
 20
-36.20610182020399
 30
0.0
 10
127.7776011149088
 20
-36.20610182020399
 30
0.0
 10
127.7776011149088
 20
-36.20610182020399
 30
0.0
 10
132.7867699517144
 20
-36.20610182020399
 30
0.0
 10
132.7867699517144
 20
-36.20610182020399
 30
0.0
 10
134.4500620524088
 20
-36.20610182020399
 30
0.0
 10
135.7950273301866
 20
-37.5552012125651
 30
0.0
 10
135.7950273301866
 20
-39.21298116048177
 30
0.0
 10
135.7950273301866
 20
-39.21298116048177
 30
0.0
 10
135.7950273301866
 20
-39.21298116048177
 30
0.0
 10
135.7950273301866
 20
-39.21298116048177
 30
0.0
 10
135.7950273301866
 20
-40.87489522298176
 30
0.0
 10
134.4500620524088
 20
-42.21986050075954
 30
0.0
 10
132.7867699517144
 20
-42.21986050075954
 30
0.0
 10
132.7867699517144
 20
-42.21986050075954
 30
0.0
 10
127.7776011149088
 20
-42.21986050075954
 30
0.0
 10
127.7776011149088
 20
-42.21986050075954
 30
0.0
 10
127.7776011149088
 20
-42.21986050075954
 30
0.0
 10
124.7693437364366
 20
-39.21298116048177
 30
0.0
 10
124.7693437364366
 20
-39.21298116048177
 30
0.0
  0
SPLINE
  5
1B6
100
AcDbEntity
  8
ALPHA
 62
     7
100
AcDbSpline
210
0.0
220
0.0
230
-1.0
 70
     8
 71
     3
 72
    32
 73
    28
 74
     0
 42
0.0000001
 43
0.0000001
 40
0.0
 40
0.0
 40
0.0
 40
0.0
 40
1.0
 40
1.0
 40
1.0
 40
2.0
 40
2.0
 40
2.0
 40
3.0
 40
3.0
 40
3.0
 40
4.0
 40
4.0
 40
4.0
 40
5.0
 40
5.0
 40
5.0
 40
6.0
 40
6.0
 40
6.0
 40
7.0
 40
7.0
 40
7.0
 40
8.0
 40
8.0
 40
8.0
 40
9.0
 40
9.0
 40
9.0
 40
9.0
 10
127.7817352294921
 20
-61.3180918375651
 30
0.0
 10
127.7817352294921
 20
-61.3180918375651
 30
0.0
 10
127.7817352294921
 20
-64.32497117784286
 30
0.0
 10
127.7817352294921
 20
-64.32497117784286
 30
0.0
 10
127.7817352294921
 20
-64.88169860839843
 30
0.0
 10
127.3352508544921
 20
-65.32956102159288
 30
0.0
 10
126.7771453857421
 20
-65.32956102159288
 30
0.0
 10
126.7771453857421
 20
-65.32956102159288
 30
0.0
 10
112.7459604899088
 20
-65.32956102159288
 30
0.0
 10
112.7459604899088
 20
-65.32956102159288
 30
0.0
 10
112.1933671739366
 20
-65.32956102159288
 30
0.0
 10
111.7413706461588
 20
-64.88169860839843
 30
0.0
 10
111.7413706461588
 20
-64.32497117784286
 30
0.0
 10
111.7413706461588
 20
-64.32497117784286
 30
0.0
 10
111.7413706461588
 20
-52.29607577853732
 30
0.0
 10
111.7413706461588
 20
-52.29607577853732
 30
0.0
 10
111.7413706461588
 20
-51.7434824625651
 30
0.0
 10
112.1933671739366
 20
-51.2969980875651
 30
0.0
 10
112.7459604899088
 20
-51.2969980875651
 30
0.0
 10
112.7459604899088
 20
-51.2969980875651
 30
0.0
 10
126.7771453857421
 20
-51.2969980875651
 30
0.0
 10
126.7771453857421
 20
-51.2969980875651
 30
0.0
 10
127.3352508544921
 20
-51.2969980875651
 30
0.0
 10
127.7817352294921
 20
-51.7434824625651
 30
0.0
 10
127.7817352294921
 20
-52.29607577853732
 30
0.0
 10
127.7817352294921
 20
-52.29607577853732
 30
0.0
 10
127.7817352294921
 20
-55.3029551188151
 30
0.0
 10
127.7817352294921
 20
-55.3029551188151
 30
0.0
  0
SPLINE
  5
1B7
100
AcDbEntity
  8
ALPHA
 62
     7
100
AcDbSpline
210
0.0
220
0.0
230
1.0
 70
    11
 71
     3
 72
    26
 73
    22
 74
     0
 42
0.0000001
 43
0.0000001
 40
0.0
 40
0.0
 40
0.0
 40
0.0
 40
1.0
 40
1.0
 40
1.0
 40
2.0
 40
2.0
 40
2.0
 40
3.0
 40
3.0
 40
3.0
 40
4.0
 40
4.0
 40
4.0
 40
5.0
 40
5.0
 40
5.0
 40
6.0
 40
6.0
 40
6.0
 40
7.0
 40
7.0
 40
7.0
 40
7.0
 10
124.7693437364366
 20
-58.31121249728732
 30
0.0
 10
124.7693437364366
 20
-58.31121249728732
 30
0.0
 10
127.7776011149088
 20
-55.3029551188151
 30
0.0
 10
127.7776011149088
 20
-55.3029551188151
 30
0.0
 10
127.7776011149088
 20
-55.3029551188151
 30
0.0
 10
132.7867699517144
 20
-55.3029551188151
 30
0.0
 10
132.7867699517144
 20
-55.3029551188151
 30
0.0
 10
134.4500620524088
 20
-55.3029551188151
 30
0.0
 10
135.7950273301866
 20
-56.65343254937066
 30
0.0
 10
135.7950273301866
 20
-58.31121249728732
 30
0.0
 10
135.7950273301866
 20
-58.31121249728732
 30
0.0
 10
135.7950273301866
 20
-58.31121249728732
 30
0.0
 10
135.7950273301866
 20
-58.31121249728732
 30
0.0
 10
135.7950273301866
 20
-59.97312655978731
 30
0.0
 10
134.4500620524088
 20
-61.3180918375651
 30
0.0
 10
132.7867699517144
 20
-61.3180918375651
 30
0.0
 10
132.7867699517144
 20
-61.3180918375651
 30
0.0
 10
127.7776011149088
 20
-61.3180918375651
 30
0.0
 10
127.7776011149088
 20
-61.3180918375651
 30
0.0
 10
127.7776011149088
 20
-61.3180918375651
 30
0.0
 10
124.7693437364366
 20
-58.31121249728732
 30
0.0
 10
124.7693437364366
 20
-58.31121249728732
 30
0.0
  0
SPLINE
  5
1B8
100
AcDbEntity
  8
ALPHA
 62
     7
100
AcDbSpline
210
0.0
220
0.0
230
-1.0
 70
     8
 71
     3
 72
    32
 73
    28
 74
     0
 42
0.0000001
 43
0.0000001
 40
0.0
 40
0.0
 40
0.0
 40
0.0
 40
1.0
 40
1.0
 40
1.0
 40
2.0
 40
2.0
 40
2.0
 40
3.0
 40
3.0
 40
3.0
 40
4.0
 40
4.0
 40
4.0
 40
5.0
 40
5.0
 40
5.0
 40
6.0
 40
6.0
 40
6.0
 40
7.0
 40
7.0
 40
7.0
 40
8.0
 40
8.0
 40
8.0
 40
9.0
 40
9.0
 40
9.0
 40
9.0
 10
127.7817352294921
 20
-80.41494513617621
 30
0.0
 10
127.7817352294921
 20
-80.41494513617621
 30
0.0
 10
127.7817352294921
 20
-83.42320251464842
 30
0.0
 10
127.7817352294921
 20
-83.42320251464842
 30
0.0
 10
127.7817352294921
 20
-83.97992994520398
 30
0.0
 10
127.3352508544921
 20
-84.42641432020399
 30
0.0
 10
126.7771453857421
 20
-84.42641432020399
 30
0.0
 10
126.7771453857421
 20
-84.42641432020399
 30
0.0
 10
112.7459604899088
 20
-84.42641432020399
 30
0.0
 10
112.7459604899088
 20
-84.42641432020399
 30
0.0
 10
112.1933671739366
 20
-84.42641432020399
 30
0.0
 10
111.7413706461588
 20
-83.97992994520398
 30
0.0
 10
111.7413706461588
 20
-83.42320251464842
 30
0.0
 10
111.7413706461588
 20
-83.42320251464842
 30
0.0
 10
111.7413706461588
 20
-71.39430711534287
 30
0.0
 10
111.7413706461588
 20
-71.39430711534287
 30
0.0
 10
111.7413706461588
 20
-70.84171379937065
 30
0.0
 10
112.1933671739366
 20
-70.39522942437065
 30
0.0
 10
112.7459604899088
 20
-70.39522942437065
 30
0.0
 10
112.7459604899088
 20
-70.39522942437065
 30
0.0
 10
126.7771453857421
 20
-70.39522942437065
 30
0.0
 10
126.7771453857421
 20
-70.39522942437065
 30
0.0
 10
127.3352508544921
 20
-70.39522942437065
 30
0.0
 10
127.7817352294921
 20
-70.84171379937065
 30
0.0
 10
127.7817352294921
 20
-71.39430711534287
 30
0.0
 10
127.7817352294921
 20
-71.39430711534287
 30
0.0
 10
127.7817352294921
 20
-74.40118645562065
 30
0.0
 10
127.7817352294921
 20
-74.40118645562065
 30
0.0
  0
SPLINE
  5
1B9
100
AcDbEntity
  8
ALPHA
 62
     7
100
AcDbSpline
210
0.0
220
0.0
230
1.0
 70
    11
 71
     3
 72
    26
 73
    22
 74
     0
 42
0.0000001
 43
0.0000001
 40
0.0
 40
0.0
 40
0.0
 40
0.0
 40
1.0
 40
1.0
 40
1.0
 40
2.0
 40
2.0
 40
2.0
 40
3.0
 40
3.0
 40
3.0
 40
4.0
 40
4.0
 40
4.0
 40
5.0
 40
5.0
 40
5.0
 40
6.0
 40
6.0
 40
6.0
 40
7.0
 40
7.0
 40
7.0
 40
7.0
 10
124.7693437364366
 20
-77.40806579589843
 30
0.0
 10
124.7693437364366
 20
-77.40806579589843
 30
0.0
 10
127.7776011149088
 20
-74.40118645562065
 30
0.0
 10
127.7776011149088
 20
-74.40118645562065
 30
0.0
 10
127.7776011149088
 20
-74.40118645562065
 30
0.0
 10
132.7867699517144
 20
-74.40118645562065
 30
0.0
 10
132.7867699517144
 20
-74.40118645562065
 30
0.0
 10
134.4500620524088
 20
-74.40118645562065
 30
0.0
 10
135.7950273301866
 20
-75.75028584798175
 30
0.0
 10
135.7950273301866
 20
-77.40806579589843
 30
0.0
 10
135.7950273301866
 20
-77.40806579589843
 30
0.0
 10
135.7950273301866
 20
-77.40806579589843
 30
0.0
 10
135.7950273301866
 20
-77.40806579589843
 30
0.0
 10
135.7950273301866
 20
-79.07135789659287
 30
0.0
 10
134.4500620524088
 20
-80.41494513617621
 30
0.0
 10
132.7867699517144
 20
-80.41494513617621
 30
0.0
 10
132.7867699517144
 20
-80.41494513617621
 30
0.0
 10
127.7776011149088
 20
-80.41494513617621
 30
0.0
 10
127.7776011149088
 20
-80.41494513617621
 30
0.0
 10
127.7776011149088
 20
-80.41494513617621
 30
0.0
 10
124.7693437364366
 20
-77.40806579589843
 30
0.0
 10
124.7693437364366
 20
-77.40806579589843
 30
0.0
  0
POLYLINE
  5
1BA
100
AcDbEntity
  8
ALPHA
 62
     7
100
AcDb2dPolyline
 66
     1
 10
0.0
 20
0.0
 30
0.0
 70
     1
  0
VERTEX
  5
1BB
100
AcDbEntity
  8
ALPHA
 62
     7
100
AcDbVertex
100
AcDb2dVertex
 10
-53.427531
 20
-72.416811
 30
0.0
  0
VERTEX
  5
1BC
100
AcDbEntity
  8
ALPHA
 62
     7
100
AcDbVertex
100
AcDb2dVertex
 10
-53.427531
 20
-63.394795
 30
0.0
  0
VERTEX
  5
1BD
100
AcDbEntity
  8
ALPHA
 62
     7
100
AcDbVertex
100
AcDb2dVertex
 10
-68.468646
 20
-63.394795
 30
0.0
  0
VERTEX
  5
1BE
100
AcDbEntity
  8
ALPHA
 62
     7
100
AcDbVertex
100
AcDb2dVertex
 10
-68.468646
 20
-72.416811
 30
0.0
  0
SEQEND
  5
1BF
100
AcDbEntity
  8
ALPHA
 62
     7
  0
POLYLINE
  5
1C0
100
AcDbEntity
  8
ALPHA
 62
     7
100
AcDb2dPolyline
 66
     1
 10
0.0
 20
0.0
 30
0.0
 70
     1
  0
VERTEX
  5
1C1
100
AcDbEntity
  8
ALPHA
 62
     7
100
AcDbVertex
100
AcDb2dVertex
 10
-53.427531
 20
-34.221727
 30
0.0
  0
VERTEX
  5
1C2
100
AcDbEntity
  8
ALPHA
 62
     7
100
AcDbVertex
100
AcDb2dVertex
 10
-53.427531
 20
-25.199711
 30
0.0
  0
VERTEX
  5
1C3
100
AcDbEntity
  8
ALPHA
 62
     7
100
AcDbVertex
100
AcDb2dVertex
 10
-68.468646
 20
-25.199711
 30
0.0
  0
VERTEX
  5
1C4
100
AcDbEntity
  8
ALPHA
 62
     7
100
AcDbVertex
100
AcDb2dVertex
 10
-68.468646
 20
-34.221727
 30
0.0
  0
SEQEND
  5
1C5
100
AcDbEntity
  8
ALPHA
 62
     7
  0
POLYLINE
  5
1C6
100
AcDbEntity
  8
ALPHA
 62
     7
100
AcDb2dPolyline
 66
     1
 10
0.0
 20
0.0
 30
0.0
 70
     1
  0
VERTEX
  5
1C7
100
AcDbEntity
  8
ALPHA
 62
     7
100
AcDbVertex
100
AcDb2dVertex
 10
-34.330678
 20
-52.789413
 30
0.0
  0
VERTEX
  5
1C8
100
AcDbEntity
  8
ALPHA
 62
     7
100
AcDbVertex
100
AcDb2dVertex
 10
-34.330678
 20
-43.767397
 30
0.0
  0
VERTEX
  5
1C9
100
AcDbEntity
  8
ALPHA
 62
     7
100
AcDbVertex
100
AcDb2dVertex
 10
-49.370587
 20
-43.767397
 30
0.0
  0
VERTEX
  5
1CA
100
AcDbEntity
  8
ALPHA
 62
     7
100
AcDbVertex
100
AcDb2dVertex
 10
-49.370587
 20
-52.789413
 30
0.0
  0
SEQEND
  5
1CB
100
AcDbEntity
  8
ALPHA
 62
     7
  0
POLYLINE
  5
1CC
100
AcDbEntity
  8
ALPHA
 62
     7
100
AcDb2dPolyline
 66
     1
 10
0.0
 20
0.0
 30
0.0
 70
     1
  0
VERTEX
  5
1CD
100
AcDbEntity
  8
ALPHA
 62
     7
100
AcDbVertex
100
AcDb2dVertex
 10
-14.528269
 20
-34.221727
 30
0.0
  0
VERTEX
  5
1CE
100
AcDbEntity
  8
ALPHA
 62
     7
100
AcDbVertex
100
AcDb2dVertex
 10
-14.528269
 20
-25.199711
 30
0.0
  0
VERTEX
  5
1CF
100
AcDbEntity
  8
ALPHA
 62
     7
100
AcDbVertex
100
AcDb2dVertex
 10
-29.564044
 20
-25.199711
 30
0.0
  0
VERTEX
  5
1D0
100
AcDbEntity
  8
ALPHA
 62
     7
100
AcDbVertex
100
AcDb2dVertex
 10
-29.564044
 20
-34.221727
 30
0.0
  0
SEQEND
  5
1D1
100
AcDbEntity
  8
ALPHA
 62
     7
  0
POLYLINE
  5
1D2
100
AcDbEntity
  8
ALPHA
 62
     7
100
AcDb2dPolyline
 66
     1
 10
0.0
 20
0.0
 30
0.0
 70
     1
  0
VERTEX
  5
1D3
100
AcDbEntity
  8
ALPHA
 62
     7
100
AcDbVertex
100
AcDb2dVertex
 10
1.03805
 20
3.265046
 30
0.0
  0
VERTEX
  5
1D4
100
AcDbEntity
  8
ALPHA
 62
     7
100
AcDbVertex
100
AcDb2dVertex
 10
1.03805
 20
12.287234
 30
0.0
  0
VERTEX
  5
1D5
100
AcDbEntity
  8
ALPHA
 62
     7
100
AcDbVertex
100
AcDb2dVertex
 10
-14.003237
 20
12.287234
 30
0.0
  0
VERTEX
  5
1D6
100
AcDbEntity
  8
ALPHA
 62
     7
100
AcDbVertex
100
AcDb2dVertex
 10
-14.003237
 20
3.265046
 30
0.0
  0
SEQEND
  5
1D7
100
AcDbEntity
  8
ALPHA
 62
     7
  0
POLYLINE
  5
1D8
100
AcDbEntity
  8
ALPHA
 62
     7
100
AcDb2dPolyline
 66
     1
 10
0.0
 20
0.0
 30
0.0
 70
     1
  0
VERTEX
  5
1D9
100
AcDbEntity
  8
ALPHA
 62
     7
100
AcDbVertex
100
AcDb2dVertex
 10
22.254326
 20
3.265046
 30
0.0
  0
VERTEX
  5
1DA
100
AcDbEntity
  8
ALPHA
 62
     7
100
AcDbVertex
100
AcDb2dVertex
 10
22.254326
 20
12.287234
 30
0.0
  0
VERTEX
  5
1DB
100
AcDbEntity
  8
ALPHA
 62
     7
100
AcDbVertex
100
AcDb2dVertex
 10
7.218552
 20
12.287234
 30
0.0
  0
VERTEX
  5
1DC
100
AcDbEntity
  8
ALPHA
 62
     7
100
AcDbVertex
100
AcDb2dVertex
 10
7.218552
 20
3.265046
 30
0.0
  0
SEQEND
  5
1DD
100
AcDbEntity
  8
ALPHA
 62
     7
  0
POLYLINE
  5
1DE
100
AcDbEntity
  8
ALPHA
 62
     7
100
AcDb2dPolyline
 66
     1
 10
0.0
 20
0.0
 30
0.0
 70
     1
  0
VERTEX
  5
1DF
100
AcDbEntity
  8
ALPHA
 62
     7
100
AcDbVertex
100
AcDb2dVertex
 10
43.474737
 20
3.265046
 30
0.0
  0
VERTEX
  5
1E0
100
AcDbEntity
  8
ALPHA
 62
     7
100
AcDbVertex
100
AcDb2dVertex
 10
43.474737
 20
12.287234
 30
0.0
  0
VERTEX
  5
1E1
100
AcDbEntity
  8
ALPHA
 62
     7
100
AcDbVertex
100
AcDb2dVertex
 10
28.438962
 20
12.287234
 30
0.0
  0
VERTEX
  5
1E2
100
AcDbEntity
  8
ALPHA
 62
     7
100
AcDbVertex
100
AcDb2dVertex
 10
28.438962
 20
3.265046
 30
0.0
  0
SEQEND
  5
1E3
100
AcDbEntity
  8
ALPHA
 62
     7
  0
POLYLINE
  5
1E4
100
AcDbEntity
  8
ALPHA
 62
     7
100
AcDb2dPolyline
 66
     1
 10
0.0
 20
0.0
 30
0.0
 70
     1
  0
VERTEX
  5
1E5
100
AcDbEntity
  8
ALPHA
 62
     7
100
AcDbVertex
100
AcDb2dVertex
 10
64.695147
 20
3.265046
 30
0.0
  0
VERTEX
  5
1E6
100
AcDbEntity
  8
ALPHA
 62
     7
100
AcDbVertex
100
AcDb2dVertex
 10
64.695147
 20
12.287234
 30
0.0
  0
VERTEX
  5
1E7
100
AcDbEntity
  8
ALPHA
 62
     7
100
AcDbVertex
100
AcDb2dVertex
 10
49.659372
 20
12.287234
 30
0.0
  0
VERTEX
  5
1E8
100
AcDbEntity
  8
ALPHA
 62
     7
100
AcDbVertex
100
AcDb2dVertex
 10
49.659372
 20
3.265046
 30
0.0
  0
SEQEND
  5
1E9
100
AcDbEntity
  8
ALPHA
 62
     7
  0
POLYLINE
  5
1EA
100
AcDbEntity
  8
ALPHA
 62
     7
100
AcDb2dPolyline
 66
     1
 10
0.0
 20
0.0
 30
0.0
 70
     1
  0
VERTEX
  5
1EB
100
AcDbEntity
  8
ALPHA
 62
     7
100
AcDbVertex
100
AcDb2dVertex
 10
22.254326
 20
-73.125123
 30
0.0
  0
VERTEX
  5
1EC
100
AcDbEntity
  8
ALPHA
 62
     7
100
AcDbVertex
100
AcDb2dVertex
 10
22.254326
 20
-64.104485
 30
0.0
  0
VERTEX
  5
1ED
100
AcDbEntity
  8
ALPHA
 62
     7
100
AcDbVertex
100
AcDb2dVertex
 10
7.218552
 20
-64.104485
 30
0.0
  0
VERTEX
  5
1EE
100
AcDbEntity
  8
ALPHA
 62
     7
100
AcDbVertex
100
AcDb2dVertex
 10
7.218552
 20
-73.125123
 30
0.0
  0
SEQEND
  5
1EF
100
AcDbEntity
  8
ALPHA
 62
     7
  0
POLYLINE
  5
1F0
100
AcDbEntity
  8
ALPHA
 62
     7
100
AcDb2dPolyline
 66
     1
 10
0.0
 20
0.0
 30
0.0
 70
     1
  0
VERTEX
  5
1F1
100
AcDbEntity
  8
ALPHA
 62
     7
100
AcDbVertex
100
AcDb2dVertex
 10
43.474737
 20
-73.125123
 30
0.0
  0
VERTEX
  5
1F2
100
AcDbEntity
  8
ALPHA
 62
     7
100
AcDbVertex
100
AcDb2dVertex
 10
43.474737
 20
-64.104485
 30
0.0
  0
VERTEX
  5
1F3
100
AcDbEntity
  8
ALPHA
 62
     7
100
AcDbVertex
100
AcDb2dVertex
 10
28.438962
 20
-64.104485
 30
0.0
  0
VERTEX
  5
1F4
100
AcDbEntity
  8
ALPHA
 62
     7
100
AcDbVertex
100
AcDb2dVertex
 10
28.438962
 20
-73.125123
 30
0.0
  0
SEQEND
  5
1F5
100
AcDbEntity
  8
ALPHA
 62
     7
  0
POLYLINE
  5
1F6
100
AcDbEntity
  8
ALPHA
 62
     7
100
AcDb2dPolyline
 66
     1
 10
0.0
 20
0.0
 30
0.0
 70
     1
  0
VERTEX
  5
1F7
100
AcDbEntity
  8
ALPHA
 62
     7
100
AcDbVertex
100
AcDb2dVertex
 10
64.695147
 20
-73.125123
 30
0.0
  0
VERTEX
  5
1F8
100
AcDbEntity
  8
ALPHA
 62
     7
100
AcDbVertex
100
AcDb2dVertex
 10
64.695147
 20
-64.104485
 30
0.0
  0
VERTEX
  5
1F9
100
AcDbEntity
  8
ALPHA
 62
     7
100
AcDbVertex
100
AcDb2dVertex
 10
49.659372
 20
-64.104485
 30
0.0
  0
VERTEX
  5
1FA
100
AcDbEntity
  8
ALPHA
 62
     7
100
AcDbVertex
100
AcDb2dVertex
 10
49.659372
 20
-73.125123
 30
0.0
  0
SEQEND
  5
1FB
100
AcDbEntity
  8
ALPHA
 62
     7
  0
POLYLINE
  5
1FC
100
AcDbEntity
  8
ALPHA
 62
     7
100
AcDb2dPolyline
 66
     1
 10
0.0
 20
0.0
 30
0.0
 70
     1
  0
VERTEX
  5
1FD
100
AcDbEntity
  8
ALPHA
 62
     7
100
AcDbVertex
100
AcDb2dVertex
 10
22.254326
 20
-55.442137
 30
0.0
  0
VERTEX
  5
1FE
100
AcDbEntity
  8
ALPHA
 62
     7
100
AcDbVertex
100
AcDb2dVertex
 10
22.254326
 20
-46.420121
 30
0.0
  0
VERTEX
  5
1FF
100
AcDbEntity
  8
ALPHA
 62
     7
100
AcDbVertex
100
AcDb2dVertex
 10
7.218552
 20
-46.420121
 30
0.0
  0
VERTEX
  5
200
100
AcDbEntity
  8
ALPHA
 62
     7
100
AcDbVertex
100
AcDb2dVertex
 10
7.218552
 20
-55.442137
 30
0.0
  0
SEQEND
  5
201
100
AcDbEntity
  8
ALPHA
 62
     7
  0
POLYLINE
  5
202
100
AcDbEntity
  8
ALPHA
 62
     7
100
AcDb2dPolyline
 66
     1
 10
0.0
 20
0.0
 30
0.0
 70
     1
  0
VERTEX
  5
203
100
AcDbEntity
  8
ALPHA
 62
     7
100
AcDbVertex
100
AcDb2dVertex
 10
43.474737
 20
-55.442137
 30
0.0
  0
VERTEX
  5
204
100
AcDbEntity
  8
ALPHA
 62
     7
100
AcDbVertex
100
AcDb2dVertex
 10
43.474737
 20
-46.420121
 30
0.0
  0
VERTEX
  5
205
100
AcDbEntity
  8
ALPHA
 62
     7
100
AcDbVertex
100
AcDb2dVertex
 10
28.438962
 20
-46.420121
 30
0.0
  0
VERTEX
  5
206
100
AcDbEntity
  8
ALPHA
 62
     7
100
AcDbVertex
100
AcDb2dVertex
 10
28.438962
 20
-55.442137
 30
0.0
  0
SEQEND
  5
207
100
AcDbEntity
  8
ALPHA
 62
     7
  0
POLYLINE
  5
208
100
AcDbEntity
  8
ALPHA
 62
     7
100
AcDb2dPolyline
 66
     1
 10
0.0
 20
0.0
 30
0.0
 70
     1
  0
VERTEX
  5
209
100
AcDbEntity
  8
ALPHA
 62
     7
100
AcDbVertex
100
AcDb2dVertex
 10
64.695147
 20
-55.442137
 30
0.0
  0
VERTEX
  5
20A
100
AcDbEntity
  8
ALPHA
 62
     7
100
AcDbVertex
100
AcDb2dVertex
 10
64.695147
 20
-46.420121
 30
0.0
  0
VERTEX
  5
20B
100
AcDbEntity
  8
ALPHA
 62
     7
100
AcDbVertex
100
AcDb2dVertex
 10
49.659372
 20
-46.420121
 30
0.0
  0
VERTEX
  5
20C
100
AcDbEntity
  8
ALPHA
 62
     7
100
AcDbVertex
100
AcDb2dVertex
 10
49.659372
 20
-55.442137
 30
0.0
  0
SEQEND
  5
20D
100
AcDbEntity
  8
ALPHA
 62
     7
  0
POLYLINE
  5
20E
100
AcDbEntity
  8
ALPHA
 62
     7
100
AcDb2dPolyline
 66
     1
 10
0.0
 20
0.0
 30
0.0
 70
     1
  0
VERTEX
  5
20F
100
AcDbEntity
  8
ALPHA
 62
     7
100
AcDbVertex
100
AcDb2dVertex
 10
22.254326
 20
-35.98975
 30
0.0
  0
VERTEX
  5
210
100
AcDbEntity
  8
ALPHA
 62
     7
100
AcDbVertex
100
AcDb2dVertex
 10
22.254326
 20
-26.967734
 30
0.0
  0
VERTEX
  5
211
100
AcDbEntity
  8
ALPHA
 62
     7
100
AcDbVertex
100
AcDb2dVertex
 10
7.218552
 20
-26.967734
 30
0.0
  0
VERTEX
  5
212
100
AcDbEntity
  8
ALPHA
 62
     7
100
AcDbVertex
100
AcDb2dVertex
 10
7.218552
 20
-35.98975
 30
0.0
  0
SEQEND
  5
213
100
AcDbEntity
  8
ALPHA
 62
     7
  0
POLYLINE
  5
214
100
AcDbEntity
  8
ALPHA
 62
     7
100
AcDb2dPolyline
 66
     1
 10
0.0
 20
0.0
 30
0.0
 70
     1
  0
VERTEX
  5
215
100
AcDbEntity
  8
ALPHA
 62
     7
100
AcDbVertex
100
AcDb2dVertex
 10
43.474737
 20
-35.98975
 30
0.0
  0
VERTEX
  5
216
100
AcDbEntity
  8
ALPHA
 62
     7
100
AcDbVertex
100
AcDb2dVertex
 10
43.474737
 20
-26.967734
 30
0.0
  0
VERTEX
  5
217
100
AcDbEntity
  8
ALPHA
 62
     7
100
AcDbVertex
100
AcDb2dVertex
 10
28.438962
 20
-26.967734
 30
0.0
  0
VERTEX
  5
218
100
AcDbEntity
  8
ALPHA
 62
     7
100
AcDbVertex
100
AcDb2dVertex
 10
28.438962
 20
-35.98975
 30
0.0
  0
SEQEND
  5
219
100
AcDbEntity
  8
ALPHA
 62
     7
  0
POLYLINE
  5
21A
100
AcDbEntity
  8
ALPHA
 62
     7
100
AcDb2dPolyline
 66
     1
 10
0.0
 20
0.0
 30
0.0
 70
     1
  0
VERTEX
  5
21B
100
AcDbEntity
  8
ALPHA
 62
     7
100
AcDbVertex
100
AcDb2dVertex
 10
64.695147
 20
-35.98975
 30
0.0
  0
VERTEX
  5
21C
100
AcDbEntity
  8
ALPHA
 62
     7
100
AcDbVertex
100
AcDb2dVertex
 10
64.695147
 20
-26.967734
 30
0.0
  0
VERTEX
  5
21D
100
AcDbEntity
  8
ALPHA
 62
     7
100
AcDbVertex
100
AcDb2dVertex
 10
49.659372
 20
-26.967734
 30
0.0
  0
VERTEX
  5
21E
100
AcDbEntity
  8
ALPHA
 62
     7
100
AcDbVertex
100
AcDb2dVertex
 10
49.659372
 20
-35.98975
 30
0.0
  0
SEQEND
  5
21F
100
AcDbEntity
  8
ALPHA
 62
     7
  0
POLYLINE
  5
220
100
AcDbEntity
  8
ALPHA
 62
     7
100
AcDb2dPolyline
 66
     1
 10
0.0
 20
0.0
 30
0.0
 70
     1
  0
VERTEX
  5
221
100
AcDbEntity
  8
ALPHA
 62
     7
100
AcDbVertex
100
AcDb2dVertex
 10
22.254326
 20
-16.362352
 30
0.0
  0
VERTEX
  5
222
100
AcDbEntity
  8
ALPHA
 62
     7
100
AcDbVertex
100
AcDb2dVertex
 10
22.254326
 20
-7.340336
 30
0.0
  0
VERTEX
  5
223
100
AcDbEntity
  8
ALPHA
 62
     7
100
AcDbVertex
100
AcDb2dVertex
 10
7.218552
 20
-7.340336
 30
0.0
  0
VERTEX
  5
224
100
AcDbEntity
  8
ALPHA
 62
     7
100
AcDbVertex
100
AcDb2dVertex
 10
7.218552
 20
-16.362352
 30
0.0
  0
SEQEND
  5
225
100
AcDbEntity
  8
ALPHA
 62
     7
  0
POLYLINE
  5
226
100
AcDbEntity
  8
ALPHA
 62
     7
100
AcDb2dPolyline
 66
     1
 10
0.0
 20
0.0
 30
0.0
 70
     1
  0
VERTEX
  5
227
100
AcDbEntity
  8
ALPHA
 62
     7
100
AcDbVertex
100
AcDb2dVertex
 10
43.474737
 20
-16.362352
 30
0.0
  0
VERTEX
  5
228
100
AcDbEntity
  8
ALPHA
 62
     7
100
AcDbVertex
100
AcDb2dVertex
 10
43.474737
 20
-7.340336
 30
0.0
  0
VERTEX
  5
229
100
AcDbEntity
  8
ALPHA
 62
     7
100
AcDbVertex
100
AcDb2dVertex
 10
28.438962
 20
-7.340336
 30
0.0
  0
VERTEX
  5
22A
100
AcDbEntity
  8
ALPHA
 62
     7
100
AcDbVertex
100
AcDb2dVertex
 10
28.438962
 20
-16.362352
 30
0.0
  0
SEQEND
  5
22B
100
AcDbEntity
  8
ALPHA
 62
     7
  0
POLYLINE
  5
22C
100
AcDbEntity
  8
ALPHA
 62
     7
100
AcDb2dPolyline
 66
     1
 10
0.0
 20
0.0
 30
0.0
 70
     1
  0
VERTEX
  5
22D
100
AcDbEntity
  8
ALPHA
 62
     7
100
AcDbVertex
100
AcDb2dVertex
 10
64.695147
 20
-16.362352
 30
0.0
  0
VERTEX
  5
22E
100
AcDbEntity
  8
ALPHA
 62
     7
100
AcDbVertex
100
AcDb2dVertex
 10
64.695147
 20
-7.340336
 30
0.0
  0
VERTEX
  5
22F
100
AcDbEntity
  8
ALPHA
 62
     7
100
AcDbVertex
100
AcDb2dVertex
 10
49.659372
 20
-7.340336
 30
0.0
  0
VERTEX
  5
230
100
AcDbEntity
  8
ALPHA
 62
     7
100
AcDbVertex
100
AcDb2dVertex
 10
49.659372
 20
-16.362352
 30
0.0
  0
SEQEND
  5
231
100
AcDbEntity
  8
ALPHA
 62
     7
  0
ENDBLK
  5
233
100
AcDbEntity
  8
ALPHA
100
AcDbBlockEnd
  0
BLOCK
  5
6C8
100
AcDbEntity
  8
0
100
AcDbBlockBegin
  2
*D7
 70
     1
 10
0.0
 20
0.0
 30
0.0
  3
*D7
  1

  0
LINE
  5
6C9
100
AcDbEntity
  8
0
  6
BYBLOCK
 62
     0
100
AcDbLine
 10
40.438397
 20
81.773183
 30
0.0
 11
40.438397
 21
63.065863
 31
0.0
  0
LINE
  5
6CA
100
AcDbEntity
  8
0
  6
BYBLOCK
 62
     0
100
AcDbLine
 10
165.438346
 20
81.773183
 30
0.0
 11
165.438346
 21
63.065863
 31
0.0
  0
LINE
  5
6CB
100
AcDbEntity
  8
0
  6
BYBLOCK
 62
     0
100
AcDbLine
 10
43.438397
 20
63.245863
 30
0.0
 11
162.438346
 21
63.245863
 31
0.0
  0
SOLID
  5
6CC
100
AcDbEntity
  8
0
  6
BYBLOCK
 62
     0
100
AcDbTrace
 10
43.438397
 20
63.745863
 30
0.0
 11
43.438397
 21
62.745863
 31
0.0
 12
40.438397
 22
63.245863
 32
0.0
 13
40.438397
 23
63.245863
 33
0.0
  0
SOLID
  5
6CD
100
AcDbEntity
  8
0
  6
BYBLOCK
 62
     0
100
AcDbTrace
 10
162.438346
 20
63.745863
 30
0.0
 11
162.438346
 21
62.745863
 31
0.0
 12
165.438346
 22
63.245863
 32
0.0
 13
165.438346
 23
63.245863
 33
0.0
  0
MTEXT
  5
6CE
100
AcDbEntity
  8
0
  6
BYBLOCK
 62
     0
100
AcDbMText
 10
102.938372
 20
65.495863
 30
0.0
 40
2.5
 41
0.0
 71
     5
 72
     1
  1
\A1;125
  0
POINT
  5
6CF
100
AcDbEntity
  8
DEFPOINTS
  6
BYBLOCK
 62
     0
100
AcDbPoint
 10
40.438397
 20
81.835683
 30
0.0
  0
POINT
  5
6D0
100
AcDbEntity
  8
DEFPOINTS
  6
BYBLOCK
 62
     0
100
AcDbPoint
 10
165.438346
 20
81.835683
 30
0.0
  0
POINT
  5
6D1
100
AcDbEntity
  8
DEFPOINTS
  6
BYBLOCK
 62
     0
100
AcDbPoint
 10
165.438346
 20
63.245863
 30
0.0
  0
ENDBLK
  5
6D2
100
AcDbEntity
  8
0
100
AcDbBlockEnd
  0
BLOCK
  5
6D5
100
AcDbEntity
  8
0
100
AcDbBlockBegin
  2
*D8
 70
     1
 10
0.0
 20
0.0
 30
0.0
  3
*D8
  1

  0
LINE
  5
6D6
100
AcDbEntity
  8
0
  6
BYBLOCK
 62
     0
100
AcDbLine
 10
163.823734
 20
149.375574
 30
0.0
 11
179.514571
 21
149.375574
 31
0.0
  0
LINE
  5
6D7
100
AcDbEntity
  8
0
  6
BYBLOCK
 62
     0
100
AcDbLine
 10
163.823734
 20
79.37554
 30
0.0
 11
179.514571
 21
79.37554
 31
0.0
  0
LINE
  5
6D8
100
AcDbEntity
  8
0
  6
BYBLOCK
 62
     0
100
AcDbLine
 10
179.334571
 20
146.375574
 30
0.0
 11
179.334571
 21
82.37554
 31
0.0
  0
SOLID
  5
6D9
100
AcDbEntity
  8
0
  6
BYBLOCK
 62
     0
100
AcDbTrace
 10
178.834571
 20
146.375574
 30
0.0
 11
179.834571
 21
146.375574
 31
0.0
 12
179.334571
 22
149.375574
 32
0.0
 13
179.334571
 23
149.375574
 33
0.0
  0
SOLID
  5
6DA
100
AcDbEntity
  8
0
  6
BYBLOCK
 62
     0
100
AcDbTrace
 10
178.834571
 20
82.37554
 30
0.0
 11
179.834571
 21
82.37554
 31
0.0
 12
179.334571
 22
79.37554
 32
0.0
 13
179.334571
 23
79.37554
 33
0.0
  0
MTEXT
  5
6DB
100
AcDbEntity
  8
0
  6
BYBLOCK
 62
     0
100
AcDbMText
 10
177.084571
 20
114.375557
 30
0.0
 40
2.5
 41
0.0
 71
     5
 72
     1
  1
\A1;70
 11
0.0
 21
1.0
 31
0.0
  0
POINT
  5
6DC
100
AcDbEntity
  8
DEFPOINTS
  6
BYBLOCK
 62
     0
100
AcDbPoint
 10
163.761234
 20
149.375574
 30
0.0
  0
POINT
  5
6DD
100
AcDbEntity
  8
DEFPOINTS
  6
BYBLOCK
 62
     0
100
AcDbPoint
 10
163.761234
 20
79.37554
 30
0.0
  0
POINT
  5
6DE
100
AcDbEntity
  8
DEFPOINTS
  6
BYBLOCK
 62
     0
100
AcDbPoint
 10
179.334571
 20
79.37554
 30
0.0
  0
ENDBLK
  5
6DF
100
AcDbEntity
  8
0
100
AcDbBlockEnd
  0
ENDSEC
  0
SECTION
  2
ENTITIES
  0
INSERT
  5
CC
100
AcDbEntity
  8
0
100
AcDbBlockReference
  2
SCH_IS
 10
-68.718396
 20
-140.042541
 30
0.0
  0
INSERT
  5
EC
100
AcDbEntity
  8
COTATION1
100
AcDbBlockReference
  2
SCH_IS
 10
0.0
 20
0.0
 30
0.0
  0
CIRCLE
  5
5DD
100
AcDbEntity
  8
ALPHA
 62
     7
100
AcDbCircle
 10
101.804849
 20
87.178682
 30
0.0
 40
1.727543
  0
CIRCLE
  5
5DE
100
AcDbEntity
  8
ALPHA
 62
     7
100
AcDbCircle
 10
103.964235
 20
104.885956
 30
0.0
 40
1.727543
  0
CIRCLE
  5
5DF
100
AcDbEntity
  8
ALPHA
 62
     7
100
AcDbCircle
 10
103.964235
 20
99.703326
 30
0.0
 40
1.727543
  0
POLYLINE
  5
5E0
100
AcDbEntity
  8
ALPHA
 62
     7
100
AcDb2dPolyline
 66
     1
 10
0.0
 20
0.0
 30
0.0
 70
     1
  0
VERTEX
  5
5E1
100
AcDbEntity
  8
ALPHA
 62
     7
100
AcDbVertex
100
AcDb2dVertex
 10
40.438397
 20
81.835683
 30
0.0
  0
VERTEX
  5
5E2
100
AcDbEntity
  8
ALPHA
 62
     7
100
AcDbVertex
100
AcDb2dVertex
 10
165.438346
 20
81.835683
 30
0.0
  0
VERTEX
  5
5E3
100
AcDbEntity
  8
ALPHA
 62
     7
100
AcDbVertex
100
AcDb2dVertex
 10
165.438346
 20
146.915432
 30
0.0
  0
VERTEX
  5
5E4
100
AcDbEntity
  8
ALPHA
 62
     7
100
AcDbVertex
100
AcDb2dVertex
 10
40.438397
 20
146.915432
 30
0.0
  0
SEQEND
  5
5E5
100
AcDbEntity
  8
ALPHA
 62
     7
  0
LINE
  5
5E6
100
AcDbEntity
  8
ALPHA
 62
     7
100
AcDbLine
 10
58.699814
 20
84.529403
 30
0.0
 11
165.438346
 21
84.529403
 31
0.0
  0
LINE
  5
5E7
100
AcDbEntity
  8
ALPHA
 62
     7
100
AcDbLine
 10
60.463703
 20
138.297525
 30
0.0
 11
162.379102
 21
138.297525
 31
0.0
  0
LINE
  5
5E8
100
AcDbEntity
  8
ALPHA
 62
     7
100
AcDbLine
 10
60.463703
 20
109.898914
 30
0.0
 11
162.379102
 21
109.898914
 31
0.0
  0
LINE
  5
5E9
100
AcDbEntity
  8
ALPHA
 62
     7
100
AcDbLine
 10
58.699814
 20
108.135025
 30
0.0
 11
165.438346
 21
108.135025
 31
0.0
  0
LINE
  5
5EA
100
AcDbEntity
  8
ALPHA
 62
     7
100
AcDbLine
 10
58.699814
 20
96.846136
 30
0.0
 11
165.438346
 21
96.846136
 31
0.0
  0
LINE
  5
5EB
100
AcDbEntity
  8
ALPHA
 62
     7
100
AcDbLine
 10
58.699814
 20
94.376692
 30
0.0
 11
165.438346
 21
94.376692
 31
0.0
  0
LINE
  5
5EC
100
AcDbEntity
  8
ALPHA
 62
     7
100
AcDbLine
 10
40.438397
 20
93.101145
 30
0.0
 11
165.438346
 21
93.101145
 31
0.0
  0
POLYLINE
  5
5ED
100
AcDbEntity
  8
ALPHA
 62
     7
100
AcDb2dPolyline
 66
     1
 10
0.0
 20
0.0
 30
0.0
  0
VERTEX
  5
5EE
100
AcDbEntity
  8
ALPHA
 62
     7
100
AcDbVertex
100
AcDb2dVertex
 10
51.392767
 20
133.997012
 30
0.0
  0
VERTEX
  5
5EF
100
AcDbEntity
  8
ALPHA
 62
     7
100
AcDbVertex
100
AcDb2dVertex
 10
52.4511
 20
133.997012
 30
0.0
  0
VERTEX
  5
5F0
100
AcDbEntity
  8
ALPHA
 62
     7
100
AcDbVertex
100
AcDb2dVertex
 10
52.4511
 20
104.363679
 30
0.0
  0
VERTEX
  5
5F1
100
AcDbEntity
  8
ALPHA
 62
     7
100
AcDbVertex
100
AcDb2dVertex
 10
51.392767
 20
104.363679
 30
0.0
  0
SEQEND
  5
5F2
100
AcDbEntity
  8
ALPHA
 62
     7
  0
POLYLINE
  5
5F3
100
AcDbEntity
  8
ALPHA
 62
     7
100
AcDb2dPolyline
 66
     1
 10
0.0
 20
0.0
 30
0.0
  0
VERTEX
  5
5F4
100
AcDbEntity
  8
ALPHA
 62
     7
100
AcDbVertex
100
AcDb2dVertex
 10
47.512211
 20
104.363679
 30
0.0
  0
VERTEX
  5
5F5
100
AcDbEntity
  8
ALPHA
 62
     7
100
AcDbVertex
100
AcDb2dVertex
 10
46.453878
 20
104.363679
 30
0.0
  0
VERTEX
  5
5F6
100
AcDbEntity
  8
ALPHA
 62
     7
100
AcDbVertex
100
AcDb2dVertex
 10
46.453878
 20
133.997012
 30
0.0
  0
VERTEX
  5
5F7
100
AcDbEntity
  8
ALPHA
 62
     7
100
AcDbVertex
100
AcDb2dVertex
 10
47.512211
 20
133.997012
 30
0.0
  0
SEQEND
  5
5F8
100
AcDbEntity
  8
ALPHA
 62
     7
  0
LINE
  5
5F9
100
AcDbEntity
  8
ALPHA
 62
     7
100
AcDbLine
 10
44.866378
 20
142.816457
 30
0.0
 11
44.866378
 21
96.24979
 31
0.0
  0
LINE
  5
5FA
100
AcDbEntity
  8
ALPHA
 62
     7
100
AcDbLine
 10
55.273322
 20
142.816457
 30
0.0
 11
55.273322
 21
96.24979
 31
0.0
  0
LINE
  5
5FB
100
AcDbEntity
  8
ALPHA
 62
     7
100
AcDbLine
 10
53.862211
 20
142.816457
 30
0.0
 11
53.862211
 21
96.24979
 31
0.0
  0
POLYLINE
  5
5FC
100
AcDbEntity
  8
ALPHA
 62
     7
100
AcDb2dPolyline
 66
     1
 10
0.0
 20
0.0
 30
0.0
 70
     1
  0
VERTEX
  5
5FD
100
AcDbEntity
  8
ALPHA
 62
     7
100
AcDbVertex
100
AcDb2dVertex
 10
55.273322
 20
96.24979
 30
0.0
  0
VERTEX
  5
5FE
100
AcDbEntity
  8
ALPHA
 62
     7
100
AcDbVertex
100
AcDb2dVertex
 10
43.455267
 20
96.24979
 30
0.0
  0
VERTEX
  5
5FF
100
AcDbEntity
  8
ALPHA
 62
     7
100
AcDbVertex
100
AcDb2dVertex
 10
43.455267
 20
142.816457
 30
0.0
  0
VERTEX
  5
600
100
AcDbEntity
  8
ALPHA
 62
     7
100
AcDbVertex
100
AcDb2dVertex
 10
55.273322
 20
142.816457
 30
0.0
  0
SEQEND
  5
601
100
AcDbEntity
  8
ALPHA
 62
     7
  0
POLYLINE
  5
602
100
AcDbEntity
  8
ALPHA
 62
     7
100
AcDb2dPolyline
 66
     1
 10
0.0
 20
0.0
 30
0.0
 70
     1
  0
VERTEX
  5
603
100
AcDbEntity
  8
ALPHA
 62
     7
100
AcDbVertex
100
AcDb2dVertex
 10
79.614989
 20
114.241457
 30
0.0
  0
VERTEX
  5
604
100
AcDbEntity
  8
ALPHA
 62
     7
100
AcDbVertex
100
AcDb2dVertex
 10
75.558045
 20
114.241457
 30
0.0
  0
VERTEX
  5
605
100
AcDbEntity
  8
ALPHA
 62
     7
100
AcDbVertex
100
AcDb2dVertex
 10
75.558045
 20
136.113679
 30
0.0
  0
VERTEX
  5
606
100
AcDbEntity
  8
ALPHA
 62
     7
100
AcDbVertex
100
AcDb2dVertex
 10
79.614989
 20
136.113679
 30
0.0
  0
SEQEND
  5
607
100
AcDbEntity
  8
ALPHA
 62
     7
  0
LINE
  5
608
100
AcDbEntity
  8
ALPHA
 62
     7
100
AcDbLine
 10
80.849711
 20
93.101145
 30
0.0
 11
80.849711
 21
146.915432
 31
0.0
  0
LINE
  5
609
100
AcDbEntity
  8
ALPHA
 62
     7
100
AcDbLine
 10
42.573322
 20
93.101145
 30
0.0
 11
42.573322
 21
146.915432
 31
0.0
  0
LINE
  5
60A
100
AcDbEntity
  8
ALPHA
 62
     7
100
AcDbLine
 10
60.463703
 20
108.135025
 30
0.0
 11
60.463703
 21
146.915432
 31
0.0
  0
LINE
  5
60B
100
AcDbEntity
  8
ALPHA
 62
     7
100
AcDbLine
 10
58.699814
 20
81.835683
 30
0.0
 11
58.699814
 21
146.915432
 31
0.0
  0
CIRCLE
  5
60C
100
AcDbEntity
  8
ALPHA
 62
     7
100
AcDbCircle
 10
62.988269
 20
99.703326
 30
0.0
 40
1.727371
  0
CIRCLE
  5
60D
100
AcDbEntity
  8
ALPHA
 62
     7
100
AcDbCircle
 10
62.988269
 20
104.885956
 30
0.0
 40
1.727371
  0
SPLINE
  5
60E
100
AcDbEntity
  8
ALPHA
 62
     7
100
AcDbSpline
210
0.0
220
0.0
230
1.0
 70
     8
 71
     3
 72
    20
 73
    16
 74
     0
 42
0.0000001
 43
0.0000001
 40
0.0
 40
0.0
 40
0.0
 40
0.0
 40
1.0
 40
1.0
 40
1.0
 40
2.0
 40
2.0
 40
2.0
 40
3.0
 40
3.0
 40
3.0
 40
4.0
 40
4.0
 40
4.0
 40
5.0
 40
5.0
 40
5.0
 40
5.0
 10
43.79254161610314
 20
81.83568299450035
 30
0.0
 10
43.79254161610314
 20
81.83568299450035
 30
0.0
 10
43.79254161610314
 20
80.1255375951948
 30
0.0
 10
43.79254161610314
 20
80.1255375951948
 30
0.0
 10
43.79254161610314
 20
79.71126486298995
 30
0.0
 10
43.45664480620729
 20
79.37554030786841
 30
0.0
 10
43.04254432877672
 20
79.37554030786841
 30
0.0
 10
43.04254432877672
 20
79.37554030786841
 30
0.0
 10
41.18839393815173
 20
79.37554030786841
 30
0.0
 10
41.18839393815173
 20
79.37554030786841
 30
0.0
 10
40.77429346072118
 20
79.37554030786841
 30
0.0
 10
40.43839665082535
 20
79.71126486298995
 30
0.0
 10
40.43839665082535
 20
80.1255375951948
 30
0.0
 10
40.43839665082535
 20
80.1255375951948
 30
0.0
 10
40.43839665082535
 20
81.83568299450035
 30
0.0
 10
40.43839665082535
 20
81.83568299450035
 30
0.0
  0
POLYLINE
  5
60F
100
AcDbEntity
  8
ALPHA
 62
     7
100
AcDb2dPolyline
 66
     1
 10
0.0
 20
0.0
 30
0.0
 70
     1
  0
VERTEX
  5
610
100
AcDbEntity
  8
ALPHA
 62
     7
100
AcDbVertex
100
AcDb2dVertex
 10
53.685822
 20
82.491457
 30
0.0
  0
VERTEX
  5
611
100
AcDbEntity
  8
ALPHA
 62
     7
100
AcDbVertex
100
AcDb2dVertex
 10
45.44791
 20
82.491457
 30
0.0
  0
VERTEX
  5
612
100
AcDbEntity
  8
ALPHA
 62
     7
100
AcDbVertex
100
AcDb2dVertex
 10
45.44791
 20
92.145993
 30
0.0
  0
VERTEX
  5
613
100
AcDbEntity
  8
ALPHA
 62
     7
100
AcDbVertex
100
AcDb2dVertex
 10
53.685822
 20
92.145993
 30
0.0
  0
SEQEND
  5
614
100
AcDbEntity
  8
ALPHA
 62
     7
  0
CIRCLE
  5
615
100
AcDbEntity
  8
ALPHA
 62
     7
100
AcDbCircle
 10
49.566866
 20
88.589793
 30
0.0
 40
1.727543
  0
POLYLINE
  5
616
100
AcDbEntity
  8
ALPHA
 62
     7
100
AcDb2dPolyline
 66
     1
 10
0.0
 20
0.0
 30
0.0
 70
     1
  0
VERTEX
  5
617
100
AcDbEntity
  8
ALPHA
 62
     7
100
AcDbVertex
100
AcDb2dVertex
 10
51.392767
 20
106.480346
 30
0.0
  0
VERTEX
  5
618
100
AcDbEntity
  8
ALPHA
 62
     7
100
AcDbVertex
100
AcDb2dVertex
 10
47.512211
 20
106.480346
 30
0.0
  0
VERTEX
  5
619
100
AcDbEntity
  8
ALPHA
 62
     7
100
AcDbVertex
100
AcDb2dVertex
 10
47.512211
 20
103.128957
 30
0.0
  0
VERTEX
  5
61A
100
AcDbEntity
  8
ALPHA
 62
     7
100
AcDbVertex
100
AcDb2dVertex
 10
51.392767
 20
103.128957
 30
0.0
  0
SEQEND
  5
61B
100
AcDbEntity
  8
ALPHA
 62
     7
  0
POLYLINE
  5
61C
100
AcDbEntity
  8
ALPHA
 62
     7
100
AcDb2dPolyline
 66
     1
 10
0.0
 20
0.0
 30
0.0
  0
VERTEX
  5
61D
100
AcDbEntity
  8
ALPHA
 62
     7
100
AcDbVertex
100
AcDb2dVertex
 10
53.862211
 20
99.42479
 30
0.0
  0
VERTEX
  5
61E
100
AcDbEntity
  8
ALPHA
 62
     7
100
AcDbVertex
100
AcDb2dVertex
 10
51.480961
 20
99.42479
 30
0.0
  0
VERTEX
  5
61F
100
AcDbEntity
  8
ALPHA
 62
     7
100
AcDbVertex
100
AcDb2dVertex
 10
51.480961
 20
96.24979
 30
0.0
  0
SEQEND
  5
620
100
AcDbEntity
  8
ALPHA
 62
     7
  0
POLYLINE
  5
621
100
AcDbEntity
  8
ALPHA
 62
     7
100
AcDb2dPolyline
 66
     1
 10
0.0
 20
0.0
 30
0.0
  0
VERTEX
  5
622
100
AcDbEntity
  8
ALPHA
 62
     7
100
AcDbVertex
100
AcDb2dVertex
 10
47.247628
 20
96.24979
 30
0.0
  0
VERTEX
  5
623
100
AcDbEntity
  8
ALPHA
 62
     7
100
AcDbVertex
100
AcDb2dVertex
 10
47.247628
 20
99.42479
 30
0.0
  0
VERTEX
  5
624
100
AcDbEntity
  8
ALPHA
 62
     7
100
AcDbVertex
100
AcDb2dVertex
 10
44.866378
 20
99.42479
 30
0.0
  0
SEQEND
  5
625
100
AcDbEntity
  8
ALPHA
 62
     7
  0
CIRCLE
  5
626
100
AcDbEntity
  8
ALPHA
 62
     7
100
AcDbCircle
 10
49.452489
 20
99.42479
 30
0.0
 40
1.5875
  0
POLYLINE
  5
627
100
AcDbEntity
  8
ALPHA
 62
     7
100
AcDb2dPolyline
 66
     1
 10
0.0
 20
0.0
 30
0.0
 70
     1
  0
VERTEX
  5
628
100
AcDbEntity
  8
ALPHA
 62
     7
100
AcDbVertex
100
AcDb2dVertex
 10
52.362906
 20
103.128957
 30
0.0
  0
VERTEX
  5
629
100
AcDbEntity
  8
ALPHA
 62
     7
100
AcDbVertex
100
AcDb2dVertex
 10
46.542072
 20
103.128957
 30
0.0
  0
VERTEX
  5
62A
100
AcDbEntity
  8
ALPHA
 62
     7
100
AcDbVertex
100
AcDb2dVertex
 10
46.542072
 20
99.42479
 30
0.0
  0
VERTEX
  5
62B
100
AcDbEntity
  8
ALPHA
 62
     7
100
AcDbVertex
100
AcDb2dVertex
 10
52.362906
 20
99.42479
 30
0.0
  0
SEQEND
  5
62C
100
AcDbEntity
  8
ALPHA
 62
     7
  0
CIRCLE
  5
62D
100
AcDbEntity
  8
ALPHA
 62
     7
100
AcDbCircle
 10
50.8636
 20
108.067846
 30
0.0
 40
1.058333
  0
CIRCLE
  5
62E
100
AcDbEntity
  8
ALPHA
 62
     7
100
AcDbCircle
 10
47.864989
 20
108.067846
 30
0.0
 40
0.529167
  0
LINE
  5
62F
100
AcDbEntity
  8
ALPHA
 62
     7
100
AcDbLine
 10
44.866378
 20
109.831735
 30
0.0
 11
46.453878
 21
109.831735
 31
0.0
  0
CIRCLE
  5
630
100
AcDbEntity
  8
ALPHA
 62
     7
100
AcDbCircle
 10
47.864989
 20
110.635303
 30
0.0
 40
0.529167
  0
LINE
  5
631
100
AcDbEntity
  8
ALPHA
 62
     7
100
AcDbLine
 10
44.866378
 20
113.359512
 30
0.0
 11
46.453878
 21
113.359512
 31
0.0
  0
CIRCLE
  5
632
100
AcDbEntity
  8
ALPHA
 62
     7
100
AcDbCircle
 10
47.864989
 20
113.202761
 30
0.0
 40
0.529167
  0
CIRCLE
  5
633
100
AcDbEntity
  8
ALPHA
 62
     7
100
AcDbCircle
 10
50.8636
 20
110.635303
 30
0.0
 40
0.529167
  0
CIRCLE
  5
634
100
AcDbEntity
  8
ALPHA
 62
     7
100
AcDbCircle
 10
50.8636
 20
113.202761
 30
0.0
 40
0.529167
  0
LINE
  5
635
100
AcDbEntity
  8
ALPHA
 62
     7
100
AcDbLine
 10
52.4511
 20
113.359512
 30
0.0
 11
53.862211
 21
113.359512
 31
0.0
  0
LINE
  5
636
100
AcDbEntity
  8
ALPHA
 62
     7
100
AcDbLine
 10
78.67999
 20
81.835683
 30
0.0
 11
78.67999
 21
93.101145
 31
0.0
  0
CIRCLE
  5
637
100
AcDbEntity
  8
ALPHA
 62
     7
100
AcDbCircle
 10
81.316866
 20
87.178682
 30
0.0
 40
1.727543
  0
CIRCLE
  5
638
100
AcDbEntity
  8
ALPHA
 62
     7
100
AcDbCircle
 10
91.560513
 20
87.178768
 30
0.0
 40
1.727629
  0
CIRCLE
  5
639
100
AcDbEntity
  8
ALPHA
 62
     7
100
AcDbCircle
 10
86.439034
 20
87.178682
 30
0.0
 40
1.727543
  0
CIRCLE
  5
63A
100
AcDbEntity
  8
ALPHA
 62
     7
100
AcDbCircle
 10
96.682681
 20
87.178682
 30
0.0
 40
1.727543
  0
CIRCLE
  5
63B
100
AcDbEntity
  8
ALPHA
 62
     7
100
AcDbCircle
 10
83.476252
 20
104.885956
 30
0.0
 40
1.727543
  0
CIRCLE
  5
63C
100
AcDbEntity
  8
ALPHA
 62
     7
100
AcDbCircle
 10
83.476252
 20
99.703326
 30
0.0
 40
1.727543
  0
CIRCLE
  5
63D
100
AcDbEntity
  8
ALPHA
 62
     7
100
AcDbCircle
 10
78.354429
 20
104.885956
 30
0.0
 40
1.727543
  0
CIRCLE
  5
63E
100
AcDbEntity
  8
ALPHA
 62
     7
100
AcDbCircle
 10
73.232261
 20
104.885956
 30
0.0
 40
1.727543
  0
CIRCLE
  5
63F
100
AcDbEntity
  8
ALPHA
 62
     7
100
AcDbCircle
 10
68.110093
 20
104.886042
 30
0.0
 40
1.727629
  0
CIRCLE
  5
640
100
AcDbEntity
  8
ALPHA
 62
     7
100
AcDbCircle
 10
73.232261
 20
99.703326
 30
0.0
 40
1.727543
  0
CIRCLE
  5
641
100
AcDbEntity
  8
ALPHA
 62
     7
100
AcDbCircle
 10
68.110093
 20
99.703412
 30
0.0
 40
1.727629
  0
CIRCLE
  5
642
100
AcDbEntity
  8
ALPHA
 62
     7
100
AcDbCircle
 10
78.354429
 20
99.703326
 30
0.0
 40
1.727543
  0
CIRCLE
  5
643
100
AcDbEntity
  8
ALPHA
 62
     7
100
AcDbCircle
 10
98.842411
 20
104.885956
 30
0.0
 40
1.727543
  0
CIRCLE
  5
644
100
AcDbEntity
  8
ALPHA
 62
     7
100
AcDbCircle
 10
93.720243
 20
104.885956
 30
0.0
 40
1.727543
  0
CIRCLE
  5
645
100
AcDbEntity
  8
ALPHA
 62
     7
100
AcDbCircle
 10
88.59842
 20
104.886042
 30
0.0
 40
1.727629
  0
CIRCLE
  5
646
100
AcDbEntity
  8
ALPHA
 62
     7
100
AcDbCircle
 10
93.720243
 20
99.703326
 30
0.0
 40
1.727543
  0
CIRCLE
  5
647
100
AcDbEntity
  8
ALPHA
 62
     7
100
AcDbCircle
 10
88.59842
 20
99.703412
 30
0.0
 40
1.727629
  0
CIRCLE
  5
648
100
AcDbEntity
  8
ALPHA
 62
     7
100
AcDbCircle
 10
98.842411
 20
99.703326
 30
0.0
 40
1.727543
  0
POLYLINE
  5
649
100
AcDbEntity
  8
ALPHA
 62
     7
100
AcDb2dPolyline
 66
     1
 10
0.0
 20
0.0
 30
0.0
  0
VERTEX
  5
64A
100
AcDbEntity
  8
ALPHA
 62
     7
100
AcDbVertex
100
AcDb2dVertex
 10
64.621933
 20
138.297525
 30
0.0
  0
VERTEX
  5
64B
100
AcDbEntity
  8
ALPHA
 62
     7
100
AcDbVertex
100
AcDb2dVertex
 10
64.621933
 20
136.995624
 30
0.0
  0
VERTEX
  5
64C
100
AcDbEntity
  8
ALPHA
 62
     7
100
AcDbVertex
100
AcDb2dVertex
 10
61.345648
 20
136.995624
 30
0.0
  0
VERTEX
  5
64D
100
AcDbEntity
  8
ALPHA
 62
     7
100
AcDbVertex
100
AcDb2dVertex
 10
61.345648
 20
138.297525
 30
0.0
  0
SEQEND
  5
64E
100
AcDbEntity
  8
ALPHA
 62
     7
  0
CIRCLE
  5
64F
100
AcDbEntity
  8
ALPHA
 62
     7
100
AcDbCircle
 10
67.444156
 20
125.177568
 30
0.0
 40
4.409722
  0
CIRCLE
  5
650
100
AcDbEntity
  8
ALPHA
 62
     7
100
AcDbCircle
 10
67.444156
 20
125.177568
 30
0.0
 40
5.468056
  0
CIRCLE
  5
651
100
AcDbEntity
  8
ALPHA
 62
     7
100
AcDbCircle
 10
62.874064
 20
142.64024
 30
0.0
 40
1.727543
  0
POLYLINE
  5
652
100
AcDbEntity
  8
ALPHA
 62
     7
100
AcDb2dPolyline
 66
     1
 10
0.0
 20
0.0
 30
0.0
 70
     1
  0
VERTEX
  5
653
100
AcDbEntity
  8
ALPHA
 62
     7
100
AcDbVertex
100
AcDb2dVertex
 10
52.362906
 20
135.93729
 30
0.0
  0
VERTEX
  5
654
100
AcDbEntity
  8
ALPHA
 62
     7
100
AcDbVertex
100
AcDb2dVertex
 10
46.542072
 20
135.93729
 30
0.0
  0
VERTEX
  5
655
100
AcDbEntity
  8
ALPHA
 62
     7
100
AcDbVertex
100
AcDb2dVertex
 10
46.542072
 20
139.641457
 30
0.0
  0
VERTEX
  5
656
100
AcDbEntity
  8
ALPHA
 62
     7
100
AcDbVertex
100
AcDb2dVertex
 10
52.362906
 20
139.641457
 30
0.0
  0
SEQEND
  5
657
100
AcDbEntity
  8
ALPHA
 62
     7
  0
CIRCLE
  5
658
100
AcDbEntity
  8
ALPHA
 62
     7
100
AcDbCircle
 10
47.864989
 20
115.770218
 30
0.0
 40
0.529167
  0
CIRCLE
  5
659
100
AcDbEntity
  8
ALPHA
 62
     7
100
AcDbCircle
 10
47.864989
 20
118.337503
 30
0.0
 40
0.529167
  0
CIRCLE
  5
65A
100
AcDbEntity
  8
ALPHA
 62
     7
100
AcDbCircle
 10
50.8636
 20
115.770218
 30
0.0
 40
0.529167
  0
CIRCLE
  5
65B
100
AcDbEntity
  8
ALPHA
 62
     7
100
AcDbCircle
 10
50.8636
 20
118.337503
 30
0.0
 40
0.529167
  0
CIRCLE
  5
65C
100
AcDbEntity
  8
ALPHA
 62
     7
100
AcDbCircle
 10
47.864989
 20
120.904961
 30
0.0
 40
0.529167
  0
CIRCLE
  5
65D
100
AcDbEntity
  8
ALPHA
 62
     7
100
AcDbCircle
 10
47.864989
 20
123.47259
 30
0.0
 40
0.529167
  0
CIRCLE
  5
65E
100
AcDbEntity
  8
ALPHA
 62
     7
100
AcDbCircle
 10
50.8636
 20
120.904961
 30
0.0
 40
0.529167
  0
CIRCLE
  5
65F
100
AcDbEntity
  8
ALPHA
 62
     7
100
AcDbCircle
 10
50.8636
 20
123.47259
 30
0.0
 40
0.529167
  0
CIRCLE
  5
660
100
AcDbEntity
  8
ALPHA
 62
     7
100
AcDbCircle
 10
50.8636
 20
131.17479
 30
0.0
 40
0.529167
  0
CIRCLE
  5
661
100
AcDbEntity
  8
ALPHA
 62
     7
100
AcDbCircle
 10
47.864989
 20
131.17479
 30
0.0
 40
0.529167
  0
LINE
  5
662
100
AcDbEntity
  8
ALPHA
 62
     7
100
AcDbLine
 10
44.866378
 20
125.706735
 30
0.0
 11
46.453878
 21
125.706735
 31
0.0
  0
CIRCLE
  5
663
100
AcDbEntity
  8
ALPHA
 62
     7
100
AcDbCircle
 10
47.864989
 20
126.039875
 30
0.0
 40
0.529167
  0
LINE
  5
664
100
AcDbEntity
  8
ALPHA
 62
     7
100
AcDbLine
 10
44.866378
 20
129.410901
 30
0.0
 11
46.453878
 21
129.410901
 31
0.0
  0
CIRCLE
  5
665
100
AcDbEntity
  8
ALPHA
 62
     7
100
AcDbCircle
 10
47.864989
 20
128.607333
 30
0.0
 40
0.529167
  0
CIRCLE
  5
666
100
AcDbEntity
  8
ALPHA
 62
     7
100
AcDbCircle
 10
50.8636
 20
126.039875
 30
0.0
 40
0.529167
  0
LINE
  5
667
100
AcDbEntity
  8
ALPHA
 62
     7
100
AcDbLine
 10
52.4511
 20
125.706735
 30
0.0
 11
53.862211
 21
125.706735
 31
0.0
  0
CIRCLE
  5
668
100
AcDbEntity
  8
ALPHA
 62
     7
100
AcDbCircle
 10
50.8636
 20
128.607333
 30
0.0
 40
0.529167
  0
POLYLINE
  5
669
100
AcDbEntity
  8
ALPHA
 62
     7
100
AcDb2dPolyline
 66
     1
 10
0.0
 20
0.0
 30
0.0
 70
     1
  0
VERTEX
  5
66A
100
AcDbEntity
  8
ALPHA
 62
     7
100
AcDbVertex
100
AcDb2dVertex
 10
51.392767
 20
132.585901
 30
0.0
  0
VERTEX
  5
66B
100
AcDbEntity
  8
ALPHA
 62
     7
100
AcDbVertex
100
AcDb2dVertex
 10
47.512211
 20
132.585901
 30
0.0
  0
VERTEX
  5
66C
100
AcDbEntity
  8
ALPHA
 62
     7
100
AcDbVertex
100
AcDb2dVertex
 10
47.512211
 20
135.93729
 30
0.0
  0
VERTEX
  5
66D
100
AcDbEntity
  8
ALPHA
 62
     7
100
AcDbVertex
100
AcDb2dVertex
 10
51.392767
 20
135.93729
 30
0.0
  0
SEQEND
  5
66E
100
AcDbEntity
  8
ALPHA
 62
     7
  0
SPLINE
  5
66F
100
AcDbEntity
  8
ALPHA
 62
     7
100
AcDbSpline
210
0.0
220
0.0
230
-1.0
 70
     8
 71
     3
 72
    20
 73
    16
 74
     0
 42
0.0000001
 43
0.0000001
 40
0.0
 40
0.0
 40
0.0
 40
0.0
 40
1.0
 40
1.0
 40
1.0
 40
2.0
 40
2.0
 40
2.0
 40
3.0
 40
3.0
 40
3.0
 40
4.0
 40
4.0
 40
4.0
 40
5.0
 40
5.0
 40
5.0
 40
5.0
 10
40.43839665082535
 20
146.9154315296566
 30
0.0
 10
40.43839665082535
 20
146.9154315296566
 30
0.0
 10
40.43839665082535
 20
148.6255769289621
 30
0.0
 10
40.43839665082535
 20
148.6255769289621
 30
0.0
 10
40.43839665082535
 20
149.039849661167
 30
0.0
 10
40.77429346072118
 20
149.3755742162885
 30
0.0
 10
41.18839393815173
 20
149.3755742162885
 30
0.0
 10
41.18839393815173
 20
149.3755742162885
 30
0.0
 10
43.04254432877672
 20
149.3755742162885
 30
0.0
 10
43.04254432877672
 20
149.3755742162885
 30
0.0
 10
43.45664480620729
 20
149.3755742162885
 30
0.0
 10
43.79254161610314
 20
149.039849661167
 30
0.0
 10
43.79254161610314
 20
148.6255769289621
 30
0.0
 10
43.79254161610314
 20
148.6255769289621
 30
0.0
 10
43.79254161610314
 20
146.9154315296566
 30
0.0
 10
43.79254161610314
 20
146.9154315296566
 30
0.0
  0
POLYLINE
  5
670
100
AcDbEntity
  8
ALPHA
 62
     7
100
AcDb2dPolyline
 66
     1
 10
0.0
 20
0.0
 30
0.0
  0
VERTEX
  5
671
100
AcDbEntity
  8
ALPHA
 62
     7
100
AcDbVertex
100
AcDb2dVertex
 10
53.862211
 20
139.641457
 30
0.0
  0
VERTEX
  5
672
100
AcDbEntity
  8
ALPHA
 62
     7
100
AcDbVertex
100
AcDb2dVertex
 10
51.480961
 20
139.641457
 30
0.0
  0
VERTEX
  5
673
100
AcDbEntity
  8
ALPHA
 62
     7
100
AcDbVertex
100
AcDb2dVertex
 10
51.480961
 20
142.816457
 30
0.0
  0
SEQEND
  5
674
100
AcDbEntity
  8
ALPHA
 62
     7
  0
POLYLINE
  5
675
100
AcDbEntity
  8
ALPHA
 62
     7
100
AcDb2dPolyline
 66
     1
 10
0.0
 20
0.0
 30
0.0
  0
VERTEX
  5
676
100
AcDbEntity
  8
ALPHA
 62
     7
100
AcDbVertex
100
AcDb2dVertex
 10
47.247628
 20
142.816457
 30
0.0
  0
VERTEX
  5
677
100
AcDbEntity
  8
ALPHA
 62
     7
100
AcDbVertex
100
AcDb2dVertex
 10
47.247628
 20
139.641457
 30
0.0
  0
VERTEX
  5
678
100
AcDbEntity
  8
ALPHA
 62
     7
100
AcDbVertex
100
AcDb2dVertex
 10
44.866378
 20
139.641457
 30
0.0
  0
SEQEND
  5
679
100
AcDbEntity
  8
ALPHA
 62
     7
  0
CIRCLE
  5
67A
100
AcDbEntity
  8
ALPHA
 62
     7
100
AcDbCircle
 10
49.452489
 20
139.641457
 30
0.0
 40
1.5875
  0
POLYLINE
  5
67B
100
AcDbEntity
  8
ALPHA
 62
     7
100
AcDb2dPolyline
 66
     1
 10
0.0
 20
0.0
 30
0.0
 70
     1
  0
VERTEX
  5
67C
100
AcDbEntity
  8
ALPHA
 62
     7
100
AcDbVertex
100
AcDb2dVertex
 10
78.380267
 20
123.23729
 30
0.0
  0
VERTEX
  5
67D
100
AcDbEntity
  8
ALPHA
 62
     7
100
AcDbVertex
100
AcDb2dVertex
 10
76.792767
 20
123.23729
 30
0.0
  0
VERTEX
  5
67E
100
AcDbEntity
  8
ALPHA
 62
     7
100
AcDbVertex
100
AcDb2dVertex
 10
76.792767
 20
127.117846
 30
0.0
  0
VERTEX
  5
67F
100
AcDbEntity
  8
ALPHA
 62
     7
100
AcDbVertex
100
AcDb2dVertex
 10
78.380267
 20
127.117846
 30
0.0
  0
SEQEND
  5
680
100
AcDbEntity
  8
ALPHA
 62
     7
  0
POLYLINE
  5
681
100
AcDbEntity
  8
ALPHA
 62
     7
100
AcDb2dPolyline
 66
     1
 10
0.0
 20
0.0
 30
0.0
 70
     1
  0
VERTEX
  5
682
100
AcDbEntity
  8
ALPHA
 62
     7
100
AcDbVertex
100
AcDb2dVertex
 10
69.814037
 20
123.805731
 30
0.0
  0
VERTEX
  5
683
100
AcDbEntity
  8
ALPHA
 62
     7
100
AcDbVertex
100
AcDb2dVertex
 10
68.815993
 20
122.807859
 30
0.0
  0
VERTEX
  5
684
100
AcDbEntity
  8
ALPHA
 62
     7
100
AcDbVertex
100
AcDb2dVertex
 10
65.074274
 20
126.549577
 30
0.0
  0
VERTEX
  5
685
100
AcDbEntity
  8
ALPHA
 62
     7
100
AcDbVertex
100
AcDb2dVertex
 10
66.072319
 20
127.547449
 30
0.0
  0
SEQEND
  5
686
100
AcDbEntity
  8
ALPHA
 62
     7
  0
LINE
  5
687
100
AcDbEntity
  8
ALPHA
 62
     7
100
AcDbLine
 10
79.614989
 20
119.356735
 30
0.0
 11
75.558045
 21
119.356735
 31
0.0
  0
LINE
  5
688
100
AcDbEntity
  8
ALPHA
 62
     7
100
AcDbLine
 10
79.614989
 20
116.181735
 30
0.0
 11
75.558045
 21
116.181735
 31
0.0
  0
LINE
  5
689
100
AcDbEntity
  8
ALPHA
 62
     7
100
AcDbLine
 10
79.614989
 20
130.998401
 30
0.0
 11
75.558045
 21
130.998401
 31
0.0
  0
LINE
  5
68A
100
AcDbEntity
  8
ALPHA
 62
     7
100
AcDbLine
 10
79.614989
 20
134.526179
 30
0.0
 11
75.558045
 21
134.526179
 31
0.0
  0
POLYLINE
  5
68B
100
AcDbEntity
  8
ALPHA
 62
     7
100
AcDb2dPolyline
 66
     1
 10
0.0
 20
0.0
 30
0.0
  0
VERTEX
  5
68C
100
AcDbEntity
  8
ALPHA
 62
     7
100
AcDbVertex
100
AcDb2dVertex
 10
74.702283
 20
138.297525
 30
0.0
  0
VERTEX
  5
68D
100
AcDbEntity
  8
ALPHA
 62
     7
100
AcDbVertex
100
AcDb2dVertex
 10
74.702283
 20
136.995624
 30
0.0
  0
VERTEX
  5
68E
100
AcDbEntity
  8
ALPHA
 62
     7
100
AcDbVertex
100
AcDb2dVertex
 10
71.425997
 20
136.995624
 30
0.0
  0
VERTEX
  5
68F
100
AcDbEntity
  8
ALPHA
 62
     7
100
AcDbVertex
100
AcDb2dVertex
 10
71.425997
 20
138.297525
 30
0.0
  0
SEQEND
  5
690
100
AcDbEntity
  8
ALPHA
 62
     7
  0
CIRCLE
  5
691
100
AcDbEntity
  8
ALPHA
 62
     7
100
AcDbCircle
 10
73.118228
 20
142.64024
 30
0.0
 40
1.727543
  0
CIRCLE
  5
692
100
AcDbEntity
  8
ALPHA
 62
     7
100
AcDbCircle
 10
67.99606
 20
142.640326
 30
0.0
 40
1.727629
  0
POLYLINE
  5
693
100
AcDbEntity
  8
ALPHA
 62
     7
100
AcDb2dPolyline
 66
     1
 10
0.0
 20
0.0
 30
0.0
  0
VERTEX
  5
694
100
AcDbEntity
  8
ALPHA
 62
     7
100
AcDbVertex
100
AcDb2dVertex
 10
69.662108
 20
138.297525
 30
0.0
  0
VERTEX
  5
695
100
AcDbEntity
  8
ALPHA
 62
     7
100
AcDbVertex
100
AcDb2dVertex
 10
69.662108
 20
136.995624
 30
0.0
  0
VERTEX
  5
696
100
AcDbEntity
  8
ALPHA
 62
     7
100
AcDbVertex
100
AcDb2dVertex
 10
66.385822
 20
136.995624
 30
0.0
  0
VERTEX
  5
697
100
AcDbEntity
  8
ALPHA
 62
     7
100
AcDbVertex
100
AcDb2dVertex
 10
66.385822
 20
138.297525
 30
0.0
  0
SEQEND
  5
698
100
AcDbEntity
  8
ALPHA
 62
     7
  0
CIRCLE
  5
699
100
AcDbEntity
  8
ALPHA
 62
     7
100
AcDbCircle
 10
78.240396
 20
142.64024
 30
0.0
 40
1.727543
  0
POLYLINE
  5
69A
100
AcDbEntity
  8
ALPHA
 62
     7
100
AcDb2dPolyline
 66
     1
 10
0.0
 20
0.0
 30
0.0
  0
VERTEX
  5
69B
100
AcDbEntity
  8
ALPHA
 62
     7
100
AcDbVertex
100
AcDb2dVertex
 10
79.742458
 20
138.297525
 30
0.0
  0
VERTEX
  5
69C
100
AcDbEntity
  8
ALPHA
 62
     7
100
AcDbVertex
100
AcDb2dVertex
 10
79.742458
 20
136.995624
 30
0.0
  0
VERTEX
  5
69D
100
AcDbEntity
  8
ALPHA
 62
     7
100
AcDbVertex
100
AcDb2dVertex
 10
76.466172
 20
136.995624
 30
0.0
  0
VERTEX
  5
69E
100
AcDbEntity
  8
ALPHA
 62
     7
100
AcDbVertex
100
AcDb2dVertex
 10
76.466172
 20
138.297525
 30
0.0
  0
SEQEND
  5
69F
100
AcDbEntity
  8
ALPHA
 62
     7
  0
LINE
  5
6A0
100
AcDbEntity
  8
ALPHA
 62
     7
100
AcDbLine
 10
162.379102
 20
93.101145
 30
0.0
 11
162.379102
 21
146.915432
 31
0.0
  0
CIRCLE
  5
6A1
100
AcDbEntity
  8
ALPHA
 62
     7
100
AcDbCircle
 10
142.780642
 20
87.178682
 30
0.0
 40
1.727543
  0
LINE
  5
6A2
100
AcDbEntity
  8
ALPHA
 62
     7
100
AcDbLine
 10
119.70901
 20
81.835683
 30
0.0
 11
119.70901
 21
93.101145
 31
0.0
  0
CIRCLE
  5
6A3
100
AcDbEntity
  8
ALPHA
 62
     7
100
AcDbCircle
 10
122.292832
 20
87.178682
 30
0.0
 40
1.727543
  0
CIRCLE
  5
6A4
100
AcDbEntity
  8
ALPHA
 62
     7
100
AcDbCircle
 10
112.048496
 20
87.178682
 30
0.0
 40
1.727543
  0
CIRCLE
  5
6A5
100
AcDbEntity
  8
ALPHA
 62
     7
100
AcDbCircle
 10
106.926672
 20
87.178682
 30
0.0
 40
1.727543
  0
CIRCLE
  5
6A6
100
AcDbEntity
  8
ALPHA
 62
     7
100
AcDbCircle
 10
117.170664
 20
87.178682
 30
0.0
 40
1.727543
  0
CIRCLE
  5
6A7
100
AcDbEntity
  8
ALPHA
 62
     7
100
AcDbCircle
 10
132.536996
 20
87.178682
 30
0.0
 40
1.727543
  0
CIRCLE
  5
6A8
100
AcDbEntity
  8
ALPHA
 62
     7
100
AcDbCircle
 10
127.414828
 20
87.178682
 30
0.0
 40
1.727543
  0
CIRCLE
  5
6A9
100
AcDbEntity
  8
ALPHA
 62
     7
100
AcDbCircle
 10
137.658475
 20
87.178682
 30
0.0
 40
1.727543
  0
LINE
  5
6AA
100
AcDbEntity
  8
ALPHA
 62
     7
100
AcDbLine
 10
121.948322
 20
93.101145
 30
0.0
 11
121.948322
 21
109.898914
 31
0.0
  0
CIRCLE
  5
6AB
100
AcDbEntity
  8
ALPHA
 62
     7
100
AcDbCircle
 10
119.330394
 20
104.885956
 30
0.0
 40
1.727543
  0
CIRCLE
  5
6AC
100
AcDbEntity
  8
ALPHA
 62
     7
100
AcDbCircle
 10
114.208571
 20
104.885956
 30
0.0
 40
1.727543
  0
CIRCLE
  5
6AD
100
AcDbEntity
  8
ALPHA
 62
     7
100
AcDbCircle
 10
109.086403
 20
104.885956
 30
0.0
 40
1.727543
  0
CIRCLE
  5
6AE
100
AcDbEntity
  8
ALPHA
 62
     7
100
AcDbCircle
 10
114.208571
 20
99.703326
 30
0.0
 40
1.727543
  0
CIRCLE
  5
6AF
100
AcDbEntity
  8
ALPHA
 62
     7
100
AcDbCircle
 10
109.086403
 20
99.703326
 30
0.0
 40
1.727543
  0
CIRCLE
  5
6B0
100
AcDbEntity
  8
ALPHA
 62
     7
100
AcDbCircle
 10
119.330394
 20
99.703326
 30
0.0
 40
1.727543
  0
CIRCLE
  5
6B1
100
AcDbEntity
  8
ALPHA
 62
     7
100
AcDbCircle
 10
139.818549
 20
104.885956
 30
0.0
 40
1.727543
  0
CIRCLE
  5
6B2
100
AcDbEntity
  8
ALPHA
 62
     7
100
AcDbCircle
 10
134.696381
 20
104.885956
 30
0.0
 40
1.727543
  0
CIRCLE
  5
6B3
100
AcDbEntity
  8
ALPHA
 62
     7
100
AcDbCircle
 10
129.574213
 20
104.885956
 30
0.0
 40
1.727543
  0
CIRCLE
  5
6B4
100
AcDbEntity
  8
ALPHA
 62
     7
100
AcDbCircle
 10
124.452045
 20
104.885956
 30
0.0
 40
1.727543
  0
CIRCLE
  5
6B5
100
AcDbEntity
  8
ALPHA
 62
     7
100
AcDbCircle
 10
124.452045
 20
99.703326
 30
0.0
 40
1.727543
  0
CIRCLE
  5
6B6
100
AcDbEntity
  8
ALPHA
 62
     7
100
AcDbCircle
 10
129.574213
 20
99.703326
 30
0.0
 40
1.727543
  0
CIRCLE
  5
6B7
100
AcDbEntity
  8
ALPHA
 62
     7
100
AcDbCircle
 10
134.696381
 20
99.703326
 30
0.0
 40
1.727543
  0
CIRCLE
  5
6B8
100
AcDbEntity
  8
ALPHA
 62
     7
100
AcDbCircle
 10
139.818549
 20
99.703326
 30
0.0
 40
1.727543
  0
LINE
  5
6B9
100
AcDbEntity
  8
ALPHA
 62
     7
100
AcDbLine
 10
160.449848
 20
81.835683
 30
0.0
 11
160.449848
 21
93.101145
 31
0.0
  0
CIRCLE
  5
6BA
100
AcDbEntity
  8
ALPHA
 62
     7
100
AcDbCircle
 10
153.024978
 20
87.178682
 30
0.0
 40
1.727543
  0
CIRCLE
  5
6BB
100
AcDbEntity
  8
ALPHA
 62
     7
100
AcDbCircle
 10
147.90281
 20
87.178682
 30
0.0
 40
1.727543
  0
CIRCLE
  5
6BC
100
AcDbEntity
  8
ALPHA
 62
     7
100
AcDbCircle
 10
158.146457
 20
87.178682
 30
0.0
 40
1.727543
  0
SPLINE
  5
6BD
100
AcDbEntity
  8
ALPHA
 62
     7
100
AcDbSpline
210
0.0
220
0.0
230
1.0
 70
     8
 71
     3
 72
    20
 73
    16
 74
     0
 42
0.0000001
 43
0.0000001
 40
0.0
 40
0.0
 40
0.0
 40
0.0
 40
1.0
 40
1.0
 40
1.0
 40
2.0
 40
2.0
 40
2.0
 40
3.0
 40
3.0
 40
3.0
 40
4.0
 40
4.0
 40
4.0
 40
5.0
 40
5.0
 40
5.0
 40
5.0
 10
165.4383464663635
 20
81.83568299450035
 30
0.0
 10
165.4383464663635
 20
81.83568299450035
 30
0.0
 10
165.4383464663635
 20
80.1255375951948
 30
0.0
 10
165.4383464663635
 20
80.1255375951948
 30
0.0
 10
165.4383464663635
 20
79.71126486298995
 30
0.0
 10
165.1027941660163
 20
79.37554030786841
 30
0.0
 10
164.6880046694885
 20
79.37554030786841
 30
0.0
 10
164.6880046694885
 20
79.37554030786841
 30
0.0
 10
162.8338542788635
 20
79.37554030786841
 30
0.0
 10
162.8338542788635
 20
79.37554030786841
 30
0.0
 10
162.4197538014329
 20
79.37554030786841
 30
0.0
 10
162.0842015010857
 20
79.71126486298995
 30
0.0
 10
162.0842015010857
 20
80.1255375951948
 30
0.0
 10
162.0842015010857
 20
80.1255375951948
 30
0.0
 10
162.0842015010857
 20
81.83568299450035
 30
0.0
 10
162.0842015010857
 20
81.83568299450035
 30
0.0
  0
CIRCLE
  5
6BE
100
AcDbEntity
  8
ALPHA
 62
     7
100
AcDbCircle
 10
160.306188
 20
104.885956
 30
0.0
 40
1.727715
  0
CIRCLE
  5
6BF
100
AcDbEntity
  8
ALPHA
 62
     7
100
AcDbCircle
 10
160.306188
 20
99.703326
 30
0.0
 40
1.727715
  0
CIRCLE
  5
6C0
100
AcDbEntity
  8
ALPHA
 62
     7
100
AcDbCircle
 10
155.184364
 20
104.885956
 30
0.0
 40
1.727543
  0
CIRCLE
  5
6C1
100
AcDbEntity
  8
ALPHA
 62
     7
100
AcDbCircle
 10
150.062196
 20
104.885956
 30
0.0
 40
1.727543
  0
CIRCLE
  5
6C2
100
AcDbEntity
  8
ALPHA
 62
     7
100
AcDbCircle
 10
144.940028
 20
104.885956
 30
0.0
 40
1.727543
  0
CIRCLE
  5
6C3
100
AcDbEntity
  8
ALPHA
 62
     7
100
AcDbCircle
 10
144.940028
 20
99.703326
 30
0.0
 40
1.727543
  0
CIRCLE
  5
6C4
100
AcDbEntity
  8
ALPHA
 62
     7
100
AcDbCircle
 10
150.062196
 20
99.703326
 30
0.0
 40
1.727543
  0
CIRCLE
  5
6C5
100
AcDbEntity
  8
ALPHA
 62
     7
100
AcDbCircle
 10
155.184364
 20
99.703326
 30
0.0
 40
1.727543
  0
SPLINE
  5
6C6
100
AcDbEntity
  8
ALPHA
 62
     7
100
AcDbSpline
210
0.0
220
0.0
230
-1.0
 70
     8
 71
     3
 72
    20
 73
    16
 74
     0
 42
0.0000001
 43
0.0000001
 40
0.0
 40
0.0
 40
0.0
 40
0.0
 40
1.0
 40
1.0
 40
1.0
 40
2.0
 40
2.0
 40
2.0
 40
3.0
 40
3.0
 40
3.0
 40
4.0
 40
4.0
 40
4.0
 40
5.0
 40
5.0
 40
5.0
 40
5.0
 10
162.0842015010857
 20
146.9154315296566
 30
0.0
 10
162.0842015010857
 20
146.9154315296566
 30
0.0
 10
162.0842015010857
 20
148.6255769289621
 30
0.0
 10
162.0842015010857
 20
148.6255769289621
 30
0.0
 10
162.0842015010857
 20
149.039849661167
 30
0.0
 10
162.4197538014329
 20
149.3755742162885
 30
0.0
 10
162.8338542788635
 20
149.3755742162885
 30
0.0
 10
162.8338542788635
 20
149.3755742162885
 30
0.0
 10
164.6880046694885
 20
149.3755742162885
 30
0.0
 10
164.6880046694885
 20
149.3755742162885
 30
0.0
 10
165.1027941660163
 20
149.3755742162885
 30
0.0
 10
165.4383464663635
 20
149.039849661167
 30
0.0
 10
165.4383464663635
 20
148.6255769289621
 30
0.0
 10
165.4383464663635
 20
148.6255769289621
 30
0.0
 10
165.4383464663635
 20
146.9154315296566
 30
0.0
 10
165.4383464663635
 20
146.9154315296566
 30
0.0
  0
DIMENSION
  5
6D3
100
AcDbEntity
  8
COTATION1
100
AcDbDimension
  2
*D7
 10
165.438346
 20
63.245863
 30
0.0
 11
102.938372
 21
65.495863
 31
0.0
 70
    32
  3
SC_STAND
100
AcDbAlignedDimension
 13
40.438397
 23
81.835683
 33
0.0
 14
165.438346
 24
81.835683
 34
0.0
100
AcDbRotatedDimension
  0
DIMENSION
  5
6E0
100
AcDbEntity
  8
COTATION1
100
AcDbDimension
  2
*D8
 10
179.334571
 20
79.37554
 30
0.0
 11
177.084571
 21
114.375557
 31
0.0
 70
    32
  3
SC_STAND
100
AcDbAlignedDimension
 13
163.761234
 23
149.375574
 33
0.0
 14
163.761234
 24
79.37554
 34
0.0
 50
90.0
100
AcDbRotatedDimension
  0
ENDSEC
  0
SECTION
  2
OBJECTS
  0
DICTIONARY
  5
F8
100
AcDbDictionary
  3
ACAD_GROUP
350
F9
  3
ACAD_MLINESTYLE
350
106
  3
ACDBVARIABLEDICTIONARY
350
143
  0
DICTIONARY
  5
F9
102
{ACAD_REACTORS
330
F8
102
}
100
AcDbDictionary
  0
DICTIONARY
  5
106
102
{ACAD_REACTORS
330
F8
102
}
100
AcDbDictionary
  3
STANDARD
350
107
  0
DICTIONARY
  5
143
102
{ACAD_REACTORS
330
F8
102
}
100
AcDbDictionary
  3
DIMADEC
350
144
  0
MLINESTYLE
  5
107
102
{ACAD_REACTORS
330
106
102
}
100
AcDbMlineStyle
  2
STANDARD
 70
     0
  3

 62
   256
 51
90.0
 52
90.0
 71
     2
 49
0.5
 62
   256
  6
BYLAYER
 49
-0.5
 62
   256
  6
BYLAYER
  0
DICTIONARYVAR
  5
144
102
{ACAD_REACTORS
330
143
102
}
100
DictionaryVariables
280
     0
  1
0
  0
ENDSEC
  0
EOF
