  0
SECTION
  2
HEADER
  9
$ACADVER
  1
AC1009
  9
$INSBASE
 10
4812.1094226581572002
 20
196.5013326270747882
 30
0.0
  9
$EXTMIN
 10
4798.4744771694622614
 20
182.9910646434138926
 30
-0.0000000349181948
  9
$EXTMAX
 10
4825.8763709177546843
 20
210.0214991134444915
 30
0.0000000814935746
  9
$LIMMIN
 10
0.0
 20
0.0
  9
$LIMMAX
 10
11.6929133858000007
 20
8.2677165353999982
  9
$ORTHOMODE
 70
     0
  9
$REGENMODE
 70
     1
  9
$FILLMODE
 70
     1
  9
$QTEXTMODE
 70
     0
  9
$MIRRTEXT
 70
     0
  9
$DRAGMODE
 70
     2
  9
$LTSCALE
 40
0.6431102362
  9
$OSMODE
 70
  4095
  9
$ATTMODE
 70
     1
  9
$TEXTSIZE
 40
0.2
  9
$TRACEWID
 40
0.05
  9
$TEXTSTYLE
  7
STANDARD
  9
$CLAYER
  8
0
  9
$CELTYPE
  6
BYLAYER
  9
$CECOLOR
 62
   256
  9
$DIMSCALE
 40
1.0
  9
$DIMASZ
 40
0.1875
  9
$DIMEXO
 40
0.0625
  9
$DIMDLI
 40
0.4443307087
  9
$DIMRND
 40
0.0
  9
$DIMDLE
 40
0.0
  9
$DIMEXE
 40
0.125
  9
$DIMTP
 40
0.01
  9
$DIMTM
 40
0.01
  9
$DIMTXT
 40
2.0
  9
$DIMCEN
 40
0.1052362205
  9
$DIMTSZ
 40
0.0
  9
$DIMTOL
 70
     1
  9
$DIMLIM
 70
     0
  9
$DIMTIH
 70
     1
  9
$DIMTOH
 70
     1
  9
$DIMSE1
 70
     0
  9
$DIMSE2
 70
     0
  9
$DIMTAD
 70
     0
  9
$DIMZIN
 70
     0
  9
$DIMBLK
  1

  9
$DIMASO
 70
     1
  9
$DIMSHO
 70
     1
  9
$DIMPOST
  1
\X
  9
$DIMAPOST
  1

  9
$DIMALT
 70
     1
  9
$DIMALTD
 70
     2
  9
$DIMALTF
 40
25.3999999999999986
  9
$DIMLFAC
 40
1.0
  9
$DIMTOFL
 70
     0
  9
$DIMTVP
 40
0.0
  9
$DIMTIX
 70
     0
  9
$DIMSOXD
 70
     0
  9
$DIMSAH
 70
     0
  9
$DIMBLK1
  1

  9
$DIMBLK2
  1

  9
$DIMSTYLE
  2
STANDARD
  9
$DIMCLRD
 70
     0
  9
$DIMCLRE
 70
     0
  9
$DIMCLRT
 70
     0
  9
$DIMTFAC
 40
1.0
  9
$DIMGAP
 40
0.09
  9
$LUNITS
 70
     2
  9
$LUPREC
 70
     4
  9
$SKETCHINC
 40
0.1
  9
$FILLETRAD
 40
0.0
  9
$AUNITS
 70
     0
  9
$AUPREC
 70
     0
  9
$MENU
  1
.
  9
$ELEVATION
 40
0.0
  9
$PELEVATION
 40
0.0
  9
$THICKNESS
 40
0.0
  9
$LIMCHECK
 70
     0
  9
$BLIPMODE
 70
     0
  9
$CHAMFERA
 40
0.0
  9
$CHAMFERB
 40
0.0
  9
$SKPOLY
 70
     0
  9
$TDCREATE
 40
2458060.468368056230247
  9
$TDUPDATE
 40
2459465.4899074072018266
  9
$TDINDWG
 40
0.4200186343
  9
$TDUSRTIMER
 40
0.4200186343
  9
$USRTIMER
 70
     1
  9
$ANGBASE
 50
0.0
  9
$ANGDIR
 70
     0
  9
$PDMODE
 70
     0
  9
$PDSIZE
 40
0.3125
  9
$PLINEWID
 40
0.0
  9
$COORDS
 70
     1
  9
$SPLFRAME
 70
     0
  9
$SPLINETYPE
 70
     6
  9
$SPLINESEGS
 70
     8
  9
$ATTDIA
 70
     1
  9
$ATTREQ
 70
     1
  9
$HANDLING
 70
     1
  9
$HANDSEED
  5
C0F3
  9
$SURFTAB1
 70
     6
  9
$SURFTAB2
 70
     6
  9
$SURFTYPE
 70
     6
  9
$SURFU
 70
     6
  9
$SURFV
 70
     6
  9
$UCSNAME
  2

  9
$UCSORG
 10
0.0
 20
0.0
 30
0.0
  9
$UCSXDIR
 10
1.0
 20
0.0
 30
0.0
  9
$UCSYDIR
 10
0.0
 20
1.0
 30
0.0
  9
$PUCSNAME
  2

  9
$PUCSORG
 10
0.0
 20
0.0
 30
0.0
  9
$PUCSXDIR
 10
1.0
 20
0.0
 30
0.0
  9
$PUCSYDIR
 10
0.0
 20
1.0
 30
0.0
  9
$USERI1
 70
     0
  9
$USERI2
 70
     0
  9
$USERI3
 70
     0
  9
$USERI4
 70
     0
  9
$USERI5
 70
     0
  9
$USERR1
 40
0.0
  9
$USERR2
 40
0.0
  9
$USERR3
 40
0.0
  9
$USERR4
 40
0.0
  9
$USERR5
 40
0.0
  9
$WORLDVIEW
 70
     1
  9
$SHADEDGE
 70
     3
  9
$SHADEDIF
 70
    70
  9
$TILEMODE
 70
     1
  9
$MAXACTVP
 70
    64
  9
$PLIMCHECK
 70
     0
  9
$PEXTMIN
 10
1.0000000000000000E+20
 20
1.0000000000000000E+20
 30
1.0000000000000000E+20
  9
$PEXTMAX
 10
-1.0000000000000000E+20
 20
-1.0000000000000000E+20
 30
-1.0000000000000000E+20
  9
$PLIMMIN
 10
0.0
 20
0.0
  9
$PLIMMAX
 10
12.0
 20
9.0
  9
$UNITMODE
 70
     0
  9
$VISRETAIN
 70
     1
  9
$PLINEGEN
 70
     0
  9
$PSLTSCALE
 70
     1
  0
ENDSEC
  0
SECTION
  2
TABLES
  0
TABLE
  2
VPORT
 70
     1
  0
VPORT
  2
*ACTIVE
 70
     0
 10
0.0
 20
0.0
 11
1.0
 21
1.0
 12
1008.6313566607959729
 22
70.5110196816792865
 13
0.0
 23
0.0
 14
1.0
 24
1.0
 15
0.0
 25
0.0
 16
0.0
 26
0.0
 36
17.1152628219792007
 17
3803.5440673828129547
 27
125.9952621967499056
 37
0.0
 40
27.2732228035937716
 41
2.8440779610194902
 42
50.0
 43
0.0
 44
0.0
 50
0.0
 51
0.0
 71
     0
 72
   100
 73
     1
 74
     1
 75
     0
 76
     0
 77
     0
 78
     0
  0
ENDTAB
  0
TABLE
  2
LTYPE
 70
     2
  0
LTYPE
  2
CONTINUOUS
 70
     0
  3
Solid line
 72
    65
 73
     0
 40
0.0
  0
LTYPE
  2
PHANTOM2
 70
     0
  3
___ _ _ ___ _ _ ___ _ _ ___ _ _
 72
    65
 73
     6
 40
1.25
 49
0.625
 49
-0.125
 49
0.125
 49
-0.125
 49
0.125
 49
-0.125
  0
ENDTAB
  0
TABLE
  2
LAYER
 70
     2
  0
LAYER
  2
0
 70
     0
 62
   255
  6
CONTINUOUS
  0
LAYER
  2
DEFPOINTS
 70
     0
 62
     7
  6
CONTINUOUS
  0
ENDTAB
  0
TABLE
  2
STYLE
 70
     1
  0
STYLE
  2
STANDARD
 70
     0
 40
0.0
 41
0.8
 50
0.0
 71
     0
 42
0.2
  3
txt
  4

  0
ENDTAB
  0
TABLE
  2
VIEW
 70
     0
  0
ENDTAB
  0
TABLE
  2
UCS
 70
     0
  0
ENDTAB
  0
TABLE
  2
APPID
 70
     9
  0
APPID
  2
ACAD
 70
     0
  0
APPID
  2
ACAD_MLEADERVER
 70
     0
  0
APPID
  2
ACAD_EXEMPT_FROM_CAD_STANDARDS
 70
     0
  0
APPID
  2
ACAD_NAV_VCDISPLAY
 70
     0
  0
APPID
  2
ACAECLAYERSTANDARD
 70
     0
  0
APPID
  2
ACCMTRANSPARENCY
 70
     0
  0
APPID
  2
ACAD_DSTYLE_DIMJAG
 70
     0
  0
APPID
  2
ACAD_DSTYLE_DIMTALN
 70
     0
  0
APPID
  2
ACDBATTR
 70
     0
  0
ENDTAB
  0
TABLE
  2
DIMSTYLE
 70
     1
  0
DIMSTYLE
  2
STANDARD
 70
     0
  3

  4

  5

  6

  7

 40
1.0
 41
0.1875
 42
0.0625
 43
0.38
 44
0.125
 45
0.0
 46
0.0
 47
0.01
 48
0.01
140
0.15625
141
0.09
142
0.0
143
25.3999999999999986
144
1.0
145
0.0
146
1.0
147
0.09
 71
     1
 72
     0
 73
     1
 74
     1
 75
     0
 76
     0
 77
     0
 78
     4
170
     0
171
     2
172
     0
173
     0
174
     0
175
     0
176
     0
177
     0
178
     0
  0
ENDTAB
  0
ENDSEC
  0
SECTION
  2
BLOCKS
  0
BLOCK
  8
0
  2
$MODEL_SPACE
 70
     0
 10
0.0
 20
0.0
 30
0.0
  3
$MODEL_SPACE
  1

  0
ENDBLK
  5
21
  8
0
  0
BLOCK
 67
     1
  8
0
  2
$PAPER_SPACE
 70
     0
 10
0.0
 20
0.0
 30
0.0
  3
$PAPER_SPACE
  1

  0
ENDBLK
  5
1D
 67
     1
  8
0
  0
ENDSEC
  0
SECTION
  2
ENTITIES
  0
ATTDEF
  5
3930
  8
DEFPOINTS
 10
4812.1038473114131193
 20
196.4982301566915055
 30
0.0
 40
0.001
  1
K-27863-CH08
  3

  2
MODELNUMBER
 70
     0
1001
ACDBATTR
1070
     0
1070
     1
  0
ATTDEF
  5
3931
  8
DEFPOINTS
 10
4812.1038473114131193
 20
196.4965634900248119
 30
0.0
 40
0.001
  1
PAROHN 
  3

  2
TRADENAME
 70
     0
1001
ACDBATTR
1070
     0
1070
     1
  0
ATTDEF
  5
3932
  8
DEFPOINTS
 10
4812.1038473114131193
 20
196.4948968233582036
 30
0.0
 40
0.001
  1
LIGHTING
  3

  2
PRODUCT
 70
     0
1001
ACDBATTR
1070
     0
1070
     1
  0
ARC
  5
BFCD
  8
0
 10
4812.1096605350849131
 20
196.5013326270747882
 30
0.0
 40
2.7559055118499969
 50
5.2047720061317131
 51
39.7952992548572269
  0
ARC
  5
BFCE
  8
0
 10
4812.1096605350849131
 20
196.5013326270747882
 30
0.0
 40
2.7559055118499969
 50
50.2047007451667469
 51
84.7952992549313649
  0
ARC
  5
BFCF
  8
0
 10
4812.1096605350849131
 20
196.5013326270747882
 30
0.0
 40
2.7559055118499969
 50
95.2047007450686209
 51
129.7952992548331963
  0
ARC
  5
BFD0
  8
0
 10
4812.1096605350849131
 20
196.5013326270747882
 30
0.0
 40
2.7559055118499969
 50
140.2047007451427874
 51
174.7952279938666038
  0
ARC
  5
BFD1
  8
0
 10
4812.1096605350849131
 20
196.5013326270747882
 30
0.0
 40
2.7559055118499969
 50
185.2046294839950917
 51
219.7952992548572126
  0
ARC
  5
BFD2
  8
0
 10
4812.1096605350849131
 20
196.5013326270747882
 30
0.0
 40
2.7559055118499969
 50
230.2047007451668037
 51
264.795299254931308
  0
ARC
  5
BFD3
  8
0
 10
4812.1096605350849131
 20
196.5013326270747882
 30
0.0
 40
2.7559055118499969
 50
275.2047007450685783
 51
309.79529925483331
  0
ARC
  5
BFD4
  8
0
 10
4812.1096605350849131
 20
196.5013326270747882
 30
0.0
 40
2.7559055118499969
 50
320.2047007451428158
 51
354.7953705160049935
  0
LINE
  5
BFD5
  8
0
 10
4809.3651174224742135
 20
196.2513360405735057
 30
0.0
 11
4804.2018399632333967
 21
196.2513360405735057
 31
0.0
  0
LINE
  5
BFD6
  8
0
 10
4814.8542036476983412
 20
196.2513360405735057
 30
0.0
 11
4820.0174811069400675
 21
196.2513360405735057
 31
0.0
  0
LINE
  5
BFD7
  8
0
 10
4809.3651180443448538
 20
196.7513360405735057
 30
0.0
 11
4804.2018392903655695
 21
196.7513360405735057
 31
0.0
  0
LINE
  5
BFD8
  8
0
 10
4814.8542030258267914
 20
196.7513360405735057
 30
0.0
 11
4820.0174817798069853
 21
196.7513360405735057
 31
0.0
  0
LINE
  5
BFD9
  8
0
 10
4812.3596605350858226
 20
193.7567898253963108
 30
0.0
 11
4812.3596605350858226
 21
188.5935117187900971
 31
0.0
  0
LINE
  5
BFDA
  8
0
 10
4812.3596605350858226
 20
199.245875428753294
 30
0.0
 11
4812.3596605350858226
 21
204.409153535359593
 31
0.0
  0
LINE
  5
BFDB
  8
0
 10
4811.8596605350858226
 20
193.7567898253963108
 30
0.0
 11
4811.8596605350858226
 21
188.5935117187900971
 31
0.0
  0
LINE
  5
BFDC
  8
0
 10
4811.8596605350858226
 20
199.245875428753294
 30
0.0
 11
4811.8596605350858226
 21
204.409153535359593
 31
0.0
  0
ARC
  5
BFDD
  8
0
 10
4801.6653075111853468
 20
196.5013326270747882
 30
0.0
 40
2.5488223110986779
 50
5.6289560757377419
 51
354.3711981340733814
  0
ARC
  5
BFDE
  8
0
 10
4812.1096605350849131
 20
186.0569796031734882
 30
0.0
 40
2.5488223110986779
 50
95.6288789708401907
 51
84.3711210291597951
  0
ARC
  5
BFDF
  8
0
 10
4822.5540135589872079
 20
196.5013326270747882
 30
0.0
 40
2.5488223110986779
 50
185.6288018659249133
 51
174.3710439242638017
  0
ARC
  5
BFE0
  8
0
 10
4812.1096605350849131
 20
206.9456856509760883
 30
0.0
 40
2.5488223110986779
 50
275.6288789708402192
 51
264.3711210291597808
  0
ARC
  5
BFE1
  8
0
 10
4801.1510541881571044
 20
207.4596988301690033
 30
0.0
 40
2.5488223110986779
 50
320.6327146312780201
 51
309.3749566641178035
  0
ARC
  5
BFE2
  8
0
 10
4801.1510541881571044
 20
185.5426801701565864
 30
0.0
 40
2.5488223110986779
 50
50.6296154536383014
 51
39.3718575108584403
  0
ARC
  5
BFE3
  8
0
 10
4823.0677865942579956
 20
185.542726280146212
 30
0.0
 40
2.5488223110986792
 50
140.621207724728805
 51
129.3634496816279977
  0
ARC
  5
BFE4
  8
0
 10
4823.0677865942579956
 20
207.4594586862461938
 30
0.0
 40
2.5488223110986779
 50
230.6288789709265075
 51
219.3711210290699967
  0
LINE
  5
BFE5
  8
0
 10
4821.0976273308942837
 20
187.1598124406656041
 30
0.0
 11
4813.8735686661093496
 21
194.3838711054515045
 31
0.0
  0
LINE
  5
BFE6
  8
0
 10
4809.9921990134616863
 20
198.2652407580980878
 30
0.0
 11
4802.7680084546236685
 21
205.4894313169351108
 31
0.0
  0
LINE
  5
BFE7
  8
0
 10
4821.4512280585422559
 20
187.5133184942185096
 30
0.0
 11
4814.2271220567090495
 21
194.7374244960514886
 31
0.0
  0
LINE
  5
BFE8
  8
0
 10
4810.3457524040641147
 20
198.6187941486981003
 30
0.0
 11
4803.1215381767060535
 21
205.8430083760542004
 31
0.0
  0
LINE
  5
BFE9
  8
0
 10
4802.7678512250677159
 20
187.5130767076562961
 30
0.0
 11
4809.9921990134616863
 21
194.7374244960514034
 31
0.0
  0
LINE
  5
BFEA
  8
0
 10
4813.8735686661093496
 20
198.6187941486981003
 30
0.0
 11
4821.0974108393065762
 21
205.842636321896407
 31
0.0
  0
LINE
  5
BFEB
  8
0
 10
4803.1214091602569169
 20
187.1595278616458984
 30
0.0
 11
4810.3457524040641147
 21
194.3838711054515045
 31
0.0
  0
LINE
  5
BFEC
  8
0
 10
4814.2271220567090495
 20
198.2652407580980878
 30
0.0
 11
4821.4509642299071857
 21
205.4890829312961955
 31
0.0
  0
ENDSEC
  0
EOF
