  0
SECTION
  2
HEADER
  9
$ACADVER
  1
AC1009
  9
$INSBASE
 10
816.1912040521543759
 20
66.0210394241531304
 30
0.0
  9
$EXTMIN
 10
796.1278482462844295
 20
44.7529304398348629
 30
-0.0000000349181948
  9
$EXTMAX
 10
824.0938049663918719
 20
66.0281339096240174
 30
0.0000000814935746
  9
$LIMMIN
 10
0.0
 20
0.0
  9
$LIMMAX
 10
11.6929133858000007
 20
8.2677165353999982
  9
$ORTHOMODE
 70
     0
  9
$REGENMODE
 70
     1
  9
$FILLMODE
 70
     1
  9
$QTEXTMODE
 70
     0
  9
$MIRRTEXT
 70
     0
  9
$DRAGMODE
 70
     2
  9
$LTSCALE
 40
0.6431102362
  9
$OSMODE
 70
  4095
  9
$ATTMODE
 70
     1
  9
$TEXTSIZE
 40
0.2
  9
$TRACEWID
 40
0.05
  9
$TEXTSTYLE
  7
STANDARD
  9
$CLAYER
  8
0
  9
$CELTYPE
  6
BYLAYER
  9
$CECOLOR
 62
   256
  9
$DIMSCALE
 40
1.0
  9
$DIMASZ
 40
0.1875
  9
$DIMEXO
 40
0.0625
  9
$DIMDLI
 40
0.4443307087
  9
$DIMRND
 40
0.0
  9
$DIMDLE
 40
0.0
  9
$DIMEXE
 40
0.125
  9
$DIMTP
 40
0.01
  9
$DIMTM
 40
0.01
  9
$DIMTXT
 40
0.15625
  9
$DIMCEN
 40
0.1052362205
  9
$DIMTSZ
 40
0.0
  9
$DIMTOL
 70
     1
  9
$DIMLIM
 70
     0
  9
$DIMTIH
 70
     1
  9
$DIMTOH
 70
     1
  9
$DIMSE1
 70
     0
  9
$DIMSE2
 70
     0
  9
$DIMTAD
 70
     0
  9
$DIMZIN
 70
     0
  9
$DIMBLK
  1

  9
$DIMASO
 70
     1
  9
$DIMSHO
 70
     1
  9
$DIMPOST
  1
\X
  9
$DIMAPOST
  1

  9
$DIMALT
 70
     1
  9
$DIMALTD
 70
     2
  9
$DIMALTF
 40
25.3999999999999986
  9
$DIMLFAC
 40
1.0
  9
$DIMTOFL
 70
     0
  9
$DIMTVP
 40
0.0
  9
$DIMTIX
 70
     0
  9
$DIMSOXD
 70
     0
  9
$DIMSAH
 70
     0
  9
$DIMBLK1
  1

  9
$DIMBLK2
  1

  9
$DIMSTYLE
  2
STANDARD
  9
$DIMCLRD
 70
     0
  9
$DIMCLRE
 70
     0
  9
$DIMCLRT
 70
     0
  9
$DIMTFAC
 40
1.0
  9
$DIMGAP
 40
0.09
  9
$LUNITS
 70
     2
  9
$LUPREC
 70
     4
  9
$SKETCHINC
 40
0.1
  9
$FILLETRAD
 40
0.0
  9
$AUNITS
 70
     0
  9
$AUPREC
 70
     0
  9
$MENU
  1
.
  9
$ELEVATION
 40
0.0
  9
$PELEVATION
 40
0.0
  9
$THICKNESS
 40
0.0
  9
$LIMCHECK
 70
     0
  9
$BLIPMODE
 70
     0
  9
$CHAMFERA
 40
0.0
  9
$CHAMFERB
 40
0.0
  9
$SKPOLY
 70
     0
  9
$TDCREATE
 40
2458018.639108797069639
  9
$TDUPDATE
 40
2460396.4140277779661119
  9
$TDINDWG
 40
0.4233675926
  9
$TDUSRTIMER
 40
0.4233675926
  9
$USRTIMER
 70
     1
  9
$ANGBASE
 50
0.0
  9
$ANGDIR
 70
     0
  9
$PDMODE
 70
     0
  9
$PDSIZE
 40
0.3125
  9
$PLINEWID
 40
0.0
  9
$COORDS
 70
     1
  9
$SPLFRAME
 70
     0
  9
$SPLINETYPE
 70
     6
  9
$SPLINESEGS
 70
     8
  9
$ATTDIA
 70
     1
  9
$ATTREQ
 70
     1
  9
$HANDLING
 70
     1
  9
$HANDSEED
  5
D28E
  9
$SURFTAB1
 70
     6
  9
$SURFTAB2
 70
     6
  9
$SURFTYPE
 70
     6
  9
$SURFU
 70
     6
  9
$SURFV
 70
     6
  9
$UCSNAME
  2

  9
$UCSORG
 10
0.0
 20
0.0
 30
0.0
  9
$UCSXDIR
 10
1.0
 20
0.0
 30
0.0
  9
$UCSYDIR
 10
0.0
 20
1.0
 30
0.0
  9
$PUCSNAME
  2

  9
$PUCSORG
 10
0.0
 20
0.0
 30
0.0
  9
$PUCSXDIR
 10
1.0
 20
0.0
 30
0.0
  9
$PUCSYDIR
 10
0.0
 20
1.0
 30
0.0
  9
$USERI1
 70
     0
  9
$USERI2
 70
     0
  9
$USERI3
 70
     0
  9
$USERI4
 70
     0
  9
$USERI5
 70
     0
  9
$USERR1
 40
0.0
  9
$USERR2
 40
0.0
  9
$USERR3
 40
0.0
  9
$USERR4
 40
0.0
  9
$USERR5
 40
0.0
  9
$WORLDVIEW
 70
     1
  9
$SHADEDGE
 70
     3
  9
$SHADEDIF
 70
    70
  9
$TILEMODE
 70
     1
  9
$MAXACTVP
 70
    64
  9
$PLIMCHECK
 70
     0
  9
$PEXTMIN
 10
1.0000000000000000E+20
 20
1.0000000000000000E+20
 30
1.0000000000000000E+20
  9
$PEXTMAX
 10
-1.0000000000000000E+20
 20
-1.0000000000000000E+20
 30
-1.0000000000000000E+20
  9
$PLIMMIN
 10
0.0
 20
0.0
  9
$PLIMMAX
 10
12.0
 20
9.0
  9
$UNITMODE
 70
     0
  9
$VISRETAIN
 70
     1
  9
$PLINEGEN
 70
     0
  9
$PSLTSCALE
 70
     1
  0
ENDSEC
  0
SECTION
  2
TABLES
  0
TABLE
  2
VPORT
 70
     1
  0
VPORT
  2
*ACTIVE
 70
     0
 10
0.0
 20
0.0
 11
1.0
 21
1.0
 12
714.7865656086004265
 22
48.3542001635065972
 13
0.0
 23
0.0
 14
1.0
 24
1.0
 15
0.0
 25
0.0
 16
-0.0000000000000142
 26
0.0
 36
39.3282560748450578
 17
95.3242609977377526
 27
7.0363320112228394
 37
0.0
 40
21.4229879328438884
 41
2.1211111111111101
 42
50.0
 43
0.0
 44
0.0
 50
0.0
 51
0.0
 71
     0
 72
   100
 73
     1
 74
     1
 75
     0
 76
     0
 77
     0
 78
     0
  0
ENDTAB
  0
TABLE
  2
LTYPE
 70
     2
  0
LTYPE
  2
CONTINUOUS
 70
     0
  3
Solid line
 72
    65
 73
     0
 40
0.0
  0
LTYPE
  2
PHANTOM2
 70
     0
  3
___ _ _ ___ _ _ ___ _ _ ___ _ _
 72
    65
 73
     6
 40
1.25
 49
0.625
 49
-0.125
 49
0.125
 49
-0.125
 49
0.125
 49
-0.125
  0
ENDTAB
  0
TABLE
  2
LAYER
 70
     2
  0
LAYER
  2
0
 70
     0
 62
   255
  6
CONTINUOUS
  0
LAYER
  2
DEFPOINTS
 70
     0
 62
     7
  6
CONTINUOUS
  0
ENDTAB
  0
TABLE
  2
STYLE
 70
     1
  0
STYLE
  2
STANDARD
 70
     0
 40
0.0
 41
0.8
 50
0.0
 71
     0
 42
0.2
  3
txt
  4

  0
ENDTAB
  0
TABLE
  2
VIEW
 70
     0
  0
ENDTAB
  0
TABLE
  2
UCS
 70
     0
  0
ENDTAB
  0
TABLE
  2
APPID
 70
    10
  0
APPID
  2
ACAD
 70
     0
  0
APPID
  2
ACAD_MLEADERVER
 70
     0
  0
APPID
  2
ACAD_DSTYLE_DIMJAG
 70
     0
  0
APPID
  2
ACAD_DSTYLE_DIMTALN
 70
     0
  0
APPID
  2
ACAD_NAV_VCDISPLAY
 70
     0
  0
APPID
  2
ACAD_EXEMPT_FROM_CAD_STANDARDS
 70
     0
  0
APPID
  2
ACAECLAYERSTANDARD
 70
     0
  0
APPID
  2
ACCMTRANSPARENCY
 70
     0
  0
APPID
  2
DCO15
 70
     0
  0
APPID
  2
ACDBATTR
 70
     0
  0
ENDTAB
  0
TABLE
  2
DIMSTYLE
 70
     1
  0
DIMSTYLE
  2
STANDARD
 70
     0
  3

  4

  5

  6

  7

 40
1.0
 41
0.1875
 42
0.0625
 43
0.38
 44
0.125
 45
0.0
 46
0.0
 47
0.01
 48
0.01
140
0.15625
141
0.09
142
0.0
143
25.3999999999999986
144
1.0
145
0.0
146
1.0
147
0.09
 71
     1
 72
     0
 73
     1
 74
     1
 75
     0
 76
     0
 77
     0
 78
     4
170
     0
171
     2
172
     0
173
     0
174
     0
175
     0
176
     0
177
     0
178
     0
  0
ENDTAB
  0
ENDSEC
  0
SECTION
  2
BLOCKS
  0
BLOCK
  8
0
  2
$MODEL_SPACE
 70
     0
 10
0.0
 20
0.0
 30
0.0
  3
$MODEL_SPACE
  1

  0
ENDBLK
  5
21
  8
0
  0
BLOCK
 67
     1
  8
0
  2
$PAPER_SPACE
 70
     0
 10
0.0
 20
0.0
 30
0.0
  3
$PAPER_SPACE
  1

  0
ENDBLK
  5
1D
 67
     1
  8
0
  0
ENDSEC
  0
SECTION
  2
ENTITIES
  0
ATTDEF
  5
7A6E
  8
DEFPOINTS
 10
816.1875517856399256
 20
66.0251132020868852
 30
0.0
 40
0.001
  1
K-30805
  3

  2
MODELNUMBER
 70
     0
1001
ACDBATTR
1070
     0
1070
     1
  0
ATTDEF
  5
7A6F
  8
DEFPOINTS
 10
816.1875517856399256
 20
66.02344653542022
 30
0.0
 40
0.001
  1
PUREWASH
  3

  2
TRADENAME
 70
     0
1001
ACDBATTR
1070
     0
1070
     1
  0
ATTDEF
  5
7A70
  8
DEFPOINTS
 10
816.1875517856399256
 20
66.0217798687535549
 30
0.0
 40
0.001
  1
BIDET SEAT
  3

  2
PRODUCT
 70
     0
1001
ACDBATTR
1070
     0
1070
     1
  0
LINE
  5
D163
  8
0
 10
808.2921944339258289
 20
57.1598763418936073
 30
0.0
 11
808.2921944339258289
 21
58.3327592630898266
 31
0.0
  0
ARC
  5
D164
  8
0
 10
814.6301622085177314
 20
-144.1067557336156995
 30
0.0
 40
210.1335935768073
 50
89.5743568153574756
 51
91.1003305402813197
  0
ARC
  5
D165
  8
0
 10
810.7101303384498578
 20
59.6777590907702304
 30
0.0
 40
6.3113819888106599
 50
91.0459330956073956
 51
97.9758487049003861
  0
ARC
  5
D166
  8
0
 10
810.0012167590798526
 20
64.7374153959868863
 30
0.0
 40
1.202303755906633
 50
97.9758487049003861
 51
131.6344973674908942
  0
ARC
  5
D167
  8
0
 10
809.9091985099374824
 20
64.8409324404057941
 30
0.0
 40
1.0638005550033709
 50
131.634497367490809
 51
160.2926081256597115
  0
ARC
  5
D168
  8
0
 10
810.3519307783859631
 20
64.6817888011038775
 30
0.0
 40
1.5342666728628021
 50
160.2729873829524081
 51
176.0342437439036019
  0
ARC
  5
D169
  8
0
 10
828.9064082318319606
 20
60.7543897141458871
 30
0.0
 40
20.4860745767319408
 50
168.6448291804113069
 51
175.2875798451050002
  0
ARC
  5
D16A
  8
0
 10
852.8521229789411109
 20
58.2469732480122389
 30
0.0
 40
44.5600111218260295
 50
174.6039092005266866
 51
179.8896952779487037
  0
ARC
  5
D16B
  8
0
 10
816.1911853010743698
 20
50.2734368673405214
 30
0.0
 40
5.5163510308441426
 50
237.7478300033504865
 51
270.0001947587688846
  0
ARC
  5
D16C
  8
0
 10
818.0353457999538023
 20
53.4356626509580721
 30
0.0
 40
9.1756906328414019
 50
212.9974981641694001
 51
238.5464414505796071
  0
ARC
  5
D16D
  8
0
 10
821.110366347118088
 20
54.9654595985577785
 30
0.0
 40
12.5939148329603707
 50
188.2880307821542942
 51
211.2154904502583861
  0
ARC
  5
D16E
  8
0
 10
839.2616921869826001
 20
57.8870829288201634
 30
0.0
 40
30.9780344840769288
 50
181.3451368597083047
 51
188.7959370535774895
  0
LINE
  5
D16F
  8
0
 10
809.1869875989546017
 20
63.1753389819935478
 30
0.0
 11
816.1912040521543759
 21
63.195313706880988
 31
0.0
  0
ARC
  5
D170
  8
0
 10
809.1876675102154195
 20
63.2535074602729921
 30
0.0
 40
0.0781714351655698
 50
175.5134952156278132
 51
269.5016525307968891
  0
ARC
  5
D171
  8
0
 10
809.1018124324276641
 20
63.3096185848771427
 30
0.0
 40
0.0192635594970764
 50
303.3214126505966988
 51
321.4666314342533724
  0
ARC
  5
D172
  8
0
 10
808.2085416770095208
 20
63.5350863989451327
 30
0.0
 40
0.9388674381910906
 50
345.3489934496666933
 51
356.6835554322257167
  0
ARC
  5
D173
  8
0
 10
750.1066609598904051
 20
69.7110012901493405
 30
0.0
 40
59.3669944513248709
 50
353.9760413577279223
 51
354.9572714273012934
  0
ARC
  5
D174
  8
0
 10
810.5758545948248184
 20
64.3842505904307245
 30
0.0
 40
1.3363931921878749
 50
143.9756358006453922
 51
175.3442700647217123
  0
ARC
  5
D175
  8
0
 10
810.5268766080348541
 20
64.2584554639440455
 30
0.0
 40
1.3769673438387591
 50
96.8820881031470975
 51
138.5355000291862098
  0
ARC
  5
D176
  8
0
 10
811.8834626766314386
 20
52.0881615355918086
 30
0.0
 40
13.6225838301180708
 50
90.6261814492310265
 51
96.4130709964381936
  0
LINE
  5
D177
  8
0
 10
811.734585402450989
 20
65.7099318231068281
 30
0.0
 11
820.6478227018584448
 21
65.7099318231068281
 31
0.0
  0
LINE
  5
D178
  8
0
 10
809.1097356090544963
 20
63.2596223647935503
 30
0.0
 11
809.1123945825545434
 21
63.2935219136935601
 31
0.0
  0
ARC
  5
D179
  8
0
 10
808.9382863982501704
 20
64.8593589646564226
 30
0.0
 40
0.059286901660358
 50
26.5255272227979404
 51
80.5237663804195023
  0
ARC
  5
D17A
  8
0
 10
808.8012791773389836
 20
64.790973451924728
 30
0.0
 40
0.21241285286841
 50
4.888357216750669
 51
26.5255272227973009
  0
ARC
  5
D17B
  8
0
 10
807.7487947535646526
 20
64.6245657378325973
 30
0.0
 40
1.2775188740795129
 50
2.8857648814596422
 51
8.3041058810759871
  0
ARC
  5
D17C
  8
0
 10
802.6962059853133269
 20
64.4697218704533412
 30
0.0
 40
6.3322813221958052
 50
355.7310289708349842
 51
1.983403504599935
  0
LINE
  5
D17D
  8
0
 10
809.0542623543543641
 20
64.6918643549435615
 30
0.0
 11
809.2337133978498969
 21
64.6897533185787807
 31
0.0
  0
ARC
  5
D17E
  8
0
 10
806.4145883798246359
 20
64.8380693207823242
 30
0.0
 40
2.823023822741352
 50
354.7187630513421936
 51
358.073298605318314
  0
ARC
  5
D17F
  8
0
 10
815.3624925775850443
 20
63.9698812981187501
 30
0.0
 40
6.166943119943415
 50
174.3387942763183958
 51
177.2620623763361891
  0
ARC
  5
D180
  8
0
 10
807.5632187233685499
 20
64.3428615471218137
 30
0.0
 40
1.6412440524553731
 50
345.6745373541447179
 51
357.2620623763361891
  0
ARC
  5
D181
  8
0
 10
808.9052981194935228
 20
64.0001345457333457
 30
0.0
 40
0.2560946370548868
 50
338.4708450238712203
 51
345.6745373541444906
  0
ARC
  5
D182
  8
0
 10
809.1191864726129097
 20
63.915755932684803
 30
0.0
 40
0.026164260766607
 50
313.7909477539560044
 51
338.4708450238715045
  0
ARC
  5
D183
  8
0
 10
809.1344732274122862
 20
63.9009409894737388
 30
0.0
 40
0.0049531520190504
 50
196.5419540013313906
 51
304.6992666804804912
  0
ARC
  5
D184
  8
0
 10
809.2135205667370883
 20
63.9347343242742099
 30
0.0
 40
0.0908899117161071
 50
183.4596677737048935
 51
202.7879145169509911
  0
LINE
  5
D185
  8
0
 10
809.1514589839268865
 20
63.929499625546967
 30
0.0
 11
809.0061484452255627
 21
63.9282315196731687
 31
0.0
  0
ARC
  5
D186
  8
0
 10
809.0548209413150289
 20
64.7302991950861752
 30
0.0
 40
0.0384388989980422
 50
214.9464087142598032
 51
269.1673590376522043
  0
ARC
  5
D187
  8
0
 10
809.1572550204228946
 20
64.739452534362897
 30
0.0
 40
0.0788482538967341
 50
2.692575552695903
 51
14.2322672925082099
  0
ARC
  5
D188
  8
0
 10
809.2191950078201899
 20
64.7542928703966538
 30
0.0
 40
0.0151842779710247
 50
17.4160143031237986
 51
36.5328821345375516
  0
ARC
  5
D189
  8
0
 10
809.2278337869529423
 20
64.7606929063697123
 30
0.0
 40
0.0044330470945475
 50
36.5328821345103023
 51
129.9511329599851024
  0
ARC
  5
D18A
  8
0
 10
809.2599951471240729
 20
64.7222980337848099
 30
0.0
 40
0.0545181679276967
 50
129.9511329599847045
 51
155.9527172385820109
  0
ARC
  5
D18B
  8
0
 10
810.1017057446999843
 20
64.3467117195893508
 30
0.0
 40
0.9762240914643074
 50
155.9527172385818119
 51
159.3934936563412066
  0
ARC
  5
D18C
  8
0
 10
809.2094467725360118
 20
64.6722497837420605
 30
0.0
 40
0.4049732385918869
 50
153.7393980884251903
 51
163.4069176254236027
  0
ARC
  5
D18D
  8
0
 10
808.9664240805317377
 20
64.7921512223224596
 30
0.0
 40
0.1339817556950175
 50
118.9054308711749002
 51
153.7393980884249913
  0
ARC
  5
D18E
  8
0
 10
808.9372946898582768
 20
64.8449072029245883
 30
0.0
 40
0.0737180444726753
 50
81.612838601020826
 51
118.9054308711752981
  0
LINE
  5
D18F
  8
0
 10
815.9110255435543877
 20
63.3539792772935471
 30
0.0
 11
816.1912040521543759
 21
63.3540649704068315
 31
0.0
  0
ARC
  5
D190
  8
0
 10
815.9114280728682616
 20
63.1999245136733805
 30
0.0
 40
0.1540552895032074
 50
90.1497076609420986
 51
126.7842254861137974
  0
ARC
  5
D191
  8
0
 10
815.9164445044292506
 20
63.1927319458704986
 30
0.0
 40
0.1628199020443111
 50
126.6824249807751954
 51
148.4988133576968039
  0
ARC
  5
D192
  8
0
 10
815.8357056781934489
 20
63.2422110623575833
 30
0.0
 40
0.0681259686046008
 50
148.4988133576968039
 51
177.5233725534808968
  0
ARC
  5
D193
  8
0
 10
815.8062713078687693
 20
63.2434841649403907
 30
0.0
 40
0.0386640788723795
 50
177.5233725534787936
 51
231.1761022438483906
  0
ARC
  5
D194
  8
0
 10
815.8361230257091847
 20
63.2805805188408996
 30
0.0
 40
0.0862798801439183
 50
231.1761022438491864
 51
269.9089581965163802
  0
ARC
  5
D195
  8
0
 10
815.8862838371835551
 20
63.3808127794240335
 30
0.0
 40
0.0885942990232887
 50
220.58562601919391
 51
275.0005463832163741
  0
LINE
  5
D196
  8
0
 10
815.8940061807544453
 20
63.2925556820935569
 30
0.0
 11
816.1912040521543759
 21
63.2925556820935569
 31
0.0
  0
LINE
  5
D197
  8
0
 10
809.0155954100545159
 20
63.0677424228935593
 30
0.0
 11
816.1912040521543759
 21
63.0677419479795418
 31
0.0
  0
ARC
  5
D198
  8
0
 10
809.0146459847009055
 20
63.1430939740520785
 30
0.0
 40
0.0753575322744653
 50
174.2008075132270903
 51
270.7218854349267758
  0
ARC
  5
D199
  8
0
 10
784.5666735202539712
 20
65.6260803386422396
 30
0.0
 40
24.4983800529829701
 50
354.2008075132271188
 51
356.190338466732328
  0
LINE
  5
D19A
  8
0
 10
810.433847583154602
 20
63.1574379337935596
 30
0.0
 11
810.373687480743456
 21
63.0677423330089297
 31
0.0
  0
ARC
  5
D19B
  8
0
 10
810.5568601304745471
 20
62.6631415669045495
 30
0.0
 40
0.5093731295601218
 50
91.0646559067598389
 51
103.9749652232029007
  0
ARC
  5
D19C
  8
0
 10
810.0581506236113682
 20
76.7615020357162194
 30
0.0
 40
13.5978795226973599
 50
272.0619189537649731
 51
272.7872599421846189
  0
LINE
  5
D19D
  8
0
 10
823.2353320504139447
 20
63.4925275456317024
 30
0.0
 11
809.1470760538951481
 21
63.4925275456317024
 31
0.0
  0
LINE
  5
D19E
  8
0
 10
806.2219560924146435
 20
54.3999150803824776
 30
0.0
 11
806.2219560924146435
 21
55.3310495464935599
 31
0.0
  0
LINE
  5
D19F
  8
0
 10
806.1825776072889767
 20
54.3605150862567186
 30
0.0
 11
796.2017371476689505
 21
54.3579222914788289
 31
0.0
  0
LINE
  5
D1A0
  8
0
 10
806.1759310022725913
 20
55.3779516672935586
 30
0.0
 11
805.1261570950789519
 21
55.3779516672935586
 31
0.0
  0
ARC
  5
D1A1
  8
0
 10
806.182556092414643
 20
54.3999150803824918
 30
0.0
 40
0.0394
 50
270.0312870954431901
 51
359.9999999999947136
  0
LINE
  5
D1A2
  8
0
 10
805.7980567936543821
 20
55.3706666121935527
 30
0.0
 11
806.1854294184104219
 21
55.3706666121935527
 31
0.0
  0
ARC
  5
D1A3
  8
0
 10
806.1807778359133181
 20
55.3297306742823309
 30
0.0
 40
0.0411993717476206
 50
1.834463011651227
 51
83.5172422275003612
  0
ARC
  5
D1A4
  8
0
 10
806.1743672586879939
 20
55.3383358354507067
 30
0.0
 40
0.0396466824160478
 50
37.5366614515926784
 51
87.7395547691001383
  0
LINE
  5
D1A5
  8
0
 10
805.7717600009921171
 20
55.3492385275586827
 30
0.0
 11
805.7897041386546562
 21
55.3672041008935594
 31
0.0
  0
ARC
  5
D1A6
  8
0
 10
805.7980567936543821
 20
55.3588610883935317
 30
0.0
 40
0.0118055238000311
 50
89.7619014641742865
 51
135.0330908897005884
  0
LINE
  5
D1A7
  8
0
 10
805.1261441914543866
 20
55.4106489861935572
 30
0.0
 11
805.1261684232168818
 21
55.3492465743731117
 31
0.0
  0
LINE
  5
D1A8
  8
0
 10
805.1261441914543866
 20
55.4106489861935572
 30
0.0
 11
803.5513411825030516
 21
55.4100275068860597
 31
0.0
  0
LINE
  5
D1A9
  8
0
 10
803.5513411825030516
 20
55.4100275068860597
 30
0.0
 11
803.551365161307217
 21
55.3492662031136931
 31
0.0
  0
LINE
  5
D1AA
  8
0
 10
801.192157040704501
 20
55.4085017632585206
 30
0.0
 11
801.9765939043545586
 21
55.4089299193935574
 31
0.0
  0
LINE
  5
D1AB
  8
0
 10
801.9765939043545586
 20
55.4089299193935574
 30
0.0
 11
801.9766044955654252
 21
55.3492858313233498
 31
0.0
  0
LINE
  5
D1AC
  8
0
 10
806.0989312816544725
 20
55.259125068593562
 30
0.0
 11
796.2853827997545295
 21
55.259125068593562
 31
0.0
  0
LINE
  5
D1AD
  8
0
 10
806.1383205600709516
 20
55.2194441906136788
 30
0.0
 11
806.1383205600709516
 21
54.4789921983825778
 31
0.0
  0
ARC
  5
D1AE
  8
0
 10
806.0992453342263389
 20
55.220046463470382
 30
0.0
 40
0.0390798670339508
 50
359.1169606871383735
 51
90.4604437517467517
  0
LINE
  5
D1AF
  8
0
 10
806.0991442461546512
 20
54.4396975348934973
 30
0.0
 11
796.2851698352717449
 21
54.439697534893547
 31
0.0
  0
ARC
  5
D1B0
  8
0
 10
806.099259994940212
 20
54.4787586268675312
 30
0.0
 40
0.0390612634714336
 50
269.8302173044406231
 51
0.342609034885311
  0
LINE
  5
D1B1
  8
0
 10
796.5794418950495128
 20
55.3493531029039474
 30
0.0
 11
805.801491272927251
 21
55.3492381569806966
 31
0.0
  0
LINE
  5
D1B2
  8
0
 10
806.061795203254519
 20
54.5046664422935621
 30
0.0
 11
806.0676369884545238
 21
55.1740432396935532
 31
0.0
  0
LINE
  5
D1B3
  8
0
 10
806.0676369884545238
 20
55.1740432396935532
 30
0.0
 11
796.3166770929544782
 21
55.1740432396935532
 31
0.0
  0
LINE
  5
D1B4
  8
0
 10
806.061795203254519
 20
54.5046664422935621
 30
0.0
 11
796.3225188781545967
 21
54.5046664422935478
 31
0.0
  0
LINE
  5
D1B5
  8
0
 10
805.8247421958252517
 20
55.3302176583462781
 30
0.0
 11
805.8247964364544487
 21
55.2786486164935624
 31
0.0
  0
ARC
  5
D1B6
  8
0
 10
805.8033215588269513
 20
55.3277541484130779
 30
0.0
 40
0.0215618313370554
 50
6.560557214967341
 51
94.8694382148443367
  0
ARC
  5
D1B7
  8
0
 10
805.80511288635455
 20
55.2786486164935624
 30
0.0
 40
0.0196835501000088
 50
277.3104400533981106
 51
359.9999999999895977
  0
LINE
  5
D1B8
  8
0
 10
796.1623579889944722
 20
54.3999150803824776
 30
0.0
 11
796.1623579889944722
 21
55.3310495464935599
 31
0.0
  0
LINE
  5
D1B9
  8
0
 10
796.2083830791364107
 20
55.3779516672935586
 30
0.0
 11
797.2581569863301638
 21
55.3779516672935586
 31
0.0
  0
ARC
  5
D1BA
  8
0
 10
796.2065560017267671
 20
54.4019017149870194
 30
0.0
 40
0.0442426383316332
 50
182.5736273505536076
 51
263.7470084373142072
  0
LINE
  5
D1BB
  8
0
 10
796.5862572877543926
 20
55.3706666121935527
 30
0.0
 11
796.1988846629986938
 21
55.3706666121935527
 31
0.0
  0
ARC
  5
D1BC
  8
0
 10
796.2035362454956839
 20
55.3297306742823309
 30
0.0
 40
0.0411993717476206
 50
96.482757772499653
 51
178.1655369883488049
  0
ARC
  5
D1BD
  8
0
 10
796.2099468227210082
 20
55.3383358354507067
 30
0.0
 40
0.0396466824160478
 50
92.2604452308998901
 51
142.4633385484073074
  0
LINE
  5
D1BE
  8
0
 10
796.6125540804169987
 20
55.3492385275586827
 30
0.0
 11
796.5946099427544596
 21
55.3672041008935594
 31
0.0
  0
ARC
  5
D1BF
  8
0
 10
796.5862572877543926
 20
55.3588610883935317
 30
0.0
 40
0.0118055238000311
 50
44.9669091102993619
 51
90.2380985358257561
  0
LINE
  5
D1C0
  8
0
 10
797.2581698899545017
 20
55.4106489861935572
 30
0.0
 11
797.2581456581922339
 21
55.3492465743731117
 31
0.0
  0
LINE
  5
D1C1
  8
0
 10
797.2581698899545017
 20
55.4106489861935572
 30
0.0
 11
798.8329728989059504
 21
55.4100275068860597
 31
0.0
  0
LINE
  5
D1C2
  8
0
 10
798.8329728989059504
 20
55.4100275068860597
 30
0.0
 11
798.8329489201016713
 21
55.3492662031136931
 31
0.0
  0
LINE
  5
D1C3
  8
0
 10
801.192157040704501
 20
55.4085017632585206
 30
0.0
 11
800.4077201770544434
 21
55.4089299193935503
 31
0.0
  0
LINE
  5
D1C4
  8
0
 10
800.4077201770544434
 20
55.4089299193935574
 30
0.0
 11
800.4077095858435769
 21
55.3492858313233498
 31
0.0
  0
LINE
  5
D1C5
  8
0
 10
796.2459935213381641
 20
55.2194441906136788
 30
0.0
 11
796.2459935213381641
 21
54.4789921983825778
 31
0.0
  0
ARC
  5
D1C6
  8
0
 10
796.2850687471825495
 20
55.220046463470382
 30
0.0
 40
0.0390798670339508
 50
89.5395562482597853
 51
180.8830393128615128
  0
ARC
  5
D1C7
  8
0
 10
796.2850540864689037
 20
54.4787586268675312
 30
0.0
 40
0.0390612634714336
 50
179.6573909651147005
 51
270.1697826955593769
  0
LINE
  5
D1C8
  8
0
 10
796.3225188781545967
 20
54.5046664422935621
 30
0.0
 11
796.3166770929544782
 21
55.1740432396935532
 31
0.0
  0
LINE
  5
D1C9
  8
0
 10
796.5595718855837504
 20
55.3302176583462781
 30
0.0
 11
796.5595176449545534
 21
55.2786486164935624
 31
0.0
  0
ARC
  5
D1CA
  8
0
 10
796.5811320700653368
 20
55.3277139374479816
 30
0.0
 40
0.0217050725226789
 50
94.4661464131152542
 51
173.3760787029561925
  0
ARC
  5
D1CB
  8
0
 10
796.579201195054452
 20
55.2786486164935624
 30
0.0
 40
0.0196835501000088
 50
180.0000000000102887
 51
262.6895599466017757
  0
LINE
  5
D1CC
  8
0
 10
824.0902136703833776
 20
57.1598763418936073
 30
0.0
 11
824.0902136703833776
 21
58.3327592630898266
 31
0.0
  0
ARC
  5
D1CD
  8
0
 10
817.6567374569494859
 20
-160.3280978846472919
 30
0.0
 40
226.3538816733629062
 50
88.9543472123800143
 51
90.3709654319816451
  0
ARC
  5
D1CE
  8
0
 10
821.6722777658590076
 20
59.6777590907702304
 30
0.0
 40
6.3113819888106599
 50
82.0241512950996139
 51
88.9540669043926044
  0
ARC
  5
D1CF
  8
0
 10
822.3811913452291265
 20
64.7374153959868863
 30
0.0
 40
1.202303755906633
 50
48.3655026325090915
 51
82.0241512950996139
  0
ARC
  5
D1D0
  8
0
 10
822.473209594371383
 20
64.8409324404057941
 30
0.0
 40
1.0638005550033709
 50
19.7073918743401713
 51
48.3655026325090915
  0
ARC
  5
D1D1
  8
0
 10
822.0304773259229023
 20
64.6817888011038775
 30
0.0
 40
1.5342666728628021
 50
3.96575625609636
 51
19.7270126170475883
  0
ARC
  5
D1D2
  8
0
 10
803.4759998724769048
 20
60.7543897141458871
 30
0.0
 40
20.4860745767319408
 50
4.712420154894958
 51
11.3551708195887002
  0
ARC
  5
D1D3
  8
0
 10
779.5302851253679819
 20
58.2469732480122389
 30
0.0
 40
44.5600111218260295
 50
0.1103047220512499
 51
5.3960907994733311
  0
ARC
  5
D1D4
  8
0
 10
816.1112355208291547
 20
50.550088290183119
 30
0.0
 40
5.7935543834552679
 50
270.7908797501204958
 51
301.4610954877589961
  0
ARC
  5
D1D5
  8
0
 10
814.3470623043552905
 20
53.4356626509580721
 30
0.0
 40
9.1756906328414019
 50
301.4535585494205066
 51
327.0025018358305147
  0
ARC
  5
D1D6
  8
0
 10
811.2720417571907774
 20
54.9654595985577785
 30
0.0
 40
12.5939148329603707
 50
328.7845095497415855
 51
351.7119692178455921
  0
ARC
  5
D1D7
  8
0
 10
793.1207159173266064
 20
57.8870829288201634
 30
0.0
 40
30.9780344840769288
 50
351.2040629464224821
 51
358.6548631402916953
  0
LINE
  5
D1D8
  8
0
 10
823.1954205053544911
 20
63.1753389819935478
 30
0.0
 11
816.1912040521543759
 21
63.195313706880988
 31
0.0
  0
ARC
  5
D1D9
  8
0
 10
823.1947405940936733
 20
63.2535074602729921
 30
0.0
 40
0.0781714351655698
 50
270.4983474692029972
 51
4.4865047843721291
  0
ARC
  5
D1DA
  8
0
 10
823.280595671881315
 20
63.3096185848771427
 30
0.0
 40
0.0192635594970764
 50
218.5333685657465139
 51
236.6785873494033865
  0
ARC
  5
D1DB
  8
0
 10
824.1738664272994583
 20
63.5350863989451327
 30
0.0
 40
0.9388674381910906
 50
183.3164445677743117
 51
194.651006550333193
  0
ARC
  5
D1DC
  8
0
 10
882.275747144418574
 20
69.7110012901493405
 30
0.0
 40
59.3669944513248709
 50
185.0427285726985076
 51
186.0239586422719924
  0
ARC
  5
D1DD
  8
0
 10
821.8065535094841607
 20
64.3842505904307245
 30
0.0
 40
1.3363931921878749
 50
4.6557299352782984
 51
36.0243641993545793
  0
ARC
  5
D1DE
  8
0
 10
821.8555314962740113
 20
64.2584554639440455
 30
0.0
 40
1.3769673438387591
 50
41.4644999708137689
 51
83.1179118968529167
  0
ARC
  5
D1DF
  8
0
 10
820.4989454276776542
 20
52.0881615355918086
 30
0.0
 40
13.6225838301180708
 50
83.5869290035618207
 51
89.3738185507689735
  0
LINE
  5
D1E0
  8
0
 10
823.2726724952544828
 20
63.2596223647935503
 30
0.0
 11
823.2700135217545494
 21
63.2935219136935601
 31
0.0
  0
ARC
  5
D1E1
  8
0
 10
823.4441217060588087
 20
64.8593589646564226
 30
0.0
 40
0.059286901660358
 50
99.4762336195805119
 51
153.4744727772020951
  0
ARC
  5
D1E2
  8
0
 10
823.5811289269698818
 20
64.790973451924728
 30
0.0
 40
0.21241285286841
 50
153.474472777202692
 51
175.1116427832492946
  0
ARC
  5
D1E3
  8
0
 10
824.6336133507442128
 20
64.6245657378325973
 30
0.0
 40
1.2775188740795129
 50
171.6958941189240022
 51
177.1142351185403072
  0
ARC
  5
D1E4
  8
0
 10
829.6862021189956522
 20
64.4697218704533412
 30
0.0
 40
6.3322813221958052
 50
178.0165964953999946
 51
184.2689710291649021
  0
LINE
  5
D1E5
  8
0
 10
823.3281457499545013
 20
64.6918643549435615
 30
0.0
 11
823.1486947064591959
 21
64.6897533185787807
 31
0.0
  0
ARC
  5
D1E6
  8
0
 10
825.9678197244843432
 20
64.8380693207823242
 30
0.0
 40
2.823023822741352
 50
181.926701394681686
 51
185.2812369486578064
  0
ARC
  5
D1E7
  8
0
 10
817.0199155267239348
 20
63.9698812981187501
 30
0.0
 40
6.166943119943415
 50
2.7379376236637691
 51
5.6612057236816193
  0
ARC
  5
D1E8
  8
0
 10
824.8191893809405428
 20
64.3428615471218137
 30
0.0
 40
1.6412440524553731
 50
182.7379376236636972
 51
194.3254626458551968
  0
ARC
  5
D1E9
  8
0
 10
823.4771099848154563
 20
64.0001345457333457
 30
0.0
 40
0.2560946370548868
 50
194.3254626458553957
 51
201.5291549761288081
  0
ARC
  5
D1EA
  8
0
 10
823.2632216316960694
 20
63.915755932684803
 30
0.0
 40
0.026164260766607
 50
201.5291549761282113
 51
226.2090522460439104
  0
ARC
  5
D1EB
  8
0
 10
823.2479348768968066
 20
63.9009409894737388
 30
0.0
 40
0.0049531520190504
 50
235.3007333195195088
 51
343.4580459986685241
  0
ARC
  5
D1EC
  8
0
 10
823.1688875375717771
 20
63.9347343242742099
 30
0.0
 40
0.0908899117161071
 50
337.2120854830488952
 51
356.5403322262951065
  0
LINE
  5
D1ED
  8
0
 10
823.2309491203820926
 20
63.929499625546967
 30
0.0
 11
823.3762596590834164
 21
63.9282315196731687
 31
0.0
  0
ARC
  5
D1EE
  8
0
 10
823.3275871629941776
 20
64.7302991950861752
 30
0.0
 40
0.0384388989980422
 50
270.8326409623477957
 51
325.0535912857400831
  0
ARC
  5
D1EF
  8
0
 10
823.2251530838859708
 20
64.739452534362897
 30
0.0
 40
0.0788482538967341
 50
165.7677327074918026
 51
177.3074244473042995
  0
ARC
  5
D1F0
  8
0
 10
823.1632130964887892
 20
64.7542928703966538
 30
0.0
 40
0.0151842779710247
 50
143.4671178654623986
 51
162.5839856968761978
  0
ARC
  5
D1F1
  8
0
 10
823.1545743173560368
 20
64.7606929063697123
 30
0.0
 40
0.0044330470945475
 50
50.0488670400148976
 51
143.4671178654897119
  0
ARC
  5
D1F2
  8
0
 10
823.1224129571849062
 20
64.7222980337848099
 30
0.0
 40
0.0545181679276967
 50
24.0472827614180282
 51
50.0488670400152813
  0
ARC
  5
D1F3
  8
0
 10
822.2807023596088811
 20
64.3467117195893508
 30
0.0
 40
0.9762240914643074
 50
20.6065063436589284
 51
24.0472827614182094
  0
ARC
  5
D1F4
  8
0
 10
823.1729613317731946
 20
64.6722497837420605
 30
0.0
 40
0.4049732385918869
 50
16.5930823745764187
 51
26.2606019115747493
  0
ARC
  5
D1F5
  8
0
 10
823.4159840237773551
 20
64.7921512223224596
 30
0.0
 40
0.1339817556950175
 50
26.2606019115748417
 51
61.0945691288250714
  0
ARC
  5
D1F6
  8
0
 10
823.4451134144507023
 20
64.8449072029245883
 30
0.0
 40
0.0737180444726753
 50
61.0945691288246309
 51
98.387161398979174
  0
LINE
  5
D1F7
  8
0
 10
816.4713825607544777
 20
63.3539792772935471
 30
0.0
 11
816.1912040521543759
 21
63.3540649704068315
 31
0.0
  0
ARC
  5
D1F8
  8
0
 10
816.4709800314408312
 20
63.1999245136733805
 30
0.0
 40
0.1540552895032074
 50
53.2157745138862168
 51
89.8502923390579156
  0
ARC
  5
D1F9
  8
0
 10
816.4659635998797285
 20
63.1927319458704986
 30
0.0
 40
0.1628199020443111
 50
31.5011866423032387
 51
53.3175750192248614
  0
ARC
  5
D1FA
  8
0
 10
816.5467024261156439
 20
63.2422110623575833
 30
0.0
 40
0.0681259686046008
 50
2.4766274465191089
 51
31.5011866423031606
  0
ARC
  5
D1FB
  8
0
 10
816.5761367964400961
 20
63.2434841649403907
 30
0.0
 40
0.0386640788723795
 50
308.8238977561516094
 51
2.4766274465211429
  0
ARC
  5
D1FC
  8
0
 10
816.546285078599908
 20
63.2805805188408996
 30
0.0
 40
0.0862798801439183
 50
270.0910418034836198
 51
308.8238977561508136
  0
ARC
  5
D1FD
  8
0
 10
816.4961242671255377
 20
63.3808127794240335
 30
0.0
 40
0.0885942990232887
 50
264.9994536167836259
 51
319.41437398080609
  0
LINE
  5
D1FE
  8
0
 10
816.4884019235545338
 20
63.2925556820935569
 30
0.0
 11
816.1912040521543759
 21
63.2925556820935569
 31
0.0
  0
LINE
  5
D1FF
  8
0
 10
823.3668126942544632
 20
63.0677424228935593
 30
0.0
 11
816.1912040521543759
 21
63.0677419479795418
 31
0.0
  0
ARC
  5
D200
  8
0
 10
823.3677621196080736
 20
63.1430939740520785
 30
0.0
 40
0.0753575322744653
 50
269.2781145650732242
 51
5.799192486772883
  0
ARC
  5
D201
  8
0
 10
847.8157345840550079
 20
65.6260803386422396
 30
0.0
 40
24.4983800529829701
 50
183.8096615332675867
 51
185.7991924867729097
  0
LINE
  5
D202
  8
0
 10
821.9485605211544907
 20
63.1574379337935596
 30
0.0
 11
822.0087206235655231
 21
63.0677423330089297
 31
0.0
  0
ARC
  5
D203
  8
0
 10
821.8255479738342046
 20
62.6631415669045495
 30
0.0
 40
0.5093731295601218
 50
76.0250347767971135
 51
88.9353440932401753
  0
ARC
  5
D204
  8
0
 10
822.3242574806973835
 20
76.7615020357162194
 30
0.0
 40
13.5978795226973599
 50
267.2127400578153811
 51
267.9380810462350269
  0
ARC
  5
D206
  8
0
 10
855.2106383325301522
 20
56.5628722685314784
 30
0.0
 40
46.7375835076940689
 50
171.8969626578902137
 51
176.112730386980104
  0
ARC
  5
D207
  8
0
 10
851.0816472267799782
 20
57.10041940614407
 30
0.0
 40
42.5824213135256713
 50
176.4577136442416929
 51
186.0203160507028883
  0
ARC
  5
D208
  8
0
 10
777.1717697717788269
 20
56.5628722685314784
 30
0.0
 40
46.7375835076940689
 50
3.8872696130198539
 51
8.1030373421097437
  0
ARC
  5
D209
  8
0
 10
781.3007608775291146
 20
57.10041940614407
 30
0.0
 40
42.5824213135256713
 50
353.979683949296998
 51
3.5422863557583071
  0
ENDSEC
  0
EOF
