  0
SECTION
  2
HEADER
  9
$ACADVER
  1
AC1009
  9
$INSBASE
 10
2580.8317566127261671
 20
206.7454732701901037
 30
0.0
  9
$EXTMIN
 10
2574.2233163013202102
 20
191.901341744462087
 30
-0.0000000000000058
  9
$EXTMAX
 10
2587.4491588629371108
 20
206.7605398556636089
 30
0.0000000000000104
  9
$LIMMIN
 10
0.0
 20
0.0
  9
$LIMMAX
 10
11.6929133858000007
 20
8.2677165353999982
  9
$ORTHOMODE
 70
     1
  9
$REGENMODE
 70
     1
  9
$FILLMODE
 70
     1
  9
$QTEXTMODE
 70
     0
  9
$MIRRTEXT
 70
     0
  9
$DRAGMODE
 70
     2
  9
$LTSCALE
 40
0.6431102362
  9
$OSMODE
 70
  4095
  9
$ATTMODE
 70
     1
  9
$TEXTSIZE
 40
0.2
  9
$TRACEWID
 40
0.05
  9
$TEXTSTYLE
  7
STANDARD
  9
$CLAYER
  8
0
  9
$CELTYPE
  6
BYLAYER
  9
$CECOLOR
 62
   256
  9
$DIMSCALE
 40
1.0
  9
$DIMASZ
 40
0.1875
  9
$DIMEXO
 40
0.0625
  9
$DIMDLI
 40
0.4443307087
  9
$DIMRND
 40
0.0
  9
$DIMDLE
 40
0.0
  9
$DIMEXE
 40
0.125
  9
$DIMTP
 40
0.01
  9
$DIMTM
 40
0.01
  9
$DIMTXT
 40
2.0
  9
$DIMCEN
 40
0.1052362205
  9
$DIMTSZ
 40
0.0
  9
$DIMTOL
 70
     1
  9
$DIMLIM
 70
     0
  9
$DIMTIH
 70
     1
  9
$DIMTOH
 70
     1
  9
$DIMSE1
 70
     0
  9
$DIMSE2
 70
     0
  9
$DIMTAD
 70
     0
  9
$DIMZIN
 70
     0
  9
$DIMBLK
  1

  9
$DIMASO
 70
     1
  9
$DIMSHO
 70
     1
  9
$DIMPOST
  1
\X
  9
$DIMAPOST
  1

  9
$DIMALT
 70
     1
  9
$DIMALTD
 70
     2
  9
$DIMALTF
 40
25.3999999999999986
  9
$DIMLFAC
 40
1.0
  9
$DIMTOFL
 70
     0
  9
$DIMTVP
 40
0.0
  9
$DIMTIX
 70
     0
  9
$DIMSOXD
 70
     0
  9
$DIMSAH
 70
     0
  9
$DIMBLK1
  1

  9
$DIMBLK2
  1

  9
$DIMSTYLE
  2
STANDARD
  9
$DIMCLRD
 70
     0
  9
$DIMCLRE
 70
     0
  9
$DIMCLRT
 70
     0
  9
$DIMTFAC
 40
1.0
  9
$DIMGAP
 40
0.09
  9
$LUNITS
 70
     2
  9
$LUPREC
 70
     4
  9
$SKETCHINC
 40
0.1
  9
$FILLETRAD
 40
0.0
  9
$AUNITS
 70
     0
  9
$AUPREC
 70
     0
  9
$MENU
  1
.
  9
$ELEVATION
 40
0.0
  9
$PELEVATION
 40
0.0
  9
$THICKNESS
 40
0.0
  9
$LIMCHECK
 70
     0
  9
$BLIPMODE
 70
     0
  9
$CHAMFERA
 40
0.0
  9
$CHAMFERB
 40
0.0
  9
$SKPOLY
 70
     0
  9
$TDCREATE
 40
2458060.468368056230247
  9
$TDUPDATE
 40
2459510.8233564808033407
  9
$TDINDWG
 40
0.6905626157
  9
$TDUSRTIMER
 40
0.6905626157
  9
$USRTIMER
 70
     1
  9
$ANGBASE
 50
0.0
  9
$ANGDIR
 70
     0
  9
$PDMODE
 70
     0
  9
$PDSIZE
 40
0.3125
  9
$PLINEWID
 40
0.0
  9
$COORDS
 70
     1
  9
$SPLFRAME
 70
     0
  9
$SPLINETYPE
 70
     6
  9
$SPLINESEGS
 70
     8
  9
$ATTDIA
 70
     1
  9
$ATTREQ
 70
     1
  9
$HANDLING
 70
     1
  9
$HANDSEED
  5
4555F
  9
$SURFTAB1
 70
     6
  9
$SURFTAB2
 70
     6
  9
$SURFTYPE
 70
     6
  9
$SURFU
 70
     6
  9
$SURFV
 70
     6
  9
$UCSNAME
  2

  9
$UCSORG
 10
0.0
 20
0.0
 30
0.0
  9
$UCSXDIR
 10
1.0
 20
0.0
 30
0.0
  9
$UCSYDIR
 10
0.0
 20
1.0
 30
0.0
  9
$PUCSNAME
  2

  9
$PUCSORG
 10
0.0
 20
0.0
 30
0.0
  9
$PUCSXDIR
 10
1.0
 20
0.0
 30
0.0
  9
$PUCSYDIR
 10
0.0
 20
1.0
 30
0.0
  9
$USERI1
 70
     0
  9
$USERI2
 70
     0
  9
$USERI3
 70
     0
  9
$USERI4
 70
     0
  9
$USERI5
 70
     0
  9
$USERR1
 40
0.0
  9
$USERR2
 40
0.0
  9
$USERR3
 40
0.0
  9
$USERR4
 40
0.0
  9
$USERR5
 40
0.0
  9
$WORLDVIEW
 70
     1
  9
$SHADEDGE
 70
     3
  9
$SHADEDIF
 70
    70
  9
$TILEMODE
 70
     1
  9
$MAXACTVP
 70
    64
  9
$PLIMCHECK
 70
     0
  9
$PEXTMIN
 10
1.0000000000000000E+20
 20
1.0000000000000000E+20
 30
1.0000000000000000E+20
  9
$PEXTMAX
 10
-1.0000000000000000E+20
 20
-1.0000000000000000E+20
 30
-1.0000000000000000E+20
  9
$PLIMMIN
 10
0.0
 20
0.0
  9
$PLIMMAX
 10
12.0
 20
9.0
  9
$UNITMODE
 70
     0
  9
$VISRETAIN
 70
     1
  9
$PLINEGEN
 70
     0
  9
$PSLTSCALE
 70
     1
  0
ENDSEC
  0
SECTION
  2
TABLES
  0
TABLE
  2
VPORT
 70
     1
  0
VPORT
  2
*ACTIVE
 70
     0
 10
0.0
 20
0.0
 11
1.0
 21
1.0
 12
-722.8568776522464532
 22
4.06942922417511
 13
0.0
 23
0.0
 14
1.0
 24
1.0
 15
0.0
 25
0.0
 16
0.0
 26
0.0
 36
96.5995694866707311
 17
3303.693115234375
 27
195.2615115758877096
 37
0.0
 40
14.9885960628230208
 41
2.7718023255813948
 42
50.0
 43
0.0
 44
0.0
 50
0.0
 51
0.0
 71
     0
 72
   100
 73
     1
 74
     1
 75
     0
 76
     0
 77
     0
 78
     0
  0
ENDTAB
  0
TABLE
  2
LTYPE
 70
     2
  0
LTYPE
  2
CONTINUOUS
 70
     0
  3
Solid line
 72
    65
 73
     0
 40
0.0
  0
LTYPE
  2
PHANTOM2
 70
     0
  3
___ _ _ ___ _ _ ___ _ _ ___ _ _
 72
    65
 73
     6
 40
1.25
 49
0.625
 49
-0.125
 49
0.125
 49
-0.125
 49
0.125
 49
-0.125
  0
ENDTAB
  0
TABLE
  2
LAYER
 70
     2
  0
LAYER
  2
0
 70
     0
 62
   255
  6
CONTINUOUS
  0
LAYER
  2
DEFPOINTS
 70
     0
 62
     7
  6
CONTINUOUS
  0
ENDTAB
  0
TABLE
  2
STYLE
 70
     1
  0
STYLE
  2
STANDARD
 70
     0
 40
0.0
 41
0.8
 50
0.0
 71
     0
 42
0.2
  3
txt
  4

  0
ENDTAB
  0
TABLE
  2
VIEW
 70
     0
  0
ENDTAB
  0
TABLE
  2
UCS
 70
     0
  0
ENDTAB
  0
TABLE
  2
APPID
 70
     9
  0
APPID
  2
ACAD
 70
     0
  0
APPID
  2
ACAD_MLEADERVER
 70
     0
  0
APPID
  2
ACAD_EXEMPT_FROM_CAD_STANDARDS
 70
     0
  0
APPID
  2
ACAD_NAV_VCDISPLAY
 70
     0
  0
APPID
  2
ACAECLAYERSTANDARD
 70
     0
  0
APPID
  2
ACCMTRANSPARENCY
 70
     0
  0
APPID
  2
ACAD_DSTYLE_DIMJAG
 70
     0
  0
APPID
  2
ACAD_DSTYLE_DIMTALN
 70
     0
  0
APPID
  2
ACDBATTR
 70
     0
  0
ENDTAB
  0
TABLE
  2
DIMSTYLE
 70
     1
  0
DIMSTYLE
  2
STANDARD
 70
     0
  3

  4

  5

  6

  7

 40
1.0
 41
0.1875
 42
0.0625
 43
0.38
 44
0.125
 45
0.0
 46
0.0
 47
0.01
 48
0.01
140
0.15625
141
0.09
142
0.0
143
25.3999999999999986
144
1.0
145
0.0
146
1.0
147
0.09
 71
     1
 72
     0
 73
     1
 74
     1
 75
     0
 76
     0
 77
     0
 78
     4
170
     0
171
     2
172
     0
173
     0
174
     0
175
     0
176
     0
177
     0
178
     0
  0
ENDTAB
  0
ENDSEC
  0
SECTION
  2
BLOCKS
  0
BLOCK
  8
0
  2
$MODEL_SPACE
 70
     0
 10
0.0
 20
0.0
 30
0.0
  3
$MODEL_SPACE
  1

  0
ENDBLK
  5
21
  8
0
  0
BLOCK
 67
     1
  8
0
  2
$PAPER_SPACE
 70
     0
 10
0.0
 20
0.0
 30
0.0
  3
$PAPER_SPACE
  1

  0
ENDBLK
  5
1D
 67
     1
  8
0
  0
ENDSEC
  0
SECTION
  2
ENTITIES
  0
ATTDEF
  5
44C10
  8
DEFPOINTS
 10
2580.832550874214121
 20
206.7500739058399972
 30
0.0
 40
0.001
  1
K-PR20713-T2D
  3

  2
MODELNUMBER
 70
     0
1001
ACDBATTR
1070
     0
1070
     1
  0
ATTDEF
  5
44C11
  8
DEFPOINTS
 10
2580.832550874214121
 20
206.7484072391733037
 30
0.0
 40
0.001
  1

  3

  2
TRADENAME
 70
     0
1001
ACDBATTR
1070
     0
1070
     1
  0
ATTDEF
  5
44C12
  8
DEFPOINTS
 10
2580.832550874214121
 20
206.7467405725066953
 30
0.0
 40
0.001
  1
URINAL
  3

  2
PRODUCT
 70
     0
1001
ACDBATTR
1070
     0
1070
     1
  0
ARC
  5
44FB5
  8
0
 10
2574.4827626093538129
 20
206.5957629869743073
 30
0.0
 40
0.1497104083691954
 50
89.9541658612341166
 51
180.11009794996599
  0
ARC
  5
44FB6
  8
0
 10
2609.5701066825408816
 20
207.6053286726103977
 30
0.0
 40
35.2515218519070288
 50
181.641581682481501
 51
189.2804244345670099
  0
ARC
  5
44FB7
  8
0
 10
2598.1250726458201825
 20
205.7339683465164057
 30
0.0
 40
23.6545053582590405
 50
189.2776059306123102
 51
201.4663651799644128
  0
ARC
  5
44FB8
  8
0
 10
2587.7718242952169021
 20
201.6622647017840109
 30
0.0
 40
12.52937517390456
 50
201.4643656294655898
 51
221.1424545695618065
  0
ARC
  5
44FB9
  8
0
 10
2582.5388032981868491
 20
196.8430637238006113
 30
0.0
 40
5.4209990368486878
 50
219.1735953187869939
 51
239.7854318703934098
  0
ARC
  5
44FBA
  8
0
 10
2580.858623677002015
 20
194.2817332794340075
 30
0.0
 40
2.3677147863175398
 50
243.7319551135379925
 51
261.0310775528835165
  0
ARC
  5
44FBB
  8
0
 10
2580.8522777193797992
 20
194.1744504693550937
 30
0.0
 40
2.260778575058112
 50
260.7660637239519019
 51
269.4798848682106041
  0
ARC
  5
44FBC
  8
0
 10
2580.5208781895848915
 20
9.2110382576541667
 30
0.0
 40
193.3271282749394118
 50
89.9078824488159398
 51
90.436204969970106
  0
ARC
  5
44FBD
  8
0
 10
2579.1653022277610035
 20
187.2632984976818022
 30
0.0
 40
15.2697078657612106
 50
90.436204969970106
 51
98.4034772033682685
  0
ARC
  5
44FBE
  8
0
 10
2577.3802310714650048
 20
199.3467023017045108
 30
0.0
 40
3.0551621712169261
 50
98.4034772033682685
 51
123.3510649382005937
  0
ARC
  5
44FBF
  8
0
 10
2576.6856131442618789
 20
200.4021059818985009
 30
0.0
 40
1.7916864124633061
 50
123.3510649382015032
 51
150.3670306870203888
  0
ARC
  5
44FC0
  8
0
 10
2575.9739705229571882
 20
200.8069170794657907
 30
0.0
 40
0.9729634769280611
 50
150.3670306870203888
 51
175.6277085543586054
  0
ARC
  5
44FC1
  8
0
 10
2580.3720579293521951
 20
155.2693767731809942
 30
0.0
 40
46.8755347186416387
 50
89.4381047477406668
 51
92.0586826136079566
  0
ARC
  5
44FC2
  8
0
 10
2579.0725922249830546
 20
191.4196102767110972
 30
0.0
 40
10.7019532885899302
 50
92.0586826136079566
 51
100.6268359828965941
  0
ARC
  5
44FC3
  8
0
 10
2577.6453647958478541
 20
199.0262266860918885
 30
0.0
 40
2.9625998702520659
 50
100.6268359828965941
 51
123.0886909250797032
  0
ARC
  5
44FC4
  8
0
 10
2576.7362344443981783
 20
200.586081405709109
 30
0.0
 40
1.1628640764655751
 50
127.5220228967019978
 51
179.013219540941293
  0
ARC
  5
44FC5
  8
0
 10
2580.8400832391607764
 20
194.2512564441381926
 30
0.0
 40
2.043323438838847
 50
228.8249963007899055
 51
269.7664794231299084
  0
ARC
  5
44FC6
  8
0
 10
2586.0737630948688093
 20
200.1668588715423027
 30
0.0
 40
9.9417628043934645
 50
213.7308157727607067
 51
228.5668091532421045
  0
ARC
  5
44FC7
  8
0
 10
2587.6704381910349184
 20
201.2318883263666862
 30
0.0
 40
11.8610487260289705
 50
199.1800816466603123
 51
213.7265508661459137
  0
ARC
  5
44FC8
  8
0
 10
2612.9180096383770433
 20
210.0159903704578142
 30
0.0
 40
38.5930578501801875
 50
195.091937515539513
 51
199.1826164495680018
  0
ARC
  5
44FC9
  8
0
 10
2577.9671882208322131
 20
200.5908110263802939
 30
0.0
 40
2.3936942724996619
 50
179.6338490286898946
 51
195.091937515539513
  0
LINE
  5
44FCA
  8
0
 10
2574.4827295340342062
 20
206.7454732701901037
 30
0.0
 11
2587.1806326643240936
 21
206.7454732701901037
 31
0.0
  0
ARC
  5
44FCB
  8
0
 10
2587.1805803622428357
 20
206.5953538904998936
 30
0.0
 40
0.1501194654328819
 50
0.0455932074540009
 51
89.9807288120858146
  0
ARC
  5
44FCC
  8
0
 10
2580.8315374420290027
 20
201.9768529912115014
 30
0.0
 40
1.131668593151246
 50
171.6977535384046973
 51
203.4190360783468918
  0
ARC
  5
44FCD
  8
0
 10
2580.8318743138738682
 20
201.9769989015773035
 30
0.0
 40
1.1320357068590889
 50
203.4190360783468918
 51
234.6641667903047903
  0
ARC
  5
44FCE
  8
0
 10
2580.8317158068589379
 20
201.9767753305671079
 30
0.0
 40
1.1317616476133641
 50
234.6641667863104885
 51
270.0019984853839787
  0
ARC
  5
44FEF
  8
0
 10
2563.5384379199308569
 20
205.7339683465164057
 30
0.0
 40
23.6545053582590405
 50
338.5336348200356156
 51
350.7223940693875761
  0
ARC
  5
44FF0
  8
0
 10
2573.8916862705341373
 20
201.6622647017840109
 30
0.0
 40
12.5293751739045707
 50
318.857545430438222
 51
338.5356343705344102
  0
ARC
  5
44FF1
  8
0
 10
2579.1247072675641903
 20
196.8430637238006113
 30
0.0
 40
5.4209990368486878
 50
300.2145681296066186
 51
320.8264046812129777
  0
ARC
  5
44FF2
  8
0
 10
2580.8048868887490244
 20
194.2817332794340075
 30
0.0
 40
2.3677147863175398
 50
278.9689224471164835
 51
296.2680448864618938
  0
ARC
  5
44FF3
  8
0
 10
2580.8112328463698759
 20
194.1744504693550937
 30
0.0
 40
2.2607785750581648
 50
270.5201151317893959
 51
279.2339362760480981
  0
ARC
  5
44FF4
  8
0
 10
2581.1426323761661479
 20
9.2110382576541667
 30
0.0
 40
193.3271282749394118
 50
89.563795030029894
 51
90.092117551184046
  0
ARC
  5
44FF5
  8
0
 10
2582.4982083379900359
 20
187.2632984976818022
 30
0.0
 40
15.2697078657612106
 50
81.5965227966317315
 51
89.563795030029894
  0
ARC
  5
44FF6
  8
0
 10
2584.2832794942860346
 20
199.3467023017045108
 30
0.0
 40
3.0551621712169261
 50
56.6489350617993566
 51
81.5965227966317315
  0
ARC
  5
44FF7
  8
0
 10
2584.9778974214877962
 20
200.4021059818985009
 30
0.0
 40
1.7916864124633061
 50
29.6329693129795615
 51
56.6489350617984471
  0
ARC
  5
44FF8
  8
0
 10
2585.6897897288208696
 20
200.8070142032389924
 30
0.0
 40
0.9726984258957134
 50
4.361001208540177
 51
29.6352685861224607
  0
ARC
  5
44FF9
  8
0
 10
2581.2914526363979348
 20
155.2693767731809942
 30
0.0
 40
46.8755347186416387
 50
87.9413173863920576
 51
90.5618952522593474
  0
ARC
  5
44FFA
  8
0
 10
2582.5909183407679848
 20
191.4196102767110972
 30
0.0
 40
10.7019532885899302
 50
79.3731640171033348
 51
87.9413173863920576
  0
ARC
  5
44FFB
  8
0
 10
2584.0181457699031853
 20
199.0262266860918885
 30
0.0
 40
2.9625998702520659
 50
56.9113090749202613
 51
79.3731640171033348
  0
ARC
  5
44FFC
  8
0
 10
2584.9272761213528611
 20
200.586081405709109
 30
0.0
 40
1.1628640764655751
 50
0.9867804590586748
 51
52.4779771032980094
  0
ARC
  5
44FFD
  8
0
 10
2580.8234273265898082
 20
194.2512564441381926
 30
0.0
 40
2.0433234388388399
 50
270.2335205768700916
 51
311.1750036992102082
  0
ARC
  5
44FFE
  8
0
 10
2575.5897474708817754
 20
200.1668588715423027
 30
0.0
 40
9.9417628043934645
 50
311.4331908467577819
 51
326.2691842272392933
  0
ARC
  5
44FFF
  8
0
 10
2573.993072374716121
 20
201.2318883263666862
 30
0.0
 40
11.8610487260290007
 50
326.273449133854001
 51
340.8199183533396877
  0
ARC
  5
45000
  8
0
 10
2548.7455009273739961
 20
210.0159903704578142
 30
0.0
 40
38.5930578501801875
 50
340.8173835504319982
 51
344.9080624844605154
  0
ARC
  5
45001
  8
0
 10
2583.6963223449179168
 20
200.5908110263802939
 30
0.0
 40
2.3936942724996619
 50
344.9080624844605154
 51
0.3661509713117126
  0
ARC
  5
45008
  8
0
 10
2580.8319672229899879
 20
201.9768529912115014
 30
0.0
 40
1.131668593151246
 50
336.5809639216532219
 51
8.3022464615952991
  0
ARC
  5
45009
  8
0
 10
2580.8316303511451224
 20
201.9769989015773035
 30
0.0
 40
1.1320357068590889
 50
305.3358332096951813
 51
336.5809639216532219
  0
ARC
  5
4500A
  8
0
 10
2580.8317888590700022
 20
201.9767753287389098
 30
0.0
 40
1.1317616455947861
 50
269.9983001948510832
 51
305.3358332295874789
  0
LINE
  5
4500B
  8
0
 10
2584.5443550378759028
 20
206.7454733474413899
 30
0.0
 11
2584.5858721292738664
 21
206.2196817072891974
 31
0.0
  0
ARC
  5
4500C
  8
0
 10
2584.6643679618750866
 20
206.2258798253413943
 30
0.0
 40
0.0787401575000004
 50
184.5147709000709995
 51
270.0
  0
LINE
  5
4500D
  8
0
 10
2584.6643679618750866
 20
206.147139667841401
 30
0.0
 11
2586.9991452635758833
 21
206.147139667841401
 31
0.0
  0
ARC
  5
4500E
  8
0
 10
2586.9991452635758833
 20
206.2258798253022007
 30
0.0
 40
0.0787401574607785
 50
270.0
 51
355.4860115758655184
  0
LINE
  5
4500F
  8
0
 10
2587.0776411807760269
 20
206.2196827792541001
 30
0.0
 11
2587.1191581874750227
 21
206.7454732701901037
 31
0.0
  0
ARC
  5
45010
  8
0
 10
2544.0946693780938404
 20
208.3735624341987034
 30
0.0
 40
43.2725770635931113
 50
351.4085884243477835
 51
357.6450283866802806
  0
LINE
  5
45011
  8
0
 10
2585.0305755103750016
 20
206.0369034474414036
 30
0.0
 11
2586.6329377150750588
 21
206.0369034474414036
 31
0.0
  0
LINE
  5
45012
  8
0
 10
2586.6329377150750588
 20
206.0369034474414036
 30
0.0
 11
2586.6329377150750588
 21
205.4857223450416086
 31
0.0
  0
ARC
  5
45013
  8
0
 10
2586.6723077786791691
 20
205.4857223450416086
 30
0.0
 40
0.0393700636036645
 50
180.0000000000015916
 51
242.3462088386309858
  0
ARC
  5
45014
  8
0
 10
2586.6075142811869227
 20
205.3620667092029066
 30
0.0
 40
0.1002326354816741
 50
0.6296286234378269
 51
62.3462088386302185
  0
LINE
  5
45015
  8
0
 10
2586.7077408646750882
 20
205.3631681527413946
 30
0.0
 11
2586.7077408646750882
 21
202.8253153430013924
 31
0.0
  0
ARC
  5
45016
  8
0
 10
2586.5577407924020008
 20
202.825162243674697
 30
0.0
 40
0.1500001504044851
 50
275.5076291197220826
 51
0.0584795866330915
  0
ARC
  5
45017
  8
0
 10
2585.8117276192779173
 20
259.3772604654394058
 30
0.0
 40
56.7065045004980419
 50
269.2848529254027881
 51
270.7683348845459932
  0
ARC
  5
45018
  8
0
 10
2585.1057723606750187
 20
202.8251620995413873
 30
0.0
 40
0.1499999999999968
 50
179.9999999999951115
 51
269.3054431026085922
  0
LINE
  5
45019
  8
0
 10
2584.9557723606758373
 20
202.8251620995413873
 30
0.0
 11
2584.9557723606758373
 21
203.5369034474414036
 31
0.0
  0
LINE
  5
4501A
  8
0
 10
2585.0305755103750016
 20
206.0369034474414036
 30
0.0
 11
2585.0305755103750016
 21
205.4857223477413868
 31
0.0
  0
ARC
  5
4501B
  8
0
 10
2584.9912054279579934
 20
205.4857223477413868
 30
0.0
 40
0.0393700824176371
 50
287.8693984428642807
 51
0.0
  0
ARC
  5
4501C
  8
0
 10
2585.0334876206061381
 20
205.3545747112787865
 30
0.0
 40
0.0984250059015613
 50
107.8693984428642949
 51
155.1359451621551955
  0
ARC
  5
4501D
  8
0
 10
2584.830772545722084
 20
205.4485173833209899
 30
0.0
 40
0.1249997626797081
 50
269.9999247604678771
 51
335.1359451621552239
  0
LINE
  5
4501E
  8
0
 10
2584.830772381575116
 20
205.323517620641411
 30
0.0
 11
2584.5030164551758389
 21
205.3235180510430951
 31
0.0
  0
LINE
  5
4501F
  8
0
 10
2584.5030164551758389
 20
205.3235180510430951
 30
0.0
 11
2584.4282133055749
 21
205.24871447104141
 31
0.0
  0
LINE
  5
45020
  8
0
 10
2584.4282133055749
 20
205.24871447104141
 30
0.0
 11
2584.4282133055749
 21
203.7250924237413869
 31
0.0
  0
LINE
  5
45021
  8
0
 10
2584.4282133055749
 20
203.7250924237413869
 30
0.0
 11
2584.5030164551758389
 21
203.6502892741413859
 31
0.0
  0
LINE
  5
45022
  8
0
 10
2584.5030164551758389
 20
203.6502892741413859
 30
0.0
 11
2584.8307722526751604
 21
203.6502892758414021
 31
0.0
  0
ARC
  5
45023
  8
0
 10
2584.8303703882170339
 20
203.5242513058111911
 30
0.0
 40
0.1260386106888968
 50
5.7612292909104053
 51
89.8173164849210224
  0
LINE
  5
45024
  8
0
 10
2584.4282133055749
 20
205.24871447104141
 30
0.0
 11
2584.3494731480750488
 21
205.24871447104141
 31
0.0
  0
LINE
  5
45025
  8
0
 10
2584.3494731480750488
 20
205.24871447104141
 30
0.0
 11
2584.3238825969751815
 21
205.274305022241407
 31
0.0
  0
LINE
  5
45026
  8
0
 10
2584.3199810563751271
 20
205.3727302190413866
 30
0.0
 11
2584.3238825969751815
 21
205.3619034474413922
 31
0.0
  0
LINE
  5
45027
  8
0
 10
2584.3238825969751815
 20
205.3619034474413922
 30
0.0
 11
2584.3238825969751815
 21
203.6119034474413922
 31
0.0
  0
LINE
  5
45028
  8
0
 10
2584.3238825969751815
 20
203.6119034474413922
 30
0.0
 11
2584.3199810575752053
 21
203.6010766757414103
 31
0.0
  0
LINE
  5
45029
  8
0
 10
2584.3199810575752053
 20
203.6010766757414103
 30
0.0
 11
2583.7784455116529898
 21
203.6010766756986072
 31
0.0
  0
ARC
  5
4502A
  8
0
 10
2583.9104967701750866
 20
203.640446754441399
 30
0.0
 40
0.1377952756000509
 50
180.0000000000032117
 51
196.601549599003107
  0
LINE
  5
4502B
  8
0
 10
2583.7727014945758128
 20
203.640446754441399
 30
0.0
 11
2583.7727014945758128
 21
205.3333601403413979
 31
0.0
  0
ARC
  5
4502C
  8
0
 10
2583.9104978556570131
 20
205.3333601076321884
 30
0.0
 40
0.1377963610816909
 50
163.398570792143687
 51
179.9999863995157909
  0
LINE
  5
4502D
  8
0
 10
2583.7784454741749869
 20
205.3727302190413866
 30
0.0
 11
2584.3199810575752053
 21
205.3727302190413866
 31
0.0
  0
LINE
  5
4502E
  8
0
 10
2584.2845125181761432
 20
205.3727302190413866
 30
0.0
 11
2584.2845125181761432
 21
205.3013638034414043
 31
0.0
  0
ARC
  5
4502F
  8
0
 10
2582.3561960299311977
 20
204.9298168331914098
 30
0.0
 40
1.9637850264066219
 50
349.0939335670541936
 51
10.9060664329457992
  0
LINE
  5
45030
  8
0
 10
2584.2845125181761432
 20
204.5582698629413869
 30
0.0
 11
2584.2845125181761432
 21
204.41553703184141
 31
0.0
  0
ARC
  5
45031
  8
0
 10
2582.3561960299311977
 20
204.0439900615913871
 30
0.0
 40
1.963785026406579
 50
349.0939335670541936
 51
10.9060664329426107
  0
LINE
  5
45032
  8
0
 10
2584.2845125181761432
 20
203.6724430913413926
 30
0.0
 11
2584.2845125181761432
 21
203.6010766757385966
 31
0.0
  0
LINE
  5
45033
  8
0
 10
2583.9104967701750866
 20
203.6010766757090096
 30
0.0
 11
2583.9104967701750866
 21
203.6724430913413926
 31
0.0
  0
LINE
  5
45034
  8
0
 10
2584.4282133055749
 20
203.7250924237413869
 30
0.0
 11
2584.3494731480750488
 21
203.7250924237413869
 31
0.0
  0
LINE
  5
45035
  8
0
 10
2584.3494731480750488
 20
203.7250924237413869
 30
0.0
 11
2584.3238825969751815
 21
203.699501872641406
 31
0.0
  0
LINE
  5
45036
  8
0
 10
2584.3494731480750488
 20
203.7250924237413869
 30
0.0
 11
2584.3494731480750488
 21
205.24871447104141
 31
0.0
  0
LINE
  5
45037
  8
0
 10
2584.2845125181761432
 20
205.3013638034414043
 30
0.0
 11
2583.9104967701750866
 21
205.3013638034414043
 31
0.0
  0
ARC
  5
45038
  8
0
 10
2583.9104967701750866
 20
205.2262169132208953
 30
0.0
 40
0.0751468902205232
 50
90.0
 51
131.8377106263384917
  0
ARC
  5
45039
  8
0
 10
2583.9732952238268808
 20
205.1560736318292015
 30
0.0
 40
0.1692942518692389
 50
131.8377106263374117
 51
151.185481464480489
  0
ARC
  5
4503A
  8
0
 10
2584.0633692230449014
 20
205.1065253049355022
 30
0.0
 40
0.2720967909097034
 50
151.1854814644790963
 51
171.7577317533996109
  0
ARC
  5
4503B
  8
0
 10
2585.2924039623007957
 20
204.9284930836369938
 30
0.0
 40
1.5139590466039621
 50
171.7577317533996109
 51
179.9499025991850942
  0
ARC
  5
4503C
  8
0
 10
2585.1795589320558975
 20
204.9285917513608979
 30
0.0
 40
1.4011139732232121
 50
179.9499025991850942
 51
189.4745135955915885
  0
ARC
  5
4503D
  8
0
 10
2584.0233095561638947
 20
204.7356306524299043
 30
0.0
 40
0.2288739786181323
 50
189.4745135955915885
 51
216.3109153417412074
  0
ARC
  5
4503E
  8
0
 10
2583.9230157322690502
 20
204.6619280935387906
 30
0.0
 40
0.1044114609727883
 50
216.3109153417412074
 51
263.1136532334239746
  0
LINE
  5
4503F
  8
0
 10
2583.9104967701750866
 20
204.5582698629413869
 30
0.0
 11
2584.2845125181761432
 21
204.5582698629413869
 31
0.0
  0
LINE
  5
45040
  8
0
 10
2584.2845125181761432
 20
204.41553703184141
 30
0.0
 11
2583.9104967701750866
 21
204.41553703184141
 31
0.0
  0
ARC
  5
45041
  8
0
 10
2583.9104967701750866
 20
204.3366860717121938
 30
0.0
 40
0.078850960129202
 50
90.0
 51
142.7440065141933871
  0
ARC
  5
45042
  8
0
 10
2584.069601955925009
 20
204.2156734078533873
 30
0.0
 40
0.278747245604017
 50
142.7440065141933871
 51
169.0587900753658914
  0
ARC
  5
45043
  8
0
 10
2584.7238630787110196
 20
204.0891944794967969
 30
0.0
 40
0.9451214168532533
 50
169.0587900753675115
 51
180.4474163565797085
  0
ARC
  5
45044
  8
0
 10
2586.1247588544902101
 20
204.1001341408426129
 30
0.0
 40
2.3460599061467708
 50
180.4474163565797085
 51
186.7756733088282886
  0
ARC
  5
45045
  8
0
 10
2584.0152933562799262
 20
203.8495039367666095
 30
0.0
 40
0.2217576236701527
 50
186.7756733088282886
 51
223.7425788608605046
  0
ARC
  5
45046
  8
0
 10
2583.9106489123219035
 20
203.7493546462584106
 30
0.0
 40
0.0769117053964012
 50
223.7425788608605046
 51
269.8866608340567268
  0
LINE
  5
45047
  8
0
 10
2583.9104967701750866
 20
203.6724430913413926
 30
0.0
 11
2584.2845125181761432
 21
203.6724430913413926
 31
0.0
  0
LINE
  5
45048
  8
0
 10
2583.9104967701750866
 20
204.5582698629413869
 30
0.0
 11
2583.9104967701750866
 21
204.41553703184141
 31
0.0
  0
LINE
  5
45049
  8
0
 10
2583.9104967701750866
 20
205.3013638034414043
 30
0.0
 11
2583.9104967701750866
 21
205.3727302190413866
 31
0.0
  0
CIRCLE
  5
4504A
  8
0
 10
2580.8317566126747806
 20
204.4869034474413922
 30
0.0
 40
1.2598425196999989
  0
ARC
  5
4504B
  8
0
 10
2581.9538673163178828
 20
205.3543078390702021
 30
0.0
 40
0.1587431499779562
 50
221.0468490370901122
 51
269.9147659249613866
  0
LINE
  5
4504C
  8
0
 10
2581.9536311676752121
 20
205.1955648647414137
 30
0.0
 11
2582.3160081802047898
 21
205.1955648647414137
 31
0.0
  0
ARC
  5
4504D
  8
0
 10
2582.3160085801268906
 20
205.1758798228260048
 30
0.0
 40
0.0196850419194677
 50
0.0225274114381996
 51
90.0011640251093041
  0
LINE
  5
4504E
  8
0
 10
2582.3356936205250349
 20
205.1758875625413907
 30
0.0
 11
2582.3356936205250349
 21
203.7979271759521964
 31
0.0
  0
ARC
  5
4504F
  8
0
 10
2582.3160085812100988
 20
203.7979270693568878
 30
0.0
 40
0.0196850393154833
 50
269.9999998979420752
 51
0.0003102590352185
  0
LINE
  5
45050
  8
0
 10
2582.3160085811750832
 20
203.7782420300414117
 30
0.0
 11
2581.9536311676752121
 21
203.7782420300414117
 31
0.0
  0
ARC
  5
45051
  8
0
 10
2581.9536311676752121
 20
203.6198487125222982
 30
0.0
 40
0.1583933175191774
 50
90.0
 51
138.6852712354192931
  0
LINE
  5
45052
  8
0
 10
2583.7727014945758128
 20
205.1443837623413913
 30
0.0
 11
2582.3356936205250349
 21
205.1443837623413913
 31
0.0
  0
LINE
  5
45053
  8
0
 10
2583.7727014945758128
 20
203.8294231324414056
 30
0.0
 11
2582.3356936205250349
 21
203.8294231324414056
 31
0.0
  0
LINE
  5
45054
  8
0
 10
2584.5030164551758389
 20
205.3235180510430951
 30
0.0
 11
2584.5030164551758389
 21
203.6502892741413859
 31
0.0
  0
ARC
  5
45055
  8
0
 10
2575.5109879941628606
 20
194.9509606539724018
 30
0.0
 40
13.9444728159323699
 50
45.5274853851122785
 51
48.0601769002729
  0
ARC
  5
45056
  8
0
 10
2583.7899282234761813
 20
203.3837594612625992
 30
0.0
 40
2.1269880139632211
 50
37.7220139783623907
 51
45.5274853851122785
  0
ARC
  5
45057
  8
0
 10
2585.1529452902591402
 20
204.438055538842093
 30
0.0
 40
0.4038061478964082
 50
6.9480161145033819
 51
37.7220139783623907
  0
ARC
  5
45058
  8
0
 10
2579.6804195420040742
 20
209.5664703566600053
 30
0.0
 40
7.8439359778973916
 50
311.0413178515206027
 51
316.6723104802862849
  0
ARC
  5
45059
  8
0
 10
2584.7477045690438899
 20
204.7866768440111969
 30
0.0
 40
0.8780330523020461
 50
316.6723104802862849
 51
334.1300402121431148
  0
ARC
  5
4505A
  8
0
 10
2585.3176267202629788
 20
204.4891363067904138
 30
0.0
 40
0.2361682802068978
 50
338.7564202594218159
 51
359.4611891319531196
  0
LINE
  5
4505B
  8
0
 10
2585.1429835392750647
 20
206.0369034474414036
 30
0.0
 11
2585.142983573075071
 21
205.4857223450414097
 31
0.0
  0
ARC
  5
4505C
  8
0
 10
2585.151600207499996
 20
205.4857223455697977
 30
0.0
 40
0.0086166344248966
 50
180.0000035135356029
 51
238.9935311688456068
  0
ARC
  5
4505D
  8
0
 10
2585.4375305564039991
 20
206.9902150684434901
 30
0.0
 40
1.539509547896817
 50
259.1282408228178156
 51
280.1297476140671847
  0
ARC
  5
4505E
  8
0
 10
2585.69274467426294
 20
205.5013545614048951
 30
0.0
 40
0.0308566688364073
 50
300.2644572680329134
 51
329.5618993755028896
  0
LINE
  5
4505F
  8
0
 10
2585.7193485836751279
 20
205.4857223505669879
 30
0.0
 11
2585.7193485836751279
 21
206.0369034474414036
 31
0.0
  0
LINE
  5
45060
  8
0
 10
2586.5205296861759052
 20
206.0369034474414036
 30
0.0
 11
2586.5205296523749894
 21
205.4857223450414097
 31
0.0
  0
ARC
  5
45061
  8
0
 10
2586.5119130179509739
 20
205.4857223455697977
 30
0.0
 40
0.0086166344248966
 50
301.0064688311543932
 51
359.9999964864643971
  0
ARC
  5
45062
  8
0
 10
2586.2259826690469708
 20
206.9902150684434901
 30
0.0
 40
1.539509547896817
 50
259.8702523859328153
 51
280.8717591771821844
  0
ARC
  5
45063
  8
0
 10
2585.9707685511871205
 20
205.5013545614048951
 30
0.0
 40
0.0308566688364073
 50
210.4381006244971104
 51
239.7355427319670866
  0
LINE
  5
45064
  8
0
 10
2585.9441646417749325
 20
205.4857223505669879
 30
0.0
 11
2585.9441646417749325
 21
206.0369034474414036
 31
0.0
  0
LINE
  5
45065
  8
0
 10
2585.2687644866750816
 20
206.0369034474414036
 30
0.0
 11
2585.2687644866750816
 21
206.147139667841401
 31
0.0
  0
LINE
  5
45066
  8
0
 10
2586.3947487386749344
 20
206.0369034474414036
 30
0.0
 11
2586.3947487386749344
 21
206.147139667841401
 31
0.0
  0
LINE
  5
45067
  8
0
 10
2579.6762347411658993
 20
204.9888719513413946
 30
0.0
 11
2579.3258511008762071
 21
204.9888719513413946
 31
0.0
  0
ARC
  5
45068
  8
0
 10
2579.3258511009457834
 20
204.9691869118483964
 30
0.0
 40
0.0196850394930905
 50
90.0000002058092718
 51
180.0027313511465934
  0
ARC
  5
45069
  8
0
 10
2579.3258511009457834
 20
204.0046199829345142
 30
0.0
 40
0.0196850394930763
 50
179.9972686488127067
 51
269.9999997941907282
  0
LINE
  5
4506A
  8
0
 10
2579.3258511008762071
 20
203.9849349434414023
 30
0.0
 11
2579.6762347412100098
 21
203.9849349434414023
 31
0.0
  0
ARC
  5
4506B
  8
0
 10
2579.3153257126377866
 20
204.6858102238458059
 30
0.0
 40
0.0106122792966642
 50
110.9121114975869062
 51
149.6685143179398096
  0
ARC
  5
4506C
  8
0
 10
2579.3256268351269682
 20
204.6588513515847012
 30
0.0
 40
0.0394721808577216
 50
89.6744656678514644
 51
110.9121114975874036
  0
LINE
  5
4506D
  8
0
 10
2579.3258511008762071
 20
204.6983228953413914
 30
0.0
 11
2579.4833314158759094
 21
204.6983228953413914
 31
0.0
  0
ARC
  5
4506E
  8
0
 10
2579.2007339114597926
 20
204.4641451658598044
 30
0.0
 40
0.3670158270304367
 50
34.5776404640376001
 51
39.6472403999250531
  0
ARC
  5
4506F
  8
0
 10
2579.3257337485838434
 20
204.3118885677419883
 30
0.0
 40
0.0364047574460774
 50
237.4861429567810944
 51
270.1846957126879261
  0
LINE
  5
45070
  8
0
 10
2579.3258511008762071
 20
204.2754839994414056
 30
0.0
 11
2579.4833314835750571
 21
204.2754839543414107
 31
0.0
  0
ARC
  5
45071
  8
0
 10
2579.1956553588520364
 20
204.5135054991444008
 30
0.0
 40
0.3733788552866633
 50
320.3958364888155756
 51
325.3787361291924753
  0
ARC
  5
45072
  8
0
 10
2579.4079053866071263
 20
204.3567427867380104
 30
0.0
 40
0.109970655009405
 50
329.7669898637992105
 51
351.750206675001607
  0
ARC
  5
45073
  8
0
 10
2576.772696466141042
 20
204.5261827460801101
 30
0.0
 40
2.7502855342183561
 50
356.1384604095993041
 51
359.1816796718968021
  0
ARC
  5
45074
  8
0
 10
2577.7490687471899946
 20
204.5122368739058061
 30
0.0
 40
1.7738136613256901
 50
359.1816796718968021
 51
2.819043568481137
  0
ARC
  5
45075
  8
0
 10
2579.2836142414289498
 20
204.587799939375401
 30
0.0
 40
0.2374088804314727
 50
2.819043568481137
 51
15.39432334269328
  0
ARC
  5
45076
  8
0
 10
2579.4356266631930339
 20
204.6296549332409995
 30
0.0
 40
0.0797395527807549
 50
15.3943233426948503
 51
32.4453509707680894
  0
LINE
  5
45077
  8
0
 10
2579.3061660614757784
 20
204.7644625025413916
 30
0.0
 11
2579.1004382279747915
 21
204.7644625025413916
 31
0.0
  0
ARC
  5
45078
  8
0
 10
2579.1004382279747915
 20
204.7565884868025989
 30
0.0
 40
0.0078740157388637
 50
90.0
 51
178.4286419475872094
  0
ARC
  5
45079
  8
0
 10
2589.3868595412741342
 20
204.4869034473913985
 30
0.0
 40
10.2978299600507892
 50
178.4981343642639899
 51
181.5018656357358964
  0
ARC
  5
4507A
  8
0
 10
2579.1004382279747915
 20
204.2172184079803117
 30
0.0
 40
0.0078740157388639
 50
181.5713580524111137
 51
270.0
  0
LINE
  5
4507B
  8
0
 10
2579.1004382279747915
 20
204.2093443922414053
 30
0.0
 11
2579.3061660614757784
 21
204.2093443922414053
 31
0.0
  0
LINE
  5
4507D
  8
0
 10
2586.6596719404810756
 20
200.880978540896507
 30
0.0
 11
2586.6596719404810756
 21
200.739555356900695
 31
0.0
  0
LINE
  5
4507E
  8
0
 10
2575.0038386252690543
 20
200.8810927393849113
 30
0.0
 11
2575.0038386252690543
 21
200.7395553569008086
 31
0.0
  0
LINE
  5
4507F
  8
0
 10
2579.3061660614757784
 20
204.9691869118483964
 30
0.0
 11
2579.3061660614757784
 21
204.0046199829345142
 31
0.0
  0
ENDSEC
  0
EOF
