  0
SECTION
  2
HEADER
  9
$ACADVER
  1
AC1009
  9
$INSBASE
 10
3126.3494824837130182
 20
207.3783245563741957
 30
0.0
  9
$EXTMIN
 10
3123.0894869989069775
 20
198.2511113447887112
 30
0.0
  9
$EXTMAX
 10
3129.6094779683189699
 20
207.3833153667127078
 30
0.0
  9
$LIMMIN
 10
0.0
 20
0.0
  9
$LIMMAX
 10
11.6929133858000007
 20
8.2677165353999982
  9
$ORTHOMODE
 70
     0
  9
$REGENMODE
 70
     1
  9
$FILLMODE
 70
     1
  9
$QTEXTMODE
 70
     0
  9
$MIRRTEXT
 70
     0
  9
$DRAGMODE
 70
     2
  9
$LTSCALE
 40
0.6431102362
  9
$OSMODE
 70
  4095
  9
$ATTMODE
 70
     1
  9
$TEXTSIZE
 40
0.2
  9
$TRACEWID
 40
0.05
  9
$TEXTSTYLE
  7
STANDARD
  9
$CLAYER
  8
0
  9
$CELTYPE
  6
BYLAYER
  9
$CECOLOR
 62
   256
  9
$DIMSCALE
 40
1.0
  9
$DIMASZ
 40
0.1875
  9
$DIMEXO
 40
0.0625
  9
$DIMDLI
 40
0.4443307087
  9
$DIMRND
 40
0.0
  9
$DIMDLE
 40
0.0
  9
$DIMEXE
 40
0.125
  9
$DIMTP
 40
0.01
  9
$DIMTM
 40
0.01
  9
$DIMTXT
 40
2.0
  9
$DIMCEN
 40
0.1052362205
  9
$DIMTSZ
 40
0.0
  9
$DIMTOL
 70
     1
  9
$DIMLIM
 70
     0
  9
$DIMTIH
 70
     1
  9
$DIMTOH
 70
     1
  9
$DIMSE1
 70
     0
  9
$DIMSE2
 70
     0
  9
$DIMTAD
 70
     0
  9
$DIMZIN
 70
     0
  9
$DIMBLK
  1

  9
$DIMASO
 70
     1
  9
$DIMSHO
 70
     1
  9
$DIMPOST
  1
\X
  9
$DIMAPOST
  1

  9
$DIMALT
 70
     1
  9
$DIMALTD
 70
     2
  9
$DIMALTF
 40
25.3999999999999986
  9
$DIMLFAC
 40
1.0
  9
$DIMTOFL
 70
     0
  9
$DIMTVP
 40
0.0
  9
$DIMTIX
 70
     0
  9
$DIMSOXD
 70
     0
  9
$DIMSAH
 70
     0
  9
$DIMBLK1
  1

  9
$DIMBLK2
  1

  9
$DIMSTYLE
  2
STANDARD
  9
$DIMCLRD
 70
     0
  9
$DIMCLRE
 70
     0
  9
$DIMCLRT
 70
     0
  9
$DIMTFAC
 40
1.0
  9
$DIMGAP
 40
0.09
  9
$LUNITS
 70
     2
  9
$LUPREC
 70
     4
  9
$SKETCHINC
 40
0.1
  9
$FILLETRAD
 40
0.0
  9
$AUNITS
 70
     0
  9
$AUPREC
 70
     0
  9
$MENU
  1
.
  9
$ELEVATION
 40
0.0
  9
$PELEVATION
 40
0.0
  9
$THICKNESS
 40
0.0
  9
$LIMCHECK
 70
     0
  9
$BLIPMODE
 70
     0
  9
$CHAMFERA
 40
0.0
  9
$CHAMFERB
 40
0.0
  9
$SKPOLY
 70
     0
  9
$TDCREATE
 40
2458060.468368056230247
  9
$TDUPDATE
 40
2459212.5575925931334496
  9
$TDINDWG
 40
0.3184329861
  9
$TDUSRTIMER
 40
0.3184329861
  9
$USRTIMER
 70
     1
  9
$ANGBASE
 50
0.0
  9
$ANGDIR
 70
     0
  9
$PDMODE
 70
     0
  9
$PDSIZE
 40
0.3125
  9
$PLINEWID
 40
0.0
  9
$COORDS
 70
     1
  9
$SPLFRAME
 70
     0
  9
$SPLINETYPE
 70
     6
  9
$SPLINESEGS
 70
     8
  9
$ATTDIA
 70
     1
  9
$ATTREQ
 70
     1
  9
$HANDLING
 70
     1
  9
$HANDSEED
  5
93B5
  9
$SURFTAB1
 70
     6
  9
$SURFTAB2
 70
     6
  9
$SURFTYPE
 70
     6
  9
$SURFU
 70
     6
  9
$SURFV
 70
     6
  9
$UCSNAME
  2

  9
$UCSORG
 10
0.0
 20
0.0
 30
0.0
  9
$UCSXDIR
 10
1.0
 20
0.0
 30
0.0
  9
$UCSYDIR
 10
0.0
 20
1.0
 30
0.0
  9
$PUCSNAME
  2

  9
$PUCSORG
 10
0.0
 20
0.0
 30
0.0
  9
$PUCSXDIR
 10
1.0
 20
0.0
 30
0.0
  9
$PUCSYDIR
 10
0.0
 20
1.0
 30
0.0
  9
$USERI1
 70
     0
  9
$USERI2
 70
     0
  9
$USERI3
 70
     0
  9
$USERI4
 70
     0
  9
$USERI5
 70
     0
  9
$USERR1
 40
0.0
  9
$USERR2
 40
0.0
  9
$USERR3
 40
0.0
  9
$USERR4
 40
0.0
  9
$USERR5
 40
0.0
  9
$WORLDVIEW
 70
     1
  9
$SHADEDGE
 70
     3
  9
$SHADEDIF
 70
    70
  9
$TILEMODE
 70
     1
  9
$MAXACTVP
 70
    64
  9
$PLIMCHECK
 70
     0
  9
$PEXTMIN
 10
1.0000000000000000E+20
 20
1.0000000000000000E+20
 30
1.0000000000000000E+20
  9
$PEXTMAX
 10
-1.0000000000000000E+20
 20
-1.0000000000000000E+20
 30
-1.0000000000000000E+20
  9
$PLIMMIN
 10
0.0
 20
0.0
  9
$PLIMMAX
 10
12.0
 20
9.0
  9
$UNITMODE
 70
     0
  9
$VISRETAIN
 70
     1
  9
$PLINEGEN
 70
     0
  9
$PSLTSCALE
 70
     1
  0
ENDSEC
  0
SECTION
  2
TABLES
  0
TABLE
  2
VPORT
 70
     1
  0
VPORT
  2
*ACTIVE
 70
     0
 10
0.0
 20
0.0
 11
1.0
 21
1.0
 12
0.0
 22
0.0
 13
0.0
 23
0.0
 14
1.0
 24
1.0
 15
0.0
 25
0.0
 16
0.0
 26
0.0
 36
31.7940111790959712
 17
3126.3494824836129737
 27
202.8172133557505958
 37
0.0
 40
11.2208481203190704
 41
2.1186252771618621
 42
50.0
 43
0.0
 44
0.0
 50
0.0
 51
0.0
 71
     0
 72
   100
 73
     1
 74
     1
 75
     0
 76
     0
 77
     0
 78
     0
  0
ENDTAB
  0
TABLE
  2
LTYPE
 70
     2
  0
LTYPE
  2
CONTINUOUS
 70
     0
  3
Solid line
 72
    65
 73
     0
 40
0.0
  0
LTYPE
  2
PHANTOM2
 70
     0
  3
___ _ _ ___ _ _ ___ _ _ ___ _ _
 72
    65
 73
     6
 40
1.25
 49
0.625
 49
-0.125
 49
0.125
 49
-0.125
 49
0.125
 49
-0.125
  0
ENDTAB
  0
TABLE
  2
LAYER
 70
     2
  0
LAYER
  2
0
 70
     0
 62
   255
  6
CONTINUOUS
  0
LAYER
  2
DEFPOINTS
 70
     0
 62
     7
  6
CONTINUOUS
  0
ENDTAB
  0
TABLE
  2
STYLE
 70
     1
  0
STYLE
  2
STANDARD
 70
     0
 40
0.0
 41
0.8
 50
0.0
 71
     0
 42
0.2
  3
txt
  4

  0
ENDTAB
  0
TABLE
  2
VIEW
 70
     0
  0
ENDTAB
  0
TABLE
  2
UCS
 70
     0
  0
ENDTAB
  0
TABLE
  2
APPID
 70
     9
  0
APPID
  2
ACAD
 70
     0
  0
APPID
  2
ACAD_MLEADERVER
 70
     0
  0
APPID
  2
ACAD_EXEMPT_FROM_CAD_STANDARDS
 70
     0
  0
APPID
  2
ACAD_NAV_VCDISPLAY
 70
     0
  0
APPID
  2
ACAECLAYERSTANDARD
 70
     0
  0
APPID
  2
ACCMTRANSPARENCY
 70
     0
  0
APPID
  2
ACAD_DSTYLE_DIMJAG
 70
     0
  0
APPID
  2
ACAD_DSTYLE_DIMTALN
 70
     0
  0
APPID
  2
ACDBATTR
 70
     0
  0
ENDTAB
  0
TABLE
  2
DIMSTYLE
 70
     1
  0
DIMSTYLE
  2
STANDARD
 70
     0
  3

  4

  5

  6

  7

 40
1.0
 41
0.1875
 42
0.0625
 43
0.38
 44
0.125
 45
0.0
 46
0.0
 47
0.01
 48
0.01
140
0.15625
141
0.09
142
0.0
143
25.3999999999999986
144
1.0
145
0.0
146
1.0
147
0.09
 71
     1
 72
     0
 73
     1
 74
     1
 75
     0
 76
     0
 77
     0
 78
     4
170
     0
171
     2
172
     0
173
     0
174
     0
175
     0
176
     0
177
     0
178
     0
  0
ENDTAB
  0
ENDSEC
  0
SECTION
  2
BLOCKS
  0
BLOCK
  8
0
  2
$MODEL_SPACE
 70
     0
 10
0.0
 20
0.0
 30
0.0
  3
$MODEL_SPACE
  1

  0
ENDBLK
  5
21
  8
0
  0
BLOCK
 67
     1
  8
0
  2
$PAPER_SPACE
 70
     0
 10
0.0
 20
0.0
 30
0.0
  3
$PAPER_SPACE
  1

  0
ENDBLK
  5
1D
 67
     1
  8
0
  0
BLOCK
  8
0
  2
_FILLED
 70
     0
 10
0.0
 20
0.0
 30
0.0
  3
_FILLED
  1

  0
SOLID
  5
7321
  8
0
  6
BYBLOCK
 62
     0
 10
0.0
 20
0.0
 30
0.0
 11
-1.0
 21
0.1666666667
 31
0.0
 12
-1.0
 22
-0.1666666667
 32
0.0
 13
-1.0
 23
-0.1666666667
 33
0.0
  0
ENDBLK
  5
7322
  8
0
  6
BYBLOCK
 62
     0
  0
ENDSEC
  0
SECTION
  2
ENTITIES
  0
ATTDEF
  5
3930
  8
DEFPOINTS
 10
3126.3466534098220109
 20
207.3823153667125894
 30
0.0
 40
0.001
  1
K-TS6910-4G
  3

  2
MODELNUMBER
 70
     0
1001
ACDBATTR
1070
     0
1070
     1
  0
ATTDEF
  5
3931
  8
DEFPOINTS
 10
3126.3466534098220109
 20
207.3806487000458958
 30
0.0
 40
0.001
  1
TRITON
  3

  2
TRADENAME
 70
     0
1001
ACDBATTR
1070
     0
1070
     1
  0
ATTDEF
  5
3932
  8
DEFPOINTS
 10
3126.3466534098220109
 20
207.3789820333792022
 30
0.0
 40
0.001
  1
SHOWER TRIM
  3

  2
PRODUCT
 70
     0
1001
ACDBATTR
1070
     0
1070
     1
  0
LINE
  5
91FD
  8
0
 10
3125.8967225069131928
 20
201.3206478713487115
 30
0.0
 11
3125.8967225069131928
 21
201.7179082642487913
 31
0.0
  0
ARC
  5
91FE
  8
0
 10
3126.1454680657948302
 20
201.7145922972644883
 30
0.0
 40
0.2487676600773808
 50
143.8936793268289023
 51
179.2362490374362949
  0
ARC
  5
91FF
  8
0
 10
3126.1386576405229789
 20
201.7198126029902028
 30
0.0
 40
0.241942628283268
 50
180.4509817062171919
 51
211.4972669915123902
  0
ARC
  5
9200
  8
0
 10
3126.3057504559678819
 20
201.8655380277141944
 30
0.0
 40
0.4620325856262017
 50
216.085013472979
 51
256.1010816508896824
  0
ARC
  5
9201
  8
0
 10
3126.3642058306409126
 20
202.14666755394029
 30
0.0
 40
0.7490501376444518
 50
256.9261587744210829
 51
268.87372028874438
  0
ARC
  5
9202
  8
0
 10
3126.3546250229978796
 20
201.9746636497353052
 30
0.0
 40
0.5695815202693026
 50
230.8927997959640095
 51
269.4826907254752086
  0
ARC
  5
9203
  8
0
 10
3126.1631330741711281
 20
201.7196120790991927
 30
0.0
 40
0.2511826286850698
 50
150.5149930001954885
 51
228.0886769034011934
  0
ARC
  5
9204
  8
0
 10
3126.3143441343067934
 20
201.3653795798514921
 30
0.0
 40
0.4635907360302169
 50
210.8649299873870859
 51
251.1808124095296932
  0
ARC
  5
9205
  8
0
 10
3126.3631086321070143
 20
201.4419757278305951
 30
0.0
 40
0.552239433466824
 50
248.9548804158179109
 51
268.5861204553118
  0
ARC
  5
9206
  8
0
 10
3126.1256940053658582
 20
201.0216922170330918
 30
0.0
 40
0.4658401633576715
 50
119.4407817482914993
 51
176.9771158338294867
  0
ARC
  5
9207
  8
0
 10
3126.1283262269248553
 20
201.0851088515831009
 30
0.0
 40
0.4694346041065428
 50
184.7472571559540029
 51
245.2840895354200086
  0
ARC
  5
9208
  8
0
 10
3126.3692509010670619
 20
201.566467319220493
 30
0.0
 40
1.0075856317106351
 50
244.2838624713504885
 51
268.8758081432317795
  0
ARC
  5
9209
  8
0
 10
3126.3763104713470966
 20
201.1384804030003011
 30
0.0
 40
0.9556018910727505
 50
233.0385332251163106
 51
268.3912417145556901
  0
ARC
  5
920A
  8
0
 10
3126.0678028041638754
 20
200.6840337432954868
 30
0.0
 40
0.407859414959386
 50
181.5449250831588017
 51
229.2796064602518982
  0
ARC
  5
920B
  8
0
 10
3127.0932958280609455
 20
200.858072181428696
 30
0.0
 40
1.4450993170267079
 50
172.5174868245325115
 51
187.3565108526842948
  0
LINE
  5
920C
  8
0
 10
3126.8022424604141634
 20
201.3206478713487115
 30
0.0
 11
3126.8022424604141634
 21
201.7179082642487913
 31
0.0
  0
ARC
  5
920D
  8
0
 10
3126.5534969015320712
 20
201.7145922972644883
 30
0.0
 40
0.2487676600773808
 50
0.7637509625637194
 51
36.1063207123563714
  0
ARC
  5
920E
  8
0
 10
3126.5603073268039225
 20
201.7198126029902028
 30
0.0
 40
0.241942628283268
 50
328.5027330084861887
 51
359.5490182937812165
  0
ARC
  5
920F
  8
0
 10
3126.3932145113590195
 20
201.8655380277141944
 30
0.0
 40
0.4620325856262017
 50
283.8989183491103176
 51
323.9149865270209148
  0
ARC
  5
9210
  8
0
 10
3126.3347591366859888
 20
202.14666755394029
 30
0.0
 40
0.7490501376444518
 50
271.12627971125562
 51
283.0738412255789171
  0
ARC
  5
9211
  8
0
 10
3126.3443399443290218
 20
201.9746636497353052
 30
0.0
 40
0.5695815202693026
 50
270.5173092745247914
 51
309.1072002040369853
  0
ARC
  5
9212
  8
0
 10
3126.5358318931557733
 20
201.7196120790991927
 30
0.0
 40
0.2511826286850698
 50
311.9113230965988919
 51
29.485007046264279
  0
ARC
  5
9213
  8
0
 10
3126.384620833020108
 20
201.3653795798514921
 30
0.0
 40
0.4635907360302169
 50
288.8191875904702215
 51
329.135070012611493
  0
ARC
  5
9214
  8
0
 10
3126.3358563352198871
 20
201.4419757278305951
 30
0.0
 40
0.552239433466824
 50
271.4138795446880863
 51
291.0451195841815775
  0
ARC
  5
9215
  8
0
 10
3126.5732709619610432
 20
201.0216922170330918
 30
0.0
 40
0.4658401633576715
 50
3.0228841661688821
 51
60.559218251708451
  0
ARC
  5
9216
  8
0
 10
3126.5706387404011366
 20
201.0851088515831009
 30
0.0
 40
0.4694346041065428
 50
294.7159104645800198
 51
355.2527428440458834
  0
ARC
  5
9217
  8
0
 10
3126.32971406625893
 20
201.566467319220493
 30
0.0
 40
1.0075856317106351
 50
271.1241918567681068
 51
295.7161375286494263
  0
ARC
  5
9218
  8
0
 10
3126.3226544959798048
 20
201.1384804030003011
 30
0.0
 40
0.9556018910727505
 50
271.6087582854444236
 51
306.9614667748837178
  0
ARC
  5
9219
  8
0
 10
3126.631162163163026
 20
200.6840337432954868
 30
0.0
 40
0.407859414959386
 50
310.7203935397479881
 51
358.4550749168412267
  0
ARC
  5
921A
  8
0
 10
3125.6056691392650464
 20
200.858072181428696
 30
0.0
 40
1.4450993170267079
 50
352.6434891473157904
 51
7.4825131754674974
  0
ARC
  5
921B
  8
0
 10
3126.3641248599001301
 20
201.4541219974169906
 30
0.0
 40
0.992587645061828
 50
245.1170050767541966
 51
269.1547579750745172
  0
ARC
  5
921C
  8
0
 10
3126.2193693721060299
 20
201.1035997616008046
 30
0.0
 40
0.6139094891643156
 50
222.7746579182218056
 51
243.6076608149593881
  0
ARC
  5
921D
  8
0
 10
3126.082469784983914
 20
200.9764968216481122
 30
0.0
 40
0.4271034374311546
 50
200.5718807055608011
 51
222.7308427847605969
  0
ARC
  5
921E
  8
0
 10
3126.2968343177021779
 20
200.999197442721794
 30
0.0
 40
0.638070129745111
 50
175.7703177372677033
 51
195.7107372158803003
  0
ARC
  5
921F
  8
0
 10
3126.3776820073499039
 20
201.4519811719617906
 30
0.0
 40
1.192504020189302
 50
256.7217690239575063
 51
268.644837271390486
  0
ARC
  5
9220
  8
0
 10
3126.2754522878849457
 20
200.9939745234113957
 30
0.0
 40
0.7232839536710399
 50
228.0036492887979023
 51
256.2703730836312275
  0
ARC
  5
9221
  8
0
 10
3126.099971692600775
 20
200.7946228716785981
 30
0.0
 40
0.457726800446533
 50
202.0768323392580044
 51
227.6321433337431017
  0
ARC
  5
9222
  8
0
 10
3126.0237944912878447
 20
200.7586435402552922
 30
0.0
 40
0.3736417324458932
 50
193.2448275297170142
 51
201.3545343424700889
  0
ARC
  5
9223
  8
0
 10
3126.2821033089358025
 20
201.681096076171201
 30
0.0
 40
1.2213137692978011
 50
273.1625807303207125
 51
292.8245751882581089
  0
ARC
  5
9224
  8
0
 10
3126.5267709326280965
 20
201.0390164246385041
 30
0.0
 40
0.5351206332665061
 50
295.3480159203141966
 51
333.4053404195846042
  0
ARC
  5
9225
  8
0
 10
3126.4373559209589075
 20
201.0014606491160123
 30
0.0
 40
0.6027739718890839
 50
340.4198481238461795
 51
4.2620947730026222
  0
ARC
  5
9226
  8
0
 10
3126.2935010732330738
 20
201.5113026575922106
 30
0.0
 40
1.2527432788821511
 50
272.5610947403135924
 51
288.8447125965926716
  0
ARC
  5
9227
  8
0
 10
3126.4936259307642104
 20
200.884918932811388
 30
0.0
 40
0.5954344412200264
 50
290.08871343814792
 51
325.941733468369307
  0
ARC
  5
9228
  8
0
 10
3126.6544352465789416
 20
200.7654064291907048
 30
0.0
 40
0.3953791118859984
 50
327.2393108494169951
 51
346.4896471811205743
  0
ARC
  5
9229
  8
0
 10
3124.8658408847300052
 20
201.626017117909214
 30
0.0
 40
1.907455345618289
 50
314.755137714462478
 51
322.4520238737653131
  0
ARC
  5
922A
  8
0
 10
3124.4772589872791286
 20
202.0204485133401135
 30
0.0
 40
2.4241187565387969
 50
314.07455964263238
 51
319.9918532841953152
  0
ARC
  5
922B
  8
0
 10
3125.3748850295960438
 20
201.1846316954946019
 30
0.0
 40
1.1648168245438311
 50
309.6675116405585868
 51
321.7992332694227002
  0
ARC
  5
922C
  8
0
 10
3125.2316502772860076
 20
201.306237372894401
 30
0.0
 40
1.316689058439632
 50
310.0287646659725169
 51
320.4831931473975146
  0
ARC
  5
922D
  8
0
 10
3125.0461021744340542
 20
201.3517882556421057
 30
0.0
 40
1.4461027239271851
 50
313.7857319463686281
 51
322.7147343607271068
  0
ARC
  5
922E
  8
0
 10
3125.3132333119810937
 20
201.1971124848336103
 30
0.0
 40
1.1096297678566851
 50
308.2177922925127973
 51
319.8974498172360086
  0
ARC
  5
922F
  8
0
 10
3125.3462151087851453
 20
201.1681937803155904
 30
0.0
 40
1.0286255550763259
 50
306.6536866558778911
 51
318.8806949734732825
  0
ARC
  5
9230
  8
0
 10
3125.4261147798911225
 20
201.044755269657287
 30
0.0
 40
0.8464662461998727
 50
306.1344718378098833
 51
320.285460098462579
  0
ARC
  5
9231
  8
0
 10
3125.4004425840780641
 20
201.0721854288892132
 30
0.0
 40
0.8469761569554561
 50
305.368122314221921
 51
318.9685544902351921
  0
ARC
  5
9232
  8
0
 10
3125.457240999665828
 20
200.9895289332339985
 30
0.0
 40
0.7100833617290792
 50
304.3576118594003788
 51
319.7756700785071189
  0
ARC
  5
9233
  8
0
 10
3125.4275085509348173
 20
201.011575614747187
 30
0.0
 40
0.7100833617290792
 50
304.3664744524407979
 51
319.02271319216959
  0
ARC
  5
9234
  8
0
 10
3125.3869062046510408
 20
201.0278709560286927
 30
0.0
 40
0.7100833617290792
 50
305.4869247705794919
 51
319.293332563394074
  0
ARC
  5
9235
  8
0
 10
3125.3581142728648956
 20
201.0502851899445034
 30
0.0
 40
0.7100833617290792
 50
305.7685951540664178
 51
318.9004661726891072
  0
ARC
  5
9236
  8
0
 10
3125.3239058406379627
 20
201.0694561604391026
 30
0.0
 40
0.7100833617290792
 50
306.780023410521494
 51
319.1578901361771159
  0
ARC
  5
9237
  8
0
 10
3123.5996980758500285
 20
202.8116011763922018
 30
0.0
 40
3.124610619918851
 50
312.9758488727824783
 51
315.6255742027839233
  0
ARC
  5
9238
  8
0
 10
3127.6461226494297989
 20
198.8272920913699977
 30
0.0
 40
2.5912314896010171
 50
135.2781262944644141
 51
138.2801453088335109
  0
ARC
  5
9239
  8
0
 10
3125.1050558678648486
 20
201.1645017538112086
 30
0.0
 40
0.8295122817566101
 50
315.3297784480539008
 51
324.0920583350589936
  0
ARC
  5
923A
  8
0
 10
3132.5790473390197803
 20
195.0189563828027133
 30
0.0
 40
8.8819247799800891
 50
140.2097069865936874
 51
140.964877355961903
  0
ARC
  5
923B
  8
0
 10
3123.5219683312379857
 20
202.2722055839512905
 30
0.0
 40
2.6943690897751158
 50
322.8079530091926017
 51
325.1272328086524794
  0
ARC
  5
923C
  8
0
 10
3123.5131249657588342
 20
202.2910871263578088
 30
0.0
 40
2.6943690897751158
 50
322.8935633679124066
 51
325.0562150390189231
  0
ARC
  5
923D
  8
0
 10
3126.1043963648339741
 20
200.4906994224020877
 30
0.0
 40
0.4932956965304034
 50
144.2765610868216868
 51
155.0799709774493067
  0
ARC
  5
923E
  8
0
 10
3125.8658153382871205
 20
200.6524620954575937
 30
0.0
 40
0.2331749189210464
 50
138.6806186003468895
 51
156.1814593519083871
  0
ARC
  5
923F
  8
0
 10
3125.8203124910492079
 20
200.7294858758413056
 30
0.0
 40
0.175191692736639
 50
143.0496784809178905
 51
165.5201564379644026
  0
ARC
  5
9240
  8
0
 10
3125.8189653005051696
 20
200.7716706843586962
 30
0.0
 40
0.175191692736639
 50
146.7497829415173101
 51
166.1335506532992952
  0
ARC
  5
9241
  8
0
 10
3125.8059340947529563
 20
200.7980457537852885
 30
0.0
 40
0.1751916927366399
 50
143.0159387228191008
 51
154.1371032319395908
  0
ARC
  5
9242
  8
0
 10
3125.8028715058208036
 20
200.8256440633485056
 30
0.0
 40
0.175191692736639
 50
143.2603407975271921
 51
151.3591185590593113
  0
ARC
  5
9243
  8
0
 10
3124.9997843582391397
 20
201.4726132553699927
 30
0.0
 40
1.7387188012521311
 50
316.0614155884630918
 51
324.6814428112908786
  0
ARC
  5
9244
  8
0
 10
3125.1728198739060645
 20
201.329793336635305
 30
0.0
 40
1.5475235517643651
 50
316.3933819497406148
 51
326.3834890426310835
  0
ARC
  5
9245
  8
0
 10
3125.0740547351110763
 20
201.4521317524815913
 30
0.0
 40
1.735085633497043
 50
316.6120893025716896
 51
325.9921245476353988
  0
ARC
  5
9246
  8
0
 10
3124.6766266629101665
 20
201.6963795847389065
 30
0.0
 40
2.2313284215621301
 50
319.9951388855167238
 51
327.2849163794174956
  0
ARC
  5
9247
  8
0
 10
3125.2519657946540974
 20
201.3126340586705112
 30
0.0
 40
1.5711628258869199
 50
318.1941506826638033
 51
328.9040722827011223
  0
ARC
  5
9248
  8
0
 10
3123.7472571978341875
 20
202.3489094339016958
 30
0.0
 40
3.4246890262324019
 50
322.645294834445906
 51
327.5795433552294753
  0
ARC
  5
9249
  8
0
 10
3109.4627022068939368
 20
211.8912607281745011
 30
0.0
 40
20.6323171468580497
 50
325.7476863993960023
 51
326.5804377560642138
  0
ARC
  5
924A
  8
0
 10
3122.2713556682351737
 20
203.0762902608292109
 30
0.0
 40
5.1151705230031039
 50
326.9556247470629273
 51
330.2502327592414986
  0
ARC
  5
924B
  8
0
 10
3123.8624305563989765
 20
202.0670468193503098
 30
0.0
 40
3.2615433073104731
 50
327.1349444137861155
 51
332.3531477356825121
  0
ARC
  5
924C
  8
0
 10
3125.1277118745388179
 20
201.2957906179923953
 30
0.0
 40
1.806458610235312
 50
326.8274551555300036
 51
336.2498730897835912
  0
ARC
  5
924D
  8
0
 10
3125.3934930386708402
 20
201.155895362986513
 30
0.0
 40
1.5308383860471999
 50
326.8124027127307727
 51
338.2362005682745121
  0
ARC
  5
924E
  8
0
 10
3125.654232218335892
 20
201.0205801943228892
 30
0.0
 40
1.260806377016876
 50
326.7767743889713188
 51
340.9806572284085746
  0
ARC
  5
924F
  8
0
 10
3125.9888204260751081
 20
200.8559442163995072
 30
0.0
 40
0.9150832447133845
 50
326.2281929520219137
 51
345.9686866581378126
  0
ARC
  5
9250
  8
0
 10
3126.1049816408440165
 20
200.8043368563828039
 30
0.0
 40
0.8086724900752017
 50
327.0970546949620257
 51
349.3839521638586234
  0
ARC
  5
9251
  8
0
 10
3126.1631921690109266
 20
200.8044732687845908
 30
0.0
 40
0.7830295782047325
 50
328.3264113711588834
 51
352.162730553753704
  0
ARC
  5
9252
  8
0
 10
3125.6102306768020753
 20
200.9584273273896997
 30
0.0
 40
1.373706130511855
 50
337.402097602752292
 51
350.5198050774417879
  0
ARC
  5
9253
  8
0
 10
3125.7212374036012079
 20
200.929627592714894
 30
0.0
 40
1.280074958604958
 50
338.5786214590515897
 51
353.0328456157488972
  0
ARC
  5
9254
  8
0
 10
3125.6078860845182135
 20
200.9695916904458102
 30
0.0
 40
1.4128862383360989
 50
339.9655595256174934
 51
354.0527797686082181
  0
ARC
  5
9255
  8
0
 10
3125.9148133678509112
 20
200.871498104595787
 30
0.0
 40
1.1179578576399221
 50
343.2320191640159806
 51
1.6925779987474181
  0
ARC
  5
9256
  8
0
 10
3126.3739263861671134
 20
201.4674111847706968
 30
0.0
 40
1.0269390148777511
 50
242.6636278613578099
 51
268.6360779840438795
  0
ARC
  5
9257
  8
0
 10
3126.1596990792759243
 20
201.0083101272873023
 30
0.0
 40
0.5211357897599186
 50
214.9108828569937941
 51
240.406797775337111
  0
ARC
  5
9258
  8
0
 10
3126.0595502640458108
 20
200.9542688261159924
 30
0.0
 40
0.4082884969517899
 50
180.286950644066394
 51
216.7353800527675958
  0
ARC
  5
9259
  8
0
 10
3126.3739522752398443
 20
201.440964373153804
 30
0.0
 40
1.0269390148777511
 50
242.6636278613578099
 51
268.6346331510209779
  0
ARC
  5
925A
  8
0
 10
3126.1597249683482005
 20
200.9818633156704095
 30
0.0
 40
0.5211357897599186
 50
214.9108828569937941
 51
240.406797775337111
  0
ARC
  5
925B
  8
0
 10
3126.0595761531180869
 20
200.9278220144990996
 30
0.0
 40
0.4082884969517899
 50
178.2001002458424921
 51
216.7353800527675958
  0
ARC
  5
925C
  8
0
 10
3126.3739223111169849
 20
201.4186932927935061
 30
0.0
 40
1.0269390148777511
 50
242.6636278613578099
 51
268.6363054068157226
  0
ARC
  5
925D
  8
0
 10
3126.1596950042257959
 20
200.9595922353101969
 30
0.0
 40
0.5211357897599186
 50
214.9108828569937941
 51
240.406797775337111
  0
ARC
  5
925E
  8
0
 10
3126.0595461889961371
 20
200.9055509341388017
 30
0.0
 40
0.4082884969517899
 50
178.3600493103492113
 51
216.7353800527675958
  0
ARC
  5
925F
  8
0
 10
3126.3738013898860117
 20
201.3964222208074091
 30
0.0
 40
1.0269390148777511
 50
242.6636278613578099
 51
268.6430538400405226
  0
ARC
  5
9260
  8
0
 10
3126.1595740829939132
 20
200.9373211633239862
 30
0.0
 40
0.5211357897599186
 50
214.9108828569937941
 51
240.406797775337111
  0
ARC
  5
9261
  8
0
 10
3126.0594252677651639
 20
200.8832798621527047
 30
0.0
 40
0.4082884969517899
 50
178.1260300120924001
 51
216.7353800527675958
  0
ARC
  5
9262
  8
0
 10
3126.3739263861671134
 20
201.3741511335020959
 30
0.0
 40
1.0269390148777511
 50
242.6636278613578099
 51
268.6360779840438795
  0
ARC
  5
9263
  8
0
 10
3126.1596990792759243
 20
200.9150500760187015
 30
0.0
 40
0.5211357897599186
 50
214.9108828569937941
 51
240.406797775337111
  0
ARC
  5
9264
  8
0
 10
3126.0595502640458108
 20
200.8610087748473063
 30
0.0
 40
0.4082884969517899
 50
178.7586815642928002
 51
216.7353800527675958
  0
ARC
  5
9265
  8
0
 10
3126.3739212909172238
 20
201.3532719913935125
 30
0.0
 40
1.0269390148777511
 50
242.6636278613578099
 51
268.6363623427387211
  0
ARC
  5
9266
  8
0
 10
3126.1596939840260347
 20
200.8941709339102033
 30
0.0
 40
0.5211357897599186
 50
214.9108828569937941
 51
240.406797775337111
  0
ARC
  5
9267
  8
0
 10
3126.0595451687959212
 20
200.8401296327388081
 30
0.0
 40
0.4082884969517899
 50
178.5208563323213014
 51
216.7353800527675958
  0
ARC
  5
9268
  8
0
 10
3126.3739212909172238
 20
201.3310091350504933
 30
0.0
 40
1.0269390148777511
 50
242.6636278613578099
 51
268.6363623427387211
  0
ARC
  5
9269
  8
0
 10
3126.1596939840260347
 20
200.8719080775670989
 30
0.0
 40
0.5211357897599186
 50
214.9108828569937941
 51
240.406797775337111
  0
ARC
  5
926A
  8
0
 10
3126.0595451687959212
 20
200.8178667763957037
 30
0.0
 40
0.4082884969517899
 50
179.3625079565508997
 51
216.7353800527675958
  0
ARC
  5
926B
  8
0
 10
3126.3739212909172238
 20
201.3087298307937942
 30
0.0
 40
1.0269390148777511
 50
242.6636278613578099
 51
268.6363623427387211
  0
ARC
  5
926C
  8
0
 10
3126.1596939840260347
 20
200.8496287733105135
 30
0.0
 40
0.5211357897599186
 50
214.9108828569937941
 51
240.406797775337111
  0
ARC
  5
926D
  8
0
 10
3126.0595451687959212
 20
200.7955874721390899
 30
0.0
 40
0.4082884969517899
 50
178.4365607403784963
 51
216.7353800527675958
  0
ARC
  5
926E
  8
0
 10
3126.3250325548578985
 20
201.4674111847706968
 30
0.0
 40
1.0269390148777511
 50
271.3639220159560068
 51
297.3363721386422185
  0
ARC
  5
926F
  8
0
 10
3126.5392598617490876
 20
201.0083101272873023
 30
0.0
 40
0.5211357897599186
 50
299.593202224662889
 51
325.0891171430060922
  0
ARC
  5
9270
  8
0
 10
3126.6394086769792011
 20
200.9542688261159924
 30
0.0
 40
0.4082884969517899
 50
323.2646199472324042
 51
359.7250920639236824
  0
ARC
  5
9271
  8
0
 10
3126.3250056602018958
 20
201.4409670143134008
 30
0.0
 40
1.0269418228660909
 50
271.365755553713484
 51
297.3363543089726022
  0
ARC
  5
9272
  8
0
 10
3126.5392339726768114
 20
200.9818633156704095
 30
0.0
 40
0.5211357897599186
 50
299.593202224662889
 51
325.0891171430060922
  0
ARC
  5
9273
  8
0
 10
3126.6393827879069249
 20
200.9278220144990996
 30
0.0
 40
0.4082884969517899
 50
323.2646199472324042
 51
1.799899754157515
  0
ARC
  5
9274
  8
0
 10
3126.3250356257021849
 20
201.4186959303906974
 30
0.0
 40
1.026941819068508
 50
271.3640832303290722
 51
297.3363543319383098
  0
ARC
  5
9275
  8
0
 10
3126.539263936799216
 20
200.9595922353101969
 30
0.0
 40
0.5211357897599186
 50
299.593202224662889
 51
325.0891171430060922
  0
ARC
  5
9276
  8
0
 10
3126.6394127520288748
 20
200.9055509341388017
 30
0.0
 40
0.4082884969517899
 50
323.2646199472324042
 51
1.123984365133837
  0
ARC
  5
9277
  8
0
 10
3126.3251565524928992
 20
201.3964248440366021
 30
0.0
 40
1.0269418037524629
 50
271.3573345244728898
 51
297.3363544245642061
  0
ARC
  5
9278
  8
0
 10
3126.5393848580310987
 20
200.9373211633239862
 30
0.0
 40
0.5211357897599186
 50
299.593202224662889
 51
325.0891171430060922
  0
ARC
  5
9279
  8
0
 10
3126.6395336732612122
 20
200.8832798621527047
 30
0.0
 40
0.4082884969517899
 50
323.2646199472324042
 51
1.8739699879075671
  0
ARC
  5
927A
  8
0
 10
3126.3250315504651553
 20
201.3741537715835932
 30
0.0
 40
1.026941819584857
 50
271.3643106623117092
 51
297.3363543288290884
  0
ARC
  5
927B
  8
0
 10
3126.5392598617490876
 20
200.9150500760187015
 30
0.0
 40
0.5211357897599186
 50
299.593202224662889
 51
325.0891171430060922
  0
ARC
  5
927C
  8
0
 10
3126.6394086769792011
 20
200.8610087748473063
 30
0.0
 40
0.4082884969517899
 50
323.2646199472324042
 51
1.241318435707186
  0
ARC
  5
927D
  8
0
 10
3126.325036645948785
 20
201.3532746288694
 30
0.0
 40
1.0269418189391979
 50
271.3640262921034036
 51
297.3363543327300249
  0
ARC
  5
927E
  8
0
 10
3126.5392649569998866
 20
200.8941709339102033
 30
0.0
 40
0.5211357897599186
 50
299.593202224662889
 51
325.0891171430060922
  0
ARC
  5
927F
  8
0
 10
3126.6394137722290907
 20
200.8401296327388081
 30
0.0
 40
0.4082884969517899
 50
323.2646199472324042
 51
1.4791436676786289
  0
ARC
  5
9280
  8
0
 10
3126.325036645948785
 20
201.3310117725262955
 30
0.0
 40
1.026941818939191
 50
271.3640262921034036
 51
297.3363543327300249
  0
ARC
  5
9281
  8
0
 10
3126.5392649569998866
 20
200.8719080775670989
 30
0.0
 40
0.5211357897599186
 50
299.593202224662889
 51
325.0891171430060922
  0
ARC
  5
9282
  8
0
 10
3126.6394137722290907
 20
200.8178667763957037
 30
0.0
 40
0.4082884969517899
 50
323.2646199472324042
 51
1.5622847491038161
  0
ARC
  5
9283
  8
0
 10
3126.3250366459537872
 20
201.3087324682518897
 30
0.0
 40
1.0269418189213311
 50
271.364026291894902
 51
297.3363543329354002
  0
ARC
  5
9284
  8
0
 10
3126.5392649569998866
 20
200.8496287733105135
 30
0.0
 40
0.5211357897599186
 50
299.593202224662889
 51
325.0891171430060922
  0
ARC
  5
9285
  8
0
 10
3126.6394137722290907
 20
200.7955874721390899
 30
0.0
 40
0.4082884969517899
 50
323.2646199472324042
 51
1.5634392596214359
  0
ARC
  5
9286
  8
0
 10
3126.3390920814590572
 20
199.6960660584414029
 30
0.0
 40
1.394324372522334
 50
0.5640306099117652
 51
59.3318991114501983
  0
ARC
  5
9287
  8
0
 10
3126.3504450168688891
 20
200.0683478111924103
 30
0.0
 40
1.8218209827723131
 50
245.1563289541514052
 51
293.33841634359311
  0
ARC
  5
9288
  8
0
 10
3126.5943413131949455
 20
199.515698821593702
 30
0.0
 40
1.2177772211756821
 50
293.103034853012673
 51
322.9178054914123095
  0
ARC
  5
9289
  8
0
 10
3126.9510512098700019
 20
199.2589618146178054
 30
0.0
 40
0.7784697888519008
 50
322.1623179580581109
 51
356.851101186386984
  0
ARC
  5
928A
  8
0
 10
3126.3472589387270091
 20
199.7033442845174136
 30
0.0
 40
1.3816365869188909
 50
122.6700507064896044
 51
179.9058335948541014
  0
ARC
  5
928B
  8
0
 10
3145.2058398200178999
 20
199.5850921591909923
 30
0.0
 40
20.2405436023649585
 50
180.326185124797604
 51
180.9793215423277104
  0
ARC
  5
928C
  8
0
 10
3126.079511099649153
 20
199.4846228502067902
 30
0.0
 40
1.1782843191497381
 50
214.703847659227506
 51
245.1861151799149923
  0
ARC
  5
928D
  8
0
 10
3125.8489037625249694
 20
199.2977673024089995
 30
0.0
 40
0.8825996610883839
 50
183.8080770580004071
 51
213.2545972153006062
  0
ARC
  5
928E
  8
0
 10
3126.3482147255849668
 20
200.1803760297920007
 30
0.0
 40
1.8688091435782299
 50
247.1013503855319016
 51
294.728137410757995
  0
ARC
  5
928F
  8
0
 10
3126.6508192490859983
 20
199.4847252830176956
 30
0.0
 40
1.110481466867596
 50
295.5610886927880188
 51
346.0066040870834172
  0
ARC
  5
9290
  8
0
 10
3125.9737492501449196
 20
199.421546658456208
 30
0.0
 40
1.0252792672462461
 50
191.9832463669922049
 51
249.8794574817505918
  0
ARC
  5
9291
  8
0
 10
3126.3491595498571769
 20
201.4123709655360983
 30
0.0
 40
0.6802888887033528
 50
244.0330113405753139
 51
296.9021872756035236
  0
ARC
  5
9292
  8
0
 10
3126.5044221745711184
 20
201.1256861354787873
 30
0.0
 40
0.3544853956838769
 50
295.4887087988852272
 51
347.1853979742554088
  0
ARC
  5
9293
  8
0
 10
3126.6006701133901515
 20
201.0991177606092037
 30
0.0
 40
0.2547827257928846
 50
348.2107135952841759
 51
37.7080205556364376
  0
ARC
  5
9294
  8
0
 10
3126.1916072193312175
 20
201.1204074204997028
 30
0.0
 40
0.3490885558312025
 50
188.6418558823075102
 51
246.3001816704359044
  0
ARC
  5
9295
  8
0
 10
3126.0934038116351985
 20
201.1020548029854069
 30
0.0
 40
0.2492654747832073
 50
142.1237193898400903
 51
187.8629683405706032
  0
ARC
  5
9296
  8
0
 10
3126.5283380649470928
 20
201.2320429779315134
 30
0.0
 40
0.2748567521408318
 50
337.6556636261248059
 51
4.7811959431423352
  0
LINE
  5
9297
  8
0
 10
3126.8022424604141634
 20
201.3206478713487115
 30
0.0
 11
3126.8022383892630387
 21
201.2549525073231109
 31
0.0
  0
ARC
  5
9298
  8
0
 10
3126.172487751844983
 20
201.2325340803905078
 30
0.0
 40
0.276759699148362
 50
175.3244904294110995
 51
202.2987850901565992
  0
LINE
  5
9299
  8
0
 10
3125.8967225069131928
 20
201.3206478713487115
 30
0.0
 11
3125.896649020563018
 21
201.2550934553231059
 31
0.0
  0
LINE
  5
929A
  8
0
 10
3125.8451247353459621
 20
201.124208294723104
 30
0.0
 11
3125.9057168993631421
 21
201.124208294723104
 31
0.0
  0
LINE
  5
929B
  8
0
 10
3125.9057168993631421
 20
201.124208294723104
 30
0.0
 11
3125.9092089902610496
 21
201.1472098471903109
 31
0.0
  0
LINE
  5
929C
  8
0
 10
3125.8451458319459562
 20
201.0796661353230945
 30
0.0
 11
3125.9057168993631421
 21
201.0796661353230945
 31
0.0
  0
LINE
  5
929D
  8
0
 10
3125.9057168993631421
 20
201.0796661353230945
 30
0.0
 11
3125.9254537587630693
 21
201.0657467103231113
 31
0.0
  0
LINE
  5
929E
  8
0
 10
3125.9057168993631421
 20
201.124208294723104
 30
0.0
 11
3125.9288215899518946
 21
201.1079135853464095
 31
0.0
  0
ARC
  5
929F
  8
0
 10
3126.1974803255770894
 20
201.1239270917407964
 30
0.0
 40
0.2951015573306655
 50
188.626086615348413
 51
242.932221620646601
  0
ARC
  5
92A0
  8
0
 10
3126.3495193006551744
 20
201.3797543068052107
 30
0.0
 40
0.5923960939974858
 50
241.0968367771453984
 51
270.718577569446893
  0
ARC
  5
92A1
  8
0
 10
3126.3495188359847816
 20
201.3797913553696048
 30
0.0
 40
0.5924331454758036
 50
270.718577569446893
 51
298.7733862721606215
  0
ARC
  5
92A2
  8
0
 10
3126.5147303720218588
 20
201.1106860445744928
 30
0.0
 40
0.2774512385793418
 50
295.6163522127944248
 51
7.560534199463528
  0
ARC
  5
92A3
  8
0
 10
3126.2173853527419851
 20
201.1116145951214094
 30
0.0
 40
0.2955129750430345
 50
188.9292340357114028
 51
234.9834261295073077
  0
ARC
  5
92A4
  8
0
 10
3126.4995050082798116
 20
201.0992126047673025
 30
0.0
 40
0.2743254892851911
 50
299.5228387923207265
 51
2.8783554073310911
  0
LINE
  5
92A5
  8
0
 10
3125.6211360269630859
 20
200.949812765023097
 30
0.0
 11
3125.6014509876631564
 21
200.9301277256230946
 31
0.0
  0
LINE
  5
92A6
  8
0
 10
3125.6014509876631564
 20
200.9301277256230946
 30
0.0
 11
3125.6014509876631564
 21
200.7726550436231037
 31
0.0
  0
LINE
  5
92A7
  8
0
 10
3125.6014509876631564
 20
200.7726550436231037
 30
0.0
 11
3125.6211360269630859
 21
200.7529623713230933
 31
0.0
  0
LINE
  5
92A8
  8
0
 10
3125.6211360269630859
 20
200.7529623713230933
 30
0.0
 11
3125.6211360269630859
 21
200.949812765023097
 31
0.0
  0
LINE
  5
92A9
  8
0
 10
3125.6211360269630859
 20
200.949812765023097
 30
0.0
 11
3125.6511065026397773
 21
200.9497345276334954
 31
0.0
  0
LINE
  5
92AA
  8
0
 10
3125.6211360269630859
 20
200.7529623713230933
 30
0.0
 11
3125.6520241798671123
 21
200.7529623713230933
 31
0.0
  0
LINE
  5
92AB
  8
0
 10
3127.7333488938629671
 20
199.7097918325019066
 30
0.0
 11
3127.7333488938629671
 21
199.2671351397241892
 31
0.0
  0
LINE
  5
92AC
  8
0
 10
3124.965624217802997
 20
199.4698632778662954
 30
0.0
 11
3124.965624217802997
 21
199.7056150223129123
 31
0.0
  0
ARC
  5
92AD
  8
0
 10
3124.5442193380358731
 20
199.554682169877907
 30
0.0
 40
3.2020666167966931
 50
353.932069561169385
 51
354.8478726400888945
  0
LINE
  5
92AE
  8
0
 10
3127.7333407514638566
 20
199.6815373204703121
 30
0.0
 11
3127.7333902260998002
 21
199.6815373204703121
 31
0.0
  0
LINE
  5
92AF
  8
0
 10
3129.6094779683189699
 20
207.3783245563741957
 30
0.0
 11
3123.0894869989069775
 21
207.3783245563741957
 31
0.0
  0
ARC
  5
92B0
  8
0
 10
3126.3281177216790638
 20
208.3452013348189098
 30
0.0
 40
3.379878646220595
 50
196.6227279112657982
 51
214.5097276416848899
  0
ARC
  5
92B1
  8
0
 10
3123.6418800705841932
 20
206.4983293660772858
 30
0.0
 40
0.1200000001542136
 50
214.5095667978029041
 51
269.999999990099127
  0
LINE
  5
92B2
  8
0
 10
3123.64188007056282
 20
206.3783293659230935
 30
0.0
 11
3125.9444824836641601
 21
206.3783293659230935
 31
0.0
  0
ARC
  5
92B3
  8
0
 10
3125.3531571277731018
 20
207.328681027427109
 30
0.0
 40
0.049680989661296
 50
92.1750202054468275
 51
127.5331471750183994
  0
LINE
  5
92B4
  8
0
 10
3125.3228904601628528
 20
207.3680781030230946
 30
0.0
 11
3125.2458900848519079
 21
207.3680781030257947
 31
0.0
  0
ARC
  5
92B5
  8
0
 10
3125.2744824836631778
 20
207.333329365923106
 30
0.0
 40
0.044999999999965
 50
129.448666752891711
 51
180.0000000000358114
  0
LINE
  5
92B6
  8
0
 10
3125.2294824836631051
 20
207.333329365923106
 30
0.0
 11
3125.2294824835921645
 21
207.2522392982230883
 31
0.0
  0
ARC
  5
92B7
  8
0
 10
3125.2744783881062176
 20
207.2522392983779866
 30
0.0
 40
0.0449959045144715
 50
180.000000197312005
 51
254.0181883619800942
  0
LINE
  5
92B8
  8
0
 10
3125.2620895670629579
 20
207.2089825239231118
 30
0.0
 11
3125.6743281646258765
 21
207.0909166197758111
 31
0.0
  0
ARC
  5
92B9
  8
0
 10
3125.6495731658092154
 20
207.0044821316093078
 30
0.0
 40
0.0899095696299733
 50
359.8644056579871062
 51
74.0181884379226318
  0
LINE
  5
92BA
  8
0
 10
3125.7394824836628686
 20
207.0042693547231067
 30
0.0
 11
3125.7388767849138276
 21
206.7483300826370112
 31
0.0
  0
ARC
  5
92BB
  8
0
 10
3125.7987402641310837
 20
206.7481884113952901
 30
0.0
 40
0.0598636468541099
 50
179.8644056579871062
 51
270.7104000261647911
  0
LINE
  5
92BC
  8
0
 10
3125.799482483662814
 20
206.6883293659230958
 30
0.0
 11
3126.8994824836640873
 21
206.6883293659230958
 31
0.0
  0
LINE
  5
92BD
  8
0
 10
3124.4694824836628868
 20
206.3783293659230935
 30
0.0
 11
3124.4694824836628868
 21
206.3593293659230881
 31
0.0
  0
LINE
  5
92BE
  8
0
 10
3124.4694824836628868
 20
206.3593293659230881
 30
0.0
 11
3124.5604824836627813
 21
206.2683293659231083
 31
0.0
  0
LINE
  5
92BF
  8
0
 10
3124.5604824836627813
 20
206.2683293659231083
 30
0.0
 11
3125.9444824836641601
 21
206.2683293659231083
 31
0.0
  0
LINE
  5
92C0
  8
0
 10
3125.9444824836641601
 20
206.6883293659230958
 30
0.0
 11
3125.9444824836641601
 21
201.595981046490806
 31
0.0
  0
LINE
  5
92C2
  8
0
 10
3125.5295787124628077
 20
206.2683293659231083
 30
0.0
 11
3125.5378391250628738
 21
205.7950906451231106
 31
0.0
  0
ARC
  5
92C5
  8
0
 10
3126.3708472455491574
 20
208.3452013348183129
 30
0.0
 40
3.3798786462194581
 50
325.490272358313689
 51
343.3772720887388914
  0
ARC
  5
92C6
  8
0
 10
3129.0570848966422091
 20
206.4983293660772858
 30
0.0
 40
0.1200000001542136
 50
270.000000009900873
 51
325.4904332021970959
  0
LINE
  5
92C7
  8
0
 10
3129.0570848966631274
 20
206.3783293659230935
 30
0.0
 11
3126.7544824835631516
 21
206.3783293659230935
 31
0.0
  0
ARC
  5
92C8
  8
0
 10
3127.3458078394528457
 20
207.328681027427109
 30
0.0
 40
0.049680989661296
 50
52.4668528249816219
 51
87.7748574924481346
  0
LINE
  5
92C9
  8
0
 10
3127.3760745070640041
 20
207.3680781030230946
 30
0.0
 11
3127.4530748823740396
 21
207.3680781030257947
 31
0.0
  0
ARC
  5
92CA
  8
0
 10
3127.4244824835641339
 20
207.333329365923106
 30
0.0
 40
0.044999999999965
 50
359.9999999999641886
 51
50.5513332471082677
  0
LINE
  5
92CB
  8
0
 10
3127.4694824835628424
 20
207.333329365923106
 30
0.0
 11
3127.4694824836351472
 21
207.2522392982230883
 31
0.0
  0
ARC
  5
92CC
  8
0
 10
3127.4244865791201846
 20
207.2522392983779866
 30
0.0
 40
0.0449959045144715
 50
285.9818116380197921
 51
359.9999998026863182
  0
LINE
  5
92CD
  8
0
 10
3127.4368754001629895
 20
207.2089825239231118
 30
0.0
 11
3127.024636802600071
 21
207.0909166197758111
 31
0.0
  0
ARC
  5
92CE
  8
0
 10
3127.0493918014180963
 20
207.0044821316093078
 30
0.0
 40
0.0899095696299733
 50
105.9818115620772971
 51
180.1355943420128938
  0
LINE
  5
92CF
  8
0
 10
3126.9594824835639884
 20
207.0042693547231067
 30
0.0
 11
3126.9600881823121199
 21
206.7483300826370112
 31
0.0
  0
ARC
  5
92D0
  8
0
 10
3126.9002247030957733
 20
206.7481884113952901
 30
0.0
 40
0.0598636468541099
 50
269.2895999738352089
 51
0.1355943420128867
  0
LINE
  5
92D1
  8
0
 10
3128.2294824835630607
 20
206.3783293659230935
 30
0.0
 11
3128.2294824835630607
 21
206.3593293659230881
 31
0.0
  0
LINE
  5
92D2
  8
0
 10
3128.2294824835630607
 20
206.3593293659230881
 30
0.0
 11
3128.1384824835640757
 21
206.2683293659231083
 31
0.0
  0
LINE
  5
92D3
  8
0
 10
3128.1384824835640757
 20
206.2683293659231083
 30
0.0
 11
3126.7544824835631516
 21
206.2683293659231083
 31
0.0
  0
LINE
  5
92D4
  8
0
 10
3126.7544824835631516
 20
206.6883293659230958
 30
0.0
 11
3126.7544824835631516
 21
201.595981046490806
 31
0.0
  0
ARC
  5
92D9
  8
0
 10
3126.3494824836129737
 20
201.6293626289001111
 30
0.0
 40
0.6289592269783904
 50
257.8804596439151737
 51
282.1195403560844284
  0
LINE
  5
92DA
  8
0
 10
3126.2174312250631374
 20
201.0144218396231111
 30
0.0
 11
3126.2174312250631374
 21
200.9158850986231073
 31
0.0
  0
ARC
  5
92DB
  8
0
 10
3126.2278647137550252
 20
200.9173785365782976
 30
0.0
 40
0.0105398312705015
 50
188.1459216053810053
 51
249.8806162606335022
  0
LINE
  5
92DC
  8
0
 10
3126.4815337422628545
 20
201.0144218396231111
 30
0.0
 11
3126.4815337422628545
 21
200.9158850986231073
 31
0.0
  0
ARC
  5
92DD
  8
0
 10
3126.4711002535709667
 20
200.9173785365782976
 30
0.0
 40
0.0105398312705015
 50
290.1193837393665262
 51
351.8540783946173178
  0
LINE
  5
92DE
  8
0
 10
3125.9444824836641601
 20
205.7950906451231106
 30
0.0
 11
3125.5244895087630539
 21
205.7950906451231106
 31
0.0
  0
LINE
  5
92DF
  8
0
 10
3125.5244895087630539
 20
205.7950906451231106
 30
0.0
 11
3125.5244895087630539
 21
205.6169371660230922
 31
0.0
  0
ARC
  5
92E0
  8
0
 10
3125.6545020033931905
 20
205.6169371660230922
 30
0.0
 40
0.1300124946301753
 50
180.0
 51
230.1973162343749948
  0
ARC
  5
92E1
  8
0
 10
3123.9695190749980611
 20
203.5947504542725142
 30
0.0
 40
2.5021741564572819
 50
37.879955492031641
 51
50.1973162343750019
  0
LINE
  5
92E2
  8
0
 10
3125.9444824836641601
 20
205.1052823136496954
 30
0.0
 11
3125.8744905555117839
 21
205.1044287535451929
 31
0.0
  0
LINE
  5
92E3
  8
0
 10
3125.8744905555117839
 20
205.1044287535451929
 30
0.0
 11
3125.8791505155631967
 21
204.7223120316064922
 31
0.0
  0
ARC
  5
92E4
  8
0
 10
3125.9391460553611068
 20
204.7230436845352983
 30
0.0
 40
0.0600000009297552
 50
180.6986943871785058
 51
230.7245544842500919
  0
ARC
  5
92E5
  8
0
 10
3126.3391245695129328
 20
205.212149442111297
 30
0.0
 40
0.6918285012977813
 50
230.7245544842500919
 51
235.2195462500974941
  0
LINE
  5
92E6
  8
0
 10
3127.1693862549627738
 20
206.2683293659231083
 30
0.0
 11
3127.1611258423631625
 21
205.7950906451231106
 31
0.0
  0
LINE
  5
92E7
  8
0
 10
3126.7544824837627857
 20
205.7950906451231106
 30
0.0
 11
3127.1744754586629824
 21
205.7950906451231106
 31
0.0
  0
LINE
  5
92E8
  8
0
 10
3127.1744754586629824
 20
205.7950906451231106
 30
0.0
 11
3127.1744754586629824
 21
205.6169371660230922
 31
0.0
  0
ARC
  5
92E9
  8
0
 10
3127.0444629640328458
 20
205.6169371660230922
 30
0.0
 40
0.1300124946301753
 50
309.8026837656249768
 51
0.0
  0
ARC
  5
92EA
  8
0
 10
3128.7294458924279752
 20
203.5947504542725142
 30
0.0
 40
2.5021741564572819
 50
129.8026837656250052
 51
142.1200445079682879
  0
LINE
  5
92EB
  8
0
 10
3126.7544824837627857
 20
205.1052823136496954
 30
0.0
 11
3126.8244744119151619
 21
205.1044287535451929
 31
0.0
  0
LINE
  5
92EC
  8
0
 10
3126.8244744119151619
 20
205.1044287535451929
 30
0.0
 11
3126.8198144518628396
 21
204.7223120316064922
 31
0.0
  0
ARC
  5
92ED
  8
0
 10
3126.759818912065839
 20
204.7230436845352983
 30
0.0
 40
0.0600000009297552
 50
309.2754455157498796
 51
359.3013056128214089
  0
ARC
  5
92EE
  8
0
 10
3126.359840397914013
 20
205.212149442111297
 30
0.0
 40
0.6918285012977813
 50
304.7804537499025059
 51
309.2754455157498796
  0
LINE
  5
92EF
  8
0
 10
3125.2620895671211656
 20
207.2089825239065988
 30
0.0
 11
3127.4368754001061461
 21
207.2089825239065988
 31
0.0
  0
LINE
  5
92F0
  8
0
 10
3125.6743281646258765
 20
207.0909166197758111
 30
0.0
 11
3127.024636802600071
 21
207.0909166197758111
 31
0.0
  0
ENDSEC
  0
EOF
