  0
SECTION
  2
HEADER
  9
$ACADVER
  1
AC1009
  9
$INSBASE
 10
4099.2817897626800914
 20
135.1644330687286129
 30
0.0
  9
$EXTMIN
 10
4092.3331298862799486
 20
131.1644330687786066
 30
0.0
  9
$EXTMAX
 10
4106.2304496374799783
 20
139.1644330687786066
 30
0.0
  9
$LIMMIN
 10
0.0
 20
0.0
  9
$LIMMAX
 10
11.6929133858000007
 20
8.2677165353999982
  9
$ORTHOMODE
 70
     1
  9
$REGENMODE
 70
     1
  9
$FILLMODE
 70
     1
  9
$QTEXTMODE
 70
     0
  9
$MIRRTEXT
 70
     0
  9
$DRAGMODE
 70
     2
  9
$LTSCALE
 40
0.6431102362
  9
$OSMODE
 70
  4095
  9
$ATTMODE
 70
     1
  9
$TEXTSIZE
 40
0.2
  9
$TRACEWID
 40
0.05
  9
$TEXTSTYLE
  7
STANDARD
  9
$CLAYER
  8
0
  9
$CELTYPE
  6
BYLAYER
  9
$CECOLOR
 62
   256
  9
$DIMSCALE
 40
1.0
  9
$DIMASZ
 40
0.1875
  9
$DIMEXO
 40
0.0625
  9
$DIMDLI
 40
0.4443307087
  9
$DIMRND
 40
0.0
  9
$DIMDLE
 40
0.0
  9
$DIMEXE
 40
0.125
  9
$DIMTP
 40
0.01
  9
$DIMTM
 40
0.01
  9
$DIMTXT
 40
2.0
  9
$DIMCEN
 40
0.1052362205
  9
$DIMTSZ
 40
0.0
  9
$DIMTOL
 70
     1
  9
$DIMLIM
 70
     0
  9
$DIMTIH
 70
     1
  9
$DIMTOH
 70
     1
  9
$DIMSE1
 70
     0
  9
$DIMSE2
 70
     0
  9
$DIMTAD
 70
     0
  9
$DIMZIN
 70
     0
  9
$DIMBLK
  1

  9
$DIMASO
 70
     1
  9
$DIMSHO
 70
     1
  9
$DIMPOST
  1
\X
  9
$DIMAPOST
  1

  9
$DIMALT
 70
     1
  9
$DIMALTD
 70
     2
  9
$DIMALTF
 40
25.3999999999999986
  9
$DIMLFAC
 40
1.0
  9
$DIMTOFL
 70
     0
  9
$DIMTVP
 40
0.0
  9
$DIMTIX
 70
     0
  9
$DIMSOXD
 70
     0
  9
$DIMSAH
 70
     0
  9
$DIMBLK1
  1

  9
$DIMBLK2
  1

  9
$DIMSTYLE
  2
STANDARD
  9
$DIMCLRD
 70
     0
  9
$DIMCLRE
 70
     0
  9
$DIMCLRT
 70
     0
  9
$DIMTFAC
 40
1.0
  9
$DIMGAP
 40
0.09
  9
$LUNITS
 70
     2
  9
$LUPREC
 70
     4
  9
$SKETCHINC
 40
0.1
  9
$FILLETRAD
 40
0.0
  9
$AUNITS
 70
     0
  9
$AUPREC
 70
     0
  9
$MENU
  1
.
  9
$ELEVATION
 40
0.0
  9
$PELEVATION
 40
0.0
  9
$THICKNESS
 40
0.0
  9
$LIMCHECK
 70
     0
  9
$BLIPMODE
 70
     0
  9
$CHAMFERA
 40
0.0
  9
$CHAMFERB
 40
0.0
  9
$SKPOLY
 70
     0
  9
$TDCREATE
 40
2458060.468368056230247
  9
$TDUPDATE
 40
2458993.7319328710436821
  9
$TDINDWG
 40
0.3047640046
  9
$TDUSRTIMER
 40
0.3047640046
  9
$USRTIMER
 70
     1
  9
$ANGBASE
 50
0.0
  9
$ANGDIR
 70
     0
  9
$PDMODE
 70
     0
  9
$PDSIZE
 40
0.3125
  9
$PLINEWID
 40
0.0
  9
$COORDS
 70
     1
  9
$SPLFRAME
 70
     0
  9
$SPLINETYPE
 70
     6
  9
$SPLINESEGS
 70
     8
  9
$ATTDIA
 70
     1
  9
$ATTREQ
 70
     1
  9
$HANDLING
 70
     1
  9
$HANDSEED
  5
6983
  9
$SURFTAB1
 70
     6
  9
$SURFTAB2
 70
     6
  9
$SURFTYPE
 70
     6
  9
$SURFU
 70
     6
  9
$SURFV
 70
     6
  9
$UCSNAME
  2

  9
$UCSORG
 10
0.0
 20
0.0
 30
0.0
  9
$UCSXDIR
 10
1.0
 20
0.0
 30
0.0
  9
$UCSYDIR
 10
0.0
 20
1.0
 30
0.0
  9
$PUCSNAME
  2

  9
$PUCSORG
 10
0.0
 20
0.0
 30
0.0
  9
$PUCSXDIR
 10
1.0
 20
0.0
 30
0.0
  9
$PUCSYDIR
 10
0.0
 20
1.0
 30
0.0
  9
$USERI1
 70
     0
  9
$USERI2
 70
     0
  9
$USERI3
 70
     0
  9
$USERI4
 70
     0
  9
$USERI5
 70
     0
  9
$USERR1
 40
0.0
  9
$USERR2
 40
0.0
  9
$USERR3
 40
0.0
  9
$USERR4
 40
0.0
  9
$USERR5
 40
0.0
  9
$WORLDVIEW
 70
     1
  9
$SHADEDGE
 70
     3
  9
$SHADEDIF
 70
    70
  9
$TILEMODE
 70
     1
  9
$MAXACTVP
 70
    64
  9
$PLIMCHECK
 70
     0
  9
$PEXTMIN
 10
1.0000000000000000E+20
 20
1.0000000000000000E+20
 30
1.0000000000000000E+20
  9
$PEXTMAX
 10
-1.0000000000000000E+20
 20
-1.0000000000000000E+20
 30
-1.0000000000000000E+20
  9
$PLIMMIN
 10
0.0
 20
0.0
  9
$PLIMMAX
 10
12.0
 20
9.0
  9
$UNITMODE
 70
     0
  9
$VISRETAIN
 70
     1
  9
$PLINEGEN
 70
     0
  9
$PSLTSCALE
 70
     1
  0
ENDSEC
  0
SECTION
  2
TABLES
  0
TABLE
  2
VPORT
 70
     1
  0
VPORT
  2
*ACTIVE
 70
     0
 10
0.0
 20
0.0
 11
1.0
 21
1.0
 12
0.0
 22
0.0
 13
0.0
 23
0.0
 14
1.0
 24
1.0
 15
0.0
 25
0.0
 16
0.0
 26
0.0
 36
60.0241101455237427
 17
4099.2818603515615905
 27
135.1644287109375
 37
0.0
 40
16.0470734496665592
 41
2.9513274336283182
 42
50.0
 43
0.0
 44
0.0
 50
0.0
 51
0.0
 71
     0
 72
   100
 73
     1
 74
     1
 75
     0
 76
     0
 77
     0
 78
     0
  0
ENDTAB
  0
TABLE
  2
LTYPE
 70
     2
  0
LTYPE
  2
CONTINUOUS
 70
     0
  3
Solid line
 72
    65
 73
     0
 40
0.0
  0
LTYPE
  2
PHANTOM2
 70
     0
  3
___ _ _ ___ _ _ ___ _ _ ___ _ _
 72
    65
 73
     6
 40
1.25
 49
0.625
 49
-0.125
 49
0.125
 49
-0.125
 49
0.125
 49
-0.125
  0
ENDTAB
  0
TABLE
  2
LAYER
 70
     2
  0
LAYER
  2
0
 70
     0
 62
   255
  6
CONTINUOUS
  0
LAYER
  2
DEFPOINTS
 70
     0
 62
     7
  6
CONTINUOUS
  0
ENDTAB
  0
TABLE
  2
STYLE
 70
     1
  0
STYLE
  2
STANDARD
 70
     0
 40
0.0
 41
0.8
 50
0.0
 71
     0
 42
0.2
  3
txt
  4

  0
ENDTAB
  0
TABLE
  2
VIEW
 70
     0
  0
ENDTAB
  0
TABLE
  2
UCS
 70
     0
  0
ENDTAB
  0
TABLE
  2
APPID
 70
     9
  0
APPID
  2
ACAD
 70
     0
  0
APPID
  2
ACAD_MLEADERVER
 70
     0
  0
APPID
  2
ACAD_EXEMPT_FROM_CAD_STANDARDS
 70
     0
  0
APPID
  2
ACAD_NAV_VCDISPLAY
 70
     0
  0
APPID
  2
ACAECLAYERSTANDARD
 70
     0
  0
APPID
  2
ACCMTRANSPARENCY
 70
     0
  0
APPID
  2
ACAD_DSTYLE_DIMJAG
 70
     0
  0
APPID
  2
ACAD_DSTYLE_DIMTALN
 70
     0
  0
APPID
  2
ACDBATTR
 70
     0
  0
ENDTAB
  0
TABLE
  2
DIMSTYLE
 70
     1
  0
DIMSTYLE
  2
STANDARD
 70
     0
  3

  4

  5

  6

  7

 40
1.0
 41
0.1875
 42
0.0625
 43
0.38
 44
0.125
 45
0.0
 46
0.0
 47
0.01
 48
0.01
140
0.15625
141
0.09
142
0.0
143
25.3999999999999986
144
1.0
145
0.0
146
1.0
147
0.09
 71
     1
 72
     0
 73
     1
 74
     1
 75
     0
 76
     0
 77
     0
 78
     4
170
     0
171
     2
172
     0
173
     0
174
     0
175
     0
176
     0
177
     0
178
     0
  0
ENDTAB
  0
ENDSEC
  0
SECTION
  2
BLOCKS
  0
BLOCK
  8
0
  2
$MODEL_SPACE
 70
     0
 10
0.0
 20
0.0
 30
0.0
  3
$MODEL_SPACE
  1

  0
ENDBLK
  5
21
  8
0
  0
BLOCK
 67
     1
  8
0
  2
$PAPER_SPACE
 70
     0
 10
0.0
 20
0.0
 30
0.0
  3
$PAPER_SPACE
  1

  0
ENDBLK
  5
1D
 67
     1
  8
0
  0
ENDSEC
  0
SECTION
  2
ENTITIES
  0
ATTDEF
  5
3930
  8
DEFPOINTS
 10
4099.2786785501875784
 20
135.1685198233562062
 30
0.0
 40
0.001
  1
K-26294
  3

  2
MODELNUMBER
 70
     0
1001
ACDBATTR
1070
     0
1070
     1
  0
ATTDEF
  5
3931
  8
DEFPOINTS
 10
4099.2786785501875784
 20
135.1668531566895126
 30
0.0
 40
0.001
  1

  3

  2
TRADENAME
 70
     0
1001
ACDBATTR
1070
     0
1070
     1
  0
ATTDEF
  5
3932
  8
DEFPOINTS
 10
4099.2786785501875784
 20
135.1651864900227906
 30
0.0
 40
0.001
  1
SHOWERHEAD
  3

  2
PRODUCT
 70
     0
1001
ACDBATTR
1070
     0
1070
     1
  0
LINE
  5
6876
  8
0
 10
4098.3724595133799085
 20
134.8285451986286034
 30
0.0
 11
4098.3724595133799085
 21
135.5003209389286098
 31
0.0
  0
LINE
  5
6877
  8
0
 10
4098.4012875860798886
 20
135.5699180631285969
 30
0.0
 11
4098.8763047675802227
 21
136.0449352445286024
 31
0.0
  0
LINE
  5
6878
  8
0
 10
4099.6176776336797047
 20
134.2551028202285863
 30
0.0
 11
4098.9459018917796129
 21
134.2551028202285863
 31
0.0
  0
LINE
  5
6879
  8
0
 10
4098.8763047675802227
 20
134.2839308929285949
 30
0.0
 11
4098.401287586179933
 21
134.7589480744285879
 31
0.0
  0
LINE
  5
687A
  8
0
 10
4098.9459018917796129
 20
136.0737633173285985
 30
0.0
 11
4099.6176776336797047
 21
136.0737633173285985
 31
0.0
  0
ARC
  5
687B
  8
0
 10
4098.4708847102792788
 20
134.8285451985285874
 30
0.0
 40
0.0984251969
 50
180.0
 51
225.0000000219945093
  0
ARC
  5
687C
  8
0
 10
4098.9459018916795685
 20
134.3535280170285944
 30
0.0
 40
0.0984251969
 50
224.9999999999953957
 51
270.0000000220946959
  0
ARC
  5
687D
  8
0
 10
4098.4708847102792788
 20
135.5003209389286098
 30
0.0
 40
0.0984251969
 50
135.0000000000046043
 51
180.0000000220996128
  0
ARC
  5
687E
  8
0
 10
4098.9459018916795685
 20
135.9753381204286029
 30
0.0
 40
0.0984251969
 50
90.0
 51
135.0000000220036895
  0
ARC
  5
687F
  8
0
 10
4099.281789761879736
 20
135.1644330687286129
 30
0.0
 40
0.4950000000000001
 50
89.9999999074001664
 51
270.0000000925999188
  0
ARC
  5
6880
  8
0
 10
4099.281789761879736
 20
135.1644330687286129
 30
0.0
 40
0.4749999778000001
 50
89.9999999034918972
 51
270.0000000965080744
  0
ARC
  5
6881
  8
0
 10
4099.281789761879736
 20
135.1644330687286129
 30
0.0
 40
0.4499999715
 50
89.9999998981506053
 51
270.0000001018494231
  0
ARC
  5
6882
  8
0
 10
4099.281789761879736
 20
135.1644330687286129
 30
0.0
 40
0.43
 50
89.999999893408571
 51
270.0000001065914148
  0
ARC
  5
6883
  8
0
 10
4099.281789761879736
 20
135.1644330687286129
 30
0.0
 40
0.422500025
 50
89.9999998915065476
 51
270.0000001084933956
  0
ARC
  5
6884
  8
0
 10
4099.281789761879736
 20
135.1644330687286129
 30
0.0
 40
0.3456901943
 50
89.9999998674055774
 51
270.0000001325943799
  0
ARC
  5
6885
  8
0
 10
4099.281789761879736
 20
135.1644330687286129
 30
0.0
 40
0.3034327048
 50
89.9999998489325037
 51
270.0000001510675247
  0
ARC
  5
6886
  8
0
 10
4099.281789761879736
 20
135.1644330687286129
 30
0.0
 40
0.288999233
 50
89.9999998414025839
 51
270.0000001585974019
  0
ARC
  5
6887
  8
0
 10
4099.281789761879736
 20
135.1644330687286129
 30
0.0
 40
0.28
 50
89.9999998362957854
 51
270.0000001637042146
  0
ARC
  5
6888
  8
0
 10
4099.281789761879736
 20
135.1644330687286129
 30
0.0
 40
0.244
 50
89.9999998121427041
 51
270.0000001878573244
  0
ARC
  5
6889
  8
0
 10
4099.281789761879736
 20
135.1644330687286129
 30
0.0
 40
0.083
 50
89.9999994477620646
 51
270.000000552237907
  0
ARC
  5
688A
  8
0
 10
4100.8006724035612933
 20
-11.5306134628732497
 30
0.0
 40
150.7158262701721014
 50
90.9514439961315162
 51
91.6415621451093045
  0
ARC
  5
688B
  8
0
 10
4096.56522049954674
 20
133.9841260363201059
 30
0.0
 40
5.1398878565723196
 50
90.9148506471001241
 51
112.0709843130779007
  0
ARC
  5
688C
  8
0
 10
4096.2755432879303044
 20
135.1159798864904076
 30
0.0
 40
3.985217540241587
 50
114.3266166188572015
 51
151.2011137979469879
  0
ARC
  5
688D
  8
0
 10
4097.1927787171225646
 20
134.9854035752784966
 30
0.0
 40
4.8629454365272009
 50
155.0619681002771131
 51
177.8901772516971107
  0
ARC
  5
688E
  8
0
 10
4109.0040965577727547
 20
136.6085057556844049
 30
0.0
 40
16.7333940277300499
 50
184.9507180587906134
 51
188.4283803779379127
  0
ARC
  5
688F
  8
0
 10
4096.144205731108741
 20
135.091454194459601
 30
0.0
 40
3.8094613427862969
 50
194.2174336907766019
 51
233.6400347979129037
  0
ARC
  5
6890
  8
0
 10
4096.1677914615411282
 20
135.0226465210986078
 30
0.0
 40
3.768507190569085
 50
232.7310070051460968
 51
266.2131400880130059
  0
ARC
  5
6891
  8
0
 10
4098.5509511126983853
 20
166.2558906107925054
 30
0.0
 40
35.0923690215690698
 50
265.6985758505733202
 51
269.5870421821658169
  0
ARC
  5
6892
  8
0
 10
4099.281789761879736
 20
135.1644330687286129
 30
0.0
 40
0.3500184504111139
 50
89.9999998690470449
 51
270.0000001309529125
  0
ARC
  5
6893
  8
0
 10
4099.281789761879736
 20
135.1644330687286129
 30
0.0
 40
0.3544817573164214
 50
89.9999998706885265
 51
270.000000129311502
  0
ARC
  5
6894
  8
0
 10
4099.281789761879736
 20
135.1644330687286129
 30
0.0
 40
0.3589266833000002
 50
89.9999998723039454
 51
270.0000001276961257
  0
ARC
  5
6895
  8
0
 10
4099.281789761879736
 20
135.1644330687286129
 30
0.0
 40
0.4022604862251969
 50
89.9999998860610333
 51
270.0000001139389951
  0
LINE
  5
6896
  8
0
 10
4100.1911200119802743
 20
134.8285451986286034
 30
0.0
 11
4100.1911200119802743
 21
135.5003209389286098
 31
0.0
  0
LINE
  5
6897
  8
0
 10
4100.1622919392793847
 20
135.5699180631285969
 30
0.0
 11
4099.6872747577799601
 21
136.0449352445286024
 31
0.0
  0
LINE
  5
6898
  8
0
 10
4099.6872747577799601
 20
134.2839308929285949
 30
0.0
 11
4100.1622919391802498
 21
134.7589480744285879
 31
0.0
  0
ARC
  5
6899
  8
0
 10
4100.0926948150799944
 20
134.8285451985285874
 30
0.0
 40
0.0984251969
 50
314.9999999780055191
 51
0.0
  0
ARC
  5
689A
  8
0
 10
4099.6176776336797047
 20
134.3535280170285944
 30
0.0
 40
0.0984251969
 50
269.9999999779051905
 51
315.0000000000046043
  0
ARC
  5
689B
  8
0
 10
4100.0926948150799944
 20
135.5003209389286098
 30
0.0
 40
0.0984251969
 50
359.9999999779003019
 51
44.9999999999953886
  0
ARC
  5
689C
  8
0
 10
4099.6176776336797047
 20
135.9753381204286029
 30
0.0
 40
0.0984251969
 50
44.9999999779962891
 51
90.0
  0
ARC
  5
689D
  8
0
 10
4099.2817897634786277
 20
135.1644330687286129
 30
0.0
 40
0.4950000000000001
 50
269.9999999074000812
 51
90.0000000925998336
  0
ARC
  5
689E
  8
0
 10
4099.2817897634786277
 20
135.1644330687286129
 30
0.0
 40
0.4749999778000001
 50
269.9999999034919256
 51
90.0000000965080886
  0
ARC
  5
689F
  8
0
 10
4099.2817897634786277
 20
135.1644330687286129
 30
0.0
 40
0.4499999715
 50
269.9999998981505769
 51
90.0000001018493947
  0
ARC
  5
68A0
  8
0
 10
4099.2817897634786277
 20
135.1644330687286129
 30
0.0
 40
0.43
 50
269.9999998934085852
 51
90.0000001065914148
  0
ARC
  5
68A1
  8
0
 10
4099.2817897634786277
 20
135.1644330687286129
 30
0.0
 40
0.422500025
 50
269.9999998915064907
 51
90.0000001084934667
  0
ARC
  5
68A2
  8
0
 10
4099.2817897634786277
 20
135.1644330687286129
 30
0.0
 40
0.3456901943
 50
269.9999998674055064
 51
90.0000001325944083
  0
ARC
  5
68A3
  8
0
 10
4099.2817897634786277
 20
135.1644330687286129
 30
0.0
 40
0.3034327048
 50
269.9999998489324753
 51
90.0000001510674963
  0
ARC
  5
68A4
  8
0
 10
4099.2817897634786277
 20
135.1644330687286129
 30
0.0
 40
0.288999233
 50
269.9999998414025981
 51
90.0000001585974161
  0
ARC
  5
68A5
  8
0
 10
4099.2817897634786277
 20
135.1644330687286129
 30
0.0
 40
0.28
 50
269.9999998362957854
 51
90.0000001637041862
  0
ARC
  5
68A6
  8
0
 10
4099.2817897634786277
 20
135.1644330687286129
 30
0.0
 40
0.244
 50
269.9999998121426756
 51
90.0000001878572817
  0
ARC
  5
68A7
  8
0
 10
4099.2817897634786277
 20
135.1644330687286129
 30
0.0
 40
0.083
 50
269.999999447762093
 51
90.0000005522379354
  0
ARC
  5
68A8
  8
0
 10
4099.2817897634786277
 20
135.1644330687286129
 30
0.0
 40
0.3500184504111139
 50
269.9999998690469738
 51
90.0000001309529551
  0
ARC
  5
68A9
  8
0
 10
4099.2817897634786277
 20
135.1644330687286129
 30
0.0
 40
0.3544817573164214
 50
269.999999870688498
 51
90.0000001293114735
  0
ARC
  5
68AA
  8
0
 10
4099.2817897634786277
 20
135.1644330687286129
 30
0.0
 40
0.3589266833000002
 50
269.9999998723038743
 51
90.000000127696083
  0
ARC
  5
68AB
  8
0
 10
4099.2817897634786277
 20
135.1644330687286129
 30
0.0
 40
0.4022604862251969
 50
269.9999998860610049
 51
90.0000001139389951
  0
LINE
  5
68AC
  8
0
 10
4098.2980259794785525
 20
139.1644330687786066
 30
0.0
 11
4100.2655535442800101
 21
139.1644330687786066
 31
0.0
  0
LINE
  5
68AD
  8
0
 10
4098.2980259794803715
 20
131.1644330687786066
 30
0.0
 11
4100.2655535442800101
 21
131.1644330687786066
 31
0.0
  0
ARC
  5
68AE
  8
0
 10
4097.7629071201972693
 20
-11.5306134628732497
 30
0.0
 40
150.7158262701721014
 50
88.3584378548906955
 51
89.0485560038684554
  0
ARC
  5
68AF
  8
0
 10
4101.998359024212732
 20
133.9841260363201059
 30
0.0
 40
5.1398878565723196
 50
67.9290156869220709
 51
89.0851493528998901
  0
ARC
  5
68B0
  8
0
 10
4102.2880362358291677
 20
135.1159798864904076
 30
0.0
 40
3.985217540241587
 50
28.7988862020529197
 51
65.6733833811427701
  0
ARC
  5
68B1
  8
0
 10
4101.3708008066369075
 20
134.9854035752784966
 30
0.0
 40
4.8629454365272009
 50
2.1098227483029341
 51
24.9380318997228088
  0
ARC
  5
68B2
  8
0
 10
4089.5594829659848983
 20
136.6085057556844049
 30
0.0
 40
16.7333940277300499
 50
351.5716196220620873
 51
355.0492819412093013
  0
ARC
  5
68B3
  8
0
 10
4102.4193737926516405
 20
135.091454194459601
 30
0.0
 40
3.8094613427862969
 50
306.3599652020870963
 51
345.7825663092218065
  0
ARC
  5
68B4
  8
0
 10
4102.3957880622192533
 20
135.0226465210986078
 30
0.0
 40
3.768507190569085
 50
273.7868599119868804
 51
307.2689929948538747
  0
ARC
  5
68B5
  8
0
 10
4100.0126284110629058
 20
166.2558906107925054
 30
0.0
 40
35.0923690215690698
 50
270.4129578178341831
 51
274.3014241494266798
  0
ENDSEC
  0
EOF
