  0
SECTION
  2
HEADER
  9
$ACADVER
  1
AC1009
  9
$INSBASE
 10
4630.7775186109256538
 20
198.1018186101644005
 30
0.0
  9
$EXTMIN
 10
4619.2438020754761965
 20
192.0863855392643984
 30
0.0
  9
$EXTMAX
 10
4642.3112351463769301
 20
198.107480667828014
 30
0.0
  9
$LIMMIN
 10
0.0
 20
0.0
  9
$LIMMAX
 10
11.6929133858000007
 20
8.2677165353999982
  9
$ORTHOMODE
 70
     1
  9
$REGENMODE
 70
     1
  9
$FILLMODE
 70
     1
  9
$QTEXTMODE
 70
     0
  9
$MIRRTEXT
 70
     0
  9
$DRAGMODE
 70
     2
  9
$LTSCALE
 40
0.6431102362
  9
$OSMODE
 70
  4095
  9
$ATTMODE
 70
     1
  9
$TEXTSIZE
 40
0.2
  9
$TRACEWID
 40
0.05
  9
$TEXTSTYLE
  7
STANDARD
  9
$CLAYER
  8
0
  9
$CELTYPE
  6
BYLAYER
  9
$CECOLOR
 62
   256
  9
$DIMSCALE
 40
1.0
  9
$DIMASZ
 40
0.1875
  9
$DIMEXO
 40
0.0625
  9
$DIMDLI
 40
0.4443307087
  9
$DIMRND
 40
0.0
  9
$DIMDLE
 40
0.0
  9
$DIMEXE
 40
0.125
  9
$DIMTP
 40
0.01
  9
$DIMTM
 40
0.01
  9
$DIMTXT
 40
2.0
  9
$DIMCEN
 40
0.1052362205
  9
$DIMTSZ
 40
0.0
  9
$DIMTOL
 70
     1
  9
$DIMLIM
 70
     0
  9
$DIMTIH
 70
     1
  9
$DIMTOH
 70
     1
  9
$DIMSE1
 70
     0
  9
$DIMSE2
 70
     0
  9
$DIMTAD
 70
     0
  9
$DIMZIN
 70
     0
  9
$DIMBLK
  1

  9
$DIMASO
 70
     1
  9
$DIMSHO
 70
     1
  9
$DIMPOST
  1
\X
  9
$DIMAPOST
  1

  9
$DIMALT
 70
     1
  9
$DIMALTD
 70
     2
  9
$DIMALTF
 40
25.3999999999999986
  9
$DIMLFAC
 40
1.0
  9
$DIMTOFL
 70
     0
  9
$DIMTVP
 40
0.0
  9
$DIMTIX
 70
     0
  9
$DIMSOXD
 70
     0
  9
$DIMSAH
 70
     0
  9
$DIMBLK1
  1

  9
$DIMBLK2
  1

  9
$DIMSTYLE
  2
STANDARD
  9
$DIMCLRD
 70
     0
  9
$DIMCLRE
 70
     0
  9
$DIMCLRT
 70
     0
  9
$DIMTFAC
 40
1.0
  9
$DIMGAP
 40
0.09
  9
$LUNITS
 70
     2
  9
$LUPREC
 70
     4
  9
$SKETCHINC
 40
0.1
  9
$FILLETRAD
 40
0.0
  9
$AUNITS
 70
     0
  9
$AUPREC
 70
     0
  9
$MENU
  1
.
  9
$ELEVATION
 40
0.0
  9
$PELEVATION
 40
0.0
  9
$THICKNESS
 40
0.0
  9
$LIMCHECK
 70
     0
  9
$BLIPMODE
 70
     0
  9
$CHAMFERA
 40
0.0
  9
$CHAMFERB
 40
0.0
  9
$SKPOLY
 70
     0
  9
$TDCREATE
 40
2458060.468368056230247
  9
$TDUPDATE
 40
2459202.7030439819209278
  9
$TDINDWG
 40
0.3450186343
  9
$TDUSRTIMER
 40
0.3450186343
  9
$USRTIMER
 70
     1
  9
$ANGBASE
 50
0.0
  9
$ANGDIR
 70
     0
  9
$PDMODE
 70
     0
  9
$PDSIZE
 40
0.3125
  9
$PLINEWID
 40
0.0
  9
$COORDS
 70
     1
  9
$SPLFRAME
 70
     0
  9
$SPLINETYPE
 70
     6
  9
$SPLINESEGS
 70
     8
  9
$ATTDIA
 70
     1
  9
$ATTREQ
 70
     1
  9
$HANDLING
 70
     1
  9
$HANDSEED
  5
C587
  9
$SURFTAB1
 70
     6
  9
$SURFTAB2
 70
     6
  9
$SURFTYPE
 70
     6
  9
$SURFU
 70
     6
  9
$SURFV
 70
     6
  9
$UCSNAME
  2

  9
$UCSORG
 10
0.0
 20
0.0
 30
0.0
  9
$UCSXDIR
 10
1.0
 20
0.0
 30
0.0
  9
$UCSYDIR
 10
0.0
 20
1.0
 30
0.0
  9
$PUCSNAME
  2

  9
$PUCSORG
 10
0.0
 20
0.0
 30
0.0
  9
$PUCSXDIR
 10
1.0
 20
0.0
 30
0.0
  9
$PUCSYDIR
 10
0.0
 20
1.0
 30
0.0
  9
$USERI1
 70
     0
  9
$USERI2
 70
     0
  9
$USERI3
 70
     0
  9
$USERI4
 70
     0
  9
$USERI5
 70
     0
  9
$USERR1
 40
0.0
  9
$USERR2
 40
0.0
  9
$USERR3
 40
0.0
  9
$USERR4
 40
0.0
  9
$USERR5
 40
0.0
  9
$WORLDVIEW
 70
     1
  9
$SHADEDGE
 70
     3
  9
$SHADEDIF
 70
    70
  9
$TILEMODE
 70
     1
  9
$MAXACTVP
 70
    64
  9
$PLIMCHECK
 70
     0
  9
$PEXTMIN
 10
1.0000000000000000E+20
 20
1.0000000000000000E+20
 30
1.0000000000000000E+20
  9
$PEXTMAX
 10
-1.0000000000000000E+20
 20
-1.0000000000000000E+20
 30
-1.0000000000000000E+20
  9
$PLIMMIN
 10
0.0
 20
0.0
  9
$PLIMMAX
 10
12.0
 20
9.0
  9
$UNITMODE
 70
     0
  9
$VISRETAIN
 70
     1
  9
$PLINEGEN
 70
     0
  9
$PSLTSCALE
 70
     1
  0
ENDSEC
  0
SECTION
  2
TABLES
  0
TABLE
  2
VPORT
 70
     1
  0
VPORT
  2
*ACTIVE
 70
     0
 10
0.0
 20
0.0
 11
1.0
 21
1.0
 12
0.0
 22
0.0
 13
0.0
 23
0.0
 14
1.0
 24
1.0
 15
0.0
 25
0.0
 16
0.0
 26
0.0
 36
67.4932469882920003
 17
4630.777587890625
 27
195.0969303363553138
 37
0.0
 40
23.8218184966129485
 41
2.1186252771618621
 42
50.0
 43
0.0
 44
0.0
 50
0.0
 51
0.0
 71
     0
 72
   100
 73
     1
 74
     1
 75
     0
 76
     0
 77
     0
 78
     0
  0
ENDTAB
  0
TABLE
  2
LTYPE
 70
     2
  0
LTYPE
  2
CONTINUOUS
 70
     0
  3
Solid line
 72
    65
 73
     0
 40
0.0
  0
LTYPE
  2
PHANTOM2
 70
     0
  3
___ _ _ ___ _ _ ___ _ _ ___ _ _
 72
    65
 73
     6
 40
1.25
 49
0.625
 49
-0.125
 49
0.125
 49
-0.125
 49
0.125
 49
-0.125
  0
ENDTAB
  0
TABLE
  2
LAYER
 70
     2
  0
LAYER
  2
0
 70
     0
 62
   255
  6
CONTINUOUS
  0
LAYER
  2
DEFPOINTS
 70
     0
 62
     7
  6
CONTINUOUS
  0
ENDTAB
  0
TABLE
  2
STYLE
 70
     1
  0
STYLE
  2
STANDARD
 70
     0
 40
0.0
 41
0.8
 50
0.0
 71
     0
 42
0.2
  3
txt
  4

  0
ENDTAB
  0
TABLE
  2
VIEW
 70
     0
  0
ENDTAB
  0
TABLE
  2
UCS
 70
     0
  0
ENDTAB
  0
TABLE
  2
APPID
 70
     9
  0
APPID
  2
ACAD
 70
     0
  0
APPID
  2
ACAD_MLEADERVER
 70
     0
  0
APPID
  2
ACAD_EXEMPT_FROM_CAD_STANDARDS
 70
     0
  0
APPID
  2
ACAD_NAV_VCDISPLAY
 70
     0
  0
APPID
  2
ACAECLAYERSTANDARD
 70
     0
  0
APPID
  2
ACCMTRANSPARENCY
 70
     0
  0
APPID
  2
ACAD_DSTYLE_DIMJAG
 70
     0
  0
APPID
  2
ACAD_DSTYLE_DIMTALN
 70
     0
  0
APPID
  2
ACDBATTR
 70
     0
  0
ENDTAB
  0
TABLE
  2
DIMSTYLE
 70
     1
  0
DIMSTYLE
  2
STANDARD
 70
     0
  3

  4

  5

  6

  7

 40
1.0
 41
0.1875
 42
0.0625
 43
0.38
 44
0.125
 45
0.0
 46
0.0
 47
0.01
 48
0.01
140
0.15625
141
0.09
142
0.0
143
25.3999999999999986
144
1.0
145
0.0
146
1.0
147
0.09
 71
     1
 72
     0
 73
     1
 74
     1
 75
     0
 76
     0
 77
     0
 78
     4
170
     0
171
     2
172
     0
173
     0
174
     0
175
     0
176
     0
177
     0
178
     0
  0
ENDTAB
  0
ENDSEC
  0
SECTION
  2
BLOCKS
  0
BLOCK
  8
0
  2
$MODEL_SPACE
 70
     0
 10
0.0
 20
0.0
 30
0.0
  3
$MODEL_SPACE
  1

  0
ENDBLK
  5
21
  8
0
  0
BLOCK
 67
     1
  8
0
  2
$PAPER_SPACE
 70
     0
 10
0.0
 20
0.0
 30
0.0
  3
$PAPER_SPACE
  1

  0
ENDBLK
  5
1D
 67
     1
  8
0
  0
ENDSEC
  0
SECTION
  2
ENTITIES
  0
ATTDEF
  5
3930
  8
DEFPOINTS
 10
4630.7748908876737914
 20
198.1064806678278956
 30
0.0
 40
0.001
  1
K-10572
  3

  2
MODELNUMBER
 70
     0
1001
ACDBATTR
1070
     0
1070
     1
  0
ATTDEF
  5
3931
  8
DEFPOINTS
 10
4630.7748908876737914
 20
198.104814001161202
 30
0.0
 40
0.001
  1
DEVONSHIRE
  3

  2
TRADENAME
 70
     0
1001
ACDBATTR
1070
     0
1070
     1
  0
ATTDEF
  5
3932
  8
DEFPOINTS
 10
4630.7748908876737914
 20
198.1031473344945084
 30
0.0
 40
0.001
  1
SCONCE
  3

  2
PRODUCT
 70
     0
1001
ACDBATTR
1070
     0
1070
     1
  0
ARC
  5
C3F8
  8
0
 10
4630.777518610975676
 20
194.5470154605644098
 30
0.0
 40
0.6574015901
 50
253.3751474160632995
 51
269.9999999956227157
  0
ARC
  5
C3F9
  8
0
 10
4621.7044319967762931
 20
194.5470154605644098
 30
0.0
 40
2.4606299212999989
 50
90.0
 51
270.0
  0
ARC
  5
C3FA
  8
0
 10
4621.7044319967762931
 20
194.5470154605644098
 30
0.0
 40
2.3818716414000001
 50
90.0
 51
270.0
  0
ARC
  5
C3FB
  8
0
 10
4621.7044319967762931
 20
194.5470154605644098
 30
0.0
 40
1.5700000000000001
 50
90.0
 51
270.0
  0
ARC
  5
C3FC
  8
0
 10
4621.7044319967762931
 20
194.5470154605644098
 30
0.0
 40
1.429999999999999
 50
90.0
 51
270.0
  0
ARC
  5
C3FD
  8
0
 10
4621.7044319967762931
 20
194.5470154605644098
 30
0.0
 40
1.3518181806
 50
90.0
 51
270.0
  0
ARC
  5
C3FE
  8
0
 10
4621.7044319967762931
 20
194.5470154605644098
 30
0.0
 40
1.310643388299999
 50
90.0
 51
270.0
  0
ARC
  5
C3FF
  8
0
 10
4621.7044319967762931
 20
194.5470154605644098
 30
0.0
 40
1.2122683853
 50
90.0
 51
270.0
  0
ARC
  5
C400
  8
0
 10
4621.7044319967762931
 20
194.5470154605644098
 30
0.0
 40
0.695
 50
90.0
 51
270.0
  0
ARC
  5
C401
  8
0
 10
4621.7044319967762931
 20
194.5470154605644098
 30
0.0
 40
0.6360000000000001
 50
90.0
 51
270.0
  0
ARC
  5
C402
  8
0
 10
4621.7044319967762931
 20
194.5470154605644098
 30
0.0
 40
0.5375
 50
90.0
 51
270.0
  0
ARC
  5
C403
  8
0
 10
4621.7044319967762931
 20
194.5470154605644098
 30
0.0
 40
0.4480498863000001
 50
90.0
 51
270.0
  0
ARC
  5
C404
  8
0
 10
4621.7044319967762931
 20
194.5470154605644098
 30
0.0
 40
0.3749991462
 50
90.0
 51
270.0
  0
ARC
  5
C405
  8
0
 10
4621.7044319967762931
 20
194.5470154605644098
 30
0.0
 40
2.4606299212999989
 50
270.0
 51
351.2571526895030161
  0
ARC
  5
C406
  8
0
 10
4621.7044319967762931
 20
194.5470154605644098
 30
0.0
 40
2.4606299212999989
 50
8.7428473147495076
 51
90.0
  0
ARC
  5
C407
  8
0
 10
4621.7044319967762931
 20
194.5470154605644098
 30
0.0
 40
2.3818716414000001
 50
270.0
 51
350.9656841329273789
  0
ARC
  5
C408
  8
0
 10
4621.7044319967762931
 20
194.5470154605644098
 30
0.0
 40
2.3818716414000001
 50
9.0343158714698095
 51
90.0
  0
ARC
  5
C409
  8
0
 10
4621.7044319967762931
 20
194.5470154605644098
 30
0.0
 40
1.5700000000000001
 50
270.0
 51
346.2181040632614781
  0
ARC
  5
C40A
  8
0
 10
4621.7044319967762931
 20
194.5470154605644098
 30
0.0
 40
1.5700000000000001
 50
13.7818959435239599
 51
90.0
  0
ARC
  5
C40B
  8
0
 10
4621.7044319967762931
 20
194.5470154605644098
 30
0.0
 40
1.429999999999999
 50
270.0
 51
344.8379776670706178
  0
ARC
  5
C40C
  8
0
 10
4621.7044319967762931
 20
194.5470154605644098
 30
0.0
 40
1.429999999999999
 50
15.1620223404185595
 51
90.0
  0
ARC
  5
C40D
  8
0
 10
4621.7044319967762931
 20
194.5470154605644098
 30
0.0
 40
1.3518181806
 50
270.0
 51
343.9380777963704077
  0
ARC
  5
C40E
  8
0
 10
4621.7044319967762931
 20
194.5470154605644098
 30
0.0
 40
1.3518181806
 50
16.06192221159165
 51
90.0
  0
ARC
  5
C40F
  8
0
 10
4621.7044319967762931
 20
194.5470154605644098
 30
0.0
 40
1.310643388299999
 50
270.0
 51
343.4191500486522273
  0
ARC
  5
C410
  8
0
 10
4621.7044319967762931
 20
194.5470154605644098
 30
0.0
 40
1.310643388299999
 50
16.5808499595997887
 51
90.0
  0
ARC
  5
C411
  8
0
 10
4621.7044319967762931
 20
194.5470154605644098
 30
0.0
 40
1.2122683853
 50
270.0
 51
342.0296053757965069
  0
ARC
  5
C412
  8
0
 10
4621.7044319967762931
 20
194.5470154605644098
 30
0.0
 40
1.2122683853
 50
17.9703946331769693
 51
90.0
  0
ARC
  5
C413
  8
0
 10
4621.7044319967762931
 20
194.5470154605644098
 30
0.0
 40
0.695
 50
270.0
 51
329.5923064780919844
  0
ARC
  5
C414
  8
0
 10
4621.7044319967762931
 20
194.5470154605644098
 30
0.0
 40
0.695
 50
30.4076935372799397
 51
90.0
  0
ARC
  5
C415
  8
0
 10
4621.7044319967762931
 20
194.5470154605644098
 30
0.0
 40
0.6360000000000001
 50
270.0
 51
330.6495328605774944
  0
ARC
  5
C416
  8
0
 10
4621.7044319967762931
 20
194.5470154605644098
 30
0.0
 40
0.6360000000000001
 50
29.32290906625704
 51
90.0
  0
ARC
  5
C417
  8
0
 10
4621.7044319967762931
 20
194.5470154605644098
 30
0.0
 40
0.5375
 50
270.0
 51
325.4866372277044206
  0
ARC
  5
C418
  8
0
 10
4621.7044319967762931
 20
194.5470154605644098
 30
0.0
 40
0.5375
 50
34.3328580302199384
 51
90.0
  0
ARC
  5
C419
  8
0
 10
4621.7044319967762931
 20
194.5470154605644098
 30
0.0
 40
0.4480498863000001
 50
270.0
 51
317.9170636043539275
  0
ARC
  5
C41A
  8
0
 10
4621.7044319967762931
 20
194.5470154605644098
 30
0.0
 40
0.4480498863000001
 50
41.871527553025139
 51
90.0
  0
ARC
  5
C41B
  8
0
 10
4621.7044319967762931
 20
194.5470154605644098
 30
0.0
 40
0.3749991462
 50
270.0
 51
307.1587007687539881
  0
ARC
  5
C41C
  8
0
 10
4621.7044319967762931
 20
194.5470154605644098
 30
0.0
 40
0.3749991462
 50
52.8957272466578132
 51
90.0
  0
LINE
  5
C41D
  8
0
 10
4622.3069693929755886
 20
194.8993025152547034
 30
0.0
 11
4622.3479438077765735
 21
194.9025272716546908
 31
0.0
  0
LINE
  5
C41E
  8
0
 10
4622.4660540440218028
 20
194.9210312086528916
 30
0.0
 11
4630.0885422329756693
 21
194.9210312086626118
 31
0.0
  0
LINE
  5
C41F
  8
0
 10
4622.2747154612752638
 20
194.2296205127547069
 30
0.0
 11
4622.2747154612752638
 21
194.8644104085547042
 31
0.0
  0
LINE
  5
C420
  8
0
 10
4622.3479438077765735
 20
194.1767239909547129
 30
0.0
 11
4622.3479438077765735
 21
194.9173069303546981
 31
0.0
  0
LINE
  5
C421
  8
0
 10
4622.4660540439263059
 20
194.1462280589065017
 30
0.0
 11
4622.4660540440263503
 21
194.9478028622222041
 31
0.0
  0
ARC
  5
C422
  8
0
 10
4622.4109359337771821
 20
194.9173069303546981
 30
0.0
 40
0.062992126
 50
28.9550243718905911
 51
180.0
  0
ARC
  5
C423
  8
0
 10
4622.3113048310642625
 20
194.8629412102359026
 30
0.0
 40
0.0366188547759797
 50
96.7994018775837333
 51
177.7005981224411926
  0
LINE
  5
C424
  8
0
 10
4622.3069693929755886
 20
194.1947284060547076
 30
0.0
 11
4622.3479438077765735
 21
194.1915036496546918
 31
0.0
  0
LINE
  5
C425
  8
0
 10
4622.4660540439299439
 20
194.1729997126564058
 30
0.0
 11
4630.0885422329756693
 21
194.1729997126467993
 31
0.0
  0
ARC
  5
C426
  8
0
 10
4622.4109359337771821
 20
194.1767239909547129
 30
0.0
 40
0.062992126
 50
180.0
 51
331.0449756281093983
  0
ARC
  5
C427
  8
0
 10
4622.3113048310642625
 20
194.2310897110735084
 30
0.0
 40
0.0366188547759797
 50
182.2994018775571021
 51
263.2005981224162952
  0
ARC
  5
C428
  8
0
 10
4621.9849030952800604
 20
197.7635322523373986
 30
0.0
 40
2.9179446480929769
 50
268.9347762565803919
 51
275.7000559196731047
  0
ARC
  5
C429
  8
0
 10
4621.9261680940117003
 20
189.9456658632456936
 30
0.0
 40
4.3024908584042674
 50
85.3533425740659339
 51
89.9364425932700158
  0
LINE
  5
C42A
  8
0
 10
4628.3746668386256715
 20
197.7108390185643998
 30
0.0
 11
4628.3617429328269282
 21
198.0055040705643989
 31
0.0
  0
LINE
  5
C42B
  8
0
 10
4628.3617429328269282
 20
198.0055040705643989
 30
0.0
 11
4628.357518610925581
 21
198.1018186101644005
 31
0.0
  0
LINE
  5
C42C
  8
0
 10
4628.816452016497351
 20
197.2044836400635006
 30
0.0
 11
4628.7622172907258573
 21
197.364567118864386
 31
0.0
  0
LINE
  5
C42D
  8
0
 10
4630.1611800282271361
 20
196.8280879016643894
 30
0.0
 11
4630.1611800282271361
 21
196.8718186101644108
 31
0.0
  0
LINE
  5
C42E
  8
0
 10
4630.3285028629252338
 20
196.6229161554643952
 30
0.0
 11
4630.3285028629252338
 21
196.6395351456644107
 31
0.0
  0
LINE
  5
C42F
  8
0
 10
4630.4035028629277804
 20
195.1729756027010865
 30
0.0
 11
4630.4035028629268709
 21
196.5450469566644074
 31
0.0
  0
LINE
  5
C430
  8
0
 10
4630.3757522122259616
 20
196.5450469566644074
 30
0.0
 11
4631.1792850096262555
 21
196.5450469566644074
 31
0.0
  0
LINE
  5
C431
  8
0
 10
4631.2265343589251643
 20
196.6395351456644107
 30
0.0
 11
4630.3285028629252338
 21
196.6395351456644107
 31
0.0
  0
LINE
  5
C432
  8
0
 10
4630.2680697920968669
 20
196.7186690038643917
 30
0.0
 11
4631.2869674297517122
 21
196.7186690038643917
 31
0.0
  0
LINE
  5
C433
  8
0
 10
4631.3938571936269
 20
196.8718186101644108
 30
0.0
 11
4630.1611800282271361
 21
196.8718186101644108
 31
0.0
  0
LINE
  5
C434
  8
0
 10
4628.9067647111269252
 20
197.1035572595644112
 30
0.0
 11
4632.6482725107262013
 21
197.1035572595644112
 31
0.0
  0
LINE
  5
C435
  8
0
 10
4632.7131483623879831
 20
197.1755880394644009
 30
0.0
 11
4628.8418888594269447
 21
197.1755880394644009
 31
0.0
  0
LINE
  5
C436
  8
0
 10
4628.5398432767269696
 20
197.5406353455643966
 30
0.0
 11
4633.0151939456500259
 21
197.5406353455643966
 31
0.0
  0
LINE
  5
C437
  8
0
 10
4633.1225668347306055
 20
197.6465775514643894
 30
0.0
 11
4628.432470387126159
 21
197.6465775514643894
 31
0.0
  0
LINE
  5
C438
  8
0
 10
4633.1975186109257265
 20
198.1018186101644005
 30
0.0
 11
4628.357518610925581
 21
198.1018186101644005
 31
0.0
  0
ARC
  5
C439
  8
0
 10
4628.5150186109267452
 20
197.2808186101644026
 30
0.0
 40
0.261
 50
18.7158803976932795
 51
84.5421381488760488
  0
ARC
  5
C43A
  8
0
 10
4630.274387988082708
 20
196.8317601529614933
 30
0.0
 40
0.1132675046276792
 50
181.8579148449630054
 51
266.8023135811225188
  0
ARC
  5
C43B
  8
0
 10
4630.3568946079003581
 20
196.7238601395877993
 30
0.0
 40
0.088976377792205
 50
183.3446985656767083
 51
251.3919138650502134
  0
ARC
  5
C43C
  8
0
 10
4630.4162897741343841
 20
196.6229138164920016
 30
0.0
 40
0.0877869112386374
 50
179.9984734256784122
 51
242.498471436439587
  0
ARC
  5
C43D
  8
0
 10
4628.9367685556780998
 20
197.1830856778929899
 30
0.0
 40
0.0850000000571188
 50
195.8089317015611073
 51
249.3299137619960106
  0
ARC
  5
C43E
  8
0
 10
4628.8638080854261716
 20
197.2205274156644066
 30
0.0
 40
0.05
 50
198.7158803976932973
 51
243.9991474718000006
  0
ARC
  5
C43F
  8
0
 10
4628.8309292466256011
 20
197.1531183512643963
 30
0.0
 40
0.025
 50
15.8089318196973405
 51
63.9991476511876911
  0
ARC
  5
C440
  8
0
 10
4630.2481848313591399
 20
200.8537631626226982
 30
0.0
 40
3.982894959024224
 50
250.318256540685411
 51
268.748296247577116
  0
ARC
  5
C441
  8
0
 10
4628.4180186109260831
 20
197.5506601590643925
 30
0.0
 40
0.097
 50
8.6010390968008981
 51
81.4317514871157755
  0
ARC
  5
C442
  8
0
 10
4628.445897807104302
 20
197.7167836314822864
 30
0.0
 40
0.0714785932257865
 50
184.7705904876413001
 51
259.1725246494681869
  0
ARC
  5
C443
  8
0
 10
4628.5444565737552693
 20
197.5714635322742083
 30
0.0
 40
0.0311714549968532
 50
191.6540725183990901
 51
261.4891041620156216
  0
ARC
  5
C444
  8
0
 10
4630.7775186109256538
 20
194.5470154605644098
 30
0.0
 40
2.4606299212999989
 50
108.6031004946080998
 51
171.2571526851201895
  0
ARC
  5
C445
  8
0
 10
4630.7775186109256538
 20
194.5470154605644098
 30
0.0
 40
2.4606299212999989
 50
188.7428473106193962
 51
270.0
  0
ARC
  5
C446
  8
0
 10
4630.7775186109256538
 20
194.5470154605644098
 30
0.0
 40
2.3818716414000001
 50
104.9966340415556942
 51
170.9656841283982942
  0
ARC
  5
C447
  8
0
 10
4630.7775186109256538
 20
194.5470154605644098
 30
0.0
 40
2.3818716414000001
 50
189.0343158672044979
 51
270.0
  0
ARC
  5
C448
  8
0
 10
4630.7775186109256538
 20
194.5470154605644098
 30
0.0
 40
1.5700000000000001
 50
103.781895940159302
 51
166.2181040561899863
  0
ARC
  5
C449
  8
0
 10
4630.7775186109256538
 20
194.5470154605644098
 30
0.0
 40
1.5700000000000001
 50
193.7818959370214031
 51
270.0
  0
ARC
  5
C44A
  8
0
 10
4630.7775186109256538
 20
194.5470154605644098
 30
0.0
 40
1.429999999999999
 50
105.162022336656193
 51
164.8379776592429096
  0
ARC
  5
C44B
  8
0
 10
4630.7775186109256538
 20
194.5470154605644098
 30
0.0
 40
1.429999999999999
 50
195.1620223332525939
 51
270.0
  0
ARC
  5
C44C
  8
0
 10
4630.7775186109256538
 20
194.5470154605644098
 30
0.0
 40
1.3518181806
 50
106.0619222076073953
 51
163.9380777880431026
  0
ARC
  5
C44D
  8
0
 10
4630.7775186109256538
 20
194.5470154605644098
 30
0.0
 40
1.3518181806
 50
196.0619222039933049
 51
270.0
  0
ARC
  5
C44E
  8
0
 10
4630.7775186109256538
 20
194.5470154605644098
 30
0.0
 40
1.310643388299999
 50
106.5808499554977971
 51
163.4191500400208099
  0
ARC
  5
C44F
  8
0
 10
4630.7775186109256538
 20
194.5470154605644098
 30
0.0
 40
1.310643388299999
 50
196.5808499517418966
 51
270.0
  0
ARC
  5
C450
  8
0
 10
4630.7775186109256538
 20
194.5470154605644098
 30
0.0
 40
1.2122683853
 50
107.9703946286966953
 51
162.0296053664052067
  0
ARC
  5
C451
  8
0
 10
4630.7775186109256538
 20
194.5470154605644098
 30
0.0
 40
1.2122683853
 50
197.9703946246212922
 51
270.0
  0
LINE
  5
C452
  8
0
 10
4630.0885422329756693
 20
194.0844175437644026
 30
0.0
 11
4630.0885422329756693
 21
195.0096133774644045
 31
0.0
  0
LINE
  5
C453
  8
0
 10
4630.1477354324752014
 20
195.0686688423145085
 30
0.0
 11
4630.1477354324752014
 21
194.0253620787644024
 31
0.0
  0
LINE
  5
C454
  8
0
 10
4630.226337508576762
 20
195.1276886804650985
 30
0.0
 11
4630.226337508576762
 21
193.9663422407643907
 31
0.0
  0
LINE
  5
C455
  8
0
 10
4631.2794871148762468
 20
193.9170942007644101
 30
0.0
 11
4630.2755501069768798
 21
193.9170942007644101
 31
0.0
  0
ARC
  5
C456
  8
0
 10
4630.2239753027633924
 20
194.0450469559195028
 30
0.0
 40
0.0787401562359304
 50
194.4773905459933871
 51
271.7191321589119752
  0
ARC
  5
C457
  8
0
 10
4630.1504083148247446
 20
194.0872345550976092
 30
0.0
 40
0.0619301835635941
 50
182.6071062840715058
 51
267.526368363235008
  0
ARC
  5
C458
  8
0
 10
4630.2776531482077189
 20
193.9684083396851975
 30
0.0
 40
0.0513572160032789
 50
182.3056293232318126
 51
267.6531226400938976
  0
LINE
  5
C459
  8
0
 10
4630.3975186109755668
 20
195.176936720464397
 30
0.0
 11
4630.2755501069768798
 21
195.176936720464397
 31
0.0
  0
ARC
  5
C45A
  8
0
 10
4630.2239753027633924
 20
195.0489839653091906
 30
0.0
 40
0.0787401562359304
 50
88.2808678410879963
 51
165.5226094540066129
  0
ARC
  5
C45B
  8
0
 10
4630.1504083148247446
 20
195.0067963661311126
 30
0.0
 40
0.0619301835635941
 50
92.473631636764992
 51
177.3928937159284942
  0
ARC
  5
C45C
  8
0
 10
4630.2776531482077189
 20
195.1256225815436096
 30
0.0
 40
0.0513572160032789
 50
92.3468773599059887
 51
177.6943706767681022
  0
ARC
  5
C45D
  8
0
 10
4630.8218929681861482
 20
195.811558653711586
 30
0.0
 40
0.7634386636889556
 50
236.2291867198499915
 51
266.6678434253739169
  0
ARC
  5
C45E
  8
0
 10
4630.7775186108756316
 20
194.5470154605644098
 30
0.0
 40
0.6574015901
 50
270.0000000043772843
 51
286.6248525839366721
  0
ARC
  5
C45F
  8
0
 10
4639.8506052250768334
 20
194.5470154605644098
 30
0.0
 40
2.4606299212999989
 50
270.0
 51
90.0
  0
ARC
  5
C460
  8
0
 10
4639.8506052250768334
 20
194.5470154605644098
 30
0.0
 40
2.3818716414000001
 50
270.0
 51
90.0
  0
ARC
  5
C461
  8
0
 10
4639.8506052250768334
 20
194.5470154605644098
 30
0.0
 40
1.5700000000000001
 50
270.0
 51
90.0
  0
ARC
  5
C462
  8
0
 10
4639.8506052250768334
 20
194.5470154605644098
 30
0.0
 40
1.429999999999999
 50
270.0
 51
90.0
  0
ARC
  5
C463
  8
0
 10
4639.8506052250768334
 20
194.5470154605644098
 30
0.0
 40
1.3518181806
 50
270.0
 51
90.0
  0
ARC
  5
C464
  8
0
 10
4639.8506052250768334
 20
194.5470154605644098
 30
0.0
 40
1.310643388299999
 50
270.0
 51
90.0
  0
ARC
  5
C465
  8
0
 10
4639.8506052250768334
 20
194.5470154605644098
 30
0.0
 40
1.2122683853
 50
270.0
 51
90.0
  0
ARC
  5
C466
  8
0
 10
4639.8506052250768334
 20
194.5470154605644098
 30
0.0
 40
0.695
 50
270.0
 51
90.0
  0
ARC
  5
C467
  8
0
 10
4639.8506052250768334
 20
194.5470154605644098
 30
0.0
 40
0.6360000000000001
 50
270.0
 51
90.0
  0
ARC
  5
C468
  8
0
 10
4639.8506052250768334
 20
194.5470154605644098
 30
0.0
 40
0.5375
 50
270.0
 51
90.0
  0
ARC
  5
C469
  8
0
 10
4639.8506052250768334
 20
194.5470154605644098
 30
0.0
 40
0.4480498863000001
 50
270.0
 51
90.0
  0
ARC
  5
C46A
  8
0
 10
4639.8506052250768334
 20
194.5470154605644098
 30
0.0
 40
0.3749991462
 50
270.0
 51
90.0
  0
ARC
  5
C46B
  8
0
 10
4639.8506052250768334
 20
194.5470154605644098
 30
0.0
 40
2.4606299212999989
 50
188.7428473104970124
 51
270.0
  0
ARC
  5
C46C
  8
0
 10
4639.8506052250768334
 20
194.5470154605644098
 30
0.0
 40
2.4606299212999989
 50
90.0
 51
171.2571526852505031
  0
ARC
  5
C46D
  8
0
 10
4639.8506052250768334
 20
194.5470154605644098
 30
0.0
 40
2.3818716414000001
 50
189.0343158670725927
 51
270.0
  0
ARC
  5
C46E
  8
0
 10
4639.8506052250768334
 20
194.5470154605644098
 30
0.0
 40
2.3818716414000001
 50
90.0
 51
170.9656841285301994
  0
ARC
  5
C46F
  8
0
 10
4639.8506052250768334
 20
194.5470154605644098
 30
0.0
 40
1.5700000000000001
 50
193.7818959367384934
 51
270.0
  0
ARC
  5
C470
  8
0
 10
4639.8506052250768334
 20
194.5470154605644098
 30
0.0
 40
1.5700000000000001
 50
90.0
 51
166.218104056475994
  0
ARC
  5
C471
  8
0
 10
4639.8506052250768334
 20
194.5470154605644098
 30
0.0
 40
1.429999999999999
 50
195.1620223329294106
 51
270.0
  0
ARC
  5
C472
  8
0
 10
4639.8506052250768334
 20
194.5470154605644098
 30
0.0
 40
1.429999999999999
 50
90.0
 51
164.8379776595814121
  0
ARC
  5
C473
  8
0
 10
4639.8506052250768334
 20
194.5470154605644098
 30
0.0
 40
1.3518181806
 50
196.0619222036295923
 51
270.0
  0
ARC
  5
C474
  8
0
 10
4639.8506052250768334
 20
194.5470154605644098
 30
0.0
 40
1.3518181806
 50
90.0
 51
163.9380777884082931
  0
ARC
  5
C475
  8
0
 10
4639.8506052250768334
 20
194.5470154605644098
 30
0.0
 40
1.310643388299999
 50
196.5808499513476875
 51
270.0
  0
ARC
  5
C476
  8
0
 10
4639.8506052250768334
 20
194.5470154605644098
 30
0.0
 40
1.310643388299999
 50
90.0
 51
163.4191500404002113
  0
ARC
  5
C477
  8
0
 10
4639.8506052250768334
 20
194.5470154605644098
 30
0.0
 40
1.2122683853
 50
197.9703946242034078
 51
270.0
  0
ARC
  5
C478
  8
0
 10
4639.8506052250768334
 20
194.5470154605644098
 30
0.0
 40
1.2122683853
 50
90.0
 51
162.0296053668230059
  0
ARC
  5
C479
  8
0
 10
4639.8506052250768334
 20
194.5470154605644098
 30
0.0
 40
0.695
 50
210.4076935219079871
 51
270.0
  0
ARC
  5
C47A
  8
0
 10
4639.8506052250768334
 20
194.5470154605644098
 30
0.0
 40
0.695
 50
90.0
 51
149.5923064627199892
  0
ARC
  5
C47B
  8
0
 10
4639.8506052250768334
 20
194.5470154605644098
 30
0.0
 40
0.6360000000000001
 50
209.3504671394223919
 51
270.0
  0
ARC
  5
C47C
  8
0
 10
4639.8506052250768334
 20
194.5470154605644098
 30
0.0
 40
0.6360000000000001
 50
90.0
 51
150.6770909337429032
  0
ARC
  5
C47D
  8
0
 10
4639.8506052250768334
 20
194.5470154605644098
 30
0.0
 40
0.5375
 50
214.5133627722956078
 51
270.0
  0
ARC
  5
C47E
  8
0
 10
4639.8506052250768334
 20
194.5470154605644098
 30
0.0
 40
0.5375
 50
90.0
 51
145.6671419697800047
  0
ARC
  5
C47F
  8
0
 10
4639.8506052250768334
 20
194.5470154605644098
 30
0.0
 40
0.4480498863000001
 50
222.0829363956461009
 51
270.0
  0
ARC
  5
C480
  8
0
 10
4639.8506052250768334
 20
194.5470154605644098
 30
0.0
 40
0.4480498863000001
 50
90.0
 51
138.1284724469749108
  0
ARC
  5
C481
  8
0
 10
4639.8506052250768334
 20
194.5470154605644098
 30
0.0
 40
0.3749991462
 50
232.8412992312451024
 51
270.0
  0
ARC
  5
C482
  8
0
 10
4639.8506052250768334
 20
194.5470154605644098
 30
0.0
 40
0.3749991462
 50
90.0
 51
127.104272753342201
  0
LINE
  5
C483
  8
0
 10
4639.248067828875719
 20
194.8993025152547034
 30
0.0
 11
4639.207093414076553
 21
194.9025272716546908
 31
0.0
  0
LINE
  5
C484
  8
0
 10
4639.0889831778285952
 20
194.9210312086528916
 30
0.0
 11
4631.4664949888765477
 21
194.9210312086626118
 31
0.0
  0
LINE
  5
C485
  8
0
 10
4639.2803217605760437
 20
194.2296205127547069
 30
0.0
 11
4639.2803217605760437
 21
194.8644104085547042
 31
0.0
  0
LINE
  5
C486
  8
0
 10
4639.207093414076553
 20
194.1767239909547129
 30
0.0
 11
4639.207093414076553
 21
194.9173069303546981
 31
0.0
  0
LINE
  5
C487
  8
0
 10
4639.0889831779259111
 20
194.1462280589065017
 30
0.0
 11
4639.0889831778267762
 21
194.9478028622222041
 31
0.0
  0
ARC
  5
C488
  8
0
 10
4639.144101288076854
 20
194.9173069303546981
 30
0.0
 40
0.062992126
 50
0.0
 51
151.0449756281093983
  0
ARC
  5
C489
  8
0
 10
4639.2437323907897735
 20
194.8629412102359026
 30
0.0
 40
0.0366188547759797
 50
2.299401877558775
 51
83.2005981224162952
  0
LINE
  5
C48A
  8
0
 10
4639.248067828875719
 20
194.1947284060547076
 30
0.0
 11
4639.207093414076553
 21
194.1915036496546918
 31
0.0
  0
LINE
  5
C48B
  8
0
 10
4639.0889831779231827
 20
194.1729997126564058
 30
0.0
 11
4631.4664949888765477
 21
194.1729997126467993
 31
0.0
  0
ARC
  5
C48C
  8
0
 10
4639.144101288076854
 20
194.1767239909547129
 30
0.0
 40
0.062992126
 50
208.9550243718906017
 51
0.0
  0
ARC
  5
C48D
  8
0
 10
4639.2437323907897735
 20
194.2310897110735084
 30
0.0
 40
0.0366188547759797
 50
276.7994018775837048
 51
357.7005981224428979
  0
ARC
  5
C48E
  8
0
 10
4639.5701341265730662
 20
197.7635322523373986
 30
0.0
 40
2.9179446480929769
 50
264.2999440803268953
 51
271.0652237434196081
  0
ARC
  5
C48F
  8
0
 10
4639.6288691278396072
 20
189.9456658632456936
 30
0.0
 40
4.3024908584042674
 50
90.0635574067299842
 51
94.6466574259340945
  0
LINE
  5
C490
  8
0
 10
4633.180370383225636
 20
197.7108390185643998
 30
0.0
 11
4633.1932942890261984
 21
198.0055040705643989
 31
0.0
  0
LINE
  5
C491
  8
0
 10
4633.1932942890261984
 20
198.0055040705643989
 30
0.0
 11
4633.1975186109257265
 21
198.1018186101644005
 31
0.0
  0
LINE
  5
C492
  8
0
 10
4632.738585205354866
 20
197.2044836400635006
 30
0.0
 11
4632.7928199311263597
 21
197.364567118864386
 31
0.0
  0
LINE
  5
C493
  8
0
 10
4631.3938571936269
 20
196.8280879016643894
 30
0.0
 11
4631.3938571936269
 21
196.8718186101644108
 31
0.0
  0
LINE
  5
C494
  8
0
 10
4631.2265343589251643
 20
196.6229161554643952
 30
0.0
 11
4631.2265343589251643
 21
196.6395351456644107
 31
0.0
  0
LINE
  5
C495
  8
0
 10
4631.1515343589244367
 20
195.1729756027010865
 30
0.0
 11
4631.1515343589262557
 21
196.5450469566644074
 31
0.0
  0
ARC
  5
C496
  8
0
 10
4633.0400186109263814
 20
197.2808186101644026
 30
0.0
 40
0.261
 50
95.4578618511239654
 51
161.2841196023067027
  0
ARC
  5
C497
  8
0
 10
4631.2806492337685995
 20
196.8317601529614933
 30
0.0
 40
0.1132675046276792
 50
273.1976864188774812
 51
358.142085155037023
  0
ARC
  5
C498
  8
0
 10
4631.1981426139527684
 20
196.7238601395877993
 30
0.0
 40
0.088976377792205
 50
288.608086134949815
 51
356.655301434323178
  0
ARC
  5
C499
  8
0
 10
4631.138747447717833
 20
196.6229138164920016
 30
0.0
 40
0.0877869112386374
 50
297.5015285635603277
 51
0.0015265743216191
  0
ARC
  5
C49A
  8
0
 10
4632.6182686661750267
 20
197.1830856778929899
 30
0.0
 40
0.0850000000571188
 50
290.6700862380039894
 51
344.1910682984388927
  0
ARC
  5
C49B
  8
0
 10
4632.6912291364251359
 20
197.2205274156644066
 30
0.0
 40
0.05
 50
296.0008525282000278
 51
341.2841196023067027
  0
ARC
  5
C49C
  8
0
 10
4632.724107975226616
 20
197.1531183512643963
 30
0.0
 40
0.025
 50
116.0008523488123018
 51
164.191068180302608
  0
ARC
  5
C49D
  8
0
 10
4631.3068523904930771
 20
200.8537631626226982
 30
0.0
 40
3.982894959024224
 50
271.251703752422884
 51
289.681743459314589
  0
ARC
  5
C49E
  8
0
 10
4633.137018610926134
 20
197.5506601590643925
 30
0.0
 40
0.097
 50
98.5682485128842387
 51
171.3989609031991108
  0
ARC
  5
C49F
  8
0
 10
4633.1091394147488245
 20
197.7167836314822864
 30
0.0
 40
0.0714785932257865
 50
280.8274753505316994
 51
355.2294095123571083
  0
ARC
  5
C4A0
  8
0
 10
4633.0105806480978572
 20
197.5714635322742083
 30
0.0
 40
0.0311714549968532
 50
278.5108958379843784
 51
348.3459274816008246
  0
ARC
  5
C4A1
  8
0
 10
4630.7775186109256538
 20
194.5470154605644098
 30
0.0
 40
2.4606299212999989
 50
8.7428473148797501
 51
71.3968995053919002
  0
ARC
  5
C4A2
  8
0
 10
4630.7775186109256538
 20
194.5470154605644098
 30
0.0
 40
2.4606299212999989
 50
270.0
 51
351.2571526893805753
  0
ARC
  5
C4A3
  8
0
 10
4630.7775186109256538
 20
194.5470154605644098
 30
0.0
 40
2.3818716414000001
 50
9.0343158716016845
 51
75.0033659584442916
  0
ARC
  5
C4A4
  8
0
 10
4630.7775186109256538
 20
194.5470154605644098
 30
0.0
 40
2.3818716414000001
 50
270.0
 51
350.9656841327953885
  0
ARC
  5
C4A5
  8
0
 10
4630.7775186109256538
 20
194.5470154605644098
 30
0.0
 40
1.5700000000000001
 50
13.78189594380998
 51
76.2181040598406554
  0
ARC
  5
C4A6
  8
0
 10
4630.7775186109256538
 20
194.5470154605644098
 30
0.0
 40
1.5700000000000001
 50
270.0
 51
346.2181040629786253
  0
ARC
  5
C4A7
  8
0
 10
4630.7775186109256538
 20
194.5470154605644098
 30
0.0
 40
1.429999999999999
 50
15.16202234075703
 51
74.8379776633437359
  0
ARC
  5
C4A8
  8
0
 10
4630.7775186109256538
 20
194.5470154605644098
 30
0.0
 40
1.429999999999999
 50
270.0
 51
344.8379776667457008
  0
ARC
  5
C4A9
  8
0
 10
4630.7775186109256538
 20
194.5470154605644098
 30
0.0
 40
1.3518181806
 50
16.06192221195694
 51
73.9380777923921357
  0
ARC
  5
C4AA
  8
0
 10
4630.7775186109256538
 20
194.5470154605644098
 30
0.0
 40
1.3518181806
 50
270.0
 51
343.9380777960067235
  0
ARC
  5
C4AB
  8
0
 10
4630.7775186109256538
 20
194.5470154605644098
 30
0.0
 40
1.310643388299999
 50
16.5808499599791404
 51
73.4191500445022029
  0
ARC
  5
C4AC
  8
0
 10
4630.7775186109256538
 20
194.5470154605644098
 30
0.0
 40
1.310643388299999
 50
270.0
 51
343.4191500482580182
  0
ARC
  5
C4AD
  8
0
 10
4630.7775186109256538
 20
194.5470154605644098
 30
0.0
 40
1.2122683853
 50
17.9703946335948217
 51
72.0296053713032904
  0
ARC
  5
C4AE
  8
0
 10
4630.7775186109256538
 20
194.5470154605644098
 30
0.0
 40
1.2122683853
 50
270.0
 51
342.0296053753787078
  0
LINE
  5
C4AF
  8
0
 10
4631.4664949888765477
 20
194.0844175437644026
 30
0.0
 11
4631.4664949888765477
 21
195.0096133774644045
 31
0.0
  0
LINE
  5
C4B0
  8
0
 10
4631.4073017893751967
 20
195.0686688423145085
 30
0.0
 11
4631.4073017893751967
 21
194.0253620787644024
 31
0.0
  0
LINE
  5
C4B1
  8
0
 10
4631.3286997132763645
 20
195.1276886804650985
 30
0.0
 11
4631.3286997132763645
 21
193.9663422407643907
 31
0.0
  0
ARC
  5
C4B2
  8
0
 10
4631.3310619190897341
 20
194.0450469559195028
 30
0.0
 40
0.0787401562359304
 50
268.2808678410879111
 51
345.5226094540066129
  0
ARC
  5
C4B3
  8
0
 10
4631.404628907026563
 20
194.0872345550976092
 30
0.0
 40
0.0619301835635941
 50
272.473631636764992
 51
357.3928937159283805
  0
ARC
  5
C4B4
  8
0
 10
4631.2773840736435886
 20
193.9684083396851975
 30
0.0
 40
0.0513572160032789
 50
272.3468773599059887
 51
357.6943706767681874
  0
LINE
  5
C4B5
  8
0
 10
4631.1575186108757407
 20
195.176936720464397
 30
0.0
 11
4631.2794871148762468
 21
195.176936720464397
 31
0.0
  0
ARC
  5
C4B6
  8
0
 10
4631.3310619190897341
 20
195.0489839653091906
 30
0.0
 40
0.0787401562359304
 50
14.4773905459933907
 51
91.7191321589120037
  0
ARC
  5
C4B7
  8
0
 10
4631.404628907026563
 20
195.0067963661311126
 30
0.0
 40
0.0619301835635941
 50
2.607106284071548
 51
87.5263683632350364
  0
ARC
  5
C4B8
  8
0
 10
4631.2773840736435886
 20
195.1256225815436096
 30
0.0
 40
0.0513572160032789
 50
2.3056293232318561
 51
87.6531226400939971
  0
ARC
  5
C4B9
  8
0
 10
4630.7331442536660688
 20
195.811558653711586
 30
0.0
 40
0.7634386636889556
 50
273.3321565746260262
 51
303.7708132801499232
  0
ENDSEC
  0
EOF
