999
DXF file: C:\Users\sesa63760\Dev\_Creo\CAD\MCADID0000507_3D-CAD\drw0001_5.dxf
999
Pro/ENGINEER 2019471 by Parametric Technology Corporation
  0
SECTION
  2
HEADER
  9
$ACADVER
  1
AC1024
  9
$DWGCODEPAGE
  3
ANSI_1252
  9
$EXTMAX
 10
137.2613894042
 20
194.1268221574
 30
0.0
  9
$EXTMIN
 10
0.0
 20
0.0
 30
0.0
  9
$LIMMIN
 10
0.0
 20
0.0
  9
$LIMMAX
 10
137.2613894042
 20
194.1268221574
  9
$VIEWCTR
 10
68.6306947021
 20
97.0634110787
  9
$VIEWSIZE
 40
194.1268221574
  9
$CLAYER
  8
0
  9
$LTSCALE
 40
12.6541928517
  9
$CELTYPE
  6
BYLAYER
  9
$DIMSCALE
 40
1.0
  9
$DIMASZ
 40
1.6340641596
  9
$DIMEXO
 40
1.0
  9
$DIMDLI
 40
8.7428968794
  9
$DIMEXE
 40
1.0
  9
$DIMCEN
 40
2.070686103
  9
$DIMLFAC
 40
1.0
  9
$DIMBLK
  1
_FILLED
  9
$DIMALT
 70
0
  9
$DIMALTF
 40
0.0393700787
  9
$DIMTXT
 40
2.2876898234
  9
$DIMTOL
 70
1
  9
$DIMLIM
 70
0
  9
$DIMTFAC
 40
1.0
  9
$DIMTP
 40
0.01
  9
$DIMTM
 40
0.01
  9
$DIMGAP
 40
0.625
  9
$DIMDSEP
 70
46
  9
$AUNITS
 70
0
  9
$PDMODE
 70
3
  9
$PDSIZE
 40
0.3125
  9
$HANDSEED
  5
3FC
  9
$TILEMODE
 70
1
  9
$MEASUREMENT
 70
1
  9
$INSUNITS
 70
4
  0
ENDSEC
  0
SECTION
  2
CLASSES
  0
CLASS
  1
ACDBDICTIONARYWDFLT
  2
AcDbDictionaryWithDefault
  3
AutoCAD 2000
 90
0
 91
1
280
0
281
0
  0
CLASS
  1
ACDBPLACEHOLDER
  2
AcDbPlaceHolder
  3
AutoCAD 2000
 90
0
 91
1
280
0
281
0
  0
CLASS
  1
LAYOUT
  2
AcDbLayout
  3
AutoCAD 2000
 90
0
 91
0
280
0
281
0
  0
ENDSEC
  0
SECTION
  2
TABLES
  0
TABLE
  2
VPORT
  5
8
100
AcDbSymbolTable
 70
2
  0
VPORT
  5
1F4
100
AcDbSymbolTableRecord
100
AcDbViewportTableRecord
  2
*ACTIVE
 70
0
 10
0.0
 20
0.0
 11
1.0
 21
1.0
 12
68.6306947021
 22
97.0634110787
 13
0.0
 23
0.0
 14
1.0
 24
1.0
 15
0.0
 25
0.0
 16
0.0
 26
0.0
 36
1.0
 17
0.0
 27
0.0
 37
0.0
 40
194.1268221574
 41
0.7070707071
 42
50.0
 43
0.0
 44
0.0
 50
0.0
 51
0.0
 71
0
 72
100
 73
1
 74
1
 75
0
 76
0
 77
0
 78
0
  0
ENDTAB
  0
TABLE
  2
LTYPE
  5
5
100
AcDbSymbolTable
 70
6
  0
LTYPE
  5
14
100
AcDbSymbolTableRecord
100
AcDbLinetypeTableRecord
  2
BYBLOCK
 70
0
  3

 72
65
 73
0
 40
0.0
  0
LTYPE
  5
15
100
AcDbSymbolTableRecord
100
AcDbLinetypeTableRecord
  2
BYLAYER
 70
0
  3

 72
65
 73
0
 40
0.0
  0
LTYPE
  5
16
100
AcDbSymbolTableRecord
100
AcDbLinetypeTableRecord
  2
CONTINUOUS
 70
64
  3
Solid line
 72
65
 73
0
 40
0.0
  0
LTYPE
  5
1F5
100
AcDbSymbolTableRecord
100
AcDbLinetypeTableRecord
  2
CENTER
 70
64
  3
____ _ ____ _ ____ _ ____ _ ____ _ ____ _ ____
 72
65
 73
4
 40
0.6
 49
0.375
 74
0
 49
-0.075
 74
0
 49
0.075
 74
0
 49
-0.075
 74
0
  0
LTYPE
  5
1F6
100
AcDbSymbolTableRecord
100
AcDbLinetypeTableRecord
  2
HIDDEN
 70
64
  3
- - - - - - - - - - - - - - - - - - - -
 72
65
 73
2
 40
0.2
 49
0.1
 74
0
 49
-0.1
 74
0
  0
LTYPE
  5
1F7
100
AcDbSymbolTableRecord
100
AcDbLinetypeTableRecord
  2
PHANTOM
 70
64
  3
_____ _ _ _____ _ _ _____ _ _ _____
 72
65
 73
6
 40
0.8
 49
0.45
 74
0
 49
-0.05
 74
0
 49
0.1
 74
0
 49
-0.05
 74
0
 49
0.1
 74
0
 49
-0.05
 74
0
  0
LTYPE
  5
1F8
100
AcDbSymbolTableRecord
100
AcDbLinetypeTableRecord
  2
DOT
 70
64
  3
. . . . . . . . . . . . . . . . . . . .
 72
65
 73
2
 40
0.2
 49
0.1
 74
0
 49
-0.1
 74
0
  0
LTYPE
  5
1F9
100
AcDbSymbolTableRecord
100
AcDbLinetypeTableRecord
  2
DASHED
 70
64
  3
- - - - - - - - - - - - - - - - - - - -
 72
65
 73
2
 40
0.2
 49
0.1
 74
0
 49
-0.1
 74
0
  0
ENDTAB
  0
TABLE
  2
LAYER
  5
2
100
AcDbSymbolTable
 70
36
  0
LAYER
  5
10
100
AcDbSymbolTableRecord
100
AcDbLayerTableRecord
  2
0
 70
0
 62
7
  6
CONTINUOUS
370
-3
390
F
  0
LAYER
  5
1FA
100
AcDbSymbolTableRecord
100
AcDbLayerTableRecord
  2
DEFAULT_1
 70
0
 62
7
  6
CENTER
370
-3
390
F
  0
LAYER
  5
1FB
100
AcDbSymbolTableRecord
100
AcDbLayerTableRecord
  2
DEFAULT_2
 70
0
 62
8
  6
HIDDEN
370
-3
390
F
  0
LAYER
  5
1FC
100
AcDbSymbolTableRecord
100
AcDbLayerTableRecord
  2
DEFAULT_3
 70
0
 62
7
  6
PHANTOM
370
-3
390
F
  0
LAYER
  5
1FD
100
AcDbSymbolTableRecord
100
AcDbLayerTableRecord
  2
00_COMPONENTS
 70
0
 62
7
  6
CONTINUOUS
370
-3
390
F
  0
LAYER
  5
1FE
100
AcDbSymbolTableRecord
100
AcDbLayerTableRecord
  2
01_1_DEFAULT_DATUMS
 70
0
 62
7
  6
CONTINUOUS
370
-3
390
F
  0
LAYER
  5
1FF
100
AcDbSymbolTableRecord
100
AcDbLayerTableRecord
  2
01_PLANES
 70
0
 62
7
  6
CONTINUOUS
370
-3
390
F
  0
LAYER
  5
200
100
AcDbSymbolTableRecord
100
AcDbLayerTableRecord
  2
02_COORD_SYS
 70
0
 62
7
  6
CONTINUOUS
370
-3
390
F
  0
LAYER
  5
201
100
AcDbSymbolTableRecord
100
AcDbLayerTableRecord
  2
03_AXES
 70
0
 62
7
  6
CONTINUOUS
370
-3
390
F
  0
LAYER
  5
202
100
AcDbSymbolTableRecord
100
AcDbLayerTableRecord
  2
04_POINTS
 70
0
 62
7
  6
CONTINUOUS
370
-3
390
F
  0
LAYER
  5
203
100
AcDbSymbolTableRecord
100
AcDbLayerTableRecord
  2
05_CURVES
 70
0
 62
7
  6
CONTINUOUS
370
-3
390
F
  0
LAYER
  5
204
100
AcDbSymbolTableRecord
100
AcDbLayerTableRecord
  2
06_SURFS
 70
0
 62
7
  6
CONTINUOUS
370
-3
390
F
  0
LAYER
  5
205
100
AcDbSymbolTableRecord
100
AcDbLayerTableRecord
  2
07_COSMETICS
 70
0
 62
7
  6
CONTINUOUS
370
-3
390
F
  0
LAYER
  5
206
100
AcDbSymbolTableRecord
100
AcDbLayerTableRecord
  2
10_NOTES
 70
0
 62
7
  6
CONTINUOUS
370
-3
390
F
  0
LAYER
  5
207
100
AcDbSymbolTableRecord
100
AcDbLayerTableRecord
  2
11_NOTES_PUB
 70
0
 62
7
  6
CONTINUOUS
370
-3
390
F
  0
LAYER
  5
208
100
AcDbSymbolTableRecord
100
AcDbLayerTableRecord
  2
13_REF_GTOL
 70
0
 62
7
  6
CONTINUOUS
370
-3
390
F
  0
LAYER
  5
209
100
AcDbSymbolTableRecord
100
AcDbLayerTableRecord
  2
16_MISC
 70
0
 62
7
  6
CONTINUOUS
370
-3
390
F
  0
LAYER
  5
20A
100
AcDbSymbolTableRecord
100
AcDbLayerTableRecord
  2
17_NO_PRINT
 70
0
 62
7
  6
CONTINUOUS
370
-3
390
F
  0
LAYER
  5
20B
100
AcDbSymbolTableRecord
100
AcDbLayerTableRecord
  2
18_DATUM_CAMS_JOINTS
 70
0
 62
7
  6
CONTINUOUS
370
-3
390
F
  0
LAYER
  5
20C
100
AcDbSymbolTableRecord
100
AcDbLayerTableRecord
  2
19_DATUM_FUNCTIONAL
 70
0
 62
7
  6
CONTINUOUS
370
-3
390
F
  0
LAYER
  5
20D
100
AcDbSymbolTableRecord
100
AcDbLayerTableRecord
  2
20_DATUM_KINEMATIC_SCHEME
 70
0
 62
7
  6
CONTINUOUS
370
-3
390
F
  0
ENDTAB
  0
TABLE
  2
STYLE
  5
3
100
AcDbSymbolTable
 70
1
  0
STYLE
  5
11
100
AcDbSymbolTableRecord
100
AcDbTextStyleTableRecord
  2
STANDARD
 70
0
 40
0.0
 41
0.8
 50
0.0
 71
0
 42
0.2
  3
txt
  4

  0
STYLE
  5
20E
100
AcDbSymbolTableRecord
100
AcDbTextStyleTableRecord
  2
TEXTSTYLE_1
 70
0
 40
0.0
 41
0.8
 50
0.0
 71
0
 42
0.2
  3
gdt
  4

  0
ENDTAB
  0
TABLE
  2
VIEW
  5
6
100
AcDbSymbolTable
 70
0
  0
ENDTAB
  0
TABLE
  2
UCS
  5
7
100
AcDbSymbolTable
 70
0
  0
ENDTAB
  0
TABLE
  2
APPID
  5
9
100
AcDbSymbolTable
 70
1
  0
APPID
  5
20F
100
AcDbSymbolTableRecord
100
AcDbRegAppTableRecord
  2
ACAD
 70
0
  0
ENDTAB
  0
TABLE
  2
BLOCK_RECORD
  5
1
100
AcDbSymbolTable
 70
0
  0
BLOCK_RECORD
  5
210
100
AcDbSymbolTableRecord
100
AcDbBlockTableRecord
  2
*Model_Space
  0
BLOCK_RECORD
  5
211
100
AcDbSymbolTableRecord
100
AcDbBlockTableRecord
  2
*Paper_Space
  0
BLOCK_RECORD
  5
212
100
AcDbSymbolTableRecord
100
AcDbBlockTableRecord
  2
_FILLED
  0
ENDTAB
  0
TABLE
  2
DIMSTYLE
  5
A
100
AcDbSymbolTable
 70
1
100
AcDbDimStyleTable
 71
0
  0
DIMSTYLE
105
213
100
AcDbSymbolTableRecord
100
AcDbDimStyleTableRecord
  2
STANDARD
 70
0
  3

  4

 40
1.0
 41
1.6340641596
 42
1.0
 43
0.38
 44
1.0
 45
0.0
 46
0.0
 47
0.01
 48
0.01
140
2.2876898234
141
0.09
142
0.0
143
25.4
144
1.0
145
0.0
146
1.0
147
0.625
 71
1
 72
0
 73
0
 74
0
 75
0
 76
0
 77
1
 78
8
 79
2
170
0
171
1
172
0
173
0
174
0
175
0
176
0
177
0
178
0
270
2
179
2
271
2
272
2
273
2
274
2
275
0
280
0
281
0
282
0
283
1
284
8
285
0
286
0
287
3
288
0
340
11
278
46
341
212
342
212
343
212
344
212
  0
ENDTAB
  0
ENDSEC
  0
SECTION
  2
BLOCKS
  0
BLOCK
  5
20
100
AcDbEntity
  8
0
100
AcDbBlockBegin
  2
*Model_Space
 70
0
 10
0.0
 20
0.0
 30
0.0
  3
*Model_Space
  1

  0
ENDBLK
  5
21
100
AcDbEntity
  8
0
100
AcDbBlockEnd
  0
BLOCK
  5
1C
100
AcDbEntity
  8
0
100
AcDbBlockBegin
  2
*Paper_Space
 70
0
 10
0.0
 20
0.0
 30
0.0
  3
*Paper_Space
  1

  0
ENDBLK
  5
1D
100
AcDbEntity
  8
0
100
AcDbBlockEnd
  0
BLOCK
  5
214
100
AcDbEntity
  8
0
100
AcDbBlockBegin
  2
_FILLED
 70
64
 10
0.0
 20
0.0
  3
_FILLED
  1

  0
SOLID
  5
215
100
AcDbEntity
  8
0
  6
BYBLOCK
 62
0
100
AcDbTrace
 10
0.0
 20
0.0
 11
-1.0
 21
0.25
 12
-1.0
 22
-0.25
 13
-1.0
 23
-0.25
  0
ENDBLK
  5
216
100
AcDbEntity
  8
0
  6
BYBLOCK
 62
0
100
AcDbBlockEnd
  0
ENDSEC
  0
SECTION
  2
ENTITIES
  0
LINE
  5
217
100
AcDbEntity
  8
0
100
AcDbLine
 62
7
  6
CONTINUOUS
 10
50.9260137311
 20
176.5704965032
 11
49.7415701077
 21
175.8396070152
  0
LINE
  5
218
100
AcDbEntity
  8
0
100
AcDbLine
 62
7
  6
CONTINUOUS
 10
50.9260137311
 20
175.1149706544
 11
49.7415701079
 21
174.5981537413
  0
LINE
  5
219
100
AcDbEntity
  8
0
100
AcDbLine
 62
7
  6
CONTINUOUS
 10
49.7415701081
 20
16.0600434723
 11
41.8415701085
 21
15.8010204082
  0
LINE
  5
21A
100
AcDbEntity
  8
0
100
AcDbLine
 62
7
  6
CONTINUOUS
 10
49.7415701082
 20
20.0263144038
 11
41.8415701084
 21
20.1344537946
  0
LINE
  5
21B
100
AcDbEntity
  8
0
100
AcDbLine
 62
7
  6
CONTINUOUS
 10
41.8415701085
 20
15.8010204082
 11
32.2715701081
 21
16.0465195911
  0
LINE
  5
21C
100
AcDbEntity
  8
0
100
AcDbLine
 62
7
  6
CONTINUOUS
 10
50.9260137311
 20
19.4870700271
 11
49.7415701077
 21
20.0038869403
  0
LINE
  5
21D
100
AcDbEntity
  8
0
100
AcDbLine
 62
7
  6
CONTINUOUS
 10
49.7415701081
 20
18.7624337984
 11
50.9260137311
 21
18.0315443108
  0
LINE
  5
21E
100
AcDbEntity
  8
0
100
AcDbLine
 62
7
  6
CONTINUOUS
 10
49.7415701079
 20
166.9515008754
 11
50.9260137311
 21
167.4683177885
  0
LINE
  5
21F
100
AcDbEntity
  8
0
100
AcDbLine
 62
7
  6
CONTINUOUS
 10
41.8415701084
 20
20.1344537946
 11
32.2715701081
 21
20.0465195911
  0
LINE
  5
220
100
AcDbEntity
  8
0
100
AcDbLine
 62
7
  6
CONTINUOUS
 10
49.7415701077
 20
27.6505398053
 11
50.9260137311
 21
27.133722892
  0
LINE
  5
221
100
AcDbEntity
  8
0
100
AcDbLine
 62
7
  6
CONTINUOUS
 10
51.2438794778
 20
30.6476731392
 11
49.7415701078
 21
30.64767314
  0
LINE
  5
222
100
AcDbEntity
  8
0
100
AcDbLine
 62
7
  6
CONTINUOUS
 10
70.3415701002
 20
34.366264971
 11
71.3095431072
 21
34.4338703926
  0
LINE
  5
223
100
AcDbEntity
  8
0
100
AcDbLine
 62
7
  6
CONTINUOUS
 10
67.9915701081
 20
33.3184807928
 11
73.4915701088
 21
33.5105450243
  0
LINE
  5
224
100
AcDbEntity
  8
0
100
AcDbLine
 62
7
  6
CONTINUOUS
 10
71.3095463104
 20
34.4338382795
 11
73.4893953217
 21
34.5099602841
  0
LINE
  5
225
100
AcDbEntity
  8
0
100
AcDbLine
 62
7
  6
CONTINUOUS
 10
96.5250678155
 20
34.2825476492
 11
73.4915701088
 21
33.5105450243
  0
LINE
  5
226
100
AcDbEntity
  8
0
100
AcDbLine
 62
7
  6
CONTINUOUS
 10
87.897167478
 20
34.7932245485
 11
96.5137661109
 21
35.0820229259
  0
LINE
  5
227
100
AcDbEntity
  8
0
100
AcDbLine
 62
7
  6
CONTINUOUS
 10
73.4893953217
 20
34.5099602841
 11
86.9235978648
 21
34.9602279663
  0
LINE
  5
228
100
AcDbEntity
  8
0
100
AcDbLine
 62
7
  6
CONTINUOUS
 10
67.3415701081
 20
33.6010204082
 11
67.9915701085
 21
33.6010204082
  0
LINE
  5
229
100
AcDbEntity
  8
0
100
AcDbLine
 62
7
  6
CONTINUOUS
 10
70.9703697565
 20
34.6010204075
 11
70.3415701081
 21
34.6010204075
  0
LINE
  5
22A
100
AcDbEntity
  8
0
100
AcDbLine
 62
7
  6
CONTINUOUS
 10
87.8915701081
 20
34.9602278772
 11
86.9235978648
 21
34.9602278336
  0
LINE
  5
22B
100
AcDbEntity
  8
0
100
AcDbLine
 62
7
  6
CONTINUOUS
 10
97.4915701081
 20
36.9010204075
 11
97.5915701077
 21
36.9010204075
  0
LINE
  5
22C
100
AcDbEntity
  8
0
100
AcDbLine
 62
7
  6
CONTINUOUS
 10
86.9235978648
 20
37.1009761641
 11
87.8915701081
 21
37.1010087379
  0
LINE
  5
22D
100
AcDbEntity
  8
0
100
AcDbLine
 62
7
  6
CONTINUOUS
 10
86.9235978648
 20
37.1010204206
 11
72.4615701081
 21
37.1010206239
  0
LINE
  5
22E
100
AcDbEntity
  8
0
100
AcDbLine
 62
7
  6
CONTINUOUS
 10
70.3415701081
 20
37.1661230306
 11
69.3764695971
 21
37.1661230306
  0
LINE
  5
22F
100
AcDbEntity
  8
0
100
AcDbLine
 62
7
  6
CONTINUOUS
 10
57.8415701081
 20
37.1992649769
 11
58.8102123516
 21
37.1992649769
  0
LINE
  5
230
100
AcDbEntity
  8
0
100
AcDbLine
 62
7
  6
CONTINUOUS
 10
67.9915701085
 20
37.201020407
 11
58.8102123516
 21
37.1992649769
  0
LINE
  5
231
100
AcDbEntity
  8
0
100
AcDbLine
 62
7
  6
CONTINUOUS
 10
97.5915701077
 20
37.4022300817
 11
97.4915701081
 21
37.4022300817
  0
LINE
  5
232
100
AcDbEntity
  8
0
100
AcDbLine
 62
7
  6
CONTINUOUS
 10
67.3415701085
 20
33.3010204075
 11
58.8102123516
 21
33.5686762731
  0
LINE
  5
233
100
AcDbEntity
  8
0
100
AcDbLine
 62
7
  6
CONTINUOUS
 10
67.9915701081
 20
37.2184807924
 11
69.3764695894
 21
37.1661225861
  0
LINE
  5
234
100
AcDbEntity
  8
0
100
AcDbLine
 62
7
  6
CONTINUOUS
 10
86.9235939076
 20
40.6491635774
 11
71.3095463092
 21
40.1488858904
  0
LINE
  5
235
100
AcDbEntity
  8
0
100
AcDbLine
 62
7
  6
CONTINUOUS
 10
71.3124223866
 20
41.1483730123
 11
87.8915701081
 21
41.6796176409
  0
LINE
  5
236
100
AcDbEntity
  8
0
100
AcDbLine
 62
7
  6
CONTINUOUS
 10
67.3415701081
 20
42.8484021485
 11
85.0415701078
 21
43.157356797
  0
LINE
  5
237
100
AcDbEntity
  8
0
100
AcDbLine
 62
7
  6
CONTINUOUS
 10
97.6915701077
 20
38.667045811
 11
97.4915701081
 21
38.667045811
  0
LINE
  5
238
100
AcDbEntity
  8
0
100
AcDbLine
 62
7
  6
CONTINUOUS
 10
69.3764695971
 20
39.1493987701
 11
70.3415701081
 21
39.1493987701
  0
LINE
  5
239
100
AcDbEntity
  8
0
100
AcDbLine
 62
7
  6
CONTINUOUS
 10
97.6915701074
 20
39.1670458107
 11
97.4915701081
 21
39.1670458107
  0
LINE
  5
23A
100
AcDbEntity
  8
0
100
AcDbLine
 62
7
  6
CONTINUOUS
 10
70.9703697565
 20
39.6010204075
 11
70.4493606004
 21
39.6010204075
  0
LINE
  5
23B
100
AcDbEntity
  8
0
100
AcDbLine
 62
7
  6
CONTINUOUS
 10
57.8415701081
 20
41.2859278787
 11
51.2438794778
 21
41.2859278787
  0
LINE
  5
23C
100
AcDbEntity
  8
0
100
AcDbLine
 62
7
  6
CONTINUOUS
 10
51.1859515801
 20
176.2489400482
 11
51.2438794778
 21
176.3931299466
  0
LINE
  5
23D
100
AcDbEntity
  8
0
100
AcDbLine
 62
7
  6
CONTINUOUS
 10
86.5415701085
 20
45.1010204075
 11
87.8915701081
 21
45.1010204075
  0
LINE
  5
23E
100
AcDbEntity
  8
0
100
AcDbLine
 62
7
  6
CONTINUOUS
 10
97.4915701081
 20
45.4349950044
 11
97.6915701074
 21
45.4349950044
  0
LINE
  5
23F
100
AcDbEntity
  8
0
100
AcDbLine
 62
7
  6
CONTINUOUS
 10
88.8693741047
 20
45.6353736686
 11
87.8915701081
 21
45.6353736686
  0
LINE
  5
240
100
AcDbEntity
  8
0
100
AcDbLine
 62
7
  6
CONTINUOUS
 10
97.6915701077
 20
45.934995004
 11
97.4915701081
 21
45.934995004
  0
LINE
  5
241
100
AcDbEntity
  8
0
100
AcDbLine
 62
7
  6
CONTINUOUS
 10
82.4135701081
 20
46.0390204075
 11
71.1935701081
 21
46.0390204075
  0
LINE
  5
242
100
AcDbEntity
  8
0
100
AcDbLine
 62
7
  6
CONTINUOUS
 10
82.4135701081
 20
46.4190204083
 11
71.1935701081
 21
46.4190204083
  0
LINE
  5
243
100
AcDbEntity
  8
0
100
AcDbLine
 62
7
  6
CONTINUOUS
 10
83.371570108
 20
46.7210204075
 11
82.4135701078
 21
46.7210204075
  0
LINE
  5
244
100
AcDbEntity
  8
0
100
AcDbLine
 62
7
  6
CONTINUOUS
 10
71.1935701087
 20
46.7210204075
 11
70.2355701081
 21
46.7210204075
  0
LINE
  5
245
100
AcDbEntity
  8
0
100
AcDbLine
 62
7
  6
CONTINUOUS
 10
83.0535701081
 20
47.0390204075
 11
70.5535701081
 21
47.0390204075
  0
LINE
  5
246
100
AcDbEntity
  8
0
100
AcDbLine
 62
7
  6
CONTINUOUS
 10
69.5535701081
 20
47.3610204075
 11
70.5535701081
 21
47.3610204075
  0
LINE
  5
247
100
AcDbEntity
  8
0
100
AcDbLine
 62
7
  6
CONTINUOUS
 10
83.0535701081
 20
47.3610204075
 11
84.0535701081
 21
47.3610204075
  0
LINE
  5
248
100
AcDbEntity
  8
0
100
AcDbLine
 62
7
  6
CONTINUOUS
 10
82.3535701077
 20
49.6410204075
 11
71.2535701081
 21
49.6410204075
  0
LINE
  5
249
100
AcDbEntity
  8
0
100
AcDbLine
 62
7
  6
CONTINUOUS
 10
82.0535701086
 20
49.9410204068
 11
71.5535701085
 21
49.9410204068
  0
LINE
  5
24A
100
AcDbEntity
  8
0
100
AcDbLine
 62
7
  6
CONTINUOUS
 10
96.5137661133
 20
54.5971691344
 11
88.8693741021
 21
54.4274523515
  0
LINE
  5
24B
100
AcDbEntity
  8
0
100
AcDbLine
 62
7
  6
CONTINUOUS
 10
88.8580724004
 20
55.4267041606
 11
96.5250678163
 21
55.5969227722
  0
LINE
  5
24C
100
AcDbEntity
  8
0
100
AcDbLine
 62
7
  6
CONTINUOUS
 10
96.5137661115
 20
51.1175400502
 11
88.8693741047
 21
51.1070814355
  0
LINE
  5
24D
100
AcDbEntity
  8
0
100
AcDbLine
 62
7
  6
CONTINUOUS
 10
88.8693741047
 20
51.1070814355
 11
87.8915701081
 21
51.1070814355
  0
LINE
  5
24E
100
AcDbEntity
  8
0
100
AcDbLine
 62
7
  6
CONTINUOUS
 10
97.4915701081
 20
51.117540051
 11
96.5137661112
 21
51.117540051
  0
LINE
  5
24F
100
AcDbEntity
  8
0
100
AcDbLine
 62
7
  6
CONTINUOUS
 10
71.5535701073
 20
51.1810204082
 11
82.0535701077
 21
51.1810204082
  0
LINE
  5
250
100
AcDbEntity
  8
0
100
AcDbLine
 62
7
  6
CONTINUOUS
 10
71.2535701081
 20
51.4810204075
 11
82.3535701081
 21
51.4810204075
  0
LINE
  5
251
100
AcDbEntity
  8
0
100
AcDbLine
 62
7
  6
CONTINUOUS
 10
69.5535701075
 20
51.8410204075
 11
70.5535701081
 21
51.8410204075
  0
LINE
  5
252
100
AcDbEntity
  8
0
100
AcDbLine
 62
7
  6
CONTINUOUS
 10
83.0535701081
 20
51.8410204075
 11
84.0535701075
 21
51.8410204075
  0
LINE
  5
253
100
AcDbEntity
  8
0
100
AcDbLine
 62
7
  6
CONTINUOUS
 10
70.5535701081
 20
52.1630204073
 11
83.0535701081
 21
52.1630204073
  0
LINE
  5
254
100
AcDbEntity
  8
0
100
AcDbLine
 62
7
  6
CONTINUOUS
 10
70.2355701081
 20
52.4810204075
 11
71.1935701081
 21
52.4810204075
  0
LINE
  5
255
100
AcDbEntity
  8
0
100
AcDbLine
 62
7
  6
CONTINUOUS
 10
82.4135701078
 20
52.4810204075
 11
83.3715701081
 21
52.4810204075
  0
LINE
  5
256
100
AcDbEntity
  8
0
100
AcDbLine
 62
7
  6
CONTINUOUS
 10
82.4135701081
 20
52.7830204067
 11
71.1935701081
 21
52.7830204067
  0
LINE
  5
257
100
AcDbEntity
  8
0
100
AcDbLine
 62
7
  6
CONTINUOUS
 10
82.4135701081
 20
53.1630204075
 11
71.1935701081
 21
53.1630204075
  0
LINE
  5
258
100
AcDbEntity
  8
0
100
AcDbLine
 62
7
  6
CONTINUOUS
 10
88.5579114329
 20
54.3703926659
 11
86.5415701081
 21
54.3703926659
  0
LINE
  5
259
100
AcDbEntity
  8
0
100
AcDbLine
 62
7
  6
CONTINUOUS
 10
88.8019627464
 20
55.3703926664
 11
86.5415701072
 21
55.3703926657
  0
LINE
  5
25A
100
AcDbEntity
  8
0
100
AcDbLine
 62
7
  6
CONTINUOUS
 10
97.4915701081
 20
55.5969227728
 11
96.5250678158
 21
55.5969227728
  0
LINE
  5
25B
100
AcDbEntity
  8
0
100
AcDbLine
 62
7
  6
CONTINUOUS
 10
85.0415701081
 20
54.7010204075
 11
80.0415701081
 21
54.7446547465
  0
LINE
  5
25C
100
AcDbEntity
  8
0
100
AcDbLine
 62
7
  6
CONTINUOUS
 10
32.2715701081
 20
178.5555212231
 11
32.2715701081
 21
174.5556852281
  0
LINE
  5
25D
100
AcDbEntity
  8
0
100
AcDbLine
 62
7
  6
CONTINUOUS
 10
32.2715701081
 20
174.5555212243
 11
32.2715701081
 21
20.0465195911
  0
LINE
  5
25E
100
AcDbEntity
  8
0
100
AcDbLine
 62
7
  6
CONTINUOUS
 10
32.2715701081
 20
20.0463669521
 11
32.2715701081
 21
16.0465195919
  0
LINE
  5
25F
100
AcDbEntity
  8
0
100
AcDbLine
 62
7
  6
CONTINUOUS
 10
80.0415701081
 20
56.2573860685
 11
85.0415701081
 21
56.3010204075
  0
LINE
  5
260
100
AcDbEntity
  8
0
100
AcDbLine
 62
7
  6
CONTINUOUS
 10
83.0015701088
 20
60.2730204075
 11
70.1087701074
 21
60.2730204075
  0
LINE
  5
261
100
AcDbEntity
  8
0
100
AcDbLine
 62
7
  6
CONTINUOUS
 10
57.8415701081
 20
61.3161129363
 11
51.2438794778
 21
61.3161129363
  0
LINE
  5
262
100
AcDbEntity
  8
0
100
AcDbLine
 62
7
  6
CONTINUOUS
 10
97.7915701081
 20
61.5410204066
 11
97.4915701081
 21
61.5410204066
  0
LINE
  5
263
100
AcDbEntity
  8
0
100
AcDbLine
 62
7
  6
CONTINUOUS
 10
77.4841501094
 20
61.9240204075
 11
76.9761501081
 21
61.9240204075
  0
LINE
  5
264
100
AcDbEntity
  8
0
100
AcDbLine
 62
7
  6
CONTINUOUS
 10
74.6901501096
 20
61.9240204075
 11
74.1821501083
 21
61.9240204075
  0
LINE
  5
265
100
AcDbEntity
  8
0
100
AcDbLine
 62
7
  6
CONTINUOUS
 10
97.7915701088
 20
61.9910204066
 11
97.4915701081
 21
61.9910204066
  0
LINE
  5
266
100
AcDbEntity
  8
0
100
AcDbLine
 62
7
  6
CONTINUOUS
 10
73.2115701071
 20
145.4310204068
 11
72.9115701087
 21
145.1310204077
  0
LINE
  5
267
100
AcDbEntity
  8
0
100
AcDbLine
 62
7
  6
CONTINUOUS
 10
73.6115701082
 20
145.8310204082
 11
73.9115701087
 21
146.1310204073
  0
LINE
  5
268
100
AcDbEntity
  8
0
100
AcDbLine
 62
7
  6
CONTINUOUS
 10
79.7701501078
 20
62.1780204082
 11
77.4841501094
 21
62.1780204082
  0
LINE
  5
269
100
AcDbEntity
  8
0
100
AcDbLine
 62
7
  6
CONTINUOUS
 10
76.9761501081
 20
62.1780204082
 11
74.6901501096
 21
62.1780204082
  0
LINE
  5
26A
100
AcDbEntity
  8
0
100
AcDbLine
 62
7
  6
CONTINUOUS
 10
74.1821501083
 20
62.1780204082
 11
71.896150108
 21
62.1780204082
  0
LINE
  5
26B
100
AcDbEntity
  8
0
100
AcDbLine
 62
7
  6
CONTINUOUS
 10
70.1087701074
 20
62.3956296218
 11
69.6101501089
 21
62.3956296218
  0
LINE
  5
26C
100
AcDbEntity
  8
0
100
AcDbLine
 62
7
  6
CONTINUOUS
 10
72.3990701075
 20
62.4447204079
 11
79.2697701073
 21
62.4447204079
  0
LINE
  5
26D
100
AcDbEntity
  8
0
100
AcDbLine
 62
7
  6
CONTINUOUS
 10
97.4915701081
 20
64.5010204075
 11
97.5915701077
 21
64.5010204075
  0
LINE
  5
26E
100
AcDbEntity
  8
0
100
AcDbLine
 62
7
  6
CONTINUOUS
 10
81.8021501093
 20
64.8450204076
 11
79.7701501078
 21
64.8450204076
  0
LINE
  5
26F
100
AcDbEntity
  8
0
100
AcDbLine
 62
7
  6
CONTINUOUS
 10
97.5915701077
 20
65.0225180895
 11
97.4915701081
 21
65.0225180895
  0
LINE
  5
270
100
AcDbEntity
  8
0
100
AcDbLine
 62
7
  6
CONTINUOUS
 10
79.2697701073
 20
65.2514204066
 11
80.9461701075
 21
65.2514204066
  0
LINE
  5
271
100
AcDbEntity
  8
0
100
AcDbLine
 62
7
  6
CONTINUOUS
 10
82.9451501086
 20
65.9880204069
 11
81.8021501093
 21
65.9880204069
  0
LINE
  5
272
100
AcDbEntity
  8
0
100
AcDbLine
 62
7
  6
CONTINUOUS
 10
80.9461701075
 20
66.369020408
 11
82.0891701086
 21
66.369020408
  0
LINE
  5
273
100
AcDbEntity
  8
0
100
AcDbLine
 62
7
  6
CONTINUOUS
 10
71.5535701074
 20
51.1810204079
 11
71.2535701081
 21
51.4810204067
  0
LINE
  5
274
100
AcDbEntity
  8
0
100
AcDbLine
 62
7
  6
CONTINUOUS
 10
41.8415701081
 20
178.8010204082
 11
41.8415701085
 21
15.8010204082
  0
LINE
  5
275
100
AcDbEntity
  8
0
100
AcDbLine
 62
7
  6
CONTINUOUS
 10
73.6115701081
 20
140.7510208385
 11
73.9115703232
 21
141.0510208373
  0
LINE
  5
276
100
AcDbEntity
  8
0
100
AcDbLine
 62
7
  6
CONTINUOUS
 10
73.2115701071
 20
140.3510204068
 11
72.9115701087
 21
140.0510204077
  0
LINE
  5
277
100
AcDbEntity
  8
0
100
AcDbLine
 62
7
  6
CONTINUOUS
 10
73.2115701071
 20
135.2710204068
 11
72.9115701087
 21
134.9710204077
  0
LINE
  5
278
100
AcDbEntity
  8
0
100
AcDbLine
 62
7
  6
CONTINUOUS
 10
73.6115701082
 20
135.6710204082
 11
73.9115701087
 21
135.9710204073
  0
LINE
  5
279
100
AcDbEntity
  8
0
100
AcDbLine
 62
7
  6
CONTINUOUS
 10
75.8415701076
 20
128.687771754
 11
73.3415701071
 21
127.2443960809
  0
LINE
  5
27A
100
AcDbEntity
  8
0
100
AcDbLine
 62
7
  6
CONTINUOUS
 10
82.0891701086
 20
70.4330204073
 11
80.9461701075
 21
70.4330204073
  0
LINE
  5
27B
100
AcDbEntity
  8
0
100
AcDbLine
 62
7
  6
CONTINUOUS
 10
81.8021501093
 20
70.8140204081
 11
82.9451501086
 21
70.8140204081
  0
LINE
  5
27C
100
AcDbEntity
  8
0
100
AcDbLine
 62
7
  6
CONTINUOUS
 10
80.9461701075
 20
71.5506204069
 11
79.2697701073
 21
71.5506204069
  0
LINE
  5
27D
100
AcDbEntity
  8
0
100
AcDbLine
 62
7
  6
CONTINUOUS
 10
79.7701501078
 20
71.9570204074
 11
81.8021501093
 21
71.9570204074
  0
LINE
  5
27E
100
AcDbEntity
  8
0
100
AcDbLine
 62
7
  6
CONTINUOUS
 10
69.6101501089
 20
73.989020407
 11
70.1087701074
 21
73.989020407
  0
LINE
  5
27F
100
AcDbEntity
  8
0
100
AcDbLine
 62
7
  6
CONTINUOUS
 10
82.0535701088
 20
49.9410204067
 11
82.3535701081
 21
49.6410204071
  0
LINE
  5
280
100
AcDbEntity
  8
0
100
AcDbLine
 62
7
  6
CONTINUOUS
 10
49.7415701081
 20
16.0600434724
 11
49.7415701081
 21
178.5419973426
  0
LINE
  5
281
100
AcDbEntity
  8
0
100
AcDbLine
 62
7
  6
CONTINUOUS
 10
50.9260137318
 20
18.0315443117
 11
50.9260137318
 21
176.5704965032
  0
LINE
  5
282
100
AcDbEntity
  8
0
100
AcDbLine
 62
7
  6
CONTINUOUS
 10
51.2438794778
 20
18.2089108683
 11
51.2438794778
 21
176.3931299466
  0
LINE
  5
283
100
AcDbEntity
  8
0
100
AcDbLine
 62
7
  6
CONTINUOUS
 10
52.6415701081
 20
108.3457481115
 11
52.6415701081
 21
107.4010204075
  0
LINE
  5
284
100
AcDbEntity
  8
0
100
AcDbLine
 62
7
  6
CONTINUOUS
 10
52.6415701081
 20
87.2010204075
 11
52.6415701081
 21
86.2562736985
  0
LINE
  5
285
100
AcDbEntity
  8
0
100
AcDbLine
 62
7
  6
CONTINUOUS
 10
75.8415701074
 20
122.9142690607
 11
78.3415701081
 21
124.3576447343
  0
LINE
  5
286
100
AcDbEntity
  8
0
100
AcDbLine
 62
7
  6
CONTINUOUS
 10
72.3990701075
 20
74.3573204074
 11
79.2697701074
 21
74.3573204074
  0
LINE
  5
287
100
AcDbEntity
  8
0
100
AcDbLine
 62
7
  6
CONTINUOUS
 10
71.896150108
 20
74.6240204068
 11
74.1821501083
 21
74.6240204068
  0
LINE
  5
288
100
AcDbEntity
  8
0
100
AcDbLine
 62
7
  6
CONTINUOUS
 10
77.4841501094
 20
74.6240204068
 11
79.7701501078
 21
74.6240204068
  0
LINE
  5
289
100
AcDbEntity
  8
0
100
AcDbLine
 62
7
  6
CONTINUOUS
 10
74.1821501083
 20
74.8780204075
 11
74.6901501096
 21
74.8780204075
  0
LINE
  5
28A
100
AcDbEntity
  8
0
100
AcDbLine
 62
7
  6
CONTINUOUS
 10
76.9761501081
 20
74.8780204075
 11
77.4841501094
 21
74.8780204075
  0
LINE
  5
28B
100
AcDbEntity
  8
0
100
AcDbLine
 62
7
  6
CONTINUOUS
 10
70.1087701074
 20
76.5290204075
 11
83.0015701088
 21
76.5290204075
  0
LINE
  5
28C
100
AcDbEntity
  8
0
100
AcDbLine
 62
7
  6
CONTINUOUS
 10
83.0015701088
 20
78.8960204067
 11
70.1087701074
 21
78.8960204067
  0
LINE
  5
28D
100
AcDbEntity
  8
0
100
AcDbLine
 62
7
  6
CONTINUOUS
 10
81.843570109
 20
79.7215204069
 11
79.8115701075
 21
79.7215204069
  0
LINE
  5
28E
100
AcDbEntity
  8
0
100
AcDbLine
 62
7
  6
CONTINUOUS
 10
80.0477901088
 20
79.9374204083
 11
81.8003901081
 21
79.9374204083
  0
LINE
  5
28F
100
AcDbEntity
  8
0
100
AcDbLine
 62
7
  6
CONTINUOUS
 10
57.8415701081
 20
34.5681844962
 11
57.8415701081
 21
160.0338563113
  0
LINE
  5
290
100
AcDbEntity
  8
0
100
AcDbLine
 62
7
  6
CONTINUOUS
 10
58.8102104835
 20
33.5686171796
 11
58.8102104927
 21
161.0334236273
  0
LINE
  5
291
100
AcDbEntity
  8
0
100
AcDbLine
 62
7
  6
CONTINUOUS
 10
77.5255701072
 20
80.6740204075
 11
77.0175701077
 21
80.6740204075
  0
LINE
  5
292
100
AcDbEntity
  8
0
100
AcDbLine
 62
7
  6
CONTINUOUS
 10
74.7315701074
 20
80.6740204075
 11
74.223570108
 21
80.6740204075
  0
LINE
  5
293
100
AcDbEntity
  8
0
100
AcDbLine
 62
7
  6
CONTINUOUS
 10
79.8115701075
 20
80.9280204082
 11
77.5255701072
 21
80.9280204082
  0
LINE
  5
294
100
AcDbEntity
  8
0
100
AcDbLine
 62
7
  6
CONTINUOUS
 10
77.0175701077
 20
80.9280204082
 11
74.7315701074
 21
80.9280204082
  0
LINE
  5
295
100
AcDbEntity
  8
0
100
AcDbLine
 62
7
  6
CONTINUOUS
 10
74.223570108
 20
80.9280204082
 11
71.9375701077
 21
80.9280204082
  0
LINE
  5
296
100
AcDbEntity
  8
0
100
AcDbLine
 62
7
  6
CONTINUOUS
 10
79.3111901088
 20
81.1947204075
 11
71.9375701077
 21
81.1947204075
  0
LINE
  5
297
100
AcDbEntity
  8
0
100
AcDbLine
 62
7
  6
CONTINUOUS
 10
70.1087701074
 20
81.563020408
 11
69.541570108
 21
81.563020408
  0
LINE
  5
298
100
AcDbEntity
  8
0
100
AcDbLine
 62
7
  6
CONTINUOUS
 10
81.8003901081
 20
83.9252204075
 11
80.0477901088
 21
83.9252204075
  0
LINE
  5
299
100
AcDbEntity
  8
0
100
AcDbLine
 62
7
  6
CONTINUOUS
 10
79.311190109
 20
84.0014204072
 11
80.9875901088
 21
84.0014204072
  0
LINE
  5
29A
100
AcDbEntity
  8
0
100
AcDbLine
 62
7
  6
CONTINUOUS
 10
82.7909901082
 20
84.7380204069
 11
81.843570109
 21
84.7380204069
  0
LINE
  5
29B
100
AcDbEntity
  8
0
100
AcDbLine
 62
7
  6
CONTINUOUS
 10
80.9875901088
 20
85.1190204075
 11
82.1305901081
 21
85.1190204075
  0
LINE
  5
29C
100
AcDbEntity
  8
0
100
AcDbLine
 62
7
  6
CONTINUOUS
 10
72.225011904
 20
155.9276909382
 11
72.4615701081
 21
157.5010204075
  0
LINE
  5
29D
100
AcDbEntity
  8
0
100
AcDbLine
 62
7
  6
CONTINUOUS
 10
50.9260137318
 20
92.986747326
 11
49.741570108
 21
92.2907446326
  0
LINE
  5
29E
100
AcDbEntity
  8
0
100
AcDbLine
 62
7
  6
CONTINUOUS
 10
97.7915701081
 20
86.151020407
 11
97.4915701081
 21
86.151020407
  0
LINE
  5
29F
100
AcDbEntity
  8
0
100
AcDbLine
 62
7
  6
CONTINUOUS
 10
52.6415701081
 20
86.2562736985
 11
51.2438794778
 21
86.2562736985
  0
LINE
  5
2A0
100
AcDbEntity
  8
0
100
AcDbLine
 62
7
  6
CONTINUOUS
 10
97.7915701088
 20
86.601020407
 11
97.4915701081
 21
86.601020407
  0
LINE
  5
2A1
100
AcDbEntity
  8
0
100
AcDbLine
 62
7
  6
CONTINUOUS
 10
52.6415701077
 20
87.2010204075
 11
57.8415701082
 21
87.2010204075
  0
LINE
  5
2A2
100
AcDbEntity
  8
0
100
AcDbLine
 62
7
  6
CONTINUOUS
 10
49.7415701078
 20
88.2544741043
 11
51.2438794778
 21
88.2544741043
  0
LINE
  5
2A3
100
AcDbEntity
  8
0
100
AcDbLine
 62
7
  6
CONTINUOUS
 10
82.1305901081
 20
89.1830204071
 11
80.9875901088
 21
89.1830204071
  0
LINE
  5
2A4
100
AcDbEntity
  8
0
100
AcDbLine
 62
7
  6
CONTINUOUS
 10
81.843570109
 20
89.5640204081
 11
82.7909901082
 21
89.5640204081
  0
LINE
  5
2A5
100
AcDbEntity
  8
0
100
AcDbLine
 62
7
  6
CONTINUOUS
 10
80.9875901088
 20
90.3006204075
 11
79.311190109
 21
90.3006204075
  0
LINE
  5
2A6
100
AcDbEntity
  8
0
100
AcDbLine
 62
7
  6
CONTINUOUS
 10
80.0477901088
 20
90.3768204083
 11
81.8003901081
 21
90.3768204083
  0
LINE
  5
2A7
100
AcDbEntity
  8
0
100
AcDbLine
 62
7
  6
CONTINUOUS
 10
50.9260137313
 20
101.6152934886
 11
49.7415701076
 21
102.3112961819
  0
LINE
  5
2A8
100
AcDbEntity
  8
0
100
AcDbLine
 62
7
  6
CONTINUOUS
 10
72.225011904
 20
38.6743498767
 11
72.4615701081
 21
37.1010204075
  0
LINE
  5
2A9
100
AcDbEntity
  8
0
100
AcDbLine
 62
7
  6
CONTINUOUS
 10
67.3415701081
 20
33.3010204074
 11
67.3415701081
 21
161.3010204075
  0
LINE
  5
2AA
100
AcDbEntity
  8
0
100
AcDbLine
 62
7
  6
CONTINUOUS
 10
67.9915701081
 20
42.85974794
 11
67.9915701081
 21
37.2184807924
  0
LINE
  5
2AB
100
AcDbEntity
  8
0
100
AcDbLine
 62
7
  6
CONTINUOUS
 10
67.9915701081
 20
37.218159394
 11
67.9915701081
 21
33.3184807928
  0
LINE
  5
2AC
100
AcDbEntity
  8
0
100
AcDbLine
 62
7
  6
CONTINUOUS
 10
67.9915701081
 20
150.542292875
 11
67.9915701081
 21
161.2835600222
  0
LINE
  5
2AD
100
AcDbEntity
  8
0
100
AcDbLine
 62
7
  6
CONTINUOUS
 10
69.3764696048
 20
39.1493991475
 11
69.376466916
 21
33.3668424548
  0
LINE
  5
2AE
100
AcDbEntity
  8
0
100
AcDbLine
 62
7
  6
CONTINUOUS
 10
69.3764696053
 20
155.4514667136
 11
69.3764695451
 21
157.4359182278
  0
LINE
  5
2AF
100
AcDbEntity
  8
0
100
AcDbLine
 62
7
  6
CONTINUOUS
 10
69.5415701081
 20
149.1710204075
 11
69.5415701081
 21
131.9310204083
  0
LINE
  5
2B0
100
AcDbEntity
  8
0
100
AcDbLine
 62
7
  6
CONTINUOUS
 10
69.5415701081
 20
92.739020407
 11
69.5415701081
 21
81.563020408
  0
LINE
  5
2B1
100
AcDbEntity
  8
0
100
AcDbLine
 62
7
  6
CONTINUOUS
 10
69.5535701081
 20
51.8410204075
 11
69.5535701081
 21
47.3610204075
  0
LINE
  5
2B2
100
AcDbEntity
  8
0
100
AcDbLine
 62
7
  6
CONTINUOUS
 10
69.6101501089
 20
73.989020407
 11
69.6101501089
 21
62.3956296218
  0
LINE
  5
2B3
100
AcDbEntity
  8
0
100
AcDbLine
 62
7
  6
CONTINUOUS
 10
69.9335701087
 20
51.8410204075
 11
69.9335701087
 21
47.3610204075
  0
LINE
  5
2B4
100
AcDbEntity
  8
0
100
AcDbLine
 62
7
  6
CONTINUOUS
 10
70.1087701074
 20
95.4060204083
 11
70.1087701074
 21
92.739020407
  0
LINE
  5
2B5
100
AcDbEntity
  8
0
100
AcDbLine
 62
7
  6
CONTINUOUS
 10
70.1087701074
 20
81.563020408
 11
70.1087701074
 21
78.8960204067
  0
LINE
  5
2B6
100
AcDbEntity
  8
0
100
AcDbLine
 62
7
  6
CONTINUOUS
 10
70.1087701074
 20
76.5290204075
 11
70.1087701074
 21
73.989020407
  0
LINE
  5
2B7
100
AcDbEntity
  8
0
100
AcDbLine
 62
7
  6
CONTINUOUS
 10
70.1087701074
 20
62.3956296218
 11
70.1087701074
 21
60.2730204075
  0
LINE
  5
2B8
100
AcDbEntity
  8
0
100
AcDbLine
 62
7
  6
CONTINUOUS
 10
70.2355701081
 20
52.4810204075
 11
70.2355701081
 21
51.8410204067
  0
LINE
  5
2B9
100
AcDbEntity
  8
0
100
AcDbLine
 62
7
  6
CONTINUOUS
 10
70.2355701081
 20
47.3610204081
 11
70.2355701081
 21
46.7210204075
  0
LINE
  5
2BA
100
AcDbEntity
  8
0
100
AcDbLine
 62
7
  6
CONTINUOUS
 10
70.3415701081
 20
34.3662333753
 11
70.3415701081
 21
39.1493987864
  0
LINE
  5
2BB
100
AcDbEntity
  8
0
100
AcDbLine
 62
7
  6
CONTINUOUS
 10
70.3415701081
 20
155.4516566288
 11
70.3415701081
 21
160.2358074392
  0
LINE
  5
2BC
100
AcDbEntity
  8
0
100
AcDbLine
 62
7
  6
CONTINUOUS
 10
70.5535701081
 20
52.1630204073
 11
70.5535701081
 21
47.0390204075
  0
LINE
  5
2BD
100
AcDbEntity
  8
0
100
AcDbLine
 62
7
  6
CONTINUOUS
 10
70.9704025872
 20
34.6010204075
 11
70.9704025875
 21
39.6010204075
  0
LINE
  5
2BE
100
AcDbEntity
  8
0
100
AcDbLine
 62
7
  6
CONTINUOUS
 10
70.9704025872
 20
155.0010204075
 11
70.9704025875
 21
160.0010204075
  0
LINE
  5
2BF
100
AcDbEntity
  8
0
100
AcDbLine
 62
7
  6
CONTINUOUS
 10
71.1935701081
 20
46.0390204074
 11
71.1935701081
 21
47.0390204075
  0
LINE
  5
2C0
100
AcDbEntity
  8
0
100
AcDbLine
 62
7
  6
CONTINUOUS
 10
71.1935701081
 20
52.1630204073
 11
71.1935701081
 21
53.1630204072
  0
LINE
  5
2C1
100
AcDbEntity
  8
0
100
AcDbLine
 62
7
  6
CONTINUOUS
 10
71.2078101081
 20
107.682693632
 11
71.2078101081
 21
118.9193471831
  0
LINE
  5
2C2
100
AcDbEntity
  8
0
100
AcDbLine
 62
7
  6
CONTINUOUS
 10
71.211570108
 20
132.9310204083
 11
71.211570108
 21
133.4314126013
  0
LINE
  5
2C3
100
AcDbEntity
  8
0
100
AcDbLine
 62
7
  6
CONTINUOUS
 10
71.211570108
 20
137.5106282134
 11
71.211570108
 21
138.5114126014
  0
LINE
  5
2C4
100
AcDbEntity
  8
0
100
AcDbLine
 62
7
  6
CONTINUOUS
 10
71.211570108
 20
142.5906282135
 11
71.211570108
 21
143.5914126015
  0
LINE
  5
2C5
100
AcDbEntity
  8
0
100
AcDbLine
 62
7
  6
CONTINUOUS
 10
71.211570108
 20
147.6706282136
 11
71.211570108
 21
148.1710204067
  0
LINE
  5
2C6
100
AcDbEntity
  8
0
100
AcDbLine
 62
7
  6
CONTINUOUS
 10
71.2535701081
 20
49.6410204075
 11
71.2535701081
 21
51.4810204074
  0
LINE
  5
2C7
100
AcDbEntity
  8
0
100
AcDbLine
 62
7
  6
CONTINUOUS
 10
71.3085293908
 20
154.4521871387
 11
71.3085293908
 21
155.1123621757
  0
LINE
  5
2C8
100
AcDbEntity
  8
0
100
AcDbLine
 62
7
  6
CONTINUOUS
 10
71.3085293881
 20
159.8896786401
 11
71.3085293881
 21
160.1682735438
  0
LINE
  5
2C9
100
AcDbEntity
  8
0
100
AcDbLine
 62
7
  6
CONTINUOUS
 10
71.3095461102
 20
34.7126969388
 11
71.3095463104
 21
34.4338382795
  0
LINE
  5
2CA
100
AcDbEntity
  8
0
100
AcDbLine
 62
7
  6
CONTINUOUS
 10
71.3095443968
 20
39.4893444403
 11
71.3095443968
 21
40.1489162359
  0
LINE
  5
2CB
100
AcDbEntity
  8
0
100
AcDbLine
 62
7
  6
CONTINUOUS
 10
75.8415701081
 20
103.6877717527
 11
73.3415701071
 21
102.244396079
  0
LINE
  5
2CC
100
AcDbEntity
  8
0
100
AcDbLine
 62
7
  6
CONTINUOUS
 10
69.5415701081
 20
92.739020407
 11
70.1087701074
 21
92.739020407
  0
LINE
  5
2CD
100
AcDbEntity
  8
0
100
AcDbLine
 62
7
  6
CONTINUOUS
 10
79.3111901093
 20
93.1073204083
 11
71.9375701077
 21
93.1073204083
  0
LINE
  5
2CE
100
AcDbEntity
  8
0
100
AcDbLine
 62
7
  6
CONTINUOUS
 10
71.9375701077
 20
93.3740204068
 11
74.223570108
 21
93.3740204068
  0
LINE
  5
2CF
100
AcDbEntity
  8
0
100
AcDbLine
 62
7
  6
CONTINUOUS
 10
74.7315701074
 20
93.3740204068
 11
77.0175701077
 21
93.3740204068
  0
LINE
  5
2D0
100
AcDbEntity
  8
0
100
AcDbLine
 62
7
  6
CONTINUOUS
 10
77.5255701072
 20
93.3740204068
 11
79.8115701075
 21
93.3740204068
  0
LINE
  5
2D1
100
AcDbEntity
  8
0
100
AcDbLine
 62
7
  6
CONTINUOUS
 10
74.223570108
 20
93.6280204074
 11
74.7315701074
 21
93.6280204074
  0
LINE
  5
2D2
100
AcDbEntity
  8
0
100
AcDbLine
 62
7
  6
CONTINUOUS
 10
77.0175701077
 20
93.6280204074
 11
77.5255701072
 21
93.6280204074
  0
LINE
  5
2D3
100
AcDbEntity
  8
0
100
AcDbLine
 62
7
  6
CONTINUOUS
 10
81.8003901081
 20
94.3646204075
 11
80.0477901088
 21
94.3646204075
  0
LINE
  5
2D4
100
AcDbEntity
  8
0
100
AcDbLine
 62
7
  6
CONTINUOUS
 10
79.8115701075
 20
94.580520408
 11
81.843570109
 21
94.580520408
  0
LINE
  5
2D5
100
AcDbEntity
  8
0
100
AcDbLine
 62
7
  6
CONTINUOUS
 10
98.0062692848
 20
94.6899492403
 11
97.7915701088
 21
94.6899492397
  0
LINE
  5
2D6
100
AcDbEntity
  8
0
100
AcDbLine
 62
7
  6
CONTINUOUS
 10
70.1087701074
 20
95.4060204083
 11
83.0015701088
 21
95.4060204083
  0
LINE
  5
2D7
100
AcDbEntity
  8
0
100
AcDbLine
 62
7
  6
CONTINUOUS
 10
71.5535701074
 20
49.9410204062
 11
71.5535701074
 21
51.1810204079
  0
LINE
  5
2D8
100
AcDbEntity
  8
0
100
AcDbLine
 62
7
  6
CONTINUOUS
 10
71.6243701083
 20
107.6826936329
 11
71.6243701083
 21
118.9193471821
  0
LINE
  5
2D9
100
AcDbEntity
  8
0
100
AcDbLine
 62
7
  6
CONTINUOUS
 10
71.896150108
 20
62.1780204082
 11
71.896150108
 21
74.6240204068
  0
LINE
  5
2DA
100
AcDbEntity
  8
0
100
AcDbLine
 62
7
  6
CONTINUOUS
 10
71.9375701077
 20
80.9280204082
 11
71.9375701077
 21
93.3740204068
  0
LINE
  5
2DB
100
AcDbEntity
  8
0
100
AcDbLine
 62
7
  6
CONTINUOUS
 10
72.2249991109
 20
158.8817834041
 11
72.2250007774
 21
159.0743860412
  0
LINE
  5
2DC
100
AcDbEntity
  8
0
100
AcDbLine
 62
7
  6
CONTINUOUS
 10
72.2250007774
 20
35.5276547738
 11
72.2249991109
 21
38.4817834041
  0
LINE
  5
2DD
100
AcDbEntity
  8
0
100
AcDbLine
 62
7
  6
CONTINUOUS
 10
72.2250007774
 20
155.9276547738
 11
72.2249991109
 21
158.8817834041
  0
LINE
  5
2DE
100
AcDbEntity
  8
0
100
AcDbLine
 62
7
  6
CONTINUOUS
 10
72.2249991109
 20
38.4817834041
 11
72.2250007774
 21
38.6743860412
  0
LINE
  5
2DF
100
AcDbEntity
  8
0
100
AcDbLine
 62
7
  6
CONTINUOUS
 10
72.3990701075
 20
74.3573204074
 11
72.3990701075
 21
62.4447204079
  0
LINE
  5
2E0
100
AcDbEntity
  8
0
100
AcDbLine
 62
7
  6
CONTINUOUS
 10
72.9115701081
 20
134.9710204074
 11
72.9115701081
 21
135.9710204074
  0
LINE
  5
2E1
100
AcDbEntity
  8
0
100
AcDbLine
 62
7
  6
CONTINUOUS
 10
72.9115701081
 20
140.0510204074
 11
72.9115701081
 21
141.0510204074
  0
LINE
  5
2E2
100
AcDbEntity
  8
0
100
AcDbLine
 62
7
  6
CONTINUOUS
 10
72.9115701081
 20
145.1310204075
 11
72.9115701081
 21
146.1310204075
  0
LINE
  5
2E3
100
AcDbEntity
  8
0
100
AcDbLine
 62
7
  6
CONTINUOUS
 10
73.2115701074
 20
135.2710204074
 11
73.2115701074
 21
135.6710204079
  0
LINE
  5
2E4
100
AcDbEntity
  8
0
100
AcDbLine
 62
7
  6
CONTINUOUS
 10
73.2115701074
 20
140.3510204074
 11
73.2115701074
 21
140.7510208382
  0
LINE
  5
2E5
100
AcDbEntity
  8
0
100
AcDbLine
 62
7
  6
CONTINUOUS
 10
73.2115701074
 20
145.4310204074
 11
73.2115701074
 21
145.8310204079
  0
LINE
  5
2E6
100
AcDbEntity
  8
0
100
AcDbLine
 62
7
  6
CONTINUOUS
 10
73.3415701071
 20
99.3576447343
 11
73.3415701071
 21
102.2443960795
  0
LINE
  5
2E7
100
AcDbEntity
  8
0
100
AcDbLine
 62
7
  6
CONTINUOUS
 10
73.3415701071
 20
124.3576447345
 11
73.3415701071
 21
127.2443960813
  0
LINE
  5
2E8
100
AcDbEntity
  8
0
100
AcDbLine
 62
7
  6
CONTINUOUS
 10
73.4915701085
 20
153.380641441
 11
73.4915701089
 21
150.4462900179
  0
LINE
  5
2E9
100
AcDbEntity
  8
0
100
AcDbLine
 62
7
  6
CONTINUOUS
 10
73.4915701086
 20
42.9557507971
 11
73.4915701084
 21
41.2181934046
  0
LINE
  5
2EA
100
AcDbEntity
  8
0
100
AcDbLine
 62
7
  6
CONTINUOUS
 10
73.6115701088
 20
145.8310204085
 11
73.6115701088
 21
145.431020407
  0
LINE
  5
2EB
100
AcDbEntity
  8
0
100
AcDbLine
 62
7
  6
CONTINUOUS
 10
73.6115701088
 20
140.751020839
 11
73.6115701088
 21
140.351020407
  0
LINE
  5
2EC
100
AcDbEntity
  8
0
100
AcDbLine
 62
7
  6
CONTINUOUS
 10
73.6115701088
 20
135.6710204085
 11
73.6115701088
 21
135.271020407
  0
LINE
  5
2ED
100
AcDbEntity
  8
0
100
AcDbLine
 62
7
  6
CONTINUOUS
 10
73.9115701081
 20
146.1310204075
 11
73.9115701081
 21
145.1310204075
  0
LINE
  5
2EE
100
AcDbEntity
  8
0
100
AcDbLine
 62
7
  6
CONTINUOUS
 10
73.9115701081
 20
141.0510208376
 11
73.9115701081
 21
140.0510204074
  0
LINE
  5
2EF
100
AcDbEntity
  8
0
100
AcDbLine
 62
7
  6
CONTINUOUS
 10
73.9115701081
 20
135.9710204075
 11
73.9115701081
 21
134.9710204074
  0
LINE
  5
2F0
100
AcDbEntity
  8
0
100
AcDbLine
 62
7
  6
CONTINUOUS
 10
74.1821501083
 20
61.9240204075
 11
74.1821501083
 21
62.1780204082
  0
LINE
  5
2F1
100
AcDbEntity
  8
0
100
AcDbLine
 62
7
  6
CONTINUOUS
 10
74.1821501083
 20
74.6240204068
 11
74.1821501083
 21
74.8780204075
  0
LINE
  5
2F2
100
AcDbEntity
  8
0
100
AcDbLine
 62
7
  6
CONTINUOUS
 10
74.223570108
 20
80.6740204075
 11
74.223570108
 21
80.9280204082
  0
LINE
  5
2F3
100
AcDbEntity
  8
0
100
AcDbLine
 62
7
  6
CONTINUOUS
 10
74.223570108
 20
93.3740204068
 11
74.223570108
 21
93.6280204074
  0
LINE
  5
2F4
100
AcDbEntity
  8
0
100
AcDbLine
 62
7
  6
CONTINUOUS
 10
74.6901501096
 20
74.8780204075
 11
74.6901501096
 21
74.3573204072
  0
LINE
  5
2F5
100
AcDbEntity
  8
0
100
AcDbLine
 62
7
  6
CONTINUOUS
 10
74.6901501096
 20
62.1780204082
 11
74.6901501096
 21
61.9240204075
  0
LINE
  5
2F6
100
AcDbEntity
  8
0
100
AcDbLine
 62
7
  6
CONTINUOUS
 10
74.7315701074
 20
93.6280204074
 11
74.7315701074
 21
93.3740204068
  0
LINE
  5
2F7
100
AcDbEntity
  8
0
100
AcDbLine
 62
7
  6
CONTINUOUS
 10
74.7315701074
 20
80.9280204082
 11
74.7315701074
 21
80.6740204075
  0
LINE
  5
2F8
100
AcDbEntity
  8
0
100
AcDbLine
 62
7
  6
CONTINUOUS
 10
76.5049629656
 20
148.1710204067
 11
76.5049629656
 21
132.9310204083
  0
LINE
  5
2F9
100
AcDbEntity
  8
0
100
AcDbLine
 62
7
  6
CONTINUOUS
 10
76.9761501081
 20
61.9240204075
 11
76.9761501081
 21
62.1780204082
  0
LINE
  5
2FA
100
AcDbEntity
  8
0
100
AcDbLine
 62
7
  6
CONTINUOUS
 10
76.9761501081
 20
74.3573204072
 11
76.9761501081
 21
74.8780204075
  0
LINE
  5
2FB
100
AcDbEntity
  8
0
100
AcDbLine
 62
7
  6
CONTINUOUS
 10
77.0175701077
 20
80.6740204075
 11
77.0175701077
 21
80.9280204082
  0
LINE
  5
2FC
100
AcDbEntity
  8
0
100
AcDbLine
 62
7
  6
CONTINUOUS
 10
77.0175701077
 20
93.3740204068
 11
77.0175701077
 21
93.6280204074
  0
LINE
  5
2FD
100
AcDbEntity
  8
0
100
AcDbLine
 62
7
  6
CONTINUOUS
 10
75.8415701081
 20
97.9142690612
 11
78.3415701081
 21
99.3576447343
  0
LINE
  5
2FE
100
AcDbEntity
  8
0
100
AcDbLine
 62
7
  6
CONTINUOUS
 10
107.9768709314
 20
100.1870531032
 11
108.4915701081
 21
100.1870531061
  0
LINE
  5
2FF
100
AcDbEntity
  8
0
100
AcDbLine
 62
7
  6
CONTINUOUS
 10
73.3415701071
 20
99.3576447349
 11
75.8415701081
 21
97.9142690612
  0
LINE
  5
300
100
AcDbEntity
  8
0
100
AcDbLine
 62
7
  6
CONTINUOUS
 10
77.4841501094
 20
74.8780204075
 11
77.4841501094
 21
74.6240204068
  0
LINE
  5
301
100
AcDbEntity
  8
0
100
AcDbLine
 62
7
  6
CONTINUOUS
 10
77.4841501094
 20
62.1780204082
 11
77.4841501094
 21
61.9240204075
  0
LINE
  5
302
100
AcDbEntity
  8
0
100
AcDbLine
 62
7
  6
CONTINUOUS
 10
77.5255701072
 20
93.6280204074
 11
77.5255701072
 21
93.3740204068
  0
LINE
  5
303
100
AcDbEntity
  8
0
100
AcDbLine
 62
7
  6
CONTINUOUS
 10
77.5255701072
 20
80.9280204082
 11
77.5255701072
 21
80.6740204075
  0
LINE
  5
304
100
AcDbEntity
  8
0
100
AcDbLine
 62
7
  6
CONTINUOUS
 10
78.1415701081
 20
131.9310204083
 11
78.1415701081
 21
149.1710204075
  0
LINE
  5
305
100
AcDbEntity
  8
0
100
AcDbLine
 62
7
  6
CONTINUOUS
 10
78.3415701081
 20
127.2443960806
 11
78.3415701081
 21
124.3576447344
  0
LINE
  5
306
100
AcDbEntity
  8
0
100
AcDbLine
 62
7
  6
CONTINUOUS
 10
78.3415701081
 20
102.2443960796
 11
78.3415701081
 21
99.3576447344
  0
LINE
  5
307
100
AcDbEntity
  8
0
100
AcDbLine
 62
7
  6
CONTINUOUS
 10
79.2697701073
 20
62.4447204079
 11
79.2697701073
 21
65.2514204066
  0
LINE
  5
308
100
AcDbEntity
  8
0
100
AcDbLine
 62
7
  6
CONTINUOUS
 10
79.2697701073
 20
71.5506204068
 11
79.2697701073
 21
74.3573204074
  0
LINE
  5
309
100
AcDbEntity
  8
0
100
AcDbLine
 62
7
  6
CONTINUOUS
 10
79.311190109
 20
81.1947204075
 11
79.311190109
 21
84.0014204072
  0
LINE
  5
30A
100
AcDbEntity
  8
0
100
AcDbLine
 62
7
  6
CONTINUOUS
 10
79.311190109
 20
90.3006204075
 11
79.311190109
 21
93.1073204083
  0
LINE
  5
30B
100
AcDbEntity
  8
0
100
AcDbLine
 62
7
  6
CONTINUOUS
 10
79.7701501078
 20
74.6240204068
 11
79.7701501078
 21
71.9570204074
  0
LINE
  5
30C
100
AcDbEntity
  8
0
100
AcDbLine
 62
7
  6
CONTINUOUS
 10
79.7701501078
 20
64.8450204076
 11
79.7701501078
 21
62.1780204082
  0
LINE
  5
30D
100
AcDbEntity
  8
0
100
AcDbLine
 62
7
  6
CONTINUOUS
 10
79.8115701075
 20
79.7215204069
 11
79.8115701075
 21
80.9280204082
  0
LINE
  5
30E
100
AcDbEntity
  8
0
100
AcDbLine
 62
7
  6
CONTINUOUS
 10
79.8115701075
 20
93.3740204068
 11
79.8115701075
 21
94.580520408
  0
LINE
  5
30F
100
AcDbEntity
  8
0
100
AcDbLine
 62
7
  6
CONTINUOUS
 10
80.0063701075
 20
119.6484804112
 11
80.0063701075
 21
106.9535604038
  0
LINE
  5
310
100
AcDbEntity
  8
0
100
AcDbLine
 62
7
  6
CONTINUOUS
 10
80.0415701081
 20
56.2573860685
 11
80.0415701081
 21
54.7446547465
  0
LINE
  5
311
100
AcDbEntity
  8
0
100
AcDbLine
 62
7
  6
CONTINUOUS
 10
80.0477901081
 20
79.9374204083
 11
80.0477901081
 21
83.9252204075
  0
LINE
  5
312
100
AcDbEntity
  8
0
100
AcDbLine
 62
7
  6
CONTINUOUS
 10
80.0477901081
 20
90.3768204083
 11
80.0477901081
 21
94.3646204075
  0
LINE
  5
313
100
AcDbEntity
  8
0
100
AcDbLine
 62
7
  6
CONTINUOUS
 10
80.4229301081
 20
119.6484804075
 11
80.4229301081
 21
106.9535604075
  0
LINE
  5
314
100
AcDbEntity
  8
0
100
AcDbLine
 62
7
  6
CONTINUOUS
 10
80.5583189619
 20
54.7401451476
 11
80.5583189611
 21
56.2618956672
  0
LINE
  5
315
100
AcDbEntity
  8
0
100
AcDbLine
 62
7
  6
CONTINUOUS
 10
80.9461701075
 20
65.2514204066
 11
80.9461701075
 21
66.369020408
  0
LINE
  5
316
100
AcDbEntity
  8
0
100
AcDbLine
 62
7
  6
CONTINUOUS
 10
80.9461701075
 20
70.4330204073
 11
80.9461701075
 21
71.5506204069
  0
LINE
  5
317
100
AcDbEntity
  8
0
100
AcDbLine
 62
7
  6
CONTINUOUS
 10
80.9875901088
 20
84.0014204072
 11
80.9875901088
 21
85.1190204075
  0
LINE
  5
318
100
AcDbEntity
  8
0
100
AcDbLine
 62
7
  6
CONTINUOUS
 10
80.9875901088
 20
89.1830204071
 11
80.9875901088
 21
90.3006204082
  0
LINE
  5
319
100
AcDbEntity
  8
0
100
AcDbLine
 62
7
  6
CONTINUOUS
 10
81.8003901081
 20
94.3646204075
 11
81.8003901081
 21
90.3768204091
  0
LINE
  5
31A
100
AcDbEntity
  8
0
100
AcDbLine
 62
7
  6
CONTINUOUS
 10
81.8003901081
 20
83.925220407
 11
81.8003901081
 21
79.9374204086
  0
LINE
  5
31B
100
AcDbEntity
  8
0
100
AcDbLine
 62
7
  6
CONTINUOUS
 10
81.8021501093
 20
71.9570204074
 11
81.8021501093
 21
70.8140204081
  0
LINE
  5
31C
100
AcDbEntity
  8
0
100
AcDbLine
 62
7
  6
CONTINUOUS
 10
81.8021501093
 20
65.9880204069
 11
81.8021501093
 21
64.8450204076
  0
LINE
  5
31D
100
AcDbEntity
  8
0
100
AcDbLine
 62
7
  6
CONTINUOUS
 10
81.843570109
 20
94.580520408
 11
81.843570109
 21
89.5640204081
  0
LINE
  5
31E
100
AcDbEntity
  8
0
100
AcDbLine
 62
7
  6
CONTINUOUS
 10
81.843570109
 20
84.7380204069
 11
81.843570109
 21
79.7215204069
  0
LINE
  5
31F
100
AcDbEntity
  8
0
100
AcDbLine
 62
7
  6
CONTINUOUS
 10
82.0535701088
 20
51.1810204087
 11
82.0535701088
 21
49.9410204067
  0
LINE
  5
320
100
AcDbEntity
  8
0
100
AcDbLine
 62
7
  6
CONTINUOUS
 10
82.0891701086
 20
66.369020408
 11
82.0891701086
 21
70.4330204073
  0
LINE
  5
321
100
AcDbEntity
  8
0
100
AcDbLine
 62
7
  6
CONTINUOUS
 10
82.1305901081
 20
85.1190204075
 11
82.1305901081
 21
89.1830204071
  0
LINE
  5
322
100
AcDbEntity
  8
0
100
AcDbLine
 62
7
  6
CONTINUOUS
 10
82.3535701081
 20
51.4810204075
 11
82.3535701081
 21
49.6410204075
  0
LINE
  5
323
100
AcDbEntity
  8
0
100
AcDbLine
 62
7
  6
CONTINUOUS
 10
82.4135701081
 20
46.0390204075
 11
82.4135701081
 21
47.0390204075
  0
LINE
  5
324
100
AcDbEntity
  8
0
100
AcDbLine
 62
7
  6
CONTINUOUS
 10
82.4135701081
 20
52.1630204073
 11
82.4135701081
 21
53.1630204075
  0
LINE
  5
325
100
AcDbEntity
  8
0
100
AcDbLine
 62
7
  6
CONTINUOUS
 10
82.7909901082
 20
89.5640204081
 11
82.7909901082
 21
84.7380204069
  0
LINE
  5
326
100
AcDbEntity
  8
0
100
AcDbLine
 62
7
  6
CONTINUOUS
 10
82.9451501086
 20
70.8140204081
 11
82.9451501086
 21
65.9880204069
  0
LINE
  5
327
100
AcDbEntity
  8
0
100
AcDbLine
 62
7
  6
CONTINUOUS
 10
83.0015701088
 20
60.2730204075
 11
83.0015701088
 21
76.5290204075
  0
LINE
  5
328
100
AcDbEntity
  8
0
100
AcDbLine
 62
7
  6
CONTINUOUS
 10
83.0015701088
 20
78.8960204067
 11
83.0015701088
 21
95.4060204083
  0
LINE
  5
329
100
AcDbEntity
  8
0
100
AcDbLine
 62
7
  6
CONTINUOUS
 10
83.0535701081
 20
47.0390204077
 11
83.0535701081
 21
52.1630204075
  0
LINE
  5
32A
100
AcDbEntity
  8
0
100
AcDbLine
 62
7
  6
CONTINUOUS
 10
72.225011904
 20
35.5276909382
 11
72.4615701081
 21
37.1010204075
  0
LINE
  5
32B
100
AcDbEntity
  8
0
100
AcDbLine
 62
7
  6
CONTINUOUS
 10
51.2438794778
 20
106.3475667098
 11
49.7415701078
 21
106.3475667098
  0
LINE
  5
32C
100
AcDbEntity
  8
0
100
AcDbLine
 62
7
  6
CONTINUOUS
 10
57.8415701082
 20
107.4010204075
 11
52.6415701077
 21
107.4010204075
  0
LINE
  5
32D
100
AcDbEntity
  8
0
100
AcDbLine
 62
7
  6
CONTINUOUS
 10
52.6415701081
 20
108.3457671165
 11
51.2438794778
 21
108.3457671165
  0
LINE
  5
32E
100
AcDbEntity
  8
0
100
AcDbLine
 62
7
  6
CONTINUOUS
 10
73.3067437366
 20
105.1812819393
 11
77.4418637372
 21
104.4521487148
  0
LINE
  5
32F
100
AcDbEntity
  8
0
100
AcDbLine
 62
7
  6
CONTINUOUS
 10
77.5141986206
 20
104.8623802321
 11
73.3790786223
 21
105.5915134561
  0
LINE
  5
330
100
AcDbEntity
  8
0
100
AcDbLine
 62
7
  6
CONTINUOUS
 10
78.3415701081
 20
102.2443960796
 11
75.8415701081
 21
103.6877717527
  0
LINE
  5
331
100
AcDbEntity
  8
0
100
AcDbLine
 62
7
  6
CONTINUOUS
 10
72.225011904
 20
159.0743498767
 11
72.4615701081
 21
157.5010204075
  0
LINE
  5
332
100
AcDbEntity
  8
0
100
AcDbLine
 62
7
  6
CONTINUOUS
 10
83.3715701081
 20
46.7210204075
 11
83.3715701081
 21
47.3610204081
  0
LINE
  5
333
100
AcDbEntity
  8
0
100
AcDbLine
 62
7
  6
CONTINUOUS
 10
83.3715701081
 20
51.8410204067
 11
83.3715701081
 21
52.4810204075
  0
LINE
  5
334
100
AcDbEntity
  8
0
100
AcDbLine
 62
7
  6
CONTINUOUS
 10
83.6735701067
 20
51.8410204075
 11
83.6735701067
 21
47.3610204075
  0
LINE
  5
335
100
AcDbEntity
  8
0
100
AcDbLine
 62
7
  6
CONTINUOUS
 10
84.0535701081
 20
51.8410204075
 11
84.0535701081
 21
47.3610204075
  0
LINE
  5
336
100
AcDbEntity
  8
0
100
AcDbLine
 62
7
  6
CONTINUOUS
 10
85.0415701088
 20
150.244684018
 11
85.0415701088
 21
56.3010204066
  0
LINE
  5
337
100
AcDbEntity
  8
0
100
AcDbLine
 62
7
  6
CONTINUOUS
 10
85.0415701081
 20
54.7010204077
 11
85.0415701081
 21
43.157356797
  0
LINE
  5
338
100
AcDbEntity
  8
0
100
AcDbLine
 62
7
  6
CONTINUOUS
 10
86.541570109
 20
45.101020407
 11
86.5415701072
 21
55.3703926657
  0
LINE
  5
339
100
AcDbEntity
  8
0
100
AcDbLine
 62
7
  6
CONTINUOUS
 10
86.9235978628
 20
40.6492257251
 11
86.9235978648
 21
34.9602279663
  0
LINE
  5
33A
100
AcDbEntity
  8
0
100
AcDbLine
 62
7
  6
CONTINUOUS
 10
87.8915701081
 20
34.9602278764
 11
87.8915701081
 21
53.4276987141
  0
LINE
  5
33B
100
AcDbEntity
  8
0
100
AcDbLine
 62
7
  6
CONTINUOUS
 10
88.8693741047
 20
45.6353736694
 11
88.8693729411
 21
54.4275036848
  0
LINE
  5
33C
100
AcDbEntity
  8
0
100
AcDbLine
 62
7
  6
CONTINUOUS
 10
107.9814773669
 20
99.3033854206
 11
98.0259417087
 21
93.7849816251
  0
LINE
  5
33D
100
AcDbEntity
  8
0
100
AcDbLine
 62
7
  6
CONTINUOUS
 10
98.0117277224
 20
93.8106245198
 11
107.9704206874
 21
99.31864777
  0
LINE
  5
33E
100
AcDbEntity
  8
0
100
AcDbLine
 62
7
  6
CONTINUOUS
 10
107.9768709315
 20
100.187053106
 11
98.0062692848
 21
94.6899495065
  0
LINE
  5
33F
100
AcDbEntity
  8
0
100
AcDbLine
 62
7
  6
CONTINUOUS
 10
73.3790786221
 20
121.0105273587
 11
77.514198622
 21
121.739660583
  0
LINE
  5
340
100
AcDbEntity
  8
0
100
AcDbLine
 62
7
  6
CONTINUOUS
 10
77.4418637368
 20
122.1498921001
 11
73.3067437369
 21
121.4207588757
  0
LINE
  5
341
100
AcDbEntity
  8
0
100
AcDbLine
 62
7
  6
CONTINUOUS
 10
96.5137651589
 20
54.5972107493
 11
96.5137661109
 21
35.0820229259
  0
LINE
  5
342
100
AcDbEntity
  8
0
100
AcDbLine
 62
7
  6
CONTINUOUS
 10
96.5246108273
 20
159.3200544
 11
96.5246108253
 21
153.6185221877
  0
LINE
  5
343
100
AcDbEntity
  8
0
100
AcDbLine
 62
7
  6
CONTINUOUS
 10
96.5250678163
 20
152.6191361489
 11
96.5250678163
 21
55.5969227722
  0
LINE
  5
344
100
AcDbEntity
  8
0
100
AcDbLine
 62
7
  6
CONTINUOUS
 10
97.4915701081
 20
35.2819864428
 11
97.4915701081
 21
159.3200543722
  0
LINE
  5
345
100
AcDbEntity
  8
0
100
AcDbLine
 62
7
  6
CONTINUOUS
 10
97.5915701081
 20
36.9010204075
 11
97.5915701077
 21
38.667045811
  0
LINE
  5
346
100
AcDbEntity
  8
0
100
AcDbLine
 62
7
  6
CONTINUOUS
 10
97.5915701077
 20
45.934846727
 11
97.5915701077
 21
61.5410204066
  0
LINE
  5
347
100
AcDbEntity
  8
0
100
AcDbLine
 62
7
  6
CONTINUOUS
 10
97.5915701081
 20
64.5010204075
 11
97.5915701077
 21
86.151020407
  0
LINE
  5
348
100
AcDbEntity
  8
0
100
AcDbLine
 62
7
  6
CONTINUOUS
 10
97.6915701081
 20
38.6671946765
 11
97.6915701081
 21
45.934846727
  0
LINE
  5
349
100
AcDbEntity
  8
0
100
AcDbLine
 62
7
  6
CONTINUOUS
 10
97.7915701081
 20
61.5416635167
 11
97.7915701088
 21
86.151020407
  0
LINE
  5
34A
100
AcDbEntity
  8
0
100
AcDbLine
 62
7
  6
CONTINUOUS
 10
97.7915701081
 20
86.1516635171
 11
97.7915701081
 21
156.2010204075
  0
LINE
  5
34B
100
AcDbEntity
  8
0
100
AcDbLine
 62
7
  6
CONTINUOUS
 10
98.0062692848
 20
159.1254905996
 11
98.0062692848
 21
94.6899495065
  0
LINE
  5
34C
100
AcDbEntity
  8
0
100
AcDbLine
 62
7
  6
CONTINUOUS
 10
98.0117277224
 20
93.8106245198
 11
98.002953939
 21
93.7722393881
  0
LINE
  5
34D
100
AcDbEntity
  8
0
100
AcDbLine
 62
7
  6
CONTINUOUS
 10
108.4915701081
 20
124.2010204075
 11
108.5915701077
 21
124.2010204075
  0
LINE
  5
34E
100
AcDbEntity
  8
0
100
AcDbLine
 62
7
  6
CONTINUOUS
 10
108.5915701077
 20
124.7357890778
 11
108.4915701081
 21
124.7357890778
  0
LINE
  5
34F
100
AcDbEntity
  8
0
100
AcDbLine
 62
7
  6
CONTINUOUS
 10
73.3415701071
 20
124.3576447341
 11
75.8415701074
 21
122.9142690607
  0
LINE
  5
350
100
AcDbEntity
  8
0
100
AcDbLine
 62
7
  6
CONTINUOUS
 10
78.3415701081
 20
127.2443960805
 11
75.8415701076
 21
128.687771754
  0
LINE
  5
351
100
AcDbEntity
  8
0
100
AcDbLine
 62
7
  6
CONTINUOUS
 10
73.6115701088
 20
135.271020407
 11
73.9115701079
 21
134.9710204084
  0
LINE
  5
352
100
AcDbEntity
  8
0
100
AcDbLine
 62
7
  6
CONTINUOUS
 10
73.2115701074
 20
135.6710204079
 11
72.9115701083
 21
135.9710204065
  0
LINE
  5
353
100
AcDbEntity
  8
0
100
AcDbLine
 62
7
  6
CONTINUOUS
 10
71.5535701085
 20
49.9410204068
 11
71.2535701078
 21
49.6410204075
  0
LINE
  5
354
100
AcDbEntity
  8
0
100
AcDbLine
 62
7
  6
CONTINUOUS
 10
78.1415701077
 20
131.9310204083
 11
69.5415701081
 21
131.9310204083
  0
LINE
  5
355
100
AcDbEntity
  8
0
100
AcDbLine
 62
7
  6
CONTINUOUS
 10
76.5049629656
 20
132.9310204083
 11
71.211570108
 21
132.9310204083
  0
LINE
  5
356
100
AcDbEntity
  8
0
100
AcDbLine
 62
7
  6
CONTINUOUS
 10
51.2438794778
 20
133.2859278787
 11
57.8415701081
 21
133.2859278787
  0
LINE
  5
357
100
AcDbEntity
  8
0
100
AcDbLine
 62
7
  6
CONTINUOUS
 10
73.6115701088
 20
140.351020407
 11
73.9115701079
 21
140.0510204084
  0
LINE
  5
358
100
AcDbEntity
  8
0
100
AcDbLine
 62
7
  6
CONTINUOUS
 10
73.2115701074
 20
140.7510208382
 11
72.9115701083
 21
141.0510208368
  0
LINE
  5
359
100
AcDbEntity
  8
0
100
AcDbLine
 62
7
  6
CONTINUOUS
 10
73.6115701088
 20
145.431020407
 11
73.9115701079
 21
145.1310204084
  0
LINE
  5
35A
100
AcDbEntity
  8
0
100
AcDbLine
 62
7
  6
CONTINUOUS
 10
73.2115701074
 20
145.8310204079
 11
72.9115701083
 21
146.1310204065
  0
LINE
  5
35B
100
AcDbEntity
  8
0
100
AcDbLine
 62
7
  6
CONTINUOUS
 10
107.9768709315
 20
100.187053106
 11
107.9768709319
 21
153.56082689
  0
LINE
  5
35C
100
AcDbEntity
  8
0
100
AcDbLine
 62
7
  6
CONTINUOUS
 10
108.4915701081
 20
100.1870532471
 11
108.4915701081
 21
153.5608268941
  0
LINE
  5
35D
100
AcDbEntity
  8
0
100
AcDbLine
 62
7
  6
CONTINUOUS
 10
108.5915701081
 20
124.2010204075
 11
108.5915701077
 21
135.5510204075
  0
LINE
  5
35E
100
AcDbEntity
  8
0
100
AcDbLine
 62
7
  6
CONTINUOUS
 10
108.7915701081
 20
135.5515299751
 11
108.7915701081
 21
150.6010204075
  0
LINE
  5
35F
100
AcDbEntity
  8
0
100
AcDbLine
 62
7
  6
CONTINUOUS
 10
82.0535701077
 20
51.1810204082
 11
82.3535701084
 21
51.4810204075
  0
LINE
  5
360
100
AcDbEntity
  8
0
100
AcDbLine
 62
7
  6
CONTINUOUS
 10
73.9115701081
 20
134.9710204075
 11
72.9115701081
 21
134.9710204075
  0
LINE
  5
361
100
AcDbEntity
  8
0
100
AcDbLine
 62
7
  6
CONTINUOUS
 10
73.6115701089
 20
135.2710204068
 11
73.2115701071
 21
135.2710204068
  0
LINE
  5
362
100
AcDbEntity
  8
0
100
AcDbLine
 62
7
  6
CONTINUOUS
 10
108.7915701081
 20
135.5510204075
 11
108.4915701081
 21
135.5510204075
  0
LINE
  5
363
100
AcDbEntity
  8
0
100
AcDbLine
 62
7
  6
CONTINUOUS
 10
73.2115701073
 20
135.6710204082
 11
73.6115701082
 21
135.6710204082
  0
LINE
  5
364
100
AcDbEntity
  8
0
100
AcDbLine
 62
7
  6
CONTINUOUS
 10
72.9115701081
 20
135.9710204075
 11
73.9115701081
 21
135.9710204075
  0
LINE
  5
365
100
AcDbEntity
  8
0
100
AcDbLine
 62
7
  6
CONTINUOUS
 10
108.7915701088
 20
136.0010204075
 11
108.4915701081
 21
136.0010204075
  0
LINE
  5
366
100
AcDbEntity
  8
0
100
AcDbLine
 62
7
  6
CONTINUOUS
 10
73.9115701081
 20
140.0510204075
 11
72.9115701081
 21
140.0510204075
  0
LINE
  5
367
100
AcDbEntity
  8
0
100
AcDbLine
 62
7
  6
CONTINUOUS
 10
73.6115701089
 20
140.3510204068
 11
73.2115701071
 21
140.3510204068
  0
LINE
  5
368
100
AcDbEntity
  8
0
100
AcDbLine
 62
7
  6
CONTINUOUS
 10
73.2115701074
 20
140.7510208385
 11
73.6115701081
 21
140.7510208385
  0
LINE
  5
369
100
AcDbEntity
  8
0
100
AcDbLine
 62
7
  6
CONTINUOUS
 10
72.9115701081
 20
141.0510208377
 11
73.9115701088
 21
141.0510208377
  0
LINE
  5
36A
100
AcDbEntity
  8
0
100
AcDbLine
 62
7
  6
CONTINUOUS
 10
73.9115701081
 20
145.1310204075
 11
72.9115701081
 21
145.1310204075
  0
LINE
  5
36B
100
AcDbEntity
  8
0
100
AcDbLine
 62
7
  6
CONTINUOUS
 10
73.6115701089
 20
145.4310204068
 11
73.2115701071
 21
145.4310204068
  0
LINE
  5
36C
100
AcDbEntity
  8
0
100
AcDbLine
 62
7
  6
CONTINUOUS
 10
73.2115701073
 20
145.8310204082
 11
73.6115701082
 21
145.8310204082
  0
LINE
  5
36D
100
AcDbEntity
  8
0
100
AcDbLine
 62
7
  6
CONTINUOUS
 10
72.9115701081
 20
146.1310204075
 11
73.9115701081
 21
146.1310204075
  0
LINE
  5
36E
100
AcDbEntity
  8
0
100
AcDbLine
 62
7
  6
CONTINUOUS
 10
72.1991345433
 20
146.3310204068
 11
74.6240056732
 21
146.3310204068
  0
LINE
  5
36F
100
AcDbEntity
  8
0
100
AcDbLine
 62
7
  6
CONTINUOUS
 10
71.211570108
 20
148.1710204067
 11
76.5049629656
 21
148.1710204067
  0
LINE
  5
370
100
AcDbEntity
  8
0
100
AcDbLine
 62
7
  6
CONTINUOUS
 10
108.7915701088
 20
148.4564074899
 11
108.4915701081
 21
148.4564074899
  0
LINE
  5
371
100
AcDbEntity
  8
0
100
AcDbLine
 62
7
  6
CONTINUOUS
 10
69.5415701081
 20
149.1710204075
 11
78.1415701081
 21
149.1710204075
  0
LINE
  5
372
100
AcDbEntity
  8
0
100
AcDbLine
 62
7
  6
CONTINUOUS
 10
108.7915701088
 20
150.6010204075
 11
108.4915701081
 21
150.6010204075
  0
LINE
  5
373
100
AcDbEntity
  8
0
100
AcDbLine
 62
7
  6
CONTINUOUS
 10
67.3415701081
 20
150.5536386672
 11
85.0415701088
 21
150.244684018
  0
LINE
  5
374
100
AcDbEntity
  8
0
100
AcDbLine
 62
7
  6
CONTINUOUS
 10
69.3764695451
 20
157.4359182278
 11
67.9915701081
 21
157.3835600213
  0
LINE
  5
375
100
AcDbEntity
  8
0
100
AcDbLine
 62
7
  6
CONTINUOUS
 10
96.5250678158
 20
152.619136148
 11
97.4915701081
 21
152.619136148
  0
LINE
  5
376
100
AcDbEntity
  8
0
100
AcDbLine
 62
7
  6
CONTINUOUS
 10
51.2438794778
 20
153.3161129363
 11
57.8415701081
 21
153.3161129363
  0
LINE
  5
377
100
AcDbEntity
  8
0
100
AcDbLine
 62
7
  6
CONTINUOUS
 10
107.9768709314
 20
153.5608268905
 11
108.4915701081
 21
153.5608268935
  0
LINE
  5
378
100
AcDbEntity
  8
0
100
AcDbLine
 62
7
  6
CONTINUOUS
 10
70.9703697565
 20
155.0010204075
 11
70.4488624932
 21
155.0010204075
  0
LINE
  5
379
100
AcDbEntity
  8
0
100
AcDbLine
 62
7
  6
CONTINUOUS
 10
97.4915701081
 20
155.0010204075
 11
97.7915701088
 21
155.0010204075
  0
LINE
  5
37A
100
AcDbEntity
  8
0
100
AcDbLine
 62
7
  6
CONTINUOUS
 10
70.3415701081
 20
155.4516567488
 11
69.3764696049
 21
155.4516567488
  0
LINE
  5
37B
100
AcDbEntity
  8
0
100
AcDbLine
 62
7
  6
CONTINUOUS
 10
97.7915701088
 20
156.2010204075
 11
97.4915701081
 21
156.2010204075
  0
LINE
  5
37C
100
AcDbEntity
  8
0
100
AcDbLine
 62
7
  6
CONTINUOUS
 10
57.8415701081
 20
157.4027758326
 11
58.8102123516
 21
157.4027758326
  0
LINE
  5
37D
100
AcDbEntity
  8
0
100
AcDbLine
 62
7
  6
CONTINUOUS
 10
69.3764696049
 20
157.4359182275
 11
70.3415701081
 21
157.4359182275
  0
LINE
  5
37E
100
AcDbEntity
  8
0
100
AcDbLine
 62
7
  6
CONTINUOUS
 10
97.4915701081
 20
157.5009475233
 11
72.4615701081
 21
157.5010198502
  0
LINE
  5
37F
100
AcDbEntity
  8
0
100
AcDbLine
 62
7
  6
CONTINUOUS
 10
67.9915701085
 20
157.4010204081
 11
58.8102123516
 21
157.402775833
  0
LINE
  5
380
100
AcDbEntity
  8
0
100
AcDbLine
 62
7
  6
CONTINUOUS
 10
96.5250678163
 20
152.6191361489
 11
71.3105674735
 21
153.452742687
  0
LINE
  5
381
100
AcDbEntity
  8
0
100
AcDbLine
 62
7
  6
CONTINUOUS
 10
71.3085293922
 20
154.4522026253
 11
96.5246108229
 21
153.6185901554
  0
LINE
  5
382
100
AcDbEntity
  8
0
100
AcDbLine
 62
7
  6
CONTINUOUS
 10
67.3415701077
 20
161.3010204075
 11
58.8102123508
 21
161.033364535
  0
LINE
  5
383
100
AcDbEntity
  8
0
100
AcDbLine
 62
7
  6
CONTINUOUS
 10
97.4915701081
 20
159.125490596
 11
98.0062692848
 21
159.1254905989
  0
LINE
  5
384
100
AcDbEntity
  8
0
100
AcDbLine
 62
7
  6
CONTINUOUS
 10
96.5246129777
 20
159.3200544008
 11
97.4915701081
 21
159.3200543723
  0
LINE
  5
385
100
AcDbEntity
  8
0
100
AcDbLine
 62
7
  6
CONTINUOUS
 10
70.9703697565
 20
160.0010204075
 11
70.3415701081
 21
160.0010204075
  0
LINE
  5
386
100
AcDbEntity
  8
0
100
AcDbLine
 62
7
  6
CONTINUOUS
 10
67.9915701085
 20
161.0010204068
 11
67.3415701081
 21
161.0010204068
  0
LINE
  5
387
100
AcDbEntity
  8
0
100
AcDbLine
 62
7
  6
CONTINUOUS
 10
49.7415701078
 20
163.9543676758
 11
51.2438794778
 21
163.9543676758
  0
LINE
  5
388
100
AcDbEntity
  8
0
100
AcDbLine
 62
7
  6
CONTINUOUS
 10
96.5246108273
 20
159.3200544
 11
73.4897133181
 21
160.0921044322
  0
LINE
  5
389
100
AcDbEntity
  8
0
100
AcDbLine
 62
7
  6
CONTINUOUS
 10
73.491570109
 20
161.0914957906
 11
97.2493523288
 21
160.2952176713
  0
LINE
  5
38A
100
AcDbEntity
  8
0
100
AcDbLine
 62
7
  6
CONTINUOUS
 10
73.4897133181
 20
160.0921044322
 11
71.3085293881
 21
160.1682735438
  0
LINE
  5
38B
100
AcDbEntity
  8
0
100
AcDbLine
 62
7
  6
CONTINUOUS
 10
67.9915701081
 20
161.2835600221
 11
73.491570109
 21
161.0914957906
  0
LINE
  5
38C
100
AcDbEntity
  8
0
100
AcDbLine
 62
7
  6
CONTINUOUS
 10
71.3085271477
 20
160.1682414429
 11
70.3415701081
 21
160.2358074396
  0
LINE
  5
38D
100
AcDbEntity
  8
0
100
AcDbLine
 62
7
  6
CONTINUOUS
 10
96.6200666717
 20
160.3118403999
 11
96.59960817
 21
160.3141886691
  0
LINE
  5
38E
100
AcDbEntity
  8
0
100
AcDbLine
 62
7
  6
CONTINUOUS
 10
96.6610382387
 20
160.305750731
 11
96.5820655441
 21
160.3159134413
  0
LINE
  5
38F
100
AcDbEntity
  8
0
100
AcDbLine
 62
7
  6
CONTINUOUS
 10
96.6343035807
 20
160.3099525834
 11
96.6200666717
 21
160.3118403999
  0
LINE
  5
390
100
AcDbEntity
  8
0
100
AcDbLine
 62
7
  6
CONTINUOUS
 10
107.9768709319
 20
153.56082689
 11
98.0062692848
 21
159.1254905996
  0
LINE
  5
391
100
AcDbEntity
  8
0
100
AcDbLine
 62
7
  6
CONTINUOUS
 10
97.7031952684
 20
160.1689887482
 11
107.9789147008
 21
154.4340366329
  0
LINE
  5
392
100
AcDbEntity
  8
0
100
AcDbLine
 62
7
  6
CONTINUOUS
 10
49.7415701086
 20
174.3514062532
 11
41.8415701082
 21
174.4218551059
  0
LINE
  5
393
100
AcDbEntity
  8
0
100
AcDbLine
 62
7
  6
CONTINUOUS
 10
41.8415701082
 20
174.4218551072
 11
32.2715701081
 21
174.5555212243
  0
LINE
  5
394
100
AcDbEntity
  8
0
100
AcDbLine
 62
7
  6
CONTINUOUS
 10
41.8415701079
 20
178.8010204082
 11
32.2715701081
 21
178.5555212239
  0
LINE
  5
395
100
AcDbEntity
  8
0
100
AcDbLine
 62
7
  6
CONTINUOUS
 10
49.7415701083
 20
178.5419973425
 11
41.8415701079
 21
178.8010204082
  0
ARC
  5
396
100
AcDbEntity
  8
0
100
AcDbCircle
 62
7
  6
CONTINUOUS
 10
70.9703697565
 20
38.288339627
 40
1.3126807809
100
AcDbArc
 50
17.1018254176
 51
90.0
  0
ARC
  5
397
100
AcDbEntity
  8
0
100
AcDbCircle
 62
7
  6
CONTINUOUS
 10
70.9703697565
 20
35.9137011879
 40
1.3126807809
100
AcDbArc
 50
270.0
 51
342.8981745824
  0
ARC
  5
398
100
AcDbEntity
  8
0
100
AcDbCircle
 62
7
  6
CONTINUOUS
 10
58.8422867831
 20
34.5688229665
 40
1.0007136749
100
AcDbArc
 50
180.0365553669
 51
268.1631695209
  0
ARC
  5
399
100
AcDbEntity
  8
0
100
AcDbCircle
 62
7
  6
CONTINUOUS
 10
71.3415701081
 20
39.1493987855
 40
1.0
100
AcDbArc
 50
91.835142279
 51
180.0000001004
  0
ARC
  5
39A
100
AcDbEntity
  8
0
100
AcDbCircle
 62
7
  6
CONTINUOUS
 10
69.3415701081
 20
34.3662333758
 40
1.0
100
AcDbArc
 50
271.9999999923
 51
359.9999999714
  0
ARC
  5
39B
100
AcDbEntity
  8
0
100
AcDbCircle
 62
7
  6
CONTINUOUS
 10
51.0354620407
 20
18.2089108683
 40
0.2084174371
100
AcDbArc
 50
238.3223391618
 51
360.0
  0
ARC
  5
39C
100
AcDbEntity
  8
0
100
AcDbCircle
 62
7
  6
CONTINUOUS
 10
58.8415701081
 20
160.0338563104
 40
1.0
100
AcDbArc
 50
91.7969617251
 51
180.0
  0
ARC
  5
39D
100
AcDbEntity
  8
0
100
AcDbCircle
 62
7
  6
CONTINUOUS
 10
51.0354620407
 20
176.3931299466
 40
0.2084174371
100
AcDbArc
 50
0.0
 51
121.6776609826
  0
ARC
  5
39E
100
AcDbEntity
  8
0
100
AcDbCircle
 62
7
  6
CONTINUOUS
 10
73.4115701081
 20
135.4710204075
 40
3.0
100
AcDbArc
 50
137.1665720011
 51
222.833428075
  0
ARC
  5
39F
100
AcDbEntity
  8
0
100
AcDbCircle
 62
7
  6
CONTINUOUS
 10
73.7478101081
 20
107.682693632
 40
2.54
100
AcDbArc
 50
180.0000000045
 51
259.9999999959
  0
ARC
  5
3A0
100
AcDbEntity
  8
0
100
AcDbCircle
 62
7
  6
CONTINUOUS
 10
77.8829301081
 20
106.9535604075
 40
2.54
100
AcDbArc
 50
260.0000000077
 51
360.0
  0
ARC
  5
3A1
100
AcDbEntity
  8
0
100
AcDbCircle
 62
7
  6
CONTINUOUS
 10
77.8829301081
 20
119.6484804075
 40
2.54
100
AcDbArc
 50
0.0
 51
100.0000000009
  0
ARC
  5
3A2
100
AcDbEntity
  8
0
100
AcDbCircle
 62
7
  6
CONTINUOUS
 10
73.7478101081
 20
118.919347183
 40
2.54
100
AcDbArc
 50
99.9999999973
 51
179.9999999955
  0
ARC
  5
3A3
100
AcDbEntity
  8
0
100
AcDbCircle
 62
7
  6
CONTINUOUS
 10
73.7478101106
 20
107.6826936331
 40
2.1234400021
100
AcDbArc
 50
180.0000000057
 51
259.9999999577
  0
ARC
  5
3A4
100
AcDbEntity
  8
0
100
AcDbCircle
 62
7
  6
CONTINUOUS
 10
73.7478101106
 20
118.9193471819
 40
2.1234400021
100
AcDbArc
 50
100.0000000481
 51
179.9999999943
  0
ARC
  5
3A5
100
AcDbEntity
  8
0
100
AcDbCircle
 62
7
  6
CONTINUOUS
 10
77.882930112
 20
119.6484804109
 40
2.1234399958
100
AcDbArc
 50
0.0000000085
 51
99.9999997407
  0
ARC
  5
3A6
100
AcDbEntity
  8
0
100
AcDbCircle
 62
7
  6
CONTINUOUS
 10
77.882930112
 20
106.9535604041
 40
2.1234399958
100
AcDbArc
 50
260.0000002227
 51
359.9999999915
  0
CIRCLE
  5
3A7
100
AcDbEntity
  8
0
100
AcDbCircle
 62
7
  6
CONTINUOUS
 10
75.8415701081
 20
100.8010204075
 40
1.5
  0
CIRCLE
  5
3A8
100
AcDbEntity
  8
0
100
AcDbCircle
 62
7
  6
CONTINUOUS
 10
75.8415701081
 20
125.8010204075
 40
1.5
  0
CIRCLE
  5
3A9
100
AcDbEntity
  8
0
100
AcDbCircle
 62
7
  6
CONTINUOUS
 10
73.4115701081
 20
135.4710204075
 40
1.4
  0
CIRCLE
  5
3AA
100
AcDbEntity
  8
0
100
AcDbCircle
 62
7
  6
CONTINUOUS
 10
74.3929701081
 20
117.4158204075
 40
0.508
  0
CIRCLE
  5
3AB
100
AcDbEntity
  8
0
100
AcDbCircle
 62
7
  6
CONTINUOUS
 10
74.3929701081
 20
114.6726204075
 40
0.508
  0
CIRCLE
  5
3AC
100
AcDbEntity
  8
0
100
AcDbCircle
 62
7
  6
CONTINUOUS
 10
74.3929701081
 20
111.9294204075
 40
0.508
  0
CIRCLE
  5
3AD
100
AcDbEntity
  8
0
100
AcDbCircle
 62
7
  6
CONTINUOUS
 10
74.3929701081
 20
109.1862204075
 40
0.508
  0
CIRCLE
  5
3AE
100
AcDbEntity
  8
0
100
AcDbCircle
 62
7
  6
CONTINUOUS
 10
77.2377701081
 20
107.8146204075
 40
0.508
  0
CIRCLE
  5
3AF
100
AcDbEntity
  8
0
100
AcDbCircle
 62
7
  6
CONTINUOUS
 10
77.2377701081
 20
110.5578204075
 40
0.508
  0
CIRCLE
  5
3B0
100
AcDbEntity
  8
0
100
AcDbCircle
 62
7
  6
CONTINUOUS
 10
77.2377701081
 20
113.3010204075
 40
0.508
  0
CIRCLE
  5
3B1
100
AcDbEntity
  8
0
100
AcDbCircle
 62
7
  6
CONTINUOUS
 10
77.2377701081
 20
116.0442204075
 40
0.508
  0
CIRCLE
  5
3B2
100
AcDbEntity
  8
0
100
AcDbCircle
 62
7
  6
CONTINUOUS
 10
77.2377701081
 20
118.7874204075
 40
0.508
  0
ARC
  5
3B3
100
AcDbEntity
  8
0
100
AcDbCircle
 62
7
  6
CONTINUOUS
 10
73.4115701188
 20
140.5510204029
 40
3.0000000115
100
AcDbArc
 50
137.1665720009
 51
222.8334279991
  0
ARC
  5
3B4
100
AcDbEntity
  8
0
100
AcDbCircle
 62
7
  6
CONTINUOUS
 10
73.4115701188
 20
145.631020403
 40
3.0000000115
100
AcDbArc
 50
137.1665720009
 51
222.8334279989
  0
CIRCLE
  5
3B5
100
AcDbEntity
  8
0
100
AcDbCircle
 62
7
  6
CONTINUOUS
 10
73.4115701081
 20
140.5510204075
 40
1.4
  0
ARC
  5
3B6
100
AcDbEntity
  8
0
100
AcDbCircle
 62
7
  6
CONTINUOUS
 10
73.4115701081
 20
145.6310204075
 40
1.4
100
AcDbArc
 50
150.0000000315
 51
29.9999999685
  0
ARC
  5
3B7
100
AcDbEntity
  8
0
100
AcDbCircle
 62
7
  6
CONTINUOUS
 10
70.9703697565
 20
158.688339627
 40
1.3126807809
100
AcDbArc
 50
17.1018254176
 51
90.0
  0
ARC
  5
3B8
100
AcDbEntity
  8
0
100
AcDbCircle
 62
7
  6
CONTINUOUS
 10
70.9703697565
 20
156.3137011879
 40
1.3126807809
100
AcDbArc
 50
270.0
 51
342.8981745824
  0
ARC
  5
3B9
100
AcDbEntity
  8
0
100
AcDbCircle
 62
7
  6
CONTINUOUS
 10
69.3415701081
 20
160.2358074392
 40
1.0
100
AcDbArc
 50
0.0
 51
88.0000003498
  0
ARC
  5
3BA
100
AcDbEntity
  8
0
100
AcDbCircle
 62
7
  6
CONTINUOUS
 10
71.3415701081
 20
155.45165663
 40
1.0
100
AcDbArc
 50
180.0000000686
 51
268.1065618264
  0
ARC
  5
3BB
100
AcDbEntity
  8
0
100
AcDbCircle
 62
7
  6
CONTINUOUS
 10
96.4908199629
 20
55.5976717944
 40
1.0007241316
100
AcDbArc
 50
271.3138267463
 51
359.9571163963
  0
ARC
  5
3BC
100
AcDbEntity
  8
0
100
AcDbCircle
 62
7
  6
CONTINUOUS
 10
98.4913658123
 20
92.8909829063
 40
1.0001929291
100
AcDbArc
 50
118.9964028066
 51
134.4390213843
  0
ARC
  5
3BD
100
AcDbEntity
  8
0
100
AcDbCircle
 62
7
  6
CONTINUOUS
 10
98.4921647188
 20
92.9415219005
 40
1.0001929291
100
AcDbArc
 50
118.9338942609
 51
135.0127117031
  0
ARC
  5
3BE
100
AcDbEntity
  8
0
100
AcDbCircle
 62
7
  6
CONTINUOUS
 10
96.4915701081
 20
55.5969227728
 40
1.0
100
AcDbArc
 50
271.2718418832
 51
360.0
  0
ARC
  5
3BF
100
AcDbEntity
  8
0
100
AcDbCircle
 62
7
  6
CONTINUOUS
 10
86.8915701081
 20
34.9602278772
 40
1.0
100
AcDbArc
 50
271.9196363895
 51
359.9999999542
  0
ARC
  5
3C0
100
AcDbEntity
  8
0
100
AcDbCircle
 62
7
  6
CONTINUOUS
 10
96.4915701081
 20
35.2819864435
 40
1.0
100
AcDbArc
 50
271.919636363
 51
360.0
  0
ARC
  5
3C1
100
AcDbEntity
  8
0
100
AcDbCircle
 62
7
  6
CONTINUOUS
 10
88.8915701081
 20
53.4276987132
 40
1.0
100
AcDbArc
 50
91.271841912
 51
179.9999999374
  0
ARC
  5
3C2
100
AcDbEntity
  8
0
100
AcDbCircle
 62
7
  6
CONTINUOUS
 10
86.8915701081
 20
41.6486507096
 40
1.0
100
AcDbArc
 50
271.8351422575
 51
359.9999985371
  0
ARC
  5
3C3
100
AcDbEntity
  8
0
100
AcDbCircle
 62
7
  6
CONTINUOUS
 10
103.4270540711
 20
160.6936694803
 40
5.6430562178
100
AcDbArc
 50
194.9215426041
 51
196.1346435485
  0
ARC
  5
3C4
100
AcDbEntity
  8
0
100
AcDbCircle
 62
7
  6
CONTINUOUS
 10
107.4919738493
 20
100.1853652356
 40
1.0001911718
100
AcDbArc
 50
299.0310903386
 51
359.9603876962
  0
ARC
  5
3C5
100
AcDbEntity
  8
0
100
AcDbCircle
 62
7
  6
CONTINUOUS
 10
107.4915701081
 20
100.1870531119
 40
1.0
100
AcDbArc
 50
298.8737309179
 51
359.9999881174
  0
ARC
  5
3C6
100
AcDbEntity
  8
0
100
AcDbCircle
 62
7
  6
CONTINUOUS
 10
96.4915701081
 20
152.6191361489
 40
1.0
100
AcDbArc
 50
0.0
 51
88.1065618814
  0
ARC
  5
3C7
100
AcDbEntity
  8
0
100
AcDbCircle
 62
7
  6
CONTINUOUS
 10
107.4915701081
 20
153.5608268941
 40
1.0
100
AcDbArc
 50
0.000000002
 51
60.8338017397
  0
ARC
  5
3C8
100
AcDbEntity
  8
0
100
AcDbCircle
 62
7
  6
CONTINUOUS
 10
97.2158546205
 20
159.2957788771
 40
1.0
100
AcDbArc
 50
60.8338017374
 51
88.080363586
  0
ARC
  5
3C9
100
AcDbEntity
  8
0
100
AcDbCircle
 62
7
  6
CONTINUOUS
 10
96.4915701081
 20
159.3200543715
 40
1.0
100
AcDbArc
 50
0.0
 51
88.0803635795
  0
ARC
  5
3CA
100
AcDbEntity
  8
0
100
AcDbCircle
 62
7
  6
CONTINUOUS
 10
97.2276350229
 20
159.7909198117
 40
0.4830913126
100
AcDbArc
 50
32.2620489623
 51
36.9387997342
  0
SPLINE
  5
3CB
100
AcDbEntity
  8
0
100
AcDbSpline
 62
7
  6
CONTINUOUS
 70
0
 71
3
 72
11
 73
7
 74
0
 42
0.0000001
 43
0.0000001
 44
0.0000000001
 40
0.0
 40
0.0
 40
0.0
 40
0.0
 40
0.2094202087
 40
0.4445104738
 40
0.7125369648
 40
1.0
 40
1.0
 40
1.0
 40
1.0
 10
51.2439024321
 20
167.3429008365
 30
0.0
 10
51.2438864194
 20
167.3624235989
 30
0.0
 10
51.2312131022
 20
167.4043447098
 30
0.0
 10
51.1826154596
 20
167.4524280392
 30
0.0
 10
51.1143448888
 20
167.4831409889
 30
0.0
 10
51.0622601919
 20
167.4902742104
 30
0.0
 10
51.0354620407
 20
167.4902742104
 30
0.0
  0
SPLINE
  5
3CC
100
AcDbEntity
  8
0
100
AcDbSpline
 62
7
  6
CONTINUOUS
 70
0
 71
3
 72
10
 73
6
 74
0
 42
0.0000001
 43
0.0000001
 44
0.0000000001
 40
0.0
 40
0.0
 40
0.0
 40
0.0
 40
0.246502708
 40
0.4963474448
 40
1.0
 40
1.0
 40
1.0
 40
1.0
 10
51.2439024321
 20
101.784193978
 30
0.0
 10
51.2438866853
 20
101.7583393021
 30
0.0
 10
51.2327101671
 20
101.7056678229
 30
0.0
 10
51.1713376825
 20
101.6179217102
 30
0.0
 10
51.0882881377
 20
101.5857247285
 30
0.0
 10
51.0354620407
 20
101.5857247285
 30
0.0
  0
SPLINE
  5
3CD
100
AcDbEntity
  8
0
100
AcDbSpline
 62
7
  6
CONTINUOUS
 70
0
 71
3
 72
10
 73
6
 74
0
 42
0.0000001
 43
0.0000001
 44
0.0000000001
 40
0.0
 40
0.0
 40
0.0
 40
0.0
 40
0.246502708
 40
0.4963474448
 40
1.0
 40
1.0
 40
1.0
 40
1.0
 10
51.2439024321
 20
92.817846837
 30
0.0
 10
51.2438866854
 20
92.8437015129
 30
0.0
 10
51.2327101673
 20
92.8963729922
 30
0.0
 10
51.1713376827
 20
92.9841191051
 30
0.0
 10
51.0882881378
 20
93.0163160869
 30
0.0
 10
51.0354620407
 20
93.0163160869
 30
0.0
  0
SPLINE
  5
3CE
100
AcDbEntity
  8
0
100
AcDbSpline
 62
7
  6
CONTINUOUS
 70
0
 71
3
 72
11
 73
7
 74
0
 42
0.0000001
 43
0.0000001
 44
0.0000000001
 40
0.0
 40
0.0
 40
0.0
 40
0.0
 40
0.2874630352
 40
0.5554895262
 40
0.7905797913
 40
1.0
 40
1.0
 40
1.0
 40
1.0
 10
51.0354620407
 20
175.1369269421
 30
0.0
 10
51.0622601919
 20
175.1369269421
 30
0.0
 10
51.1143448889
 20
175.1297937206
 30
0.0
 10
51.1826154596
 20
175.0990807709
 30
0.0
 10
51.2312131022
 20
175.0509974415
 30
0.0
 10
51.2438864194
 20
175.0090763306
 30
0.0
 10
51.2439024321
 20
174.9895535682
 30
0.0
  0
SPLINE
  5
3CF
100
AcDbEntity
  8
0
100
AcDbSpline
 62
7
  6
CONTINUOUS
 70
0
 71
3
 72
9
 73
5
 74
0
 42
0.0000001
 43
0.0000001
 44
0.0000000001
 40
0.0
 40
0.0
 40
0.0
 40
0.0
 40
0.2425148437
 40
1.0
 40
1.0
 40
1.0
 40
1.0
 10
50.9260137313
 20
175.1149706545
 30
0.0
 10
50.9343175099
 20
175.1185939027
 30
0.0
 10
50.9694018666
 20
175.131559289
 30
0.0
 10
51.0071640082
 20
175.1369269421
 30
0.0
 10
51.0354620407
 20
175.1369269421
 30
0.0
  0
SPLINE
  5
3D0
100
AcDbEntity
  8
0
100
AcDbSpline
 62
7
  6
CONTINUOUS
 70
0
 71
3
 72
9
 73
5
 74
0
 42
0.0000001
 43
0.0000001
 44
0.0000000001
 40
0.0
 40
0.0
 40
0.0
 40
0.0
 40
0.2565304723
 40
1.0
 40
1.0
 40
1.0
 40
1.0
 10
51.0354620407
 20
167.4902742104
 30
0.0
 10
51.0258800238
 20
167.4902742104
 30
0.0
 10
50.9885676122
 20
167.4884602341
 30
0.0
 10
50.9514665842
 20
167.4794239515
 30
0.0
 10
50.9260137313
 20
167.4683179228
 30
0.0
  0
SPLINE
  5
3D1
100
AcDbEntity
  8
0
100
AcDbSpline
 62
7
  6
CONTINUOUS
 70
0
 71
3
 72
8
 73
4
 74
0
 42
0.0000001
 43
0.0000001
 44
0.0000000001
 40
0.0
 40
0.0
 40
0.0
 40
0.0
 40
1.0
 40
1.0
 40
1.0
 40
1.0
 10
51.0354620407
 20
101.5857247285
 30
0.0
 10
50.9976713246
 20
101.5857247285
 30
0.0
 10
50.958595601
 20
101.5961477323
 30
0.0
 10
50.9260137313
 20
101.6152934887
 30
0.0
  0
SPLINE
  5
3D2
100
AcDbEntity
  8
0
100
AcDbSpline
 62
7
  6
CONTINUOUS
 70
0
 71
3
 72
8
 73
4
 74
0
 42
0.0000001
 43
0.0000001
 44
0.0000000001
 40
0.0
 40
0.0
 40
0.0
 40
0.0
 40
1.0
 40
1.0
 40
1.0
 40
1.0
 10
51.0354620407
 20
93.0163160869
 30
0.0
 10
50.9976713246
 20
93.0163160869
 30
0.0
 10
50.958595601
 20
93.0058930832
 30
0.0
 10
50.9260137313
 20
92.9867473267
 30
0.0
  0
SPLINE
  5
3D3
100
AcDbEntity
  8
0
100
AcDbSpline
 62
7
  6
CONTINUOUS
 70
0
 71
3
 72
11
 73
7
 74
0
 42
0.0000001
 43
0.0000001
 44
0.0000000001
 40
0.0
 40
0.0
 40
0.0
 40
0.0
 40
0.287383025
 40
0.5554863901
 40
0.7905913337
 40
1.0
 40
1.0
 40
1.0
 40
1.0
 10
51.0354620407
 20
27.1117666042
 30
0.0
 10
51.0622516924
 20
27.1117666042
 30
0.0
 10
51.1143295709
 20
27.1189216636
 30
0.0
 10
51.1826092321
 20
27.149591659
 30
0.0
 10
51.2312299587
 20
27.1976902916
 30
0.0
 10
51.2438343215
 20
27.2396190915
 30
0.0
 10
51.2438678492
 20
27.2591399973
 30
0.0
  0
SPLINE
  5
3D4
100
AcDbEntity
  8
0
100
AcDbSpline
 62
7
  6
CONTINUOUS
 70
0
 71
3
 72
9
 73
5
 74
0
 42
0.0000001
 43
0.0000001
 44
0.0000000001
 40
0.0
 40
0.0
 40
0.0
 40
0.0
 40
0.2425148437
 40
1.0
 40
1.0
 40
1.0
 40
1.0
 10
50.9260137313
 20
27.1337228919
 30
0.0
 10
50.9343175099
 20
27.1300996437
 30
0.0
 10
50.9694018666
 20
27.1171342574
 30
0.0
 10
51.0071640082
 20
27.1117666042
 30
0.0
 10
51.0354620407
 20
27.1117666042
 30
0.0
  0
SPLINE
  5
3D5
100
AcDbEntity
  8
0
100
AcDbSpline
 62
7
  6
CONTINUOUS
 70
0
 71
3
 72
9
 73
5
 74
0
 42
0.0000001
 43
0.0000001
 44
0.0000000001
 40
0.0
 40
0.0
 40
0.0
 40
0.0
 40
0.2565304723
 40
1.0
 40
1.0
 40
1.0
 40
1.0
 10
51.0354620407
 20
19.4651138735
 30
0.0
 10
51.0258800238
 20
19.4651138735
 30
0.0
 10
50.9885676122
 20
19.4669278499
 30
0.0
 10
50.9514665842
 20
19.4759641325
 30
0.0
 10
50.9260137313
 20
19.4870701612
 30
0.0
  0
SPLINE
  5
3D6
100
AcDbEntity
  8
0
100
AcDbSpline
 62
7
  6
CONTINUOUS
 70
0
 71
3
 72
11
 73
7
 74
0
 42
0.0000001
 43
0.0000001
 44
0.0000000001
 40
0.0
 40
0.0
 40
0.0
 40
0.0
 40
0.2094086664
 40
0.44451361
 40
0.7126169751
 40
1.0
 40
1.0
 40
1.0
 40
1.0
 10
51.2438678492
 20
19.6124872661
 30
0.0
 10
51.2438343215
 20
19.5929663603
 30
0.0
 10
51.2312299585
 20
19.5510375605
 30
0.0
 10
51.1826092319
 20
19.5029389281
 30
0.0
 10
51.1143295708
 20
19.4722689328
 30
0.0
 10
51.0622516924
 20
19.4651138735
 30
0.0
 10
51.0354620407
 20
19.4651138735
 30
0.0
  0
LINE
  5
3D7
100
AcDbEntity
  8
0
100
AcDbLine
 62
7
  6
CONTINUOUS
 10
88.8580724004
 20
55.4267041606
 11
88.8019627464
 21
55.3703926664
  0
SPLINE
  5
3D8
100
AcDbEntity
  8
0
100
AcDbSpline
 62
7
  6
CONTINUOUS
 70
0
 71
3
 72
24
 73
20
 74
0
 42
0.0000001
 43
0.0000001
 44
0.0000000001
 40
0.0
 40
0.0
 40
0.0
 40
0.0
 40
0.0961129781
 40
0.1927519803
 40
0.2868382096
 40
0.3786368217
 40
0.5518406011
 40
0.7042750156
 40
0.7707704344
 40
0.8298513383
 40
0.8808498358
 40
0.9232478024
 40
0.9565981127
 40
0.969769647
 40
0.9805863183
 40
0.9890377747
 40
0.9951071288
 40
0.9987710688
 40
1.0
 40
1.0
 40
1.0
 40
1.0
 10
88.8019632916
 20
55.3703926659
 30
0.0
 10
88.778403719
 20
55.3467988443
 30
0.0
 10
88.7436847546
 20
55.2878353649
 30
0.0
 10
88.7080162611
 20
55.1952162664
 30
0.0
 10
88.6779455402
 20
55.101795575
 30
0.0
 10
88.6459042182
 20
54.9814044523
 30
0.0
 10
88.615460631
 20
54.8397431093
 30
0.0
 10
88.5922577402
 20
54.7056794039
 30
0.0
 10
88.5781819514
 20
54.6102631161
 30
0.0
 10
88.5701000805
 20
54.5495432162
 30
0.0
 10
88.5637184137
 20
54.4970275342
 30
0.0
 10
88.559171199
 20
54.4533036203
 30
0.0
 10
88.5569571128
 20
54.4224956782
 30
0.0
 10
88.5564082708
 20
54.4026519349
 30
0.0
 10
88.5565710295
 20
54.3913025948
 30
0.0
 10
88.5565923621
 20
54.3827614434
 30
0.0
 10
88.5576269961
 20
54.375907037
 30
0.0
 10
88.5568462244
 20
54.3731040443
 30
0.0
 10
88.5582123014
 20
54.3703927585
 30
0.0
 10
88.5577859736
 20
54.3703926659
 30
0.0
  0
SPLINE
  5
3D9
100
AcDbEntity
  8
0
100
AcDbSpline
 62
7
  6
CONTINUOUS
 70
0
 71
3
 72
11
 73
7
 74
0
 42
0.0000001
 43
0.0000001
 44
0.0000000001
 40
0.0
 40
0.0
 40
0.0
 40
0.0
 40
0.2287584134
 40
0.467057959
 40
0.7216250076
 40
1.0
 40
1.0
 40
1.0
 40
1.0
 10
97.2493484033
 20
160.2952178029
 30
0.0
 10
97.2825660428
 20
160.2941044627
 30
0.0
 10
97.3503497555
 20
160.2826211762
 30
0.0
 10
97.4470070298
 20
160.2393572414
 30
0.0
 10
97.5363436995
 20
160.170589583
 30
0.0
 10
97.5894887016
 20
160.1135926093
 30
0.0
 10
97.6137592234
 20
160.0812391498
 30
0.0
  0
SPLINE
  5
3DA
100
AcDbEntity
  8
0
100
AcDbSpline
 62
7
  6
CONTINUOUS
 70
0
 71
3
 72
10
 73
6
 74
0
 42
0.0000001
 43
0.0000001
 44
0.0000000001
 40
0.0
 40
0.0
 40
0.0
 40
0.0
 40
0.231085066
 40
0.6030111095
 40
1.0
 40
1.0
 40
1.0
 40
1.0
 10
97.6361445668
 20
160.0487902615
 30
0.0
 10
97.65599179
 20
160.0185927879
 30
0.0
 10
97.7049483621
 20
159.9377475048
 30
0.0
 10
97.7641988068
 20
159.7923114105
 30
0.0
 10
97.7950690963
 20
159.6756093554
 30
0.0
 10
97.8055778602
 20
159.614426279
 30
0.0
  0
SPLINE
  5
3DB
100
AcDbEntity
  8
0
100
AcDbSpline
 62
7
  6
CONTINUOUS
 70
0
 71
3
 72
11
 73
7
 74
0
 42
0.0000001
 43
0.0000001
 44
0.0000000001
 40
0.0
 40
0.0
 40
0.0
 40
0.0
 40
0.3256006156
 40
0.5985822586
 40
0.8178648884
 40
1.0
 40
1.0
 40
1.0
 40
1.0
 10
97.8055778772
 20
159.6144263604
 30
0.0
 10
97.8196036066
 20
159.6776346315
 30
0.0
 10
97.8379311678
 20
159.7958391817
 30
0.0
 10
97.8330285915
 20
159.9595616234
 30
0.0
 10
97.7925897029
 20
160.0902110252
 30
0.0
 10
97.734820811
 20
160.151338303
 30
0.0
 10
97.7031952683
 20
160.1689887482
 30
0.0
  0
SPLINE
  5
3DC
100
AcDbEntity
  8
0
100
AcDbSpline
 62
7
  6
CONTINUOUS
 70
0
 71
3
 72
14
 73
10
 74
0
 42
0.0000001
 43
0.0000001
 44
0.0000000001
 40
0.0
 40
0.0
 40
0.0
 40
0.0
 40
0.0163941361
 40
0.0671546427
 40
0.1505502084
 40
0.265016279
 40
0.4090328852
 40
0.581197978
 40
1.0
 40
1.0
 40
1.0
 40
1.0
 10
97.491614526
 20
159.3200545632
 30
0.0
 10
97.491706403
 20
159.3175930085
 30
0.0
 10
97.5077945021
 20
159.3234957234
 30
0.0
 10
97.5228084224
 20
159.3282646294
 30
0.0
 10
97.5614016676
 20
159.3428076813
 30
0.0
 10
97.6065088844
 20
159.3638515398
 30
0.0
 10
97.6623688878
 20
159.3982194707
 30
0.0
 10
97.7459653557
 20
159.4702313435
 30
0.0
 10
97.7925739131
 20
159.5528571209
 30
0.0
 10
97.8055793415
 20
159.614424767
 30
0.0
  0
SPLINE
  5
3DD
100
AcDbEntity
  8
0
100
AcDbSpline
 62
7
  6
CONTINUOUS
 70
0
 71
3
 72
9
 73
5
 74
0
 42
0.0000001
 43
0.0000001
 44
0.0000000001
 40
0.0
 40
0.0
 40
0.0
 40
0.0
 40
0.3187203527
 40
1.0
 40
1.0
 40
1.0
 40
1.0
 10
97.4915701081
 20
159.3200543988
 30
0.0
 10
97.491570153
 20
159.3128850024
 30
0.0
 10
97.5151044174
 20
159.2977256477
 30
0.0
 10
97.5346829935
 20
159.292792123
 30
0.0
 10
97.5495128069
 20
159.2889282129
 30
0.0
  0
SPLINE
  5
3DE
100
AcDbEntity
  8
0
100
AcDbSpline
 62
7
  6
CONTINUOUS
 70
0
 71
3
 72
10
 73
6
 74
0
 42
0.0000001
 43
0.0000001
 44
0.0000000001
 40
0.0
 40
0.0
 40
0.0
 40
0.0
 40
0.1691844962
 40
0.3966144855
 40
1.0
 40
1.0
 40
1.0
 40
1.0
 10
97.5495128069
 20
159.2889282129
 30
0.0
 10
97.5728669553
 20
159.282843286
 30
0.0
 10
97.6285639043
 20
159.2723688074
 30
0.0
 10
97.7700193337
 20
159.2539174503
 30
0.0
 10
97.8883426111
 20
159.2454473579
 30
0.0
 10
97.9742792908
 20
159.2406264104
 30
0.0
  0
SPLINE
  5
3DF
100
AcDbEntity
  8
0
100
AcDbSpline
 62
7
  6
CONTINUOUS
 70
0
 71
3
 72
11
 73
7
 74
0
 42
0.0000001
 43
0.0000001
 44
0.0000000001
 40
0.0
 40
0.0
 40
0.0
 40
0.0
 40
0.2477651634
 40
0.458200561
 40
0.6854792536
 40
1.0
 40
1.0
 40
1.0
 40
1.0
 10
98.0064922723
 20
93.8157361767
 30
0.0
 10
97.9956508694
 20
93.8096487717
 30
0.0
 10
97.9743014239
 20
93.7999831457
 30
0.0
 10
97.9382157594
 20
93.8006689834
 30
0.0
 10
97.9061108088
 20
93.8243487968
 30
0.0
 10
97.8948891775
 20
93.8501442731
 30
0.0
 10
97.8902197379
 20
93.8652212482
 30
0.0
  0
SPLINE
  5
3E0
100
AcDbEntity
  8
0
100
AcDbSpline
 62
7
  6
CONTINUOUS
 70
0
 71
3
 72
12
 73
8
 74
0
 42
0.0000001
 43
0.0000001
 44
0.0000000001
 40
0.0
 40
0.0
 40
0.0
 40
0.0
 40
0.0736149003
 40
0.170599686
 40
0.421515261
 40
0.7084597934
 40
1.0
 40
1.0
 40
1.0
 40
1.0
 10
97.8902197379
 20
93.8652212482
 30
0.0
 10
97.8841257731
 20
93.884897818
 30
0.0
 10
97.8769152022
 20
93.9324994745
 30
0.0
 10
97.8749623516
 20
94.0505042506
 30
0.0
 10
97.8954300111
 20
94.2276441333
 30
0.0
 10
97.9415779088
 20
94.4551130738
 30
0.0
 10
97.9827553935
 20
94.6118105965
 30
0.0
 10
98.0062408828
 20
94.6899345035
 30
0.0
  0
SPLINE
  5
3E1
100
AcDbEntity
  8
0
100
AcDbSpline
 62
7
  6
CONTINUOUS
 70
0
 71
3
 72
9
 73
5
 74
0
 42
0.0000001
 43
0.0000001
 44
0.0000000001
 40
0.0
 40
0.0
 40
0.0
 40
0.0
 40
0.2550029589
 40
1.0
 40
1.0
 40
1.0
 40
1.0
 10
97.8055845018
 20
159.6144311238
 30
0.0
 10
97.8243016887
 20
159.5849359683
 30
0.0
 10
97.8940497428
 20
159.4670788348
 30
0.0
 10
97.9480435953
 20
159.3392301709
 30
0.0
 10
97.9742962706
 20
159.2406076724
 30
0.0
  0
SPLINE
  5
3E2
100
AcDbEntity
  8
0
100
AcDbSpline
 62
7
  6
CONTINUOUS
 70
0
 71
3
 72
13
 73
9
 74
0
 42
0.0000001
 43
0.0000001
 44
0.0000000001
 40
0.0
 40
0.0
 40
0.0
 40
0.0
 40
0.0787822193
 40
0.1661456268
 40
0.2674584049
 40
0.3850536142
 40
0.6678029604
 40
1.0
 40
1.0
 40
1.0
 40
1.0
 10
107.9789146999
 20
154.4340366333
 30
0.0
 10
108.0003066362
 20
154.4220976384
 30
0.0
 10
108.0405314697
 20
154.3874549269
 30
0.0
 10
108.0818875518
 20
154.3139129662
 30
0.0
 10
108.1057960011
 20
154.2209159131
 30
0.0
 10
108.1156895386
 20
154.0645845183
 30
0.0
 10
108.080075559
 20
153.8372604248
 30
0.0
 10
108.0174094748
 20
153.6558398171
 30
0.0
 10
107.9768709307
 20
153.5608268911
 30
0.0
  0
SPLINE
  5
3E3
100
AcDbEntity
  8
0
100
AcDbSpline
 62
7
  6
CONTINUOUS
 70
0
 71
3
 72
9
 73
5
 74
0
 42
0.0000001
 43
0.0000001
 44
0.0000000001
 40
0.0
 40
0.0
 40
0.0
 40
0.0
 40
0.24230266
 40
1.0
 40
1.0
 40
1.0
 40
1.0
 10
107.9744639839
 20
99.3113767573
 30
0.0
 10
107.9820530162
 20
99.315567959
 30
0.0
 10
108.0122027718
 20
99.3349930329
 30
0.0
 10
108.0365291473
 20
99.3627697518
 30
0.0
 10
108.0509429847
 20
99.3857304619
 30
0.0
  0
SPLINE
  5
3E4
100
AcDbEntity
  8
0
100
AcDbSpline
 62
7
  6
CONTINUOUS
 70
0
 71
3
 72
9
 73
5
 74
0
 42
0.0000001
 43
0.0000001
 44
0.0000000001
 40
0.0
 40
0.0
 40
0.0
 40
0.0
 40
0.2200297953
 40
1.0
 40
1.0
 40
1.0
 40
1.0
 10
108.0509429847
 20
99.3857304619
 30
0.0
 10
108.0590837347
 20
99.3987041027
 30
0.0
 10
108.0907586127
 20
99.4610304464
 30
0.0
 10
108.1029274068
 20
99.5315859028
 30
0.0
 10
108.106302127
 20
99.5857745207
 30
0.0
  0
SPLINE
  5
3E5
100
AcDbEntity
  8
0
100
AcDbSpline
 62
7
  6
CONTINUOUS
 70
0
 71
3
 72
9
 73
5
 74
0
 42
0.0000001
 43
0.0000001
 44
0.0000000001
 40
0.0
 40
0.0
 40
0.0
 40
0.0
 40
0.4533267559
 40
1.0
 40
1.0
 40
1.0
 40
1.0
 10
108.106302127
 20
99.5857745207
 30
0.0
 10
108.1121569702
 20
99.6797870172
 30
0.0
 10
108.0858110631
 20
99.8890391355
 30
0.0
 10
108.0193927042
 20
100.0867528507
 30
0.0
 10
107.9750601813
 20
100.191335188
 30
0.0
  0
SPLINE
  5
3E6
100
AcDbEntity
  8
0
100
AcDbSpline
 62
7
  6
CONTINUOUS
 70
0
 71
3
 72
18
 73
14
 74
0
 42
0.0000001
 43
0.0000001
 44
0.0000000001
 40
0.0
 40
0.0
 40
0.0
 40
0.0
 40
0.1945360775
 40
0.3819399532
 40
0.5544256733
 40
0.705614096
 40
0.8298100375
 40
0.8802039068
 40
0.9221777669
 40
0.955320267
 40
0.9793153093
 40
0.9940796967
 40
1.0
 40
1.0
 40
1.0
 40
1.0
 10
73.4922702997
 20
41.2182382966
 30
0.0
 10
73.4943657982
 20
41.1533481966
 30
0.0
 10
73.4980446952
 20
41.0259319848
 30
0.0
 10
73.502089655
 20
40.8409444664
 30
0.0
 10
73.5044694658
 20
40.6703856709
 30
0.0
 10
73.5051005926
 20
40.5209359141
 30
0.0
 10
73.5041786241
 20
40.4121556888
 30
0.0
 10
73.5023575767
 20
40.3399867737
 30
0.0
 10
73.5006650157
 20
40.2979458582
 30
0.0
 10
73.4986465618
 20
40.2654162914
 30
0.0
 10
73.4962232586
 20
40.2403999227
 30
0.0
 10
73.4938533312
 20
40.2277464753
 30
0.0
 10
73.4913700994
 20
40.2187920302
 30
0.0
 10
73.4893952874
 20
40.2187287544
 30
0.0
  0
SPLINE
  5
3E7
100
AcDbEntity
  8
0
100
AcDbSpline
 62
7
  6
CONTINUOUS
 70
0
 71
3
 72
18
 73
14
 74
0
 42
0.0000001
 43
0.0000001
 44
0.0000000001
 40
0.0
 40
0.0
 40
0.0
 40
0.0
 40
0.0059263878
 40
0.0207283388
 40
0.0447469271
 40
0.0778822814
 40
0.1199190494
 40
0.1703947377
 40
0.294550622
 40
0.4457789443
 40
0.6181784312
 40
0.8053202647
 40
1.0
 40
1.0
 40
1.0
 40
1.0
 10
71.3095463371
 20
40.1488858934
 30
0.0
 10
71.3115230724
 20
40.1489492304
 30
0.0
 10
71.3139570488
 20
40.1579594189
 30
0.0
 10
71.3163234651
 20
40.1706085185
 30
0.0
 10
71.3187107859
 20
40.1956585385
 30
0.0
 10
71.3207210522
 20
40.2282076167
 30
0.0
 10
71.3223905369
 20
40.270295609
 30
0.0
 10
71.3241910834
 20
40.3424948708
 30
0.0
 10
71.3251188173
 20
40.4512969642
 30
0.0
 10
71.3244866003
 20
40.6007096077
 30
0.0
 10
71.3221458078
 20
40.7711568299
 30
0.0
 10
71.3181418486
 20
40.9560669832
 30
0.0
 10
71.3145003739
 20
41.0834378717
 30
0.0
 10
71.3124223835
 20
41.1483730091
 30
0.0
  0
SPLINE
  5
3E8
100
AcDbEntity
  8
0
100
AcDbSpline
 62
7
  6
CONTINUOUS
 70
0
 71
3
 72
18
 73
14
 74
0
 42
0.0000001
 43
0.0000001
 44
0.0000000001
 40
0.0
 40
0.0
 40
0.0
 40
0.0
 40
0.0057691782
 40
0.0205133619
 40
0.0445025968
 40
0.0776235237
 40
0.1196560138
 40
0.1701351418
 40
0.2943159439
 40
0.4455875188
 40
0.6180434752
 40
0.8052505847
 40
1.0
 40
1.0
 40
1.0
 40
1.0
 10
71.3124211706
 20
33.4344474671
 30
0.0
 10
71.3143446678
 20
33.4345132667
 30
0.0
 10
71.3163255537
 20
33.4436919531
 30
0.0
 10
71.3185841023
 20
33.4561104798
 30
0.0
 10
71.3205453667
 20
33.4812539961
 30
0.0
 10
71.3222490381
 20
33.5137474203
 30
0.0
 10
71.3235339135
 20
33.5558465495
 30
0.0
 10
71.3247946435
 20
33.6280319024
 30
0.0
 10
71.3250413546
 20
33.7368283293
 30
0.0
 10
71.323638678
 20
33.8862233259
 30
0.0
 10
71.3205498012
 20
34.0566552661
 30
0.0
 10
71.3158557246
 20
34.2415488414
 30
0.0
 10
71.3118114954
 20
34.3689085484
 30
0.0
 10
71.3095464366
 20
34.4338382839
 30
0.0
  0
SPLINE
  5
3E9
100
AcDbEntity
  8
0
100
AcDbSpline
 62
7
  6
CONTINUOUS
 70
0
 71
3
 72
18
 73
14
 74
0
 42
0.0000001
 43
0.0000001
 44
0.0000000001
 40
0.0
 40
0.0
 40
0.0
 40
0.0
 40
0.0058016448
 40
0.0205240597
 40
0.0444986453
 40
0.0776316723
 40
0.1196033197
 40
0.1700004699
 40
0.2942158101
 40
0.4454363128
 40
0.6179631536
 40
0.8054140144
 40
1.0
 40
1.0
 40
1.0
 40
1.0
 10
96.5250678163
 20
160.3194931657
 30
0.0
 10
96.5270024405
 20
160.3194283239
 30
0.0
 10
96.5291539093
 20
160.3103472971
 30
0.0
 10
96.5314550251
 20
160.2978677779
 30
0.0
 10
96.5335857361
 20
160.2727816149
 30
0.0
 10
96.5354069702
 20
160.2402940714
 30
0.0
 10
96.5368520705
 20
160.1982450285
 30
0.0
 10
96.5383380242
 20
160.1260871371
 30
0.0
 10
96.538856775
 20
160.0173116964
 30
0.0
 10
96.5377939471
 20
159.8678750349
 30
0.0
 10
96.5350205417
 20
159.6973271453
 30
0.0
 10
96.5306393392
 20
159.5123507232
 30
0.0
 10
96.52678324
 20
159.3849413796
 30
0.0
 10
96.5246108287
 20
159.3200544
 30
0.0
  0
SPLINE
  5
3EA
100
AcDbEntity
  8
0
100
AcDbSpline
 62
7
  6
CONTINUOUS
 70
0
 71
3
 72
18
 73
14
 74
0
 42
0.0000001
 43
0.0000001
 44
0.0000000001
 40
0.0
 40
0.0
 40
0.0
 40
0.0
 40
0.0058080962
 40
0.0205301978
 40
0.0445030486
 40
0.0776339069
 40
0.1196033743
 40
0.1699985006
 40
0.2942106536
 40
0.4454295462
 40
0.6179566137
 40
0.8054097307
 40
1.0
 40
1.0
 40
1.0
 40
1.0
 10
73.4915701111
 20
161.0914957906
 30
0.0
 10
73.4935068348
 20
161.0914308784
 30
0.0
 10
73.4956767764
 20
161.0823579463
 30
0.0
 10
73.4979599439
 20
161.0698665878
 30
0.0
 10
73.5000774506
 20
161.0447860906
 30
0.0
 10
73.5018613953
 20
161.0122971695
 30
0.0
 10
73.5032586477
 20
160.970250584
 30
0.0
 10
73.5046535973
 20
160.8980948551
 30
0.0
 10
73.5050265856
 20
160.7893241853
 30
0.0
 10
73.5037514638
 20
160.6398945671
 30
0.0
 10
73.5007255
 20
160.4693552506
 30
0.0
 10
73.4960677026
 20
160.2843882557
 30
0.0
 10
73.4920140756
 20
160.1569862331
 30
0.0
 10
73.4897363366
 20
160.0921031699
 30
0.0
  0
SPLINE
  5
3EB
100
AcDbEntity
  8
0
100
AcDbSpline
 62
7
  6
CONTINUOUS
 70
0
 71
3
 72
18
 73
14
 74
0
 42
0.0000001
 43
0.0000001
 44
0.0000000001
 40
0.0
 40
0.0
 40
0.0
 40
0.0
 40
0.1946816333
 40
0.3818242768
 40
0.554223772
 40
0.7054515924
 40
0.8296067458
 40
0.8800820572
 40
0.9221184779
 40
0.9552535394
 40
0.9792719012
 40
0.9940736993
 40
1.0
 40
1.0
 40
1.0
 40
1.0
 10
71.3103883411
 20
153.4527486107
 30
0.0
 10
71.3125322597
 20
153.5176799245
 30
0.0
 10
71.316303082
 20
153.645043415
 30
0.0
 10
71.3204949098
 20
153.8299437254
 30
0.0
 10
71.3230089606
 20
154.0003825166
 30
0.0
 10
71.3237931447
 20
154.1497887115
 30
0.0
 10
71.3229761654
 20
154.2585872825
 30
0.0
 10
71.3212491872
 20
154.3307852832
 30
0.0
 10
71.3196226318
 20
154.3728731175
 30
0.0
 10
71.3176456027
 20
154.405422775
 30
0.0
 10
71.3152839345
 20
154.4304741077
 30
0.0
 10
71.3129305088
 20
154.4431249986
 30
0.0
 10
71.3105058852
 20
154.4521372789
 30
0.0
 10
71.3085293148
 20
154.4522026245
 30
0.0
  0
SPLINE
  5
3EC
100
AcDbEntity
  8
0
100
AcDbSpline
 62
7
  6
CONTINUOUS
 70
0
 71
3
 72
18
 73
14
 74
0
 42
0.0000001
 43
0.0000001
 44
0.0000000001
 40
0.0
 40
0.0
 40
0.0
 40
0.0
 40
0.1945725021
 40
0.3820090056
 40
0.5545220646
 40
0.7057308634
 40
0.8299382198
 40
0.8803334634
 40
0.9223051084
 40
0.9554407654
 40
0.9794220148
 40
0.9941586042
 40
1.0
 40
1.0
 40
1.0
 40
1.0
 10
73.4915700879
 20
153.3806414395
 30
0.0
 10
73.4937341417
 20
153.4455264841
 30
0.0
 10
73.4975616936
 20
153.5729319304
 30
0.0
 10
73.501872103
 20
153.7579027542
 30
0.0
 10
73.504552551
 20
153.9284447586
 30
0.0
 10
73.5055020007
 20
154.0778769166
 30
0.0
 10
73.504869146
 20
154.1866472965
 30
0.0
 10
73.503284169
 20
154.2588044914
 30
0.0
 10
73.5017625151
 20
154.3008481626
 30
0.0
 10
73.4998788527
 20
154.3333481129
 30
0.0
 10
73.4976488401
 20
154.3584091381
 30
0.0
 10
73.4953246153
 20
154.3709468523
 30
0.0
 10
73.4930595319
 20
154.3799847578
 30
0.0
 10
73.4911115542
 20
154.3800491581
 30
0.0
  0
SPLINE
  5
3ED
100
AcDbEntity
  8
0
100
AcDbSpline
 62
7
  6
CONTINUOUS
 70
0
 71
3
 72
11
 73
7
 74
0
 42
0.0000001
 43
0.0000001
 44
0.0000000001
 40
0.0
 40
0.0
 40
0.0
 40
0.0
 40
0.2501050138
 40
0.5000965416
 40
0.7500355315
 40
1.0
 40
1.0
 40
1.0
 40
1.0
 10
69.3764696048
 20
39.1493991475
 30
0.0
 10
69.37646962
 20
39.4043689261
 30
0.0
 10
69.4766831426
 20
39.9195156084
 30
0.0
 10
69.9045873449
 20
40.5752498255
 30
0.0
 10
70.5461712832
 20
41.0240003583
 30
0.0
 10
71.0577265844
 20
41.1402125433
 30
0.0
 10
71.3124223866
 20
41.1483730123
 30
0.0
  0
SPLINE
  5
3EE
100
AcDbEntity
  8
0
100
AcDbSpline
 62
7
  6
CONTINUOUS
 70
0
 71
3
 72
18
 73
14
 74
0
 42
0.0000001
 43
0.0000001
 44
0.0000000001
 40
0.0
 40
0.0
 40
0.0
 40
0.0
 40
0.0058262516
 40
0.0205574939
 40
0.0445363831
 40
0.0776713326
 40
0.1196433193
 40
0.170039613
 40
0.2942505013
 40
0.4454639953
 40
0.6179821796
 40
0.8054234665
 40
1.0
 40
1.0
 40
1.0
 40
1.0
 10
96.5246108228
 20
153.6185901554
 30
0.0
 10
96.5265537432
 20
153.6185259222
 30
0.0
 10
96.5287775118
 20
153.6094719164
 30
0.0
 10
96.5310953904
 20
153.5969565668
 30
0.0
 10
96.5332941136
 20
153.5718861501
 30
0.0
 10
96.5351639078
 20
153.5393908767
 30
0.0
 10
96.536670247
 20
153.4973449185
 30
0.0
 10
96.5382420739
 20
153.4251868802
 30
0.0
 10
96.5388689747
 20
153.3164133621
 30
0.0
 10
96.5379288854
 20
153.1669774817
 30
0.0
 10
96.5352744358
 20
152.9964307902
 30
0.0
 10
96.5310031477
 20
152.8114551232
 30
0.0
 10
96.5272112019
 20
152.6840461589
 30
0.0
 10
96.5250685798
 20
152.6191592941
 30
0.0
  0
SPLINE
  5
3EF
100
AcDbEntity
  8
0
100
AcDbSpline
 62
7
  6
CONTINUOUS
 70
0
 71
3
 72
18
 73
14
 74
0
 42
0.0000001
 43
0.0000001
 44
0.0000000001
 40
0.0
 40
0.0
 40
0.0
 40
0.0
 40
0.1945559565
 40
0.3819887298
 40
0.5545069317
 40
0.7057259206
 40
0.8299447933
 40
0.8803451331
 40
0.9223208432
 40
0.9554589541
 40
0.9794402442
 40
0.9941730392
 40
1.0
 40
1.0
 40
1.0
 40
1.0
 10
96.5250678164
 20
55.5969227728
 30
0.0
 10
96.5265076194
 20
55.5319982378
 30
0.0
 10
96.5289192775
 20
55.4045160267
 30
0.0
 10
96.531185876
 20
55.2194429989
 30
0.0
 10
96.531991293
 20
55.048812516
 30
0.0
 10
96.5313104457
 20
54.8993128646
 30
0.0
 10
96.5295029438
 20
54.7905045869
 30
0.0
 10
96.5271473208
 20
54.7183346631
 30
0.0
 10
96.5251839367
 20
54.6762876012
 30
0.0
 10
96.5229605832
 20
54.6437988853
 30
0.0
 10
96.5204886209
 20
54.6187416957
 30
0.0
 10
96.5180338607
 20
54.6062459937
 30
0.0
 10
96.5157106068
 20
54.5972123051
 30
0.0
 10
96.5137661147
 20
54.5971691345
 30
0.0
  0
SPLINE
  5
3F0
100
AcDbEntity
  8
0
100
AcDbSpline
 62
7
  6
CONTINUOUS
 70
0
 71
3
 72
11
 73
7
 74
0
 42
0.0000001
 43
0.0000001
 44
0.0000000001
 40
0.0
 40
0.0
 40
0.0
 40
0.0
 40
0.2498837101
 40
0.4998554059
 40
0.749904783
 40
1.0
 40
1.0
 40
1.0
 40
1.0
 10
71.3105658188
 20
153.4526924342
 30
0.0
 10
71.0561340807
 20
153.4610806128
 30
0.0
 10
70.5451037657
 20
153.5777771519
 30
0.0
 10
69.904354689
 20
154.0266092826
 30
0.0
 10
69.4764211514
 20
154.6817819607
 30
0.0
 10
69.3764449702
 20
155.1966812642
 30
0.0
 10
69.3764204341
 20
155.4514667088
 30
0.0
  0
SPLINE
  5
3F1
100
AcDbEntity
  8
0
100
AcDbSpline
 62
7
  6
CONTINUOUS
 70
0
 71
3
 72
18
 73
14
 74
0
 42
0.0000001
 43
0.0000001
 44
0.0000000001
 40
0.0
 40
0.0
 40
0.0
 40
0.0
 40
0.0055015201
 40
0.0202769551
 40
0.0443369028
 40
0.0775153544
 40
0.1195790669
 40
0.1700748166
 40
0.2942767562
 40
0.4455701119
 40
0.6180428245
 40
0.8052563914
 40
1.0
 40
1.0
 40
1.0
 40
1.0
 10
96.5250680998
 20
34.2825476588
 30
0.0
 10
96.5265359132
 20
34.2825979282
 30
0.0
 10
96.5273789369
 20
34.2902333358
 30
0.0
 10
96.5299356811
 20
34.2997356802
 30
0.0
 10
96.5316338749
 20
34.320060912
 30
0.0
 10
96.5335817207
 20
34.3459937578
 30
0.0
 10
96.5348186053
 20
34.379736176
 30
0.0
 10
96.5360498472
 20
34.4375005776
 30
0.0
 10
96.5362985018
 20
34.5245878204
 30
0.0
 10
96.5354951543
 20
34.6441508002
 30
0.0
 10
96.5333736183
 20
34.7805540572
 30
0.0
 10
96.5298893428
 20
34.9285212316
 30
0.0
 10
96.526798956
 20
35.0304422841
 30
0.0
 10
96.5250576713
 20
35.0824014477
 30
0.0
  0
SPLINE
  5
3F2
100
AcDbEntity
  8
0
100
AcDbSpline
 62
7
  6
CONTINUOUS
 70
0
 71
3
 72
15
 73
11
 74
0
 42
0.0000001
 43
0.0000001
 44
0.0000000001
 40
0.0
 40
0.0
 40
0.0
 40
0.0
 40
0.041193933
 40
0.0698588837
 40
0.1053754516
 40
0.1979935217
 40
0.3187042623
 40
0.4644455276
 40
0.6306014885
 40
1.0
 40
1.0
 40
1.0
 40
1.0
 10
97.4915701081
 20
35.2819864435
 30
0.0
 10
97.4915701081
 20
35.2678864944
 30
0.0
 10
97.4773927774
 20
35.2450095837
 30
0.0
 10
97.4490101508
 20
35.2233391513
 30
0.0
 10
97.4018771136
 20
35.1969623195
 30
0.0
 10
97.321305298
 20
35.1683946981
 30
0.0
 10
97.2017480773
 20
35.1394471904
 30
0.0
 10
97.0555288929
 20
35.1153618457
 30
0.0
 10
96.8236482053
 20
35.0900257402
 30
0.0
 10
96.6402014608
 20
35.0825967399
 30
0.0
 10
96.5137641785
 20
35.0820357213
 30
0.0
  0
SPLINE
  5
3F3
100
AcDbEntity
  8
0
100
AcDbSpline
 62
7
  6
CONTINUOUS
 70
0
 71
3
 72
25
 73
21
 74
0
 42
0.0000001
 43
0.0000001
 44
0.0000000001
 40
0.0
 40
0.0
 40
0.0
 40
0.0
 40
0.1950050423
 40
0.3826668802
 40
0.555492487
 40
0.6343048165
 40
0.7070218803
 40
0.7729107045
 40
0.8313651454
 40
0.8818121636
 40
0.9237564513
 40
0.9414223709
 40
0.9568235201
 40
0.9699147542
 40
0.9806622217
 40
0.9890497821
 40
0.9950640382
 40
0.99869617
 40
0.9996243693
 40
1.0
 40
1.0
 40
1.0
 40
1.0
 10
69.3764695445
 20
157.435918228
 30
0.0
 10
69.3741056909
 20
157.6829120755
 30
0.0
 10
69.3700201586
 20
158.1676042454
 30
0.0
 10
69.3653953648
 20
158.871209698
 30
0.0
 10
69.3628701236
 20
159.4276481756
 30
0.0
 10
69.3618524609
 20
159.8384946808
 30
0.0
 10
69.3615896421
 20
160.1138896931
 30
0.0
 10
69.3618053956
 20
160.3634983655
 30
0.0
 10
69.3624917345
 20
160.5848971733
 30
0.0
 10
69.3636438652
 20
160.7759652492
 30
0.0
 10
69.3650386535
 20
160.9153617611
 30
0.0
 10
69.366439952
 20
161.0103693687
 30
0.0
 10
69.3675315512
 20
161.0688171898
 30
0.0
 10
69.3687210031
 20
161.1185335509
 30
0.0
 10
69.3699923061
 20
161.159259669
 30
0.0
 10
69.3713594736
 20
161.1912786068
 30
0.0
 10
69.3727329967
 20
161.2136461087
 30
0.0
 10
69.3741093676
 20
161.227727283
 30
0.0
 10
69.3752300946
 20
161.2331419023
 30
0.0
 10
69.3759939896
 20
161.2352114046
 30
0.0
 10
69.3764696047
 20
161.2351982662
 30
0.0
  0
SPLINE
  5
3F4
100
AcDbEntity
  8
0
100
AcDbSpline
 62
7
  6
CONTINUOUS
 70
0
 71
3
 72
18
 73
14
 74
0
 42
0.0000001
 43
0.0000001
 44
0.0000000001
 40
0.0
 40
0.0
 40
0.0
 40
0.0
 40
0.1947255062
 40
0.3819093447
 40
0.5543446622
 40
0.70560021
 40
0.8297717689
 40
0.8802496582
 40
0.9222838084
 40
0.9554101489
 40
0.9794101927
 40
0.9941752359
 40
1.0
 40
1.0
 40
1.0
 40
1.0
 10
71.3085295749
 20
160.1682735373
 30
0.0
 10
71.3107944063
 20
160.2332007054
 30
0.0
 10
71.3148255559
 20
160.360555726
 30
0.0
 10
71.3194634717
 20
160.5454436335
 30
0.0
 10
71.3224610851
 20
160.715871251
 30
0.0
 10
71.3237433479
 20
160.8652653308
 30
0.0
 10
71.3233665576
 20
160.9740600239
 30
0.0
 10
71.3219886613
 20
161.0462493687
 30
0.0
 10
71.3206105375
 20
161.0883447376
 30
0.0
 10
71.3188323059
 20
161.1208594541
 30
0.0
 10
71.3167448286
 20
161.1459712481
 30
0.0
 10
71.3144635008
 20
161.1584751165
 30
0.0
 10
71.3123303093
 20
161.1675965212
 30
0.0
 10
71.3103881655
 20
161.1676643422
 30
0.0
  0
SPLINE
  5
3F5
100
AcDbEntity
  8
0
100
AcDbSpline
 62
7
  6
CONTINUOUS
 70
0
 71
3
 72
18
 73
14
 74
0
 42
0.0000001
 43
0.0000001
 44
0.0000000001
 40
0.0
 40
0.0
 40
0.0
 40
0.0
 40
0.1946073237
 40
0.3820792246
 40
0.554625022
 40
0.7058606789
 40
0.8300854504
 40
0.8804843371
 40
0.9224551385
 40
0.9555838883
 40
0.9795490438
 40
0.9942522132
 40
1.0
 40
1.0
 40
1.0
 40
1.0
 10
86.9235939075
 20
34.9602278337
 30
0.0
 10
86.9257665156
 20
34.8953392728
 30
0.0
 10
86.9296355941
 20
34.7679270904
 30
0.0
 10
86.9340729375
 20
34.5829474668
 30
0.0
 10
86.9369372963
 20
34.4123970927
 30
0.0
 10
86.9381209394
 20
34.2629604194
 30
0.0
 10
86.9377320452
 20
34.1541834026
 30
0.0
 10
86.9363635013
 20
34.0820289023
 30
0.0
 10
86.9350120223
 20
34.0399753501
 30
0.0
 10
86.9332650655
 20
34.0075075953
 30
0.0
 10
86.9312614574
 20
33.9823889708
 30
0.0
 10
86.9289822712
 20
33.9699916726
 30
0.0
 10
86.9269843178
 20
33.9608533174
 30
0.0
 10
86.9250678166
 20
33.9607890829
 30
0.0
  0
SPLINE
  5
3F6
100
AcDbEntity
  8
0
100
AcDbSpline
 62
7
  6
CONTINUOUS
 70
0
 71
3
 72
18
 73
14
 74
0
 42
0.0000001
 43
0.0000001
 44
0.0000000001
 40
0.0
 40
0.0
 40
0.0
 40
0.0
 40
0.1946099439
 40
0.3820824612
 40
0.5546269922
 40
0.7058598045
 40
0.8300805526
 40
0.8804772123
 40
0.9224458221
 40
0.9555726539
 40
0.9795367354
 40
0.9942410867
 40
1.0
 40
1.0
 40
1.0
 40
1.0
 10
73.4893952875
 20
34.5099602829
 30
0.0
 10
73.4916811814
 20
34.4450759288
 30
0.0
 10
73.4957617903
 20
34.3176715625
 30
0.0
 10
73.5004923426
 20
34.1327019075
 30
0.0
 10
73.5036211894
 20
33.9621604966
 30
0.0
 10
73.5050236589
 20
33.8127309545
 30
0.0
 10
73.5047812317
 20
33.7039588657
 30
0.0
 10
73.5035012382
 20
33.63180619
 30
0.0
 10
73.5021936944
 20
33.5897555155
 30
0.0
 10
73.5004811554
 20
33.5572845682
 30
0.0
 10
73.4984812911
 20
33.5321746323
 30
0.0
 10
73.4962204849
 20
33.5197579328
 30
0.0
 10
73.4941897575
 20
33.5106328258
 30
0.0
 10
73.4922695814
 20
33.5105684682
 30
0.0
  0
SPLINE
  5
3F7
100
AcDbEntity
  8
0
100
AcDbSpline
 62
7
  6
CONTINUOUS
 70
0
 71
3
 72
18
 73
14
 74
0
 42
0.0000001
 43
0.0000001
 44
0.0000000001
 40
0.0
 40
0.0
 40
0.0
 40
0.0
 40
0.1949459365
 40
0.3823225333
 40
0.5548924239
 40
0.7062029219
 40
0.8303347537
 40
0.8807574021
 40
0.9227137036
 40
0.9557412906
 40
0.9796268062
 40
0.9942698956
 40
1.0
 40
1.0
 40
1.0
 40
1.0
 10
88.8580728084
 20
55.4267041519
 30
0.0
 10
88.8566322267
 20
55.3616805377
 30
0.0
 10
88.8542235758
 20
55.2341478139
 30
0.0
 10
88.8519580978
 20
55.049034692
 30
0.0
 10
88.8511669536
 20
54.8784563407
 30
0.0
 10
88.8518368824
 20
54.7290104599
 30
0.0
 10
88.8536587264
 20
54.6202426998
 30
0.0
 10
88.8560047581
 20
54.5481396929
 30
0.0
 10
88.8579696011
 20
54.5061389521
 30
0.0
 10
88.8601712029
 20
54.4737644381
 30
0.0
 10
88.8626881089
 20
54.4487668936
 30
0.0
 10
88.8650354495
 20
54.436456972
 30
0.0
 10
88.8674632683
 20
54.4274099252
 30
0.0
 10
88.869374525
 20
54.4274523576
 30
0.0
  0
SPLINE
  5
3F8
100
AcDbEntity
  8
0
100
AcDbSpline
 62
7
  6
CONTINUOUS
 70
0
 71
3
 72
9
 73
5
 74
0
 42
0.0000001
 43
0.0000001
 44
0.0000000001
 40
0.0
 40
0.0
 40
0.0
 40
0.0
 40
0.7254675109
 40
1.0
 40
1.0
 40
1.0
 40
1.0
 10
86.9996918168
 20
33.9632902195
 30
0.0
 10
87.0064588354
 20
33.9635170264
 30
0.0
 10
87.0158493927
 20
33.9671696901
 30
0.0
 10
87.0228173648
 20
33.9733660104
 30
0.0
 10
87.024621159
 20
33.975185712
 30
0.0
  0
SPLINE
  5
3F9
100
AcDbEntity
  8
0
100
AcDbSpline
 62
7
  6
CONTINUOUS
 70
0
 71
3
 72
11
 73
7
 74
0
 42
0.0000001
 43
0.0000001
 44
0.0000000001
 40
0.0
 40
0.0
 40
0.0
 40
0.0
 40
0.2500458585
 40
0.500011735
 40
0.7500202406
 40
1.0
 40
1.0
 40
1.0
 40
1.0
 10
88.8693274675
 20
45.6353736694
 30
0.0
 10
88.8693274675
 20
45.4736051875
 30
0.0
 10
88.8294722911
 20
45.1487694
 30
0.0
 10
88.654389408
 20
44.6912697916
 30
0.0
 10
88.3744492672
 20
44.2893068248
 30
0.0
 10
88.1282263697
 20
44.0737958376
 30
0.0
 10
87.9945899337
 20
43.9827106517
 30
0.0
  0
ENDSEC
  0
SECTION
  2
OBJECTS
  0
DICTIONARY
  5
C
100
AcDbDictionary
280
0
281
1
  3
ACAD_GROUP
350
D
  3
ACAD_MLINESTYLE
350
17
  3
ACAD_LAYOUT
350
1A
  3
ACAD_PLOTSETTINGS
350
19
  3
ACAD_PLOTSTYLENAME
350
E
  0
DICTIONARY
  5
D
102
{ACAD_REACTORS
330
C
102
}
100
AcDbDictionary
280
0
281
1
  0
ACDBDICTIONARYWDFLT
  5
E
102
{ACAD_REACTORS
330
C
102
}
100
AcDbDictionary
281
1
  3
Normal
350
F
100
AcDbDictionaryWithDefault
340
F
  0
DICTIONARY
  5
17
102
{ACAD_REACTORS
330
C
102
}
100
AcDbDictionary
280
0
281
1
  3
Standard
350
18
  0
DICTIONARY
  5
19
102
{ACAD_REACTORS
330
C
102
}
100
AcDbDictionary
281
1
  0
DICTIONARY
  5
1A
102
{ACAD_REACTORS
330
C
102
}
100
AcDbDictionary
281
1
  3
Model
350
3FA
  3
Layout1
350
3FB
  0
ACDBPLACEHOLDER
  5
F
102
{ACAD_REACTORS
330
E
102
}
  0
MLINESTYLE
  5
18
102
{ACAD_REACTORS
330
17
102
}
100
AcDbMlineStyle
  2
STANDARD
 70
0
  3

 62
256
 51
90.0
 52
90.0
 71
2
 49
0.5
 62
256
  6
BYLAYER
 49
-0.5
 62
256
  6
BYLAYER
  0
LAYOUT
  5
3FA
102
{ACAD_REACTORS
330
1A
102
}
100
AcDbPlotSettings
  1

  2
none_device
  4

  6

 40
0.0
 41
0.0
 42
0.0
 43
0.0
 44
210.0
 45
297.0
 46
0.0
 47
0.0
 48
0.0
 49
0.0
140
0.0
141
0.0
142
1.0
143
1.0
 70
1024
 72
1
 73
0
 74
0
  7

 75
0
147
1.0
148
0.0
149
0.0
100
AcDbLayout
  1
Model
 70
0
 71
0
 10
0.0
 20
0.0
 11
210.0
 21
297.0
 12
0.0
 22
0.0
 32
0.0
 14
0.0
 24
0.0
 34
0.0
 15
0.0
 25
0.0
 35
0.0
146
0.0
 13
0.0
 23
0.0
 33
0.0
 16
1.0
 26
0.0
 36
0.0
 17
0.0
 27
1.0
 37
0.0
 76
0
330
210
345
0
346
0
  0
LAYOUT
  5
3FB
102
{ACAD_REACTORS
330
1A
102
}
100
AcDbPlotSettings
  1

  2
none_device
  4

  6

 40
0.0
 41
0.0
 42
0.0
 43
0.0
 44
210.0
 45
297.0
 46
0.0
 47
0.0
 48
0.0
 49
0.0
140
0.0
141
0.0
142
1.0
143
1.0
 70
0
 72
1
 73
0
 74
0
  7

 75
0
147
1.0
148
0.0
149
0.0
100
AcDbLayout
  1
Layout1
 70
0
 71
1
 10
0.0
 20
0.0
 11
210.0
 21
297.0
 12
0.0
 22
0.0
 32
0.0
 14
0.0
 24
0.0
 34
0.0
 15
0.0
 25
0.0
 35
0.0
146
0.0
 13
0.0
 23
0.0
 33
0.0
 16
1.0
 26
0.0
 36
0.0
 17
0.0
 27
1.0
 37
0.0
 76
0
330
211
345
0
346
0
  0
ENDSEC
  0
EOF
