999
DXF file: C:\Users\sesa63760\Dev\_Creo\CAD\MCADID0000507_3D-CAD\drw0001_7.dxf
999
Pro/ENGINEER 2019471 by Parametric Technology Corporation
  0
SECTION
  2
HEADER
  9
$ACADVER
  1
AC1024
  9
$DWGCODEPAGE
  3
ANSI_1252
  9
$EXTMAX
 10
163.5697455942
 20
231.3343544833
 30
0.0
  9
$EXTMIN
 10
0.0
 20
0.0
 30
0.0
  9
$LIMMIN
 10
0.0
 20
0.0
  9
$LIMMAX
 10
163.5697455942
 20
231.3343544833
  9
$VIEWCTR
 10
81.7848727971
 20
115.6671772416
  9
$VIEWSIZE
 40
231.3343544833
  9
$CLAYER
  8
0
  9
$LTSCALE
 40
15.0795727367
  9
$CELTYPE
  6
BYLAYER
  9
$DIMSCALE
 40
1.0
  9
$DIMASZ
 40
1.9472588761
  9
$DIMEXO
 40
1.0
  9
$DIMDLI
 40
10.4186138908
  9
$DIMEXE
 40
1.0
  9
$DIMCEN
 40
2.4675664478
  9
$DIMLFAC
 40
1.0
  9
$DIMBLK
  1
_FILLED
  9
$DIMALT
 70
0
  9
$DIMALTF
 40
0.0393700787
  9
$DIMTXT
 40
2.7261624266
  9
$DIMTOL
 70
1
  9
$DIMLIM
 70
0
  9
$DIMTFAC
 40
1.0
  9
$DIMTP
 40
0.01
  9
$DIMTM
 40
0.01
  9
$DIMGAP
 40
0.625
  9
$DIMDSEP
 70
46
  9
$AUNITS
 70
0
  9
$PDMODE
 70
3
  9
$PDSIZE
 40
0.3125
  9
$HANDSEED
  5
31B
  9
$TILEMODE
 70
1
  9
$MEASUREMENT
 70
1
  9
$INSUNITS
 70
4
  0
ENDSEC
  0
SECTION
  2
CLASSES
  0
CLASS
  1
ACDBDICTIONARYWDFLT
  2
AcDbDictionaryWithDefault
  3
AutoCAD 2000
 90
0
 91
1
280
0
281
0
  0
CLASS
  1
ACDBPLACEHOLDER
  2
AcDbPlaceHolder
  3
AutoCAD 2000
 90
0
 91
1
280
0
281
0
  0
CLASS
  1
LAYOUT
  2
AcDbLayout
  3
AutoCAD 2000
 90
0
 91
0
280
0
281
0
  0
ENDSEC
  0
SECTION
  2
TABLES
  0
TABLE
  2
VPORT
  5
8
100
AcDbSymbolTable
 70
2
  0
VPORT
  5
1F4
100
AcDbSymbolTableRecord
100
AcDbViewportTableRecord
  2
*ACTIVE
 70
0
 10
0.0
 20
0.0
 11
1.0
 21
1.0
 12
81.7848727971
 22
115.6671772416
 13
0.0
 23
0.0
 14
1.0
 24
1.0
 15
0.0
 25
0.0
 16
0.0
 26
0.0
 36
1.0
 17
0.0
 27
0.0
 37
0.0
 40
231.3343544833
 41
0.7070707071
 42
50.0
 43
0.0
 44
0.0
 50
0.0
 51
0.0
 71
0
 72
100
 73
1
 74
1
 75
0
 76
0
 77
0
 78
0
  0
ENDTAB
  0
TABLE
  2
LTYPE
  5
5
100
AcDbSymbolTable
 70
6
  0
LTYPE
  5
14
100
AcDbSymbolTableRecord
100
AcDbLinetypeTableRecord
  2
BYBLOCK
 70
0
  3

 72
65
 73
0
 40
0.0
  0
LTYPE
  5
15
100
AcDbSymbolTableRecord
100
AcDbLinetypeTableRecord
  2
BYLAYER
 70
0
  3

 72
65
 73
0
 40
0.0
  0
LTYPE
  5
16
100
AcDbSymbolTableRecord
100
AcDbLinetypeTableRecord
  2
CONTINUOUS
 70
64
  3
Solid line
 72
65
 73
0
 40
0.0
  0
LTYPE
  5
1F5
100
AcDbSymbolTableRecord
100
AcDbLinetypeTableRecord
  2
CENTER
 70
64
  3
____ _ ____ _ ____ _ ____ _ ____ _ ____ _ ____
 72
65
 73
4
 40
0.6
 49
0.375
 74
0
 49
-0.075
 74
0
 49
0.075
 74
0
 49
-0.075
 74
0
  0
LTYPE
  5
1F6
100
AcDbSymbolTableRecord
100
AcDbLinetypeTableRecord
  2
HIDDEN
 70
64
  3
- - - - - - - - - - - - - - - - - - - -
 72
65
 73
2
 40
0.2
 49
0.1
 74
0
 49
-0.1
 74
0
  0
LTYPE
  5
1F7
100
AcDbSymbolTableRecord
100
AcDbLinetypeTableRecord
  2
PHANTOM
 70
64
  3
_____ _ _ _____ _ _ _____ _ _ _____
 72
65
 73
6
 40
0.8
 49
0.45
 74
0
 49
-0.05
 74
0
 49
0.1
 74
0
 49
-0.05
 74
0
 49
0.1
 74
0
 49
-0.05
 74
0
  0
LTYPE
  5
1F8
100
AcDbSymbolTableRecord
100
AcDbLinetypeTableRecord
  2
DOT
 70
64
  3
. . . . . . . . . . . . . . . . . . . .
 72
65
 73
2
 40
0.2
 49
0.1
 74
0
 49
-0.1
 74
0
  0
LTYPE
  5
1F9
100
AcDbSymbolTableRecord
100
AcDbLinetypeTableRecord
  2
DASHED
 70
64
  3
- - - - - - - - - - - - - - - - - - - -
 72
65
 73
2
 40
0.2
 49
0.1
 74
0
 49
-0.1
 74
0
  0
ENDTAB
  0
TABLE
  2
LAYER
  5
2
100
AcDbSymbolTable
 70
36
  0
LAYER
  5
10
100
AcDbSymbolTableRecord
100
AcDbLayerTableRecord
  2
0
 70
0
 62
7
  6
CONTINUOUS
370
-3
390
F
  0
LAYER
  5
1FA
100
AcDbSymbolTableRecord
100
AcDbLayerTableRecord
  2
DEFAULT_1
 70
0
 62
7
  6
CENTER
370
-3
390
F
  0
LAYER
  5
1FB
100
AcDbSymbolTableRecord
100
AcDbLayerTableRecord
  2
DEFAULT_2
 70
0
 62
8
  6
HIDDEN
370
-3
390
F
  0
LAYER
  5
1FC
100
AcDbSymbolTableRecord
100
AcDbLayerTableRecord
  2
DEFAULT_3
 70
0
 62
7
  6
PHANTOM
370
-3
390
F
  0
LAYER
  5
1FD
100
AcDbSymbolTableRecord
100
AcDbLayerTableRecord
  2
00_COMPONENTS
 70
0
 62
7
  6
CONTINUOUS
370
-3
390
F
  0
LAYER
  5
1FE
100
AcDbSymbolTableRecord
100
AcDbLayerTableRecord
  2
01_1_DEFAULT_DATUMS
 70
0
 62
7
  6
CONTINUOUS
370
-3
390
F
  0
LAYER
  5
1FF
100
AcDbSymbolTableRecord
100
AcDbLayerTableRecord
  2
01_PLANES
 70
0
 62
7
  6
CONTINUOUS
370
-3
390
F
  0
LAYER
  5
200
100
AcDbSymbolTableRecord
100
AcDbLayerTableRecord
  2
02_COORD_SYS
 70
0
 62
7
  6
CONTINUOUS
370
-3
390
F
  0
LAYER
  5
201
100
AcDbSymbolTableRecord
100
AcDbLayerTableRecord
  2
03_AXES
 70
0
 62
7
  6
CONTINUOUS
370
-3
390
F
  0
LAYER
  5
202
100
AcDbSymbolTableRecord
100
AcDbLayerTableRecord
  2
04_POINTS
 70
0
 62
7
  6
CONTINUOUS
370
-3
390
F
  0
LAYER
  5
203
100
AcDbSymbolTableRecord
100
AcDbLayerTableRecord
  2
05_CURVES
 70
0
 62
7
  6
CONTINUOUS
370
-3
390
F
  0
LAYER
  5
204
100
AcDbSymbolTableRecord
100
AcDbLayerTableRecord
  2
06_SURFS
 70
0
 62
7
  6
CONTINUOUS
370
-3
390
F
  0
LAYER
  5
205
100
AcDbSymbolTableRecord
100
AcDbLayerTableRecord
  2
07_COSMETICS
 70
0
 62
7
  6
CONTINUOUS
370
-3
390
F
  0
LAYER
  5
206
100
AcDbSymbolTableRecord
100
AcDbLayerTableRecord
  2
10_NOTES
 70
0
 62
7
  6
CONTINUOUS
370
-3
390
F
  0
LAYER
  5
207
100
AcDbSymbolTableRecord
100
AcDbLayerTableRecord
  2
11_NOTES_PUB
 70
0
 62
7
  6
CONTINUOUS
370
-3
390
F
  0
LAYER
  5
208
100
AcDbSymbolTableRecord
100
AcDbLayerTableRecord
  2
13_REF_GTOL
 70
0
 62
7
  6
CONTINUOUS
370
-3
390
F
  0
LAYER
  5
209
100
AcDbSymbolTableRecord
100
AcDbLayerTableRecord
  2
16_MISC
 70
0
 62
7
  6
CONTINUOUS
370
-3
390
F
  0
LAYER
  5
20A
100
AcDbSymbolTableRecord
100
AcDbLayerTableRecord
  2
17_NO_PRINT
 70
0
 62
7
  6
CONTINUOUS
370
-3
390
F
  0
LAYER
  5
20B
100
AcDbSymbolTableRecord
100
AcDbLayerTableRecord
  2
18_DATUM_CAMS_JOINTS
 70
0
 62
7
  6
CONTINUOUS
370
-3
390
F
  0
LAYER
  5
20C
100
AcDbSymbolTableRecord
100
AcDbLayerTableRecord
  2
19_DATUM_FUNCTIONAL
 70
0
 62
7
  6
CONTINUOUS
370
-3
390
F
  0
LAYER
  5
20D
100
AcDbSymbolTableRecord
100
AcDbLayerTableRecord
  2
20_DATUM_KINEMATIC_SCHEME
 70
0
 62
7
  6
CONTINUOUS
370
-3
390
F
  0
ENDTAB
  0
TABLE
  2
STYLE
  5
3
100
AcDbSymbolTable
 70
1
  0
STYLE
  5
11
100
AcDbSymbolTableRecord
100
AcDbTextStyleTableRecord
  2
STANDARD
 70
0
 40
0.0
 41
0.8
 50
0.0
 71
0
 42
0.2
  3
txt
  4

  0
STYLE
  5
20E
100
AcDbSymbolTableRecord
100
AcDbTextStyleTableRecord
  2
TEXTSTYLE_1
 70
0
 40
0.0
 41
0.8
 50
0.0
 71
0
 42
0.2
  3
gdt
  4

  0
ENDTAB
  0
TABLE
  2
VIEW
  5
6
100
AcDbSymbolTable
 70
0
  0
ENDTAB
  0
TABLE
  2
UCS
  5
7
100
AcDbSymbolTable
 70
0
  0
ENDTAB
  0
TABLE
  2
APPID
  5
9
100
AcDbSymbolTable
 70
1
  0
APPID
  5
20F
100
AcDbSymbolTableRecord
100
AcDbRegAppTableRecord
  2
ACAD
 70
0
  0
ENDTAB
  0
TABLE
  2
BLOCK_RECORD
  5
1
100
AcDbSymbolTable
 70
0
  0
BLOCK_RECORD
  5
210
100
AcDbSymbolTableRecord
100
AcDbBlockTableRecord
  2
*Model_Space
  0
BLOCK_RECORD
  5
211
100
AcDbSymbolTableRecord
100
AcDbBlockTableRecord
  2
*Paper_Space
  0
BLOCK_RECORD
  5
212
100
AcDbSymbolTableRecord
100
AcDbBlockTableRecord
  2
_FILLED
  0
ENDTAB
  0
TABLE
  2
DIMSTYLE
  5
A
100
AcDbSymbolTable
 70
1
100
AcDbDimStyleTable
 71
0
  0
DIMSTYLE
105
213
100
AcDbSymbolTableRecord
100
AcDbDimStyleTableRecord
  2
STANDARD
 70
0
  3

  4

 40
1.0
 41
1.9472588761
 42
1.0
 43
0.38
 44
1.0
 45
0.0
 46
0.0
 47
0.01
 48
0.01
140
2.7261624266
141
0.09
142
0.0
143
25.4
144
1.0
145
0.0
146
1.0
147
0.625
 71
1
 72
0
 73
0
 74
0
 75
0
 76
0
 77
1
 78
8
 79
2
170
0
171
1
172
0
173
0
174
0
175
0
176
0
177
0
178
0
270
2
179
2
271
2
272
2
273
2
274
2
275
0
280
0
281
0
282
0
283
1
284
8
285
0
286
0
287
3
288
0
340
11
278
46
341
212
342
212
343
212
344
212
  0
ENDTAB
  0
ENDSEC
  0
SECTION
  2
BLOCKS
  0
BLOCK
  5
20
100
AcDbEntity
  8
0
100
AcDbBlockBegin
  2
*Model_Space
 70
0
 10
0.0
 20
0.0
 30
0.0
  3
*Model_Space
  1

  0
ENDBLK
  5
21
100
AcDbEntity
  8
0
100
AcDbBlockEnd
  0
BLOCK
  5
1C
100
AcDbEntity
  8
0
100
AcDbBlockBegin
  2
*Paper_Space
 70
0
 10
0.0
 20
0.0
 30
0.0
  3
*Paper_Space
  1

  0
ENDBLK
  5
1D
100
AcDbEntity
  8
0
100
AcDbBlockEnd
  0
BLOCK
  5
214
100
AcDbEntity
  8
0
100
AcDbBlockBegin
  2
_FILLED
 70
64
 10
0.0
 20
0.0
  3
_FILLED
  1

  0
SOLID
  5
215
100
AcDbEntity
  8
0
  6
BYBLOCK
 62
0
100
AcDbTrace
 10
0.0
 20
0.0
 11
-1.0
 21
0.25
 12
-1.0
 22
-0.25
 13
-1.0
 23
-0.25
  0
ENDBLK
  5
216
100
AcDbEntity
  8
0
  6
BYBLOCK
 62
0
100
AcDbBlockEnd
  0
ENDSEC
  0
SECTION
  2
ENTITIES
  0
LINE
  5
217
100
AcDbEntity
  8
0
100
AcDbLine
 62
7
  6
CONTINUOUS
 10
17.3680237826
 20
144.9234784405
 11
17.6135229654
 21
154.4934784406
  0
LINE
  5
218
100
AcDbEntity
  8
0
100
AcDbLine
 62
7
  6
CONTINUOUS
 10
17.6270468467
 20
137.0234784401
 11
17.3680237825
 21
144.9234784405
  0
LINE
  5
219
100
AcDbEntity
  8
0
100
AcDbLine
 62
7
  6
CONTINUOUS
 10
21.7471890841
 20
144.9234784408
 11
21.6135229654
 21
154.4934784406
  0
LINE
  5
21A
100
AcDbEntity
  8
0
100
AcDbLine
 62
7
  6
CONTINUOUS
 10
21.8176379596
 20
137.0234784403
 11
21.7471890841
 21
144.9234784408
  0
LINE
  5
21B
100
AcDbEntity
  8
0
100
AcDbLine
 62
7
  6
CONTINUOUS
 10
21.5708903139
 20
137.0234784408
 11
21.0540734008
 21
135.8390348176
  0
LINE
  5
21C
100
AcDbEntity
  8
0
100
AcDbLine
 62
7
  6
CONTINUOUS
 10
20.329437173
 20
137.0234784409
 11
19.5985476851
 21
135.8390348176
  0
LINE
  5
21D
100
AcDbEntity
  8
0
100
AcDbLine
 62
7
  6
CONTINUOUS
 10
27.1332683211
 20
116.4234784428
 11
27.2008028087
 21
115.4565214007
  0
LINE
  5
21E
100
AcDbEntity
  8
0
100
AcDbLine
 62
7
  6
CONTINUOUS
 10
26.2775483986
 20
113.2734784402
 11
26.0854841656
 21
118.7734784406
  0
LINE
  5
21F
100
AcDbEntity
  8
0
100
AcDbLine
 62
7
  6
CONTINUOUS
 10
27.200770629
 20
115.4565191565
 11
27.2769875712
 21
113.2739374524
  0
LINE
  5
220
100
AcDbEntity
  8
0
100
AcDbLine
 62
7
  6
CONTINUOUS
 10
27.0495510236
 20
90.2399807324
 11
26.2775483986
 21
113.2734784402
  0
LINE
  5
221
100
AcDbEntity
  8
0
100
AcDbLine
 62
7
  6
CONTINUOUS
 10
27.2769875712
 20
113.2739374524
 11
28.0489897732
 21
90.2404377257
  0
LINE
  5
222
100
AcDbEntity
  8
0
100
AcDbLine
 62
7
  6
CONTINUOUS
 10
26.3680237825
 20
119.4234784406
 11
26.3680237825
 21
118.7734784402
  0
LINE
  5
223
100
AcDbEntity
  8
0
100
AcDbLine
 62
7
  6
CONTINUOUS
 10
27.3680237818
 20
115.7946787922
 11
27.3680237818
 21
116.4234784406
  0
LINE
  5
224
100
AcDbEntity
  8
0
100
AcDbLine
 62
7
  6
CONTINUOUS
 10
26.0680237818
 20
119.4234784407
 11
26.3356796474
 21
127.9548361971
  0
LINE
  5
225
100
AcDbEntity
  8
0
100
AcDbLine
 62
7
  6
CONTINUOUS
 10
28.7007262667
 20
135.8390348176
 11
29.2175431798
 21
137.0234784408
  0
LINE
  5
226
100
AcDbEntity
  8
0
100
AcDbLine
 62
7
  6
CONTINUOUS
 10
28.0489898178
 20
89.2734784406
 11
28.0489897731
 21
90.2404377259
  0
LINE
  5
227
100
AcDbEntity
  8
0
100
AcDbLine
 62
7
  6
CONTINUOUS
 10
29.8680688077
 20
89.2734784406
 11
29.8680237937
 21
90.2404377259
  0
LINE
  5
228
100
AcDbEntity
  8
0
100
AcDbLine
 62
7
  6
CONTINUOUS
 10
29.8680242053
 20
90.240437726
 11
29.8680244212
 21
114.3034784405
  0
LINE
  5
229
100
AcDbEntity
  8
0
100
AcDbLine
 62
7
  6
CONTINUOUS
 10
29.9331259579
 20
116.4234784406
 11
29.9331259579
 21
117.38857895
  0
LINE
  5
22A
100
AcDbEntity
  8
0
100
AcDbLine
 62
7
  6
CONTINUOUS
 10
29.9662683512
 20
128.9234784406
 11
29.9662683512
 21
127.9548361979
  0
LINE
  5
22B
100
AcDbEntity
  8
0
100
AcDbLine
 62
7
  6
CONTINUOUS
 10
29.9680237812
 20
118.7734784402
 11
29.9662683513
 21
127.9548361979
  0
LINE
  5
22C
100
AcDbEntity
  8
0
100
AcDbLine
 62
7
  6
CONTINUOUS
 10
31.9173874594
 20
117.38857895
 11
31.9173874594
 21
116.4234784406
  0
LINE
  5
22D
100
AcDbEntity
  8
0
100
AcDbLine
 62
7
  6
CONTINUOUS
 10
32.2146765136
 20
135.5211690709
 11
32.2146765122
 21
137.023478441
  0
LINE
  5
22E
100
AcDbEntity
  8
0
100
AcDbLine
 62
7
  6
CONTINUOUS
 10
32.3680237818
 20
115.7946787922
 11
32.3680237818
 21
116.316186027
  0
LINE
  5
22F
100
AcDbEntity
  8
0
100
AcDbLine
 62
7
  6
CONTINUOUS
 10
29.9854841656
 20
118.7734784406
 11
29.9331259578
 21
117.3885789442
  0
LINE
  5
230
100
AcDbEntity
  8
0
100
AcDbLine
 62
7
  6
CONTINUOUS
 10
33.7504540733
 20
90.2404377214
 11
32.9168414641
 21
115.4565191606
  0
LINE
  5
231
100
AcDbEntity
  8
0
100
AcDbLine
 62
7
  6
CONTINUOUS
 10
33.9162954709
 20
115.4546603721
 11
34.7499080805
 21
90.2399807326
  0
LINE
  5
232
100
AcDbEntity
  8
0
100
AcDbLine
 62
7
  6
CONTINUOUS
 10
34.552931253
 20
135.5211690709
 11
34.552931253
 21
128.9234784406
  0
LINE
  5
233
100
AcDbEntity
  8
0
100
AcDbLine
 62
7
  6
CONTINUOUS
 10
34.7499080798
 20
89.2734784406
 11
34.7499080798
 21
90.2399807324
  0
LINE
  5
234
100
AcDbEntity
  8
0
100
AcDbLine
 62
7
  6
CONTINUOUS
 10
97.5680237818
 20
77.9734784406
 11
105.517523585
 21
77.9734784406
  0
LINE
  5
235
100
AcDbEntity
  8
0
100
AcDbLine
 62
7
  6
CONTINUOUS
 10
105.5180237818
 20
78.173478441
 11
111.9680237818
 21
78.1734784406
  0
LINE
  5
236
100
AcDbEntity
  8
0
100
AcDbLine
 62
7
  6
CONTINUOUS
 10
85.2308380577
 20
78.2734784406
 11
112.1494517307
 21
78.2734784406
  0
LINE
  5
237
100
AcDbEntity
  8
0
100
AcDbLine
 62
7
  6
CONTINUOUS
 10
85.2308380122
 20
78.7861338479
 11
112.1494516886
 21
78.7861338481
  0
LINE
  5
238
100
AcDbEntity
  8
0
100
AcDbLine
 62
7
  6
CONTINUOUS
 10
49.4680237818
 20
89.2734784406
 11
49.4680237818
 21
88.9734784399
  0
LINE
  5
239
100
AcDbEntity
  8
0
100
AcDbLine
 62
7
  6
CONTINUOUS
 10
50.6680237818
 20
88.9734784399
 11
50.6680237818
 21
89.2734784406
  0
LINE
  5
23A
100
AcDbEntity
  8
0
100
AcDbLine
 62
7
  6
CONTINUOUS
 10
54.5831163106
 20
135.5211690709
 11
54.5831163106
 21
128.9234784406
  0
LINE
  5
23B
100
AcDbEntity
  8
0
100
AcDbLine
 62
7
  6
CONTINUOUS
 10
49.4680237818
 20
88.9734784406
 11
75.0677095791
 21
88.9734784406
  0
LINE
  5
23C
100
AcDbEntity
  8
0
100
AcDbLine
 62
7
  6
CONTINUOUS
 10
79.5273659355
 20
89.0618532803
 11
119.3197985015
 21
89.0618493357
  0
LINE
  5
23D
100
AcDbEntity
  8
0
100
AcDbLine
 62
7
  6
CONTINUOUS
 10
75.0680237818
 20
89.173478441
 11
78.3593218575
 21
89.173478441
  0
LINE
  5
23E
100
AcDbEntity
  8
0
100
AcDbLine
 62
7
  6
CONTINUOUS
 10
28.0489898178
 20
89.2734784406
 11
77.9569780412
 21
89.2734784406
  0
LINE
  5
23F
100
AcDbEntity
  8
0
100
AcDbLine
 62
7
  6
CONTINUOUS
 10
79.5273661572
 20
89.5157001648
 11
119.3197988364
 21
89.5156962199
  0
LINE
  5
240
100
AcDbEntity
  8
0
100
AcDbLine
 62
7
  6
CONTINUOUS
 10
77.2362566073
 20
90.2399807322
 11
34.7499080805
 21
90.2399807326
  0
LINE
  5
241
100
AcDbEntity
  8
0
100
AcDbLine
 62
7
  6
CONTINUOUS
 10
33.7505220046
 20
90.2404377234
 11
28.0489897732
 21
90.2404377257
  0
LINE
  5
242
100
AcDbEntity
  8
0
100
AcDbLine
 62
7
  6
CONTINUOUS
 10
123.3644789146
 20
90.239857752
 11
123.3644090135
 21
90.2398578208
  0
LINE
  5
243
100
AcDbEntity
  8
0
100
AcDbLine
 62
7
  6
CONTINUOUS
 10
123.5504766913
 20
95.7734784401
 11
126.1393909351
 21
95.7734784401
  0
LINE
  5
244
100
AcDbEntity
  8
0
100
AcDbLine
 62
7
  6
CONTINUOUS
 10
123.6412791763
 20
98.472747433
 11
126.1393909351
 21
98.472747433
  0
LINE
  5
245
100
AcDbEntity
  8
0
100
AcDbLine
 62
7
  6
CONTINUOUS
 10
120.4212348046
 20
99.223478441
 11
120.4457135492
 21
99.223478441
  0
LINE
  5
246
100
AcDbEntity
  8
0
100
AcDbLine
 62
7
  6
CONTINUOUS
 10
84.3564908095
 20
78.7881776168
 11
78.8223723993
 21
88.7587792639
  0
LINE
  5
247
100
AcDbEntity
  8
0
100
AcDbLine
 62
7
  6
CONTINUOUS
 10
79.5273659355
 20
89.0618532803
 11
85.2308380122
 21
78.7861338479
  0
LINE
  5
248
100
AcDbEntity
  8
0
100
AcDbLine
 62
7
  6
CONTINUOUS
 10
71.0232770728
 20
128.9234784406
 11
71.0232770728
 21
135.5211690709
  0
LINE
  5
249
100
AcDbEntity
  8
0
100
AcDbLine
 62
7
  6
CONTINUOUS
 10
73.0214774791
 20
137.0234784401
 11
73.021477479
 21
135.5211690709
  0
LINE
  5
24A
100
AcDbEntity
  8
0
100
AcDbLine
 62
7
  6
CONTINUOUS
 10
74.6680237818
 20
89.2734784406
 11
74.6680237818
 21
88.9734784399
  0
LINE
  5
24B
100
AcDbEntity
  8
0
100
AcDbLine
 62
7
  6
CONTINUOUS
 10
75.0680237818
 20
88.9734784406
 11
75.0680237818
 21
89.2734784406
  0
LINE
  5
24C
100
AcDbEntity
  8
0
100
AcDbLine
 62
7
  6
CONTINUOUS
 10
75.4680237825
 20
89.2734784406
 11
75.4680237825
 21
89.173478441
  0
LINE
  5
24D
100
AcDbEntity
  8
0
100
AcDbLine
 62
7
  6
CONTINUOUS
 10
75.7680237818
 20
89.173478441
 11
75.7680237818
 21
89.2734784406
  0
LINE
  5
24E
100
AcDbEntity
  8
0
100
AcDbLine
 62
7
  6
CONTINUOUS
 10
77.5985238247
 20
128.9234784406
 11
77.5985238247
 21
134.123478441
  0
LINE
  5
24F
100
AcDbEntity
  8
0
100
AcDbLine
 62
7
  6
CONTINUOUS
 10
86.3822968625
 20
135.8390348174
 11
87.078299556
 21
137.0234784413
  0
LINE
  5
250
100
AcDbEntity
  8
0
100
AcDbLine
 62
7
  6
CONTINUOUS
 10
79.527365935
 20
89.0618532803
 11
79.5273659804
 21
89.5157001647
  0
LINE
  5
251
100
AcDbEntity
  8
0
100
AcDbLine
 62
7
  6
CONTINUOUS
 10
133.4017084765
 20
115.7270371205
 11
131.868023781
 21
115.6234784445
  0
LINE
  5
252
100
AcDbEntity
  8
0
100
AcDbLine
 62
7
  6
CONTINUOUS
 10
133.4017084707
 20
116.5240145142
 11
131.868023781
 21
116.4631009543
  0
LINE
  5
253
100
AcDbEntity
  8
0
100
AcDbLine
 62
7
  6
CONTINUOUS
 10
126.9205799046
 20
113.2734784406
 11
125.1060935572
 21
113.2734784406
  0
LINE
  5
254
100
AcDbEntity
  8
0
100
AcDbLine
 62
7
  6
CONTINUOUS
 10
120.0466457266
 20
113.2734784397
 11
33.9884490023
 21
113.2734784396
  0
LINE
  5
255
100
AcDbEntity
  8
0
100
AcDbLine
 62
7
  6
CONTINUOUS
 10
28.2946511763
 20
114.5400499172
 11
31.4413963873
 21
114.5400499172
  0
LINE
  5
256
100
AcDbEntity
  8
0
100
AcDbLine
 62
7
  6
CONTINUOUS
 10
122.6946511763
 20
114.5400499172
 11
125.8413963873
 21
114.5400499172
  0
LINE
  5
257
100
AcDbEntity
  8
0
100
AcDbLine
 62
7
  6
CONTINUOUS
 10
27.200770629
 20
115.4565191565
 11
27.4793655505
 21
115.4565191565
  0
LINE
  5
258
100
AcDbEntity
  8
0
100
AcDbLine
 62
7
  6
CONTINUOUS
 10
32.2566820135
 20
115.4565191579
 11
32.9168570538
 21
115.4565191579
  0
LINE
  5
259
100
AcDbEntity
  8
0
100
AcDbLine
 62
7
  6
CONTINUOUS
 10
121.8684443563
 20
115.4896882634
 11
121.1881385733
 21
115.4896871925
  0
LINE
  5
25A
100
AcDbEntity
  8
0
100
AcDbLine
 62
7
  6
CONTINUOUS
 10
126.9575047198
 20
115.4896864399
 11
126.6676026065
 21
115.4896864389
  0
LINE
  5
25B
100
AcDbEntity
  8
0
100
AcDbLine
 62
7
  6
CONTINUOUS
 10
27.3680237818
 20
115.7946459615
 11
32.3680237818
 21
115.7946459612
  0
LINE
  5
25C
100
AcDbEntity
  8
0
100
AcDbLine
 62
7
  6
CONTINUOUS
 10
121.7680237818
 20
115.7946459615
 11
126.7680237818
 21
115.7946459612
  0
LINE
  5
25D
100
AcDbEntity
  8
0
100
AcDbLine
 62
7
  6
CONTINUOUS
 10
134.1680237825
 20
116.3734784406
 11
133.8680237818
 21
116.3734784406
  0
LINE
  5
25E
100
AcDbEntity
  8
0
100
AcDbLine
 62
7
  6
CONTINUOUS
 10
27.1332367489
 20
116.4234784406
 11
31.917387459
 21
116.4234784406
  0
LINE
  5
25F
100
AcDbEntity
  8
0
100
AcDbLine
 62
7
  6
CONTINUOUS
 10
122.1859863577
 20
116.4234784406
 11
127.0112782439
 21
116.4234784406
  0
LINE
  5
260
100
AcDbEntity
  8
0
100
AcDbLine
 62
7
  6
CONTINUOUS
 10
134.1680237825
 20
116.4266699275
 11
133.8680237818
 21
116.4266699275
  0
LINE
  5
261
100
AcDbEntity
  8
0
100
AcDbLine
 62
7
  6
CONTINUOUS
 10
133.8680237818
 20
116.5240135477
 11
133.4017084707
 21
116.5240135477
  0
LINE
  5
262
100
AcDbEntity
  8
0
100
AcDbLine
 62
7
  6
CONTINUOUS
 10
134.1680237825
 20
116.5330529086
 11
133.8680237818
 21
116.5330529086
  0
LINE
  5
263
100
AcDbEntity
  8
0
100
AcDbLine
 62
7
  6
CONTINUOUS
 10
134.1680237825
 20
116.7458188587
 11
133.8680237818
 21
116.7458188587
  0
LINE
  5
264
100
AcDbEntity
  8
0
100
AcDbLine
 62
7
  6
CONTINUOUS
 10
125.1060935544
 20
114.2100543302
 11
126.9324529812
 21
114.2098277679
  0
LINE
  5
265
100
AcDbEntity
  8
0
100
AcDbLine
 62
7
  6
CONTINUOUS
 10
85.2308380585
 20
78.2734784406
 11
85.2308380131
 21
78.7861338482
  0
LINE
  5
266
100
AcDbEntity
  8
0
100
AcDbLine
 62
7
  6
CONTINUOUS
 10
86.5375237389
 20
134.123478441
 11
86.5375237389
 21
128.9234784406
  0
LINE
  5
267
100
AcDbEntity
  8
0
100
AcDbLine
 62
7
  6
CONTINUOUS
 10
134.1680237825
 20
116.9585848291
 11
133.8680237818
 21
116.9585848291
  0
LINE
  5
268
100
AcDbEntity
  8
0
100
AcDbLine
 62
7
  6
CONTINUOUS
 10
134.1680237825
 20
117.2245422433
 11
133.8680237818
 21
117.2245422433
  0
LINE
  5
269
100
AcDbEntity
  8
0
100
AcDbLine
 62
7
  6
CONTINUOUS
 10
122.1859863375
 20
117.3885789449
 11
124.2114077711
 21
117.3885791117
  0
LINE
  5
26A
100
AcDbEntity
  8
0
100
AcDbLine
 62
7
  6
CONTINUOUS
 10
29.9331259578
 20
117.3885789442
 11
31.9173874566
 21
117.3885789558
  0
LINE
  5
26B
100
AcDbEntity
  8
0
100
AcDbLine
 62
7
  6
CONTINUOUS
 10
134.1680237825
 20
118.0224145632
 11
133.8680237818
 21
118.0224145632
  0
LINE
  5
26C
100
AcDbEntity
  8
0
100
AcDbLine
 62
7
  6
CONTINUOUS
 10
134.1680237825
 20
118.2883721273
 11
133.8680237818
 21
118.2883721273
  0
LINE
  5
26D
100
AcDbEntity
  8
0
100
AcDbLine
 62
7
  6
CONTINUOUS
 10
134.1680237825
 20
118.5011380596
 11
133.8680237818
 21
118.5011380596
  0
LINE
  5
26E
100
AcDbEntity
  8
0
100
AcDbLine
 62
7
  6
CONTINUOUS
 10
134.1680237825
 20
118.7139039911
 11
133.8680237818
 21
118.7139039911
  0
LINE
  5
26F
100
AcDbEntity
  8
0
100
AcDbLine
 62
7
  6
CONTINUOUS
 10
26.0854841653
 20
118.7734784406
 11
29.9851607714
 21
118.7734784406
  0
LINE
  5
270
100
AcDbEntity
  8
0
100
AcDbLine
 62
7
  6
CONTINUOUS
 10
29.9854841656
 20
118.7734784406
 11
128.0505633965
 21
118.7734784406
  0
LINE
  5
271
100
AcDbEntity
  8
0
100
AcDbLine
 62
7
  6
CONTINUOUS
 10
134.1680237825
 20
118.8202869575
 11
133.8680237818
 21
118.8202869575
  0
LINE
  5
272
100
AcDbEntity
  8
0
100
AcDbLine
 62
7
  6
CONTINUOUS
 10
134.1680237825
 20
118.8734784406
 11
133.8680237818
 21
118.8734784406
  0
LINE
  5
273
100
AcDbEntity
  8
0
100
AcDbLine
 62
7
  6
CONTINUOUS
 10
134.1680237825
 20
119.3734784406
 11
133.8680237818
 21
119.3734784406
  0
LINE
  5
274
100
AcDbEntity
  8
0
100
AcDbLine
 62
7
  6
CONTINUOUS
 10
26.0680237818
 20
119.4234784406
 11
128.0680237459
 21
119.4234784406
  0
LINE
  5
275
100
AcDbEntity
  8
0
100
AcDbLine
 62
7
  6
CONTINUOUS
 10
131.8680237818
 20
119.6234784406
 11
128.0680237743
 21
119.6234784406
  0
LINE
  5
276
100
AcDbEntity
  8
0
100
AcDbLine
 62
7
  6
CONTINUOUS
 10
134.1680237825
 20
121.6075210255
 11
133.8680237818
 21
121.6075210255
  0
LINE
  5
277
100
AcDbEntity
  8
0
100
AcDbLine
 62
7
  6
CONTINUOUS
 10
128.0680237748
 20
121.6234784406
 11
131.8680237818
 21
121.6234784406
  0
LINE
  5
278
100
AcDbEntity
  8
0
100
AcDbLine
 62
7
  6
CONTINUOUS
 10
134.1680237825
 20
121.8734784406
 11
133.8680237818
 21
121.8734784406
  0
LINE
  5
279
100
AcDbEntity
  8
0
100
AcDbLine
 62
7
  6
CONTINUOUS
 10
91.114570084
 20
135.5211690709
 11
91.1145700835
 21
137.023478441
  0
LINE
  5
27A
100
AcDbEntity
  8
0
100
AcDbLine
 62
7
  6
CONTINUOUS
 10
134.1680237825
 20
122.3734784406
 11
133.8680237818
 21
122.3734784406
  0
LINE
  5
27B
100
AcDbEntity
  8
0
100
AcDbLine
 62
7
  6
CONTINUOUS
 10
133.4017084707
 20
124.6766657276
 11
133.8680237818
 21
124.6766657276
  0
LINE
  5
27C
100
AcDbEntity
  8
0
100
AcDbLine
 62
7
  6
CONTINUOUS
 10
134.1680237825
 20
124.8734784406
 11
133.8680237818
 21
124.8734784406
  0
LINE
  5
27D
100
AcDbEntity
  8
0
100
AcDbLine
 62
7
  6
CONTINUOUS
 10
123.0605473856
 20
88.9955846809
 11
123.0598371712
 21
88.9962549536
  0
LINE
  5
27E
100
AcDbEntity
  8
0
100
AcDbLine
 62
7
  6
CONTINUOUS
 10
77.7537507004
 20
135.8390348169
 11
77.057748007
 21
137.0234784406
  0
LINE
  5
27F
100
AcDbEntity
  8
0
100
AcDbLine
 62
7
  6
CONTINUOUS
 10
93.1127704908
 20
128.9234784406
 11
93.1127704908
 21
135.5211690709
  0
LINE
  5
280
100
AcDbEntity
  8
0
100
AcDbLine
 62
7
  6
CONTINUOUS
 10
97.5680237818
 20
77.9734784399
 11
97.5680237818
 21
78.2734784406
  0
LINE
  5
281
100
AcDbEntity
  8
0
100
AcDbLine
 62
7
  6
CONTINUOUS
 10
26.3356205539
 20
127.954838056
 11
127.8004270018
 21
127.9548380518
  0
LINE
  5
282
100
AcDbEntity
  8
0
100
AcDbLine
 62
7
  6
CONTINUOUS
 10
27.3351878706
 20
128.9234784406
 11
126.8008597135
 21
128.9234784406
  0
LINE
  5
283
100
AcDbEntity
  8
0
100
AcDbLine
 62
7
  6
CONTINUOUS
 10
133.4017084707
 20
124.6766657276
 11
131.8680237821
 21
124.766155003
  0
LINE
  5
284
100
AcDbEntity
  8
0
100
AcDbLine
 62
7
  6
CONTINUOUS
 10
131.8680237813
 20
125.6234784446
 11
133.4017084765
 21
125.5199197685
  0
LINE
  5
285
100
AcDbEntity
  8
0
100
AcDbLine
 62
7
  6
CONTINUOUS
 10
99.7126366994
 20
77.9734784399
 11
99.7126366994
 21
78.2734784406
  0
LINE
  5
286
100
AcDbEntity
  8
0
100
AcDbLine
 62
7
  6
CONTINUOUS
 10
100.052931253
 20
128.9234784406
 11
100.052931253
 21
135.5211690709
  0
LINE
  5
287
100
AcDbEntity
  8
0
100
AcDbLine
 62
7
  6
CONTINUOUS
 10
86.5375237388
 20
134.1234784406
 11
77.5985238247
 21
134.1234784406
  0
LINE
  5
288
100
AcDbEntity
  8
0
100
AcDbLine
 62
7
  6
CONTINUOUS
 10
19.7759142426
 20
135.5211690709
 11
144.360133321
 21
135.5211690709
  0
LINE
  5
289
100
AcDbEntity
  8
0
100
AcDbLine
 62
7
  6
CONTINUOUS
 10
19.5985476861
 20
135.8390348169
 11
144.5374998775
 21
135.8390348169
  0
LINE
  5
28A
100
AcDbEntity
  8
0
100
AcDbLine
 62
7
  6
CONTINUOUS
 10
105.1680237818
 20
78.2734784406
 11
105.1680237818
 21
77.9734784399
  0
LINE
  5
28B
100
AcDbEntity
  8
0
100
AcDbLine
 62
7
  6
CONTINUOUS
 10
105.5180237818
 20
77.9734784406
 11
105.5180237818
 21
78.2734784406
  0
LINE
  5
28C
100
AcDbEntity
  8
0
100
AcDbLine
 62
7
  6
CONTINUOUS
 10
17.6270468467
 20
137.0234784406
 11
146.5090007169
 21
137.0234784406
  0
LINE
  5
28D
100
AcDbEntity
  8
0
100
AcDbLine
 62
7
  6
CONTINUOUS
 10
111.4190641464
 20
78.2734784406
 11
111.4190641464
 21
78.173478441
  0
LINE
  5
28E
100
AcDbEntity
  8
0
100
AcDbLine
 62
7
  6
CONTINUOUS
 10
111.9680237818
 20
78.173478441
 11
111.9680237818
 21
78.2734784406
  0
LINE
  5
28F
100
AcDbEntity
  8
0
100
AcDbLine
 62
7
  6
CONTINUOUS
 10
112.1494516891
 20
78.7861338482
 11
112.1494517345
 21
78.2734784406
  0
LINE
  5
290
100
AcDbEntity
  8
0
100
AcDbLine
 62
7
  6
CONTINUOUS
 10
146.7680237811
 20
144.9234784406
 11
17.3680237825
 21
144.9234784406
  0
LINE
  5
291
100
AcDbEntity
  8
0
100
AcDbLine
 62
7
  6
CONTINUOUS
 10
119.3197985015
 20
89.0618493357
 11
119.3198676106
 21
86.115316694
  0
LINE
  5
292
100
AcDbEntity
  8
0
100
AcDbLine
 62
7
  6
CONTINUOUS
 10
119.3197985475
 20
89.5156962201
 11
119.3197985021
 21
89.0618493357
  0
LINE
  5
293
100
AcDbEntity
  8
0
100
AcDbLine
 62
7
  6
CONTINUOUS
 10
120.0831163106
 20
128.9234784406
 11
120.0831163106
 21
135.5211690709
  0
LINE
  5
294
100
AcDbEntity
  8
0
100
AcDbLine
 62
7
  6
CONTINUOUS
 10
121.7680237818
 20
115.7946787922
 11
121.7680237818
 21
116.3319425897
  0
LINE
  5
295
100
AcDbEntity
  8
0
100
AcDbLine
 62
7
  6
CONTINUOUS
 10
122.1859864746
 20
116.4234784406
 11
122.1859864746
 21
117.388578944
  0
LINE
  5
296
100
AcDbEntity
  8
0
100
AcDbLine
 62
7
  6
CONTINUOUS
 10
146.5225245986
 20
154.4934784406
 11
142.522688612
 21
154.4934784406
  0
LINE
  5
297
100
AcDbEntity
  8
0
100
AcDbLine
 62
7
  6
CONTINUOUS
 10
142.522524599
 20
154.4934784406
 11
21.6135229654
 21
154.4934784406
  0
LINE
  5
298
100
AcDbEntity
  8
0
100
AcDbLine
 62
7
  6
CONTINUOUS
 10
21.6133492802
 20
154.4934784406
 11
17.613522965
 21
154.4934784406
  0
LINE
  5
299
100
AcDbEntity
  8
0
100
AcDbLine
 62
7
  6
CONTINUOUS
 10
124.2114077711
 20
117.3885791117
 11
124.1505633964
 21
118.7734784406
  0
LINE
  5
29A
100
AcDbEntity
  8
0
100
AcDbLine
 62
7
  6
CONTINUOUS
 10
124.1697792181
 20
128.9234784406
 11
124.1697792181
 21
127.9548361979
  0
LINE
  5
29B
100
AcDbEntity
  8
0
100
AcDbLine
 62
7
  6
CONTINUOUS
 10
124.2114077705
 20
117.388578944
 11
124.2114077705
 21
116.4234784406
  0
LINE
  5
29C
100
AcDbEntity
  8
0
100
AcDbLine
 62
7
  6
CONTINUOUS
 10
124.268033214
 20
114.0263797121
 11
124.2680319323
 21
114.3034788463
  0
LINE
  5
29D
100
AcDbEntity
  8
0
100
AcDbLine
 62
7
  6
CONTINUOUS
 10
125.1060935677
 20
113.2734784406
 11
125.1060935634
 21
114.2100541848
  0
LINE
  5
29E
100
AcDbEntity
  8
0
100
AcDbLine
 62
7
  6
CONTINUOUS
 10
126.1393909351
 20
98.472747433
 11
126.1393909351
 21
95.7734784402
  0
LINE
  5
29F
100
AcDbEntity
  8
0
100
AcDbLine
 62
7
  6
CONTINUOUS
 10
126.7680237818
 20
115.7946787922
 11
126.7680237818
 21
116.4234784406
  0
LINE
  5
2A0
100
AcDbEntity
  8
0
100
AcDbLine
 62
7
  6
CONTINUOUS
 10
126.9205798808
 20
114.2100541848
 11
126.9205798851
 21
113.2734784406
  0
LINE
  5
2A1
100
AcDbEntity
  8
0
100
AcDbLine
 62
7
  6
CONTINUOUS
 10
127.7680237811
 20
118.7734784402
 11
127.7680237811
 21
119.4234784406
  0
LINE
  5
2A2
100
AcDbEntity
  8
0
100
AcDbLine
 62
7
  6
CONTINUOUS
 10
124.1680237823
 20
118.7734784402
 11
124.1697792061
 21
127.9548361979
  0
LINE
  5
2A3
100
AcDbEntity
  8
0
100
AcDbLine
 62
7
  6
CONTINUOUS
 10
124.1066588341
 20
112.3070991292
 11
123.3448716031
 21
89.6616028682
  0
LINE
  5
2A4
100
AcDbEntity
  8
0
100
AcDbLine
 62
7
  6
CONTINUOUS
 10
123.3644789146
 20
90.239857752
 11
123.5506283609
 21
95.7734755064
  0
LINE
  5
2A5
100
AcDbEntity
  8
0
100
AcDbLine
 62
7
  6
CONTINUOUS
 10
126.9574801649
 20
115.4896878194
 11
127.0112540619
 21
116.4234784462
  0
LINE
  5
2A6
100
AcDbEntity
  8
0
100
AcDbLine
 62
7
  6
CONTINUOUS
 10
144.2159434233
 20
135.5790969689
 11
144.360133321
 21
135.5211690709
  0
LINE
  5
2A7
100
AcDbEntity
  8
0
100
AcDbLine
 62
7
  6
CONTINUOUS
 10
128.0680237459
 20
119.4234784389
 11
127.8003679382
 21
127.9548361903
  0
LINE
  5
2A8
100
AcDbEntity
  8
0
100
AcDbLine
 62
7
  6
CONTINUOUS
 10
128.0680237743
 20
121.6234784399
 11
128.0680237743
 21
119.6234784399
  0
LINE
  5
2A9
100
AcDbEntity
  8
0
100
AcDbLine
 62
7
  6
CONTINUOUS
 10
131.8680237818
 20
115.6234784444
 11
131.8680237818
 21
125.6234784446
  0
LINE
  5
2AA
100
AcDbEntity
  8
0
100
AcDbLine
 62
7
  6
CONTINUOUS
 10
131.9213710498
 20
137.0234784401
 11
131.9213710497
 21
135.5211690709
  0
LINE
  5
2AB
100
AcDbEntity
  8
0
100
AcDbLine
 62
7
  6
CONTINUOUS
 10
128.0505633969
 20
118.7734784406
 11
127.9201656402
 21
114.2446972457
  0
LWPOLYLINE
  5
2AC
100
AcDbEntity
  8
0
100
AcDbPolyline
 62
7
  6
CONTINUOUS
 90
3
 70
0
 10
120.592625303
 20
86.9518487512
 10
121.4181397951
 20
88.0097933894
 10
122.7341202712
 20
89.6949447842
  0
LINE
  5
2AD
100
AcDbEntity
  8
0
100
AcDbLine
 62
7
  6
CONTINUOUS
 10
120.3198673959
 20
86.6027017909
 11
122.7340868221
 21
89.694930136
  0
LINE
  5
2AE
100
AcDbEntity
  8
0
100
AcDbLine
 62
7
  6
CONTINUOUS
 10
112.1494516886
 20
78.7861338481
 11
119.3198676106
 21
86.115316694
  0
LINE
  5
2AF
100
AcDbEntity
  8
0
100
AcDbLine
 62
7
  6
CONTINUOUS
 10
123.0605473856
 20
88.9955846809
 11
112.8637226988
 21
78.5744593981
  0
LINE
  5
2B0
100
AcDbEntity
  8
0
100
AcDbLine
 62
7
  6
CONTINUOUS
 10
123.3448716031
 20
89.6616028682
 11
123.3449557306
 21
89.6616771278
  0
LINE
  5
2B1
100
AcDbEntity
  8
0
100
AcDbLine
 62
7
  6
CONTINUOUS
 10
133.4017084707
 20
124.6766657276
 11
133.4017084707
 21
116.5240145142
  0
LINE
  5
2B2
100
AcDbEntity
  8
0
100
AcDbLine
 62
7
  6
CONTINUOUS
 10
133.8680237818
 20
125.02105572
 11
133.8680237818
 21
116.2259011709
  0
LINE
  5
2B3
100
AcDbEntity
  8
0
100
AcDbLine
 62
7
  6
CONTINUOUS
 10
134.1680237818
 20
116.3734784406
 11
134.1680237818
 21
118.8734784406
  0
LINE
  5
2B4
100
AcDbEntity
  8
0
100
AcDbLine
 62
7
  6
CONTINUOUS
 10
134.1680237825
 20
119.3734784406
 11
134.1680237825
 21
121.8734784406
  0
LINE
  5
2B5
100
AcDbEntity
  8
0
100
AcDbLine
 62
7
  6
CONTINUOUS
 10
134.1680237825
 20
122.3734784406
 11
134.1680237825
 21
124.8734784406
  0
LINE
  5
2B6
100
AcDbEntity
  8
0
100
AcDbLine
 62
7
  6
CONTINUOUS
 10
142.5164454351
 20
137.0234784406
 11
142.4824057551
 21
144.9234784398
  0
LINE
  5
2B7
100
AcDbEntity
  8
0
100
AcDbLine
 62
7
  6
CONTINUOUS
 10
142.4824057562
 20
144.9234784398
 11
142.522524599
 21
154.4934784406
  0
LINE
  5
2B8
100
AcDbEntity
  8
0
100
AcDbLine
 62
7
  6
CONTINUOUS
 10
135.4353211628
 20
135.8390348176
 11
134.9185042499
 21
137.0234784403
  0
LINE
  5
2B9
100
AcDbEntity
  8
0
100
AcDbLine
 62
7
  6
CONTINUOUS
 10
146.768023781
 20
144.9234784413
 11
146.5225245982
 21
154.4934784406
  0
LINE
  5
2BA
100
AcDbEntity
  8
0
100
AcDbLine
 62
7
  6
CONTINUOUS
 10
146.5090007169
 20
137.0234784402
 11
146.7680237811
 21
144.9234784413
  0
LINE
  5
2BB
100
AcDbEntity
  8
0
100
AcDbLine
 62
7
  6
CONTINUOUS
 10
144.5374998785
 20
135.8390348176
 11
143.8066103906
 21
137.0234784409
  0
LINE
  5
2BC
100
AcDbEntity
  8
0
100
AcDbLine
 62
7
  6
CONTINUOUS
 10
142.5651572497
 20
137.0234784408
 11
143.0819741628
 21
135.8390348176
  0
ARC
  5
2BD
100
AcDbEntity
  8
0
100
AcDbCircle
 62
7
  6
CONTINUOUS
 10
77.9555466907
 20
88.2298423128
 40
1.043592689
100
AcDbArc
 50
87.610828475
 51
89.9215131897
  0
ARC
  5
2BE
100
AcDbEntity
  8
0
100
AcDbCircle
 62
7
  6
CONTINUOUS
 10
77.9482150378
 20
88.2713702819
 40
1.00542761
100
AcDbArc
 50
31.1041333557
 51
50.5563005611
  0
ARC
  5
2BF
100
AcDbEntity
  8
0
100
AcDbCircle
 62
7
  6
CONTINUOUS
 10
112.1494245305
 20
79.2735431138
 40
1.0000646466
100
AcDbArc
 50
270.0015586259
 51
315.6254430908
  0
ARC
  5
2C0
100
AcDbEntity
  8
0
100
AcDbCircle
 62
7
  6
CONTINUOUS
 10
122.3453886547
 20
89.6952442075
 40
1.0000489673
100
AcDbArc
 50
315.62764683
 51
358.0722242254
  0
ARC
  5
2C1
100
AcDbEntity
  8
0
100
AcDbCircle
 62
7
  6
CONTINUOUS
 10
119.3198674021
 20
86.6026610269
 40
1.0
100
AcDbArc
 50
315.6275922625
 51
0.0044579497
  0
ARC
  5
2C2
100
AcDbEntity
  8
0
100
AcDbCircle
 62
7
  6
CONTINUOUS
 10
28.0489898178
 20
90.2734784406
 40
1.0
100
AcDbArc
 50
181.9196363895
 51
270.0
  0
ARC
  5
2C3
100
AcDbEntity
  8
0
100
AcDbCircle
 62
7
  6
CONTINUOUS
 10
77.9480253702
 20
88.2734784406
 40
1.0
100
AcDbArc
 50
29.0321834105
 51
89.9999999938
  0
ARC
  5
2C4
100
AcDbEntity
  8
0
100
AcDbCircle
 62
7
  6
CONTINUOUS
 10
85.2308380577
 20
79.2734784406
 40
1.0
100
AcDbArc
 50
209.0321834106
 51
270.0000000001
  0
ARC
  5
2C5
100
AcDbEntity
  8
0
100
AcDbCircle
 62
7
  6
CONTINUOUS
 10
34.7499080798
 20
90.2734784406
 40
1.0
100
AcDbArc
 50
181.8935616548
 51
269.9999999969
  0
ARC
  5
2C6
100
AcDbEntity
  8
0
100
AcDbCircle
 62
7
  6
CONTINUOUS
 10
29.8680237818
 20
119.6538010212
 40
5.3503225806
100
AcDbArc
 50
252.8982021964
 51
287.1017978036
  0
ARC
  5
2C7
100
AcDbEntity
  8
0
100
AcDbCircle
 62
7
  6
CONTINUOUS
 10
31.0553430013
 20
115.7946787922
 40
1.3126807809
100
AcDbArc
 50
287.1018254176
 51
360.0
  0
ARC
  5
2C8
100
AcDbEntity
  8
0
100
AcDbCircle
 62
7
  6
CONTINUOUS
 10
28.6807045623
 20
115.7946787922
 40
1.3126807809
100
AcDbArc
 50
180.0
 51
252.8981745824
  0
ARC
  5
2C9
100
AcDbEntity
  8
0
100
AcDbCircle
 62
7
  6
CONTINUOUS
 10
31.917387459
 20
115.4234784406
 40
1.0
100
AcDbArc
 50
1.8934384245
 51
90.0000000668
  0
ARC
  5
2CA
100
AcDbEntity
  8
0
100
AcDbCircle
 62
7
  6
CONTINUOUS
 10
27.1332367489
 20
117.4234784406
 40
1.0
100
AcDbArc
 50
182.0000000078
 51
270.0
  0
ARC
  5
2CB
100
AcDbEntity
  8
0
100
AcDbCircle
 62
7
  6
CONTINUOUS
 10
27.3358263409
 20
127.9227617656
 40
1.0007136748
100
AcDbArc
 50
90.0365553983
 51
178.1631695265
  0
ARC
  5
2CC
100
AcDbEntity
  8
0
100
AcDbCircle
 62
7
  6
CONTINUOUS
 10
19.7759142426
 20
135.729586508
 40
0.2084174371
100
AcDbArc
 50
148.3223391618
 51
270.0
  0
ARC
  5
2CD
100
AcDbEntity
  8
0
100
AcDbCircle
 62
7
  6
CONTINUOUS
 10
124.2680237818
 20
119.6538010212
 40
5.3503225806
100
AcDbArc
 50
252.8982021964
 51
287.1017978036
  0
ARC
  5
2CE
100
AcDbEntity
  8
0
100
AcDbCircle
 62
7
  6
CONTINUOUS
 10
125.1075265691
 20
112.1963936561
 40
2.0136701378
100
AcDbArc
 50
90.0407741564
 51
106.4445016564
  0
ARC
  5
2CF
100
AcDbEntity
  8
0
100
AcDbCircle
 62
7
  6
CONTINUOUS
 10
125.1068838881
 20
112.2041865962
 40
2.0060146682
100
AcDbArc
 50
106.48990621
 51
114.719085426
  0
ARC
  5
2D0
100
AcDbEntity
  8
0
100
AcDbCircle
 62
7
  6
CONTINUOUS
 10
125.4553430013
 20
115.7946787922
 40
1.3126807809
100
AcDbArc
 50
287.1018254176
 51
360.0
  0
ARC
  5
2D1
100
AcDbEntity
  8
0
100
AcDbCircle
 62
7
  6
CONTINUOUS
 10
123.0807045623
 20
115.7946787922
 40
1.3126807809
100
AcDbArc
 50
180.0
 51
252.8981745824
  0
ARC
  5
2D2
100
AcDbEntity
  8
0
100
AcDbCircle
 62
7
  6
CONTINUOUS
 10
127.0112782439
 20
117.4234784406
 40
1.0
100
AcDbArc
 50
270.0
 51
358.3507314929
  0
ARC
  5
2D3
100
AcDbEntity
  8
0
100
AcDbCircle
 62
7
  6
CONTINUOUS
 10
125.1060935628
 20
112.2734784406
 40
1.0
100
AcDbArc
 50
89.9999994297
 51
178.0733132675
  0
ARC
  5
2D4
100
AcDbEntity
  8
0
100
AcDbCircle
 62
7
  6
CONTINUOUS
 10
126.9205799046
 20
114.2734784406
 40
1.0
100
AcDbArc
 50
270.0
 51
358.3507312107
  0
ARC
  5
2D5
100
AcDbEntity
  8
0
100
AcDbCircle
 62
7
  6
CONTINUOUS
 10
122.1859863597
 20
115.4234784406
 40
1.0
100
AcDbArc
 50
90.0000001131
 51
176.2039001132
  0
ARC
  5
2D6
100
AcDbEntity
  8
0
100
AcDbCircle
 62
7
  6
CONTINUOUS
 10
133.3680237818
 20
116.2259011637
 40
0.5
100
AcDbArc
 50
273.8629075014
 51
360.0
  0
ARC
  5
2D7
100
AcDbEntity
  8
0
100
AcDbCircle
 62
7
  6
CONTINUOUS
 10
126.8008597133
 20
127.9234784406
 40
1.0
100
AcDbArc
 50
1.7969612912
 51
89.9999991692
  0
ARC
  5
2D8
100
AcDbEntity
  8
0
100
AcDbCircle
 62
7
  6
CONTINUOUS
 10
133.3680237818
 20
125.0210557097
 40
0.5
100
AcDbArc
 50
0.0
 51
86.1370924986
  0
ARC
  5
2D9
100
AcDbEntity
  8
0
100
AcDbCircle
 62
7
  6
CONTINUOUS
 10
144.360133321
 20
135.729586508
 40
0.2084174371
100
AcDbArc
 50
270.0
 51
31.6776608382
  0
ARC
  5
2DA
100
AcDbEntity
  8
0
100
AcDbCircle
 62
7
  6
CONTINUOUS
 10
599.7921695197
 20
83.7354751077
 40
479.6562395653
100
AcDbArc
 50
176.2041278257
 51
176.4726602634
  0
ARC
  5
2DB
100
AcDbEntity
  8
0
100
AcDbCircle
 62
7
  6
CONTINUOUS
 10
592.5735363892
 20
84.2025735223
 40
473.4202069857
100
AcDbArc
 50
176.2069119628
 51
176.4794728244
  0
ARC
  5
2DC
100
AcDbEntity
  8
0
100
AcDbCircle
 62
7
  6
CONTINUOUS
 10
485.4926530376
 20
89.3480269311
 40
365.2190962259
100
AcDbArc
 50
177.345997874
 51
177.5617790644
  0
ARC
  5
2DD
100
AcDbEntity
  8
0
100
AcDbCircle
 62
7
  6
CONTINUOUS
 10
436.8809940068
 20
91.8219202402
 40
316.5555563525
100
AcDbArc
 50
179.1407251317
 51
179.3541133378
  0
SPLINE
  5
2DE
100
AcDbEntity
  8
0
100
AcDbSpline
 62
7
  6
CONTINUOUS
 70
0
 71
3
 72
22
 73
18
 74
0
 42
0.0000001
 43
0.0000001
 44
0.0000000001
 40
0.0
 40
0.0
 40
0.0
 40
0.0
 40
0.1949159143
 40
0.3819249304
 40
0.5541326669
 40
0.6326385047
 40
0.7050709085
 40
0.7707266933
 40
0.8289943863
 40
0.8793330507
 40
0.9213060559
 40
0.954544
 40
0.9787606331
 40
0.9874207265
 40
0.993770517
 40
0.9978579754
 40
1.0
 40
1.0
 40
1.0
 40
1.0
 10
133.4016934661
 20
124.6766662566
 30
0.0
 10
133.4036185374
 20
124.7315188242
 30
0.0
 10
133.4069454574
 20
124.8390148174
 30
0.0
 10
133.4106657898
 20
124.995009651
 30
0.0
 10
133.4126866917
 20
125.1182530152
 30
0.0
 10
133.4135135939
 20
125.2092442249
 30
0.0
 10
133.4137278033
 20
125.2702349631
 30
0.0
 10
133.4135528098
 20
125.3255267966
 30
0.0
 10
133.4129948675
 20
125.3745953868
 30
0.0
 10
133.4120677182
 20
125.4169859875
 30
0.0
 10
133.4107895482
 20
125.4523234095
 30
0.0
 10
133.4091962518
 20
125.4802646092
 30
0.0
 10
133.4074907273
 20
125.4988399695
 30
0.0
 10
133.4058771902
 20
125.5097346456
 30
0.0
 10
133.4046396334
 20
125.515044345
 30
0.0
 10
133.4036084243
 20
125.5182940408
 30
0.0
 10
133.4022952854
 20
125.5198801251
 30
0.0
 10
133.4016934849
 20
125.5199207833
 30
0.0
  0
SPLINE
  5
2DF
100
AcDbEntity
  8
0
100
AcDbSpline
 62
7
  6
CONTINUOUS
 70
0
 71
3
 72
23
 73
19
 74
0
 42
0.0000001
 43
0.0000001
 44
0.0000000001
 40
0.0
 40
0.0
 40
0.0
 40
0.0
 40
0.0017799059
 40
0.0056929641
 40
0.011936145
 40
0.0205237612
 40
0.0314412045
 40
0.0446596725
 40
0.077859646
 40
0.119823214
 40
0.170163991
 40
0.2284485627
 40
0.2941347727
 40
0.3666143359
 40
0.4451905937
 40
0.6175681962
 40
0.8048595237
 40
1.0
 40
1.0
 40
1.0
 40
1.0
 10
133.40169831
 20
115.7270364363
 30
0.0
 10
133.4021705527
 20
115.7270683211
 30
0.0
 10
133.403036363
 20
115.7287399701
 30
0.0
 10
133.4037066281
 20
115.7315770616
 30
0.0
 10
133.404550718
 20
115.7366325541
 30
0.0
 10
133.4052724612
 20
115.7433842095
 30
0.0
 10
133.4059864914
 20
115.7520796274
 30
0.0
 10
133.4069242106
 20
115.7672880682
 30
0.0
 10
133.4078885682
 20
115.7907796375
 30
0.0
 10
133.4087610447
 20
115.8241404085
 30
0.0
 10
133.409395287
 20
115.8641820447
 30
0.0
 10
133.4097766091
 20
115.9105339009
 30
0.0
 10
133.4098972052
 20
115.9627747884
 30
0.0
 10
133.4097516265
 20
116.0204114479
 30
0.0
 10
133.4091868704
 20
116.1064181798
 30
0.0
 10
133.4078080262
 20
116.2229503079
 30
0.0
 10
133.4052780731
 20
116.3704657479
 30
0.0
 10
133.4030047588
 20
116.4721383642
 30
0.0
 10
133.4016982631
 20
116.5240142562
 30
0.0
  0
SPLINE
  5
2E0
100
AcDbEntity
  8
0
100
AcDbSpline
 62
7
  6
CONTINUOUS
 70
0
 71
3
 72
9
 73
5
 74
0
 42
0.0000001
 43
0.0000001
 44
0.0000000001
 40
0.0
 40
0.0
 40
0.0
 40
0.0
 40
0.2425148437
 40
1.0
 40
1.0
 40
1.0
 40
1.0
 10
143.0819740288
 20
135.8390348174
 30
0.0
 10
143.085597277
 20
135.8307310388
 30
0.0
 10
143.0985626634
 20
135.7956466821
 30
0.0
 10
143.1039303165
 20
135.7578845405
 30
0.0
 10
143.1039303165
 20
135.729586508
 30
0.0
  0
SPLINE
  5
2E1
100
AcDbEntity
  8
0
100
AcDbSpline
 62
7
  6
CONTINUOUS
 70
0
 71
3
 72
11
 73
7
 74
0
 42
0.0000001
 43
0.0000001
 44
0.0000000001
 40
0.0
 40
0.0
 40
0.0
 40
0.0
 40
0.2094202088
 40
0.4445104738
 40
0.7125369648
 40
1.0
 40
1.0
 40
1.0
 40
1.0
 10
135.3099042108
 20
135.5211461166
 30
0.0
 10
135.3294269731
 20
135.5211621293
 30
0.0
 10
135.3713480841
 20
135.5338354465
 30
0.0
 10
135.4194314135
 20
135.5824330891
 30
0.0
 10
135.4501443632
 20
135.6507036598
 30
0.0
 10
135.4572775847
 20
135.7027883568
 30
0.0
 10
135.4572775847
 20
135.729586508
 30
0.0
  0
SPLINE
  5
2E2
100
AcDbEntity
  8
0
100
AcDbSpline
 62
7
  6
CONTINUOUS
 70
0
 71
3
 72
11
 73
7
 74
0
 42
0.0000001
 43
0.0000001
 44
0.0000000001
 40
0.0
 40
0.0
 40
0.0
 40
0.0
 40
0.2874630352
 40
0.5554895262
 40
0.7905797912
 40
1.0
 40
1.0
 40
1.0
 40
1.0
 10
143.1039303165
 20
135.729586508
 30
0.0
 10
143.1039303165
 20
135.7027883568
 30
0.0
 10
143.0967970949
 20
135.6507036599
 30
0.0
 10
143.0660841452
 20
135.5824330891
 30
0.0
 10
143.0180008158
 20
135.5338354465
 30
0.0
 10
142.9760797049
 20
135.5211621293
 30
0.0
 10
142.9565569426
 20
135.5211461166
 30
0.0
  0
SPLINE
  5
2E3
100
AcDbEntity
  8
0
100
AcDbSpline
 62
7
  6
CONTINUOUS
 70
0
 71
3
 72
9
 73
5
 74
0
 42
0.0000001
 43
0.0000001
 44
0.0000000001
 40
0.0
 40
0.0
 40
0.0
 40
0.0
 40
0.4911661552
 40
1.0
 40
1.0
 40
1.0
 40
1.0
 10
86.5511973526
 20
135.5211461166
 30
0.0
 10
86.5002054886
 20
135.521177173
 30
0.0
 10
86.3927671484
 20
135.5681316775
 30
0.0
 10
86.3527281026
 20
135.6767604109
 30
0.0
 10
86.3527281026
 20
135.729586508
 30
0.0
  0
SPLINE
  5
2E4
100
AcDbEntity
  8
0
100
AcDbSpline
 62
7
  6
CONTINUOUS
 70
0
 71
3
 72
9
 73
5
 74
0
 42
0.0000001
 43
0.0000001
 44
0.0000000001
 40
0.0
 40
0.0
 40
0.0
 40
0.0
 40
0.4911661552
 40
1.0
 40
1.0
 40
1.0
 40
1.0
 10
77.5848502113
 20
135.5211461166
 30
0.0
 10
77.6358420752
 20
135.521177173
 30
0.0
 10
77.7432804155
 20
135.5681316775
 30
0.0
 10
77.7833194612
 20
135.6767604109
 30
0.0
 10
77.7833194612
 20
135.729586508
 30
0.0
  0
SPLINE
  5
2E5
100
AcDbEntity
  8
0
100
AcDbSpline
 62
7
  6
CONTINUOUS
 70
0
 71
3
 72
8
 73
4
 74
0
 42
0.0000001
 43
0.0000001
 44
0.0000000001
 40
0.0
 40
0.0
 40
0.0
 40
0.0
 40
1.0
 40
1.0
 40
1.0
 40
1.0
 10
86.3527281026
 20
135.729586508
 30
0.0
 10
86.3527281026
 20
135.7673772241
 30
0.0
 10
86.3631511064
 20
135.8064529477
 30
0.0
 10
86.3822968628
 20
135.8390348174
 30
0.0
  0
SPLINE
  5
2E6
100
AcDbEntity
  8
0
100
AcDbSpline
 62
7
  6
CONTINUOUS
 70
0
 71
3
 72
8
 73
4
 74
0
 42
0.0000001
 43
0.0000001
 44
0.0000000001
 40
0.0
 40
0.0
 40
0.0
 40
0.0
 40
1.0
 40
1.0
 40
1.0
 40
1.0
 10
77.7833194612
 20
135.729586508
 30
0.0
 10
77.7833194612
 20
135.7673772241
 30
0.0
 10
77.7728964575
 20
135.8064529477
 30
0.0
 10
77.7537507011
 20
135.8390348174
 30
0.0
  0
SPLINE
  5
2E7
100
AcDbEntity
  8
0
100
AcDbSpline
 62
7
  6
CONTINUOUS
 70
0
 71
3
 72
9
 73
5
 74
0
 42
0.0000001
 43
0.0000001
 44
0.0000000001
 40
0.0
 40
0.0
 40
0.0
 40
0.0
 40
0.2565304723
 40
1.0
 40
1.0
 40
1.0
 40
1.0
 10
135.4572775847
 20
135.729586508
 30
0.0
 10
135.4572775847
 20
135.7391685249
 30
0.0
 10
135.4554636084
 20
135.7764809364
 30
0.0
 10
135.4464273258
 20
135.8135819645
 30
0.0
 10
135.4353212971
 20
135.8390348174
 30
0.0
  0
SPLINE
  5
2E8
100
AcDbEntity
  8
0
100
AcDbSpline
 62
7
  6
CONTINUOUS
 70
0
 71
3
 72
11
 73
7
 74
0
 42
0.0000001
 43
0.0000001
 44
0.0000000001
 40
0.0
 40
0.0
 40
0.0
 40
0.0
 40
0.2874630352
 40
0.5554895262
 40
0.7905797913
 40
1.0
 40
1.0
 40
1.0
 40
1.0
 10
28.6787699788
 20
135.729586508
 30
0.0
 10
28.6787699788
 20
135.7027883568
 30
0.0
 10
28.6859032004
 20
135.6507036598
 30
0.0
 10
28.7166161501
 20
135.5824330891
 30
0.0
 10
28.7646994795
 20
135.5338354465
 30
0.0
 10
28.8066205904
 20
135.5211621293
 30
0.0
 10
28.8261433528
 20
135.5211461166
 30
0.0
  0
SPLINE
  5
2E9
100
AcDbEntity
  8
0
100
AcDbSpline
 62
7
  6
CONTINUOUS
 70
0
 71
3
 72
9
 73
5
 74
0
 42
0.0000001
 43
0.0000001
 44
0.0000000001
 40
0.0
 40
0.0
 40
0.0
 40
0.0
 40
0.2425148437
 40
1.0
 40
1.0
 40
1.0
 40
1.0
 10
28.7007262665
 20
135.8390348174
 30
0.0
 10
28.6971030183
 20
135.8307310388
 30
0.0
 10
28.6841376319
 20
135.7956466821
 30
0.0
 10
28.6787699788
 20
135.7578845405
 30
0.0
 10
28.6787699788
 20
135.729586508
 30
0.0
  0
SPLINE
  5
2EA
100
AcDbEntity
  8
0
100
AcDbSpline
 62
7
  6
CONTINUOUS
 70
0
 71
3
 72
9
 73
5
 74
0
 42
0.0000001
 43
0.0000001
 44
0.0000000001
 40
0.0
 40
0.0
 40
0.0
 40
0.0
 40
0.2565304723
 40
1.0
 40
1.0
 40
1.0
 40
1.0
 10
21.0321172471
 20
135.729586508
 30
0.0
 10
21.0321172471
 20
135.7391685249
 30
0.0
 10
21.0339312235
 20
135.7764809364
 30
0.0
 10
21.0429675061
 20
135.8135819645
 30
0.0
 10
21.0540735348
 20
135.8390348174
 30
0.0
  0
SPLINE
  5
2EB
100
AcDbEntity
  8
0
100
AcDbSpline
 62
7
  6
CONTINUOUS
 70
0
 71
3
 72
11
 73
7
 74
0
 42
0.0000001
 43
0.0000001
 44
0.0000000001
 40
0.0
 40
0.0
 40
0.0
 40
0.0
 40
0.2094202087
 40
0.4445104738
 40
0.7125369648
 40
1.0
 40
1.0
 40
1.0
 40
1.0
 10
21.179490621
 20
135.5211461166
 30
0.0
 10
21.1599678587
 20
135.5211621293
 30
0.0
 10
21.1180467478
 20
135.5338354465
 30
0.0
 10
21.0699634184
 20
135.5824330891
 30
0.0
 10
21.0392504687
 20
135.6507036599
 30
0.0
 10
21.0321172471
 20
135.7027883568
 30
0.0
 10
21.0321172471
 20
135.729586508
 30
0.0
  0
LINE
  5
2EC
100
AcDbEntity
  8
0
100
AcDbLine
 62
7
  6
CONTINUOUS
 10
120.3198495693
 20
86.6056678619
 11
120.3197941789
 21
89.5490647194
  0
SPLINE
  5
2ED
100
AcDbEntity
  8
0
100
AcDbSpline
 62
7
  6
CONTINUOUS
 70
0
 71
3
 72
13
 73
9
 74
0
 42
0.0000001
 43
0.0000001
 44
0.0000000001
 40
0.0
 40
0.0
 40
0.0
 40
0.0
 40
0.1579672053
 40
0.4117057347
 40
0.665444264
 40
0.9191827934
 40
0.9604695676
 40
1.0
 40
1.0
 40
1.0
 40
1.0
 10
121.0446126414
 20
113.2462345777
 30
0.0
 10
120.9685574749
 20
112.0124863927
 30
0.0
 10
120.7826663724
 20
108.7956553064
 30
0.0
 10
120.5331319025
 20
103.5879786169
 30
0.0
 10
120.3572522193
 20
97.6183284265
 30
0.0
 10
120.3234546516
 20
93.3287789584
 30
0.0
 10
120.32014816
 20
90.6963401108
 30
0.0
 10
120.3198703695
 20
89.9488803881
 30
0.0
 10
120.3197990041
 20
89.549024442
 30
0.0
  0
SPLINE
  5
2EE
100
AcDbEntity
  8
0
100
AcDbSpline
 62
7
  6
CONTINUOUS
 70
0
 71
3
 72
10
 73
6
 74
0
 42
0.0000001
 43
0.0000001
 44
0.0000000001
 40
0.0
 40
0.0
 40
0.0
 40
0.0
 40
0.1650279681
 40
0.3373883528
 40
1.0
 40
1.0
 40
1.0
 40
1.0
 10
120.3197990653
 20
89.5490258634
 30
0.0
 10
120.3198704309
 20
89.9488812546
 30
0.0
 10
120.3201482215
 20
90.6963404794
 30
0.0
 10
120.3225156258
 20
92.5811319535
 30
0.0
 10
120.3315031296
 20
94.1478684721
 30
0.0
 10
120.3455509258
 20
95.3903276012
 30
0.0
  0
SPLINE
  5
2EF
100
AcDbEntity
  8
0
100
AcDbSpline
 62
7
  6
CONTINUOUS
 70
0
 71
3
 72
10
 73
6
 74
0
 42
0.0000001
 43
0.0000001
 44
0.0000000001
 40
0.0
 40
0.0
 40
0.0
 40
0.0
 40
0.1266458212
 40
0.8437246731
 40
1.0
 40
1.0
 40
1.0
 40
1.0
 10
120.3610360774
 20
96.569181556
 30
0.0
 10
120.366308238
 20
96.9199283685
 30
0.0
 10
120.405524598
 20
99.2567715094
 30
0.0
 10
120.4872820796
 20
102.0317569819
 30
0.0
 10
120.5857734768
 20
104.4522167267
 30
0.0
 10
120.6041993971
 20
104.885228995
 30
0.0
  0
SPLINE
  5
2F0
100
AcDbEntity
  8
0
100
AcDbSpline
 62
7
  6
CONTINUOUS
 70
0
 71
3
 72
9
 73
5
 74
0
 42
0.0000001
 43
0.0000001
 44
0.0000000001
 40
0.0
 40
0.0
 40
0.0
 40
0.0
 40
0.4697252019
 40
1.0
 40
1.0
 40
1.0
 40
1.0
 10
120.6653014805
 20
106.2593191334
 30
0.0
 10
120.7160397724
 20
107.3545538871
 30
0.0
 10
120.8340527648
 20
109.6848961148
 30
0.0
 10
120.968561584
 20
112.0125564442
 30
0.0
 10
121.0446191772
 20
113.246339611
 30
0.0
  0
SPLINE
  5
2F1
100
AcDbEntity
  8
0
100
AcDbSpline
 62
7
  6
CONTINUOUS
 70
0
 71
3
 72
11
 73
7
 74
0
 42
0.0000001
 43
0.0000001
 44
0.0000000001
 40
0.0
 40
0.0
 40
0.0
 40
0.0
 40
0.2716245384
 40
0.5340217479
 40
0.7792967438
 40
1.0
 40
1.0
 40
1.0
 40
1.0
 10
79.5273659807
 20
89.5157001454
 30
0.0
 10
79.4818857735
 20
89.4802112787
 30
0.0
 10
79.3921179575
 20
89.4109026789
 30
0.0
 10
79.2611827395
 20
89.3096204211
 30
0.0
 10
79.1371093364
 20
89.2173470503
 30
0.0
 10
79.0603291484
 20
89.1545259527
 30
0.0
 10
79.0210784146
 20
89.1289039819
 30
0.0
  0
SPLINE
  5
2F2
100
AcDbEntity
  8
0
100
AcDbSpline
 62
7
  6
CONTINUOUS
 70
0
 71
3
 72
11
 73
7
 74
0
 42
0.0000001
 43
0.0000001
 44
0.0000000001
 40
0.0
 40
0.0
 40
0.0
 40
0.0
 40
0.3220895484
 40
0.5991976687
 40
0.8264520373
 40
1.0
 40
1.0
 40
1.0
 40
1.0
 10
79.0210784146
 20
89.1289039819
 30
0.0
 10
78.9955124454
 20
89.1110606444
 30
0.0
 10
78.949427413
 20
89.0758136326
 30
0.0
 10
78.8847754769
 20
89.028676381
 30
0.0
 10
78.8312800511
 20
88.9907433718
 30
0.0
 10
78.7997748989
 20
88.9679683163
 30
0.0
 10
78.7852839327
 20
88.9594706885
 30
0.0
  0
SPLINE
  5
2F3
100
AcDbEntity
  8
0
100
AcDbSpline
 62
7
  6
CONTINUOUS
 70
0
 71
3
 72
10
 73
6
 74
0
 42
0.0000001
 43
0.0000001
 44
0.0000000001
 40
0.0
 40
0.0
 40
0.0
 40
0.0
 40
0.1921521121
 40
0.4271331062
 40
1.0
 40
1.0
 40
1.0
 40
1.0
 10
78.7852839813
 20
88.9594706715
 30
0.0
 10
78.8311177127
 20
88.942680577
 30
0.0
 10
78.9401169118
 20
88.9252903908
 30
0.0
 10
79.1945159065
 20
88.9419174696
 30
0.0
 10
79.3933489633
 20
89.0051348757
 30
0.0
 10
79.5273659351
 20
89.0618532804
 30
0.0
  0
LINE
  5
2F4
100
AcDbEntity
  8
0
100
AcDbLine
 62
7
  6
CONTINUOUS
 10
78.1386941148
 20
90.2399813244
 11
77.2362566073
 21
90.2399807322
  0
SPLINE
  5
2F5
100
AcDbEntity
  8
0
100
AcDbSpline
 62
7
  6
CONTINUOUS
 70
0
 71
3
 72
18
 73
14
 74
0
 42
0.0000001
 43
0.0000001
 44
0.0000000001
 40
0.0
 40
0.0
 40
0.0
 40
0.0
 40
0.1658759382
 40
0.3310476869
 40
0.4938586239
 40
0.5738563447
 40
0.6501229505
 40
0.7785376209
 40
0.8304293
 40
0.8767598987
 40
0.9182114404
 40
0.9530434872
 40
1.0
 40
1.0
 40
1.0
 40
1.0
 10
77.2362566073
 20
90.2399807324
 30
0.0
 10
77.3112385352
 20
90.202407484
 30
0.0
 10
77.4597683106
 20
90.1251677766
 30
0.0
 10
77.6783308969
 20
90.0044173131
 30
0.0
 10
77.8540413003
 20
89.8958447541
 30
0.0
 10
77.9818023606
 20
89.7966855806
 30
0.0
 10
78.0847967783
 20
89.6964433895
 30
0.0
 10
78.145005406
 20
89.5703818444
 30
0.0
 10
78.1328511328
 20
89.4540729338
 30
0.0
 10
78.1031141817
 20
89.3890374597
 30
0.0
 10
78.0637973816
 20
89.3401155558
 30
0.0
 10
78.0187294472
 20
89.2987627743
 30
0.0
 10
77.9807181336
 20
89.2734784406
 30
0.0
 10
77.9569762695
 20
89.2734784406
 30
0.0
  0
SPLINE
  5
2F6
100
AcDbEntity
  8
0
100
AcDbSpline
 62
7
  6
CONTINUOUS
 70
0
 71
3
 72
8
 73
4
 74
0
 42
0.0000001
 43
0.0000001
 44
0.0000000001
 40
0.0
 40
0.0
 40
0.0
 40
0.0
 40
1.0
 40
1.0
 40
1.0
 40
1.0
 10
77.9990507578
 20
89.2725278343
 30
0.0
 10
78.1114630222
 20
89.2678419117
 30
0.0
 10
78.22431712
 20
89.2442815738
 30
0.0
 10
78.3297681131
 20
89.2050570519
 30
0.0
  0
SPLINE
  5
2F7
100
AcDbEntity
  8
0
100
AcDbSpline
 62
7
  6
CONTINUOUS
 70
0
 71
3
 72
11
 73
7
 74
0
 42
0.0000001
 43
0.0000001
 44
0.0000000001
 40
0.0
 40
0.0
 40
0.0
 40
0.0
 40
0.2850010573
 40
0.5590588988
 40
0.8064737696
 40
1.0
 40
1.0
 40
1.0
 40
1.0
 10
78.3297681131
 20
89.2050570519
 30
0.0
 10
78.3759177068
 20
89.1878908243
 30
0.0
 10
78.4643247495
 20
89.1483857748
 30
0.0
 10
78.5851678759
 20
89.0784638077
 30
0.0
 10
78.6883866061
 20
89.0114624038
 30
0.0
 10
78.7536863173
 20
88.9704064172
 30
0.0
 10
78.785281829
 20
88.9594692071
 30
0.0
  0
SPLINE
  5
2F8
100
AcDbEntity
  8
0
100
AcDbSpline
 62
7
  6
CONTINUOUS
 70
0
 71
3
 72
9
 73
5
 74
0
 42
0.0000001
 43
0.0000001
 44
0.0000000001
 40
0.0
 40
0.0
 40
0.0
 40
0.0
 40
0.4997648351
 40
1.0
 40
1.0
 40
1.0
 40
1.0
 10
77.9569768785
 20
89.2734784406
 30
0.0
 10
78.0701240557
 20
89.2734783746
 30
0.0
 10
78.2982385551
 20
89.2340791806
 30
0.0
 10
78.4994236285
 20
89.1196423797
 30
0.0
 10
78.586982997
 20
89.04781099
 30
0.0
  0
SPLINE
  5
2F9
100
AcDbEntity
  8
0
100
AcDbSpline
 62
7
  6
CONTINUOUS
 70
0
 71
3
 72
9
 73
5
 74
0
 42
0.0000001
 43
0.0000001
 44
0.0000000001
 40
0.0
 40
0.0
 40
0.0
 40
0.0
 40
0.588681405
 40
1.0
 40
1.0
 40
1.0
 40
1.0
 10
78.7852914513
 20
88.9594640469
 30
0.0
 10
78.7892115032
 20
88.9262500166
 30
0.0
 10
78.7956548627
 20
88.8698837819
 30
0.0
 10
78.8032856763
 20
88.8133853046
 30
0.0
 10
78.8091006998
 20
88.7907522781
 30
0.0
  0
SPLINE
  5
2FA
100
AcDbEntity
  8
0
100
AcDbSpline
 62
7
  6
CONTINUOUS
 70
0
 71
3
 72
9
 73
5
 74
0
 42
0.0000001
 43
0.0000001
 44
0.0000000001
 40
0.0
 40
0.0
 40
0.0
 40
0.0
 40
0.232133226
 40
1.0
 40
1.0
 40
1.0
 40
1.0
 10
78.8090946681
 20
88.7907630692
 30
0.0
 10
78.8097628631
 20
88.7881634741
 30
0.0
 10
78.8131038927
 20
88.7770831333
 30
0.0
 10
78.8180664722
 20
88.7665409583
 30
0.0
 10
78.8223755058
 20
88.7587780577
 30
0.0
  0
SPLINE
  5
2FB
100
AcDbEntity
  8
0
100
AcDbSpline
 62
7
  6
CONTINUOUS
 70
0
 71
3
 72
13
 73
9
 74
0
 42
0.0000001
 43
0.0000001
 44
0.0000000001
 40
0.0
 40
0.0
 40
0.0
 40
0.0
 40
0.331754073
 40
0.6142850152
 40
0.7318978942
 40
0.8333309362
 40
0.9209195955
 40
1.0
 40
1.0
 40
1.0
 40
1.0
 10
85.230838012
 20
78.7861338488
 30
0.0
 10
85.1356888085
 20
78.7458649861
 30
0.0
 10
84.9539709252
 20
78.6837676295
 30
0.0
 10
84.7263330059
 20
78.6490919994
 30
0.0
 10
84.5698351078
 20
78.6597699663
 30
0.0
 10
84.4767105613
 20
78.6842303046
 30
0.0
 10
84.4030939254
 20
78.7261174915
 30
0.0
 10
84.3684429747
 20
78.7666438744
 30
0.0
 10
84.3564908088
 20
78.788177618
 30
0.0
  0
SPLINE
  5
2FC
100
AcDbEntity
  8
0
100
AcDbSpline
 62
7
  6
CONTINUOUS
 70
0
 71
3
 72
13
 73
9
 74
0
 42
0.0000001
 43
0.0000001
 44
0.0000000001
 40
0.0
 40
0.0
 40
0.0
 40
0.0
 40
0.3204025639
 40
0.6046328083
 40
0.7251754387
 40
0.8293884301
 40
0.9192164294
 40
1.0
 40
1.0
 40
1.0
 40
1.0
 10
119.3197984549
 20
89.0618514963
 30
0.0
 10
119.4479348211
 20
89.0618811878
 30
0.0
 10
119.6901670166
 20
89.084077367
 30
0.0
 10
119.9710799979
 20
89.1687712528
 30
0.0
 10
120.1482575948
 20
89.2708914416
 30
0.0
 10
120.2435996723
 20
89.3546700009
 30
0.0
 10
120.3048121441
 20
89.4480453448
 30
0.0
 10
120.319744434
 20
89.516757546
 30
0.0
 10
120.3197941789
 20
89.5490647194
 30
0.0
  0
SPLINE
  5
2FD
100
AcDbEntity
  8
0
100
AcDbSpline
 62
7
  6
CONTINUOUS
 70
0
 71
3
 72
16
 73
12
 74
0
 42
0.0000001
 43
0.0000001
 44
0.0000000001
 40
0.0
 40
0.0
 40
0.0
 40
0.0
 40
0.0071689908
 40
0.0219077658
 40
0.078863445
 40
0.1713312169
 40
0.2955500005
 40
0.4467348416
 40
0.6190309546
 40
0.8059182745
 40
1.0
 40
1.0
 40
1.0
 40
1.0
 10
120.3197985433
 20
89.5491536624
 30
0.0
 10
120.3197959555
 20
89.5467563539
 30
0.0
 10
120.3122945238
 20
89.5415463786
 30
0.0
 10
120.2870005137
 20
89.5398297785
 30
0.0
 10
120.2312782967
 20
89.535475755
 30
0.0
 10
120.1404940323
 20
89.5300239169
 30
0.0
 10
120.0173540156
 20
89.5246016407
 30
0.0
 10
119.8677618103
 20
89.5211527886
 30
0.0
 10
119.6970925601
 20
89.5182212152
 30
0.0
 10
119.5120967685
 20
89.5163439825
 30
0.0
 10
119.3846992502
 20
89.5158610101
 30
0.0
 10
119.3197985485
 20
89.5156961494
 30
0.0
  0
SPLINE
  5
2FE
100
AcDbEntity
  8
0
100
AcDbSpline
 62
7
  6
CONTINUOUS
 70
0
 71
3
 72
13
 73
9
 74
0
 42
0.0000001
 43
0.0000001
 44
0.0000000001
 40
0.0
 40
0.0
 40
0.0
 40
0.0
 40
0.3193650161
 40
0.6024534396
 40
0.7222706578
 40
0.8257029257
 40
0.9162003551
 40
1.0
 40
1.0
 40
1.0
 40
1.0
 10
119.3198679998
 20
86.1096999582
 30
0.0
 10
119.4484789766
 20
86.1097547801
 30
0.0
 10
119.6915291867
 20
86.1320594895
 30
0.0
 10
119.9731507952
 20
86.2176298187
 30
0.0
 10
120.1503311523
 20
86.3203175739
 30
0.0
 10
120.2461480071
 20
86.4045332176
 30
0.0
 10
120.3066426696
 20
86.5009573109
 30
0.0
 10
120.3201974546
 20
86.5719228305
 30
0.0
 10
120.3198495693
 20
86.6056678619
 30
0.0
  0
SPLINE
  5
2FF
100
AcDbEntity
  8
0
100
AcDbSpline
 62
7
  6
CONTINUOUS
 70
0
 71
3
 72
18
 73
14
 74
0
 42
0.0000001
 43
0.0000001
 44
0.0000000001
 40
0.0
 40
0.0
 40
0.0
 40
0.0
 40
0.1945832525
 40
0.3820316997
 40
0.5545567589
 40
0.7057764083
 40
0.8299918619
 40
0.8803894545
 40
0.9223619494
 40
0.9554963743
 40
0.9794728371
 40
0.9941971398
 40
1.0
 40
1.0
 40
1.0
 40
1.0
 10
28.0489897731
 20
90.2404377258
 30
0.0
 10
27.9841037324
 20
90.238265346
 30
0.0
 10
27.8566961596
 20
90.2344092947
 30
0.0
 10
27.6717221268
 20
90.230028122
 30
0.0
 10
27.501175997
 20
90.2272546935
 30
0.0
 10
27.3517402335
 20
90.2261918063
 30
0.0
 10
27.2429649552
 20
90.2267104312
 30
0.0
 10
27.1708065978
 20
90.2281963114
 30
0.0
 10
27.1287567256
 20
90.2296412402
 30
0.0
 10
27.0962676916
 20
90.2314626286
 30
0.0
 10
27.0711800305
 20
90.2335927013
 30
0.0
 10
27.0586985464
 20
90.2358947348
 30
0.0
 10
27.0496165833
 20
90.2380449632
 30
0.0
 10
27.0495510494
 20
90.2399799689
 30
0.0
  0
SPLINE
  5
300
100
AcDbEntity
  8
0
100
AcDbSpline
 62
7
  6
CONTINUOUS
 70
0
 71
3
 72
9
 73
5
 74
0
 42
0.0000001
 43
0.0000001
 44
0.0000000001
 40
0.0
 40
0.0
 40
0.0
 40
0.0
 40
0.5023308839
 40
1.0
 40
1.0
 40
1.0
 40
1.0
 10
122.7340994498
 20
89.6949439445
 30
0.0
 10
122.8356975772
 20
93.4770299999
 30
0.0
 10
123.0437309541
 20
101.0059517583
 30
0.0
 10
123.2671082675
 20
108.5344302016
 30
0.0
 10
123.3779689483
 20
112.2811294083
 30
0.0
  0
SPLINE
  5
301
100
AcDbEntity
  8
0
100
AcDbSpline
 62
7
  6
CONTINUOUS
 70
0
 71
3
 72
18
 73
14
 74
0
 42
0.0000001
 43
0.0000001
 44
0.0000000001
 40
0.0
 40
0.0
 40
0.0
 40
0.0
 40
0.1947439048
 40
0.3819133221
 40
0.5543134023
 40
0.7055250953
 40
0.8296565509
 40
0.8801195877
 40
0.9221446566
 40
0.9552700797
 40
0.979280889
 40
0.9940773796
 40
1.0
 40
1.0
 40
1.0
 40
1.0
 10
120.1903743871
 20
115.5209906487
 30
0.0
 10
120.2551442164
 20
115.5166983259
 30
0.0
 10
120.3821942707
 20
115.508712393
 30
0.0
 10
120.5666687217
 20
115.4983976041
 30
0.0
 10
120.736735847
 20
115.4902362465
 30
0.0
 10
120.8858468595
 20
115.4844979098
 30
0.0
 10
120.9944686852
 20
115.4817031501
 30
0.0
 10
121.0665843604
 20
115.4810300677
 30
0.0
 10
121.1086430731
 20
115.4812554776
 30
0.0
 10
121.1411927125
 20
115.4821472639
 30
0.0
 10
121.1662728838
 20
115.4836699308
 30
0.0
 10
121.1789736959
 20
115.4855983618
 30
0.0
 10
121.188049685
 20
115.4877147056
 30
0.0
 10
121.1881803875
 20
115.4896844977
 30
0.0
  0
SPLINE
  5
302
100
AcDbEntity
  8
0
100
AcDbSpline
 62
7
  6
CONTINUOUS
 70
0
 71
3
 72
18
 73
14
 74
0
 42
0.0000001
 43
0.0000001
 44
0.0000000001
 40
0.0
 40
0.0
 40
0.0
 40
0.0
 40
0.1945752232
 40
0.3819532105
 40
0.5543730213
 40
0.7055101934
 40
0.8297221122
 40
0.8801550026
 40
0.9221760639
 40
0.9553616129
 40
0.9793820772
 40
0.994144732
 40
1.0
 40
1.0
 40
1.0
 40
1.0
 10
120.0467383351
 20
113.2734782743
 30
0.0
 10
120.1114806065
 20
113.2695611914
 30
0.0
 10
120.2385964763
 20
113.2622871256
 30
0.0
 10
120.4231582003
 20
113.2529751
 30
0.0
 10
120.5933297748
 20
113.2456920579
 30
0.0
 10
120.7424870446
 20
113.2407068157
 30
0.0
 10
120.8511219346
 20
113.2383986027
 30
0.0
 10
120.9232581095
 20
113.2380290575
 30
0.0
 10
120.9653331656
 20
113.2384109244
 30
0.0
 10
120.9978881857
 20
113.2394130828
 30
0.0
 10
121.0230140686
 20
113.240963586
 30
0.0
 10
121.0356257484
 20
113.2429496391
 30
0.0
 10
121.0447252161
 20
113.2449713012
 30
0.0
 10
121.0448451778
 20
113.2469194349
 30
0.0
  0
SPLINE
  5
303
100
AcDbEntity
  8
0
100
AcDbSpline
 62
7
  6
CONTINUOUS
 70
0
 71
3
 72
11
 73
7
 74
0
 42
0.0000001
 43
0.0000001
 44
0.0000000001
 40
0.0
 40
0.0
 40
0.0
 40
0.0
 40
0.2498155604
 40
0.5001586523
 40
0.7499567052
 40
1.0
 40
1.0
 40
1.0
 40
1.0
 10
78.1386941148
 20
90.2399813244
 30
0.0
 10
78.2732914365
 20
90.2420766917
 30
0.0
 10
78.5440250299
 20
90.2024436237
 30
0.0
 10
78.9218035218
 20
90.0503132665
 30
0.0
 10
79.2556893198
 20
89.8165644646
 30
0.0
 10
79.4418745263
 20
89.6198398015
 30
0.0
 10
79.5273661572
 20
89.5157001648
 30
0.0
  0
SPLINE
  5
304
100
AcDbEntity
  8
0
100
AcDbSpline
 62
7
  6
CONTINUOUS
 70
0
 71
3
 72
11
 73
7
 74
0
 42
0.0000001
 43
0.0000001
 44
0.0000000001
 40
0.0
 40
0.0
 40
0.0
 40
0.0
 40
0.2522506099
 40
0.5016472411
 40
0.7509028031
 40
1.0
 40
1.0
 40
1.0
 40
1.0
 10
119.3208491837
 20
89.5156960621
 30
0.0
 10
119.3211860435
 20
91.5146352701
 30
0.0
 10
119.3277039554
 20
95.4900277907
 30
0.0
 10
119.4575329576
 20
101.4395509129
 30
0.0
 10
119.7044950155
 20
107.3601674168
 30
0.0
 10
119.9263755514
 20
111.3031953361
 30
0.0
 10
120.0476927127
 20
113.2734140623
 30
0.0
  0
SPLINE
  5
305
100
AcDbEntity
  8
0
100
AcDbSpline
 62
7
  6
CONTINUOUS
 70
0
 71
3
 72
18
 73
14
 74
0
 42
0.0000001
 43
0.0000001
 44
0.0000000001
 40
0.0
 40
0.0
 40
0.0
 40
0.0
 40
0.1945753741
 40
0.3820162488
 40
0.5545344091
 40
0.705748198
 40
0.829959551
 40
0.8803560771
 40
0.9223282732
 40
0.9554634013
 40
0.9794424227
 40
0.994173741
 40
1.0
 40
1.0
 40
1.0
 40
1.0
 10
34.7499080804
 20
90.2399807323
 30
0.0
 10
34.6850201031
 20
90.2378380227
 30
0.0
 10
34.5576087186
 20
90.234045914
 30
0.0
 10
34.3726293083
 20
90.2297744111
 30
0.0
 10
34.2020787207
 20
90.2271197867
 30
0.0
 10
34.0526391395
 20
90.2261795679
 30
0.0
 10
33.9438627729
 20
90.2268063962
 30
0.0
 10
33.8717027634
 20
90.2283781957
 30
0.0
 10
33.82965562
 20
90.2298845265
 30
0.0
 10
33.79715943
 20
90.2317543334
 30
0.0
 10
33.7720882755
 20
90.2339530581
 30
0.0
 10
33.7595726042
 20
90.2362709902
 30
0.0
 10
33.7505183073
 20
90.2384947522
 30
0.0
 10
33.7504540734
 20
90.24043772
 30
0.0
  0
SPLINE
  5
306
100
AcDbEntity
  8
0
100
AcDbSpline
 62
7
  6
CONTINUOUS
 70
0
 71
3
 72
18
 73
14
 74
0
 42
0.0000001
 43
0.0000001
 44
0.0000000001
 40
0.0
 40
0.0
 40
0.0
 40
0.0
 40
0.1945391201
 40
0.381945676
 40
0.5544334967
 40
0.705623489
 40
0.8298203809
 40
0.8802144102
 40
0.9221881569
 40
0.9553301807
 40
0.9793241698
 40
0.994086313
 40
1.0
 40
1.0
 40
1.0
 40
1.0
 10
33.9884490025
 20
113.2734784376
 30
0.0
 10
33.9235613657
 20
113.2713233685
 30
0.0
 10
33.7961497355
 20
113.2675256861
 30
0.0
 10
33.6111679348
 20
113.263303656
 30
0.0
 10
33.440613443
 20
113.2607561248
 30
0.0
 10
33.291166481
 20
113.2599730809
 30
0.0
 10
33.1823868319
 20
113.2607794262
 30
0.0
 10
33.1102176425
 20
113.2625199368
 30
0.0
 10
33.0681751835
 20
113.2641626656
 30
0.0
 10
33.0356464077
 20
113.2661421542
 30
0.0
 10
33.0106242526
 20
113.2685277328
 30
0.0
 10
32.9979783506
 20
113.27088271
 30
0.0
 10
32.9890146904
 20
113.2733397188
 30
0.0
 10
32.9889494806
 20
113.2753122121
 30
0.0
  0
SPLINE
  5
307
100
AcDbEntity
  8
0
100
AcDbSpline
 62
7
  6
CONTINUOUS
 70
0
 71
3
 72
10
 73
6
 74
0
 42
0.0000001
 43
0.0000001
 44
0.0000000001
 40
0.0
 40
0.0
 40
0.0
 40
0.0
 40
0.2504721891
 40
0.5010332459
 40
1.0
 40
1.0
 40
1.0
 40
1.0
 10
124.2680323294
 20
114.0263804314
 30
0.0
 10
124.1232602495
 20
113.9386438713
 30
0.0
 10
123.864909171
 20
113.708439194
 30
0.0
 10
123.5035211328
 20
113.1314283027
 30
0.0
 10
123.3875115585
 20
112.6182693034
 30
0.0
 10
123.3779314788
 20
112.2811764369
 30
0.0
  0
SPLINE
  5
308
100
AcDbEntity
  8
0
100
AcDbSpline
 62
7
  6
CONTINUOUS
 70
0
 71
3
 72
18
 73
14
 74
0
 42
0.0000001
 43
0.0000001
 44
0.0000000001
 40
0.0
 40
0.0
 40
0.0
 40
0.0
 40
0.0054590125
 40
0.0199069312
 40
0.0435172312
 40
0.0761724262
 40
0.1176658326
 40
0.1675678171
 40
0.2906468939
 40
0.4411866737
 40
0.6137114572
 40
0.8022369704
 40
1.0
 40
1.0
 40
1.0
 40
1.0
 10
124.6870641203
 20
113.1814510617
 30
0.0
 10
124.6855042394
 20
113.1807312197
 30
0.0
 10
124.6805147911
 20
113.1880267151
 30
0.0
 10
124.6736294741
 20
113.1971102773
 30
0.0
 10
124.6618920733
 20
113.2175423188
 30
0.0
 10
124.6471467793
 20
113.2438954941
 30
0.0
 10
124.6287389101
 20
113.2785700579
 30
0.0
 10
124.5977446519
 20
113.3384163228
 30
0.0
 10
124.5520926201
 20
113.4294952717
 30
0.0
 10
124.490413361
 20
113.5555964623
 30
0.0
 10
124.4207336969
 20
113.7007463875
 30
0.0
 10
124.3455786812
 20
113.859736173
 30
0.0
 10
124.2941968671
 20
113.9699109879
 30
0.0
 10
124.2680322353
 20
114.0263803879
 30
0.0
  0
SPLINE
  5
309
100
AcDbEntity
  8
0
100
AcDbSpline
 62
7
  6
CONTINUOUS
 70
0
 71
3
 72
16
 73
12
 74
0
 42
0.0000001
 43
0.0000001
 44
0.0000000001
 40
0.0
 40
0.0
 40
0.0
 40
0.0
 40
0.0073822978
 40
0.0221697304
 40
0.0767432332
 40
0.1640758827
 40
0.2825227824
 40
0.429789226
 40
0.6016256333
 40
0.7932823302
 40
1.0
 40
1.0
 40
1.0
 40
1.0
 10
124.1066589622
 20
112.3071030206
 30
0.0
 10
124.1066009811
 20
112.3053018974
 30
0.0
 10
124.1013884495
 20
112.3014117205
 30
0.0
 10
124.0842119612
 20
112.296468871
 30
0.0
 10
124.0454526707
 20
112.2905949599
 30
0.0
 10
123.9825652777
 20
112.2857060784
 30
0.0
 10
123.8962602465
 20
112.2816958539
 30
0.0
 10
123.7895503465
 20
112.2792636969
 30
0.0
 10
123.6648459777
 20
112.2782766264
 30
0.0
 10
123.5256614371
 20
112.2788470897
 30
0.0
 10
123.4284222504
 20
112.2802281459
 30
0.0
 10
123.3779703254
 20
112.2811759512
 30
0.0
  0
SPLINE
  5
30A
100
AcDbEntity
  8
0
100
AcDbSpline
 62
7
  6
CONTINUOUS
 70
0
 71
3
 72
18
 73
14
 74
0
 42
0.0000001
 43
0.0000001
 44
0.0000000001
 40
0.0
 40
0.0
 40
0.0
 40
0.0
 40
0.0047832603
 40
0.0182087276
 40
0.0402404915
 40
0.0707102421
 40
0.1094341993
 40
0.1562243399
 40
0.2732435206
 40
0.4198402017
 40
0.592467182
 40
0.7871716592
 40
1.0
 40
1.0
 40
1.0
 40
1.0
 10
123.3448716027
 20
89.6616028546
 30
0.0
 10
123.3449047525
 20
89.6625780558
 30
0.0
 10
123.3393318039
 20
89.6627577277
 30
0.0
 10
123.3330068629
 20
89.6645251392
 30
0.0
 10
123.3186214359
 20
89.6655631862
 30
0.0
 10
123.3005157345
 20
89.6672889583
 30
0.0
 10
123.2767521887
 20
89.6689683948
 30
0.0
 10
123.2356035084
 20
89.6717154889
 30
0.0
 10
123.1723353817
 20
89.6753292366
 30
0.0
 10
123.0834806642
 20
89.6798812127
 30
0.0
 10
122.9787484592
 20
89.6847762907
 30
0.0
 10
122.8605122125
 20
89.6899161964
 30
0.0
 10
122.7774453817
 20
89.6932978193
 30
0.0
 10
122.7340631939
 20
89.695012618
 30
0.0
  0
SPLINE
  5
30B
100
AcDbEntity
  8
0
100
AcDbSpline
 62
7
  6
CONTINUOUS
 70
0
 71
3
 72
14
 73
10
 74
0
 42
0.0000001
 43
0.0000001
 44
0.0000000001
 40
0.0
 40
0.0
 40
0.0
 40
0.0
 40
0.0582438468
 40
0.130744704
 40
0.2244247519
 40
0.3409447123
 40
0.4795423089
 40
0.6379621177
 40
1.0
 40
1.0
 40
1.0
 40
1.0
 10
123.0602338661
 20
88.9958914869
 30
0.0
 10
123.0712067547
 20
89.007107129
 30
0.0
 10
123.0875734062
 20
89.0404562991
 30
0.0
 10
123.0880778742
 20
89.1019471189
 30
0.0
 10
123.0702388213
 20
89.1764020283
 30
0.0
 10
123.0344553226
 20
89.2635615842
 30
0.0
 10
122.981474957
 20
89.3617270764
 30
0.0
 10
122.8850806875
 20
89.5109741115
 30
0.0
 10
122.79782368
 20
89.6212104024
 30
0.0
 10
122.7340614598
 20
89.6950122415
 30
0.0
  0
SPLINE
  5
30C
100
AcDbEntity
  8
0
100
AcDbSpline
 62
7
  6
CONTINUOUS
 70
0
 71
3
 72
18
 73
14
 74
0
 42
0.0000001
 43
0.0000001
 44
0.0000000001
 40
0.0
 40
0.0
 40
0.0
 40
0.0
 40
0.0058247411
 40
0.0205897762
 40
0.0445898161
 40
0.0777161546
 40
0.1197503044
 40
0.1702281942
 40
0.2943997566
 40
0.4456553104
 40
0.6180906357
 40
0.8052744835
 40
1.0
 40
1.0
 40
1.0
 40
1.0
 10
26.2013798526
 20
115.4546602076
 30
0.0
 10
26.2014476737
 20
115.4527180716
 30
0.0
 10
26.2105691026
 20
115.4505849459
 30
0.0
 10
26.2230729358
 20
115.4483036278
 30
0.0
 10
26.2481847427
 20
115.4462162048
 30
0.0
 10
26.2806994498
 20
115.4444380053
 30
0.0
 10
26.3227948192
 20
115.4430599215
 30
0.0
 10
26.3949841599
 20
115.4416820756
 30
0.0
 10
26.5037788498
 20
115.4413053411
 30
0.0
 10
26.6531729245
 20
115.4425876555
 30
0.0
 10
26.8236005374
 20
115.4455853079
 30
0.0
 10
27.0084884409
 20
115.4502232475
 30
0.0
 10
27.1358434591
 20
115.4542544025
 30
0.0
 10
27.2007706263
 20
115.4565192339
 30
0.0
  0
SPLINE
  5
30D
100
AcDbEntity
  8
0
100
AcDbSpline
 62
7
  6
CONTINUOUS
 70
0
 71
3
 72
18
 73
14
 74
0
 42
0.0000001
 43
0.0000001
 44
0.0000000001
 40
0.0
 40
0.0
 40
0.0
 40
0.0
 40
0.0058217254
 40
0.0205529287
 40
0.0445327635
 40
0.077668983
 40
0.1196422763
 40
0.1700397692
 40
0.2942524518
 40
0.445466758
 40
0.6179847735
 40
0.8054251151
 40
1.0
 40
1.0
 40
1.0
 40
1.0
 10
26.2775483978
 20
113.2734784608
 30
0.0
 10
26.2776161887
 20
113.2715371802
 30
0.0
 10
26.2866795934
 20
113.2693429666
 30
0.0
 10
26.2991908734
 20
113.2670375047
 30
0.0
 10
26.3242684524
 20
113.2648773402
 30
0.0
 10
26.3567652983
 20
113.2630432904
 30
0.0
 10
26.3988145218
 20
113.2615827442
 30
0.0
 10
26.4709749577
 20
113.2600830703
 30
0.0
 10
26.5797499783
 20
113.2595588409
 30
0.0
 10
26.7291850879
 20
113.2606313108
 30
0.0
 10
26.8997287115
 20
113.2634291001
 30
0.0
 10
27.0846990907
 20
113.2678540788
 30
0.0
 10
27.2121036167
 20
113.2717466803
 30
0.0
 10
27.2769880779
 20
113.2739369945
 30
0.0
  0
SPLINE
  5
30E
100
AcDbEntity
  8
0
100
AcDbSpline
 62
7
  6
CONTINUOUS
 70
0
 71
3
 72
9
 73
5
 74
0
 42
0.0000001
 43
0.0000001
 44
0.0000000001
 40
0.0
 40
0.0
 40
0.0
 40
0.0
 40
0.2619282283
 40
1.0
 40
1.0
 40
1.0
 40
1.0
 10
112.1494516874
 20
78.7861338541
 30
0.0
 10
112.167926856
 20
78.7723538952
 30
0.0
 10
112.2392467932
 20
78.7208193332
 30
0.0
 10
112.313752992
 20
78.6735804197
 30
0.0
 10
112.3706360484
 20
78.6422385144
 30
0.0
  0
SPLINE
  5
30F
100
AcDbEntity
  8
0
100
AcDbSpline
 62
7
  6
CONTINUOUS
 70
0
 71
3
 72
11
 73
7
 74
0
 42
0.0000001
 43
0.0000001
 44
0.0000000001
 40
0.0
 40
0.0
 40
0.0
 40
0.0
 40
0.3590739049
 40
0.495692159
 40
0.6497753523
 40
1.0
 40
1.0
 40
1.0
 40
1.0
 10
120.0346769502
 20
85.9033418303
 30
0.0
 10
119.9694900797
 20
85.8367887886
 30
0.0
 10
119.8048534981
 20
85.8561664707
 30
0.0
 10
119.6524347091
 20
85.9145324977
 30
0.0
 10
119.501690732
 20
85.9885499061
 30
0.0
 10
119.3927008963
 20
86.0609894743
 30
0.0
 10
119.3198673567
 20
86.1153164273
 30
0.0
  0
SPLINE
  5
310
100
AcDbEntity
  8
0
100
AcDbSpline
 62
7
  6
CONTINUOUS
 70
0
 71
3
 72
11
 73
7
 74
0
 42
0.0000001
 43
0.0000001
 44
0.0000000001
 40
0.0
 40
0.0
 40
0.0
 40
0.0
 40
0.3383345417
 40
0.6156327611
 40
0.830206926
 40
1.0
 40
1.0
 40
1.0
 40
1.0
 10
112.3706360484
 20
78.6422385144
 30
0.0
 10
112.4225701039
 20
78.6136233416
 30
0.0
 10
112.5201926096
 20
78.5666488446
 30
0.0
 10
112.6606989312
 20
78.5259220997
 30
0.0
 10
112.7787712369
 20
78.5219967318
 30
0.0
 10
112.8434486479
 20
78.5529067981
 30
0.0
 10
112.8642692139
 20
78.5741673947
 30
0.0
  0
SPLINE
  5
311
100
AcDbEntity
  8
0
100
AcDbSpline
 62
7
  6
CONTINUOUS
 70
0
 71
3
 72
24
 73
20
 74
0
 42
0.0000001
 43
0.0000001
 44
0.0000000001
 40
0.0
 40
0.0
 40
0.0
 40
0.0
 40
0.0012806417
 40
0.0049128581
 40
0.0109272542
 40
0.0193150097
 40
0.030062727
 40
0.0431542653
 40
0.0585557726
 40
0.0762221032
 40
0.1181673662
 40
0.1686155565
 40
0.227071356
 40
0.2929617107
 40
0.3656804633
 40
0.4444946232
 40
0.6173242424
 40
0.8049904328
 40
1.0
 40
1.0
 40
1.0
 40
1.0
 10
26.1338459198
 20
117.3885790042
 30
0.0
 10
26.1338011281
 20
117.3902004861
 30
0.0
 10
26.1432125816
 20
117.3902713209
 30
0.0
 10
26.1539121522
 20
117.3927064437
 30
0.0
 10
26.1784482519
 20
117.3935095645
 30
0.0
 10
26.2095133338
 20
117.3951276192
 30
0.0
 10
26.2506096787
 20
117.3963015397
 30
0.0
 10
26.3001928526
 20
117.3975260204
 30
0.0
 10
26.3586859101
 20
117.398605718
 30
0.0
 10
26.4536743393
 20
117.4000120564
 30
0.0
 10
26.5930824432
 20
117.4014037896
 30
0.0
 10
26.7841458535
 20
117.4025571407
 30
0.0
 10
27.0055462271
 20
117.4032430605
 30
0.0
 10
27.2551544011
 20
117.4034589376
 30
0.0
 10
27.5305495702
 20
117.4031960698
 30
0.0
 10
27.9413960169
 20
117.4021784112
 30
0.0
 10
28.4978345207
 20
117.3996531478
 30
0.0
 10
29.2014399511
 20
117.3950283427
 30
0.0
 10
29.686132114
 20
117.3909428024
 30
0.0
 10
29.9331259578
 20
117.388578944
 30
0.0
  0
SPLINE
  5
312
100
AcDbEntity
  8
0
100
AcDbSpline
 62
7
  6
CONTINUOUS
 70
0
 71
3
 72
18
 73
14
 74
0
 42
0.0000001
 43
0.0000001
 44
0.0000000001
 40
0.0
 40
0.0
 40
0.0
 40
0.0
 40
0.0059262983
 40
0.020728094
 40
0.0447464537
 40
0.0778815134
 40
0.1199179329
 40
0.1703932435
 40
0.2945483964
 40
0.4457762178
 40
0.6181757154
 40
0.8053183624
 40
1.0
 40
1.0
 40
1.0
 40
1.0
 10
32.9168414691
 20
115.4565189738
 30
0.0
 10
32.9169068137
 20
115.4545424042
 30
0.0
 10
32.9259190947
 20
115.4521177823
 30
0.0
 10
32.9385699826
 20
115.4497643641
 30
0.0
 10
32.9636213148
 20
115.4474027058
 30
0.0
 10
32.9961709706
 20
115.4454256913
 30
0.0
 10
33.0382588041
 20
115.443799154
 30
0.0
 10
33.1104568036
 20
115.4420722074
 30
0.0
 10
33.2192553735
 20
115.4412552753
 30
0.0
 10
33.3686615672
 20
115.4420395247
 30
0.0
 10
33.5391003575
 20
115.4445536499
 30
0.0
 10
33.7240006672
 20
115.4487455583
 30
0.0
 10
33.8513641571
 20
115.4525164362
 30
0.0
 10
33.9162954705
 20
115.4546603832
 30
0.0
  0
SPLINE
  5
313
100
AcDbEntity
  8
0
100
AcDbSpline
 62
7
  6
CONTINUOUS
 70
0
 71
3
 72
11
 73
7
 74
0
 42
0.0000001
 43
0.0000001
 44
0.0000000001
 40
0.0
 40
0.0
 40
0.0
 40
0.0
 40
0.2499631484
 40
0.4999052096
 40
0.749898642
 40
1.0
 40
1.0
 40
1.0
 40
1.0
 10
120.1903744145
 20
115.5209909224
 30
0.0
 10
120.2068749268
 20
115.7696744697
 30
0.0
 10
120.3352835346
 20
116.2657479213
 30
0.0
 10
120.7869890617
 20
116.8831036257
 30
0.0
 10
121.4330018235
 20
117.292879911
 30
0.0
 10
121.9366181705
 20
117.3885789419
 30
0.0
 10
122.1859863375
 20
117.3885789449
 30
0.0
  0
SPLINE
  5
314
100
AcDbEntity
  8
0
100
AcDbSpline
 62
7
  6
CONTINUOUS
 70
0
 71
3
 72
11
 73
7
 74
0
 42
0.0000001
 43
0.0000001
 44
0.0000000001
 40
0.0
 40
0.0
 40
0.0
 40
0.0
 40
0.2500858883
 40
0.5001307268
 40
0.750107477
 40
1.0
 40
1.0
 40
1.0
 40
1.0
 10
31.9173874566
 20
117.3886159459
 30
0.0
 10
32.1721625654
 20
117.3886159462
 30
0.0
 10
32.6870546552
 20
117.2886919095
 30
0.0
 10
33.3422636513
 20
116.860838536
 30
0.0
 10
33.7911743159
 20
116.2201340167
 30
0.0
 10
33.9079217209
 20
115.7091007366
 30
0.0
 10
33.9163332746
 20
115.4546616204
 30
0.0
  0
SPLINE
  5
315
100
AcDbEntity
  8
0
100
AcDbSpline
 62
7
  6
CONTINUOUS
 70
0
 71
3
 72
24
 73
20
 74
0
 42
0.0000001
 43
0.0000001
 44
0.0000000001
 40
0.0
 40
0.0
 40
0.0
 40
0.0
 40
0.1950110417
 40
0.3826775692
 40
0.5555051357
 40
0.6343174918
 40
0.7070341977
 40
0.7729225475
 40
0.8313767079
 40
0.8818239085
 40
0.9237690908
 40
0.9414357517
 40
0.9568378465
 40
0.9699302362
 40
0.9806790721
 40
0.9890681891
 40
0.9950841496
 40
0.9987180505
 40
1.0
 40
1.0
 40
1.0
 40
1.0
 10
124.2114077717
 20
117.3885791116
 30
0.0
 10
124.4584108007
 20
117.391340875
 30
0.0
 10
124.9431207437
 20
117.3961853519
 30
0.0
 10
125.6467502756
 20
117.4019211582
 30
0.0
 10
126.2032053394
 20
117.4053382849
 30
0.0
 10
126.6140611895
 20
117.4070138993
 30
0.0
 10
126.8894609235
 20
117.4077191415
 30
0.0
 10
127.1390734785
 20
117.4079059907
 30
0.0
 10
127.3604790566
 20
117.4075792528
 30
0.0
 10
127.5515495282
 20
117.406738008
 30
0.0
 10
127.6909652222
 20
117.4055761093
 30
0.0
 10
127.7859613743
 20
117.4043276783
 30
0.0
 10
127.8444609835
 20
117.4033460657
 30
0.0
 10
127.8940520548
 20
117.4022048045
 30
0.0
 10
127.9351554741
 20
117.4011022977
 30
0.0
 10
127.9662323757
 20
117.3995350701
 30
0.0
 10
127.9907714902
 20
117.3987837464
 30
0.0
 10
128.0014906516
 20
117.3963564217
 30
0.0
 10
128.0108988296
 20
117.3963207025
 30
0.0
 10
128.0108639803
 20
117.3946972443
 30
0.0
  0
LINE
  5
316
100
AcDbEntity
  8
0
100
AcDbLine
 62
7
  6
CONTINUOUS
 10
126.9575046276
 20
115.4896864517
 11
126.9205831629
 21
114.210168679
  0
SPLINE
  5
317
100
AcDbEntity
  8
0
100
AcDbSpline
 62
7
  6
CONTINUOUS
 70
0
 71
3
 72
16
 73
12
 74
0
 42
0.0000001
 43
0.0000001
 44
0.0000000001
 40
0.0
 40
0.0
 40
0.0
 40
0.0
 40
0.0080463929
 40
0.0237361435
 40
0.0815316501
 40
0.174056684
 40
0.2978498227
 40
0.4484524846
 40
0.620046267
 40
0.8062736344
 40
1.0
 40
1.0
 40
1.0
 40
1.0
 10
127.9570904009
 20
115.5271134178
 30
0.0
 10
127.9570121991
 20
115.5244176071
 30
0.0
 10
127.9497071347
 20
115.5184159808
 30
0.0
 10
127.9246050919
 20
115.5106116569
 30
0.0
 10
127.8684775233
 20
115.501510081
 30
0.0
 10
127.7774992134
 20
115.4939659713
 30
0.0
 10
127.6543966964
 20
115.4878826946
 30
0.0
 10
127.5050337505
 20
115.4843581008
 30
0.0
 10
127.3345895214
 20
115.4833217828
 30
0.0
 10
127.149735788
 20
115.4850004816
 30
0.0
 10
127.0224100738
 20
115.4878256395
 30
0.0
 10
126.9575046209
 20
115.4896862187
 30
0.0
  0
SPLINE
  5
318
100
AcDbEntity
  8
0
100
AcDbSpline
 62
7
  6
CONTINUOUS
 70
0
 71
3
 72
16
 73
12
 74
0
 42
0.0000001
 43
0.0000001
 44
0.0000000001
 40
0.0
 40
0.0
 40
0.0
 40
0.0
 40
0.007792953
 40
0.0232996687
 40
0.0809588757
 40
0.1733377904
 40
0.297223165
 40
0.4478745865
 40
0.6196677193
 40
0.8062842414
 40
1.0
 40
1.0
 40
1.0
 40
1.0
 10
127.9201656402
 20
114.244697245
 30
0.0
 10
127.9200905074
 20
114.2420878482
 30
0.0
 10
127.9126944683
 20
114.2363633644
 30
0.0
 10
127.8877324801
 20
114.2292134927
 30
0.0
 10
127.8316257856
 20
114.2207067665
 30
0.0
 10
127.7407844464
 20
114.2136138394
 30
0.0
 10
127.6177127963
 20
114.2079756277
 30
0.0
 10
127.4683260694
 20
114.2047391071
 30
0.0
 10
127.2977645365
 20
114.2038859228
 30
0.0
 10
127.1128263058
 20
114.2055278849
 30
0.0
 10
126.9854455092
 20
114.2082480041
 30
0.0
 10
126.9205798741
 20
114.2100541775
 30
0.0
  0
ENDSEC
  0
SECTION
  2
OBJECTS
  0
DICTIONARY
  5
C
100
AcDbDictionary
280
0
281
1
  3
ACAD_GROUP
350
D
  3
ACAD_MLINESTYLE
350
17
  3
ACAD_LAYOUT
350
1A
  3
ACAD_PLOTSETTINGS
350
19
  3
ACAD_PLOTSTYLENAME
350
E
  0
DICTIONARY
  5
D
102
{ACAD_REACTORS
330
C
102
}
100
AcDbDictionary
280
0
281
1
  0
ACDBDICTIONARYWDFLT
  5
E
102
{ACAD_REACTORS
330
C
102
}
100
AcDbDictionary
281
1
  3
Normal
350
F
100
AcDbDictionaryWithDefault
340
F
  0
DICTIONARY
  5
17
102
{ACAD_REACTORS
330
C
102
}
100
AcDbDictionary
280
0
281
1
  3
Standard
350
18
  0
DICTIONARY
  5
19
102
{ACAD_REACTORS
330
C
102
}
100
AcDbDictionary
281
1
  0
DICTIONARY
  5
1A
102
{ACAD_REACTORS
330
C
102
}
100
AcDbDictionary
281
1
  3
Model
350
319
  3
Layout1
350
31A
  0
ACDBPLACEHOLDER
  5
F
102
{ACAD_REACTORS
330
E
102
}
  0
MLINESTYLE
  5
18
102
{ACAD_REACTORS
330
17
102
}
100
AcDbMlineStyle
  2
STANDARD
 70
0
  3

 62
256
 51
90.0
 52
90.0
 71
2
 49
0.5
 62
256
  6
BYLAYER
 49
-0.5
 62
256
  6
BYLAYER
  0
LAYOUT
  5
319
102
{ACAD_REACTORS
330
1A
102
}
100
AcDbPlotSettings
  1

  2
none_device
  4

  6

 40
0.0
 41
0.0
 42
0.0
 43
0.0
 44
210.0
 45
297.0
 46
0.0
 47
0.0
 48
0.0
 49
0.0
140
0.0
141
0.0
142
1.0
143
1.0
 70
1024
 72
1
 73
0
 74
0
  7

 75
0
147
1.0
148
0.0
149
0.0
100
AcDbLayout
  1
Model
 70
0
 71
0
 10
0.0
 20
0.0
 11
210.0
 21
297.0
 12
0.0
 22
0.0
 32
0.0
 14
0.0
 24
0.0
 34
0.0
 15
0.0
 25
0.0
 35
0.0
146
0.0
 13
0.0
 23
0.0
 33
0.0
 16
1.0
 26
0.0
 36
0.0
 17
0.0
 27
1.0
 37
0.0
 76
0
330
210
345
0
346
0
  0
LAYOUT
  5
31A
102
{ACAD_REACTORS
330
1A
102
}
100
AcDbPlotSettings
  1

  2
none_device
  4

  6

 40
0.0
 41
0.0
 42
0.0
 43
0.0
 44
210.0
 45
297.0
 46
0.0
 47
0.0
 48
0.0
 49
0.0
140
0.0
141
0.0
142
1.0
143
1.0
 70
0
 72
1
 73
0
 74
0
  7

 75
0
147
1.0
148
0.0
149
0.0
100
AcDbLayout
  1
Layout1
 70
0
 71
1
 10
0.0
 20
0.0
 11
210.0
 21
297.0
 12
0.0
 22
0.0
 32
0.0
 14
0.0
 24
0.0
 34
0.0
 15
0.0
 25
0.0
 35
0.0
146
0.0
 13
0.0
 23
0.0
 33
0.0
 16
1.0
 26
0.0
 36
0.0
 17
0.0
 27
1.0
 37
0.0
 76
0
330
211
345
0
346
0
  0
ENDSEC
  0
EOF
