999
DXF file: C:\Users\sesa63760\Dev\_Creo\CAD\MCADID0000507_3D-CAD\drw0001_2.dxf
999
Pro/ENGINEER 2019471 by Parametric Technology Corporation
  0
SECTION
  2
HEADER
  9
$ACADVER
  1
AC1024
  9
$DWGCODEPAGE
  3
ANSI_1252
  9
$EXTMAX
 10
162.8570233912
 20
230.3263616533
 30
0.0
  9
$EXTMIN
 10
0.0
 20
0.0
 30
0.0
  9
$LIMMIN
 10
0.0
 20
0.0
  9
$LIMMAX
 10
162.8570233912
 20
230.3263616533
  9
$VIEWCTR
 10
81.4285116956
 20
115.1631808266
  9
$VIEWSIZE
 40
230.3263616533
  9
$CLAYER
  8
0
  9
$LTSCALE
 40
15.0138665374
  9
$CELTYPE
  6
BYLAYER
  9
$DIMSCALE
 40
1.0
  9
$DIMASZ
 40
1.938774088
  9
$DIMEXO
 40
1.0
  9
$DIMDLI
 40
10.3732168804
  9
$DIMEXE
 40
1.0
  9
$DIMCEN
 40
2.4568145243
  9
$DIMLFAC
 40
1.0
  9
$DIMBLK
  1
_FILLED
  9
$DIMALT
 70
0
  9
$DIMALTF
 40
0.0393700787
  9
$DIMTXT
 40
2.7142837232
  9
$DIMTOL
 70
1
  9
$DIMLIM
 70
0
  9
$DIMTFAC
 40
1.0
  9
$DIMTP
 40
0.01
  9
$DIMTM
 40
0.01
  9
$DIMGAP
 40
0.625
  9
$DIMDSEP
 70
46
  9
$AUNITS
 70
0
  9
$PDMODE
 70
3
  9
$PDSIZE
 40
0.3125
  9
$HANDSEED
  5
401
  9
$TILEMODE
 70
1
  9
$MEASUREMENT
 70
1
  9
$INSUNITS
 70
4
  0
ENDSEC
  0
SECTION
  2
CLASSES
  0
CLASS
  1
ACDBDICTIONARYWDFLT
  2
AcDbDictionaryWithDefault
  3
AutoCAD 2000
 90
0
 91
1
280
0
281
0
  0
CLASS
  1
ACDBPLACEHOLDER
  2
AcDbPlaceHolder
  3
AutoCAD 2000
 90
0
 91
1
280
0
281
0
  0
CLASS
  1
LAYOUT
  2
AcDbLayout
  3
AutoCAD 2000
 90
0
 91
0
280
0
281
0
  0
ENDSEC
  0
SECTION
  2
TABLES
  0
TABLE
  2
VPORT
  5
8
100
AcDbSymbolTable
 70
2
  0
VPORT
  5
1F4
100
AcDbSymbolTableRecord
100
AcDbViewportTableRecord
  2
*ACTIVE
 70
0
 10
0.0
 20
0.0
 11
1.0
 21
1.0
 12
81.4285116956
 22
115.1631808266
 13
0.0
 23
0.0
 14
1.0
 24
1.0
 15
0.0
 25
0.0
 16
0.0
 26
0.0
 36
1.0
 17
0.0
 27
0.0
 37
0.0
 40
230.3263616533
 41
0.7070707071
 42
50.0
 43
0.0
 44
0.0
 50
0.0
 51
0.0
 71
0
 72
100
 73
1
 74
1
 75
0
 76
0
 77
0
 78
0
  0
ENDTAB
  0
TABLE
  2
LTYPE
  5
5
100
AcDbSymbolTable
 70
6
  0
LTYPE
  5
14
100
AcDbSymbolTableRecord
100
AcDbLinetypeTableRecord
  2
BYBLOCK
 70
0
  3

 72
65
 73
0
 40
0.0
  0
LTYPE
  5
15
100
AcDbSymbolTableRecord
100
AcDbLinetypeTableRecord
  2
BYLAYER
 70
0
  3

 72
65
 73
0
 40
0.0
  0
LTYPE
  5
16
100
AcDbSymbolTableRecord
100
AcDbLinetypeTableRecord
  2
CONTINUOUS
 70
64
  3
Solid line
 72
65
 73
0
 40
0.0
  0
LTYPE
  5
1F5
100
AcDbSymbolTableRecord
100
AcDbLinetypeTableRecord
  2
CENTER
 70
64
  3
____ _ ____ _ ____ _ ____ _ ____ _ ____ _ ____
 72
65
 73
4
 40
0.6
 49
0.375
 74
0
 49
-0.075
 74
0
 49
0.075
 74
0
 49
-0.075
 74
0
  0
LTYPE
  5
1F6
100
AcDbSymbolTableRecord
100
AcDbLinetypeTableRecord
  2
HIDDEN
 70
64
  3
- - - - - - - - - - - - - - - - - - - -
 72
65
 73
2
 40
0.2
 49
0.1
 74
0
 49
-0.1
 74
0
  0
LTYPE
  5
1F7
100
AcDbSymbolTableRecord
100
AcDbLinetypeTableRecord
  2
PHANTOM
 70
64
  3
_____ _ _ _____ _ _ _____ _ _ _____
 72
65
 73
6
 40
0.8
 49
0.45
 74
0
 49
-0.05
 74
0
 49
0.1
 74
0
 49
-0.05
 74
0
 49
0.1
 74
0
 49
-0.05
 74
0
  0
LTYPE
  5
1F8
100
AcDbSymbolTableRecord
100
AcDbLinetypeTableRecord
  2
DOT
 70
64
  3
. . . . . . . . . . . . . . . . . . . .
 72
65
 73
2
 40
0.2
 49
0.1
 74
0
 49
-0.1
 74
0
  0
LTYPE
  5
1F9
100
AcDbSymbolTableRecord
100
AcDbLinetypeTableRecord
  2
DASHED
 70
64
  3
- - - - - - - - - - - - - - - - - - - -
 72
65
 73
2
 40
0.2
 49
0.1
 74
0
 49
-0.1
 74
0
  0
ENDTAB
  0
TABLE
  2
LAYER
  5
2
100
AcDbSymbolTable
 70
36
  0
LAYER
  5
10
100
AcDbSymbolTableRecord
100
AcDbLayerTableRecord
  2
0
 70
0
 62
7
  6
CONTINUOUS
370
-3
390
F
  0
LAYER
  5
1FA
100
AcDbSymbolTableRecord
100
AcDbLayerTableRecord
  2
DEFAULT_1
 70
0
 62
7
  6
CENTER
370
-3
390
F
  0
LAYER
  5
1FB
100
AcDbSymbolTableRecord
100
AcDbLayerTableRecord
  2
DEFAULT_2
 70
0
 62
8
  6
HIDDEN
370
-3
390
F
  0
LAYER
  5
1FC
100
AcDbSymbolTableRecord
100
AcDbLayerTableRecord
  2
DEFAULT_3
 70
0
 62
7
  6
PHANTOM
370
-3
390
F
  0
LAYER
  5
1FD
100
AcDbSymbolTableRecord
100
AcDbLayerTableRecord
  2
00_COMPONENTS
 70
0
 62
7
  6
CONTINUOUS
370
-3
390
F
  0
LAYER
  5
1FE
100
AcDbSymbolTableRecord
100
AcDbLayerTableRecord
  2
01_1_DEFAULT_DATUMS
 70
0
 62
7
  6
CONTINUOUS
370
-3
390
F
  0
LAYER
  5
1FF
100
AcDbSymbolTableRecord
100
AcDbLayerTableRecord
  2
01_PLANES
 70
0
 62
7
  6
CONTINUOUS
370
-3
390
F
  0
LAYER
  5
200
100
AcDbSymbolTableRecord
100
AcDbLayerTableRecord
  2
02_COORD_SYS
 70
0
 62
7
  6
CONTINUOUS
370
-3
390
F
  0
LAYER
  5
201
100
AcDbSymbolTableRecord
100
AcDbLayerTableRecord
  2
03_AXES
 70
0
 62
7
  6
CONTINUOUS
370
-3
390
F
  0
LAYER
  5
202
100
AcDbSymbolTableRecord
100
AcDbLayerTableRecord
  2
04_POINTS
 70
0
 62
7
  6
CONTINUOUS
370
-3
390
F
  0
LAYER
  5
203
100
AcDbSymbolTableRecord
100
AcDbLayerTableRecord
  2
05_CURVES
 70
0
 62
7
  6
CONTINUOUS
370
-3
390
F
  0
LAYER
  5
204
100
AcDbSymbolTableRecord
100
AcDbLayerTableRecord
  2
06_SURFS
 70
0
 62
7
  6
CONTINUOUS
370
-3
390
F
  0
LAYER
  5
205
100
AcDbSymbolTableRecord
100
AcDbLayerTableRecord
  2
07_COSMETICS
 70
0
 62
7
  6
CONTINUOUS
370
-3
390
F
  0
LAYER
  5
206
100
AcDbSymbolTableRecord
100
AcDbLayerTableRecord
  2
10_NOTES
 70
0
 62
7
  6
CONTINUOUS
370
-3
390
F
  0
LAYER
  5
207
100
AcDbSymbolTableRecord
100
AcDbLayerTableRecord
  2
11_NOTES_PUB
 70
0
 62
7
  6
CONTINUOUS
370
-3
390
F
  0
LAYER
  5
208
100
AcDbSymbolTableRecord
100
AcDbLayerTableRecord
  2
13_REF_GTOL
 70
0
 62
7
  6
CONTINUOUS
370
-3
390
F
  0
LAYER
  5
209
100
AcDbSymbolTableRecord
100
AcDbLayerTableRecord
  2
16_MISC
 70
0
 62
7
  6
CONTINUOUS
370
-3
390
F
  0
LAYER
  5
20A
100
AcDbSymbolTableRecord
100
AcDbLayerTableRecord
  2
17_NO_PRINT
 70
0
 62
7
  6
CONTINUOUS
370
-3
390
F
  0
LAYER
  5
20B
100
AcDbSymbolTableRecord
100
AcDbLayerTableRecord
  2
18_DATUM_CAMS_JOINTS
 70
0
 62
7
  6
CONTINUOUS
370
-3
390
F
  0
LAYER
  5
20C
100
AcDbSymbolTableRecord
100
AcDbLayerTableRecord
  2
19_DATUM_FUNCTIONAL
 70
0
 62
7
  6
CONTINUOUS
370
-3
390
F
  0
LAYER
  5
20D
100
AcDbSymbolTableRecord
100
AcDbLayerTableRecord
  2
20_DATUM_KINEMATIC_SCHEME
 70
0
 62
7
  6
CONTINUOUS
370
-3
390
F
  0
ENDTAB
  0
TABLE
  2
STYLE
  5
3
100
AcDbSymbolTable
 70
1
  0
STYLE
  5
11
100
AcDbSymbolTableRecord
100
AcDbTextStyleTableRecord
  2
STANDARD
 70
0
 40
0.0
 41
0.8
 50
0.0
 71
0
 42
0.2
  3
txt
  4

  0
STYLE
  5
20E
100
AcDbSymbolTableRecord
100
AcDbTextStyleTableRecord
  2
TEXTSTYLE_1
 70
0
 40
0.0
 41
0.8
 50
0.0
 71
0
 42
0.2
  3
gdt
  4

  0
ENDTAB
  0
TABLE
  2
VIEW
  5
6
100
AcDbSymbolTable
 70
0
  0
ENDTAB
  0
TABLE
  2
UCS
  5
7
100
AcDbSymbolTable
 70
0
  0
ENDTAB
  0
TABLE
  2
APPID
  5
9
100
AcDbSymbolTable
 70
1
  0
APPID
  5
20F
100
AcDbSymbolTableRecord
100
AcDbRegAppTableRecord
  2
ACAD
 70
0
  0
ENDTAB
  0
TABLE
  2
BLOCK_RECORD
  5
1
100
AcDbSymbolTable
 70
0
  0
BLOCK_RECORD
  5
210
100
AcDbSymbolTableRecord
100
AcDbBlockTableRecord
  2
*Model_Space
  0
BLOCK_RECORD
  5
211
100
AcDbSymbolTableRecord
100
AcDbBlockTableRecord
  2
*Paper_Space
  0
BLOCK_RECORD
  5
212
100
AcDbSymbolTableRecord
100
AcDbBlockTableRecord
  2
_FILLED
  0
ENDTAB
  0
TABLE
  2
DIMSTYLE
  5
A
100
AcDbSymbolTable
 70
1
100
AcDbDimStyleTable
 71
0
  0
DIMSTYLE
105
213
100
AcDbSymbolTableRecord
100
AcDbDimStyleTableRecord
  2
STANDARD
 70
0
  3

  4

 40
1.0
 41
1.938774088
 42
1.0
 43
0.38
 44
1.0
 45
0.0
 46
0.0
 47
0.01
 48
0.01
140
2.7142837232
141
0.09
142
0.0
143
25.4
144
1.0
145
0.0
146
1.0
147
0.625
 71
1
 72
0
 73
0
 74
0
 75
0
 76
0
 77
1
 78
8
 79
2
170
0
171
1
172
0
173
0
174
0
175
0
176
0
177
0
178
0
270
2
179
2
271
2
272
2
273
2
274
2
275
0
280
0
281
0
282
0
283
1
284
8
285
0
286
0
287
3
288
0
340
11
278
46
341
212
342
212
343
212
344
212
  0
ENDTAB
  0
ENDSEC
  0
SECTION
  2
BLOCKS
  0
BLOCK
  5
20
100
AcDbEntity
  8
0
100
AcDbBlockBegin
  2
*Model_Space
 70
0
 10
0.0
 20
0.0
 30
0.0
  3
*Model_Space
  1

  0
ENDBLK
  5
21
100
AcDbEntity
  8
0
100
AcDbBlockEnd
  0
BLOCK
  5
1C
100
AcDbEntity
  8
0
100
AcDbBlockBegin
  2
*Paper_Space
 70
0
 10
0.0
 20
0.0
 30
0.0
  3
*Paper_Space
  1

  0
ENDBLK
  5
1D
100
AcDbEntity
  8
0
100
AcDbBlockEnd
  0
BLOCK
  5
214
100
AcDbEntity
  8
0
100
AcDbBlockBegin
  2
_FILLED
 70
64
 10
0.0
 20
0.0
  3
_FILLED
  1

  0
SOLID
  5
215
100
AcDbEntity
  8
0
  6
BYBLOCK
 62
0
100
AcDbTrace
 10
0.0
 20
0.0
 11
-1.0
 21
0.25
 12
-1.0
 22
-0.25
 13
-1.0
 23
-0.25
  0
ENDBLK
  5
216
100
AcDbEntity
  8
0
  6
BYBLOCK
 62
0
100
AcDbBlockEnd
  0
ENDSEC
  0
SECTION
  2
ENTITIES
  0
LINE
  5
217
100
AcDbEntity
  8
0
100
AcDbLine
 62
7
  6
CONTINUOUS
 10
17.8561805417
 20
37.5403324437
 11
18.1016797245
 21
37.4858041918
  0
LINE
  5
218
100
AcDbEntity
  8
0
100
AcDbLine
 62
7
  6
CONTINUOUS
 10
142.9227471544
 20
33.2403050097
 11
22.1562079763
 21
33.2403050097
  0
LINE
  5
219
100
AcDbEntity
  8
0
100
AcDbLine
 62
7
  6
CONTINUOUS
 10
143.0106813579
 20
33.4858041926
 11
22.1016797245
 21
33.4858041926
  0
LINE
  5
21A
100
AcDbEntity
  8
0
100
AcDbLine
 62
7
  6
CONTINUOUS
 10
142.8928224762
 20
34.590305009
 11
22.2237629471
 21
34.590305009
  0
LINE
  5
21B
100
AcDbEntity
  8
0
100
AcDbLine
 62
7
  6
CONTINUOUS
 10
22.1562079763
 20
33.2403050097
 11
22.1016797245
 21
33.4858041926
  0
LINE
  5
21C
100
AcDbEntity
  8
0
100
AcDbLine
 62
7
  6
CONTINUOUS
 10
22.1417985665
 20
196.2403050097
 11
22.1016797237
 21
195.9948058254
  0
LINE
  5
21D
100
AcDbEntity
  8
0
100
AcDbLine
 62
7
  6
CONTINUOUS
 10
32.7357921642
 20
63.6483952669
 11
32.6581222754
 21
63.7778451114
  0
LINE
  5
21E
100
AcDbEntity
  8
0
100
AcDbLine
 62
7
  6
CONTINUOUS
 10
17.8561805417
 20
37.5403324452
 11
17.8561805416
 21
191.9546869842
  0
LINE
  5
21F
100
AcDbEntity
  8
0
100
AcDbLine
 62
7
  6
CONTINUOUS
 10
18.1016797245
 20
37.4858041918
 11
18.1016797245
 21
191.9948058251
  0
LINE
  5
220
100
AcDbEntity
  8
0
100
AcDbLine
 62
7
  6
CONTINUOUS
 10
19.2061805409
 20
37.6078874151
 11
19.2061805409
 21
191.9190758105
  0
LINE
  5
221
100
AcDbEntity
  8
0
100
AcDbLine
 62
7
  6
CONTINUOUS
 10
27.4671838921
 20
57.2017936974
 11
27.5966337357
 21
57.175903675
  0
LINE
  5
222
100
AcDbEntity
  8
0
100
AcDbLine
 62
7
  6
CONTINUOUS
 10
33.2535915416
 20
62.9752566485
 11
32.7357921642
 21
63.1047064928
  0
LINE
  5
223
100
AcDbEntity
  8
0
100
AcDbLine
 62
7
  6
CONTINUOUS
 10
31.4412937207
 20
63.4283311038
 11
31.7649183315
 21
63.3247713714
  0
LINE
  5
224
100
AcDbEntity
  8
0
100
AcDbLine
 62
7
  6
CONTINUOUS
 10
32.0885429424
 20
63.2729911475
 11
32.4121675533
 21
63.1694314151
  0
LINE
  5
225
100
AcDbEntity
  8
0
100
AcDbLine
 62
7
  6
CONTINUOUS
 10
31.5322031367
 20
75.2988805442
 11
32.1014879983
 21
74.7163562445
  0
LINE
  5
226
100
AcDbEntity
  8
0
100
AcDbLine
 62
7
  6
CONTINUOUS
 10
29.9785108012
 20
64.1403052478
 11
29.797280733
 21
64.6451592116
  0
LINE
  5
227
100
AcDbEntity
  8
0
100
AcDbLine
 62
7
  6
CONTINUOUS
 10
30.6257596654
 20
57.9914376407
 11
30.6516497773
 21
57.6807580863
  0
LINE
  5
228
100
AcDbEntity
  8
0
100
AcDbLine
 62
7
  6
CONTINUOUS
 10
26.5092547577
 20
57.5642532079
 11
26.5092547577
 21
57.8102079301
  0
LINE
  5
229
100
AcDbEntity
  8
0
100
AcDbLine
 62
7
  6
CONTINUOUS
 10
27.260063712
 20
57.8490429192
 11
27.260063712
 21
57.7066480189
  0
LINE
  5
22A
100
AcDbEntity
  8
0
100
AcDbLine
 62
7
  6
CONTINUOUS
 10
27.8037532013
 20
81.0982327132
 11
27.8037532013
 21
81.1500143676
  0
LINE
  5
22B
100
AcDbEntity
  8
0
100
AcDbLine
 62
7
  6
CONTINUOUS
 10
27.9211805409
 20
82.3153050092
 11
27.9211805411
 21
89.5153050085
  0
LINE
  5
22C
100
AcDbEntity
  8
0
100
AcDbLine
 62
7
  6
CONTINUOUS
 10
26.5480902833
 20
74.92347714
 11
26.5739796799
 21
75.7649011274
  0
LINE
  5
22D
100
AcDbEntity
  8
0
100
AcDbLine
 62
7
  6
CONTINUOUS
 10
33.1381041207
 20
168.917453923
 11
33.0863306154
 21
168.4987635283
  0
LINE
  5
22E
100
AcDbEntity
  8
0
100
AcDbLine
 62
7
  6
CONTINUOUS
 10
32.1476538465
 20
161.6669081232
 11
32.2016785782
 21
162.0630879184
  0
LINE
  5
22F
100
AcDbEntity
  8
0
100
AcDbLine
 62
7
  6
CONTINUOUS
 10
34.1127971824
 20
164.6179993288
 11
34.0542705864
 21
164.2240705161
  0
LINE
  5
230
100
AcDbEntity
  8
0
100
AcDbLine
 62
7
  6
CONTINUOUS
 10
31.0469035191
 20
158.3534018914
 11
33.8561805409
 21
159.3078356291
  0
LINE
  5
231
100
AcDbEntity
  8
0
100
AcDbLine
 62
7
  6
CONTINUOUS
 10
32.8927426221
 20
159.3708642826
 11
30.5561805412
 21
158.5897593076
  0
LINE
  5
232
100
AcDbEntity
  8
0
100
AcDbLine
 62
7
  6
CONTINUOUS
 10
33.3812146284
 20
159.5284359294
 11
32.8927426221
 21
159.3708642826
  0
LINE
  5
233
100
AcDbEntity
  8
0
100
AcDbLine
 62
7
  6
CONTINUOUS
 10
126.2561805385
 20
56.1403050094
 11
38.8561805433
 21
56.1403050094
  0
LINE
  5
234
100
AcDbEntity
  8
0
100
AcDbLine
 62
7
  6
CONTINUOUS
 10
27.7390282792
 20
56.1403050094
 11
27.5836883229
 21
56.1403050094
  0
LINE
  5
235
100
AcDbEntity
  8
0
100
AcDbLine
 62
7
  6
CONTINUOUS
 10
29.5901612681
 20
58.1856124072
 11
29.499546234
 21
58.1856124072
  0
LINE
  5
236
100
AcDbEntity
  8
0
100
AcDbLine
 62
7
  6
CONTINUOUS
 10
30.2503551882
 20
56.2179749149
 11
29.3830414459
 21
56.2309198982
  0
LINE
  5
237
100
AcDbEntity
  8
0
100
AcDbLine
 62
7
  6
CONTINUOUS
 10
26.8199346703
 20
59.0529263287
 11
27.6095784353
 21
59.0399814515
  0
LINE
  5
238
100
AcDbEntity
  8
0
100
AcDbLine
 62
7
  6
CONTINUOUS
 10
29.0076369685
 20
60.3733147054
 11
29.240646546
 21
60.3474245934
  0
LINE
  5
239
100
AcDbEntity
  8
0
100
AcDbLine
 62
7
  6
CONTINUOUS
 10
30.9493842763
 20
65.8490426211
 11
31.4283488434
 21
65.7454828886
  0
LINE
  5
23A
100
AcDbEntity
  8
0
100
AcDbLine
 62
7
  6
CONTINUOUS
 10
32.0497081321
 20
65.4477483896
 11
31.7390283984
 21
65.5254180101
  0
LINE
  5
23B
100
AcDbEntity
  8
0
100
AcDbLine
 62
7
  6
CONTINUOUS
 10
32.7099022311
 20
65.2665183214
 11
32.3862776202
 21
65.3571333555
  0
LINE
  5
23C
100
AcDbEntity
  8
0
100
AcDbLine
 62
7
  6
CONTINUOUS
 10
32.2697728318
 20
77.5901436477
 11
32.0108731431
 21
77.7713722853
  0
LINE
  5
23D
100
AcDbEntity
  8
0
100
AcDbLine
 62
7
  6
CONTINUOUS
 10
27.4412937802
 20
72.1014699607
 11
27.4671838921
 21
71.9331845909
  0
LINE
  5
23E
100
AcDbEntity
  8
0
100
AcDbLine
 62
7
  6
CONTINUOUS
 10
31.8425883096
 20
71.0529265075
 11
31.8296432536
 21
71.2082657492
  0
LINE
  5
23F
100
AcDbEntity
  8
0
100
AcDbLine
 62
7
  6
CONTINUOUS
 10
32.4251126093
 20
71.5966152816
 11
32.4768924755
 21
70.8458070426
  0
LINE
  5
240
100
AcDbEntity
  8
0
100
AcDbLine
 62
7
  6
CONTINUOUS
 10
30.6257596654
 20
78.0949968963
 11
30.6387047214
 21
77.8360972077
  0
LINE
  5
241
100
AcDbEntity
  8
0
100
AcDbLine
 62
7
  6
CONTINUOUS
 10
28.9040768784
 20
78.198557344
 11
28.9170219344
 21
77.0335087447
  0
LINE
  5
242
100
AcDbEntity
  8
0
100
AcDbLine
 62
7
  6
CONTINUOUS
 10
29.3830414456
 20
71.3118261962
 11
29.3959865016
 21
69.3830232299
  0
LINE
  5
243
100
AcDbEntity
  8
0
100
AcDbLine
 62
7
  6
CONTINUOUS
 10
28.3344976347
 20
69.9267134337
 11
28.3344976347
 21
70.0432171493
  0
LINE
  5
244
100
AcDbEntity
  8
0
100
AcDbLine
 62
7
  6
CONTINUOUS
 10
28.3344976347
 20
77.5513081222
 11
28.3344976347
 21
77.6678132682
  0
LINE
  5
245
100
AcDbEntity
  8
0
100
AcDbLine
 62
7
  6
CONTINUOUS
 10
28.4510024231
 20
63.8166806369
 11
28.4510024231
 21
63.6872307925
  0
LINE
  5
246
100
AcDbEntity
  8
0
100
AcDbLine
 62
7
  6
CONTINUOUS
 10
28.4510024231
 20
61.2276837497
 11
28.4510024231
 21
61.1111789613
  0
LINE
  5
247
100
AcDbEntity
  8
0
100
AcDbLine
 62
7
  6
CONTINUOUS
 10
28.9170219344
 20
70.5739626556
 11
28.9170219344
 21
69.3959679275
  0
LINE
  5
248
100
AcDbEntity
  8
0
100
AcDbLine
 62
7
  6
CONTINUOUS
 10
29.3830414456
 20
78.9364208846
 11
29.3830414456
 21
77.007619348
  0
LINE
  5
249
100
AcDbEntity
  8
0
100
AcDbLine
 62
7
  6
CONTINUOUS
 10
29.8878957671
 20
57.5124732523
 11
29.8878957671
 21
57.6678130298
  0
LINE
  5
24A
100
AcDbEntity
  8
0
100
AcDbLine
 62
7
  6
CONTINUOUS
 10
30.0173456114
 20
61.0982339053
 11
30.0173456114
 21
61.2017936377
  0
LINE
  5
24B
100
AcDbEntity
  8
0
100
AcDbLine
 62
7
  6
CONTINUOUS
 10
30.0561804217
 20
74.4445118575
 11
30.0561804217
 21
74.3409528406
  0
LINE
  5
24C
100
AcDbEntity
  8
0
100
AcDbLine
 62
7
  6
CONTINUOUS
 10
30.5561805413
 20
157.9324605395
 11
30.5561805412
 21
158.5897593067
  0
LINE
  5
24D
100
AcDbEntity
  8
0
100
AcDbLine
 62
7
  6
CONTINUOUS
 10
30.5561805409
 20
160.4941250176
 11
30.5561805408
 21
161.0816419625
  0
LINE
  5
24E
100
AcDbEntity
  8
0
100
AcDbLine
 62
7
  6
CONTINUOUS
 10
30.5561805395
 20
169.4171812205
 11
30.5561805394
 21
169.8223649391
  0
LINE
  5
24F
100
AcDbEntity
  8
0
100
AcDbLine
 62
7
  6
CONTINUOUS
 10
30.5561805394
 20
170.4526515144
 11
30.5561805393
 21
170.8578360208
  0
LINE
  5
250
100
AcDbEntity
  8
0
100
AcDbLine
 62
7
  6
CONTINUOUS
 10
30.6387047213
 20
77.8360972078
 11
30.6387047213
 21
77.5771975188
  0
LINE
  5
251
100
AcDbEntity
  8
0
100
AcDbLine
 62
7
  6
CONTINUOUS
 10
30.6387047213
 20
70.2115025192
 11
30.6387047213
 21
69.9784922271
  0
LINE
  5
252
100
AcDbEntity
  8
0
100
AcDbLine
 62
7
  6
CONTINUOUS
 10
30.6387047213
 20
61.1111789613
 11
30.6387047213
 21
60.9170041948
  0
LINE
  5
253
100
AcDbEntity
  8
0
100
AcDbLine
 62
7
  6
CONTINUOUS
 10
30.6811805409
 20
89.515305009
 11
30.6811805409
 21
82.315305009
  0
LINE
  5
254
100
AcDbEntity
  8
0
100
AcDbLine
 62
7
  6
CONTINUOUS
 10
30.9493842763
 20
64.9946739345
 11
30.9493842763
 21
65.8490426211
  0
LINE
  5
255
100
AcDbEntity
  8
0
100
AcDbLine
 62
7
  6
CONTINUOUS
 10
31.0221423306
 20
170.8578360217
 11
31.0221423306
 21
170.4526515143
  0
LINE
  5
256
100
AcDbEntity
  8
0
100
AcDbLine
 62
7
  6
CONTINUOUS
 10
31.2341740769
 20
78.7551922469
 11
31.2341740769
 21
78.7940263419
  0
LINE
  5
257
100
AcDbEntity
  8
0
100
AcDbLine
 62
7
  6
CONTINUOUS
 10
31.3765689772
 20
68.6063241629
 11
31.3765689772
 21
67.6354503303
  0
LINE
  5
258
100
AcDbEntity
  8
0
100
AcDbLine
 62
7
  6
CONTINUOUS
 10
31.4283488434
 20
65.7454828886
 11
31.4283488434
 21
65.188848701
  0
LINE
  5
259
100
AcDbEntity
  8
0
100
AcDbLine
 62
7
  6
CONTINUOUS
 10
31.465593914
 20
165.8763214971
 11
31.465593914
 21
166.2499914791
  0
LINE
  5
25A
100
AcDbEntity
  8
0
100
AcDbLine
 62
7
  6
CONTINUOUS
 10
31.465593914
 20
170.4526515144
 11
31.465593914
 21
170.8578360218
  0
LINE
  5
25B
100
AcDbEntity
  8
0
100
AcDbLine
 62
7
  6
CONTINUOUS
 10
31.7390283984
 20
66.3538973003
 11
31.7390283984
 21
65.5254180103
  0
LINE
  5
25C
100
AcDbEntity
  8
0
100
AcDbLine
 62
7
  6
CONTINUOUS
 10
31.7649183315
 20
62.7293016582
 11
31.7649183315
 21
63.3247713714
  0
LINE
  5
25D
100
AcDbEntity
  8
0
100
AcDbLine
 62
7
  6
CONTINUOUS
 10
31.8296432537
 20
71.2082657492
 11
31.8296432537
 21
71.285935369
  0
LINE
  5
25E
100
AcDbEntity
  8
0
100
AcDbLine
 62
7
  6
CONTINUOUS
 10
31.8296432537
 20
73.4089131026
 11
31.8296432537
 21
73.5124735503
  0
LINE
  5
25F
100
AcDbEntity
  8
0
100
AcDbLine
 62
7
  6
CONTINUOUS
 10
31.8296432537
 20
77.3830227523
 11
31.8296432537
 21
77.4089135794
  0
LINE
  5
260
100
AcDbEntity
  8
0
100
AcDbLine
 62
7
  6
CONTINUOUS
 10
31.8296432537
 20
80.3992046981
 11
31.8296432537
 21
80.5027651458
  0
LINE
  5
261
100
AcDbEntity
  8
0
100
AcDbLine
 62
7
  6
CONTINUOUS
 10
32.0497081321
 20
65.4477483898
 11
32.0497081321
 21
66.2632822661
  0
LINE
  5
262
100
AcDbEntity
  8
0
100
AcDbLine
 62
7
  6
CONTINUOUS
 10
32.1403229874
 20
75.7649011284
 11
32.1403229874
 21
75.2988805442
  0
LINE
  5
263
100
AcDbEntity
  8
0
100
AcDbLine
 62
7
  6
CONTINUOUS
 10
32.3862776202
 20
68.567490068
 11
32.3862776202
 21
67.6354503303
  0
LINE
  5
264
100
AcDbEntity
  8
0
100
AcDbLine
 62
7
  6
CONTINUOUS
 10
32.3862776202
 20
66.1079423099
 11
32.3862776202
 21
65.3571333557
  0
LINE
  5
265
100
AcDbEntity
  8
0
100
AcDbLine
 62
7
  6
CONTINUOUS
 10
32.4121675533
 20
62.483347383
 11
32.4121675533
 21
63.1694314151
  0
LINE
  5
266
100
AcDbEntity
  8
0
100
AcDbLine
 62
7
  6
CONTINUOUS
 10
32.4312829026
 20
168.5032654914
 11
32.4312829026
 21
167.1684083852
  0
LINE
  5
267
100
AcDbEntity
  8
0
100
AcDbLine
 62
7
  6
CONTINUOUS
 10
32.684012298
 20
71.9072951941
 11
32.684012298
 21
70.8328623443
  0
LINE
  5
268
100
AcDbEntity
  8
0
100
AcDbLine
 62
7
  6
CONTINUOUS
 10
32.7357921642
 20
63.1047064928
 11
32.7357921642
 21
63.6483952669
  0
LINE
  5
269
100
AcDbEntity
  8
0
100
AcDbLine
 62
7
  6
CONTINUOUS
 10
32.7644343362
 20
168.9287088296
 11
32.7644343362
 21
167.1458985719
  0
LINE
  5
26A
100
AcDbEntity
  8
0
100
AcDbLine
 62
7
  6
CONTINUOUS
 10
33.2535915416
 20
63.8425700336
 11
33.2535915416
 21
62.9752566485
  0
LINE
  5
26B
100
AcDbEntity
  8
0
100
AcDbLine
 62
7
  6
CONTINUOUS
 10
33.8561805403
 20
170.857836021
 11
33.8561805403
 21
170.4526515136
  0
LINE
  5
26C
100
AcDbEntity
  8
0
100
AcDbLine
 62
7
  6
CONTINUOUS
 10
33.8561805403
 20
169.8223649393
 11
33.8561805404
 21
169.4171812198
  0
LINE
  5
26D
100
AcDbEntity
  8
0
100
AcDbLine
 62
7
  6
CONTINUOUS
 10
33.8561805407
 20
163.798626783
 11
33.8561805407
 21
163.3754344253
  0
LINE
  5
26E
100
AcDbEntity
  8
0
100
AcDbLine
 62
7
  6
CONTINUOUS
 10
33.8561805408
 20
161.0816419629
 11
33.8561805409
 21
160.6607005856
  0
LINE
  5
26F
100
AcDbEntity
  8
0
100
AcDbLine
 62
7
  6
CONTINUOUS
 10
33.8561805409
 20
159.7017648368
 11
33.8561805409
 21
159.3078356291
  0
LINE
  5
270
100
AcDbEntity
  8
0
100
AcDbLine
 62
7
  6
CONTINUOUS
 10
33.856180541
 20
158.3534018918
 11
33.856180541
 21
157.9324605389
  0
LINE
  5
271
100
AcDbEntity
  8
0
100
AcDbLine
 62
7
  6
CONTINUOUS
 10
32.0885429424
 20
63.2729911475
 11
32.0755980653
 21
62.5739617023
  0
LINE
  5
272
100
AcDbEntity
  8
0
100
AcDbLine
 62
7
  6
CONTINUOUS
 10
33.4089313638
 20
68.6322149901
 11
33.383041386
 21
67.2859363227
  0
LINE
  5
273
100
AcDbEntity
  8
0
100
AcDbLine
 62
7
  6
CONTINUOUS
 10
31.0529443663
 20
67.3118257194
 11
31.0788342994
 21
68.6322149907
  0
LINE
  5
274
100
AcDbEntity
  8
0
100
AcDbLine
 62
7
  6
CONTINUOUS
 10
33.0982517642
 20
67.6354503303
 11
33.1241416973
 21
68.6581043864
  0
LINE
  5
275
100
AcDbEntity
  8
0
100
AcDbLine
 62
7
  6
CONTINUOUS
 10
32.0626530093
 20
67.6354503303
 11
32.0885429424
 21
68.5933794643
  0
LINE
  5
276
100
AcDbEntity
  8
0
100
AcDbLine
 62
7
  6
CONTINUOUS
 10
26.5480902833
 20
62.3021173148
 11
26.57397968
 21
63.143541304
  0
LINE
  5
277
100
AcDbEntity
  8
0
100
AcDbLine
 62
7
  6
CONTINUOUS
 10
27.8555334252
 20
79.4024414687
 11
27.8814235371
 21
80.2438654564
  0
LINE
  5
278
100
AcDbEntity
  8
0
100
AcDbLine
 62
7
  6
CONTINUOUS
 10
27.8555334252
 20
71.687231031
 11
27.8814235371
 21
72.5286550186
  0
LINE
  5
279
100
AcDbEntity
  8
0
100
AcDbLine
 62
7
  6
CONTINUOUS
 10
27.8555334252
 20
65.4348036913
 11
27.8814235371
 21
66.2762276791
  0
LINE
  5
27A
100
AcDbEntity
  8
0
100
AcDbLine
 62
7
  6
CONTINUOUS
 10
30.5869248551
 20
80.2179760603
 11
30.5610347432
 21
79.3765506415
  0
LINE
  5
27B
100
AcDbEntity
  8
0
100
AcDbLine
 62
7
  6
CONTINUOUS
 10
30.5998699111
 20
75.7390103011
 11
30.5739797992
 21
74.8975863134
  0
LINE
  5
27C
100
AcDbEntity
  8
0
100
AcDbLine
 62
7
  6
CONTINUOUS
 10
30.5998699111
 20
72.502764192
 11
30.5739797992
 21
71.6613402037
  0
LINE
  5
27D
100
AcDbEntity
  8
0
100
AcDbLine
 62
7
  6
CONTINUOUS
 10
30.5869248551
 20
68.127360311
 11
30.5610347432
 21
67.2859363233
  0
LINE
  5
27E
100
AcDbEntity
  8
0
100
AcDbLine
 62
7
  6
CONTINUOUS
 10
30.5869248551
 20
63.1176511913
 11
30.5610347432
 21
62.2762272029
  0
LINE
  5
27F
100
AcDbEntity
  8
0
100
AcDbLine
 62
7
  6
CONTINUOUS
 10
32.7099022311
 20
65.2665183214
 11
32.7357921642
 21
65.9137675441
  0
LINE
  5
280
100
AcDbEntity
  8
0
100
AcDbLine
 62
7
  6
CONTINUOUS
 10
31.8555333656
 20
75.2988805442
 11
31.8814232987
 21
75.7907905254
  0
LINE
  5
281
100
AcDbEntity
  8
0
100
AcDbLine
 62
7
  6
CONTINUOUS
 10
31.4412937206
 20
63.4283311038
 11
31.4154037875
 21
62.9364218383
  0
LINE
  5
282
100
AcDbEntity
  8
0
100
AcDbLine
 62
7
  6
CONTINUOUS
 10
27.9849832696
 20
61.8878776698
 11
28.6192874354
 21
61.8878776698
  0
LINE
  5
283
100
AcDbEntity
  8
0
100
AcDbLine
 62
7
  6
CONTINUOUS
 10
29.8490609568
 20
61.9267128377
 11
30.4445299548
 21
61.9267128377
  0
LINE
  5
284
100
AcDbEntity
  8
0
100
AcDbLine
 62
7
  6
CONTINUOUS
 10
26.57397968
 20
63.1435413032
 11
28.2568276566
 21
63.1435413032
  0
LINE
  5
285
100
AcDbEntity
  8
0
100
AcDbLine
 62
7
  6
CONTINUOUS
 10
29.9785108012
 20
64.1403052478
 11
28.9558567447
 21
64.1403052478
  0
LINE
  5
286
100
AcDbEntity
  8
0
100
AcDbLine
 62
7
  6
CONTINUOUS
 10
29.0335267228
 20
65.0205640464
 11
29.7066660565
 21
65.0205640464
  0
LINE
  5
287
100
AcDbEntity
  8
0
100
AcDbLine
 62
7
  6
CONTINUOUS
 10
27.8814235371
 20
66.2762276797
 11
28.2309379023
 21
66.2762276797
  0
LINE
  5
288
100
AcDbEntity
  8
0
100
AcDbLine
 62
7
  6
CONTINUOUS
 10
30.5610347432
 20
62.2762272029
 11
26.548090284
 21
62.3021173148
  0
LINE
  5
289
100
AcDbEntity
  8
0
100
AcDbLine
 62
7
  6
CONTINUOUS
 10
28.8522970122
 20
66.2762276797
 11
30.0950155892
 21
66.2632822661
  0
LINE
  5
28A
100
AcDbEntity
  8
0
100
AcDbLine
 62
7
  6
CONTINUOUS
 10
33.383041386
 20
67.2859363227
 11
31.0529443664
 21
67.3118257193
  0
LINE
  5
28B
100
AcDbEntity
  8
0
100
AcDbLine
 62
7
  6
CONTINUOUS
 10
29.6937210004
 20
65.4089135795
 11
27.8555334243
 21
65.4348036914
  0
LINE
  5
28C
100
AcDbEntity
  8
0
100
AcDbLine
 62
7
  6
CONTINUOUS
 10
28.8522970122
 20
63.1435413032
 11
30.586924856
 21
63.1176511912
  0
LINE
  5
28D
100
AcDbEntity
  8
0
100
AcDbLine
 62
7
  6
CONTINUOUS
 10
31.0788342994
 20
68.6322149901
 11
31.3765689773
 21
68.6063241629
  0
LINE
  5
28E
100
AcDbEntity
  8
0
100
AcDbLine
 62
7
  6
CONTINUOUS
 10
32.0885429424
 20
68.5933794645
 11
32.3862776195
 21
68.5674900679
  0
LINE
  5
28F
100
AcDbEntity
  8
0
100
AcDbLine
 62
7
  6
CONTINUOUS
 10
33.1241416973
 20
68.6581043867
 11
33.4089313641
 21
68.6322149901
  0
LINE
  5
290
100
AcDbEntity
  8
0
100
AcDbLine
 62
7
  6
CONTINUOUS
 10
32.4768924755
 20
70.8458070426
 11
32.3862776201
 21
70.8587517409
  0
LINE
  5
291
100
AcDbEntity
  8
0
100
AcDbLine
 62
7
  6
CONTINUOUS
 10
32.4639475983
 20
73.0335082679
 11
32.6451773088
 21
73.0076188712
  0
LINE
  5
292
100
AcDbEntity
  8
0
100
AcDbLine
 62
7
  6
CONTINUOUS
 10
29.2406465452
 20
71.3377155929
 11
29.3830414457
 21
71.3118261962
  0
LINE
  5
293
100
AcDbEntity
  8
0
100
AcDbLine
 62
7
  6
CONTINUOUS
 10
38.3561805416
 20
56.6403050095
 11
38.3561805416
 21
172.8403050085
  0
LINE
  5
294
100
AcDbEntity
  8
0
100
AcDbLine
 62
7
  6
CONTINUOUS
 10
31.8555333656
 20
76.6581039099
 11
31.8814232987
 21
76.9558391237
  0
LINE
  5
295
100
AcDbEntity
  8
0
100
AcDbLine
 62
7
  6
CONTINUOUS
 10
33.4218763304
 20
76.9299497274
 11
33.3959863527
 21
76.6322145138
  0
LINE
  5
296
100
AcDbEntity
  8
0
100
AcDbLine
 62
7
  6
CONTINUOUS
 10
31.8555333656
 20
78.5998515753
 11
31.8814232987
 21
78.8846420912
  0
LINE
  5
297
100
AcDbEntity
  8
0
100
AcDbLine
 62
7
  6
CONTINUOUS
 10
31.0529443663
 20
69.4606928497
 11
31.0788342994
 21
69.7454833654
  0
LINE
  5
298
100
AcDbEntity
  8
0
100
AcDbLine
 62
7
  6
CONTINUOUS
 10
33.1370866638
 20
80.3733153014
 11
33.1500316303
 21
80.5157084131
  0
LINE
  5
299
100
AcDbEntity
  8
0
100
AcDbLine
 62
7
  6
CONTINUOUS
 10
33.4218763304
 20
78.8587512641
 11
33.3959863526
 21
78.5739621786
  0
LINE
  5
29A
100
AcDbEntity
  8
0
100
AcDbLine
 62
7
  6
CONTINUOUS
 10
33.4218763304
 20
69.7195925383
 11
33.3959863526
 21
69.4348034529
  0
LINE
  5
29B
100
AcDbEntity
  8
0
100
AcDbLine
 62
7
  6
CONTINUOUS
 10
33.1370866638
 20
73.421857801
 11
33.1500316303
 21
73.5254182479
  0
LINE
  5
29C
100
AcDbEntity
  8
0
100
AcDbLine
 62
7
  6
CONTINUOUS
 10
32.1403229874
 20
74.9882020621
 11
32.1014879983
 21
74.7163562445
  0
LINE
  5
29D
100
AcDbEntity
  8
0
100
AcDbLine
 62
7
  6
CONTINUOUS
 10
30.0561804217
 20
74.3409528406
 11
30.0302906673
 21
74.1856121686
  0
LINE
  5
29E
100
AcDbEntity
  8
0
100
AcDbLine
 62
7
  6
CONTINUOUS
 10
33.2406465751
 20
62.4445118575
 11
32.8911320314
 21
62.4056770472
  0
LINE
  5
29F
100
AcDbEntity
  8
0
100
AcDbLine
 62
7
  6
CONTINUOUS
 10
28.5286724013
 20
68.127360311
 11
28.8134622028
 21
68.1532497077
  0
LINE
  5
2A0
100
AcDbEntity
  8
0
100
AcDbLine
 62
7
  6
CONTINUOUS
 10
30.5610347432
 20
67.2859363227
 11
28.9170219344
 21
67.2859363227
  0
LINE
  5
2A1
100
AcDbEntity
  8
0
100
AcDbLine
 62
7
  6
CONTINUOUS
 10
31.3765689772
 20
67.6354503303
 11
32.0626530093
 21
67.6354503303
  0
LINE
  5
2A2
100
AcDbEntity
  8
0
100
AcDbLine
 62
7
  6
CONTINUOUS
 10
32.3862776202
 20
67.6354503303
 11
33.0982517642
 21
67.6354503303
  0
LINE
  5
2A3
100
AcDbEntity
  8
0
100
AcDbLine
 62
7
  6
CONTINUOUS
 10
32.6840122974
 20
70.5221824317
 11
32.5416173977
 21
70.5221824317
  0
LINE
  5
2A4
100
AcDbEntity
  8
0
100
AcDbLine
 62
7
  6
CONTINUOUS
 10
29.7584459227
 20
71.285935369
 11
30.2762453001
 21
71.285935369
  0
LINE
  5
2A5
100
AcDbEntity
  8
0
100
AcDbLine
 62
7
  6
CONTINUOUS
 10
32.9688019198
 20
71.8943504958
 11
33.2406465751
 21
71.8943504958
  0
LINE
  5
2A6
100
AcDbEntity
  8
0
100
AcDbLine
 62
7
  6
CONTINUOUS
 10
29.2924264115
 20
73.7454824119
 11
29.1692719307
 21
73.7454824119
  0
LINE
  5
2A7
100
AcDbEntity
  8
0
100
AcDbLine
 62
7
  6
CONTINUOUS
 10
33.0594167751
 20
73.9396571784
 11
33.3442064416
 21
73.9396571784
  0
LINE
  5
2A8
100
AcDbEntity
  8
0
100
AcDbLine
 62
7
  6
CONTINUOUS
 10
30.5739797991
 20
71.6613402038
 11
27.8555334258
 21
71.6872310309
  0
LINE
  5
2A9
100
AcDbEntity
  8
0
100
AcDbLine
 62
7
  6
CONTINUOUS
 10
27.8814235371
 20
72.5286550193
 11
30.5998699104
 21
72.5027641921
  0
LINE
  5
2AA
100
AcDbEntity
  8
0
100
AcDbLine
 62
7
  6
CONTINUOUS
 10
33.3959863525
 20
69.434803453
 11
31.0529443672
 21
69.4606928496
  0
LINE
  5
2AB
100
AcDbEntity
  8
0
100
AcDbLine
 62
7
  6
CONTINUOUS
 10
31.0788342994
 20
69.7454833655
 11
33.4218763304
 21
69.7195925383
  0
LINE
  5
2AC
100
AcDbEntity
  8
0
100
AcDbLine
 62
7
  6
CONTINUOUS
 10
28.8134622028
 20
68.1532497076
 11
30.5869248553
 21
68.127360311
  0
LINE
  5
2AD
100
AcDbEntity
  8
0
100
AcDbLine
 62
7
  6
CONTINUOUS
 10
27.972037856
 20
74.8975863128
 11
26.5480902833
 21
74.9234771399
  0
LINE
  5
2AE
100
AcDbEntity
  8
0
100
AcDbLine
 62
7
  6
CONTINUOUS
 10
31.959093098
 20
73.9137677817
 11
32.2697728318
 21
73.9008230833
  0
LINE
  5
2AF
100
AcDbEntity
  8
0
100
AcDbLine
 62
7
  6
CONTINUOUS
 10
31.8814232987
 20
75.790790525
 11
32.1403229871
 21
75.7649011283
  0
LINE
  5
2B0
100
AcDbEntity
  8
0
100
AcDbLine
 62
7
  6
CONTINUOUS
 10
28.9170219344
 20
77.0335087447
 11
28.813462202
 21
77.046453443
  0
LINE
  5
2B1
100
AcDbEntity
  8
0
100
AcDbLine
 62
7
  6
CONTINUOUS
 10
32.1363987424
 20
172.8117240095
 11
32.0823742081
 21
173.2079045908
  0
LINE
  5
2B2
100
AcDbEntity
  8
0
100
AcDbLine
 62
7
  6
CONTINUOUS
 10
29.6937210006
 20
65.4089135795
 11
29.7455008668
 21
65.5642535358
  0
LINE
  5
2B3
100
AcDbEntity
  8
0
100
AcDbLine
 62
7
  6
CONTINUOUS
 10
32.8781869751
 20
70.5480718284
 11
32.6840122974
 21
70.5221824316
  0
LINE
  5
2B4
100
AcDbEntity
  8
0
100
AcDbLine
 62
7
  6
CONTINUOUS
 10
32.8652420085
 20
72.709883657
 11
32.6710672425
 21
72.6839942604
  0
LINE
  5
2B5
100
AcDbEntity
  8
0
100
AcDbLine
 62
7
  6
CONTINUOUS
 10
27.2471190136
 20
71.6095599799
 11
27.1306138675
 21
71.5966152815
  0
LINE
  5
2B6
100
AcDbEntity
  8
0
100
AcDbLine
 62
7
  6
CONTINUOUS
 10
31.8814232987
 20
76.9558391242
 11
32.1921028536
 21
76.9687838225
  0
LINE
  5
2B7
100
AcDbEntity
  8
0
100
AcDbLine
 62
7
  6
CONTINUOUS
 10
30.5739797992
 20
74.8975863128
 11
30.3798050326
 21
74.8975863128
  0
LINE
  5
2B8
100
AcDbEntity
  8
0
100
AcDbLine
 62
7
  6
CONTINUOUS
 10
28.5545625132
 20
74.8975863128
 11
29.8361159009
 21
74.8975863128
  0
LINE
  5
2B9
100
AcDbEntity
  8
0
100
AcDbLine
 62
7
  6
CONTINUOUS
 10
33.0723617416
 20
74.9882020621
 11
32.1403229874
 21
74.9882020621
  0
LINE
  5
2BA
100
AcDbEntity
  8
0
100
AcDbLine
 62
7
  6
CONTINUOUS
 10
31.5322031367
 20
75.2988805442
 11
31.8555333656
 21
75.2988805442
  0
LINE
  5
2BB
100
AcDbEntity
  8
0
100
AcDbLine
 62
7
  6
CONTINUOUS
 10
32.1403229874
 20
75.2988805442
 11
32.9429118973
 21
75.2988805442
  0
LINE
  5
2BC
100
AcDbEntity
  8
0
100
AcDbLine
 62
7
  6
CONTINUOUS
 10
33.0594167751
 20
75.8684601455
 11
33.3183164638
 21
75.8684601455
  0
LINE
  5
2BD
100
AcDbEntity
  8
0
100
AcDbLine
 62
7
  6
CONTINUOUS
 10
29.2924264115
 20
76.1144151359
 11
29.1888666791
 21
76.1144151359
  0
LINE
  5
2BE
100
AcDbEntity
  8
0
100
AcDbLine
 62
7
  6
CONTINUOUS
 10
29.7584459227
 20
78.9234761863
 11
30.2633002442
 21
78.9234761863
  0
LINE
  5
2BF
100
AcDbEntity
  8
0
100
AcDbLine
 62
7
  6
CONTINUOUS
 10
33.0594167751
 20
80.9299502044
 11
33.3312614304
 21
80.9299502044
  0
LINE
  5
2C0
100
AcDbEntity
  8
0
100
AcDbLine
 62
7
  6
CONTINUOUS
 10
26.5739796799
 20
75.7649011283
 11
30.5998699117
 21
75.7390103011
  0
LINE
  5
2C1
100
AcDbEntity
  8
0
100
AcDbLine
 62
7
  6
CONTINUOUS
 10
30.5610347432
 20
79.3765506415
 11
27.8555334253
 21
79.4024414686
  0
LINE
  5
2C2
100
AcDbEntity
  8
0
100
AcDbLine
 62
7
  6
CONTINUOUS
 10
33.3959863526
 20
76.6322145133
 11
31.855533365
 21
76.6581039099
  0
LINE
  5
2C3
100
AcDbEntity
  8
0
100
AcDbLine
 62
7
  6
CONTINUOUS
 10
33.3959863525
 20
78.5739621787
 11
31.855533365
 21
78.5998515753
  0
LINE
  5
2C4
100
AcDbEntity
  8
0
100
AcDbLine
 62
7
  6
CONTINUOUS
 10
31.8814232987
 20
78.8846420913
 11
33.4218763311
 21
78.8587512641
  0
LINE
  5
2C5
100
AcDbEntity
  8
0
100
AcDbLine
 62
7
  6
CONTINUOUS
 10
29.4607114237
 20
80.2438654571
 11
30.586924855
 21
80.2179760604
  0
LINE
  5
2C6
100
AcDbEntity
  8
0
100
AcDbLine
 62
7
  6
CONTINUOUS
 10
32.5933973533
 20
76.9558391242
 11
33.42187633
 21
76.9299497275
  0
LINE
  5
2C7
100
AcDbEntity
  8
0
100
AcDbLine
 62
7
  6
CONTINUOUS
 10
31.959093098
 20
80.9040579467
 11
32.2697728318
 21
80.8911146788
  0
LINE
  5
2C8
100
AcDbEntity
  8
0
100
AcDbLine
 62
7
  6
CONTINUOUS
 10
33.0795775247
 20
171.7132246631
 11
33.1426061825
 21
171.3125421188
  0
LINE
  5
2C9
100
AcDbEntity
  8
0
100
AcDbLine
 62
7
  6
CONTINUOUS
 10
32.8781869751
 20
79.7001752524
 11
32.6451773088
 21
79.6742858557
  0
LINE
  5
2CA
100
AcDbEntity
  8
0
100
AcDbLine
 62
7
  6
CONTINUOUS
 10
27.8814235371
 20
80.2438654571
 11
28.6322324914
 21
80.2568087249
  0
LINE
  5
2CB
100
AcDbEntity
  8
0
100
AcDbLine
 62
7
  6
CONTINUOUS
 10
30.6811805407
 20
82.315305009
 11
27.9211805409
 21
82.3153050092
  0
LINE
  5
2CC
100
AcDbEntity
  8
0
100
AcDbLine
 62
7
  6
CONTINUOUS
 10
27.9211805411
 20
89.515305009
 11
30.6811805409
 21
89.515305009
  0
LINE
  5
2CD
100
AcDbEntity
  8
0
100
AcDbLine
 62
7
  6
CONTINUOUS
 10
30.5561805409
 20
160.4941250175
 11
32.8522241591
 21
159.7040158256
  0
LINE
  5
2CE
100
AcDbEntity
  8
0
100
AcDbLine
 62
7
  6
CONTINUOUS
 10
33.8561805409
 20
159.7017648367
 11
31.094175111
 21
160.6607005858
  0
LINE
  5
2CF
100
AcDbEntity
  8
0
100
AcDbLine
 62
7
  6
CONTINUOUS
 10
126.7561805402
 20
172.8403050085
 11
126.7561805402
 21
56.6403050095
  0
LINE
  5
2D0
100
AcDbEntity
  8
0
100
AcDbLine
 62
7
  6
CONTINUOUS
 10
33.856180541
 20
157.9324605392
 11
30.5561805421
 21
157.9324605395
  0
LINE
  5
2D1
100
AcDbEntity
  8
0
100
AcDbLine
 62
7
  6
CONTINUOUS
 10
31.0469035188
 20
158.3534018914
 11
33.856180541
 21
158.3534018919
  0
LINE
  5
2D2
100
AcDbEntity
  8
0
100
AcDbLine
 62
7
  6
CONTINUOUS
 10
33.8561805408
 20
160.6607005859
 11
31.0941751111
 21
160.6607005858
  0
LINE
  5
2D3
100
AcDbEntity
  8
0
100
AcDbLine
 62
7
  6
CONTINUOUS
 10
30.5561805408
 20
161.0816419626
 11
33.8561805415
 21
161.0816419629
  0
LINE
  5
2D4
100
AcDbEntity
  8
0
100
AcDbLine
 62
7
  6
CONTINUOUS
 10
32.656385167
 20
163.2606324094
 11
32.8049526889
 21
163.2606324094
  0
LINE
  5
2D5
100
AcDbEntity
  8
0
100
AcDbLine
 62
7
  6
CONTINUOUS
 10
32.3142296117
 20
163.6703184868
 11
32.8544752602
 21
163.6703184868
  0
LINE
  5
2D6
100
AcDbEntity
  8
0
100
AcDbLine
 62
7
  6
CONTINUOUS
 10
32.3389908974
 20
163.2606324094
 11
32.2331928086
 21
163.2628833918
  0
LINE
  5
2D7
100
AcDbEntity
  8
0
100
AcDbLine
 62
7
  6
CONTINUOUS
 10
31.7537248362
 20
165.8763214971
 11
31.465593914
 21
165.8763214971
  0
LINE
  5
2D8
100
AcDbEntity
  8
0
100
AcDbLine
 62
7
  6
CONTINUOUS
 10
31.465593914
 20
166.249991479
 11
33.5320332055
 21
166.249991479
  0
LINE
  5
2D9
100
AcDbEntity
  8
0
100
AcDbLine
 62
7
  6
CONTINUOUS
 10
33.8561805403
 20
169.4171812205
 11
30.556180539
 21
169.4171812205
  0
LINE
  5
2DA
100
AcDbEntity
  8
0
100
AcDbLine
 62
7
  6
CONTINUOUS
 10
30.5561805395
 20
169.82236494
 11
33.8561805403
 21
169.82236494
  0
LINE
  5
2DB
100
AcDbEntity
  8
0
100
AcDbLine
 62
7
  6
CONTINUOUS
 10
33.8561805403
 20
170.4526515144
 11
31.465593914
 21
170.4526515144
  0
LINE
  5
2DC
100
AcDbEntity
  8
0
100
AcDbLine
 62
7
  6
CONTINUOUS
 10
31.0221423306
 20
170.4526515144
 11
30.556180539
 21
170.4526515144
  0
LINE
  5
2DD
100
AcDbEntity
  8
0
100
AcDbLine
 62
7
  6
CONTINUOUS
 10
30.5561805393
 20
170.8578360217
 11
31.0221423306
 21
170.8578360217
  0
LINE
  5
2DE
100
AcDbEntity
  8
0
100
AcDbLine
 62
7
  6
CONTINUOUS
 10
31.465593914
 20
170.8578360217
 11
33.8561805403
 21
170.8578360217
  0
LINE
  5
2DF
100
AcDbEntity
  8
0
100
AcDbLine
 62
7
  6
CONTINUOUS
 10
32.656385167
 20
168.9309598121
 11
32.7644343365
 21
168.9287088296
  0
LINE
  5
2E0
100
AcDbEntity
  8
0
100
AcDbLine
 62
7
  6
CONTINUOUS
 10
145.9061805409
 20
191.8108290202
 11
145.9061805409
 21
37.6036630734
  0
LINE
  5
2E1
100
AcDbEntity
  8
0
100
AcDbLine
 62
7
  6
CONTINUOUS
 10
38.8561805433
 20
173.3403050086
 11
126.2561805385
 21
173.3403050086
  0
LINE
  5
2E2
100
AcDbEntity
  8
0
100
AcDbLine
 62
7
  6
CONTINUOUS
 10
147.0106813573
 20
191.9948058258
 11
147.0106813573
 21
37.4858041926
  0
LINE
  5
2E3
100
AcDbEntity
  8
0
100
AcDbLine
 62
7
  6
CONTINUOUS
 10
147.2561805402
 20
191.8611397074
 11
147.2561805402
 21
37.573738396
  0
LINE
  5
2E4
100
AcDbEntity
  8
0
100
AcDbLine
 62
7
  6
CONTINUOUS
 10
22.1774097394
 20
194.890305009
 11
142.8267045522
 21
194.890305009
  0
LINE
  5
2E5
100
AcDbEntity
  8
0
100
AcDbLine
 62
7
  6
CONTINUOUS
 10
22.1016797237
 20
195.9948058254
 11
143.0106813573
 21
195.9948058254
  0
LINE
  5
2E6
100
AcDbEntity
  8
0
100
AcDbLine
 62
7
  6
CONTINUOUS
 10
22.1417985676
 20
196.2403050096
 11
142.8770152386
 21
196.2403050097
  0
LINE
  5
2E7
100
AcDbEntity
  8
0
100
AcDbLine
 62
7
  6
CONTINUOUS
 10
142.9227471845
 20
33.2403050097
 11
143.0106813579
 21
33.4858041926
  0
LINE
  5
2E8
100
AcDbEntity
  8
0
100
AcDbLine
 62
7
  6
CONTINUOUS
 10
17.8561805417
 20
191.9546869838
 11
18.1016797245
 21
191.9948058251
  0
LINE
  5
2E9
100
AcDbEntity
  8
0
100
AcDbLine
 62
7
  6
CONTINUOUS
 10
147.2561805401
 20
37.5737383961
 11
147.0106813573
 21
37.4858041926
  0
LINE
  5
2EA
100
AcDbEntity
  8
0
100
AcDbLine
 62
7
  6
CONTINUOUS
 10
147.2561805401
 20
191.8611397087
 11
147.0106813573
 21
191.9948058258
  0
LINE
  5
2EB
100
AcDbEntity
  8
0
100
AcDbLine
 62
7
  6
CONTINUOUS
 10
142.8770152386
 20
196.2403050097
 11
143.0106813573
 21
195.9948058254
  0
ARC
  5
2EC
100
AcDbEntity
  8
0
100
AcDbCircle
 62
7
  6
CONTINUOUS
 10
22.1565081765
 20
37.5406326445
 40
4.3003276454
100
AcDbArc
 50
180.0039997425
 51
269.9960002575
  0
ARC
  5
2ED
100
AcDbEntity
  8
0
100
AcDbCircle
 62
7
  6
CONTINUOUS
 10
22.1019589787
 20
37.4860834468
 40
4.000279264
100
AcDbArc
 50
180.0066425311
 51
269.993813885
  0
ARC
  5
2EE
100
AcDbEntity
  8
0
100
AcDbCircle
 62
7
  6
CONTINUOUS
 10
22.2237629467
 20
37.6078874148
 40
3.0175824057
100
AcDbArc
 50
179.9999999928
 51
270.0000000072
  0
ARC
  5
2EF
100
AcDbEntity
  8
0
100
AcDbCircle
 62
7
  6
CONTINUOUS
 10
29.2526570405
 20
69.580013317
 40
1.7577433096
100
AcDbArc
 50
90.3914997198
 51
109.8154910985
  0
ARC
  5
2F0
100
AcDbEntity
  8
0
100
AcDbCircle
 62
7
  6
CONTINUOUS
 10
28.8826307357
 20
70.2174459619
 40
1.7560840434
100
AcDbArc
 50
359.8060828539
 51
37.4775149745
  0
ARC
  5
2F1
100
AcDbEntity
  8
0
100
AcDbCircle
 62
7
  6
CONTINUOUS
 10
29.4707863056
 20
74.1676702714
 40
1.6670405942
100
AcDbArc
 50
154.0331284704
 51
179.9148179062
  0
ARC
  5
2F2
100
AcDbEntity
  8
0
100
AcDbCircle
 62
7
  6
CONTINUOUS
 10
29.3150896251
 20
74.1967705488
 40
1.5115286117
100
AcDbArc
 50
181.0092795136
 51
199.9612727546
  0
ARC
  5
2F3
100
AcDbEntity
  8
0
100
AcDbCircle
 62
7
  6
CONTINUOUS
 10
29.2292396668
 20
60.8382054442
 40
1.4228203471
100
AcDbArc
 50
269.9380588735
 51
278.9236926438
  0
ARC
  5
2F4
100
AcDbEntity
  8
0
100
AcDbCircle
 62
7
  6
CONTINUOUS
 10
29.2492341944
 20
69.7887747436
 40
1.3119285319
100
AcDbArc
 50
269.6249494145
 51
302.6481094807
  0
ARC
  5
2F5
100
AcDbEntity
  8
0
100
AcDbCircle
 62
7
  6
CONTINUOUS
 10
29.4335670851
 20
57.985886461
 40
1.2482703871
100
AcDbArc
 50
89.9424308168
 51
97.9396044072
  0
ARC
  5
2F6
100
AcDbEntity
  8
0
100
AcDbCircle
 62
7
  6
CONTINUOUS
 10
29.2982837015
 20
77.3136546035
 40
1.1992537716
100
AcDbArc
 50
269.7201598687
 51
304.0857585818
  0
ARC
  5
2F7
100
AcDbEntity
  8
0
100
AcDbCircle
 62
7
  6
CONTINUOUS
 10
29.4537335171
 20
74.1377113465
 40
1.1979225418
100
AcDbArc
 50
359.8144506542
 51
39.3701090804
  0
ARC
  5
2F8
100
AcDbEntity
  8
0
100
AcDbCircle
 62
7
  6
CONTINUOUS
 10
32.5834113907
 20
70.7655209377
 40
1.1461976249
100
AcDbArc
 50
84.9647133273
 51
103.2063394476
  0
ARC
  5
2F9
100
AcDbEntity
  8
0
100
AcDbCircle
 62
7
  6
CONTINUOUS
 10
31.2871912106
 20
65.2984453145
 40
1.115785908
100
AcDbArc
 50
87.4076541569
 51
115.2778162292
  0
ARC
  5
2FA
100
AcDbEntity
  8
0
100
AcDbCircle
 62
7
  6
CONTINUOUS
 10
31.2007708345
 20
65.3342018027
 40
1.0356970181
100
AcDbArc
 50
143.4096978993
 51
150.6641567385
  0
ARC
  5
2FB
100
AcDbEntity
  8
0
100
AcDbCircle
 62
7
  6
CONTINUOUS
 10
29.1697374797
 20
74.7143735455
 40
0.9689147222
100
AcDbArc
 50
252.5962712049
 51
269.600197115
  0
ARC
  5
2FC
100
AcDbEntity
  8
0
100
AcDbCircle
 62
7
  6
CONTINUOUS
 10
32.3306509151
 20
71.3530600734
 40
0.806777817
100
AcDbArc
 50
342.0712767691
 51
1.6685237814
  0
ARC
  5
2FD
100
AcDbEntity
  8
0
100
AcDbCircle
 62
7
  6
CONTINUOUS
 10
29.1892897513
 20
74.4057021719
 40
0.8030122507
100
AcDbArc
 50
142.2259776343
 51
180.0017416318
  0
ARC
  5
2FE
100
AcDbEntity
  8
0
100
AcDbCircle
 62
7
  6
CONTINUOUS
 10
38.8561805416
 20
56.6403050094
 40
0.5
100
AcDbArc
 50
179.9999999886
 51
270.0000001948
  0
ARC
  5
2FF
100
AcDbEntity
  8
0
100
AcDbCircle
 62
7
  6
CONTINUOUS
 10
22.1420977614
 20
191.9543877898
 40
4.2859172303
100
AcDbArc
 50
90.0039997415
 51
179.9960002572
  0
ARC
  5
300
100
AcDbEntity
  8
0
100
AcDbCircle
 62
7
  6
CONTINUOUS
 10
22.1019589787
 20
191.9945265711
 40
4.000279264
100
AcDbArc
 50
90.0063489034
 51
179.9935127089
  0
ARC
  5
301
100
AcDbEntity
  8
0
100
AcDbCircle
 62
7
  6
CONTINUOUS
 10
22.1774097396
 20
191.9190758103
 40
2.9712291987
100
AcDbArc
 50
90.0000000044
 51
179.9999999956
  0
ARC
  5
302
100
AcDbEntity
  8
0
100
AcDbCircle
 62
7
  6
CONTINUOUS
 10
35.1424619175
 20
162.8074393628
 40
2.6766595562
100
AcDbArc
 50
185.7739809442
 51
193.5942520479
  0
ARC
  5
303
100
AcDbEntity
  8
0
100
AcDbCircle
 62
7
  6
CONTINUOUS
 10
33.0124074117
 20
162.7184463024
 40
1.6010607104
100
AcDbArc
 50
179.0443963485
 51
198.7983511216
  0
ARC
  5
304
100
AcDbEntity
  8
0
100
AcDbCircle
 62
7
  6
CONTINUOUS
 10
32.6311576607
 20
165.7400698237
 40
1.5971186087
100
AcDbArc
 50
247.3726026779
 51
270.5820152954
  0
ARC
  5
305
100
AcDbEntity
  8
0
100
AcDbCircle
 62
7
  6
CONTINUOUS
 10
32.6370534904
 20
162.4190105002
 40
1.2731605129
100
AcDbArc
 50
359.7856599223
 51
20.2632977697
  0
ARC
  5
306
100
AcDbEntity
  8
0
100
AcDbCircle
 62
7
  6
CONTINUOUS
 10
32.3925864074
 20
165.16002281
 40
0.9811910923
100
AcDbArc
 50
178.9207488779
 51
213.0247054334
  0
ARC
  5
307
100
AcDbEntity
  8
0
100
AcDbCircle
 62
7
  6
CONTINUOUS
 10
33.4885725997
 20
162.4271660275
 40
0.9799099502
100
AcDbArc
 50
194.7121575943
 51
213.5743737568
  0
ARC
  5
308
100
AcDbEntity
  8
0
100
AcDbCircle
 62
7
  6
CONTINUOUS
 10
33.4137201036
 20
164.5737915057
 40
0.8925534082
100
AcDbArc
 50
280.1036750655
 51
299.7175245908
  0
ARC
  5
309
100
AcDbEntity
  8
0
100
AcDbCircle
 62
7
  6
CONTINUOUS
 10
32.7461577577
 20
162.5256385906
 40
0.8467788929
100
AcDbArc
 50
359.0122892672
 51
28.3303172504
  0
ARC
  5
30A
100
AcDbEntity
  8
0
100
AcDbCircle
 62
7
  6
CONTINUOUS
 10
33.9479471225
 20
165.3823585778
 40
0.8406995981
100
AcDbArc
 50
27.8443430165
 51
63.5702768121
  0
ARC
  5
30B
100
AcDbEntity
  8
0
100
AcDbCircle
 62
7
  6
CONTINUOUS
 10
33.494197206
 20
164.1156113322
 40
0.823950113
100
AcDbArc
 50
274.6711186013
 51
296.0503783973
  0
ARC
  5
30C
100
AcDbEntity
  8
0
100
AcDbCircle
 62
7
  6
CONTINUOUS
 10
33.2309307335
 20
162.2745685953
 40
0.6810343641
100
AcDbArc
 50
214.8651661437
 51
241.5267623029
  0
ARC
  5
30D
100
AcDbEntity
  8
0
100
AcDbCircle
 62
7
  6
CONTINUOUS
 10
32.9090455067
 20
167.8535201174
 40
0.668175584
100
AcDbArc
 50
313.4155076746
 51
1.2826496627
  0
ARC
  5
30E
100
AcDbEntity
  8
0
100
AcDbCircle
 62
7
  6
CONTINUOUS
 10
32.3902316163
 20
167.8333357942
 40
0.6456824195
100
AcDbArc
 50
178.679343034
 51
224.8063596946
  0
ARC
  5
30F
100
AcDbEntity
  8
0
100
AcDbCircle
 62
7
  6
CONTINUOUS
 10
33.2148168741
 20
162.2399984341
 40
0.6429677325
100
AcDbArc
 50
241.320331884
 51
270.9871531719
  0
ARC
  5
310
100
AcDbEntity
  8
0
100
AcDbCircle
 62
7
  6
CONTINUOUS
 10
32.0587553908
 20
163.0282470013
 40
0.6316530356
100
AcDbArc
 50
100.7593248806
 51
128.3901009083
  0
ARC
  5
311
100
AcDbEntity
  8
0
100
AcDbCircle
 62
7
  6
CONTINUOUS
 10
32.9382750293
 20
162.6263734544
 40
0.6298730311
100
AcDbArc
 50
28.5577772386
 51
64.3811011505
  0
ARC
  5
312
100
AcDbEntity
  8
0
100
AcDbCircle
 62
7
  6
CONTINUOUS
 10
32.3713646934
 20
167.8604696242
 40
0.626763749
100
AcDbArc
 50
128.7124974887
 51
181.1201177183
  0
ARC
  5
313
100
AcDbEntity
  8
0
100
AcDbCircle
 62
7
  6
CONTINUOUS
 10
32.9200030566
 20
165.2230696356
 40
0.6008358468
100
AcDbArc
 50
359.1847160832
 51
49.9105638663
  0
ARC
  5
314
100
AcDbEntity
  8
0
100
AcDbCircle
 62
7
  6
CONTINUOUS
 10
32.1127877665
 20
171.9798247261
 40
0.5982386818
100
AcDbArc
 50
290.5292324723
 51
301.153831691
  0
ARC
  5
315
100
AcDbEntity
  8
0
100
AcDbCircle
 62
7
  6
CONTINUOUS
 10
32.923770665
 20
165.2050038193
 40
0.5970832567
100
AcDbArc
 50
309.7087460942
 51
0.9132442379
  0
ARC
  5
316
100
AcDbEntity
  8
0
100
AcDbCircle
 62
7
  6
CONTINUOUS
 10
32.0706121663
 20
171.9342358609
 40
0.5502137021
100
AcDbArc
 50
241.1944607189
 51
245.4705515118
  0
ARC
  5
317
100
AcDbEntity
  8
0
100
AcDbCircle
 62
7
  6
CONTINUOUS
 10
33.9375541804
 20
165.2752202892
 40
0.5470133646
100
AcDbArc
 50
36.5227942897
 51
76.744780569
  0
ARC
  5
318
100
AcDbEntity
  8
0
100
AcDbCircle
 62
7
  6
CONTINUOUS
 10
32.1494924559
 20
171.9189400498
 40
0.5271459993
100
AcDbArc
 50
301.1632596817
 51
304.7740357261
  0
ARC
  5
319
100
AcDbEntity
  8
0
100
AcDbCircle
 62
7
  6
CONTINUOUS
 10
38.8561805416
 20
172.8403050086
 40
0.5
100
AcDbArc
 50
89.9999998052
 51
180.0000000114
  0
ARC
  5
31A
100
AcDbEntity
  8
0
100
AcDbCircle
 62
7
  6
CONTINUOUS
 10
33.2177710881
 20
162.378930543
 40
0.3528903654
100
AcDbArc
 50
202.1900169076
 51
236.4611319874
  0
ARC
  5
31B
100
AcDbEntity
  8
0
100
AcDbCircle
 62
7
  6
CONTINUOUS
 10
33.2117721182
 20
162.3788812985
 40
0.3495702483
100
AcDbArc
 50
237.2762516285
 51
270.4698826761
  0
ARC
  5
31C
100
AcDbEntity
  8
0
100
AcDbCircle
 62
7
  6
CONTINUOUS
 10
33.2202616789
 20
162.3777420471
 40
0.3484646085
100
AcDbArc
 50
269.0754446601
 51
319.380032081
  0
ARC
  5
31D
100
AcDbEntity
  8
0
100
AcDbCircle
 62
7
  6
CONTINUOUS
 10
142.9224446214
 20
37.5740409285
 40
4.3337359294
100
AcDbArc
 50
270.003999743
 51
359.9960002571
  0
ARC
  5
31E
100
AcDbEntity
  8
0
100
AcDbCircle
 62
7
  6
CONTINUOUS
 10
143.0104021031
 20
37.4860834468
 40
4.000279264
100
AcDbArc
 50
270.0066426701
 51
359.9938140182
  0
ARC
  5
31F
100
AcDbEntity
  8
0
100
AcDbCircle
 62
7
  6
CONTINUOUS
 10
142.8928224762
 20
37.6036630737
 40
3.0133580647
100
AcDbArc
 50
270.0
 51
359.9999999943
  0
ARC
  5
320
100
AcDbEntity
  8
0
100
AcDbCircle
 62
7
  6
CONTINUOUS
 10
126.2561805402
 20
56.6403050094
 40
0.5
100
AcDbArc
 50
269.9999998052
 51
360.0
  0
ARC
  5
321
100
AcDbEntity
  8
0
100
AcDbCircle
 62
7
  6
CONTINUOUS
 10
142.8767095137
 20
191.8608339831
 40
4.3794710372
100
AcDbArc
 50
0.0039997421
 51
89.9960002592
  0
ARC
  5
322
100
AcDbEntity
  8
0
100
AcDbCircle
 62
7
  6
CONTINUOUS
 10
143.0104021031
 20
191.9945265711
 40
4.000279264
100
AcDbArc
 50
0.0063487666
 51
89.9935125735
  0
ARC
  5
323
100
AcDbEntity
  8
0
100
AcDbCircle
 62
7
  6
CONTINUOUS
 10
142.8267045525
 20
191.8108290206
 40
3.0794759884
100
AcDbArc
 50
0.0
 51
90.0000000056
  0
ARC
  5
324
100
AcDbEntity
  8
0
100
AcDbCircle
 62
7
  6
CONTINUOUS
 10
126.2561805402
 20
172.8403050086
 40
0.5
100
AcDbArc
 50
0.0
 51
90.0000001948
  0
SPLINE
  5
325
100
AcDbEntity
  8
0
100
AcDbSpline
 62
7
  6
CONTINUOUS
 70
0
 71
3
 72
9
 73
5
 74
0
 42
0.0000001
 43
0.0000001
 44
0.0000000001
 40
0.0
 40
0.0
 40
0.0
 40
0.0
 40
0.5590054029
 40
1.0
 40
1.0
 40
1.0
 40
1.0
 10
31.9793785778
 20
168.3495296228
 30
0.0
 10
32.0368942401
 20
168.3974593413
 30
0.0
 10
32.1739922104
 20
168.4660374316
 30
0.0
 10
32.3502092141
 20
168.4959781047
 30
0.0
 10
32.4312829026
 20
168.5032654914
 30
0.0
  0
SPLINE
  5
326
100
AcDbEntity
  8
0
100
AcDbSpline
 62
7
  6
CONTINUOUS
 70
0
 71
3
 72
10
 73
6
 74
0
 42
0.0000001
 43
0.0000001
 44
0.0000000001
 40
0.0
 40
0.0
 40
0.0
 40
0.0
 40
0.4209247757
 40
0.8086068506
 40
1.0
 40
1.0
 40
1.0
 40
1.0
 10
32.4312829026
 20
167.1684083852
 30
0.0
 10
32.3463974489
 20
167.1739446103
 30
0.0
 10
32.1896845099
 20
167.2038668645
 30
0.0
 10
32.032858796
 20
167.2876057743
 30
0.0
 10
31.9557686222
 20
167.354458165
 30
0.0
 10
31.9321247697
 20
167.378315021
 30
0.0
  0
SPLINE
  5
327
100
AcDbEntity
  8
0
100
AcDbSpline
 62
7
  6
CONTINUOUS
 70
0
 71
3
 72
9
 73
5
 74
0
 42
0.0000001
 43
0.0000001
 44
0.0000000001
 40
0.0
 40
0.0
 40
0.0
 40
0.0
 40
0.5648220681
 40
1.0
 40
1.0
 40
1.0
 40
1.0
 10
33.3682719885
 20
167.3681649387
 30
0.0
 10
33.2898067573
 20
167.2928637073
 30
0.0
 10
33.1095095611
 20
167.1884699737
 30
0.0
 10
32.8718589202
 20
167.151407424
 30
0.0
 10
32.7644343362
 20
167.1458985719
 30
0.0
  0
SPLINE
  5
328
100
AcDbEntity
  8
0
100
AcDbSpline
 62
7
  6
CONTINUOUS
 70
0
 71
3
 72
9
 73
5
 74
0
 42
0.0000001
 43
0.0000001
 44
0.0000000001
 40
0.0
 40
0.0
 40
0.0
 40
0.0
 40
0.8093817414
 40
1.0
 40
1.0
 40
1.0
 40
1.0
 10
32.6563851673
 20
168.9309598121
 30
0.0
 10
32.3659188077
 20
168.9309598121
 30
0.0
 10
32.0299733836
 20
168.8597989176
 30
0.0
 10
31.7820724628
 20
168.6671561812
 30
0.0
 10
31.738492018
 20
168.6265111721
 30
0.0
  0
SPLINE
  5
329
100
AcDbEntity
  8
0
100
AcDbSpline
 62
7
  6
CONTINUOUS
 70
0
 71
3
 72
9
 73
5
 74
0
 42
0.0000001
 43
0.0000001
 44
0.0000000001
 40
0.0
 40
0.0
 40
0.0
 40
0.0
 40
0.5943732629
 40
1.0
 40
1.0
 40
1.0
 40
1.0
 10
31.738492018
 20
168.6265111721
 30
0.0
 10
31.610837818
 20
168.5074553396
 30
0.0
 10
31.452846319
 20
168.2638111225
 30
0.0
 10
31.4115693797
 20
167.967339587
 30
0.0
 10
31.4115693797
 20
167.8437153722
 30
0.0
  0
SPLINE
  5
32A
100
AcDbEntity
  8
0
100
AcDbSpline
 62
7
  6
CONTINUOUS
 70
0
 71
3
 72
9
 73
5
 74
0
 42
0.0000001
 43
0.0000001
 44
0.0000000001
 40
0.0
 40
0.0
 40
0.0
 40
0.0
 40
0.6048984824
 40
1.0
 40
1.0
 40
1.0
 40
1.0
 10
31.4115693797
 20
167.8437153722
 30
0.0
 10
31.4115693797
 20
167.6536393763
 30
0.0
 10
31.4751432027
 20
167.3557018642
 30
0.0
 10
31.658378859
 20
167.1195446533
 30
0.0
 10
31.7452444383
 20
167.0384112547
 30
0.0
  0
SPLINE
  5
32B
100
AcDbEntity
  8
0
100
AcDbSpline
 62
7
  6
CONTINUOUS
 70
0
 71
3
 72
9
 73
5
 74
0
 42
0.0000001
 43
0.0000001
 44
0.0000000001
 40
0.0
 40
0.0
 40
0.0
 40
0.0
 40
0.5818100913
 40
1.0
 40
1.0
 40
1.0
 40
1.0
 10
31.7452444383
 20
167.0384112547
 30
0.0
 10
31.8808879586
 20
166.9117187268
 30
0.0
 10
32.1739449527
 20
166.763110805
 30
0.0
 10
32.5283000778
 20
166.7272081754
 30
0.0
 10
32.6811464526
 20
166.7272081754
 30
0.0
  0
SPLINE
  5
32C
100
AcDbEntity
  8
0
100
AcDbSpline
 62
7
  6
CONTINUOUS
 70
0
 71
3
 72
9
 73
5
 74
0
 42
0.0000001
 43
0.0000001
 44
0.0000000001
 40
0.0
 40
0.0
 40
0.0
 40
0.0
 40
0.8088516682
 40
1.0
 40
1.0
 40
1.0
 40
1.0
 10
32.6811464526
 20
166.7272081754
 30
0.0
 10
32.9684726043
 20
166.7272081754
 30
0.0
 10
33.3003520062
 20
166.7987830349
 30
0.0
 10
33.5451261234
 20
166.9924135581
 30
0.0
 10
33.5883087762
 20
167.0333471398
 30
0.0
  0
SPLINE
  5
32D
100
AcDbEntity
  8
0
100
AcDbSpline
 62
7
  6
CONTINUOUS
 70
0
 71
3
 72
9
 73
5
 74
0
 42
0.0000001
 43
0.0000001
 44
0.0000000001
 40
0.0
 40
0.0
 40
0.0
 40
0.0
 40
0.5884161801
 40
1.0
 40
1.0
 40
1.0
 40
1.0
 10
33.5883087762
 20
167.0333471398
 30
0.0
 10
33.7172139112
 20
167.1555385409
 30
0.0
 10
33.8722620937
 20
167.4143489465
 30
0.0
 10
33.9102050946
 20
167.7315927945
 30
0.0
 10
33.9102050946
 20
167.8662259715
 30
0.0
  0
SPLINE
  5
32E
100
AcDbEntity
  8
0
100
AcDbSpline
 62
7
  6
CONTINUOUS
 70
0
 71
3
 72
9
 73
5
 74
0
 42
0.0000001
 43
0.0000001
 44
0.0000000001
 40
0.0
 40
0.0
 40
0.0
 40
0.0
 40
0.806846248
 40
1.0
 40
1.0
 40
1.0
 40
1.0
 10
33.9102050946
 20
167.8662259715
 30
0.0
 10
33.9102050946
 20
168.0745313046
 30
0.0
 10
33.8609469611
 20
168.3178444201
 30
0.0
 10
33.7341955081
 20
168.5141896141
 30
0.0
 10
33.7070724503
 20
168.550127628
 30
0.0
  0
SPLINE
  5
32F
100
AcDbEntity
  8
0
100
AcDbSpline
 62
7
  6
CONTINUOUS
 70
0
 71
3
 72
9
 73
5
 74
0
 42
0.0000001
 43
0.0000001
 44
0.0000000001
 40
0.0
 40
0.0
 40
0.0
 40
0.0
 40
0.7927557487
 40
1.0
 40
1.0
 40
1.0
 40
1.0
 10
33.7070724503
 20
168.550127628
 30
0.0
 10
33.5988437473
 20
168.6935305078
 30
0.0
 10
33.4130471469
 20
168.8290356334
 30
0.0
 10
33.1863897507
 20
168.904164238
 30
0.0
 10
33.1381041207
 20
168.917453923
 30
0.0
  0
SPLINE
  5
330
100
AcDbEntity
  8
0
100
AcDbSpline
 62
7
  6
CONTINUOUS
 70
0
 71
3
 72
9
 73
5
 74
0
 42
0.0000001
 43
0.0000001
 44
0.0000000001
 40
0.0
 40
0.0
 40
0.0
 40
0.0
 40
0.6329918817
 40
1.0
 40
1.0
 40
1.0
 40
1.0
 10
33.0863306154
 20
168.4987635283
 30
0.0
 10
33.1882864276
 20
168.4612006247
 30
0.0
 10
33.333017465
 20
168.3869073901
 30
0.0
 10
33.4316498104
 20
168.2875027315
 30
0.0
 10
33.4601874859
 20
168.2490389037
 30
0.0
  0
SPLINE
  5
331
100
AcDbEntity
  8
0
100
AcDbSpline
 62
7
  6
CONTINUOUS
 70
0
 71
3
 72
10
 73
6
 74
0
 42
0.0000001
 43
0.0000001
 44
0.0000000001
 40
0.0
 40
0.0
 40
0.0
 40
0.0
 40
0.3863909065
 40
0.7862232368
 40
1.0
 40
1.0
 40
1.0
 40
1.0
 10
33.4601874859
 20
168.2490389037
 30
0.0
 10
33.4901036827
 20
168.2087170685
 30
0.0
 10
33.5402480998
 20
168.119011304
 30
0.0
 10
33.5720486538
 20
167.9877954872
 30
0.0
 10
33.5770536684
 20
167.8996440437
 30
0.0
 10
33.5770536684
 20
167.8684769538
 30
0.0
  0
SPLINE
  5
332
100
AcDbEntity
  8
0
100
AcDbSpline
 62
7
  6
CONTINUOUS
 70
0
 71
3
 72
9
 73
5
 74
0
 42
0.0000001
 43
0.0000001
 44
0.0000000001
 40
0.0
 40
0.0
 40
0.0
 40
0.0
 40
0.5580921527
 40
1.0
 40
1.0
 40
1.0
 40
1.0
 10
31.9698231746
 20
165.675980224
 30
0.0
 10
32.0521786081
 20
165.7483531476
 30
0.0
 10
32.2502460042
 20
165.8469448794
 30
0.0
 10
32.512279824
 20
165.871819534
 30
0.0
 10
32.6316238795
 20
165.871819534
 30
0.0
  0
SPLINE
  5
333
100
AcDbEntity
  8
0
100
AcDbSpline
 62
7
  6
CONTINUOUS
 70
0
 71
3
 72
9
 73
5
 74
0
 42
0.0000001
 43
0.0000001
 44
0.0000000001
 40
0.0
 40
0.0
 40
0.0
 40
0.0
 40
0.6424930398
 40
1.0
 40
1.0
 40
1.0
 40
1.0
 10
32.6316238795
 20
165.871819534
 30
0.0
 10
32.8107987942
 20
165.871819534
 30
0.0
 10
33.0731864959
 20
165.8367346542
 30
0.0
 10
33.2547870089
 20
165.7283590731
 30
0.0
 10
33.3069308796
 20
165.6827331806
 30
0.0
  0
SPLINE
  5
334
100
AcDbEntity
  8
0
100
AcDbSpline
 62
7
  6
CONTINUOUS
 70
0
 71
3
 72
9
 73
5
 74
0
 42
0.0000001
 43
0.0000001
 44
0.0000000001
 40
0.0
 40
0.0
 40
0.0
 40
0.0
 40
0.5510669982
 40
1.0
 40
1.0
 40
1.0
 40
1.0
 10
33.3052383552
 20
164.7456664522
 30
0.0
 10
33.2248829956
 20
164.6759832686
 30
0.0
 10
33.0199308674
 20
164.5812499616
 30
0.0
 10
32.7448950245
 20
164.559473029
 30
0.0
 10
32.6181177948
 20
164.559473029
 30
0.0
  0
SPLINE
  5
335
100
AcDbEntity
  8
0
100
AcDbSpline
 62
7
  6
CONTINUOUS
 70
0
 71
3
 72
9
 73
5
 74
0
 42
0.0000001
 43
0.0000001
 44
0.0000000001
 40
0.0
 40
0.0
 40
0.0
 40
0.0
 40
0.6390414182
 40
1.0
 40
1.0
 40
1.0
 40
1.0
 10
32.6181177948
 20
164.559473029
 30
0.0
 10
32.4479553575
 20
164.559473029
 30
0.0
 10
32.1989190517
 20
164.5952059715
 30
0.0
 10
32.0203859324
 20
164.703057428
 30
0.0
 10
31.9675720376
 20
164.748558656
 30
0.0
  0
SPLINE
  5
336
100
AcDbEntity
  8
0
100
AcDbSpline
 62
7
  6
CONTINUOUS
 70
0
 71
3
 72
10
 73
6
 74
0
 42
0.0000001
 43
0.0000001
 44
0.0000000001
 40
0.0
 40
0.0
 40
0.0
 40
0.0
 40
0.4114802523
 40
0.8006946616
 40
1.0
 40
1.0
 40
1.0
 40
1.0
 10
31.9675720376
 20
164.748558656
 30
0.0
 10
31.9088327018
 20
164.7991648821
 30
0.0
 10
31.8129012787
 20
164.9108182352
 30
0.0
 10
31.755912944
 20
165.0692684963
 30
0.0
 10
31.7469718908
 20
165.1724619287
 30
0.0
 10
31.7469718908
 20
165.2077674537
 30
0.0
  0
SPLINE
  5
337
100
AcDbEntity
  8
0
100
AcDbSpline
 62
7
  6
CONTINUOUS
 70
0
 71
3
 72
10
 73
6
 74
0
 42
0.0000001
 43
0.0000001
 44
0.0000000001
 40
0.0
 40
0.0
 40
0.0
 40
0.0
 40
0.3930695596
 40
0.7883983879
 40
1.0
 40
1.0
 40
1.0
 40
1.0
 10
31.7469718908
 20
165.2077674537
 30
0.0
 10
31.7469718908
 20
165.2785914602
 30
0.0
 10
31.7698811461
 20
165.4161885596
 30
0.0
 10
31.8585375623
 20
165.5664681251
 30
0.0
 10
31.9392183498
 20
165.6490850871
 30
0.0
 10
31.9698231746
 20
165.675980224
 30
0.0
  0
SPLINE
  5
338
100
AcDbEntity
  8
0
100
AcDbSpline
 62
7
  6
CONTINUOUS
 70
0
 71
3
 72
9
 73
5
 74
0
 42
0.0000001
 43
0.0000001
 44
0.0000000001
 40
0.0
 40
0.0
 40
0.0
 40
0.0
 40
0.5551985728
 40
1.0
 40
1.0
 40
1.0
 40
1.0
 10
34.3221423333
 20
166.1351890756
 30
0.0
 10
34.2193540606
 20
166.1858384686
 30
0.0
 10
33.9682283764
 20
166.2384997815
 30
0.0
 10
33.6696320897
 20
166.249991479
 30
0.0
 10
33.5320332055
 20
166.249991479
 30
0.0
  0
SPLINE
  5
339
100
AcDbEntity
  8
0
100
AcDbSpline
 62
7
  6
CONTINUOUS
 70
0
 71
3
 72
9
 73
5
 74
0
 42
0.0000001
 43
0.0000001
 44
0.0000000001
 40
0.0
 40
0.0
 40
0.0
 40
0.0
 40
0.6017415459
 40
1.0
 40
1.0
 40
1.0
 40
1.0
 10
31.7537248362
 20
165.8763214971
 30
0.0
 10
31.6228803487
 20
165.7700909851
 30
0.0
 10
31.4563119524
 20
165.5552595469
 30
0.0
 10
31.4115693797
 20
165.2879161193
 30
0.0
 10
31.4115693797
 20
165.1785039088
 30
0.0
  0
SPLINE
  5
33A
100
AcDbEntity
  8
0
100
AcDbSpline
 62
7
  6
CONTINUOUS
 70
0
 71
3
 72
9
 73
5
 74
0
 42
0.0000001
 43
0.0000001
 44
0.0000000001
 40
0.0
 40
0.0
 40
0.0
 40
0.0
 40
0.7944417554
 40
1.0
 40
1.0
 40
1.0
 40
1.0
 10
31.5699208196
 20
164.6252730645
 30
0.0
 10
31.6542602883
 20
164.4983105904
 30
0.0
 10
31.7987719384
 20
164.3688975138
 30
0.0
 10
31.9785398945
 20
164.2820778093
 30
0.0
 10
32.0166874648
 20
164.2658872609
 30
0.0
  0
SPLINE
  5
33B
100
AcDbEntity
  8
0
100
AcDbSpline
 62
7
  6
CONTINUOUS
 70
0
 71
3
 72
9
 73
5
 74
0
 42
0.0000001
 43
0.0000001
 44
0.0000000001
 40
0.0
 40
0.0
 40
0.0
 40
0.0
 40
0.8045029177
 40
1.0
 40
1.0
 40
1.0
 40
1.0
 10
32.6403754391
 20
164.1430474946
 30
0.0
 10
32.8982224707
 20
164.1420264684
 30
0.0
 10
33.2016097756
 20
164.210753016
 30
0.0
 10
33.4537774523
 20
164.3768592502
 30
0.0
 10
33.5009289761
 20
164.4126139979
 30
0.0
  0
SPLINE
  5
33C
100
AcDbEntity
  8
0
100
AcDbSpline
 62
7
  6
CONTINUOUS
 70
0
 71
3
 72
9
 73
5
 74
0
 42
0.0000001
 43
0.0000001
 44
0.0000000001
 40
0.0
 40
0.0
 40
0.0
 40
0.0
 40
0.5919833532
 40
1.0
 40
1.0
 40
1.0
 40
1.0
 10
33.5009289761
 20
164.4126139979
 30
0.0
 10
33.6403765063
 20
164.518356312
 30
0.0
 10
33.813701099
 20
164.7519222053
 30
0.0
 10
33.8561805416
 20
165.0499921123
 30
0.0
 10
33.8561805416
 20
165.1762529283
 30
0.0
  0
SPLINE
  5
33D
100
AcDbEntity
  8
0
100
AcDbSpline
 62
7
  6
CONTINUOUS
 70
0
 71
3
 72
9
 73
5
 74
0
 42
0.0000001
 43
0.0000001
 44
0.0000000001
 40
0.0
 40
0.0
 40
0.0
 40
0.0
 40
0.5963946981
 40
1.0
 40
1.0
 40
1.0
 40
1.0
 10
33.8561805416
 20
165.1762529283
 30
0.0
 10
33.8561805416
 20
165.3299680656
 30
0.0
 10
33.7942693732
 20
165.5748446253
 30
0.0
 10
33.6242010006
 20
165.7693218051
 30
0.0
 10
33.5432883096
 20
165.838054028
 30
0.0
  0
SPLINE
  5
33E
100
AcDbEntity
  8
0
100
AcDbSpline
 62
7
  6
CONTINUOUS
 70
0
 71
3
 72
9
 73
5
 74
0
 42
0.0000001
 43
0.0000001
 44
0.0000000001
 40
0.0
 40
0.0
 40
0.0
 40
0.0
 40
0.6664070042
 40
1.0
 40
1.0
 40
1.0
 40
1.0
 10
33.5432883096
 20
165.838054028
 30
0.0
 10
33.6851024158
 20
165.838054028
 30
0.0
 10
33.8895515291
 20
165.8350866075
 30
0.0
 10
34.0308125816
 20
165.8159505555
 30
0.0
 10
34.0629783612
 20
165.8076603288
 30
0.0
  0
SPLINE
  5
33F
100
AcDbEntity
  8
0
100
AcDbSpline
 62
7
  6
CONTINUOUS
 70
0
 71
3
 72
9
 73
5
 74
0
 42
0.0000001
 43
0.0000001
 44
0.0000000001
 40
0.0
 40
0.0
 40
0.0
 40
0.0
 40
0.5614395238
 40
1.0
 40
1.0
 40
1.0
 40
1.0
 10
34.3771451454
 20
165.6007712136
 30
0.0
 10
34.419970845
 20
165.5426049291
 30
0.0
 10
34.476618177
 20
165.409828558
 30
0.0
 10
34.4909690772
 20
165.243020511
 30
0.0
 10
34.4909690772
 20
165.1672490022
 30
0.0
  0
SPLINE
  5
340
100
AcDbEntity
  8
0
100
AcDbSpline
 62
7
  6
CONTINUOUS
 70
0
 71
3
 72
9
 73
5
 74
0
 42
0.0000001
 43
0.0000001
 44
0.0000000001
 40
0.0
 40
0.0
 40
0.0
 40
0.0
 40
0.6335341264
 40
1.0
 40
1.0
 40
1.0
 40
1.0
 10
34.4909690772
 20
165.1672490022
 30
0.0
 10
34.4909690772
 20
165.0631152035
 30
0.0
 10
34.4690912046
 20
164.9091820083
 30
0.0
 10
34.4061223044
 20
164.7917158813
 30
0.0
 10
34.3788273097
 20
164.7550088527
 30
0.0
  0
SPLINE
  5
341
100
AcDbEntity
  8
0
100
AcDbSpline
 62
7
  6
CONTINUOUS
 70
0
 71
3
 72
9
 73
5
 74
0
 42
0.0000001
 43
0.0000001
 44
0.0000000001
 40
0.0
 40
0.0
 40
0.0
 40
0.0
 40
0.5699488072
 40
1.0
 40
1.0
 40
1.0
 40
1.0
 10
34.3788273097
 20
164.7550088527
 30
0.0
 10
34.3466590219
 20
164.7117480912
 30
0.0
 10
34.2695521691
 20
164.6511493895
 30
0.0
 10
34.1617197836
 20
164.6243410295
 30
0.0
 10
34.1127971824
 20
164.6179993288
 30
0.0
  0
SPLINE
  5
342
100
AcDbEntity
  8
0
100
AcDbSpline
 62
7
  6
CONTINUOUS
 70
0
 71
3
 72
9
 73
5
 74
0
 42
0.0000001
 43
0.0000001
 44
0.0000000001
 40
0.0
 40
0.0
 40
0.0
 40
0.0
 40
0.8740545705
 40
1.0
 40
1.0
 40
1.0
 40
1.0
 10
34.0542705864
 20
164.2240705161
 30
0.0
 10
34.1985394869
 20
164.2202740367
 30
0.0
 10
34.3546981037
 20
164.2505320558
 30
0.0
 10
34.4795748997
 20
164.3304461279
 30
0.0
 10
34.4947822426
 20
164.34125831
 30
0.0
  0
SPLINE
  5
343
100
AcDbEntity
  8
0
100
AcDbSpline
 62
7
  6
CONTINUOUS
 70
0
 71
3
 72
8
 73
4
 74
0
 42
0.0000001
 43
0.0000001
 44
0.0000000001
 40
0.0
 40
0.0
 40
0.0
 40
0.0
 40
1.0
 40
1.0
 40
1.0
 40
1.0
 10
34.4947822426
 20
164.34125831
 30
0.0
 10
34.5473258896
 20
164.3786160186
 30
0.0
 10
34.5936579384
 20
164.4248958751
 30
0.0
 10
34.6327835419
 20
164.4784361391
 30
0.0
  0
SPLINE
  5
344
100
AcDbEntity
  8
0
100
AcDbSpline
 62
7
  6
CONTINUOUS
 70
0
 71
3
 72
9
 73
5
 74
0
 42
0.0000001
 43
0.0000001
 44
0.0000000001
 40
0.0
 40
0.0
 40
0.0
 40
0.0
 40
0.7869925052
 40
1.0
 40
1.0
 40
1.0
 40
1.0
 10
34.6327835419
 20
164.4784361391
 30
0.0
 10
34.7392521672
 20
164.6241299509
 30
0.0
 10
34.8148501934
 20
164.855118687
 30
0.0
 10
34.8263714914
 20
165.1135621151
 30
0.0
 10
34.8263714914
 20
165.1694999846
 30
0.0
  0
SPLINE
  5
345
100
AcDbEntity
  8
0
100
AcDbSpline
 62
7
  6
CONTINUOUS
 70
0
 71
3
 72
8
 73
4
 74
0
 42
0.0000001
 43
0.0000001
 44
0.0000000001
 40
0.0
 40
0.0
 40
0.0
 40
0.0
 40
1.0
 40
1.0
 40
1.0
 40
1.0
 10
34.8263714914
 20
165.1694999846
 30
0.0
 10
34.8263714914
 20
165.3920745443
 30
0.0
 10
34.7861046006
 20
165.6020258171
 30
0.0
 10
34.6913103185
 20
165.7750250687
 30
0.0
  0
SPLINE
  5
346
100
AcDbEntity
  8
0
100
AcDbSpline
 62
7
  6
CONTINUOUS
 70
0
 71
3
 72
9
 73
5
 74
0
 42
0.0000001
 43
0.0000001
 44
0.0000000001
 40
0.0
 40
0.0
 40
0.0
 40
0.0
 40
0.6360405709
 40
1.0
 40
1.0
 40
1.0
 40
1.0
 10
33.5928108324
 20
162.5110418579
 30
0.0
 10
33.5928108324
 20
162.417831167
 30
0.0
 10
33.572379574
 20
162.2803022788
 30
0.0
 10
33.5111746654
 20
162.1805924796
 30
0.0
 10
33.4847618104
 20
162.1508780706
 30
0.0
  0
SPLINE
  5
347
100
AcDbEntity
  8
0
100
AcDbSpline
 62
7
  6
CONTINUOUS
 70
0
 71
3
 72
9
 73
5
 74
0
 42
0.0000001
 43
0.0000001
 44
0.0000000001
 40
0.0
 40
0.0
 40
0.0
 40
0.0
 40
0.5436394373
 40
1.0
 40
1.0
 40
1.0
 40
1.0
 10
32.8910170518
 20
162.2456511005
 30
0.0
 10
32.8725116558
 20
162.2874595623
 30
0.0
 10
32.8420165152
 20
162.3990845107
 30
0.0
 10
32.8196707509
 20
162.5345744228
 30
0.0
 10
32.8105149832
 20
162.5989804647
 30
0.0
  0
SPLINE
  5
348
100
AcDbEntity
  8
0
100
AcDbSpline
 62
7
  6
CONTINUOUS
 70
0
 71
3
 72
8
 73
4
 74
0
 42
0.0000001
 43
0.0000001
 44
0.0000000001
 40
0.0
 40
0.0
 40
0.0
 40
0.0
 40
1.0
 40
1.0
 40
1.0
 40
1.0
 10
32.8105149832
 20
162.5989804647
 30
0.0
 10
32.7745837275
 20
162.8517380762
 30
0.0
 10
32.726721932
 20
163.0886982465
 30
0.0
 10
32.656385167
 20
163.2606324094
 30
0.0
  0
SPLINE
  5
349
100
AcDbEntity
  8
0
100
AcDbSpline
 62
7
  6
CONTINUOUS
 70
0
 71
3
 72
9
 73
5
 74
0
 42
0.0000001
 43
0.0000001
 44
0.0000000001
 40
0.0
 40
0.0
 40
0.0
 40
0.0
 40
0.6427653697
 40
1.0
 40
1.0
 40
1.0
 40
1.0
 10
32.8049526889
 20
163.2606324094
 30
0.0
 10
32.9080304589
 20
163.2606324094
 30
0.0
 10
33.0591479866
 20
163.249399245
 30
0.0
 10
33.1761612911
 20
163.21109484
 30
0.0
 10
33.210618846
 20
163.194319597
 30
0.0
  0
SPLINE
  5
34A
100
AcDbEntity
  8
0
100
AcDbSpline
 62
7
  6
CONTINUOUS
 70
0
 71
3
 72
9
 73
5
 74
0
 42
0.0000001
 43
0.0000001
 44
0.0000000001
 40
0.0
 40
0.0
 40
0.0
 40
0.0
 40
0.326965412
 40
1.0
 40
1.0
 40
1.0
 40
1.0
 10
33.5703006353
 20
163.6950798785
 30
0.0
 10
33.5322956933
 20
163.6881699419
 30
0.0
 10
33.3414904973
 20
163.67204085
 30
0.0
 10
33.0539598079
 20
163.6703184868
 30
0.0
 10
32.8544752602
 20
163.6703184868
 30
0.0
  0
SPLINE
  5
34B
100
AcDbEntity
  8
0
100
AcDbSpline
 62
7
  6
CONTINUOUS
 70
0
 71
3
 72
9
 73
5
 74
0
 42
0.0000001
 43
0.0000001
 44
0.0000000001
 40
0.0
 40
0.0
 40
0.0
 40
0.0
 40
0.8323083642
 40
1.0
 40
1.0
 40
1.0
 40
1.0
 10
32.3142296117
 20
163.6703184868
 30
0.0
 10
32.1925433932
 20
163.6703184868
 30
0.0
 10
32.052479893
 20
163.6673574334
 30
0.0
 10
31.9552605963
 20
163.6518608436
 30
0.0
 10
31.9408359215
 20
163.6487955941
 30
0.0
  0
SPLINE
  5
34C
100
AcDbEntity
  8
0
100
AcDbSpline
 62
7
  6
CONTINUOUS
 70
0
 71
3
 72
9
 73
5
 74
0
 42
0.0000001
 43
0.0000001
 44
0.0000000001
 40
0.0
 40
0.0
 40
0.0
 40
0.0
 40
0.7842407016
 40
1.0
 40
1.0
 40
1.0
 40
1.0
 10
31.6664910416
 20
163.5233371321
 30
0.0
 10
31.6047062033
 20
163.4721716974
 30
0.0
 10
31.5412073917
 20
163.3784450709
 30
0.0
 10
31.4943864307
 20
163.2668813208
 30
0.0
 10
31.4849620559
 20
163.2421149338
 30
0.0
  0
SPLINE
  5
34D
100
AcDbEntity
  8
0
100
AcDbSpline
 62
7
  6
CONTINUOUS
 70
0
 71
3
 72
8
 73
4
 74
0
 42
0.0000001
 43
0.0000001
 44
0.0000000001
 40
0.0
 40
0.0
 40
0.0
 40
0.0
 40
1.0
 40
1.0
 40
1.0
 40
1.0
 10
31.4849620559
 20
163.2421149338
 30
0.0
 10
31.4315538897
 20
163.1017632033
 30
0.0
 10
31.4115693797
 20
162.9285301603
 30
0.0
 10
31.4115693797
 20
162.7451482435
 30
0.0
  0
SPLINE
  5
34E
100
AcDbEntity
  8
0
100
AcDbSpline
 62
7
  6
CONTINUOUS
 70
0
 71
3
 72
9
 73
5
 74
0
 42
0.0000001
 43
0.0000001
 44
0.0000000001
 40
0.0
 40
0.0
 40
0.0
 40
0.0
 40
0.8085878718
 40
1.0
 40
1.0
 40
1.0
 40
1.0
 10
31.4967496268
 20
162.2025229773
 30
0.0
 10
31.5393563259
 20
162.0840763385
 30
0.0
 10
31.61352437
 20
161.9539352345
 30
0.0
 10
31.7167144516
 20
161.8604773539
 30
0.0
 10
31.7374174618
 20
161.8440499629
 30
0.0
  0
SPLINE
  5
34F
100
AcDbEntity
  8
0
100
AcDbSpline
 62
7
  6
CONTINUOUS
 70
0
 71
3
 72
8
 73
4
 74
0
 42
0.0000001
 43
0.0000001
 44
0.0000000001
 40
0.0
 40
0.0
 40
0.0
 40
0.0
 40
1.0
 40
1.0
 40
1.0
 40
1.0
 10
31.7374174618
 20
161.8440499629
 30
0.0
 10
31.8476782525
 20
161.7565604087
 30
0.0
 10
31.9907403967
 20
161.7003827732
 30
0.0
 10
32.1476538465
 20
161.6669081232
 30
0.0
  0
SPLINE
  5
350
100
AcDbEntity
  8
0
100
AcDbSpline
 62
7
  6
CONTINUOUS
 70
0
 71
3
 72
9
 73
5
 74
0
 42
0.0000001
 43
0.0000001
 44
0.0000000001
 40
0.0
 40
0.0
 40
0.0
 40
0.0
 40
0.6391151697
 40
1.0
 40
1.0
 40
1.0
 40
1.0
 10
32.2016785782
 20
162.0630879184
 30
0.0
 10
32.1031185444
 20
162.0880564543
 30
0.0
 10
31.9635583349
 20
162.1441865977
 30
0.0
 10
31.8731544612
 20
162.2302471853
 30
0.0
 10
31.8482678854
 20
162.2634292382
 30
0.0
  0
SPLINE
  5
351
100
AcDbEntity
  8
0
100
AcDbSpline
 62
7
  6
CONTINUOUS
 70
0
 71
3
 72
9
 73
5
 74
0
 42
0.0000001
 43
0.0000001
 44
0.0000000001
 40
0.0
 40
0.0
 40
0.0
 40
0.0
 40
0.5520180001
 40
1.0
 40
1.0
 40
1.0
 40
1.0
 10
31.8482678854
 20
162.2634292382
 30
0.0
 10
31.8095806507
 20
162.3150121425
 30
0.0
 10
31.7588294425
 20
162.4444060175
 30
0.0
 10
31.7469718908
 20
162.6098808275
 30
0.0
 10
31.7469718908
 20
162.6866215492
 30
0.0
  0
SPLINE
  5
352
100
AcDbEntity
  8
0
100
AcDbSpline
 62
7
  6
CONTINUOUS
 70
0
 71
3
 72
9
 73
5
 74
0
 42
0.0000001
 43
0.0000001
 44
0.0000000001
 40
0.0
 40
0.0
 40
0.0
 40
0.0
 40
0.6373971876
 40
1.0
 40
1.0
 40
1.0
 40
1.0
 10
31.7469718908
 20
162.6866215492
 30
0.0
 10
31.7469718908
 20
162.8065464573
 30
0.0
 10
31.7739095638
 20
162.9829146904
 30
0.0
 10
31.8515716354
 20
163.1100522999
 30
0.0
 10
31.8846024894
 20
163.1478018003
 30
0.0
  0
SPLINE
  5
353
100
AcDbEntity
  8
0
100
AcDbSpline
 62
7
  6
CONTINUOUS
 70
0
 71
3
 72
9
 73
5
 74
0
 42
0.0000001
 43
0.0000001
 44
0.0000000001
 40
0.0
 40
0.0
 40
0.0
 40
0.0
 40
0.550674937
 40
1.0
 40
1.0
 40
1.0
 40
1.0
 10
31.8846024894
 20
163.1478018003
 30
0.0
 10
31.9219452012
 20
163.1904791319
 30
0.0
 10
32.0251663859
 20
163.2494095656
 30
0.0
 10
32.1672011861
 20
163.2628833918
 30
0.0
 10
32.2331928082
 20
163.2628833919
 30
0.0
  0
SPLINE
  5
354
100
AcDbEntity
  8
0
100
AcDbSpline
 62
7
  6
CONTINUOUS
 70
0
 71
3
 72
9
 73
5
 74
0
 42
0.0000001
 43
0.0000001
 44
0.0000000001
 40
0.0
 40
0.0
 40
0.0
 40
0.0
 40
0.7652684056
 40
1.0
 40
1.0
 40
1.0
 40
1.0
 10
32.3389908974
 20
163.2606324093
 30
0.0
 10
32.3850053299
 20
163.1283409788
 30
0.0
 10
32.4350943122
 20
162.8812267443
 30
0.0
 10
32.4714256818
 20
162.6045633772
 30
0.0
 10
32.4793823996
 20
162.5381553842
 30
0.0
  0
SPLINE
  5
355
100
AcDbEntity
  8
0
100
AcDbSpline
 62
7
  6
CONTINUOUS
 70
0
 71
3
 72
10
 73
6
 74
0
 42
0.0000001
 43
0.0000001
 44
0.0000000001
 40
0.0
 40
0.0
 40
0.0
 40
0.0
 40
0.0084322575
 40
0.6055738479
 40
1.0
 40
1.0
 40
1.0
 40
1.0
 10
33.2209906036
 20
161.5971405584
 30
0.0
 10
33.2226262378
 20
161.5971309418
 30
0.0
 10
33.3400096144
 20
161.5967852894
 30
0.0
 10
33.5239531608
 20
161.6372061831
 30
0.0
 10
33.6690932133
 20
161.7530192834
 30
0.0
 10
33.71942737
 20
161.8082102208
 30
0.0
  0
SPLINE
  5
356
100
AcDbEntity
  8
0
100
AcDbSpline
 62
7
  6
CONTINUOUS
 70
0
 71
3
 72
9
 73
5
 74
0
 42
0.0000001
 43
0.0000001
 44
0.0000000001
 40
0.0
 40
0.0
 40
0.0
 40
0.0
 40
0.5784944897
 40
1.0
 40
1.0
 40
1.0
 40
1.0
 10
33.71942737
 20
161.8082102208
 30
0.0
 10
33.798032011
 20
161.8943994831
 30
0.0
 10
33.8888127047
 20
162.0842822984
 30
0.0
 10
33.9102050946
 20
162.3141968404
 30
0.0
 10
33.9102050946
 20
162.4142476941
 30
0.0
  0
SPLINE
  5
357
100
AcDbEntity
  8
0
100
AcDbSpline
 62
7
  6
CONTINUOUS
 70
0
 71
3
 72
8
 73
4
 74
0
 42
0.0000001
 43
0.0000001
 44
0.0000000001
 40
0.0
 40
0.0
 40
0.0
 40
0.0
 40
1.0
 40
1.0
 40
1.0
 40
1.0
 10
33.8314193473
 20
162.8599502821
 30
0.0
 10
33.7761261374
 20
163.009001501
 30
0.0
 10
33.6801630336
 20
163.154677657
 30
0.0
 10
33.5612965044
 20
163.2943979172
 30
0.0
  0
SPLINE
  5
358
100
AcDbEntity
  8
0
100
AcDbSpline
 62
7
  6
CONTINUOUS
 70
0
 71
3
 72
11
 73
7
 74
0
 42
0.0000001
 43
0.0000001
 44
0.0000000001
 40
0.0
 40
0.0
 40
0.0
 40
0.0
 40
0.1896137732
 40
0.3682758297
 40
0.7538201708
 40
1.0
 40
1.0
 40
1.0
 40
1.0
 10
28.3344976347
 20
77.6678132682
 30
0.0
 10
28.3344976347
 20
77.7218398148
 30
0.0
 10
28.3488014345
 20
77.8228664248
 30
0.0
 10
28.4288667341
 20
77.9899287093
 30
0.0
 10
28.6111171363
 20
78.1275206421
 30
0.0
 10
28.8199629301
 20
78.1834600581
 30
0.0
 10
28.9040768784
 20
78.198557344
 30
0.0
  0
SPLINE
  5
359
100
AcDbEntity
  8
0
100
AcDbSpline
 62
7
  6
CONTINUOUS
 70
0
 71
3
 72
11
 73
7
 74
0
 42
0.0000001
 43
0.0000001
 44
0.0000000001
 40
0.0
 40
0.0
 40
0.0
 40
0.0
 40
0.2405390885
 40
0.6282701909
 40
0.8091767196
 40
1.0
 40
1.0
 40
1.0
 40
1.0
 10
28.813462202
 20
77.046453443
 30
0.0
 10
28.7432484853
 20
77.0650816269
 30
0.0
 10
28.5676819772
 20
77.1279389758
 30
0.0
 10
28.4148186376
 20
77.2595249794
 30
0.0
 10
28.3465912162
 20
77.4129711782
 30
0.0
 10
28.3344976347
 20
77.5033179128
 30
0.0
 10
28.3344976347
 20
77.5513081222
 30
0.0
  0
SPLINE
  5
35A
100
AcDbEntity
  8
0
100
AcDbSpline
 62
7
  6
CONTINUOUS
 70
0
 71
3
 72
8
 73
4
 74
0
 42
0.0000001
 43
0.0000001
 44
0.0000000001
 40
0.0
 40
0.0
 40
0.0
 40
0.0
 40
1.0
 40
1.0
 40
1.0
 40
1.0
 10
29.9703852763
 20
76.3204330361
 30
0.0
 10
30.1797637733
 20
76.4600187765
 30
0.0
 10
30.3485370254
 20
76.6370398607
 30
0.0
 10
30.4626283825
 20
76.8432431417
 30
0.0
  0
SPLINE
  5
35B
100
AcDbEntity
  8
0
100
AcDbSpline
 62
7
  6
CONTINUOUS
 70
0
 71
3
 72
9
 73
5
 74
0
 42
0.0000001
 43
0.0000001
 44
0.0000000001
 40
0.0
 40
0.0
 40
0.0
 40
0.0
 40
0.2134527702
 40
1.0
 40
1.0
 40
1.0
 40
1.0
 10
30.4626283825
 20
76.8432431417
 30
0.0
 10
30.4883284466
 20
76.8896922127
 30
0.0
 10
30.5957312464
 20
77.114237521
 30
0.0
 10
30.6387047213
 20
77.3692119476
 30
0.0
 10
30.6387047213
 20
77.5771975188
 30
0.0
  0
SPLINE
  5
35C
100
AcDbEntity
  8
0
100
AcDbSpline
 62
7
  6
CONTINUOUS
 70
0
 71
3
 72
9
 73
5
 74
0
 42
0.0000001
 43
0.0000001
 44
0.0000000001
 40
0.0
 40
0.0
 40
0.0
 40
0.0
 40
0.8217097313
 40
1.0
 40
1.0
 40
1.0
 40
1.0
 10
30.6257596654
 20
78.0949968961
 30
0.0
 10
30.5665322579
 20
78.3729107548
 30
0.0
 10
30.4620175817
 20
78.6852538811
 30
0.0
 10
30.2950007279
 20
78.8911155099
 30
0.0
 10
30.2633002442
 20
78.9234761863
 30
0.0
  0
SPLINE
  5
35D
100
AcDbEntity
  8
0
100
AcDbSpline
 62
7
  6
CONTINUOUS
 70
0
 71
3
 72
10
 73
6
 74
0
 42
0.0000001
 43
0.0000001
 44
0.0000000001
 40
0.0
 40
0.0
 40
0.0
 40
0.0
 40
0.4422341657
 40
0.8224271969
 40
1.0
 40
1.0
 40
1.0
 40
1.0
 10
29.7584459227
 20
78.9234761863
 30
0.0
 10
29.859849508
 20
78.7713710354
 30
0.0
 10
30.0215141198
 20
78.478726195
 30
0.0
 10
30.109257719
 20
78.1513839329
 30
0.0
 10
30.1209053439
 20
77.979332148
 30
0.0
 10
30.1209053439
 20
77.9267129569
 30
0.0
  0
SPLINE
  5
35E
100
AcDbEntity
  8
0
100
AcDbSpline
 62
7
  6
CONTINUOUS
 70
0
 71
3
 72
10
 73
6
 74
0
 42
0.0000001
 43
0.0000001
 44
0.0000000001
 40
0.0
 40
0.0
 40
0.0
 40
0.0
 40
0.4201712552
 40
0.8068538572
 40
1.0
 40
1.0
 40
1.0
 40
1.0
 10
30.1209053439
 20
77.9267129569
 30
0.0
 10
30.1209053439
 20
77.8243409527
 30
0.0
 10
30.1030105599
 20
77.6299104089
 30
0.0
 10
30.034667208
 20
77.435249666
 30
0.0
 10
29.9745743396
 20
77.3269071657
 30
0.0
 10
29.9526206893
 20
77.2924084334
 30
0.0
  0
SPLINE
  5
35F
100
AcDbEntity
  8
0
100
AcDbSpline
 62
7
  6
CONTINUOUS
 70
0
 71
3
 72
10
 73
6
 74
0
 42
0.0000001
 43
0.0000001
 44
0.0000000001
 40
0.0
 40
0.0
 40
0.0
 40
0.0
 40
0.4403510878
 40
0.8189026027
 40
1.0
 40
1.0
 40
1.0
 40
1.0
 10
29.9526206893
 20
77.2924084334
 30
0.0
 10
29.8756260225
 20
77.2127119585
 30
0.0
 10
29.7176359601
 20
77.0853015283
 30
0.0
 10
29.5253199469
 20
77.0172272521
 30
0.0
 10
29.4173700773
 20
77.0076193481
 30
0.0
 10
29.3830414456
 20
77.0076193481
 30
0.0
  0
SPLINE
  5
360
100
AcDbEntity
  8
0
100
AcDbSpline
 62
7
  6
CONTINUOUS
 70
0
 71
3
 72
8
 73
4
 74
0
 42
0.0000001
 43
0.0000001
 44
0.0000000001
 40
0.0
 40
0.0
 40
0.0
 40
0.0
 40
1.0
 40
1.0
 40
1.0
 40
1.0
 10
29.3830414456
 20
78.9364208846
 30
0.0
 10
29.1836014423
 20
78.9738164232
 30
0.0
 10
28.9898638488
 20
78.952971459
 30
0.0
 10
28.800517146
 20
78.9105314879
 30
0.0
  0
SPLINE
  5
361
100
AcDbEntity
  8
0
100
AcDbSpline
 62
7
  6
CONTINUOUS
 70
0
 71
3
 72
10
 73
6
 74
0
 42
0.0000001
 43
0.0000001
 44
0.0000000001
 40
0.0
 40
0.0
 40
0.0
 40
0.0
 40
0.498350873
 40
0.977202563
 40
1.0
 40
1.0
 40
1.0
 40
1.0
 10
28.800517146
 20
78.9105314879
 30
0.0
 10
28.4954697617
 20
78.8004169539
 30
0.0
 10
27.9811597519
 20
78.4712598188
 30
0.0
 10
27.8071315583
 20
77.8932885187
 30
0.0
 10
27.8037532013
 20
77.5786017836
 30
0.0
 10
27.8037532013
 20
77.5642528205
 30
0.0
  0
SPLINE
  5
362
100
AcDbEntity
  8
0
100
AcDbSpline
 62
7
  6
CONTINUOUS
 70
0
 71
3
 72
8
 73
4
 74
0
 42
0.0000001
 43
0.0000001
 44
0.0000000001
 40
0.0
 40
0.0
 40
0.0
 40
0.0
 40
1.0
 40
1.0
 40
1.0
 40
1.0
 10
27.8037532013
 20
77.5642528205
 30
0.0
 10
27.8037532013
 20
77.3134845753
 30
0.0
 10
27.8527410678
 20
77.0741378773
 30
0.0
 10
27.9664058988
 20
76.8693534347
 30
0.0
  0
SPLINE
  5
363
100
AcDbEntity
  8
0
100
AcDbSpline
 62
7
  6
CONTINUOUS
 70
0
 71
3
 72
8
 73
4
 74
0
 42
0.0000001
 43
0.0000001
 44
0.0000000001
 40
0.0
 40
0.0
 40
0.0
 40
0.0
 40
1.0
 40
1.0
 40
1.0
 40
1.0
 10
27.9664058988
 20
76.8693534347
 30
0.0
 10
28.1168624022
 20
76.5982832103
 30
0.0
 10
28.3211152058
 20
76.3805929889
 30
0.0
 10
28.5712998463
 20
76.2533212483
 30
0.0
  0
SPLINE
  5
364
100
AcDbEntity
  8
0
100
AcDbSpline
 62
7
  6
CONTINUOUS
 70
0
 71
3
 72
8
 73
4
 74
0
 42
0.0000001
 43
0.0000001
 44
0.0000000001
 40
0.0
 40
0.0
 40
0.0
 40
0.0
 40
1.0
 40
1.0
 40
1.0
 40
1.0
 10
28.5712998463
 20
76.2533212483
 30
0.0
 10
28.7569682881
 20
76.1588696236
 30
0.0
 10
28.9680538214
 20
76.1144151359
 30
0.0
 10
29.1888666791
 20
76.1144151359
 30
0.0
  0
SPLINE
  5
365
100
AcDbEntity
  8
0
100
AcDbSpline
 62
7
  6
CONTINUOUS
 70
0
 71
3
 72
10
 73
6
 74
0
 42
0.0000001
 43
0.0000001
 44
0.0000000001
 40
0.0
 40
0.0
 40
0.0
 40
0.0
 40
0.4460281281
 40
0.8230820263
 40
1.0
 40
1.0
 40
1.0
 40
1.0
 10
29.8361159009
 20
74.8975863128
 30
0.0
 10
29.8980047494
 20
74.8330068514
 30
0.0
 10
29.9965587845
 20
74.7036681947
 30
0.0
 10
30.0491933202
 20
74.5510287234
 30
0.0
 10
30.0561804217
 20
74.4696916146
 30
0.0
 10
30.0561804217
 20
74.4445118575
 30
0.0
  0
SPLINE
  5
366
100
AcDbEntity
  8
0
100
AcDbSpline
 62
7
  6
CONTINUOUS
 70
0
 71
3
 72
11
 73
7
 74
0
 42
0.0000001
 43
0.0000001
 44
0.0000000001
 40
0.0
 40
0.0
 40
0.0
 40
0.0
 40
0.199311194
 40
0.3866787725
 40
0.7717412739
 40
1.0
 40
1.0
 40
1.0
 40
1.0
 10
30.0302906674
 20
74.1856121686
 30
0.0
 10
30.0060242614
 20
74.1275006647
 30
0.0
 10
29.9477951113
 20
74.0232204457
 30
0.0
 10
29.7996093893
 20
73.8657525456
 30
0.0
 10
29.5838167607
 20
73.7646359565
 30
0.0
 10
29.3730225562
 20
73.7454824119
 30
0.0
 10
29.2924264115
 20
73.7454824119
 30
0.0
  0
SPLINE
  5
367
100
AcDbEntity
  8
0
100
AcDbSpline
 62
7
  6
CONTINUOUS
 70
0
 71
3
 72
11
 73
7
 74
0
 42
0.0000001
 43
0.0000001
 44
0.0000000001
 40
0.0
 40
0.0
 40
0.0
 40
0.0
 40
0.2264909364
 40
0.6072640131
 40
0.7956848733
 40
1.0
 40
1.0
 40
1.0
 40
1.0
 10
28.8799322827
 20
73.7898149012
 30
0.0
 10
28.8090170665
 20
73.8116759232
 30
0.0
 10
28.6298411746
 20
73.8870656996
 30
0.0
 10
28.4752258754
 20
74.040190889
 30
0.0
 10
28.3998139604
 20
74.2287538596
 30
0.0
 10
28.386277501
 20
74.3438887408
 30
0.0
 10
28.386277501
 20
74.4056777625
 30
0.0
  0
SPLINE
  5
368
100
AcDbEntity
  8
0
100
AcDbSpline
 62
7
  6
CONTINUOUS
 70
0
 71
3
 72
9
 73
5
 74
0
 42
0.0000001
 43
0.0000001
 44
0.0000000001
 40
0.0
 40
0.0
 40
0.0
 40
0.0
 40
0.5314339556
 40
1.0
 40
1.0
 40
1.0
 40
1.0
 10
27.8943682355
 20
73.6807574894
 30
0.0
 10
28.0254924448
 20
73.4053969399
 30
0.0
 10
28.383503963
 20
72.9830312687
 30
0.0
 10
28.930237164
 20
72.8652243285
 30
0.0
 10
29.201811735
 20
72.8652243285
 30
0.0
  0
SPLINE
  5
369
100
AcDbEntity
  8
0
100
AcDbSpline
 62
7
  6
CONTINUOUS
 70
0
 71
3
 72
8
 73
4
 74
0
 42
0.0000001
 43
0.0000001
 44
0.0000000001
 40
0.0
 40
0.0
 40
0.0
 40
0.0
 40
1.0
 40
1.0
 40
1.0
 40
1.0
 10
29.201811735
 20
72.8652243285
 30
0.0
 10
29.4592630022
 20
72.8652243285
 30
0.0
 10
29.692824688
 20
72.9067962228
 30
0.0
 10
29.8989628893
 20
73.01129021
 30
0.0
  0
SPLINE
  5
36A
100
AcDbEntity
  8
0
100
AcDbSpline
 62
7
  6
CONTINUOUS
 70
0
 71
3
 72
9
 73
5
 74
0
 42
0.0000001
 43
0.0000001
 44
0.0000000001
 40
0.0
 40
0.0
 40
0.0
 40
0.0
 40
0.9469081814
 40
1.0
 40
1.0
 40
1.0
 40
1.0
 10
29.8989628893
 20
73.01129021
 30
0.0
 10
30.1715375521
 20
73.1494616558
 30
0.0
 10
30.4065199864
 20
73.3507310234
 30
0.0
 10
30.5350750732
 20
73.6061657549
 30
0.0
 10
30.5416023231
 20
73.619872469
 30
0.0
  0
SPLINE
  5
36B
100
AcDbEntity
  8
0
100
AcDbSpline
 62
7
  6
CONTINUOUS
 70
0
 71
3
 72
8
 73
4
 74
0
 42
0.0000001
 43
0.0000001
 44
0.0000000001
 40
0.0
 40
0.0
 40
0.0
 40
0.0
 40
1.0
 40
1.0
 40
1.0
 40
1.0
 10
30.5416023231
 20
73.619872469
 30
0.0
 10
30.6159616792
 20
73.7760212984
 30
0.0
 10
30.6516497773
 20
73.9510168658
 30
0.0
 10
30.6516497773
 20
74.1338319446
 30
0.0
  0
SPLINE
  5
36C
100
AcDbEntity
  8
0
100
AcDbSpline
 62
7
  6
CONTINUOUS
 70
0
 71
3
 72
10
 73
6
 74
0
 42
0.0000001
 43
0.0000001
 44
0.0000000001
 40
0.0
 40
0.0
 40
0.0
 40
0.0
 40
0.411539574
 40
0.7912771871
 40
1.0
 40
1.0
 40
1.0
 40
1.0
 10
32.3862776201
 20
70.8587517409
 30
0.0
 10
32.3110675771
 20
70.8846862434
 30
0.0
 10
32.1873225602
 20
70.9597000698
 30
0.0
 10
32.1137295557
 20
71.0998327613
 30
0.0
 10
32.1014879983
 20
71.2078645041
 30
0.0
 10
32.1014879983
 20
71.247101274
 30
0.0
  0
SPLINE
  5
36D
100
AcDbEntity
  8
0
100
AcDbSpline
 62
7
  6
CONTINUOUS
 70
0
 71
3
 72
11
 73
7
 74
0
 42
0.0000001
 43
0.0000001
 44
0.0000000001
 40
0.0
 40
0.0
 40
0.0
 40
0.0
 40
0.2382081618
 40
0.6190539453
 40
0.8015894707
 40
1.0
 40
1.0
 40
1.0
 40
1.0
 10
32.1014879983
 20
71.247101274
 30
0.0
 10
32.1070431768
 20
71.2970977648
 30
0.0
 10
32.1328265646
 20
71.4229284067
 30
0.0
 10
32.2126547801
 20
71.5355413329
 30
0.0
 10
32.3203112601
 20
71.5873892279
 30
0.0
 10
32.3883406621
 20
71.5966152816
 30
0.0
 10
32.4251126093
 20
71.5966152816
 30
0.0
  0
SPLINE
  5
36E
100
AcDbEntity
  8
0
100
AcDbSpline
 62
7
  6
CONTINUOUS
 70
0
 71
3
 72
10
 73
6
 74
0
 42
0.0000001
 43
0.0000001
 44
0.0000000001
 40
0.0
 40
0.0
 40
0.0
 40
0.0
 40
0.4134339324
 40
0.8004235125
 40
1.0
 40
1.0
 40
1.0
 40
1.0
 10
32.878186975
 20
70.5480718283
 30
0.0
 10
33.0207148807
 20
70.597594069
 30
0.0
 10
33.2670871159
 20
70.7318014544
 30
0.0
 10
33.4270202701
 20
71.0103051296
 30
0.0
 10
33.4477663082
 20
71.2049637595
 30
0.0
 10
33.4477663082
 20
71.2729906707
 30
0.0
  0
SPLINE
  5
36F
100
AcDbEntity
  8
0
100
AcDbSpline
 62
7
  6
CONTINUOUS
 70
0
 71
3
 72
9
 73
5
 74
0
 42
0.0000001
 43
0.0000001
 44
0.0000000001
 40
0.0
 40
0.0
 40
0.0
 40
0.0
 40
0.8078359491
 40
1.0
 40
1.0
 40
1.0
 40
1.0
 10
33.4477663082
 20
71.2729906707
 30
0.0
 10
33.4477663082
 20
71.467779519
 30
0.0
 10
33.3990914611
 20
71.6937252108
 30
0.0
 10
33.2684369873
 20
71.8639749496
 30
0.0
 10
33.2406465751
 20
71.8943504958
 30
0.0
  0
SPLINE
  5
370
100
AcDbEntity
  8
0
100
AcDbSpline
 62
7
  6
CONTINUOUS
 70
0
 71
3
 72
9
 73
5
 74
0
 42
0.0000001
 43
0.0000001
 44
0.0000000001
 40
0.0
 40
0.0
 40
0.0
 40
0.0
 40
0.642747078
 40
1.0
 40
1.0
 40
1.0
 40
1.0
 10
32.9688019198
 20
71.8943504958
 30
0.0
 10
33.0346418736
 20
71.7742890416
 30
0.0
 10
33.1155876643
 20
71.5920525994
 30
0.0
 10
33.1370866638
 20
71.4292297125
 30
0.0
 10
33.1370866638
 20
71.3765511181
 30
0.0
  0
SPLINE
  5
371
100
AcDbEntity
  8
0
100
AcDbSpline
 62
7
  6
CONTINUOUS
 70
0
 71
3
 72
10
 73
6
 74
0
 42
0.0000001
 43
0.0000001
 44
0.0000000001
 40
0.0
 40
0.0
 40
0.0
 40
0.0
 40
0.4419130945
 40
0.8174579511
 40
1.0
 40
1.0
 40
1.0
 40
1.0
 10
33.0982517642
 20
71.1047067312
 30
0.0
 10
33.049721905
 20
71.0292157319
 30
0.0
 10
32.9437894964
 20
70.9087151251
 30
0.0
 10
32.8004686116
 20
70.8424039554
 30
0.0
 10
32.7128118473
 20
70.8328623443
 30
0.0
 10
32.684012298
 20
70.8328623443
 30
0.0
  0
SPLINE
  5
372
100
AcDbEntity
  8
0
100
AcDbSpline
 62
7
  6
CONTINUOUS
 70
0
 71
3
 72
10
 73
6
 74
0
 42
0.0000001
 43
0.0000001
 44
0.0000000001
 40
0.0
 40
0.0
 40
0.0
 40
0.0
 40
0.4171800662
 40
0.8028487016
 40
1.0
 40
1.0
 40
1.0
 40
1.0
 10
32.3215526979
 20
71.8814057974
 30
0.0
 10
32.199949678
 20
71.8392658618
 30
0.0
 10
31.9891110255
 20
71.7287336075
 30
0.0
 10
31.8481020447
 20
71.5010686561
 30
0.0
 10
31.8296432537
 20
71.341433553
 30
0.0
 10
31.8296432537
 20
71.285935369
 30
0.0
  0
SPLINE
  5
373
100
AcDbEntity
  8
0
100
AcDbSpline
 62
7
  6
CONTINUOUS
 70
0
 71
3
 72
10
 73
6
 74
0
 42
0.0000001
 43
0.0000001
 44
0.0000000001
 40
0.0
 40
0.0
 40
0.0
 40
0.0
 40
0.4123132674
 40
0.7998996493
 40
1.0
 40
1.0
 40
1.0
 40
1.0
 10
31.8425883096
 20
71.0529265074
 30
0.0
 10
31.8922441061
 20
70.9197035668
 30
0.0
 10
32.0242450403
 20
70.6899097689
 30
0.0
 10
32.2910946694
 20
70.5414917976
 30
0.0
 10
32.4767284514
 20
70.5221824317
 30
0.0
 10
32.5416173976
 20
70.5221824317
 30
0.0
  0
SPLINE
  5
374
100
AcDbEntity
  8
0
100
AcDbSpline
 62
7
  6
CONTINUOUS
 70
0
 71
3
 72
10
 73
6
 74
0
 42
0.0000001
 43
0.0000001
 44
0.0000000001
 40
0.0
 40
0.0
 40
0.0
 40
0.0
 40
0.1948881643
 40
0.5694968086
 40
1.0
 40
1.0
 40
1.0
 40
1.0
 10
31.4283488434
 20
65.188848701
 30
0.0
 10
31.4283488434
 20
65.1801016275
 30
0.0
 10
31.4569374319
 20
65.1509073037
 30
0.0
 10
31.5913787954
 20
65.1011513199
 30
0.0
 10
31.7200511502
 20
65.0670794889
 30
0.0
 10
31.7915973425
 20
65.0497519064
 30
0.0
  0
SPLINE
  5
375
100
AcDbEntity
  8
0
100
AcDbSpline
 62
7
  6
CONTINUOUS
 70
0
 71
3
 72
11
 73
7
 74
0
 42
0.0000001
 43
0.0000001
 44
0.0000000001
 40
0.0
 40
0.0
 40
0.0
 40
0.0
 40
0.3078062654
 40
0.7102524684
 40
0.8609648711
 40
1.0
 40
1.0
 40
1.0
 40
1.0
 10
31.7915973425
 20
65.0497519064
 30
0.0
 10
31.9277293188
 20
65.016782464
 30
0.0
 10
32.2415393752
 20
64.9393814703
 30
0.0
 10
32.5711846525
 20
64.8486091266
 30
0.0
 10
32.7132859238
 20
64.7968877816
 30
0.0
 10
32.7423864165
 20
64.7801130371
 30
0.0
 10
32.7487371307
 20
64.774609056
 30
0.0
  0
SPLINE
  5
376
100
AcDbEntity
  8
0
100
AcDbSpline
 62
7
  6
CONTINUOUS
 70
0
 71
3
 72
12
 73
8
 74
0
 42
0.0000001
 43
0.0000001
 44
0.0000000001
 40
0.0
 40
0.0
 40
0.0
 40
0.0
 40
0.2161241457
 40
0.4155794478
 40
0.6068377329
 40
0.7994367593
 40
1.0
 40
1.0
 40
1.0
 40
1.0
 10
32.7487371307
 20
64.774609056
 30
0.0
 10
32.8202622374
 20
64.7237162633
 30
0.0
 10
32.9465676791
 20
64.6165916383
 30
0.0
 10
33.08708172
 20
64.4429446994
 30
0.0
 10
33.1817325013
 20
64.2625206397
 30
0.0
 10
33.2402048684
 20
64.064280783
 30
0.0
 10
33.2535915416
 20
63.9184330267
 30
0.0
 10
33.2535915416
 20
63.8425700336
 30
0.0
  0
SPLINE
  5
377
100
AcDbEntity
  8
0
100
AcDbSpline
 62
7
  6
CONTINUOUS
 70
0
 71
3
 72
11
 73
7
 74
0
 42
0.0000001
 43
0.0000001
 44
0.0000000001
 40
0.0
 40
0.0
 40
0.0
 40
0.0
 40
0.3122434338
 40
0.7145233734
 40
0.8630768895
 40
1.0
 40
1.0
 40
1.0
 40
1.0
 10
32.6581222754
 20
63.7778451114
 30
0.0
 10
32.4935116504
 20
63.8152566217
 30
0.0
 10
32.1256156976
 20
63.8999373721
 30
0.0
 10
31.7238520626
 20
63.998775701
 30
0.0
 10
31.5566733514
 20
64.046687295
 30
0.0
 10
31.5239356473
 20
64.0598376762
 30
0.0
 10
31.5189849571
 20
64.0626720401
 30
0.0
  0
SPLINE
  5
378
100
AcDbEntity
  8
0
100
AcDbSpline
 62
7
  6
CONTINUOUS
 70
0
 71
3
 72
11
 73
7
 74
0
 42
0.0000001
 43
0.0000001
 44
0.0000000001
 40
0.0
 40
0.0
 40
0.0
 40
0.0
 40
0.2190895929
 40
0.605056229
 40
0.7968604745
 40
1.0
 40
1.0
 40
1.0
 40
1.0
 10
31.5189849571
 20
64.0626720401
 30
0.0
 10
31.4377193386
 20
64.1091981457
 30
0.0
 10
31.2310357151
 20
64.2536233747
 30
0.0
 10
31.0524687761
 20
64.491272559
 30
0.0
 10
30.9648962809
 20
64.7595441217
 30
0.0
 10
30.9493842763
 20
64.9134712566
 30
0.0
 10
30.9493842763
 20
64.9946739345
 30
0.0
  0
SPLINE
  5
379
100
AcDbEntity
  8
0
100
AcDbSpline
 62
7
  6
CONTINUOUS
 70
0
 71
3
 72
9
 73
5
 74
0
 42
0.0000001
 43
0.0000001
 44
0.0000000001
 40
0.0
 40
0.0
 40
0.0
 40
0.0
 40
0.6722779338
 40
1.0
 40
1.0
 40
1.0
 40
1.0
 10
31.7649183315
 20
62.7293016582
 30
0.0
 10
31.846138488
 20
62.6773208298
 30
0.0
 10
31.9649940714
 20
62.6051742328
 30
0.0
 10
32.0557971042
 20
62.5739617018
 30
0.0
 10
32.0755980652
 20
62.5739617019
 30
0.0
  0
SPLINE
  5
37A
100
AcDbEntity
  8
0
100
AcDbSpline
 62
7
  6
CONTINUOUS
 70
0
 71
3
 72
10
 73
6
 74
0
 42
0.0000001
 43
0.0000001
 44
0.0000000001
 40
0.0
 40
0.0
 40
0.0
 40
0.0
 40
0.1963612847
 40
0.5717538008
 40
1.0
 40
1.0
 40
1.0
 40
1.0
 10
32.4121675533
 20
62.483347383
 30
0.0
 10
32.4156730998
 20
62.471954381
 30
0.0
 10
32.4601700516
 20
62.4427995443
 30
0.0
 10
32.635748612
 20
62.4170555111
 30
0.0
 10
32.8003536883
 20
62.4085742712
 30
0.0
 10
32.8911320314
 20
62.4056770472
 30
0.0
  0
SPLINE
  5
37B
100
AcDbEntity
  8
0
100
AcDbSpline
 62
7
  6
CONTINUOUS
 70
0
 71
3
 72
9
 73
5
 74
0
 42
0.0000001
 43
0.0000001
 44
0.0000000001
 40
0.0
 40
0.0
 40
0.0
 40
0.0
 40
0.5336058577
 40
1.0
 40
1.0
 40
1.0
 40
1.0
 10
33.2406465752
 20
62.4445118575
 30
0.0
 10
33.5116061376
 20
62.5412831361
 30
0.0
 10
33.9372138774
 20
62.834340722
 30
0.0
 10
34.0561805409
 20
63.3344412001
 30
0.0
 10
34.0561805409
 20
63.5836710601
 30
0.0
  0
SPLINE
  5
37C
100
AcDbEntity
  8
0
100
AcDbSpline
 62
7
  6
CONTINUOUS
 70
0
 71
3
 72
9
 73
5
 74
0
 42
0.0000001
 43
0.0000001
 44
0.0000000001
 40
0.0
 40
0.0
 40
0.0
 40
0.0
 40
0.7921899227
 40
1.0
 40
1.0
 40
1.0
 40
1.0
 10
34.0561805409
 20
63.5836710601
 30
0.0
 10
34.0561805409
 20
64.0039187687
 30
0.0
 10
33.9111137019
 20
64.5135410197
 30
0.0
 10
33.6172218503
 20
64.9879019281
 30
0.0
 10
33.5510692768
 20
65.0851139805
 30
0.0
  0
SPLINE
  5
37D
100
AcDbEntity
  8
0
100
AcDbSpline
 62
7
  6
CONTINUOUS
 70
0
 71
3
 72
8
 73
4
 74
0
 42
0.0000001
 43
0.0000001
 44
0.0000000001
 40
0.0
 40
0.0
 40
0.0
 40
0.0
 40
1.0
 40
1.0
 40
1.0
 40
1.0
 10
33.5510692768
 20
65.0851139805
 30
0.0
 10
33.3457257205
 20
65.3868689618
 30
0.0
 10
33.0639973962
 20
65.6645748544
 30
0.0
 10
32.7357921643
 20
65.9137675432
 30
0.0
  0
SPLINE
  5
37E
100
AcDbEntity
  8
0
100
AcDbSpline
 62
7
  6
CONTINUOUS
 70
0
 71
3
 72
9
 73
5
 74
0
 42
0.0000001
 43
0.0000001
 44
0.0000000001
 40
0.0
 40
0.0
 40
0.0
 40
0.0
 40
0.5433211924
 40
1.0
 40
1.0
 40
1.0
 40
1.0
 10
32.3862776202
 20
66.1079423099
 30
0.0
 10
32.3562786254
 20
66.1465124799
 30
0.0
 10
32.2520091787
 20
66.2063026845
 30
0.0
 10
32.1153825804
 20
66.2468637512
 30
0.0
 10
32.0497081321
 20
66.2632822661
 30
0.0
  0
SPLINE
  5
37F
100
AcDbEntity
  8
0
100
AcDbSpline
 62
7
  6
CONTINUOUS
 70
0
 71
3
 72
10
 73
6
 74
0
 42
0.0000001
 43
0.0000001
 44
0.0000000001
 40
0.0
 40
0.0
 40
0.0
 40
0.0
 40
0.1927323699
 40
0.5328477451
 40
1.0
 40
1.0
 40
1.0
 40
1.0
 10
31.7390283984
 20
66.3538973003
 30
0.0
 10
31.7390283984
 20
66.3625605028
 30
0.0
 10
31.710007918
 20
66.3839584232
 30
0.0
 10
31.5644672653
 20
66.404468867
 30
0.0
 10
31.4225002833
 20
66.4107489168
 30
0.0
 10
31.3376576884
 20
66.4130893505
 30
0.0
  0
SPLINE
  5
380
100
AcDbEntity
  8
0
100
AcDbSpline
 62
7
  6
CONTINUOUS
 70
0
 71
3
 72
8
 73
4
 74
0
 42
0.0000001
 43
0.0000001
 44
0.0000000001
 40
0.0
 40
0.0
 40
0.0
 40
0.0
 40
1.0
 40
1.0
 40
1.0
 40
1.0
 10
30.8107419372
 20
66.3073924302
 30
0.0
 10
30.6308465558
 20
66.2213135838
 30
0.0
 10
30.4799548174
 20
66.1008457056
 30
0.0
 10
30.3691906617
 20
65.9515693831
 30
0.0
  0
SPLINE
  5
381
100
AcDbEntity
  8
0
100
AcDbSpline
 62
7
  6
CONTINUOUS
 70
0
 71
3
 72
9
 73
5
 74
0
 42
0.0000001
 43
0.0000001
 44
0.0000000001
 40
0.0
 40
0.0
 40
0.0
 40
0.0
 40
0.1092338386
 40
1.0
 40
1.0
 40
1.0
 40
1.0
 10
30.2978885441
 20
65.8416186756
 30
0.0
 10
30.2863640433
 20
65.8211029704
 30
0.0
 10
30.1870971231
 20
65.6292765779
 30
0.0
 10
30.1467954558
 20
65.4016641693
 30
0.0
 10
30.1467954558
 20
65.1888487009
 30
0.0
  0
SPLINE
  5
382
100
AcDbEntity
  8
0
100
AcDbSpline
 62
7
  6
CONTINUOUS
 70
0
 71
3
 72
9
 73
5
 74
0
 42
0.0000001
 43
0.0000001
 44
0.0000000001
 40
0.0
 40
0.0
 40
0.0
 40
0.0
 40
0.4409758052
 40
1.0
 40
1.0
 40
1.0
 40
1.0
 10
30.1467954558
 20
65.1888487009
 30
0.0
 10
30.1467954558
 20
64.8153312009
 30
0.0
 10
30.3597680002
 20
63.9856665186
 30
0.0
 10
30.9912353774
 20
63.2842073169
 30
0.0
 10
31.4154037875
 20
62.9364218382
 30
0.0
  0
SPLINE
  5
383
100
AcDbEntity
  8
0
100
AcDbSpline
 62
7
  6
CONTINUOUS
 70
0
 71
3
 72
9
 73
5
 74
0
 42
0.0000001
 43
0.0000001
 44
0.0000000001
 40
0.0
 40
0.0
 40
0.0
 40
0.0
 40
0.6339428955
 40
1.0
 40
1.0
 40
1.0
 40
1.0
 10
28.386277501
 20
70.263282743
 30
0.0
 10
28.4813602888
 20
70.3900595016
 30
0.0
 10
28.6477835418
 20
70.535189525
 30
0.0
 10
28.8436749666
 20
70.5739626556
 30
0.0
 10
28.9170219344
 20
70.5739626556
 30
0.0
  0
SPLINE
  5
384
100
AcDbEntity
  8
0
100
AcDbSpline
 62
7
  6
CONTINUOUS
 70
0
 71
3
 72
11
 73
7
 74
0
 42
0.0000001
 43
0.0000001
 44
0.0000000001
 40
0.0
 40
0.0
 40
0.0
 40
0.0
 40
0.2470803343
 40
0.6318460063
 40
0.8100239482
 40
1.0
 40
1.0
 40
1.0
 40
1.0
 10
28.9170219344
 20
69.3959679275
 30
0.0
 10
28.8309199064
 20
69.4103182655
 30
0.0
 10
28.6173617399
 20
69.4640046245
 30
0.0
 10
28.430762814
 20
69.6002641312
 30
0.0
 10
28.3490767298
 20
69.7684957329
 30
0.0
 10
28.3344976347
 20
69.8714708533
 30
0.0
 10
28.3344976347
 20
69.9267134337
 30
0.0
  0
SPLINE
  5
385
100
AcDbEntity
  8
0
100
AcDbSpline
 62
7
  6
CONTINUOUS
 70
0
 71
3
 72
9
 73
5
 74
0
 42
0.0000001
 43
0.0000001
 44
0.0000000001
 40
0.0
 40
0.0
 40
0.0
 40
0.0
 40
0.7710903343
 40
1.0
 40
1.0
 40
1.0
 40
1.0
 10
28.3344976347
 20
70.0432171493
 30
0.0
 10
28.3344976347
 20
70.0900358344
 30
0.0
 10
28.3515060741
 20
70.165232424
 30
0.0
 10
28.3794365373
 20
70.2448121715
 30
0.0
 10
28.386277501
 20
70.263282743
 30
0.0
  0
SPLINE
  5
386
100
AcDbEntity
  8
0
100
AcDbSpline
 62
7
  6
CONTINUOUS
 70
0
 71
3
 72
8
 73
4
 74
0
 42
0.0000001
 43
0.0000001
 44
0.0000000001
 40
0.0
 40
0.0
 40
0.0
 40
0.0
 40
1.0
 40
1.0
 40
1.0
 40
1.0
 10
29.9569907436
 20
68.6841312988
 30
0.0
 10
30.1455353855
 20
68.8038704836
 30
0.0
 10
30.3010151819
 20
68.9559897778
 30
0.0
 10
30.4144140827
 20
69.1338657304
 30
0.0
  0
SPLINE
  5
387
100
AcDbEntity
  8
0
100
AcDbSpline
 62
7
  6
CONTINUOUS
 70
0
 71
3
 72
9
 73
5
 74
0
 42
0.0000001
 43
0.0000001
 44
0.0000000001
 40
0.0
 40
0.0
 40
0.0
 40
0.0
 40
0.2638482103
 40
1.0
 40
1.0
 40
1.0
 40
1.0
 10
30.4144140827
 20
69.1338657304
 30
0.0
 10
30.4551242375
 20
69.197723118
 30
0.0
 10
30.5888630273
 20
69.452327548
 30
0.0
 10
30.6387047213
 20
69.7502134992
 30
0.0
 10
30.6387047213
 20
69.9784922271
 30
0.0
  0
SPLINE
  5
388
100
AcDbEntity
  8
0
100
AcDbSpline
 62
7
  6
CONTINUOUS
 70
0
 71
3
 72
10
 73
6
 74
0
 42
0.0000001
 43
0.0000001
 44
0.0000000001
 40
0.0
 40
0.0
 40
0.0
 40
0.0
 40
0.2230497776
 40
0.62648236
 40
1.0
 40
1.0
 40
1.0
 40
1.0
 10
29.7584459227
 20
71.285935369
 30
0.0
 10
29.8114620664
 20
71.2099936015
 30
0.0
 10
29.9472278887
 20
70.9921495187
 30
0.0
 10
30.0875312241
 20
70.6496268606
 30
0.0
 10
30.1209053439
 20
70.387308529
 30
0.0
 10
30.1209053439
 20
70.263282743
 30
0.0
  0
SPLINE
  5
389
100
AcDbEntity
  8
0
100
AcDbSpline
 62
7
  6
CONTINUOUS
 70
0
 71
3
 72
10
 73
6
 74
0
 42
0.0000001
 43
0.0000001
 44
0.0000000001
 40
0.0
 40
0.0
 40
0.0
 40
0.0
 40
0.431180656
 40
0.8147283412
 40
1.0
 40
1.0
 40
1.0
 40
1.0
 10
30.1209053439
 20
70.263282743
 30
0.0
 10
30.1209053439
 20
70.1561951305
 30
0.0
 10
30.0977146163
 20
69.9593732914
 30
0.0
 10
30.0132378278
 20
69.7676093623
 30
0.0
 10
29.9448953707
 20
69.6751392743
 30
0.0
 10
29.9207688984
 20
69.647259819
 30
0.0
  0
SPLINE
  5
38A
100
AcDbEntity
  8
0
100
AcDbSpline
 62
7
  6
CONTINUOUS
 70
0
 71
3
 72
10
 73
6
 74
0
 42
0.0000001
 43
0.0000001
 44
0.0000000001
 40
0.0
 40
0.0
 40
0.0
 40
0.0
 40
0.2208890377
 40
0.6196557028
 40
1.0
 40
1.0
 40
1.0
 40
1.0
 10
29.9207688984
 20
69.647259819
 30
0.0
 10
29.8879093124
 20
69.609288774
 30
0.0
 10
29.7890701502
 20
69.5114191096
 30
0.0
 10
29.6170213843
 20
69.4085541885
 30
0.0
 10
29.4696042421
 20
69.3830232291
 30
0.0
 10
29.3959865016
 20
69.3830232291
 30
0.0
  0
SPLINE
  5
38B
100
AcDbEntity
  8
0
100
AcDbSpline
 62
7
  6
CONTINUOUS
 70
0
 71
3
 72
9
 73
5
 74
0
 42
0.0000001
 43
0.0000001
 44
0.0000000001
 40
0.0
 40
0.0
 40
0.0
 40
0.0
 40
0.5429926451
 40
1.0
 40
1.0
 40
1.0
 40
1.0
 10
28.6568281067
 20
71.2335383883
 30
0.0
 10
28.3698968491
 20
71.0963586653
 30
0.0
 10
27.9317851102
 20
70.7425946509
 30
0.0
 10
27.8037532013
 20
70.2103490172
 30
0.0
 10
27.8037532013
 20
69.9526028304
 30
0.0
  0
SPLINE
  5
38C
100
AcDbEntity
  8
0
100
AcDbSpline
 62
7
  6
CONTINUOUS
 70
0
 71
3
 72
8
 73
4
 74
0
 42
0.0000001
 43
0.0000001
 44
0.0000000001
 40
0.0
 40
0.0
 40
0.0
 40
0.0
 40
1.0
 40
1.0
 40
1.0
 40
1.0
 10
27.8037532013
 20
69.9526028304
 30
0.0
 10
27.8037532013
 20
69.7033790844
 30
0.0
 10
27.8474662116
 20
69.4667019563
 30
0.0
 10
27.9507868164
 20
69.2689676887
 30
0.0
  0
SPLINE
  5
38D
100
AcDbEntity
  8
0
100
AcDbSpline
 62
7
  6
CONTINUOUS
 70
0
 71
3
 72
9
 73
5
 74
0
 42
0.0000001
 43
0.0000001
 44
0.0000000001
 40
0.0
 40
0.0
 40
0.0
 40
0.0
 40
0.5492533935
 40
1.0
 40
1.0
 40
1.0
 40
1.0
 10
27.9507868164
 20
69.2689676887
 30
0.0
 10
28.0948767492
 20
68.9932093593
 30
0.0
 10
28.4608792493
 20
68.5879053877
 30
0.0
 10
28.9923660539
 20
68.4763356711
 30
0.0
 10
29.2446865184
 20
68.4768786674
 30
0.0
  0
SPLINE
  5
38E
100
AcDbEntity
  8
0
100
AcDbSpline
 62
7
  6
CONTINUOUS
 70
0
 71
3
 72
10
 73
6
 74
0
 42
0.0000001
 43
0.0000001
 44
0.0000000001
 40
0.0
 40
0.0
 40
0.0
 40
0.0
 40
0.7961999412
 40
0.9905223668
 40
1.0
 40
1.0
 40
1.0
 40
1.0
 10
33.8124637813
 20
172.8383231337
 30
0.0
 10
33.7631079108
 20
172.9526212398
 30
0.0
 10
33.67675141
 20
173.075649641
 30
0.0
 10
33.5592412741
 20
173.163745156
 30
0.0
 10
33.5342089948
 20
173.1801716162
 30
0.0
 10
33.5330425556
 20
173.1809322169
 30
0.0
  0
SPLINE
  5
38F
100
AcDbEntity
  8
0
100
AcDbSpline
 62
7
  6
CONTINUOUS
 70
0
 71
3
 72
9
 73
5
 74
0
 42
0.0000001
 43
0.0000001
 44
0.0000000001
 40
0.0
 40
0.0
 40
0.0
 40
0.0
 40
0.7992077625
 40
1.0
 40
1.0
 40
1.0
 40
1.0
 10
33.5330430363
 20
173.1809334314
 30
0.0
 10
33.4409103874
 20
173.2410900837
 30
0.0
 10
33.3141758593
 20
173.2899939493
 30
0.0
 10
33.180762157
 20
173.2979454181
 30
0.0
 10
33.1538612847
 20
173.2979454181
 30
0.0
  0
SPLINE
  5
390
100
AcDbEntity
  8
0
100
AcDbSpline
 62
7
  6
CONTINUOUS
 70
0
 71
3
 72
9
 73
5
 74
0
 42
0.0000001
 43
0.0000001
 44
0.0000000001
 40
0.0
 40
0.0
 40
0.0
 40
0.0
 40
0.8062989745
 40
1.0
 40
1.0
 40
1.0
 40
1.0
 10
33.1538612847
 20
173.2979454181
 30
0.0
 10
33.0498787787
 20
173.2979454181
 30
0.0
 10
32.9280783387
 20
173.2730041266
 30
0.0
 10
32.8268481478
 20
173.2127435474
 30
0.0
 10
32.8080984265
 20
173.1998672399
 30
0.0
  0
SPLINE
  5
391
100
AcDbEntity
  8
0
100
AcDbSpline
 62
7
  6
CONTINUOUS
 70
0
 71
3
 72
9
 73
5
 74
0
 42
0.0000001
 43
0.0000001
 44
0.0000000001
 40
0.0
 40
0.0
 40
0.0
 40
0.0
 40
0.7953164305
 40
1.0
 40
1.0
 40
1.0
 40
1.0
 10
32.8080984265
 20
173.1998672399
 30
0.0
 10
32.7333049087
 20
173.148503045
 30
0.0
 10
32.6576504777
 20
173.0613316535
 30
0.0
 10
32.6054111152
 20
172.9555602645
 30
0.0
 10
32.5956072569
 20
172.9332787215
 30
0.0
  0
SPLINE
  5
392
100
AcDbEntity
  8
0
100
AcDbSpline
 62
7
  6
CONTINUOUS
 70
0
 71
3
 72
9
 73
5
 74
0
 42
0.0000001
 43
0.0000001
 44
0.0000000001
 40
0.0
 40
0.0
 40
0.0
 40
0.0
 40
0.766056965
 40
1.0
 40
1.0
 40
1.0
 40
1.0
 10
32.5956072569
 20
172.9332787215
 30
0.0
 10
32.5490693059
 20
172.8275104281
 30
0.0
 10
32.48419427
 20
172.6190956444
 30
0.0
 10
32.4207993422
 20
172.3896063855
 30
0.0
 10
32.4059751764
 20
172.3346547472
 30
0.0
  0
SPLINE
  5
393
100
AcDbEntity
  8
0
100
AcDbSpline
 62
7
  6
CONTINUOUS
 70
0
 71
3
 72
9
 73
5
 74
0
 42
0.0000001
 43
0.0000001
 44
0.0000000001
 40
0.0
 40
0.0
 40
0.0
 40
0.0
 40
0.6791434129
 40
1.0
 40
1.0
 40
1.0
 40
1.0
 10
32.4059751764
 20
172.3346547472
 30
0.0
 10
32.3785568809
 20
172.2330179817
 30
0.0
 10
32.3390610387
 20
172.0875164941
 30
0.0
 10
32.309379414
 20
171.9925015551
 30
0.0
 10
32.3032896802
 20
171.9764760106
 30
0.0
  0
SPLINE
  5
394
100
AcDbEntity
  8
0
100
AcDbSpline
 62
7
  6
CONTINUOUS
 70
0
 71
3
 72
9
 73
5
 74
0
 42
0.0000001
 43
0.0000001
 44
0.0000000001
 40
0.0
 40
0.0
 40
0.0
 40
0.0
 40
0.6284460634
 40
1.0
 40
1.0
 40
1.0
 40
1.0
 10
32.3032896802
 20
171.9764760106
 30
0.0
 10
32.2873118732
 20
171.9344293352
 30
0.0
 10
32.2550213495
 20
171.8737939685
 30
0.0
 10
32.2128865893
 20
171.8321377987
 30
0.0
 10
32.1963350535
 20
171.8195061392
 30
0.0
  0
SPLINE
  5
395
100
AcDbEntity
  8
0
100
AcDbSpline
 62
7
  6
CONTINUOUS
 70
0
 71
3
 72
9
 73
5
 74
0
 42
0.0000001
 43
0.0000001
 44
0.0000000001
 40
0.0
 40
0.0
 40
0.0
 40
0.0
 40
0.5950578674
 40
1.0
 40
1.0
 40
1.0
 40
1.0
 10
32.1963350535
 20
171.8195061392
 30
0.0
 10
32.1716723713
 20
171.8006842842
 30
0.0
 10
32.1261741782
 20
171.7779391862
 30
0.0
 10
32.074610873
 20
171.7717517528
 30
0.0
 10
32.0531110563
 20
171.7717517528
 30
0.0
  0
SPLINE
  5
396
100
AcDbEntity
  8
0
100
AcDbSpline
 62
7
  6
CONTINUOUS
 70
0
 71
3
 72
10
 73
6
 74
0
 42
0.0000001
 43
0.0000001
 44
0.0000000001
 40
0.0
 40
0.0
 40
0.0
 40
0.0
 40
0.3797841806
 40
0.7777350888
 40
1.0
 40
1.0
 40
1.0
 40
1.0
 10
32.0531110563
 20
171.7717517528
 30
0.0
 10
32.0221989576
 20
171.7717517528
 30
0.0
 10
31.9600044349
 20
171.7832851052
 30
0.0
 10
31.8891384602
 20
171.8310105343
 30
0.0
 10
31.8501767201
 20
171.8743896813
 30
0.0
 10
31.8371711601
 20
171.8911786048
 30
0.0
  0
SPLINE
  5
397
100
AcDbEntity
  8
0
100
AcDbSpline
 62
7
  6
CONTINUOUS
 70
0
 71
3
 72
9
 73
5
 74
0
 42
0.0000001
 43
0.0000001
 44
0.0000000001
 40
0.0
 40
0.0
 40
0.0
 40
0.0
 40
0.5457125422
 40
1.0
 40
1.0
 40
1.0
 40
1.0
 10
31.8371711601
 20
171.8911786048
 30
0.0
 10
31.8021212328
 20
171.9364246803
 30
0.0
 10
31.7552462588
 20
172.0576709094
 30
0.0
 10
31.7447207127
 20
172.2153771318
 30
0.0
 10
31.7447207127
 20
172.2894868987
 30
0.0
  0
SPLINE
  5
398
100
AcDbEntity
  8
0
100
AcDbSpline
 62
7
  6
CONTINUOUS
 70
0
 71
3
 72
9
 73
5
 74
0
 42
0.0000001
 43
0.0000001
 44
0.0000000001
 40
0.0
 40
0.0
 40
0.0
 40
0.0
 40
0.6347916274
 40
1.0
 40
1.0
 40
1.0
 40
1.0
 10
31.7447207127
 20
172.2894868987
 30
0.0
 10
31.7447207127
 20
172.3825550007
 30
0.0
 10
31.7651805838
 20
172.5198574977
 30
0.0
 10
31.8237531396
 20
172.6222069214
 30
0.0
 10
31.8489502114
 20
172.6535999874
 30
0.0
  0
SPLINE
  5
399
100
AcDbEntity
  8
0
100
AcDbSpline
 62
7
  6
CONTINUOUS
 70
0
 71
3
 72
9
 73
5
 74
0
 42
0.0000001
 43
0.0000001
 44
0.0000000001
 40
0.0
 40
0.0
 40
0.0
 40
0.0
 40
0.5853463411
 40
1.0
 40
1.0
 40
1.0
 40
1.0
 10
31.8489502114
 20
172.6535999874
 30
0.0
 10
31.8891810006
 20
172.7037235822
 30
0.0
 10
31.9753991253
 20
172.7720852594
 30
0.0
 10
32.0872878532
 20
172.8044484517
 30
0.0
 10
32.1363987424
 20
172.8117240095
 30
0.0
  0
SPLINE
  5
39A
100
AcDbEntity
  8
0
100
AcDbSpline
 62
7
  6
CONTINUOUS
 70
0
 71
3
 72
8
 73
4
 74
0
 42
0.0000001
 43
0.0000001
 44
0.0000000001
 40
0.0
 40
0.0
 40
0.0
 40
0.0
 40
1.0
 40
1.0
 40
1.0
 40
1.0
 10
32.0823742081
 20
173.2079045908
 30
0.0
 10
31.9416945104
 20
173.1830777623
 30
0.0
 10
31.8120358983
 20
173.1406551841
 30
0.0
 10
31.7132064183
 20
173.0683405555
 30
0.0
  0
SPLINE
  5
39B
100
AcDbEntity
  8
0
100
AcDbSpline
 62
7
  6
CONTINUOUS
 70
0
 71
3
 72
10
 73
6
 74
0
 42
0.0000001
 43
0.0000001
 44
0.0000000001
 40
0.0
 40
0.0
 40
0.0
 40
0.0
 40
0.7851153679
 40
0.9973328431
 40
1.0
 40
1.0
 40
1.0
 40
1.0
 10
31.7132064183
 20
173.0683405555
 30
0.0
 10
31.6360685091
 20
173.0118978901
 30
0.0
 10
31.5575762071
 20
172.9078131335
 30
0.0
 10
31.5030566153
 20
172.7806718138
 30
0.0
 10
31.4923400114
 20
172.7524976881
 30
0.0
 10
31.4922071501
 20
172.7521478586
 30
0.0
  0
SPLINE
  5
39C
100
AcDbEntity
  8
0
100
AcDbSpline
 62
7
  6
CONTINUOUS
 70
0
 71
3
 72
8
 73
4
 74
0
 42
0.0000001
 43
0.0000001
 44
0.0000000001
 40
0.0
 40
0.0
 40
0.0
 40
0.0
 40
1.0
 40
1.0
 40
1.0
 40
1.0
 10
31.492207187
 20
172.7521478382
 30
0.0
 10
31.4357137495
 20
172.6033647414
 30
0.0
 10
31.4114318785
 20
172.4353253227
 30
0.0
 10
31.4115699652
 20
172.2587263245
 30
0.0
  0
SPLINE
  5
39D
100
AcDbEntity
  8
0
100
AcDbSpline
 62
7
  6
CONTINUOUS
 70
0
 71
3
 72
8
 73
4
 74
0
 42
0.0000001
 43
0.0000001
 44
0.0000000001
 40
0.0
 40
0.0
 40
0.0
 40
0.0
 40
1.0
 40
1.0
 40
1.0
 40
1.0
 10
31.411570246
 20
172.2587262989
 30
0.0
 10
31.4117107976
 20
172.1372811556
 30
0.0
 10
31.428951677
 20
172.0192587591
 30
0.0
 10
31.4610917405
 20
171.9090639117
 30
0.0
  0
SPLINE
  5
39E
100
AcDbEntity
  8
0
100
AcDbSpline
 62
7
  6
CONTINUOUS
 70
0
 71
3
 72
8
 73
4
 74
0
 42
0.0000001
 43
0.0000001
 44
0.0000000001
 40
0.0
 40
0.0
 40
0.0
 40
0.0
 40
1.0
 40
1.0
 40
1.0
 40
1.0
 10
31.4610917405
 20
171.9090639117
 30
0.0
 10
31.4897875015
 20
171.8106781382
 30
0.0
 10
31.5288843101
 20
171.7214291691
 30
0.0
 10
31.5780541771
 20
171.6523826743
 30
0.0
  0
SPLINE
  5
39F
100
AcDbEntity
  8
0
100
AcDbSpline
 62
7
  6
CONTINUOUS
 70
0
 71
3
 72
8
 73
4
 74
0
 42
0.0000001
 43
0.0000001
 44
0.0000000001
 40
0.0
 40
0.0
 40
0.0
 40
0.0
 40
1.0
 40
1.0
 40
1.0
 40
1.0
 10
31.5780541771
 20
171.6523826743
 30
0.0
 10
31.6380428218
 20
171.5681439748
 30
0.0
 10
31.71581642
 20
171.5014303281
 30
0.0
 10
31.8054980808
 20
171.452105547
 30
0.0
  0
SPLINE
  5
3A0
100
AcDbEntity
  8
0
100
AcDbSpline
 62
7
  6
CONTINUOUS
 70
0
 71
3
 72
8
 73
4
 74
0
 42
0.0000001
 43
0.0000001
 44
0.0000000001
 40
0.0
 40
0.0
 40
0.0
 40
0.0
 40
1.0
 40
1.0
 40
1.0
 40
1.0
 10
31.8421849596
 20
171.4336800406
 30
0.0
 10
31.9224592911
 20
171.3970368413
 30
0.0
 10
32.0102878709
 20
171.3800731326
 30
0.0
 10
32.1003824514
 20
171.3800731326
 30
0.0
  0
SPLINE
  5
3A1
100
AcDbEntity
  8
0
100
AcDbSpline
 62
7
  6
CONTINUOUS
 70
0
 71
3
 72
8
 73
4
 74
0
 42
0.0000001
 43
0.0000001
 44
0.0000000001
 40
0.0
 40
0.0
 40
0.0
 40
0.0
 40
1.0
 40
1.0
 40
1.0
 40
1.0
 10
32.1003824514
 20
171.3800731326
 30
0.0
 10
32.1773741804
 20
171.3800731326
 30
0.0
 10
32.2523854726
 20
171.3932732616
 30
0.0
 10
32.3225812353
 20
171.4195781547
 30
0.0
  0
SPLINE
  5
3A2
100
AcDbEntity
  8
0
100
AcDbSpline
 62
7
  6
CONTINUOUS
 70
0
 71
3
 72
10
 73
6
 74
0
 42
0.0000001
 43
0.0000001
 44
0.0000000001
 40
0.0
 40
0.0
 40
0.0
 40
0.0
 40
0.9444508623
 40
0.9993392959
 40
1.0
 40
1.0
 40
1.0
 40
1.0
 10
27.325512318
 20
56.1795473233
 30
0.0
 10
27.4023528668
 20
56.155302944
 30
0.0
 10
27.4874021638
 20
56.1413809435
 30
0.0
 10
27.574797405
 20
56.1403341487
 30
0.0
 10
27.5796587725
 20
56.1403134831
 30
0.0
 10
27.5797165947
 20
56.1403132426
 30
0.0
  0
SPLINE
  5
3A3
100
AcDbEntity
  8
0
100
AcDbSpline
 62
7
  6
CONTINUOUS
 70
0
 71
3
 72
9
 73
5
 74
0
 42
0.0000001
 43
0.0000001
 44
0.0000000001
 40
0.0
 40
0.0
 40
0.0
 40
0.0
 40
0.7858496529
 40
1.0
 40
1.0
 40
1.0
 40
1.0
 10
26.6257599038
 20
56.9040590195
 30
0.0
 10
26.7540566482
 20
56.6301278365
 30
0.0
 10
26.9703546841
 20
56.3320154953
 30
0.0
 10
27.2608039246
 20
56.1999638203
 30
0.0
 10
27.325512318
 20
56.1795473233
 30
0.0
  0
SPLINE
  5
3A4
100
AcDbEntity
  8
0
100
AcDbSpline
 62
7
  6
CONTINUOUS
 70
0
 71
3
 72
8
 73
4
 74
0
 42
0.0000001
 43
0.0000001
 44
0.0000000001
 40
0.0
 40
0.0
 40
0.0
 40
0.0
 40
1.0
 40
1.0
 40
1.0
 40
1.0
 10
26.5092547957
 20
57.5645909372
 30
0.0
 10
26.5092076525
 20
57.354842321
 30
0.0
 10
26.5530839075
 20
57.1311723445
 30
0.0
 10
26.6257599038
 20
56.9040590195
 30
0.0
  0
SPLINE
  5
3A5
100
AcDbEntity
  8
0
100
AcDbSpline
 62
7
  6
CONTINUOUS
 70
0
 71
3
 72
8
 73
4
 74
0
 42
0.0000001
 43
0.0000001
 44
0.0000000001
 40
0.0
 40
0.0
 40
0.0
 40
0.0
 40
1.0
 40
1.0
 40
1.0
 40
1.0
 10
26.8199346703
 20
59.0529263286
 30
0.0
 10
26.6333978755
 20
58.6215609165
 30
0.0
 10
26.5092547577
 20
58.1938253744
 30
0.0
 10
26.5092547577
 20
57.8102079301
 30
0.0
  0
SPLINE
  5
3A6
100
AcDbEntity
  8
0
100
AcDbSpline
 62
7
  6
CONTINUOUS
 70
0
 71
3
 72
9
 73
5
 74
0
 42
0.0000001
 43
0.0000001
 44
0.0000000001
 40
0.0
 40
0.0
 40
0.0
 40
0.0
 40
0.3434379429
 40
1.0
 40
1.0
 40
1.0
 40
1.0
 10
27.260063712
 20
57.8490429192
 30
0.0
 10
27.260063712
 20
57.9447857257
 30
0.0
 10
27.3071532363
 20
58.2975163643
 30
0.0
 10
27.4765611195
 20
58.7425397108
 30
0.0
 10
27.6095784348
 20
59.0399814515
 30
0.0
  0
SPLINE
  5
3A7
100
AcDbEntity
  8
0
100
AcDbSpline
 62
7
  6
CONTINUOUS
 70
0
 71
3
 72
10
 73
6
 74
0
 42
0.0000001
 43
0.0000001
 44
0.0000000001
 40
0.0
 40
0.0
 40
0.0
 40
0.0
 40
0.3605966682
 40
0.7620464463
 40
1.0
 40
1.0
 40
1.0
 40
1.0
 10
27.4671838922
 20
57.2017936973
 30
0.0
 10
27.4185388995
 20
57.2365401571
 30
0.0
 10
27.3309427977
 20
57.3311890309
 30
0.0
 10
27.2697710698
 20
57.5133315118
 30
0.0
 10
27.260063712
 20
57.6534890216
 30
0.0
 10
27.260063712
 20
57.7066480188
 30
0.0
  0
SPLINE
  5
3A8
100
AcDbEntity
  8
0
100
AcDbSpline
 62
7
  6
CONTINUOUS
 70
0
 71
3
 72
11
 73
7
 74
0
 42
0.0000001
 43
0.0000001
 44
0.0000000001
 40
0.0
 40
0.0
 40
0.0
 40
0.0
 40
0.3023172522
 40
0.6999411184
 40
0.9280297476
 40
1.0
 40
1.0
 40
1.0
 40
1.0
 10
28.1877654683
 20
58.139807549
 30
0.0
 10
28.1361344063
 20
57.9888312041
 30
0.0
 10
28.0082502608
 20
57.6414353049
 30
0.0
 10
27.8057316382
 20
57.2722640407
 30
0.0
 10
27.6623573606
 20
57.1820057713
 30
0.0
 10
27.6089051647
 20
57.1759036748
 30
0.0
 10
27.5966337366
 20
57.1759036748
 30
0.0
  0
SPLINE
  5
3A9
100
AcDbEntity
  8
0
100
AcDbSpline
 62
7
  6
CONTINUOUS
 70
0
 71
3
 72
10
 73
6
 74
0
 42
0.0000001
 43
0.0000001
 44
0.0000000001
 40
0.0
 40
0.0
 40
0.0
 40
0.0
 40
0.3951365568
 40
0.9738209261
 40
1.0
 40
1.0
 40
1.0
 40
1.0
 10
29.2611445197
 20
59.2221912043
 30
0.0
 10
29.0590888631
 20
59.1938117103
 30
0.0
 10
28.601874209
 20
58.9999300042
 30
0.0
 10
28.31375852
 20
58.5001449112
 30
0.0
 10
28.1929068105
 20
58.1548415425
 30
0.0
 10
28.1877654683
 20
58.139807549
 30
0.0
  0
SPLINE
  5
3AA
100
AcDbEntity
  8
0
100
AcDbSpline
 62
7
  6
CONTINUOUS
 70
0
 71
3
 72
10
 73
6
 74
0
 42
0.0000001
 43
0.0000001
 44
0.0000000001
 40
0.0
 40
0.0
 40
0.0
 40
0.0
 40
0.4876360851
 40
0.8999437234
 40
1.0
 40
1.0
 40
1.0
 40
1.0
 10
30.6257596653
 20
57.9914376411
 30
0.0
 10
30.5632382646
 20
58.3393829641
 30
0.0
 10
30.3523278885
 20
58.9283338384
 30
0.0
 10
29.8217010001
 20
59.2140695731
 30
0.0
 10
29.4990253616
 20
59.2341562181
 30
0.0
 10
29.4348213118
 20
59.2341562181
 30
0.0
  0
SPLINE
  5
3AB
100
AcDbEntity
  8
0
100
AcDbSpline
 62
7
  6
CONTINUOUS
 70
0
 71
3
 72
9
 73
5
 74
0
 42
0.0000001
 43
0.0000001
 44
0.0000000001
 40
0.0
 40
0.0
 40
0.0
 40
0.0
 40
0.7995892218
 40
1.0
 40
1.0
 40
1.0
 40
1.0
 10
30.2503551882
 20
56.2179749148
 30
0.0
 10
30.4623928109
 20
56.5756285325
 30
0.0
 10
30.6605474766
 20
57.0609995585
 30
0.0
 10
30.6602842505
 20
57.5771450041
 30
0.0
 10
30.6516497773
 20
57.6807580854
 30
0.0
  0
SPLINE
  5
3AC
100
AcDbEntity
  8
0
100
AcDbSpline
 62
7
  6
CONTINUOUS
 70
0
 71
3
 72
10
 73
6
 74
0
 42
0.0000001
 43
0.0000001
 44
0.0000000001
 40
0.0
 40
0.0
 40
0.0
 40
0.0
 40
0.3478448171
 40
0.7583862746
 40
1.0
 40
1.0
 40
1.0
 40
1.0
 10
29.8878957671
 20
57.5124732523
 30
0.0
 10
29.8878957671
 20
57.3929165019
 30
0.0
 10
29.8443705076
 20
57.0942399796
 30
0.0
 10
29.6468662464
 20
56.6468515478
 30
0.0
 10
29.4584232691
 20
56.3425429576
 30
0.0
 10
29.3830414456
 20
56.2309198981
 30
0.0
  0
SPLINE
  5
3AD
100
AcDbEntity
  8
0
100
AcDbSpline
 62
7
  6
CONTINUOUS
 70
0
 71
3
 72
11
 73
7
 74
0
 42
0.0000001
 43
0.0000001
 44
0.0000000001
 40
0.0
 40
0.0
 40
0.0
 40
0.0
 40
0.1842345294
 40
0.3609569634
 40
0.7510055274
 40
1.0
 40
1.0
 40
1.0
 40
1.0
 10
29.5901612681
 20
58.1856124072
 30
0.0
 10
29.6274469498
 20
58.1765916713
 30
0.0
 10
29.6954606011
 20
58.149460303
 30
0.0
 10
29.8028480043
 20
58.0622702897
 30
0.0
 10
29.8757274017
 20
57.9002926796
 30
0.0
 10
29.8878957671
 20
57.7338218561
 30
0.0
 10
29.8878957671
 20
57.6678130298
 30
0.0
  0
SPLINE
  5
3AE
100
AcDbEntity
  8
0
100
AcDbSpline
 62
7
  6
CONTINUOUS
 70
0
 71
3
 72
10
 73
6
 74
0
 42
0.0000001
 43
0.0000001
 44
0.0000000001
 40
0.0
 40
0.0
 40
0.0
 40
0.0
 40
0.2989989897
 40
0.6975873275
 40
1.0
 40
1.0
 40
1.0
 40
1.0
 10
28.9020495698
 20
57.2362888592
 30
0.0
 10
28.951289419
 20
57.384360117
 30
0.0
 10
29.0749838121
 20
57.7272194514
 30
0.0
 10
29.2922447323
 20
58.1181663599
 30
0.0
 10
29.4427584593
 20
58.1856124072
 30
0.0
 10
29.499546234
 20
58.1856124072
 30
0.0
  0
SPLINE
  5
3AF
100
AcDbEntity
  8
0
100
AcDbSpline
 62
7
  6
CONTINUOUS
 70
0
 71
3
 72
9
 73
5
 74
0
 42
0.0000001
 43
0.0000001
 44
0.0000000001
 40
0.0
 40
0.0
 40
0.0
 40
0.0
 40
0.456592061
 40
1.0
 40
1.0
 40
1.0
 40
1.0
 10
27.7390282792
 20
56.1403050094
 30
0.0
 10
27.9877205687
 20
56.1403050094
 30
0.0
 10
28.4926035476
 20
56.3372945722
 30
0.0
 10
28.7891336276
 20
56.8967344965
 30
0.0
 10
28.9020495698
 20
57.2362888592
 30
0.0
  0
SPLINE
  5
3B0
100
AcDbEntity
  8
0
100
AcDbSpline
 62
7
  6
CONTINUOUS
 70
0
 71
3
 72
9
 73
5
 74
0
 42
0.0000001
 43
0.0000001
 44
0.0000000001
 40
0.0
 40
0.0
 40
0.0
 40
0.0
 40
0.772197554
 40
1.0
 40
1.0
 40
1.0
 40
1.0
 10
32.4501456407
 20
171.4859382403
 30
0.0
 10
32.5159886913
 20
171.531648523
 30
0.0
 10
32.5876782034
 20
171.6100188777
 30
0.0
 10
32.638955989
 20
171.7062948458
 30
0.0
 10
32.6496324283
 20
171.7289821773
 30
0.0
  0
SPLINE
  5
3B1
100
AcDbEntity
  8
0
100
AcDbSpline
 62
7
  6
CONTINUOUS
 70
0
 71
3
 72
9
 73
5
 74
0
 42
0.0000001
 43
0.0000001
 44
0.0000000001
 40
0.0
 40
0.0
 40
0.0
 40
0.0
 40
0.7658962606
 40
1.0
 40
1.0
 40
1.0
 40
1.0
 10
32.6496324283
 20
171.7289821773
 30
0.0
 10
32.7004029151
 20
171.8368689766
 30
0.0
 10
32.7672492191
 20
172.0525935869
 30
0.0
 10
32.82942706
 20
172.2907551749
 30
0.0
 10
32.8438270283
 20
172.3478584631
 30
0.0
  0
SPLINE
  5
3B2
100
AcDbEntity
  8
0
100
AcDbSpline
 62
7
  6
CONTINUOUS
 70
0
 71
3
 72
9
 73
5
 74
0
 42
0.0000001
 43
0.0000001
 44
0.0000000001
 40
0.0
 40
0.0
 40
0.0
 40
0.0
 40
0.6722081601
 40
1.0
 40
1.0
 40
1.0
 40
1.0
 10
32.8438270283
 20
172.3478584631
 30
0.0
 10
32.8733848651
 20
172.4650705052
 30
0.0
 10
32.9188280122
 20
172.6326667007
 30
0.0
 10
32.9675642847
 20
172.740497857
 30
0.0
 10
32.9815666885
 20
172.7615015737
 30
0.0
  0
SPLINE
  5
3B3
100
AcDbEntity
  8
0
100
AcDbSpline
 62
7
  6
CONTINUOUS
 70
0
 71
3
 72
10
 73
6
 74
0
 42
0.0000001
 43
0.0000001
 44
0.0000000001
 40
0.0
 40
0.0
 40
0.0
 40
0.0
 40
0.4104066965
 40
0.7981626858
 40
1.0
 40
1.0
 40
1.0
 40
1.0
 10
32.9815666885
 20
172.7615015737
 30
0.0
 10
33.002526666
 20
172.7929417058
 30
0.0
 10
33.0514970935
 20
172.8451111292
 30
0.0
 10
33.1278831388
 20
172.8766442719
 30
0.0
 10
33.1788872793
 20
172.881505218
 30
0.0
 10
33.196630767
 20
172.881505218
 30
0.0
  0
SPLINE
  5
3B4
100
AcDbEntity
  8
0
100
AcDbSpline
 62
7
  6
CONTINUOUS
 70
0
 71
3
 72
10
 73
6
 74
0
 42
0.0000001
 43
0.0000001
 44
0.0000000001
 40
0.0
 40
0.0
 40
0.0
 40
0.0
 40
0.386806732
 40
0.7830322909
 40
1.0
 40
1.0
 40
1.0
 40
1.0
 10
33.196630767
 20
172.881505218
 30
0.0
 10
33.2359123472
 20
172.881505218
 30
0.0
 10
33.3135878603
 20
172.8681739751
 30
0.0
 10
33.4005528959
 20
172.8140919778
 30
0.0
 10
33.4485625802
 20
172.7651976035
 30
0.0
 10
33.464502512
 20
172.7464447642
 30
0.0
  0
SPLINE
  5
3B5
100
AcDbEntity
  8
0
100
AcDbSpline
 62
7
  6
CONTINUOUS
 70
0
 71
3
 72
9
 73
5
 74
0
 42
0.0000001
 43
0.0000001
 44
0.0000000001
 40
0.0
 40
0.0
 40
0.0
 40
0.0
 40
0.5561607551
 40
1.0
 40
1.0
 40
1.0
 40
1.0
 10
33.464502512
 20
172.7464447642
 30
0.0
 10
33.507750543
 20
172.6955647865
 30
0.0
 10
33.5639166208
 20
172.5698212329
 30
0.0
 10
33.5770536684
 20
172.4070108808
 30
0.0
 10
33.5770536684
 20
172.3322563308
 30
0.0
  0
SPLINE
  5
3B6
100
AcDbEntity
  8
0
100
AcDbSpline
 62
7
  6
CONTINUOUS
 70
0
 71
3
 72
9
 73
5
 74
0
 42
0.0000001
 43
0.0000001
 44
0.0000000001
 40
0.0
 40
0.0
 40
0.0
 40
0.0
 40
0.6321811475
 40
1.0
 40
1.0
 40
1.0
 40
1.0
 10
33.5770536684
 20
172.3322563308
 30
0.0
 10
33.5770536684
 20
172.2223850001
 30
0.0
 10
33.5522813801
 20
172.0600559104
 30
0.0
 10
33.4801635895
 20
171.9380920171
 30
0.0
 10
33.448745741
 20
171.900059723
 30
0.0
  0
SPLINE
  5
3B7
100
AcDbEntity
  8
0
100
AcDbSpline
 62
7
  6
CONTINUOUS
 70
0
 71
3
 72
10
 73
6
 74
0
 42
0.0000001
 43
0.0000001
 44
0.0000000001
 40
0.0
 40
0.0
 40
0.0
 40
0.0
 40
0.3790277179
 40
0.7806841734
 40
1.0
 40
1.0
 40
1.0
 40
1.0
 10
33.448745741
 20
171.900059723
 30
0.0
 10
33.4166237848
 20
171.8611750843
 30
0.0
 10
33.3376639694
 20
171.7912949497
 30
0.0
 10
33.2078037156
 20
171.7368293407
 30
0.0
 10
33.1136348292
 20
171.7179547552
 30
0.0
 10
33.0795775247
 20
171.7132246631
 30
0.0
  0
SPLINE
  5
3B8
100
AcDbEntity
  8
0
100
AcDbSpline
 62
7
  6
CONTINUOUS
 70
0
 71
3
 72
9
 73
5
 74
0
 42
0.0000001
 43
0.0000001
 44
0.0000000001
 40
0.0
 40
0.0
 40
0.0
 40
0.0
 40
0.8072107891
 40
1.0
 40
1.0
 40
1.0
 40
1.0
 10
33.1426061825
 20
171.3125421188
 30
0.0
 10
33.3325830257
 20
171.3461668899
 30
0.0
 10
33.5444637762
 20
171.4341824605
 30
0.0
 10
33.6915368993
 20
171.5903697038
 30
0.0
 10
33.7173031591
 20
171.6226335677
 30
0.0
  0
SPLINE
  5
3B9
100
AcDbEntity
  8
0
100
AcDbSpline
 62
7
  6
CONTINUOUS
 70
0
 71
3
 72
9
 73
5
 74
0
 42
0.0000001
 43
0.0000001
 44
0.0000000001
 40
0.0
 40
0.0
 40
0.0
 40
0.0
 40
0.5744437793
 40
1.0
 40
1.0
 40
1.0
 40
1.0
 10
33.7173031591
 20
171.6226335677
 30
0.0
 10
33.7984148683
 20
171.7241996135
 30
0.0
 10
33.8892342706
 20
171.9488225591
 30
0.0
 10
33.9102050946
 20
172.2167816757
 30
0.0
 10
33.9102050946
 20
172.3345065254
 30
0.0
  0
SPLINE
  5
3BA
100
AcDbEntity
  8
0
100
AcDbSpline
 62
7
  6
CONTINUOUS
 70
0
 71
3
 72
8
 73
4
 74
0
 42
0.0000001
 43
0.0000001
 44
0.0000000001
 40
0.0
 40
0.0
 40
0.0
 40
0.0
 40
1.0
 40
1.0
 40
1.0
 40
1.0
 10
33.9102050946
 20
172.3345065254
 30
0.0
 10
33.9102050946
 20
172.5137092357
 30
0.0
 10
33.8784939521
 20
172.6854107567
 30
0.0
 10
33.8124637813
 20
172.8383231337
 30
0.0
  0
SPLINE
  5
3BB
100
AcDbEntity
  8
0
100
AcDbSpline
 62
7
  6
CONTINUOUS
 70
0
 71
3
 72
8
 73
4
 74
0
 42
0.0000001
 43
0.0000001
 44
0.0000000001
 40
0.0
 40
0.0
 40
0.0
 40
0.0
 40
1.0
 40
1.0
 40
1.0
 40
1.0
 10
29.4499460066
 20
59.4326071902
 30
0.0
 10
29.5903179838
 20
59.4547970344
 30
0.0
 10
29.7273104643
 20
59.4988455118
 30
0.0
 10
29.8569643986
 20
59.5671453408
 30
0.0
  0
SPLINE
  5
3BC
100
AcDbEntity
  8
0
100
AcDbSpline
 62
7
  6
CONTINUOUS
 70
0
 71
3
 72
8
 73
4
 74
0
 42
0.0000001
 43
0.0000001
 44
0.0000000001
 40
0.0
 40
0.0
 40
0.0
 40
0.0
 40
1.0
 40
1.0
 40
1.0
 40
1.0
 10
28.5780074603
 20
59.5682439694
 30
0.0
 10
28.7045932268
 20
59.5004990854
 30
0.0
 10
28.8437138966
 20
59.4559026013
 30
0.0
 10
28.9904657071
 20
59.4332058167
 30
0.0
  0
SPLINE
  5
3BD
100
AcDbEntity
  8
0
100
AcDbSpline
 62
7
  6
CONTINUOUS
 70
0
 71
3
 72
8
 73
4
 74
0
 42
0.0000001
 43
0.0000001
 44
0.0000000001
 40
0.0
 40
0.0
 40
0.0
 40
0.0
 40
1.0
 40
1.0
 40
1.0
 40
1.0
 10
28.9904657071
 20
59.4332058167
 30
0.0
 10
29.0676702373
 20
59.4212652854
 30
0.0
 10
29.1469868364
 20
59.4153859286
 30
0.0
 10
29.2277014893
 20
59.4153859286
 30
0.0
  0
SPLINE
  5
3BE
100
AcDbEntity
  8
0
100
AcDbSpline
 62
7
  6
CONTINUOUS
 70
0
 71
3
 72
9
 73
5
 74
0
 42
0.0000001
 43
0.0000001
 44
0.0000000001
 40
0.0
 40
0.0
 40
0.0
 40
0.0
 40
0.9226925272
 40
1.0
 40
1.0
 40
1.0
 40
1.0
 10
27.9465823867
 20
60.2890875048
 30
0.0
 10
28.0817873404
 20
59.9973292468
 30
0.0
 10
28.2882517897
 20
59.7340597703
 30
0.0
 10
28.5568908354
 20
59.5795449501
 30
0.0
 10
28.5780074603
 20
59.5682439694
 30
0.0
  0
SPLINE
  5
3BF
100
AcDbEntity
  8
0
100
AcDbSpline
 62
7
  6
CONTINUOUS
 70
0
 71
3
 72
8
 73
4
 74
0
 42
0.0000001
 43
0.0000001
 44
0.0000000001
 40
0.0
 40
0.0
 40
0.0
 40
0.0
 40
1.0
 40
1.0
 40
1.0
 40
1.0
 10
27.803761307
 20
60.9611598378
 30
0.0
 10
27.8030518531
 20
60.7282367729
 30
0.0
 10
27.848900552
 20
60.4998747665
 30
0.0
 10
27.9465823867
 20
60.2890875048
 30
0.0
  0
SPLINE
  5
3C0
100
AcDbEntity
  8
0
100
AcDbSpline
 62
7
  6
CONTINUOUS
 70
0
 71
3
 72
8
 73
4
 74
0
 42
0.0000001
 43
0.0000001
 44
0.0000000001
 40
0.0
 40
0.0
 40
0.0
 40
0.0
 40
1.0
 40
1.0
 40
1.0
 40
1.0
 10
27.9849832696
 20
61.8878776698
 30
0.0
 10
27.8708103723
 20
61.5793019031
 30
0.0
 10
27.8045207345
 20
61.2669088399
 30
0.0
 10
27.8037598245
 20
60.9611596474
 30
0.0
  0
SPLINE
  5
3C1
100
AcDbEntity
  8
0
100
AcDbSpline
 62
7
  6
CONTINUOUS
 70
0
 71
3
 72
9
 73
5
 74
0
 42
0.0000001
 43
0.0000001
 44
0.0000000001
 40
0.0
 40
0.0
 40
0.0
 40
0.0
 40
0.5517698205
 40
1.0
 40
1.0
 40
1.0
 40
1.0
 10
28.4510024231
 20
61.2276837497
 30
0.0
 10
28.4510024231
 20
61.324927648
 30
0.0
 10
28.4863079872
 20
61.5380124328
 30
0.0
 10
28.5740623729
 20
61.7788055898
 30
0.0
 10
28.6192874354
 20
61.8878776698
 30
0.0
  0
SPLINE
  5
3C2
100
AcDbEntity
  8
0
100
AcDbSpline
 62
7
  6
CONTINUOUS
 70
0
 71
3
 72
11
 73
7
 74
0
 42
0.0000001
 43
0.0000001
 44
0.0000000001
 40
0.0
 40
0.0
 40
0.0
 40
0.0
 40
0.2211413797
 40
0.600350032
 40
0.7910923204
 40
1.0
 40
1.0
 40
1.0
 40
1.0
 10
29.0076369685
 20
60.3733147053
 30
0.0
 10
28.9287775835
 20
60.3996011925
 30
0.0
 10
28.7281730114
 20
60.4899483949
 30
0.0
 10
28.5539967707
 20
60.6704660187
 30
0.0
 10
28.4667256926
 20
60.8965474031
 30
0.0
 10
28.4510024231
 20
61.0360486978
 30
0.0
 10
28.4510024231
 20
61.1111789613
 30
0.0
  0
SPLINE
  5
3C3
100
AcDbEntity
  8
0
100
AcDbSpline
 62
7
  6
CONTINUOUS
 70
0
 71
3
 72
11
 73
7
 74
0
 42
0.0000001
 43
0.0000001
 44
0.0000000001
 40
0.0
 40
0.0
 40
0.0
 40
0.0
 40
0.2126809035
 40
0.5896869148
 40
0.7843113522
 40
1.0
 40
1.0
 40
1.0
 40
1.0
 10
29.9679381367
 20
60.8384173277
 30
0.0
 10
29.9413677097
 20
60.770397011
 30
0.0
 10
29.8511160367
 20
60.5953733787
 30
0.0
 10
29.677153433
 20
60.4417282491
 30
0.0
 10
29.4540596409
 20
60.3617232197
 30
0.0
 10
29.3155269631
 20
60.3474245934
 30
0.0
 10
29.2406465452
 20
60.3474245935
 30
0.0
  0
SPLINE
  5
3C4
100
AcDbEntity
  8
0
100
AcDbSpline
 62
7
  6
CONTINUOUS
 70
0
 71
3
 72
8
 73
4
 74
0
 42
0.0000001
 43
0.0000001
 44
0.0000000001
 40
0.0
 40
0.0
 40
0.0
 40
0.0
 40
1.0
 40
1.0
 40
1.0
 40
1.0
 10
30.0173456114
 20
61.0982339053
 30
0.0
 10
30.0173456114
 20
61.0101672878
 30
0.0
 10
30.0006356512
 20
60.9221229933
 30
0.0
 10
29.9679381367
 20
60.8384173277
 30
0.0
  0
SPLINE
  5
3C5
100
AcDbEntity
  8
0
100
AcDbSpline
 62
7
  6
CONTINUOUS
 70
0
 71
3
 72
9
 73
5
 74
0
 42
0.0000001
 43
0.0000001
 44
0.0000000001
 40
0.0
 40
0.0
 40
0.0
 40
0.0
 40
0.6529626616
 40
1.0
 40
1.0
 40
1.0
 40
1.0
 10
29.8490609568
 20
61.9267128377
 30
0.0
 10
29.9124134418
 20
61.744108059
 30
0.0
 10
29.9936586758
 20
61.4756053112
 30
0.0
 10
30.0173456114
 20
61.2627034068
 30
0.0
 10
30.0173456114
 20
61.2017936378
 30
0.0
  0
SPLINE
  5
3C6
100
AcDbEntity
  8
0
100
AcDbSpline
 62
7
  6
CONTINUOUS
 70
0
 71
3
 72
8
 73
4
 74
0
 42
0.0000001
 43
0.0000001
 44
0.0000000001
 40
0.0
 40
0.0
 40
0.0
 40
0.0
 40
1.0
 40
1.0
 40
1.0
 40
1.0
 10
30.612814967
 20
61.3441885381
 30
0.0
 10
30.579550416
 20
61.5714949249
 30
0.0
 10
30.5305425818
 20
61.784605127
 30
0.0
 10
30.4445299548
 20
61.9267128377
 30
0.0
  0
SPLINE
  5
3C7
100
AcDbEntity
  8
0
100
AcDbSpline
 62
7
  6
CONTINUOUS
 70
0
 71
3
 72
9
 73
5
 74
0
 42
0.0000001
 43
0.0000001
 44
0.0000000001
 40
0.0
 40
0.0
 40
0.0
 40
0.0
 40
0.8286027681
 40
1.0
 40
1.0
 40
1.0
 40
1.0
 10
30.6387047213
 20
61.1111789613
 30
0.0
 10
30.6387047213
 20
61.1865751581
 30
0.0
 10
30.6361942334
 20
61.2736820304
 30
0.0
 10
30.616816812
 20
61.3348508506
 30
0.0
 10
30.612814967
 20
61.3441885381
 30
0.0
  0
SPLINE
  5
3C8
100
AcDbEntity
  8
0
100
AcDbSpline
 62
7
  6
CONTINUOUS
 70
0
 71
3
 72
9
 73
5
 74
0
 42
0.0000001
 43
0.0000001
 44
0.0000000001
 40
0.0
 40
0.0
 40
0.0
 40
0.0
 40
0.1699227696
 40
1.0
 40
1.0
 40
1.0
 40
1.0
 10
30.3954177129
 20
60.0357934949
 30
0.0
 10
30.4239601728
 20
60.0776989227
 30
0.0
 10
30.5772747611
 20
60.3340057383
 30
0.0
 10
30.6387047213
 20
60.6451165687
 30
0.0
 10
30.6387047213
 20
60.9170041947
 30
0.0
  0
SPLINE
  5
3C9
100
AcDbEntity
  8
0
100
AcDbSpline
 62
7
  6
CONTINUOUS
 70
0
 71
3
 72
8
 73
4
 74
0
 42
0.0000001
 43
0.0000001
 44
0.0000000001
 40
0.0
 40
0.0
 40
0.0
 40
0.0
 40
1.0
 40
1.0
 40
1.0
 40
1.0
 10
29.8569643986
 20
59.5671453408
 30
0.0
 10
30.0788769511
 20
59.6840456836
 30
0.0
 10
30.2636786475
 20
59.8423770231
 30
0.0
 10
30.3954177129
 20
60.0357934949
 30
0.0
  0
SPLINE
  5
3CA
100
AcDbEntity
  8
0
100
AcDbSpline
 62
7
  6
CONTINUOUS
 70
0
 71
3
 72
8
 73
4
 74
0
 42
0.0000001
 43
0.0000001
 44
0.0000000001
 40
0.0
 40
0.0
 40
0.0
 40
0.0
 40
1.0
 40
1.0
 40
1.0
 40
1.0
 10
32.8522241591
 20
159.7040158256
 30
0.0
 10
33.0516082978
 20
159.6349981892
 30
0.0
 10
33.240574675
 20
159.5708934138
 30
0.0
 10
33.3812146284
 20
159.5284359294
 30
0.0
  0
SPLINE
  5
3CB
100
AcDbEntity
  8
0
100
AcDbSpline
 62
7
  6
CONTINUOUS
 70
0
 71
3
 72
9
 73
5
 74
0
 42
0.0000001
 43
0.0000001
 44
0.0000000001
 40
0.0
 40
0.0
 40
0.0
 40
0.0
 40
0.5906519977
 40
1.0
 40
1.0
 40
1.0
 40
1.0
 10
27.8037532013
 20
64.0238001018
 30
0.0
 10
27.8037532013
 20
63.8213555984
 30
0.0
 10
27.8986501739
 20
63.4946139816
 30
0.0
 10
28.1410823929
 20
63.2368842133
 30
0.0
 10
28.2568276566
 20
63.1435413032
 30
0.0
  0
SPLINE
  5
3CC
100
AcDbEntity
  8
0
100
AcDbSpline
 62
7
  6
CONTINUOUS
 70
0
 71
3
 72
10
 73
6
 74
0
 42
0.0000001
 43
0.0000001
 44
0.0000000001
 40
0.0
 40
0.0
 40
0.0
 40
0.0
 40
0.4042769569
 40
0.795352024
 40
1.0
 40
1.0
 40
1.0
 40
1.0
 10
28.4229677156
 20
64.9479850146
 30
0.0
 10
28.2663606349
 20
64.8808677249
 30
0.0
 10
27.9968690042
 20
64.7016730276
 30
0.0
 10
27.8263314389
 20
64.3519600418
 30
0.0
 10
27.8037532013
 20
64.1093003508
 30
0.0
 10
27.8037532013
 20
64.0238001018
 30
0.0
  0
SPLINE
  5
3CD
100
AcDbEntity
  8
0
100
AcDbSpline
 62
7
  6
CONTINUOUS
 70
0
 71
3
 72
9
 73
5
 74
0
 42
0.0000001
 43
0.0000001
 44
0.0000000001
 40
0.0
 40
0.0
 40
0.0
 40
0.0
 40
0.831965998
 40
1.0
 40
1.0
 40
1.0
 40
1.0
 10
29.0335267228
 20
65.0205640464
 30
0.0
 10
28.832601876
 20
65.0205640464
 30
0.0
 10
28.6002460953
 20
65.0078383253
 30
0.0
 10
28.4455290056
 20
64.9576541344
 30
0.0
 10
28.4229677156
 20
64.9479850146
 30
0.0
  0
SPLINE
  5
3CE
100
AcDbEntity
  8
0
100
AcDbSpline
 62
7
  6
CONTINUOUS
 70
0
 71
3
 72
10
 73
6
 74
0
 42
0.0000001
 43
0.0000001
 44
0.0000000001
 40
0.0
 40
0.0
 40
0.0
 40
0.0
 40
0.5677470786
 40
0.8519956566
 40
1.0
 40
1.0
 40
1.0
 40
1.0
 10
29.797280733
 20
64.6451592116
 30
0.0
 10
29.7813638378
 20
64.7327026374
 30
0.0
 10
29.7578789998
 20
64.8573307079
 30
0.0
 10
29.725715411
 20
64.9927094875
 30
0.0
 10
29.7108617425
 20
65.0205640464
 30
0.0
 10
29.7066660565
 20
65.0205640464
 30
0.0
  0
SPLINE
  5
3CF
100
AcDbEntity
  8
0
100
AcDbSpline
 62
7
  6
CONTINUOUS
 70
0
 71
3
 72
11
 73
7
 74
0
 42
0.0000001
 43
0.0000001
 44
0.0000000001
 40
0.0
 40
0.0
 40
0.0
 40
0.0
 40
0.2013155461
 40
0.3899048537
 40
0.5764702098
 40
1.0
 40
1.0
 40
1.0
 40
1.0
 10
28.4510024231
 20
63.8166806369
 30
0.0
 10
28.4664635488
 20
63.8591986075
 30
0.0
 10
28.504764853
 20
63.9360290387
 30
0.0
 10
28.58108075
 20
64.023603201
 30
0.0
 10
28.7112785056
 20
64.1120770988
 30
0.0
 10
28.8516986513
 20
64.1403052478
 30
0.0
 10
28.9558567446
 20
64.1403052478
 30
0.0
  0
SPLINE
  5
3D0
100
AcDbEntity
  8
0
100
AcDbSpline
 62
7
  6
CONTINUOUS
 70
0
 71
3
 72
10
 73
6
 74
0
 42
0.0000001
 43
0.0000001
 44
0.0000000001
 40
0.0
 40
0.0
 40
0.0
 40
0.0
 40
0.4647383168
 40
0.8313613703
 40
1.0
 40
1.0
 40
1.0
 40
1.0
 10
28.8522970123
 20
63.1435413031
 30
0.0
 10
28.7407631872
 20
63.2169903266
 30
0.0
 10
28.5607288171
 20
63.3670358637
 30
0.0
 10
28.4628869167
 20
63.5561455541
 30
0.0
 10
28.4510024231
 20
63.6564694551
 30
0.0
 10
28.4510024231
 20
63.6872307925
 30
0.0
  0
SPLINE
  5
3D1
100
AcDbEntity
  8
0
100
AcDbSpline
 62
7
  6
CONTINUOUS
 70
0
 71
3
 72
10
 73
6
 74
0
 42
0.0000001
 43
0.0000001
 44
0.0000000001
 40
0.0
 40
0.0
 40
0.0
 40
0.0
 40
0.4066859882
 40
0.7953610186
 40
1.0
 40
1.0
 40
1.0
 40
1.0
 10
32.8781869753
 20
79.7001752524
 30
0.0
 10
33.0215967042
 20
79.7463583624
 30
0.0
 10
33.2704636489
 20
79.8817029041
 30
0.0
 10
33.4229151661
 20
80.1788624629
 30
0.0
 10
33.436232145
 20
80.3887961379
 30
0.0
 10
33.4334685248
 20
80.4630683276
 30
0.0
  0
SPLINE
  5
3D2
100
AcDbEntity
  8
0
100
AcDbSpline
 62
7
  6
CONTINUOUS
 70
0
 71
3
 72
10
 73
6
 74
0
 42
0.0000001
 43
0.0000001
 44
0.0000000001
 40
0.0
 40
0.0
 40
0.0
 40
0.0
 40
0.6873912267
 40
0.9260425405
 40
1.0
 40
1.0
 40
1.0
 40
1.0
 10
33.4334685248
 20
80.4630683276
 30
0.0
 10
33.427969544
 20
80.6108532326
 30
0.0
 10
33.4138700605
 20
80.8115582323
 30
0.0
 10
33.357940314
 20
80.9234712232
 30
0.0
 10
33.3364475581
 20
80.9299502044
 30
0.0
 10
33.3312614304
 20
80.9299502044
 30
0.0
  0
SPLINE
  5
3D3
100
AcDbEntity
  8
0
100
AcDbSpline
 62
7
  6
CONTINUOUS
 70
0
 71
3
 72
9
 73
5
 74
0
 42
0.0000001
 43
0.0000001
 44
0.0000000001
 40
0.0
 40
0.0
 40
0.0
 40
0.0
 40
0.6491539685
 40
1.0
 40
1.0
 40
1.0
 40
1.0
 10
33.0594167751
 20
80.9299502044
 30
0.0
 10
33.0928091008
 20
80.8260620805
 30
0.0
 10
33.1368098382
 20
80.6747052853
 30
0.0
 10
33.1500316304
 20
80.5526673136
 30
0.0
 10
33.1500316304
 20
80.5157084136
 30
0.0
  0
SPLINE
  5
3D4
100
AcDbEntity
  8
0
100
AcDbSpline
 62
7
  6
CONTINUOUS
 70
0
 71
3
 72
11
 73
7
 74
0
 42
0.0000001
 43
0.0000001
 44
0.0000000001
 40
0.0
 40
0.0
 40
0.0
 40
0.0
 40
0.2186279172
 40
0.5951310976
 40
0.7871527947
 40
1.0
 40
1.0
 40
1.0
 40
1.0
 10
33.1370866638
 20
80.3733153015
 30
0.0
 10
33.1215465738
 20
80.3206139219
 30
0.0
 10
33.0659816221
 20
80.1859070363
 30
0.0
 10
32.9484308158
 20
80.0684467655
 30
0.0
 10
32.7943367114
 20
80.0085455885
 30
0.0
 10
32.6975735651
 20
79.9979104667
 30
0.0
 10
32.6451773089
 20
79.9979104667
 30
0.0
  0
SPLINE
  5
3D5
100
AcDbEntity
  8
0
100
AcDbSpline
 62
7
  6
CONTINUOUS
 70
0
 71
3
 72
8
 73
4
 74
0
 42
0.0000001
 43
0.0000001
 44
0.0000000001
 40
0.0
 40
0.0
 40
0.0
 40
0.0
 40
1.0
 40
1.0
 40
1.0
 40
1.0
 10
32.6451773089
 20
79.9979104667
 30
0.0
 10
32.5711322717
 20
79.9979104667
 30
0.0
 10
32.4964346098
 20
80.0120711986
 30
0.0
 10
32.4262158298
 20
80.039512946
 30
0.0
  0
SPLINE
  5
3D6
100
AcDbEntity
  8
0
100
AcDbSpline
 62
7
  6
CONTINUOUS
 70
0
 71
3
 72
10
 73
6
 74
0
 42
0.0000001
 43
0.0000001
 44
0.0000000001
 40
0.0
 40
0.0
 40
0.0
 40
0.0
 40
0.4201734364
 40
0.7978828491
 40
1.0
 40
1.0
 40
1.0
 40
1.0
 10
32.4262158298
 20
80.039512946
 30
0.0
 10
32.3424093306
 20
80.0722648218
 30
0.0
 10
32.2058169406
 20
80.1603067588
 30
0.0
 10
32.1273319981
 20
80.3117267765
 30
0.0
 10
32.1144330543
 20
80.4238894273
 30
0.0
 10
32.1144330543
 20
80.4639296203
 30
0.0
  0
SPLINE
  5
3D7
100
AcDbEntity
  8
0
100
AcDbSpline
 62
7
  6
CONTINUOUS
 70
0
 71
3
 72
9
 73
5
 74
0
 42
0.0000001
 43
0.0000001
 44
0.0000000001
 40
0.0
 40
0.0
 40
0.0
 40
0.0
 40
0.5527658463
 40
1.0
 40
1.0
 40
1.0
 40
1.0
 10
32.1144330543
 20
80.4639296203
 30
0.0
 10
32.1144330543
 20
80.5310914628
 30
0.0
 10
32.1446311286
 20
80.6721275052
 30
0.0
 10
32.2269836323
 20
80.8242559865
 30
0.0
 10
32.2697728318
 20
80.8911146788
 30
0.0
  0
SPLINE
  5
3D8
100
AcDbEntity
  8
0
100
AcDbSpline
 62
7
  6
CONTINUOUS
 70
0
 71
3
 72
9
 73
5
 74
0
 42
0.0000001
 43
0.0000001
 44
0.0000000001
 40
0.0
 40
0.0
 40
0.0
 40
0.0
 40
0.7910373082
 40
1.0
 40
1.0
 40
1.0
 40
1.0
 10
31.959093098
 20
80.9040579467
 30
0.0
 10
31.8907993807
 20
80.8173772693
 30
0.0
 10
31.8378548596
 20
80.684279093
 30
0.0
 10
31.8296432537
 20
80.5345230529
 30
0.0
 10
31.8296432537
 20
80.5027651458
 30
0.0
  0
SPLINE
  5
3D9
100
AcDbEntity
  8
0
100
AcDbSpline
 62
7
  6
CONTINUOUS
 70
0
 71
3
 72
9
 73
5
 74
0
 42
0.0000001
 43
0.0000001
 44
0.0000000001
 40
0.0
 40
0.0
 40
0.0
 40
0.0
 40
0.9940844653
 40
1.0
 40
1.0
 40
1.0
 40
1.0
 10
31.8296483802
 20
80.3967528546
 30
0.0
 10
31.8300122351
 20
80.3097177184
 30
0.0
 10
31.8498497876
 20
80.2223851238
 30
0.0
 10
31.8853600762
 20
80.1408922838
 30
0.0
 10
31.8855706861
 20
80.1404104156
 30
0.0
  0
SPLINE
  5
3DA
100
AcDbEntity
  8
0
100
AcDbSpline
 62
7
  6
CONTINUOUS
 70
0
 71
3
 72
10
 73
6
 74
0
 42
0.0000001
 43
0.0000001
 44
0.0000000001
 40
0.0
 40
0.0
 40
0.0
 40
0.0
 40
0.004357731
 40
0.5923841951
 40
1.0
 40
1.0
 40
1.0
 40
1.0
 10
27.8037618448
 20
67.1608843351
 30
0.0
 10
27.803756082
 20
67.1594179467
 30
0.0
 10
27.8033644844
 20
66.9601381107
 30
0.0
 10
27.89256617
 20
66.6374391426
 30
0.0
 10
28.121515457
 20
66.3732156095
 30
0.0
 10
28.2309379023
 20
66.2762276797
 30
0.0
  0
SPLINE
  5
3DB
100
AcDbEntity
  8
0
100
AcDbSpline
 62
7
  6
CONTINUOUS
 70
0
 71
3
 72
11
 73
7
 74
0
 42
0.0000001
 43
0.0000001
 44
0.0000000001
 40
0.0
 40
0.0
 40
0.0
 40
0.0
 40
0.391360492
 40
0.7510695228
 40
0.9937750174
 40
1.0
 40
1.0
 40
1.0
 40
1.0
 10
28.5286724014
 20
68.127360311
 30
0.0
 10
28.3537391857
 20
68.0686578985
 30
0.0
 10
28.0540227103
 20
67.9065043576
 30
0.0
 10
27.8365816445
 20
67.5468307847
 30
0.0
 10
27.8034139723
 20
67.2775773971
 30
0.0
 10
27.803761902
 20
67.1637400585
 30
0.0
 10
27.8037792553
 20
67.1608910888
 30
0.0
  0
SPLINE
  5
3DC
100
AcDbEntity
  8
0
100
AcDbSpline
 62
7
  6
CONTINUOUS
 70
0
 71
3
 72
10
 73
6
 74
0
 42
0.0000001
 43
0.0000001
 44
0.0000000001
 40
0.0
 40
0.0
 40
0.0
 40
0.0
 40
0.2015454543
 40
0.5580875706
 40
1.0
 40
1.0
 40
1.0
 40
1.0
 10
28.386277501
 20
66.8458065658
 30
0.0
 10
28.386277501
 20
66.9037760796
 30
0.0
 10
28.4075080025
 20
67.057417904
 30
0.0
 10
28.5457961527
 20
67.2374260464
 30
0.0
 10
28.7759216334
 20
67.2859363227
 30
0.0
 10
28.9170219344
 20
67.2859363227
 30
0.0
  0
SPLINE
  5
3DD
100
AcDbEntity
  8
0
100
AcDbSpline
 62
7
  6
CONTINUOUS
 70
0
 71
3
 72
10
 73
6
 74
0
 42
0.0000001
 43
0.0000001
 44
0.0000000001
 40
0.0
 40
0.0
 40
0.0
 40
0.0
 40
0.4669621659
 40
0.8312872471
 40
1.0
 40
1.0
 40
1.0
 40
1.0
 10
28.8522970122
 20
66.2762276796
 30
0.0
 10
28.7224856085
 20
66.3478941696
 30
0.0
 10
28.5114135247
 20
66.5008982685
 30
0.0
 10
28.4000798241
 20
66.7018052366
 30
0.0
 10
28.386277501
 20
66.8116377733
 30
0.0
 10
28.386277501
 20
66.8458065658
 30
0.0
  0
SPLINE
  5
3DE
100
AcDbEntity
  8
0
100
AcDbSpline
 62
7
  6
CONTINUOUS
 70
0
 71
3
 72
10
 73
6
 74
0
 42
0.0000001
 43
0.0000001
 44
0.0000000001
 40
0.0
 40
0.0
 40
0.0
 40
0.0
 40
0.4068756294
 40
0.8009985429
 40
1.0
 40
1.0
 40
1.0
 40
1.0
 10
29.7455008668
 20
65.5642535358
 30
0.0
 10
29.7664417592
 20
65.6741932575
 30
0.0
 10
29.8295092385
 20
65.8814865422
 30
0.0
 10
29.9593986913
 20
66.105022535
 30
0.0
 10
30.0592249359
 20
66.2249351222
 30
0.0
 10
30.0950155896
 20
66.2632822661
 30
0.0
  0
SPLINE
  5
3DF
100
AcDbEntity
  8
0
100
AcDbSpline
 62
7
  6
CONTINUOUS
 70
0
 71
3
 72
10
 73
6
 74
0
 42
0.0000001
 43
0.0000001
 44
0.0000000001
 40
0.0
 40
0.0
 40
0.0
 40
0.0
 40
0.3961754297
 40
0.7905874283
 40
1.0
 40
1.0
 40
1.0
 40
1.0
 10
31.8855701832
 20
80.1404103893
 30
0.0
 10
31.9376141723
 20
80.0211415498
 30
0.0
 10
32.084029691
 20
79.8162868538
 30
0.0
 10
32.3726494076
 20
79.6909421941
 30
0.0
 10
32.5736923176
 20
79.6742858557
 30
0.0
 10
32.645177309
 20
79.6742858558
 30
0.0
  0
SPLINE
  5
3E0
100
AcDbEntity
  8
0
100
AcDbSpline
 62
7
  6
CONTINUOUS
 70
0
 71
3
 72
10
 73
6
 74
0
 42
0.0000001
 43
0.0000001
 44
0.0000000001
 40
0.0
 40
0.0
 40
0.0
 40
0.0
 40
0.421570609
 40
0.801816819
 40
1.0
 40
1.0
 40
1.0
 40
1.0
 10
31.3636239213
 20
78.9105314879
 30
0.0
 10
31.3329411016
 20
78.9069911074
 30
0.0
 10
31.2779961264
 20
78.8923373398
 30
0.0
 10
31.2389935471
 20
78.8439168235
 30
0.0
 10
31.2341740769
 20
78.8071319554
 30
0.0
 10
31.2341740769
 20
78.7940263419
 30
0.0
  0
SPLINE
  5
3E1
100
AcDbEntity
  8
0
100
AcDbSpline
 62
7
  6
CONTINUOUS
 70
0
 71
3
 72
10
 73
6
 74
0
 42
0.0000001
 43
0.0000001
 44
0.0000000001
 40
0.0
 40
0.0
 40
0.0
 40
0.0
 40
0.3751641781
 40
0.7746514897
 40
1.0
 40
1.0
 40
1.0
 40
1.0
 10
31.2341740769
 20
78.7551922469
 30
0.0
 10
31.2341740769
 20
78.7175214625
 30
0.0
 10
31.2582879923
 20
78.6443348557
 30
0.0
 10
31.3466770438
 20
78.5819323883
 30
0.0
 10
31.4153367391
 20
78.5561056911
 30
0.0
 10
31.4412937206
 20
78.5480713515
 30
0.0
  0
SPLINE
  5
3E2
100
AcDbEntity
  8
0
100
AcDbSpline
 62
7
  6
CONTINUOUS
 70
0
 71
3
 72
10
 73
6
 74
0
 42
0.0000001
 43
0.0000001
 44
0.0000000001
 40
0.0
 40
0.0
 40
0.0
 40
0.0
 40
0.4100040722
 40
0.7922828248
 40
1.0
 40
1.0
 40
1.0
 40
1.0
 10
31.4412937206
 20
78.5480713515
 30
0.0
 10
31.4726048009
 20
78.5480713515
 30
0.0
 10
31.5291876893
 20
78.5581629598
 30
0.0
 10
31.569199017
 20
78.6095296221
 30
0.0
 10
31.5805880266
 20
78.6496936996
 30
0.0
 10
31.5836886209
 20
78.6645764976
 30
0.0
  0
SPLINE
  5
3E3
100
AcDbEntity
  8
0
100
AcDbSpline
 62
7
  6
CONTINUOUS
 70
0
 71
3
 72
10
 73
6
 74
0
 42
0.0000001
 43
0.0000001
 44
0.0000000001
 40
0.0
 40
0.0
 40
0.0
 40
0.0
 40
0.3733851266
 40
0.7739226087
 40
1.0
 40
1.0
 40
1.0
 40
1.0
 10
31.5836886209
 20
78.6645764976
 30
0.0
 10
31.5836886209
 20
78.7053773974
 30
0.0
 10
31.5592414253
 20
78.7869781645
 30
0.0
 10
31.4665926966
 20
78.8646544673
 30
0.0
 10
31.3920086805
 20
78.899424512
 30
0.0
 10
31.3636239213
 20
78.9105314879
 30
0.0
  0
SPLINE
  5
3E4
100
AcDbEntity
  8
0
100
AcDbSpline
 62
7
  6
CONTINUOUS
 70
0
 71
3
 72
11
 73
7
 74
0
 42
0.0000001
 43
0.0000001
 44
0.0000000001
 40
0.0
 40
0.0
 40
0.0
 40
0.0
 40
0.2731915852
 40
0.6707139992
 40
0.8371919417
 40
1.0
 40
1.0
 40
1.0
 40
1.0
 10
29.4607114236
 20
80.2438654571
 30
0.0
 10
29.3304568113
 20
80.2837700722
 30
0.0
 10
29.0204939803
 20
80.3968868596
 30
0.0
 10
28.7364715863
 20
80.6042871833
 30
0.0
 10
28.6345804814
 20
80.8004962429
 30
0.0
 10
28.6192874354
 20
80.8955673395
 30
0.0
 10
28.6192874354
 20
80.9428934722
 30
0.0
  0
SPLINE
  5
3E5
100
AcDbEntity
  8
0
100
AcDbSpline
 62
7
  6
CONTINUOUS
 70
0
 71
3
 72
9
 73
5
 74
0
 42
0.0000001
 43
0.0000001
 44
0.0000000001
 40
0.0
 40
0.0
 40
0.0
 40
0.0
 40
0.3490871128
 40
1.0
 40
1.0
 40
1.0
 40
1.0
 10
28.6192874354
 20
80.9428934722
 30
0.0
 10
28.6192874354
 20
80.9904276508
 30
0.0
 10
28.6431756518
 20
81.1445704764
 30
0.0
 10
28.7382449781
 20
81.3274013586
 30
0.0
 10
28.8134622019
 20
81.4477495818
 30
0.0
  0
SPLINE
  5
3E6
100
AcDbEntity
  8
0
100
AcDbSpline
 62
7
  6
CONTINUOUS
 70
0
 71
3
 72
10
 73
6
 74
0
 42
0.0000001
 43
0.0000001
 44
0.0000000001
 40
0.0
 40
0.0
 40
0.0
 40
0.0
 40
0.1424176244
 40
0.4299648625
 40
1.0
 40
1.0
 40
1.0
 40
1.0
 10
28.8134622019
 20
81.4477495818
 30
0.0
 10
28.8134622019
 20
81.4504492864
 30
0.0
 10
28.7783036869
 20
81.4686683613
 30
0.0
 10
28.5296765328
 20
81.5533547557
 30
0.0
 10
28.2528817159
 20
81.6372480268
 30
0.0
 10
28.0626528901
 20
81.6937031417
 30
0.0
  0
SPLINE
  5
3E7
100
AcDbEntity
  8
0
100
AcDbSpline
 62
7
  6
CONTINUOUS
 70
0
 71
3
 72
9
 73
5
 74
0
 42
0.0000001
 43
0.0000001
 44
0.0000000001
 40
0.0
 40
0.0
 40
0.0
 40
0.0
 40
0.819766106
 40
1.0
 40
1.0
 40
1.0
 40
1.0
 10
28.0626528901
 20
81.6937031417
 30
0.0
 10
27.9417380908
 20
81.547692133
 30
0.0
 10
27.8239806502
 20
81.3605615452
 30
0.0
 10
27.8037532013
 20
81.1815247416
 30
0.0
 10
27.8037532013
 20
81.1500143676
 30
0.0
  0
SPLINE
  5
3E8
100
AcDbEntity
  8
0
100
AcDbSpline
 62
7
  6
CONTINUOUS
 70
0
 71
3
 72
10
 73
6
 74
0
 42
0.0000001
 43
0.0000001
 44
0.0000000001
 40
0.0
 40
0.0
 40
0.0
 40
0.0
 40
0.3427188734
 40
0.7456812718
 40
1.0
 40
1.0
 40
1.0
 40
1.0
 10
27.8037532013
 20
81.0982327132
 30
0.0
 10
27.8037532013
 20
80.9770809948
 30
0.0
 10
27.8991112178
 20
80.7218376662
 30
0.0
 10
28.2382165474
 20
80.4502096121
 30
0.0
 10
28.5183065814
 20
80.3077406635
 30
0.0
 10
28.6322324914
 20
80.2568087249
 30
0.0
  0
SPLINE
  5
3E9
100
AcDbEntity
  8
0
100
AcDbSpline
 62
7
  6
CONTINUOUS
 70
0
 71
3
 72
10
 73
6
 74
0
 42
0.0000001
 43
0.0000001
 44
0.0000000001
 40
0.0
 40
0.0
 40
0.0
 40
0.0
 40
0.4045294182
 40
0.7935944903
 40
1.0
 40
1.0
 40
1.0
 40
1.0
 10
27.2471190136
 20
71.6095599798
 30
0.0
 10
27.3033752161
 20
71.6315735585
 30
0.0
 10
27.3996575286
 20
71.6917154763
 30
0.0
 10
27.4596787584
 20
71.8164032479
 30
0.0
 10
27.4671838921
 20
71.9024770777
 30
0.0
 10
27.4671838921
 20
71.933184591
 30
0.0
  0
SPLINE
  5
3EA
100
AcDbEntity
  8
0
100
AcDbSpline
 62
7
  6
CONTINUOUS
 70
0
 71
3
 72
10
 73
6
 74
0
 42
0.0000001
 43
0.0000001
 44
0.0000000001
 40
0.0
 40
0.0
 40
0.0
 40
0.0
 40
0.3949304703
 40
0.7896675773
 40
1.0
 40
1.0
 40
1.0
 40
1.0
 10
31.8854928524
 20
73.1518465604
 30
0.0
 10
31.9388176341
 20
73.0313718049
 30
0.0
 10
32.0907515031
 20
72.825289053
 30
0.0
 10
32.3894868889
 20
72.7006009078
 30
0.0
 10
32.5971005581
 20
72.6839942603
 30
0.0
 10
32.6710672419
 20
72.6839942603
 30
0.0
  0
SPLINE
  5
3EB
100
AcDbEntity
  8
0
100
AcDbSpline
 62
7
  6
CONTINUOUS
 70
0
 71
3
 72
9
 73
5
 74
0
 42
0.0000001
 43
0.0000001
 44
0.0000000001
 40
0.0
 40
0.0
 40
0.0
 40
0.0
 40
0.0285774107
 40
1.0
 40
1.0
 40
1.0
 40
1.0
 10
31.8296946507
 20
73.416665691
 30
0.0
 10
31.8296603568
 20
73.414081471
 30
0.0
 10
31.8290618722
 20
73.323651751
 30
0.0
 10
31.8494059646
 20
73.233376364
 30
0.0
 10
31.8854928524
 20
73.1518465604
 30
0.0
  0
SPLINE
  5
3EC
100
AcDbEntity
  8
0
100
AcDbSpline
 62
7
  6
CONTINUOUS
 70
0
 71
3
 72
9
 73
5
 74
0
 42
0.0000001
 43
0.0000001
 44
0.0000000001
 40
0.0
 40
0.0
 40
0.0
 40
0.0
 40
0.7907118298
 40
1.0
 40
1.0
 40
1.0
 40
1.0
 10
31.959108809
 20
73.9137871175
 30
0.0
 10
31.8902397931
 20
73.8290331707
 30
0.0
 10
31.8378943667
 20
73.6942750779
 30
0.0
 10
31.8296432537
 20
73.5442884538
 30
0.0
 10
31.8296432537
 20
73.5124735503
 30
0.0
  0
SPLINE
  5
3ED
100
AcDbEntity
  8
0
100
AcDbSpline
 62
7
  6
CONTINUOUS
 70
0
 71
3
 72
9
 73
5
 74
0
 42
0.0000001
 43
0.0000001
 44
0.0000000001
 40
0.0
 40
0.0
 40
0.0
 40
0.0
 40
0.5574203899
 40
1.0
 40
1.0
 40
1.0
 40
1.0
 10
32.1144330543
 20
73.4736380248
 30
0.0
 10
32.1144330543
 20
73.5439169759
 30
0.0
 10
32.1436853376
 20
73.6859736836
 30
0.0
 10
32.226566001
 20
73.8360125015
 30
0.0
 10
32.2697728318
 20
73.9008230833
 30
0.0
  0
SPLINE
  5
3EE
100
AcDbEntity
  8
0
100
AcDbSpline
 62
7
  6
CONTINUOUS
 70
0
 71
3
 72
11
 73
7
 74
0
 42
0.0000001
 43
0.0000001
 44
0.0000000001
 40
0.0
 40
0.0
 40
0.0
 40
0.0
 40
0.4250495099
 40
0.6113638031
 40
0.7993470281
 40
1.0
 40
1.0
 40
1.0
 40
1.0
 10
32.4639475982
 20
73.0335082679
 30
0.0
 10
32.3702890101
 20
73.0647282525
 30
0.0
 10
32.2524834588
 20
73.1322530914
 30
0.0
 10
32.1637999396
 20
73.2507369121
 30
0.0
 10
32.1237771649
 20
73.3515938269
 30
0.0
 10
32.1144330543
 20
73.4313243766
 30
0.0
 10
32.1144330543
 20
73.4736380248
 30
0.0
  0
SPLINE
  5
3EF
100
AcDbEntity
  8
0
100
AcDbSpline
 62
7
  6
CONTINUOUS
 70
0
 71
3
 72
11
 73
7
 74
0
 42
0.0000001
 43
0.0000001
 44
0.0000000001
 40
0.0
 40
0.0
 40
0.0
 40
0.0
 40
0.2222815378
 40
0.5959349086
 40
0.7861128662
 40
1.0
 40
1.0
 40
1.0
 40
1.0
 10
33.1370866638
 20
73.4218578008
 30
0.0
 10
33.1248357746
 20
73.3633259795
 30
0.0
 10
33.0771446963
 20
73.2143266671
 30
0.0
 10
32.9621304379
 20
73.0848858292
 30
0.0
 10
32.8038417597
 20
73.0192449447
 30
0.0
 10
32.7011758237
 20
73.0076188712
 30
0.0
 10
32.6451773091
 20
73.0076188712
 30
0.0
  0
SPLINE
  5
3F0
100
AcDbEntity
  8
0
100
AcDbSpline
 62
7
  6
CONTINUOUS
 70
0
 71
3
 72
9
 73
5
 74
0
 42
0.0000001
 43
0.0000001
 44
0.0000000001
 40
0.0
 40
0.0
 40
0.0
 40
0.0
 40
0.6468780238
 40
1.0
 40
1.0
 40
1.0
 40
1.0
 10
33.0594167751
 20
73.9396571784
 30
0.0
 10
33.0933589383
 20
73.8378309495
 30
0.0
 10
33.1367710742
 20
73.688760289
 30
0.0
 10
33.1500316304
 20
73.5636849267
 30
0.0
 10
33.1500316304
 20
73.5254182489
 30
0.0
  0
SPLINE
  5
3F1
100
AcDbEntity
  8
0
100
AcDbSpline
 62
7
  6
CONTINUOUS
 70
0
 71
3
 72
9
 73
5
 74
0
 42
0.0000001
 43
0.0000001
 44
0.0000000001
 40
0.0
 40
0.0
 40
0.0
 40
0.0
 40
0.8143318711
 40
1.0
 40
1.0
 40
1.0
 40
1.0
 10
33.4477663082
 20
73.4606933265
 30
0.0
 10
33.4477663082
 20
73.6079578971
 30
0.0
 10
33.4268245338
 20
73.7802138763
 30
0.0
 10
33.3586183819
 20
73.916074232
 30
0.0
 10
33.3442064416
 20
73.9396571784
 30
0.0
  0
SPLINE
  5
3F2
100
AcDbEntity
  8
0
100
AcDbSpline
 62
7
  6
CONTINUOUS
 70
0
 71
3
 72
10
 73
6
 74
0
 42
0.0000001
 43
0.0000001
 44
0.0000000001
 40
0.0
 40
0.0
 40
0.0
 40
0.0
 40
0.4102270951
 40
0.7980494858
 40
1.0
 40
1.0
 40
1.0
 40
1.0
 10
32.8652420085
 20
72.7098836569
 30
0.0
 10
33.0106959072
 20
72.7583682898
 30
0.0
 10
33.2632519981
 20
72.8937915106
 30
0.0
 10
33.4266173646
 20
73.1835253567
 30
0.0
 10
33.4477663082
 20
73.3885025928
 30
0.0
 10
33.4477663082
 20
73.4606933265
 30
0.0
  0
SPLINE
  5
3F3
100
AcDbEntity
  8
0
100
AcDbSpline
 62
7
  6
CONTINUOUS
 70
0
 71
3
 72
9
 73
5
 74
0
 42
0.0000001
 43
0.0000001
 44
0.0000000001
 40
0.0
 40
0.0
 40
0.0
 40
0.0
 40
0.6194832554
 40
1.0
 40
1.0
 40
1.0
 40
1.0
 10
27.4412937803
 20
72.1014699605
 30
0.0
 10
27.3609730688
 20
72.2778257349
 30
0.0
 10
27.1884336125
 20
72.5226902629
 30
0.0
 10
26.9346181878
 20
72.5933799415
 30
0.0
 10
26.8328793686
 20
72.5933799415
 30
0.0
  0
SPLINE
  5
3F4
100
AcDbEntity
  8
0
100
AcDbSpline
 62
7
  6
CONTINUOUS
 70
0
 71
3
 72
10
 73
6
 74
0
 42
0.0000001
 43
0.0000001
 44
0.0000000001
 40
0.0
 40
0.0
 40
0.0
 40
0.0
 40
0.3854879479
 40
0.7780895561
 40
1.0
 40
1.0
 40
1.0
 40
1.0
 10
26.8328793686
 20
72.5933799415
 30
0.0
 10
26.7635168438
 20
72.5933799415
 30
0.0
 10
26.6330871197
 20
72.5572701222
 30
0.0
 10
26.5404140579
 20
72.4053921692
 30
0.0
 10
26.5153994009
 20
72.2881060422
 30
0.0
 10
26.5092547577
 20
72.2438645034
 30
0.0
  0
SPLINE
  5
3F5
100
AcDbEntity
  8
0
100
AcDbSpline
 62
7
  6
CONTINUOUS
 70
0
 71
3
 72
8
 73
4
 74
0
 42
0.0000001
 43
0.0000001
 44
0.0000000001
 40
0.0
 40
0.0
 40
0.0
 40
0.0
 40
1.0
 40
1.0
 40
1.0
 40
1.0
 10
26.5092547577
 20
72.2438645034
 30
0.0
 10
26.5092547577
 20
72.189996486
 30
0.0
 10
26.5170902995
 20
72.1381908096
 30
0.0
 10
26.533225602
 20
72.1006514958
 30
0.0
  0
SPLINE
  5
3F6
100
AcDbEntity
  8
0
100
AcDbSpline
 62
7
  6
CONTINUOUS
 70
0
 71
3
 72
9
 73
5
 74
0
 42
0.0000001
 43
0.0000001
 44
0.0000000001
 40
0.0
 40
0.0
 40
0.0
 40
0.0
 40
0.6213603894
 40
1.0
 40
1.0
 40
1.0
 40
1.0
 10
26.533225602
 20
72.1006514958
 30
0.0
 10
26.6105989605
 20
71.9206398234
 30
0.0
 10
26.7783044245
 20
71.6694454911
 30
0.0
 10
27.0300296054
 20
71.5966152815
 30
0.0
 10
27.1306138678
 20
71.5966152816
 30
0.0
  0
SPLINE
  5
3F7
100
AcDbEntity
  8
0
100
AcDbSpline
 62
7
  6
CONTINUOUS
 70
0
 71
3
 72
11
 73
7
 74
0
 42
0.0000001
 43
0.0000001
 44
0.0000000001
 40
0.0
 40
0.0
 40
0.0
 40
0.0
 40
0.2231728138
 40
0.6000666495
 40
0.7898330184
 40
1.0
 40
1.0
 40
1.0
 40
1.0
 10
32.5933973531
 20
76.9558391242
 30
0.0
 10
32.5392404402
 20
76.9558391242
 30
0.0
 10
32.3978321448
 20
76.9704350554
 30
0.0
 10
32.2592374333
 20
77.0477126699
 30
0.0
 10
32.16943026
 20
77.1726562524
 30
0.0
 10
32.1385902602
 20
77.2578658274
 30
0.0
 10
32.1273779315
 20
77.3053531318
 30
0.0
  0
SPLINE
  5
3F8
100
AcDbEntity
  8
0
100
AcDbSpline
 62
7
  6
CONTINUOUS
 70
0
 71
3
 72
9
 73
5
 74
0
 42
0.0000001
 43
0.0000001
 44
0.0000000001
 40
0.0
 40
0.0
 40
0.0
 40
0.0
 40
0.5354161113
 40
1.0
 40
1.0
 40
1.0
 40
1.0
 10
32.1273779315
 20
77.3053531318
 30
0.0
 10
32.1273779315
 20
77.3455355876
 30
0.0
 10
32.1575464807
 20
77.4398572814
 30
0.0
 10
32.2320296451
 20
77.5432899573
 30
0.0
 10
32.2697728318
 20
77.5901436477
 30
0.0
  0
SPLINE
  5
3F9
100
AcDbEntity
  8
0
100
AcDbSpline
 62
7
  6
CONTINUOUS
 70
0
 71
3
 72
11
 73
7
 74
0
 42
0.0000001
 43
0.0000001
 44
0.0000000001
 40
0.0
 40
0.0
 40
0.0
 40
0.0
 40
0.1987065761
 40
0.3820210926
 40
0.5647989947
 40
1.0
 40
1.0
 40
1.0
 40
1.0
 10
33.1629766863
 20
75.5060014396
 30
0.0
 10
33.1629766863
 20
75.4827697854
 30
0.0
 10
33.1573737124
 20
75.4395435924
 30
0.0
 10
33.1330984345
 20
75.3880682064
 30
0.0
 10
33.0772563615
 20
75.3310110305
 30
0.0
 10
33.0003380898
 20
75.3063710265
 30
0.0
 10
32.9429118973
 20
75.2988805442
 30
0.0
  0
SPLINE
  5
3FA
100
AcDbEntity
  8
0
100
AcDbSpline
 62
7
  6
CONTINUOUS
 70
0
 71
3
 72
9
 73
5
 74
0
 42
0.0000001
 43
0.0000001
 44
0.0000000001
 40
0.0
 40
0.0
 40
0.0
 40
0.0
 40
0.6453329906
 40
1.0
 40
1.0
 40
1.0
 40
1.0
 10
33.0594167751
 20
75.8684601455
 30
0.0
 10
33.0973992346
 20
75.7811003206
 30
0.0
 10
33.1476752117
 20
75.6526290063
 30
0.0
 10
33.1629766863
 20
75.5410903232
 30
0.0
 10
33.1629766863
 20
75.5060014396
 30
0.0
  0
SPLINE
  5
3FB
100
AcDbEntity
  8
0
100
AcDbSpline
 62
7
  6
CONTINUOUS
 70
0
 71
3
 72
10
 73
6
 74
0
 42
0.0000001
 43
0.0000001
 44
0.0000000001
 40
0.0
 40
0.0
 40
0.0
 40
0.0
 40
0.6856690807
 40
0.9258298472
 40
1.0
 40
1.0
 40
1.0
 40
1.0
 10
33.4477663082
 20
75.4801106124
 30
0.0
 10
33.42921819
 20
75.6037647614
 30
0.0
 10
33.3992133901
 20
75.7706519341
 30
0.0
 10
33.3421813554
 20
75.8630137484
 30
0.0
 10
33.3228628243
 20
75.8684601455
 30
0.0
 10
33.3183164638
 20
75.8684601455
 30
0.0
  0
SPLINE
  5
3FC
100
AcDbEntity
  8
0
100
AcDbSpline
 62
7
  6
CONTINUOUS
 70
0
 71
3
 72
10
 73
6
 74
0
 42
0.0000001
 43
0.0000001
 44
0.0000000001
 40
0.0
 40
0.0
 40
0.0
 40
0.0
 40
0.4052175028
 40
0.7941314658
 40
1.0
 40
1.0
 40
1.0
 40
1.0
 10
33.0723617416
 20
74.9882020621
 30
0.0
 10
33.1670151278
 20
75.0148988482
 30
0.0
 10
33.3317944478
 20
75.0984743006
 30
0.0
 10
33.4347066642
 20
75.2921696143
 30
0.0
 10
33.4477663082
 20
75.4307356205
 30
0.0
 10
33.4477663082
 20
75.4801106124
 30
0.0
  0
SPLINE
  5
3FD
100
AcDbEntity
  8
0
100
AcDbSpline
 62
7
  6
CONTINUOUS
 70
0
 71
3
 72
9
 73
5
 74
0
 42
0.0000001
 43
0.0000001
 44
0.0000000001
 40
0.0
 40
0.0
 40
0.0
 40
0.0
 40
0.6172861009
 40
1.0
 40
1.0
 40
1.0
 40
1.0
 10
32.0108731431
 20
77.7713722853
 30
0.0
 10
31.9439010161
 20
77.7062108753
 30
0.0
 10
31.8562516476
 20
77.5904560778
 30
0.0
 10
31.8296432537
 20
77.4593938231
 30
0.0
 10
31.8296432537
 20
77.4089135795
 30
0.0
  0
SPLINE
  5
3FE
100
AcDbEntity
  8
0
100
AcDbSpline
 62
7
  6
CONTINUOUS
 70
0
 71
3
 72
9
 73
5
 74
0
 42
0.0000001
 43
0.0000001
 44
0.0000000001
 40
0.0
 40
0.0
 40
0.0
 40
0.0
 40
0.3603589887
 40
1.0
 40
1.0
 40
1.0
 40
1.0
 10
31.8296432537
 20
77.3830227523
 30
0.0
 10
31.8296432537
 20
77.3248787316
 30
0.0
 10
31.8899809677
 20
77.1664653125
 30
0.0
 10
32.0668181549
 20
77.0398916855
 30
0.0
 10
32.1921028535
 20
76.9687838225
 30
0.0
  0
ENDSEC
  0
SECTION
  2
OBJECTS
  0
DICTIONARY
  5
C
100
AcDbDictionary
280
0
281
1
  3
ACAD_GROUP
350
D
  3
ACAD_MLINESTYLE
350
17
  3
ACAD_LAYOUT
350
1A
  3
ACAD_PLOTSETTINGS
350
19
  3
ACAD_PLOTSTYLENAME
350
E
  0
DICTIONARY
  5
D
102
{ACAD_REACTORS
330
C
102
}
100
AcDbDictionary
280
0
281
1
  0
ACDBDICTIONARYWDFLT
  5
E
102
{ACAD_REACTORS
330
C
102
}
100
AcDbDictionary
281
1
  3
Normal
350
F
100
AcDbDictionaryWithDefault
340
F
  0
DICTIONARY
  5
17
102
{ACAD_REACTORS
330
C
102
}
100
AcDbDictionary
280
0
281
1
  3
Standard
350
18
  0
DICTIONARY
  5
19
102
{ACAD_REACTORS
330
C
102
}
100
AcDbDictionary
281
1
  0
DICTIONARY
  5
1A
102
{ACAD_REACTORS
330
C
102
}
100
AcDbDictionary
281
1
  3
Model
350
3FF
  3
Layout1
350
400
  0
ACDBPLACEHOLDER
  5
F
102
{ACAD_REACTORS
330
E
102
}
  0
MLINESTYLE
  5
18
102
{ACAD_REACTORS
330
17
102
}
100
AcDbMlineStyle
  2
STANDARD
 70
0
  3

 62
256
 51
90.0
 52
90.0
 71
2
 49
0.5
 62
256
  6
BYLAYER
 49
-0.5
 62
256
  6
BYLAYER
  0
LAYOUT
  5
3FF
102
{ACAD_REACTORS
330
1A
102
}
100
AcDbPlotSettings
  1

  2
none_device
  4

  6

 40
0.0
 41
0.0
 42
0.0
 43
0.0
 44
210.0
 45
297.0
 46
0.0
 47
0.0
 48
0.0
 49
0.0
140
0.0
141
0.0
142
1.0
143
1.0
 70
1024
 72
1
 73
0
 74
0
  7

 75
0
147
1.0
148
0.0
149
0.0
100
AcDbLayout
  1
Model
 70
0
 71
0
 10
0.0
 20
0.0
 11
210.0
 21
297.0
 12
0.0
 22
0.0
 32
0.0
 14
0.0
 24
0.0
 34
0.0
 15
0.0
 25
0.0
 35
0.0
146
0.0
 13
0.0
 23
0.0
 33
0.0
 16
1.0
 26
0.0
 36
0.0
 17
0.0
 27
1.0
 37
0.0
 76
0
330
210
345
0
346
0
  0
LAYOUT
  5
400
102
{ACAD_REACTORS
330
1A
102
}
100
AcDbPlotSettings
  1

  2
none_device
  4

  6

 40
0.0
 41
0.0
 42
0.0
 43
0.0
 44
210.0
 45
297.0
 46
0.0
 47
0.0
 48
0.0
 49
0.0
140
0.0
141
0.0
142
1.0
143
1.0
 70
0
 72
1
 73
0
 74
0
  7

 75
0
147
1.0
148
0.0
149
0.0
100
AcDbLayout
  1
Layout1
 70
0
 71
1
 10
0.0
 20
0.0
 11
210.0
 21
297.0
 12
0.0
 22
0.0
 32
0.0
 14
0.0
 24
0.0
 34
0.0
 15
0.0
 25
0.0
 35
0.0
146
0.0
 13
0.0
 23
0.0
 33
0.0
 16
1.0
 26
0.0
 36
0.0
 17
0.0
 27
1.0
 37
0.0
 76
0
330
211
345
0
346
0
  0
ENDSEC
  0
EOF
