999
DXF file: C:\Users\sesa63760\Dev\_Creo\CAD\MCADID0000507_3D-CAD\drw0001_3.dxf
999
Pro/ENGINEER 2019471 by Parametric Technology Corporation
  0
SECTION
  2
HEADER
  9
$ACADVER
  1
AC1024
  9
$DWGCODEPAGE
  3
ANSI_1252
  9
$EXTMAX
 10
163.5697455942
 20
231.3343544833
 30
0.0
  9
$EXTMIN
 10
0.0
 20
0.0
 30
0.0
  9
$LIMMIN
 10
0.0
 20
0.0
  9
$LIMMAX
 10
163.5697455942
 20
231.3343544833
  9
$VIEWCTR
 10
81.7848727971
 20
115.6671772416
  9
$VIEWSIZE
 40
231.3343544833
  9
$CLAYER
  8
0
  9
$LTSCALE
 40
15.0795727367
  9
$CELTYPE
  6
BYLAYER
  9
$DIMSCALE
 40
1.0
  9
$DIMASZ
 40
1.9472588761
  9
$DIMEXO
 40
1.0
  9
$DIMDLI
 40
10.4186138908
  9
$DIMEXE
 40
1.0
  9
$DIMCEN
 40
2.4675664478
  9
$DIMLFAC
 40
1.0
  9
$DIMBLK
  1
_FILLED
  9
$DIMALT
 70
0
  9
$DIMALTF
 40
0.0393700787
  9
$DIMTXT
 40
2.7261624266
  9
$DIMTOL
 70
1
  9
$DIMLIM
 70
0
  9
$DIMTFAC
 40
1.0
  9
$DIMTP
 40
0.01
  9
$DIMTM
 40
0.01
  9
$DIMGAP
 40
0.625
  9
$DIMDSEP
 70
46
  9
$AUNITS
 70
0
  9
$PDMODE
 70
3
  9
$PDSIZE
 40
0.3125
  9
$HANDSEED
  5
373
  9
$TILEMODE
 70
1
  9
$MEASUREMENT
 70
1
  9
$INSUNITS
 70
4
  0
ENDSEC
  0
SECTION
  2
CLASSES
  0
CLASS
  1
ACDBDICTIONARYWDFLT
  2
AcDbDictionaryWithDefault
  3
AutoCAD 2000
 90
0
 91
1
280
0
281
0
  0
CLASS
  1
ACDBPLACEHOLDER
  2
AcDbPlaceHolder
  3
AutoCAD 2000
 90
0
 91
1
280
0
281
0
  0
CLASS
  1
LAYOUT
  2
AcDbLayout
  3
AutoCAD 2000
 90
0
 91
0
280
0
281
0
  0
ENDSEC
  0
SECTION
  2
TABLES
  0
TABLE
  2
VPORT
  5
8
100
AcDbSymbolTable
 70
2
  0
VPORT
  5
1F4
100
AcDbSymbolTableRecord
100
AcDbViewportTableRecord
  2
*ACTIVE
 70
0
 10
0.0
 20
0.0
 11
1.0
 21
1.0
 12
81.7848727971
 22
115.6671772416
 13
0.0
 23
0.0
 14
1.0
 24
1.0
 15
0.0
 25
0.0
 16
0.0
 26
0.0
 36
1.0
 17
0.0
 27
0.0
 37
0.0
 40
231.3343544833
 41
0.7070707071
 42
50.0
 43
0.0
 44
0.0
 50
0.0
 51
0.0
 71
0
 72
100
 73
1
 74
1
 75
0
 76
0
 77
0
 78
0
  0
ENDTAB
  0
TABLE
  2
LTYPE
  5
5
100
AcDbSymbolTable
 70
6
  0
LTYPE
  5
14
100
AcDbSymbolTableRecord
100
AcDbLinetypeTableRecord
  2
BYBLOCK
 70
0
  3

 72
65
 73
0
 40
0.0
  0
LTYPE
  5
15
100
AcDbSymbolTableRecord
100
AcDbLinetypeTableRecord
  2
BYLAYER
 70
0
  3

 72
65
 73
0
 40
0.0
  0
LTYPE
  5
16
100
AcDbSymbolTableRecord
100
AcDbLinetypeTableRecord
  2
CONTINUOUS
 70
64
  3
Solid line
 72
65
 73
0
 40
0.0
  0
LTYPE
  5
1F5
100
AcDbSymbolTableRecord
100
AcDbLinetypeTableRecord
  2
CENTER
 70
64
  3
____ _ ____ _ ____ _ ____ _ ____ _ ____ _ ____
 72
65
 73
4
 40
0.6
 49
0.375
 74
0
 49
-0.075
 74
0
 49
0.075
 74
0
 49
-0.075
 74
0
  0
LTYPE
  5
1F6
100
AcDbSymbolTableRecord
100
AcDbLinetypeTableRecord
  2
HIDDEN
 70
64
  3
- - - - - - - - - - - - - - - - - - - -
 72
65
 73
2
 40
0.2
 49
0.1
 74
0
 49
-0.1
 74
0
  0
LTYPE
  5
1F7
100
AcDbSymbolTableRecord
100
AcDbLinetypeTableRecord
  2
PHANTOM
 70
64
  3
_____ _ _ _____ _ _ _____ _ _ _____
 72
65
 73
6
 40
0.8
 49
0.45
 74
0
 49
-0.05
 74
0
 49
0.1
 74
0
 49
-0.05
 74
0
 49
0.1
 74
0
 49
-0.05
 74
0
  0
LTYPE
  5
1F8
100
AcDbSymbolTableRecord
100
AcDbLinetypeTableRecord
  2
DOT
 70
64
  3
. . . . . . . . . . . . . . . . . . . .
 72
65
 73
2
 40
0.2
 49
0.1
 74
0
 49
-0.1
 74
0
  0
LTYPE
  5
1F9
100
AcDbSymbolTableRecord
100
AcDbLinetypeTableRecord
  2
DASHED
 70
64
  3
- - - - - - - - - - - - - - - - - - - -
 72
65
 73
2
 40
0.2
 49
0.1
 74
0
 49
-0.1
 74
0
  0
ENDTAB
  0
TABLE
  2
LAYER
  5
2
100
AcDbSymbolTable
 70
36
  0
LAYER
  5
10
100
AcDbSymbolTableRecord
100
AcDbLayerTableRecord
  2
0
 70
0
 62
7
  6
CONTINUOUS
370
-3
390
F
  0
LAYER
  5
1FA
100
AcDbSymbolTableRecord
100
AcDbLayerTableRecord
  2
DEFAULT_1
 70
0
 62
7
  6
CENTER
370
-3
390
F
  0
LAYER
  5
1FB
100
AcDbSymbolTableRecord
100
AcDbLayerTableRecord
  2
DEFAULT_2
 70
0
 62
8
  6
HIDDEN
370
-3
390
F
  0
LAYER
  5
1FC
100
AcDbSymbolTableRecord
100
AcDbLayerTableRecord
  2
DEFAULT_3
 70
0
 62
7
  6
PHANTOM
370
-3
390
F
  0
LAYER
  5
1FD
100
AcDbSymbolTableRecord
100
AcDbLayerTableRecord
  2
00_COMPONENTS
 70
0
 62
7
  6
CONTINUOUS
370
-3
390
F
  0
LAYER
  5
1FE
100
AcDbSymbolTableRecord
100
AcDbLayerTableRecord
  2
01_1_DEFAULT_DATUMS
 70
0
 62
7
  6
CONTINUOUS
370
-3
390
F
  0
LAYER
  5
1FF
100
AcDbSymbolTableRecord
100
AcDbLayerTableRecord
  2
01_PLANES
 70
0
 62
7
  6
CONTINUOUS
370
-3
390
F
  0
LAYER
  5
200
100
AcDbSymbolTableRecord
100
AcDbLayerTableRecord
  2
02_COORD_SYS
 70
0
 62
7
  6
CONTINUOUS
370
-3
390
F
  0
LAYER
  5
201
100
AcDbSymbolTableRecord
100
AcDbLayerTableRecord
  2
03_AXES
 70
0
 62
7
  6
CONTINUOUS
370
-3
390
F
  0
LAYER
  5
202
100
AcDbSymbolTableRecord
100
AcDbLayerTableRecord
  2
04_POINTS
 70
0
 62
7
  6
CONTINUOUS
370
-3
390
F
  0
LAYER
  5
203
100
AcDbSymbolTableRecord
100
AcDbLayerTableRecord
  2
05_CURVES
 70
0
 62
7
  6
CONTINUOUS
370
-3
390
F
  0
LAYER
  5
204
100
AcDbSymbolTableRecord
100
AcDbLayerTableRecord
  2
06_SURFS
 70
0
 62
7
  6
CONTINUOUS
370
-3
390
F
  0
LAYER
  5
205
100
AcDbSymbolTableRecord
100
AcDbLayerTableRecord
  2
07_COSMETICS
 70
0
 62
7
  6
CONTINUOUS
370
-3
390
F
  0
LAYER
  5
206
100
AcDbSymbolTableRecord
100
AcDbLayerTableRecord
  2
10_NOTES
 70
0
 62
7
  6
CONTINUOUS
370
-3
390
F
  0
LAYER
  5
207
100
AcDbSymbolTableRecord
100
AcDbLayerTableRecord
  2
11_NOTES_PUB
 70
0
 62
7
  6
CONTINUOUS
370
-3
390
F
  0
LAYER
  5
208
100
AcDbSymbolTableRecord
100
AcDbLayerTableRecord
  2
13_REF_GTOL
 70
0
 62
7
  6
CONTINUOUS
370
-3
390
F
  0
LAYER
  5
209
100
AcDbSymbolTableRecord
100
AcDbLayerTableRecord
  2
16_MISC
 70
0
 62
7
  6
CONTINUOUS
370
-3
390
F
  0
LAYER
  5
20A
100
AcDbSymbolTableRecord
100
AcDbLayerTableRecord
  2
17_NO_PRINT
 70
0
 62
7
  6
CONTINUOUS
370
-3
390
F
  0
LAYER
  5
20B
100
AcDbSymbolTableRecord
100
AcDbLayerTableRecord
  2
18_DATUM_CAMS_JOINTS
 70
0
 62
7
  6
CONTINUOUS
370
-3
390
F
  0
LAYER
  5
20C
100
AcDbSymbolTableRecord
100
AcDbLayerTableRecord
  2
19_DATUM_FUNCTIONAL
 70
0
 62
7
  6
CONTINUOUS
370
-3
390
F
  0
LAYER
  5
20D
100
AcDbSymbolTableRecord
100
AcDbLayerTableRecord
  2
20_DATUM_KINEMATIC_SCHEME
 70
0
 62
7
  6
CONTINUOUS
370
-3
390
F
  0
ENDTAB
  0
TABLE
  2
STYLE
  5
3
100
AcDbSymbolTable
 70
1
  0
STYLE
  5
11
100
AcDbSymbolTableRecord
100
AcDbTextStyleTableRecord
  2
STANDARD
 70
0
 40
0.0
 41
0.8
 50
0.0
 71
0
 42
0.2
  3
txt
  4

  0
STYLE
  5
20E
100
AcDbSymbolTableRecord
100
AcDbTextStyleTableRecord
  2
TEXTSTYLE_1
 70
0
 40
0.0
 41
0.8
 50
0.0
 71
0
 42
0.2
  3
gdt
  4

  0
ENDTAB
  0
TABLE
  2
VIEW
  5
6
100
AcDbSymbolTable
 70
0
  0
ENDTAB
  0
TABLE
  2
UCS
  5
7
100
AcDbSymbolTable
 70
0
  0
ENDTAB
  0
TABLE
  2
APPID
  5
9
100
AcDbSymbolTable
 70
1
  0
APPID
  5
20F
100
AcDbSymbolTableRecord
100
AcDbRegAppTableRecord
  2
ACAD
 70
0
  0
ENDTAB
  0
TABLE
  2
BLOCK_RECORD
  5
1
100
AcDbSymbolTable
 70
0
  0
BLOCK_RECORD
  5
210
100
AcDbSymbolTableRecord
100
AcDbBlockTableRecord
  2
*Model_Space
  0
BLOCK_RECORD
  5
211
100
AcDbSymbolTableRecord
100
AcDbBlockTableRecord
  2
*Paper_Space
  0
BLOCK_RECORD
  5
212
100
AcDbSymbolTableRecord
100
AcDbBlockTableRecord
  2
_FILLED
  0
ENDTAB
  0
TABLE
  2
DIMSTYLE
  5
A
100
AcDbSymbolTable
 70
1
100
AcDbDimStyleTable
 71
0
  0
DIMSTYLE
105
213
100
AcDbSymbolTableRecord
100
AcDbDimStyleTableRecord
  2
STANDARD
 70
0
  3

  4

 40
1.0
 41
1.9472588761
 42
1.0
 43
0.38
 44
1.0
 45
0.0
 46
0.0
 47
0.01
 48
0.01
140
2.7261624266
141
0.09
142
0.0
143
25.4
144
1.0
145
0.0
146
1.0
147
0.625
 71
1
 72
0
 73
0
 74
0
 75
0
 76
0
 77
1
 78
8
 79
2
170
0
171
1
172
0
173
0
174
0
175
0
176
0
177
0
178
0
270
2
179
2
271
2
272
2
273
2
274
2
275
0
280
0
281
0
282
0
283
1
284
8
285
0
286
0
287
3
288
0
340
11
278
46
341
212
342
212
343
212
344
212
  0
ENDTAB
  0
ENDSEC
  0
SECTION
  2
BLOCKS
  0
BLOCK
  5
20
100
AcDbEntity
  8
0
100
AcDbBlockBegin
  2
*Model_Space
 70
0
 10
0.0
 20
0.0
 30
0.0
  3
*Model_Space
  1

  0
ENDBLK
  5
21
100
AcDbEntity
  8
0
100
AcDbBlockEnd
  0
BLOCK
  5
1C
100
AcDbEntity
  8
0
100
AcDbBlockBegin
  2
*Paper_Space
 70
0
 10
0.0
 20
0.0
 30
0.0
  3
*Paper_Space
  1

  0
ENDBLK
  5
1D
100
AcDbEntity
  8
0
100
AcDbBlockEnd
  0
BLOCK
  5
214
100
AcDbEntity
  8
0
100
AcDbBlockBegin
  2
_FILLED
 70
64
 10
0.0
 20
0.0
  3
_FILLED
  1

  0
SOLID
  5
215
100
AcDbEntity
  8
0
  6
BYBLOCK
 62
0
100
AcDbTrace
 10
0.0
 20
0.0
 11
-1.0
 21
0.25
 12
-1.0
 22
-0.25
 13
-1.0
 23
-0.25
  0
ENDBLK
  5
216
100
AcDbEntity
  8
0
  6
BYBLOCK
 62
0
100
AcDbBlockEnd
  0
ENDSEC
  0
SECTION
  2
ENTITIES
  0
LINE
  5
217
100
AcDbEntity
  8
0
100
AcDbLine
 62
7
  6
CONTINUOUS
 10
19.3500806753
 20
87.5434799817
 11
19.5955798582
 21
77.9734799814
  0
LINE
  5
218
100
AcDbEntity
  8
0
100
AcDbLine
 62
7
  6
CONTINUOUS
 10
23.5753746704
 20
95.4434799814
 11
23.6835140611
 21
87.5434799818
  0
LINE
  5
219
100
AcDbEntity
  8
0
100
AcDbLine
 62
7
  6
CONTINUOUS
 10
23.6835140309
 20
87.5434799818
 11
23.5955798576
 21
77.9734799814
  0
LINE
  5
21A
100
AcDbEntity
  8
0
100
AcDbLine
 62
7
  6
CONTINUOUS
 10
19.6091037394
 20
95.4434799816
 11
19.3500806753
 21
87.5434799817
  0
LINE
  5
21B
100
AcDbEntity
  8
0
100
AcDbLine
 62
7
  6
CONTINUOUS
 10
21.5806045779
 20
96.6279236044
 11
22.3114940657
 21
95.4434799811
  0
LINE
  5
21C
100
AcDbEntity
  8
0
100
AcDbLine
 62
7
  6
CONTINUOUS
 10
23.5529473405
 20
95.443479981
 11
23.0361304274
 21
96.6279236044
  0
LINE
  5
21D
100
AcDbEntity
  8
0
100
AcDbLine
 62
7
  6
CONTINUOUS
 10
28.0500806745
 20
113.0434799843
 11
28.3177365402
 21
104.5121222249
  0
LINE
  5
21E
100
AcDbEntity
  8
0
100
AcDbLine
 62
7
  6
CONTINUOUS
 10
28.3500806753
 20
113.6934799818
 11
28.3500806753
 21
113.0434799814
  0
LINE
  5
21F
100
AcDbEntity
  8
0
100
AcDbLine
 62
7
  6
CONTINUOUS
 10
29.3500806746
 20
116.6722796298
 11
29.3500806746
 21
116.0434799814
  0
LINE
  5
220
100
AcDbEntity
  8
0
100
AcDbLine
 62
7
  6
CONTINUOUS
 10
28.2596052914
 20
119.1934799817
 11
29.0316079163
 21
142.2269776896
  0
LINE
  5
221
100
AcDbEntity
  8
0
100
AcDbLine
 62
7
  6
CONTINUOUS
 10
29.7092881014
 20
132.6255037809
 11
29.2590202373
 21
119.1912958136
  0
LINE
  5
222
100
AcDbEntity
  8
0
100
AcDbLine
 62
7
  6
CONTINUOUS
 10
30.0310467105
 20
142.2156759866
 11
29.7748333132
 21
134.5712839754
  0
LINE
  5
223
100
AcDbEntity
  8
0
100
AcDbLine
 62
7
  6
CONTINUOUS
 10
29.7651381022
 20
134.2598213062
 11
29.7428046616
 21
133.5934799814
  0
LINE
  5
224
100
AcDbEntity
  8
0
100
AcDbLine
 62
7
  6
CONTINUOUS
 10
28.0675410584
 20
113.6934799814
 11
28.2596052913
 21
119.1934799817
  0
LINE
  5
225
100
AcDbEntity
  8
0
100
AcDbLine
 62
7
  6
CONTINUOUS
 10
29.2590202373
 20
119.1912958136
 11
29.1828985597
 21
117.0114561825
  0
LINE
  5
226
100
AcDbEntity
  8
0
100
AcDbLine
 62
7
  6
CONTINUOUS
 10
29.1828985579
 20
117.0114561825
 11
29.115325275
 21
116.0434799796
  0
LINE
  5
227
100
AcDbEntity
  8
0
100
AcDbLine
 62
7
  6
CONTINUOUS
 10
30.6827832942
 20
96.6279236044
 11
31.1996002074
 21
95.443479981
  0
LINE
  5
228
100
AcDbEntity
  8
0
100
AcDbLine
 62
7
  6
CONTINUOUS
 10
31.9675410582
 20
113.6934799814
 11
31.9151828519
 21
115.0783794771
  0
LINE
  5
229
100
AcDbEntity
  8
0
100
AcDbLine
 62
7
  6
CONTINUOUS
 10
29.7748332988
 20
134.2598213062
 11
29.7748332988
 21
134.5712839754
  0
LINE
  5
22A
100
AcDbEntity
  8
0
100
AcDbLine
 62
7
  6
CONTINUOUS
 10
30.0310467106
 20
142.2156759869
 11
30.0310467106
 21
143.1934799814
  0
LINE
  5
22B
100
AcDbEntity
  8
0
100
AcDbLine
 62
7
  6
CONTINUOUS
 10
31.850080813
 20
118.1634799814
 11
31.8500807283
 21
133.5934799814
  0
LINE
  5
22C
100
AcDbEntity
  8
0
100
AcDbLine
 62
7
  6
CONTINUOUS
 10
31.9151828511
 20
115.078379478
 11
31.9151828511
 21
116.0434799814
  0
LINE
  5
22D
100
AcDbEntity
  8
0
100
AcDbLine
 62
7
  6
CONTINUOUS
 10
31.9483252323
 20
103.5434799814
 11
31.9483252323
 21
104.5121222249
  0
LINE
  5
22E
100
AcDbEntity
  8
0
100
AcDbLine
 62
7
  6
CONTINUOUS
 10
33.8984587978
 20
116.0434799814
 11
33.8984587978
 21
115.078379478
  0
LINE
  5
22F
100
AcDbEntity
  8
0
100
AcDbLine
 62
7
  6
CONTINUOUS
 10
34.1967334063
 20
95.4434799815
 11
34.1967334064
 21
96.9457893511
  0
LINE
  5
230
100
AcDbEntity
  8
0
100
AcDbLine
 62
7
  6
CONTINUOUS
 10
34.3500806746
 20
116.6722796298
 11
34.3500806746
 21
116.1512704725
  0
LINE
  5
231
100
AcDbEntity
  8
0
100
AcDbLine
 62
7
  6
CONTINUOUS
 10
31.9500806741
 20
113.6934799818
 11
31.9483252417
 21
104.5121222249
  0
LINE
  5
232
100
AcDbEntity
  8
0
100
AcDbLine
 62
7
  6
CONTINUOUS
 10
35.396527284
 20
133.5934799814
 11
35.396527284
 21
134.2598213068
  0
LINE
  5
233
100
AcDbEntity
  8
0
100
AcDbLine
 62
7
  6
CONTINUOUS
 10
36.3977109493
 20
132.6269776891
 11
36.3977109493
 21
133.5934799814
  0
LINE
  5
234
100
AcDbEntity
  8
0
100
AcDbLine
 62
7
  6
CONTINUOUS
 10
36.5349881458
 20
103.5434799814
 11
36.5349881458
 21
96.9457893511
  0
LINE
  5
235
100
AcDbEntity
  8
0
100
AcDbLine
 62
7
  6
CONTINUOUS
 10
34.8979461617
 20
117.0114561837
 11
35.3982239702
 21
132.6255077381
  0
LINE
  5
236
100
AcDbEntity
  8
0
100
AcDbLine
 62
7
  6
CONTINUOUS
 10
36.3977109498
 20
132.6269776891
 11
35.8974380987
 21
117.0144825378
  0
LINE
  5
237
100
AcDbEntity
  8
0
100
AcDbLine
 62
7
  6
CONTINUOUS
 10
21.9021610333
 20
96.8878614529
 11
21.7579711354
 21
96.9457893511
  0
LINE
  5
238
100
AcDbEntity
  8
0
100
AcDbLine
 62
7
  6
CONTINUOUS
 10
19.5955798578
 20
77.9734799814
 11
23.5953953341
 21
77.9734799814
  0
LINE
  5
239
100
AcDbEntity
  8
0
100
AcDbLine
 62
7
  6
CONTINUOUS
 10
23.5955798576
 20
77.9734799814
 11
144.504581491
 21
77.9734799814
  0
LINE
  5
23A
100
AcDbEntity
  8
0
100
AcDbLine
 62
7
  6
CONTINUOUS
 10
144.5047341392
 20
77.9734799814
 11
148.5045814914
 21
77.9734799814
  0
LINE
  5
23B
100
AcDbEntity
  8
0
100
AcDbLine
 62
7
  6
CONTINUOUS
 10
51.9500615657
 20
121.4769776893
 11
51.7811650508
 21
132.6269776896
  0
LINE
  5
23C
100
AcDbEntity
  8
0
100
AcDbLine
 62
7
  6
CONTINUOUS
 10
52.7810503453
 20
132.608625902
 11
52.9350286157
 21
122.4434799676
  0
LINE
  5
23D
100
AcDbEntity
  8
0
100
AcDbLine
 62
7
  6
CONTINUOUS
 10
53.2811587281
 20
132.6010428599
 11
53.435029562
 21
122.4434799809
  0
LINE
  5
23E
100
AcDbEntity
  8
0
100
AcDbLine
 62
7
  6
CONTINUOUS
 10
52.6488307613
 20
143.4934799821
 11
52.6500806637
 21
143.2934799713
  0
LINE
  5
23F
100
AcDbEntity
  8
0
100
AcDbLine
 62
7
  6
CONTINUOUS
 10
51.4500806746
 20
143.4934799821
 11
51.4500806746
 21
143.1934799814
  0
LINE
  5
240
100
AcDbEntity
  8
0
100
AcDbLine
 62
7
  6
CONTINUOUS
 10
51.7811650523
 20
133.5934799814
 11
51.7811650523
 21
132.6269776891
  0
LINE
  5
241
100
AcDbEntity
  8
0
100
AcDbLine
 62
7
  6
CONTINUOUS
 10
52.3500806746
 20
143.1934799814
 11
52.3500806746
 21
143.4934799821
  0
LINE
  5
242
100
AcDbEntity
  8
0
100
AcDbLine
 62
7
  6
CONTINUOUS
 10
52.8715783573
 20
143.1934799814
 11
52.8715783573
 21
143.293479981
  0
LINE
  5
243
100
AcDbEntity
  8
0
100
AcDbLine
 62
7
  6
CONTINUOUS
 10
53.2811587275
 20
132.6010428599
 11
53.2811587275
 21
133.5934799814
  0
LINE
  5
244
100
AcDbEntity
  8
0
100
AcDbLine
 62
7
  6
CONTINUOUS
 10
54.641408324
 20
133.5934799814
 11
54.641408324
 21
133.5925317496
  0
LINE
  5
245
100
AcDbEntity
  8
0
100
AcDbLine
 62
7
  6
CONTINUOUS
 10
55.200080675
 20
122.9434799814
 11
55.200080675
 21
122.4434799814
  0
LINE
  5
246
100
AcDbEntity
  8
0
100
AcDbLine
 62
7
  6
CONTINUOUS
 10
55.4027205496
 20
122.4434799814
 11
55.4027205496
 21
122.9434799814
  0
LINE
  5
247
100
AcDbEntity
  8
0
100
AcDbLine
 62
7
  6
CONTINUOUS
 10
55.6282350142
 20
122.9434799814
 11
55.6282350142
 21
122.4434799814
  0
LINE
  5
248
100
AcDbEntity
  8
0
100
AcDbLine
 62
7
  6
CONTINUOUS
 10
55.7150806737
 20
122.9434799814
 11
55.7150806737
 21
122.4434799814
  0
LINE
  5
249
100
AcDbEntity
  8
0
100
AcDbLine
 62
7
  6
CONTINUOUS
 10
56.4150806748
 20
122.4434799814
 11
56.4150806748
 21
122.9434799814
  0
LINE
  5
24A
100
AcDbEntity
  8
0
100
AcDbLine
 62
7
  6
CONTINUOUS
 10
56.5651732034
 20
103.5434799814
 11
56.5651732034
 21
96.9457893511
  0
LINE
  5
24B
100
AcDbEntity
  8
0
100
AcDbLine
 62
7
  6
CONTINUOUS
 10
19.3500806753
 20
87.5434799814
 11
148.7500806739
 21
87.5434799814
  0
LINE
  5
24C
100
AcDbEntity
  8
0
100
AcDbLine
 62
7
  6
CONTINUOUS
 10
61.6850806744
 20
122.9434799814
 11
61.6850806744
 21
122.4434799814
  0
LINE
  5
24D
100
AcDbEntity
  8
0
100
AcDbLine
 62
7
  6
CONTINUOUS
 10
62.0561458919
 20
134.5712839754
 11
62.0561458919
 21
133.5934799814
  0
LINE
  5
24E
100
AcDbEntity
  8
0
100
AcDbLine
 62
7
  6
CONTINUOUS
 10
62.0665997442
 20
143.1934799814
 11
62.0665997442
 21
142.2156759869
  0
LINE
  5
24F
100
AcDbEntity
  8
0
100
AcDbLine
 62
7
  6
CONTINUOUS
 10
62.3850806755
 20
122.4434799814
 11
62.3850806755
 21
122.9434799814
  0
LINE
  5
250
100
AcDbEntity
  8
0
100
AcDbLine
 62
7
  6
CONTINUOUS
 10
62.4719263348
 20
122.4434799814
 11
62.4719263348
 21
122.9434799814
  0
LINE
  5
251
100
AcDbEntity
  8
0
100
AcDbLine
 62
7
  6
CONTINUOUS
 10
62.6974408002
 20
122.9434799814
 11
62.6974408002
 21
122.4434799814
  0
LINE
  5
252
100
AcDbEntity
  8
0
100
AcDbLine
 62
7
  6
CONTINUOUS
 10
62.9000806742
 20
122.4434799814
 11
62.9000806742
 21
122.9434799814
  0
LINE
  5
253
100
AcDbEntity
  8
0
100
AcDbLine
 62
7
  6
CONTINUOUS
 10
63.4587530252
 20
133.5925317497
 11
63.4587530252
 21
133.5934799814
  0
LINE
  5
254
100
AcDbEntity
  8
0
100
AcDbLine
 62
7
  6
CONTINUOUS
 10
62.0666003201
 20
142.2156759873
 11
62.056141724
 21
134.5712839754
  0
LINE
  5
255
100
AcDbEntity
  8
0
100
AcDbLine
 62
7
  6
CONTINUOUS
 10
64.1071790125
 20
122.4434799808
 11
64.3326918628
 21
132.6010428599
  0
LINE
  5
256
100
AcDbEntity
  8
0
100
AcDbLine
 62
7
  6
CONTINUOUS
 10
64.3326898738
 20
132.6010429483
 11
64.3767570386
 21
133.5934799814
  0
LINE
  5
257
100
AcDbEntity
  8
0
100
AcDbLine
 62
7
  6
CONTINUOUS
 10
148.4910576097
 20
95.4434799814
 11
19.6091037394
 21
95.4434799814
  0
LINE
  5
258
100
AcDbEntity
  8
0
100
AcDbLine
 62
7
  6
CONTINUOUS
 10
21.5806045788
 20
96.6279236051
 11
146.5195567707
 21
96.6279236051
  0
LINE
  5
259
100
AcDbEntity
  8
0
100
AcDbLine
 62
7
  6
CONTINUOUS
 10
69.0500806746
 20
143.3934799807
 11
69.0500806746
 21
143.1934799814
  0
LINE
  5
25A
100
AcDbEntity
  8
0
100
AcDbLine
 62
7
  6
CONTINUOUS
 10
65.3369829761
 20
132.7907865775
 11
65.546229404
 21
142.2156759842
  0
LINE
  5
25B
100
AcDbEntity
  8
0
100
AcDbLine
 62
7
  6
CONTINUOUS
 10
66.3460824976
 20
142.2269776888
 11
66.134605119
 21
132.7016016902
  0
LINE
  5
25C
100
AcDbEntity
  8
0
100
AcDbLine
 62
7
  6
CONTINUOUS
 10
65.0624760743
 20
122.4293109208
 11
65.3176382221
 21
132.6185145362
  0
LINE
  5
25D
100
AcDbEntity
  8
0
100
AcDbLine
 62
7
  6
CONTINUOUS
 10
66.1173874927
 20
132.6252850962
 11
65.8382070794
 21
121.47697769
  0
LINE
  5
25E
100
AcDbEntity
  8
0
100
AcDbLine
 62
7
  6
CONTINUOUS
 10
86.3385478837
 20
153.6787808048
 11
80.8044295114
 21
143.7081791581
  0
LINE
  5
25F
100
AcDbEntity
  8
0
100
AcDbLine
 62
7
  6
CONTINUOUS
 10
81.6800461055
 20
143.7136375957
 11
87.2128230237
 21
153.6723305607
  0
LINE
  5
260
100
AcDbEntity
  8
0
100
AcDbLine
 62
7
  6
CONTINUOUS
 10
21.7579711354
 20
96.9457893511
 11
146.3421902142
 21
96.9457893511
  0
LINE
  5
261
100
AcDbEntity
  8
0
100
AcDbLine
 62
7
  6
CONTINUOUS
 10
79.5805807175
 20
98.3434799814
 11
88.5195806316
 21
98.3434799814
  0
LINE
  5
262
100
AcDbEntity
  8
0
100
AcDbLine
 62
7
  6
CONTINUOUS
 10
69.8000806741
 20
143.1934799814
 11
69.8000806741
 21
143.3934799807
  0
LINE
  5
263
100
AcDbEntity
  8
0
100
AcDbLine
 62
7
  6
CONTINUOUS
 10
73.0053339656
 20
103.5434799814
 11
73.0053339656
 21
96.9457893511
  0
LINE
  5
264
100
AcDbEntity
  8
0
100
AcDbLine
 62
7
  6
CONTINUOUS
 10
135.3837653693
 20
106.9470386613
 11
133.8500806747
 21
106.8434799853
  0
LINE
  5
265
100
AcDbEntity
  8
0
100
AcDbLine
 62
7
  6
CONTINUOUS
 10
133.8500806737
 20
107.6989473902
 11
135.3837653635
 21
107.7789215735
  0
LINE
  5
266
100
AcDbEntity
  8
0
100
AcDbLine
 62
7
  6
CONTINUOUS
 10
29.3172447652
 20
103.5434799814
 11
128.7829167068
 21
103.5434799814
  0
LINE
  5
267
100
AcDbEntity
  8
0
100
AcDbLine
 62
7
  6
CONTINUOUS
 10
129.7824840229
 20
104.5121203698
 11
28.3176774468
 21
104.5121203568
  0
LINE
  5
268
100
AcDbEntity
  8
0
100
AcDbLine
 62
7
  6
CONTINUOUS
 10
75.0035343722
 20
96.9457893511
 11
75.0035343726
 21
95.4434799815
  0
LINE
  5
269
100
AcDbEntity
  8
0
100
AcDbLine
 62
7
  6
CONTINUOUS
 10
75.2282839053
 20
143.3934799807
 11
75.2282839053
 21
143.1934799814
  0
LINE
  5
26A
100
AcDbEntity
  8
0
100
AcDbLine
 62
7
  6
CONTINUOUS
 10
75.4782839053
 20
143.393479981
 11
75.4782839053
 21
143.1934799814
  0
LINE
  5
26B
100
AcDbEntity
  8
0
100
AcDbLine
 62
7
  6
CONTINUOUS
 10
76.6517472255
 20
143.4934799821
 11
76.6517472255
 21
143.293479981
  0
LINE
  5
26C
100
AcDbEntity
  8
0
100
AcDbLine
 62
7
  6
CONTINUOUS
 10
77.0500806746
 20
143.4934799814
 11
77.0500806746
 21
143.293479981
  0
LINE
  5
26D
100
AcDbEntity
  8
0
100
AcDbLine
 62
7
  6
CONTINUOUS
 10
79.5805807174
 20
98.343479981
 11
79.5805807174
 21
103.5434799814
  0
LINE
  5
26E
100
AcDbEntity
  8
0
100
AcDbLine
 62
7
  6
CONTINUOUS
 10
136.1500806753
 20
107.5934799814
 11
135.8500806746
 21
107.5934799814
  0
LINE
  5
26F
100
AcDbEntity
  8
0
100
AcDbLine
 62
7
  6
CONTINUOUS
 10
136.1500806753
 20
107.6466714646
 11
135.8500806746
 21
107.6466714646
  0
LINE
  5
270
100
AcDbEntity
  8
0
100
AcDbLine
 62
7
  6
CONTINUOUS
 10
135.8500806746
 20
107.7789216295
 11
135.3837653634
 21
107.7789216295
  0
LINE
  5
271
100
AcDbEntity
  8
0
100
AcDbLine
 62
7
  6
CONTINUOUS
 10
136.1500806753
 20
107.8062459136
 11
135.8500806746
 21
107.8062459136
  0
LINE
  5
272
100
AcDbEntity
  8
0
100
AcDbLine
 62
7
  6
CONTINUOUS
 10
136.1500806753
 20
108.0190118454
 11
135.8500806746
 21
108.0190118454
  0
LINE
  5
273
100
AcDbEntity
  8
0
100
AcDbLine
 62
7
  6
CONTINUOUS
 10
136.1500806753
 20
108.1785862946
 11
135.8500806746
 21
108.1785862946
  0
LINE
  5
274
100
AcDbEntity
  8
0
100
AcDbLine
 62
7
  6
CONTINUOUS
 10
136.1500806753
 20
108.2317779274
 11
135.8500806746
 21
108.2317779274
  0
LINE
  5
275
100
AcDbEntity
  8
0
100
AcDbLine
 62
7
  6
CONTINUOUS
 10
136.1500806753
 20
108.3381608927
 11
135.8500806746
 21
108.3381608927
  0
LINE
  5
276
100
AcDbEntity
  8
0
100
AcDbLine
 62
7
  6
CONTINUOUS
 10
136.1500806753
 20
108.4977353414
 11
135.8500806746
 21
108.4977353414
  0
LINE
  5
277
100
AcDbEntity
  8
0
100
AcDbLine
 62
7
  6
CONTINUOUS
 10
136.1500806753
 20
108.604118308
 11
135.8500806746
 21
108.604118308
  0
LINE
  5
278
100
AcDbEntity
  8
0
100
AcDbLine
 62
7
  6
CONTINUOUS
 10
136.1500806753
 20
108.6573097908
 11
135.8500806746
 21
108.6573097908
  0
LINE
  5
279
100
AcDbEntity
  8
0
100
AcDbLine
 62
7
  6
CONTINUOUS
 10
136.1500806753
 20
108.710501274
 11
135.8500806746
 21
108.710501274
  0
LINE
  5
27A
100
AcDbEntity
  8
0
100
AcDbLine
 62
7
  6
CONTINUOUS
 10
136.1500806753
 20
108.8168842396
 11
135.8500806746
 21
108.8168842396
  0
LINE
  5
27B
100
AcDbEntity
  8
0
100
AcDbLine
 62
7
  6
CONTINUOUS
 10
136.1500806753
 20
109.0296501717
 11
135.8500806746
 21
109.0296501717
  0
LINE
  5
27C
100
AcDbEntity
  8
0
100
AcDbLine
 62
7
  6
CONTINUOUS
 10
136.1500806753
 20
109.2424161787
 11
135.8500806746
 21
109.2424161787
  0
LINE
  5
27D
100
AcDbEntity
  8
0
100
AcDbLine
 62
7
  6
CONTINUOUS
 10
136.1500806753
 20
109.5083735937
 11
135.8500806746
 21
109.5083735937
  0
LINE
  5
27E
100
AcDbEntity
  8
0
100
AcDbLine
 62
7
  6
CONTINUOUS
 10
136.1500806753
 20
109.7211395625
 11
135.8500806746
 21
109.7211395625
  0
LINE
  5
27F
100
AcDbEntity
  8
0
100
AcDbLine
 62
7
  6
CONTINUOUS
 10
136.1500806753
 20
109.9339055137
 11
135.8500806746
 21
109.9339055137
  0
LINE
  5
280
100
AcDbEntity
  8
0
100
AcDbLine
 62
7
  6
CONTINUOUS
 10
136.1500806753
 20
110.0402884951
 11
135.8500806746
 21
110.0402884951
  0
LINE
  5
281
100
AcDbEntity
  8
0
100
AcDbLine
 62
7
  6
CONTINUOUS
 10
136.1500806753
 20
110.0934799814
 11
135.8500806746
 21
110.0934799814
  0
LINE
  5
282
100
AcDbEntity
  8
0
100
AcDbLine
 62
7
  6
CONTINUOUS
 10
136.1500806753
 20
110.5934799814
 11
135.8500806746
 21
110.5934799814
  0
LINE
  5
283
100
AcDbEntity
  8
0
100
AcDbLine
 62
7
  6
CONTINUOUS
 10
136.1500806753
 20
110.6466714646
 11
135.8500806746
 21
110.6466714646
  0
LINE
  5
284
100
AcDbEntity
  8
0
100
AcDbLine
 62
7
  6
CONTINUOUS
 10
136.1500806753
 20
110.7530544301
 11
135.8500806746
 21
110.7530544301
  0
LINE
  5
285
100
AcDbEntity
  8
0
100
AcDbLine
 62
7
  6
CONTINUOUS
 10
133.8500806746
 20
110.8434799814
 11
130.0500806676
 21
110.8434799814
  0
LINE
  5
286
100
AcDbEntity
  8
0
100
AcDbLine
 62
7
  6
CONTINUOUS
 10
136.1500806753
 20
110.9658203625
 11
135.8500806746
 21
110.9658203625
  0
LINE
  5
287
100
AcDbEntity
  8
0
100
AcDbLine
 62
7
  6
CONTINUOUS
 10
136.1500806753
 20
111.1785862941
 11
135.8500806746
 21
111.1785862941
  0
LINE
  5
288
100
AcDbEntity
  8
0
100
AcDbLine
 62
7
  6
CONTINUOUS
 10
136.1500806753
 20
111.4445438591
 11
135.8500806746
 21
111.4445438591
  0
LINE
  5
289
100
AcDbEntity
  8
0
100
AcDbLine
 62
7
  6
CONTINUOUS
 10
88.364353756
 20
96.6279236051
 11
89.0603564493
 21
95.4434799814
  0
LINE
  5
28A
100
AcDbEntity
  8
0
100
AcDbLine
 62
7
  6
CONTINUOUS
 10
81.8087084805
 20
143.293479981
 11
81.8087084805
 21
143.1934799814
  0
LINE
  5
28B
100
AcDbEntity
  8
0
100
AcDbLine
 62
7
  6
CONTINUOUS
 10
82.3500806746
 20
143.1934799814
 11
82.3500806746
 21
143.293479981
  0
LINE
  5
28C
100
AcDbEntity
  8
0
100
AcDbLine
 62
7
  6
CONTINUOUS
 10
81.6795161612
 20
143.293479981
 11
81.6800610738
 21
143.7101813103
  0
LINE
  5
28D
100
AcDbEntity
  8
0
100
AcDbLine
 62
7
  6
CONTINUOUS
 10
136.1500806753
 20
112.2424161785
 11
135.8500806746
 21
112.2424161785
  0
LINE
  5
28E
100
AcDbEntity
  8
0
100
AcDbLine
 62
7
  6
CONTINUOUS
 10
136.1500806753
 20
112.5083735942
 11
135.8500806746
 21
112.5083735942
  0
LINE
  5
28F
100
AcDbEntity
  8
0
100
AcDbLine
 62
7
  6
CONTINUOUS
 10
136.1500806753
 20
112.7211395632
 11
135.8500806746
 21
112.7211395632
  0
LINE
  5
290
100
AcDbEntity
  8
0
100
AcDbLine
 62
7
  6
CONTINUOUS
 10
130.0500806671
 20
112.8434799814
 11
133.8500806746
 21
112.8434799814
  0
LINE
  5
291
100
AcDbEntity
  8
0
100
AcDbLine
 62
7
  6
CONTINUOUS
 10
136.1500806753
 20
112.9339055139
 11
135.8500806746
 21
112.9339055139
  0
LINE
  5
292
100
AcDbEntity
  8
0
100
AcDbLine
 62
7
  6
CONTINUOUS
 10
136.1500806753
 20
113.0402884927
 11
135.8500806746
 21
113.0402884927
  0
LINE
  5
293
100
AcDbEntity
  8
0
100
AcDbLine
 62
7
  6
CONTINUOUS
 10
130.0500807105
 20
113.0434799814
 11
28.0500806745
 21
113.0434799814
  0
LINE
  5
294
100
AcDbEntity
  8
0
100
AcDbLine
 62
7
  6
CONTINUOUS
 10
136.1500806753
 20
113.0934799813
 11
135.8500806746
 21
113.0934799813
  0
LINE
  5
295
100
AcDbEntity
  8
0
100
AcDbLine
 62
7
  6
CONTINUOUS
 10
136.1500806753
 20
113.5934799814
 11
135.8500806746
 21
113.5934799814
  0
LINE
  5
296
100
AcDbEntity
  8
0
100
AcDbLine
 62
7
  6
CONTINUOUS
 10
130.0326202893
 20
113.6934799814
 11
126.1329415128
 21
113.6934799814
  0
LINE
  5
297
100
AcDbEntity
  8
0
100
AcDbLine
 62
7
  6
CONTINUOUS
 10
28.0675410581
 20
113.6934799814
 11
126.1326202896
 21
113.6934799814
  0
LINE
  5
298
100
AcDbEntity
  8
0
100
AcDbLine
 62
7
  6
CONTINUOUS
 10
28.1159027174
 20
115.078376777
 11
33.8986008922
 21
115.0783794657
  0
LINE
  5
299
100
AcDbEntity
  8
0
100
AcDbLine
 62
7
  6
CONTINUOUS
 10
126.193464669
 20
115.0783794142
 11
124.199577196
 21
115.0783794784
  0
LINE
  5
29A
100
AcDbEntity
  8
0
100
AcDbLine
 62
7
  6
CONTINUOUS
 10
135.3837653634
 20
115.9204873184
 11
135.8500806746
 21
115.9204873184
  0
LINE
  5
29B
100
AcDbEntity
  8
0
100
AcDbLine
 62
7
  6
CONTINUOUS
 10
29.1152936417
 20
116.0434799814
 11
33.8984590572
 21
116.0434799814
  0
LINE
  5
29C
100
AcDbEntity
  8
0
100
AcDbLine
 62
7
  6
CONTINUOUS
 10
124.1995771963
 20
116.0434799814
 11
128.9933351367
 21
116.0434799814
  0
LINE
  5
29D
100
AcDbEntity
  8
0
100
AcDbLine
 62
7
  6
CONTINUOUS
 10
136.1500806753
 20
116.0934799814
 11
135.8500806746
 21
116.0934799814
  0
LINE
  5
29E
100
AcDbEntity
  8
0
100
AcDbLine
 62
7
  6
CONTINUOUS
 10
128.7500806746
 20
116.6723124608
 11
123.7500806746
 21
116.6723124605
  0
LINE
  5
29F
100
AcDbEntity
  8
0
100
AcDbLine
 62
7
  6
CONTINUOUS
 10
34.3500806746
 20
116.6723124608
 11
29.3500806746
 21
116.6723124605
  0
LINE
  5
2A0
100
AcDbEntity
  8
0
100
AcDbLine
 62
7
  6
CONTINUOUS
 10
88.5195806317
 20
103.5434799814
 11
88.5195806317
 21
98.343479981
  0
LINE
  5
2A1
100
AcDbEntity
  8
0
100
AcDbLine
 62
7
  6
CONTINUOUS
 10
87.2127762171
 20
153.6764652087
 11
87.2128538785
 21
154.1928849745
  0
LINE
  5
2A2
100
AcDbEntity
  8
0
100
AcDbLine
 62
7
  6
CONTINUOUS
 10
123.8614217864
 20
117.0104372704
 11
123.2012474278
 21
117.0104372704
  0
LINE
  5
2A3
100
AcDbEntity
  8
0
100
AcDbLine
 62
7
  6
CONTINUOUS
 10
128.9376516301
 20
117.0104392682
 11
128.638738905
 21
117.0104392681
  0
LINE
  5
2A4
100
AcDbEntity
  8
0
100
AcDbLine
 62
7
  6
CONTINUOUS
 10
34.8979765035
 20
117.0114542701
 11
34.2384047074
 21
117.0114542701
  0
LINE
  5
2A5
100
AcDbEntity
  8
0
100
AcDbLine
 62
7
  6
CONTINUOUS
 10
29.4617572714
 20
117.0114561825
 11
29.1828985597
 21
117.0114561825
  0
LINE
  5
2A6
100
AcDbEntity
  8
0
100
AcDbLine
 62
7
  6
CONTINUOUS
 10
33.42345328
 20
117.9269085048
 11
30.2767080691
 21
117.9269085048
  0
LINE
  5
2A7
100
AcDbEntity
  8
0
100
AcDbLine
 62
7
  6
CONTINUOUS
 10
127.82345328
 20
117.9269085048
 11
124.6767080691
 21
117.9269085048
  0
LINE
  5
2A8
100
AcDbEntity
  8
0
100
AcDbLine
 62
7
  6
CONTINUOUS
 10
127.0883066077
 20
118.2265206963
 11
128.9026368473
 21
118.2265206955
  0
LINE
  5
2A9
100
AcDbEntity
  8
0
100
AcDbLine
 62
7
  6
CONTINUOUS
 10
35.9672985894
 20
119.1934799821
 11
122.1296554539
 21
119.1934799809
  0
LINE
  5
2AA
100
AcDbEntity
  8
0
100
AcDbLine
 62
7
  6
CONTINUOUS
 10
127.0883065582
 20
119.1934799814
 11
128.9026367974
 21
119.1934799814
  0
LINE
  5
2AB
100
AcDbEntity
  8
0
100
AcDbLine
 62
7
  6
CONTINUOUS
 10
51.9500615657
 20
121.4769776893
 11
65.8382070794
 21
121.47697769
  0
LINE
  5
2AC
100
AcDbEntity
  8
0
100
AcDbLine
 62
7
  6
CONTINUOUS
 10
133.8500806746
 20
116.8434799854
 11
135.3837653693
 21
116.7399213093
  0
LINE
  5
2AD
100
AcDbEntity
  8
0
100
AcDbLine
 62
7
  6
CONTINUOUS
 10
135.3837653635
 20
115.9204873184
 11
133.8500806754
 21
116.0518612955
  0
LINE
  5
2AE
100
AcDbEntity
  8
0
100
AcDbLine
 62
7
  6
CONTINUOUS
 10
93.0966269769
 20
95.4434799815
 11
93.096626977
 21
96.9457893511
  0
LINE
  5
2AF
100
AcDbEntity
  8
0
100
AcDbLine
 62
7
  6
CONTINUOUS
 10
79.7358075938
 20
96.6279236046
 11
79.0398049003
 21
95.4434799807
  0
LINE
  5
2B0
100
AcDbEntity
  8
0
100
AcDbLine
 62
7
  6
CONTINUOUS
 10
125.0426042784
 20
143.4713737411
 11
125.041894064
 21
143.4707034684
  0
LINE
  5
2B1
100
AcDbEntity
  8
0
100
AcDbLine
 62
7
  6
CONTINUOUS
 10
65.0628309016
 20
122.4434799814
 11
52.9344842142
 21
122.4434799814
  0
LINE
  5
2B2
100
AcDbEntity
  8
0
100
AcDbLine
 62
7
  6
CONTINUOUS
 10
55.200080675
 20
122.9434799814
 11
58.1475806747
 21
122.9434799814
  0
LINE
  5
2B3
100
AcDbEntity
  8
0
100
AcDbLine
 62
7
  6
CONTINUOUS
 10
58.1525806737
 20
122.9434799814
 11
62.3850806755
 21
122.9434799814
  0
LINE
  5
2B4
100
AcDbEntity
  8
0
100
AcDbLine
 62
7
  6
CONTINUOUS
 10
62.4719263347
 20
122.9434799814
 11
62.9000806742
 21
122.9434799814
  0
LINE
  5
2B5
100
AcDbEntity
  8
0
100
AcDbLine
 62
7
  6
CONTINUOUS
 10
95.0948273836
 20
103.5434799814
 11
95.0948273836
 21
96.9457893511
  0
LINE
  5
2B6
100
AcDbEntity
  8
0
100
AcDbLine
 62
7
  6
CONTINUOUS
 10
99.3500806746
 20
143.4934799821
 11
99.3500806746
 21
143.1934799814
  0
LINE
  5
2B7
100
AcDbEntity
  8
0
100
AcDbLine
 62
7
  6
CONTINUOUS
 10
99.5500806746
 20
154.4934799821
 11
99.5500806746
 21
154.1934799814
  0
LINE
  5
2B8
100
AcDbEntity
  8
0
100
AcDbLine
 62
7
  6
CONTINUOUS
 10
100.2500806746
 20
143.1934799814
 11
100.2500806746
 21
143.4934799821
  0
LINE
  5
2B9
100
AcDbEntity
  8
0
100
AcDbLine
 62
7
  6
CONTINUOUS
 10
100.4500806746
 20
154.1934799814
 11
100.4500806746
 21
154.4934799821
  0
LINE
  5
2BA
100
AcDbEntity
  8
0
100
AcDbLine
 62
7
  6
CONTINUOUS
 10
100.7512903492
 20
143.1934799814
 11
100.7512903492
 21
143.293479981
  0
LINE
  5
2BB
100
AcDbEntity
  8
0
100
AcDbLine
 62
7
  6
CONTINUOUS
 10
100.9848493449
 20
154.1934799814
 11
100.9848493449
 21
154.293479981
  0
LINE
  5
2BC
100
AcDbEntity
  8
0
100
AcDbLine
 62
7
  6
CONTINUOUS
 10
101.6500806739
 20
143.4934799814
 11
101.6500806739
 21
143.293479981
  0
LINE
  5
2BD
100
AcDbEntity
  8
0
100
AcDbLine
 62
7
  6
CONTINUOUS
 10
102.0349881458
 20
103.5434799814
 11
102.0349881458
 21
96.9457893511
  0
LINE
  5
2BE
100
AcDbEntity
  8
0
100
AcDbLine
 62
7
  6
CONTINUOUS
 10
102.1500806746
 20
154.4934799821
 11
102.1500806746
 21
154.293479981
  0
LINE
  5
2BF
100
AcDbEntity
  8
0
100
AcDbLine
 62
7
  6
CONTINUOUS
 10
53.2811587281
 20
132.6010428599
 11
64.3326918628
 21
132.6010428599
  0
LINE
  5
2C0
100
AcDbEntity
  8
0
100
AcDbLine
 62
7
  6
CONTINUOUS
 10
29.7092881014
 20
132.6255037809
 11
35.3982859928
 21
132.6255077361
  0
LINE
  5
2C1
100
AcDbEntity
  8
0
100
AcDbLine
 62
7
  6
CONTINUOUS
 10
36.3977109498
 20
132.6269776891
 11
51.7811650508
 21
132.6269776896
  0
LINE
  5
2C2
100
AcDbEntity
  8
0
100
AcDbLine
 62
7
  6
CONTINUOUS
 10
63.4587530252
 20
133.5925317496
 11
54.641408324
 21
133.5925317496
  0
LINE
  5
2C3
100
AcDbEntity
  8
0
100
AcDbLine
 62
7
  6
CONTINUOUS
 10
28.7422431408
 20
133.5934799814
 11
64.3767590028
 21
133.5934799814
  0
LINE
  5
2C4
100
AcDbEntity
  8
0
100
AcDbLine
 62
7
  6
CONTINUOUS
 10
125.6234844516
 20
133.994210989
 11
128.1214478279
 21
133.994210989
  0
LINE
  5
2C5
100
AcDbEntity
  8
0
100
AcDbLine
 62
7
  6
CONTINUOUS
 10
29.7651381022
 20
134.2598213062
 11
35.396527284
 21
134.2598213062
  0
LINE
  5
2C6
100
AcDbEntity
  8
0
100
AcDbLine
 62
7
  6
CONTINUOUS
 10
65.376563978
 20
134.5712828004
 11
29.7748333132
 21
134.5712839754
  0
LINE
  5
2C7
100
AcDbEntity
  8
0
100
AcDbLine
 62
7
  6
CONTINUOUS
 10
125.5326817042
 20
136.6934799809
 11
128.1214478279
 21
136.6934799809
  0
LINE
  5
2C8
100
AcDbEntity
  8
0
100
AcDbLine
 62
7
  6
CONTINUOUS
 10
107.1500806746
 20
154.4934799821
 11
107.1500806746
 21
154.293479981
  0
LINE
  5
2C9
100
AcDbEntity
  8
0
100
AcDbLine
 62
7
  6
CONTINUOUS
 10
107.5000806746
 20
154.4934799814
 11
107.5000806746
 21
154.293479981
  0
LINE
  5
2CA
100
AcDbEntity
  8
0
100
AcDbLine
 62
7
  6
CONTINUOUS
 10
111.850080675
 20
143.4934799814
 11
111.850080675
 21
143.2934799814
  0
LINE
  5
2CB
100
AcDbEntity
  8
0
100
AcDbLine
 62
7
  6
CONTINUOUS
 10
112.300080675
 20
143.4934799814
 11
112.300080675
 21
143.293479981
  0
LINE
  5
2CC
100
AcDbEntity
  8
0
100
AcDbLine
 62
7
  6
CONTINUOUS
 10
113.2521225008
 20
143.293479981
 11
113.2521225008
 21
143.1934799814
  0
LINE
  5
2CD
100
AcDbEntity
  8
0
100
AcDbLine
 62
7
  6
CONTINUOUS
 10
113.4145222279
 20
154.293479981
 11
113.4145222279
 21
154.1934799814
  0
LINE
  5
2CE
100
AcDbEntity
  8
0
100
AcDbLine
 62
7
  6
CONTINUOUS
 10
113.7500806746
 20
143.1934799814
 11
113.7500806746
 21
143.293479981
  0
LINE
  5
2CF
100
AcDbEntity
  8
0
100
AcDbLine
 62
7
  6
CONTINUOUS
 10
113.9500806746
 20
154.1934799814
 11
113.9500806746
 21
154.293479981
  0
LINE
  5
2D0
100
AcDbEntity
  8
0
100
AcDbLine
 62
7
  6
CONTINUOUS
 10
114.1285371182
 20
153.679260636
 11
114.1286141152
 21
154.1940746556
  0
LINE
  5
2D1
100
AcDbEntity
  8
0
100
AcDbLine
 62
7
  6
CONTINUOUS
 10
30.0310467105
 20
142.2156759866
 11
65.546271017
 21
142.215675031
  0
LINE
  5
2D2
100
AcDbEntity
  8
0
100
AcDbLine
 62
7
  6
CONTINUOUS
 10
122.3675823075
 20
142.2265249979
 11
124.7367117285
 21
142.2265249979
  0
LINE
  5
2D3
100
AcDbEntity
  8
0
100
AcDbLine
 62
7
  6
CONTINUOUS
 10
66.3460824976
 20
142.2269776888
 11
121.3681963775
 21
142.2269776884
  0
LINE
  5
2D4
100
AcDbEntity
  8
0
100
AcDbLine
 62
7
  6
CONTINUOUS
 10
30.0310467106
 20
143.1934799814
 11
124.3471011415
 21
143.1934799814
  0
LINE
  5
2D5
100
AcDbEntity
  8
0
100
AcDbLine
 62
7
  6
CONTINUOUS
 10
52.3500806746
 20
143.2934799814
 11
69.0500806746
 21
143.293479981
  0
LINE
  5
2D6
100
AcDbEntity
  8
0
100
AcDbLine
 62
7
  6
CONTINUOUS
 10
75.4782839053
 20
143.293479981
 11
82.3500806746
 21
143.2934799814
  0
LINE
  5
2D7
100
AcDbEntity
  8
0
100
AcDbLine
 62
7
  6
CONTINUOUS
 10
100.2500806746
 20
143.2934799814
 11
113.7500806746
 21
143.2934799814
  0
LINE
  5
2D8
100
AcDbEntity
  8
0
100
AcDbLine
 62
7
  6
CONTINUOUS
 10
69.0500806746
 20
143.3934799814
 11
75.4779624643
 21
143.3934799814
  0
LINE
  5
2D9
100
AcDbEntity
  8
0
100
AcDbLine
 62
7
  6
CONTINUOUS
 10
51.4500806746
 20
143.4934799814
 11
77.0497664718
 21
143.4934799814
  0
LINE
  5
2DA
100
AcDbEntity
  8
0
100
AcDbLine
 62
7
  6
CONTINUOUS
 10
99.3500806746
 20
143.4934799814
 11
112.2994375648
 21
143.4934799814
  0
LINE
  5
2DB
100
AcDbEntity
  8
0
100
AcDbLine
 62
7
  6
CONTINUOUS
 10
81.6800461055
 20
143.7136375957
 11
123.8848581061
 21
143.7048638123
  0
LINE
  5
2DC
100
AcDbEntity
  8
0
100
AcDbLine
 62
7
  6
CONTINUOUS
 10
121.3681963775
 20
142.2269776884
 11
122.2027985236
 21
116.9823572451
  0
LINE
  5
2DD
100
AcDbEntity
  8
0
100
AcDbLine
 62
7
  6
CONTINUOUS
 10
122.3676503829
 20
142.2265207018
 11
123.2012629921
 21
117.0104392622
  0
LINE
  5
2DE
100
AcDbEntity
  8
0
100
AcDbLine
 62
7
  6
CONTINUOUS
 10
121.3681963758
 20
143.1934799814
 11
121.3681963758
 21
142.2269776886
  0
LINE
  5
2DF
100
AcDbEntity
  8
0
100
AcDbLine
 62
7
  6
CONTINUOUS
 10
122.0651732034
 20
103.5434799814
 11
122.0651732034
 21
96.9457893511
  0
LINE
  5
2E0
100
AcDbEntity
  8
0
100
AcDbLine
 62
7
  6
CONTINUOUS
 10
123.7500806746
 20
116.6722796298
 11
123.7500806746
 21
116.150772395
  0
LINE
  5
2E1
100
AcDbEntity
  8
0
100
AcDbLine
 62
7
  6
CONTINUOUS
 10
124.1995771969
 20
115.0783794463
 11
124.1995771969
 21
116.0434799814
  0
LINE
  5
2E2
100
AcDbEntity
  8
0
100
AcDbLine
 62
7
  6
CONTINUOUS
 10
114.1285312223
 20
153.6833872402
 11
87.2128230237
 21
153.6723305607
  0
LINE
  5
2E3
100
AcDbEntity
  8
0
100
AcDbLine
 62
7
  6
CONTINUOUS
 10
114.1286141413
 20
154.1934799814
 11
87.2128951321
 21
154.1934799814
  0
LINE
  5
2E4
100
AcDbEntity
  8
0
100
AcDbLine
 62
7
  6
CONTINUOUS
 10
100.4500806746
 20
154.2934799814
 11
113.9500806746
 21
154.2934799814
  0
LINE
  5
2E5
100
AcDbEntity
  8
0
100
AcDbLine
 62
7
  6
CONTINUOUS
 10
99.5500806746
 20
154.4934799814
 11
107.4995804778
 21
154.4934799814
  0
LINE
  5
2E6
100
AcDbEntity
  8
0
100
AcDbLine
 62
7
  6
CONTINUOUS
 10
124.3470297358
 20
143.1930784136
 11
124.3375539073
 21
143.3255246173
  0
LINE
  5
2E7
100
AcDbEntity
  8
0
100
AcDbLine
 62
7
  6
CONTINUOUS
 10
124.3375539073
 20
143.3255246173
 11
124.3267531281
 21
143.4825468004
  0
LWPOLYLINE
  5
2E8
100
AcDbEntity
  8
0
100
AcDbPolyline
 62
7
  6
CONTINUOUS
 90
5
 70
0
 10
125.3463098897
 20
142.2271167116
 10
125.3430653229
 20
142.28213808
 10
125.339620023
 20
142.3170194943
 10
125.3325242104
 20
142.3672919063
 10
125.3229232698
 20
142.4165501967
  0
LINE
  5
2E9
100
AcDbEntity
  8
0
100
AcDbLine
 62
7
  6
CONTINUOUS
 10
128.9933091412
 20
116.0434799809
 11
128.93762522
 21
117.0104377482
  0
LINE
  5
2EA
100
AcDbEntity
  8
0
100
AcDbLine
 62
7
  6
CONTINUOUS
 10
125.3270126234
 20
142.8052812942
 11
126.0888720345
 21
120.1598592928
  0
LINE
  5
2EB
100
AcDbEntity
  8
0
100
AcDbLine
 62
7
  6
CONTINUOUS
 10
128.9376516301
 20
117.0104392682
 11
128.9026368473
 21
118.2265206955
  0
LINE
  5
2EC
100
AcDbEntity
  8
0
100
AcDbLine
 62
7
  6
CONTINUOUS
 10
126.1500806752
 20
113.6934799818
 11
126.1518362303
 21
104.5121222249
  0
LINE
  5
2ED
100
AcDbEntity
  8
0
100
AcDbLine
 62
7
  6
CONTINUOUS
 10
126.1518362303
 20
103.5434799814
 11
126.1518362303
 21
104.5121222249
  0
LINE
  5
2EE
100
AcDbEntity
  8
0
100
AcDbLine
 62
7
  6
CONTINUOUS
 10
126.1934647028
 20
115.0783794463
 11
126.1934632046
 21
116.0434799814
  0
LINE
  5
2EF
100
AcDbEntity
  8
0
100
AcDbLine
 62
7
  6
CONTINUOUS
 10
126.2500800354
 20
118.1634799814
 11
126.2500800376
 21
118.4106527602
  0
LINE
  5
2F0
100
AcDbEntity
  8
0
100
AcDbLine
 62
7
  6
CONTINUOUS
 10
127.088306608
 20
118.2265206959
 11
127.0883065581
 21
119.1934799814
  0
LINE
  5
2F1
100
AcDbEntity
  8
0
100
AcDbLine
 62
7
  6
CONTINUOUS
 10
128.1214478279
 20
136.6934799809
 11
128.1214478279
 21
133.994210989
  0
LINE
  5
2F2
100
AcDbEntity
  8
0
100
AcDbLine
 62
7
  6
CONTINUOUS
 10
128.7500806746
 20
116.6722796298
 11
128.7500806746
 21
116.0434799814
  0
LINE
  5
2F3
100
AcDbEntity
  8
0
100
AcDbLine
 62
7
  6
CONTINUOUS
 10
128.9026367974
 20
119.1934799814
 11
128.9026368473
 21
118.2265206959
  0
LINE
  5
2F4
100
AcDbEntity
  8
0
100
AcDbLine
 62
7
  6
CONTINUOUS
 10
129.7500806739
 20
113.0434799814
 11
129.7500806739
 21
113.6934799818
  0
LINE
  5
2F5
100
AcDbEntity
  8
0
100
AcDbLine
 62
7
  6
CONTINUOUS
 10
126.1326202896
 20
113.6934799814
 11
126.193464669
 21
115.0783794142
  0
LINE
  5
2F6
100
AcDbEntity
  8
0
100
AcDbLine
 62
7
  6
CONTINUOUS
 10
124.3267531281
 20
143.4825468004
 11
123.8848531048
 21
143.7083146709
  0
LINE
  5
2F7
100
AcDbEntity
  8
0
100
AcDbLine
 62
7
  6
CONTINUOUS
 10
129.9022225329
 20
118.2222611779
 11
130.0326202896
 21
113.6934799814
  0
LINE
  5
2F8
100
AcDbEntity
  8
0
100
AcDbLine
 62
7
  6
CONTINUOUS
 10
130.0500806676
 20
110.8434799814
 11
130.0500806676
 21
112.8434799814
  0
LINE
  5
2F9
100
AcDbEntity
  8
0
100
AcDbLine
 62
7
  6
CONTINUOUS
 10
133.8500806746
 20
106.8434799854
 11
133.8500806746
 21
116.8434799855
  0
LINE
  5
2FA
100
AcDbEntity
  8
0
100
AcDbLine
 62
7
  6
CONTINUOUS
 10
133.9034279435
 20
96.9457893511
 11
133.9034279454
 21
95.4434799815
  0
LINE
  5
2FB
100
AcDbEntity
  8
0
100
AcDbLine
 62
7
  6
CONTINUOUS
 10
130.0500807105
 20
113.0434799798
 11
129.7824249029
 21
104.5121222317
  0
LINE
  5
2FC
100
AcDbEntity
  8
0
100
AcDbLine
 62
7
  6
CONTINUOUS
 10
114.8437237837
 20
153.8933293456
 11
125.041894064
 21
143.4707034684
  0
LINE
  5
2FD
100
AcDbEntity
  8
0
100
AcDbLine
 62
7
  6
CONTINUOUS
 10
125.0426042784
 20
143.4713737411
 11
124.6009262418
 21
143.9227741104
  0
LINE
  5
2FE
100
AcDbEntity
  8
0
100
AcDbLine
 62
7
  6
CONTINUOUS
 10
114.1285312223
 20
153.6833872402
 11
123.8848581061
 21
143.7048638123
  0
LINE
  5
2FF
100
AcDbEntity
  8
0
100
AcDbLine
 62
7
  6
CONTINUOUS
 10
125.2073201398
 20
142.703902741
 11
125.1620099141
 21
142.7731149918
  0
LWPOLYLINE
  5
300
100
AcDbEntity
  8
0
100
AcDbPolyline
 62
7
  6
CONTINUOUS
 90
3
 70
0
 10
125.2840069526
 20
142.5459295048
 10
125.250325762
 20
142.6241080616
 10
125.2073201398
 20
142.703902741
  0
LINE
  5
301
100
AcDbEntity
  8
0
100
AcDbLine
 62
7
  6
CONTINUOUS
 10
125.308091087
 20
142.4742621495
 11
125.2840069526
 21
142.5459295048
  0
LINE
  5
302
100
AcDbEntity
  8
0
100
AcDbLine
 62
7
  6
CONTINUOUS
 10
125.3229232698
 20
142.4165501967
 11
125.308091087
 21
142.4742621495
  0
LINE
  5
303
100
AcDbEntity
  8
0
100
AcDbLine
 62
7
  6
CONTINUOUS
 10
135.3837653635
 20
115.9204873184
 11
135.3837653635
 21
107.7789215735
  0
LINE
  5
304
100
AcDbEntity
  8
0
100
AcDbLine
 62
7
  6
CONTINUOUS
 10
135.8500806746
 20
107.4459027132
 11
135.8500806746
 21
116.2410572623
  0
LINE
  5
305
100
AcDbEntity
  8
0
100
AcDbLine
 62
7
  6
CONTINUOUS
 10
136.1500806746
 20
107.5934799814
 11
136.1500806746
 21
110.0934799814
  0
LINE
  5
306
100
AcDbEntity
  8
0
100
AcDbLine
 62
7
  6
CONTINUOUS
 10
136.1500806746
 20
110.5934799814
 11
136.1500806746
 21
113.0934799814
  0
LINE
  5
307
100
AcDbEntity
  8
0
100
AcDbLine
 62
7
  6
CONTINUOUS
 10
136.1500806753
 20
113.5934799814
 11
136.1500806753
 21
116.0934799814
  0
LINE
  5
308
100
AcDbEntity
  8
0
100
AcDbLine
 62
7
  6
CONTINUOUS
 10
144.4500532392
 20
87.5434799809
 11
144.504581491
 21
77.9734799814
  0
LINE
  5
309
100
AcDbEntity
  8
0
100
AcDbLine
 62
7
  6
CONTINUOUS
 10
144.5033396434
 20
95.4434799813
 11
144.4500532392
 21
87.5434799809
  0
LINE
  5
30A
100
AcDbEntity
  8
0
100
AcDbLine
 62
7
  6
CONTINUOUS
 10
137.4173781882
 20
96.6279236044
 11
136.9005612753
 21
95.4434799816
  0
LINE
  5
30B
100
AcDbEntity
  8
0
100
AcDbLine
 62
7
  6
CONTINUOUS
 10
148.4910576097
 20
95.4434799818
 11
148.7500806738
 21
87.5434799821
  0
LINE
  5
30C
100
AcDbEntity
  8
0
100
AcDbLine
 62
7
  6
CONTINUOUS
 10
148.7500806738
 20
87.5434799821
 11
148.5045814909
 21
77.9734799814
  0
LINE
  5
30D
100
AcDbEntity
  8
0
100
AcDbLine
 62
7
  6
CONTINUOUS
 10
144.547212797
 20
95.443479981
 11
145.0640297107
 21
96.6279236044
  0
LINE
  5
30E
100
AcDbEntity
  8
0
100
AcDbLine
 62
7
  6
CONTINUOUS
 10
145.7886672834
 20
95.4434799811
 11
146.5195567712
 21
96.6279236044
  0
ARC
  5
30F
100
AcDbEntity
  8
0
100
AcDbCircle
 62
7
  6
CONTINUOUS
 10
31.8500806746
 20
112.8131574008
 40
5.3503225806
100
AcDbArc
 50
72.8982021964
 51
107.1017978036
  0
ARC
  5
310
100
AcDbEntity
  8
0
100
AcDbCircle
 62
7
  6
CONTINUOUS
 10
33.0373998941
 20
116.6722796298
 40
1.3126807809
100
AcDbArc
 50
0.0
 51
72.8981745824
  0
ARC
  5
311
100
AcDbEntity
  8
0
100
AcDbCircle
 62
7
  6
CONTINUOUS
 10
30.662761455
 20
116.6722796298
 40
1.3126807809
100
AcDbArc
 50
107.1018254176
 51
180.0
  0
ARC
  5
312
100
AcDbEntity
  8
0
100
AcDbCircle
 62
7
  6
CONTINUOUS
 10
29.3172447648
 20
104.5434799814
 40
1.0
100
AcDbArc
 50
181.7969616786
 51
269.9999999714
  0
ARC
  5
313
100
AcDbEntity
  8
0
100
AcDbCircle
 62
7
  6
CONTINUOUS
 10
33.8984590568
 20
117.0434799814
 40
1.0
100
AcDbArc
 50
270.000000067
 51
358.1648029237
  0
ARC
  5
314
100
AcDbEntity
  8
0
100
AcDbCircle
 62
7
  6
CONTINUOUS
 10
29.1152936417
 20
115.0434799814
 40
1.0
100
AcDbArc
 50
90.0
 51
178.0000004416
  0
ARC
  5
315
100
AcDbEntity
  8
0
100
AcDbCircle
 62
7
  6
CONTINUOUS
 10
21.7579711354
 20
96.737371914
 40
0.2084174371
100
AcDbArc
 50
90.0
 51
211.6776608382
  0
ARC
  5
316
100
AcDbEntity
  8
0
100
AcDbCircle
 62
7
  6
CONTINUOUS
 10
30.0310467106
 20
142.1934799814
 40
1.0
100
AcDbArc
 50
90.0
 51
178.0803636105
  0
ARC
  5
317
100
AcDbEntity
  8
0
100
AcDbCircle
 62
7
  6
CONTINUOUS
 10
66.5459830424
 20
142.1934799814
 40
1.0
100
AcDbArc
 50
90.0
 51
178.7281582542
  0
ARC
  5
318
100
AcDbEntity
  8
0
100
AcDbCircle
 62
7
  6
CONTINUOUS
 10
51.7811650514
 20
132.5934799814
 40
1.0
100
AcDbArc
 50
0.8678305092
 51
89.9999999984
  0
ARC
  5
319
100
AcDbEntity
  8
0
100
AcDbCircle
 62
7
  6
CONTINUOUS
 10
79.9300822629
 20
144.1934799814
 40
1.0
100
AcDbArc
 50
294.5983366217
 51
330.9678165895
  0
ARC
  5
31A
100
AcDbEntity
  8
0
100
AcDbCircle
 62
7
  6
CONTINUOUS
 10
64.3767590027
 20
134.5934799814
 40
1.0
100
AcDbArc
 50
270.0
 51
358.7281582371
  0
ARC
  5
31B
100
AcDbEntity
  8
0
100
AcDbCircle
 62
7
  6
CONTINUOUS
 10
66.3173248085
 20
132.5934799814
 40
1.0
100
AcDbArc
 50
168.6204997128
 51
178.5654757984
  0
ARC
  5
31C
100
AcDbEntity
  8
0
100
AcDbCircle
 62
7
  6
CONTINUOUS
 10
36.3977729762
 20
132.5934799814
 40
1.0
100
AcDbArc
 50
90.0035591833
 51
178.1647448281
  0
ARC
  5
31D
100
AcDbEntity
  8
0
100
AcDbCircle
 62
7
  6
CONTINUOUS
 10
126.2500806746
 20
112.8131574008
 40
5.3503225806
100
AcDbArc
 50
72.8982021964
 51
107.1017978036
  0
ARC
  5
31E
100
AcDbEntity
  8
0
100
AcDbCircle
 62
7
  6
CONTINUOUS
 10
127.0897731023
 20
120.2364021142
 40
2.0098908578
100
AcDbArc
 50
253.5204803309
 51
269.9581947663
  0
ARC
  5
31F
100
AcDbEntity
  8
0
100
AcDbCircle
 62
7
  6
CONTINUOUS
 10
127.0894735416
 20
120.2297964379
 40
2.0034721859
100
AcDbArc
 50
245.230345165
 51
253.4751065232
  0
ARC
  5
320
100
AcDbEntity
  8
0
100
AcDbCircle
 62
7
  6
CONTINUOUS
 10
125.062761455
 20
116.6722796298
 40
1.3126807809
100
AcDbArc
 50
107.1018254176
 51
180.0
  0
ARC
  5
321
100
AcDbEntity
  8
0
100
AcDbCircle
 62
7
  6
CONTINUOUS
 10
127.4373998941
 20
116.6722796298
 40
1.3126807809
100
AcDbArc
 50
0.0
 51
72.8981745824
  0
ARC
  5
322
100
AcDbEntity
  8
0
100
AcDbCircle
 62
7
  6
CONTINUOUS
 10
128.7822782351
 20
104.5441966572
 40
1.0007136767
100
AcDbArc
 50
270.0365547147
 51
358.1631698149
  0
ARC
  5
323
100
AcDbEntity
  8
0
100
AcDbCircle
 62
7
  6
CONTINUOUS
 10
128.9026367974
 20
118.1934799814
 40
1.0
100
AcDbArc
 50
1.6492687893
 51
90.0
  0
ARC
  5
324
100
AcDbEntity
  8
0
100
AcDbCircle
 62
7
  6
CONTINUOUS
 10
128.9933351367
 20
115.0434799814
 40
1.0
100
AcDbArc
 50
1.6492687893
 51
90.0
  0
ARC
  5
325
100
AcDbEntity
  8
0
100
AcDbCircle
 62
7
  6
CONTINUOUS
 10
124.2007169986
 20
117.0434799814
 40
1.0
100
AcDbArc
 50
181.8934384222
 51
270.0000000426
  0
ARC
  5
326
100
AcDbEntity
  8
0
100
AcDbCircle
 62
7
  6
CONTINUOUS
 10
127.088306631
 20
120.1934799814
 40
1.0
100
AcDbArc
 50
181.9266867807
 51
270.0000002007
  0
ARC
  5
327
100
AcDbEntity
  8
0
100
AcDbCircle
 62
7
  6
CONTINUOUS
 10
135.3500806746
 20
107.4459027045
 40
0.5
100
AcDbArc
 50
273.8629075014
 51
360.0
  0
ARC
  5
328
100
AcDbEntity
  8
0
100
AcDbCircle
 62
7
  6
CONTINUOUS
 10
135.3500806746
 20
116.2410572505
 40
0.5
100
AcDbArc
 50
0.0
 51
86.1370924986
  0
ARC
  5
329
100
AcDbEntity
  8
0
100
AcDbCircle
 62
7
  6
CONTINUOUS
 10
146.3421902142
 20
96.737371914
 40
0.2084174371
100
AcDbArc
 50
328.3223390997
 51
90.0
  0
ARC
  5
32A
100
AcDbEntity
  8
0
100
AcDbCircle
 62
7
  6
CONTINUOUS
 10
114.1314814232
 20
153.1934153082
 40
1.0000646466
100
AcDbArc
 50
44.3745569092
 51
89.9984413741
  0
ARC
  5
32B
100
AcDbEntity
  8
0
100
AcDbCircle
 62
7
  6
CONTINUOUS
 10
124.3275296427
 20
142.7716399304
 40
1.0000489673
100
AcDbArc
 50
1.9277767178
 51
44.3797744531
  0
ARC
  5
32C
100
AcDbEntity
  8
0
100
AcDbCircle
 62
7
  6
CONTINUOUS
 10
114.1286042465
 20
153.1934799814
 40
1.0
100
AcDbArc
 50
44.3817001692
 51
89.9994331311
  0
ARC
  5
32D
100
AcDbEntity
  8
0
100
AcDbCircle
 62
7
  6
CONTINUOUS
 10
121.3681284425
 20
142.1934799814
 40
1.0
100
AcDbArc
 50
1.8933097271
 51
89.9980523519
  0
ARC
  5
32E
100
AcDbEntity
  8
0
100
AcDbCircle
 62
7
  6
CONTINUOUS
 10
124.3471011425
 20
142.1934799814
 40
1.0
100
AcDbArc
 50
1.926686649
 51
90.0000000339
  0
ARC
  5
32F
100
AcDbEntity
  8
0
100
AcDbCircle
 62
7
  6
CONTINUOUS
 10
87.2128949504
 20
153.1934799814
 40
1.0
100
AcDbArc
 50
89.9999999999
 51
150.9678165894
  0
ARC
  5
330
100
AcDbEntity
  8
0
100
AcDbCircle
 62
7
  6
CONTINUOUS
 10
124.7989905388
 20
142.7876389341
 40
0.528316737
100
AcDbArc
 50
1.9136648145
 51
5.0464372858
  0
SPLINE
  5
331
100
AcDbEntity
  8
0
100
AcDbSpline
 62
7
  6
CONTINUOUS
 70
0
 71
3
 72
22
 73
18
 74
0
 42
0.0000001
 43
0.0000001
 44
0.0000000001
 40
0.0
 40
0.0
 40
0.0
 40
0.0
 40
0.0020162569
 40
0.0060402901
 40
0.0123508776
 40
0.0209842556
 40
0.0451727822
 40
0.0783976994
 40
0.1203688977
 40
0.1707062579
 40
0.2289803919
 40
0.2946466242
 40
0.3670940859
 40
0.4456276327
 40
0.6178969503
 40
0.804992189
 40
1.0
 40
1.0
 40
1.0
 40
1.0
 10
135.3837523196
 20
106.9470377825
 30
0.0
 10
135.3843109866
 20
106.9470754996
 30
0.0
 10
135.3854859702
 20
106.9486958473
 30
0.0
 10
135.3863847672
 20
106.9518286704
 30
0.0
 10
135.3874954681
 20
106.9570731758
 30
0.0
 10
135.3889313375
 20
106.9677997984
 30
0.0
 10
135.3904571676
 20
106.986121603
 30
0.0
 10
135.391879874
 20
107.0136695987
 30
0.0
 10
135.3930236344
 20
107.0485211537
 30
0.0
 10
135.3938543953
 20
107.0903299408
 30
0.0
 10
135.3943531557
 20
107.138727744
 30
0.0
 10
135.3945104624
 20
107.1932669103
 30
0.0
 10
135.394319579
 20
107.2534325296
 30
0.0
 10
135.3935800156
 20
107.3432002416
 30
0.0
 10
135.3917735792
 20
107.4647977619
 30
0.0
 10
135.3884451552
 20
107.6187184933
 30
0.0
 10
135.3854716864
 20
107.7247924523
 30
0.0
 10
135.3837523149
 20
107.7789211566
 30
0.0
  0
SPLINE
  5
332
100
AcDbEntity
  8
0
100
AcDbSpline
 62
7
  6
CONTINUOUS
 70
0
 71
3
 72
22
 73
18
 74
0
 42
0.0000001
 43
0.0000001
 44
0.0000000001
 40
0.0
 40
0.0
 40
0.0
 40
0.0
 40
0.195108012
 40
0.3816562888
 40
0.5532624164
 40
0.703741264
 40
0.7691893225
 40
0.8272745626
 40
0.8775381602
 40
0.9195326697
 40
0.952840739
 40
0.9661556629
 40
0.9772223626
 40
0.9860389539
 40
0.9926333172
 40
0.9971251417
 40
1.0
 40
1.0
 40
1.0
 40
1.0
 10
135.383765839
 20
115.920487293
 30
0.0
 10
135.3866048511
 20
115.9739018915
 30
0.0
 10
135.3914926167
 20
116.0784237558
 30
0.0
 10
135.3969553615
 20
116.2300083065
 30
0.0
 10
135.4003782108
 20
116.3694141814
 30
0.0
 10
135.4015059155
 20
116.4756583983
 30
0.0
 10
135.4011488857
 20
116.5507811238
 30
0.0
 10
135.4003282664
 20
116.5984228336
 30
0.0
 10
135.3989726338
 20
116.6396207342
 30
0.0
 10
135.3971019487
 20
116.6739968286
 30
0.0
 10
135.3950321696
 20
116.6982123215
 30
0.0
 10
135.3930053524
 20
116.7139008558
 30
0.0
 10
135.3914750941
 20
116.7228759631
 30
0.0
 10
135.3898670435
 20
116.7299599199
 30
0.0
 10
135.388097521
 20
116.7351424098
 30
0.0
 10
135.3863683081
 20
116.7385602897
 30
0.0
 10
135.3845520534
 20
116.7398681818
 30
0.0
 10
135.3837656855
 20
116.7399212873
 30
0.0
  0
SPLINE
  5
333
100
AcDbEntity
  8
0
100
AcDbSpline
 62
7
  6
CONTINUOUS
 70
0
 71
3
 72
11
 73
7
 74
0
 42
0.0000001
 43
0.0000001
 44
0.0000000001
 40
0.0
 40
0.0
 40
0.0
 40
0.0
 40
0.2092861027
 40
0.4445967586
 40
0.7123469924
 40
1.0
 40
1.0
 40
1.0
 40
1.0
 10
144.9386138262
 20
96.9457893454
 30
0.0
 10
144.9581229156
 20
96.9457879141
 30
0.0
 10
145.0000033108
 20
96.9329996644
 30
0.0
 10
145.0482157399
 20
96.8845936023
 30
0.0
 10
145.0788613195
 20
96.8162465349
 30
0.0
 10
145.0859872093
 20
96.7641861562
 30
0.0
 10
145.0859872093
 20
96.737371914
 30
0.0
  0
SPLINE
  5
334
100
AcDbEntity
  8
0
100
AcDbSpline
 62
7
  6
CONTINUOUS
 70
0
 71
3
 72
11
 73
7
 74
0
 42
0.0000001
 43
0.0000001
 44
0.0000000001
 40
0.0
 40
0.0
 40
0.0
 40
0.0
 40
0.2094086664
 40
0.44451361
 40
0.7126169751
 40
1.0
 40
1.0
 40
1.0
 40
1.0
 10
30.808200265
 20
96.9457777225
 30
0.0
 10
30.7886793592
 20
96.9457441948
 30
0.0
 10
30.7467505594
 20
96.9331398318
 30
0.0
 10
30.698651927
 20
96.8845191052
 30
0.0
 10
30.6679819317
 20
96.8162394441
 30
0.0
 10
30.6608268724
 20
96.7641615657
 30
0.0
 10
30.6608268724
 20
96.737371914
 30
0.0
  0
SPLINE
  5
335
100
AcDbEntity
  8
0
100
AcDbSpline
 62
7
  6
CONTINUOUS
 70
0
 71
3
 72
11
 73
7
 74
0
 42
0.0000001
 43
0.0000001
 44
0.0000000001
 40
0.0
 40
0.0
 40
0.0
 40
0.0
 40
0.287383025
 40
0.5554863901
 40
0.7905913337
 40
1.0
 40
1.0
 40
1.0
 40
1.0
 10
23.0141741398
 20
96.737371914
 30
0.0
 10
23.0141741398
 20
96.7641615657
 30
0.0
 10
23.0213291991
 20
96.8162394442
 30
0.0
 10
23.0519991945
 20
96.8845191055
 30
0.0
 10
23.1000978271
 20
96.933139832
 30
0.0
 10
23.142026627
 20
96.9457441948
 30
0.0
 10
23.1615475328
 20
96.9457777225
 30
0.0
  0
SPLINE
  5
336
100
AcDbEntity
  8
0
100
AcDbSpline
 62
7
  6
CONTINUOUS
 70
0
 71
3
 72
9
 73
5
 74
0
 42
0.0000001
 43
0.0000001
 44
0.0000000001
 40
0.0
 40
0.0
 40
0.0
 40
0.0
 40
0.4911661552
 40
1.0
 40
1.0
 40
1.0
 40
1.0
 10
79.5669071041
 20
96.9458123054
 30
0.0
 10
79.617898968
 20
96.945781249
 30
0.0
 10
79.7253373083
 20
96.8988267445
 30
0.0
 10
79.765376354
 20
96.7901980111
 30
0.0
 10
79.765376354
 20
96.737371914
 30
0.0
  0
SPLINE
  5
337
100
AcDbEntity
  8
0
100
AcDbSpline
 62
7
  6
CONTINUOUS
 70
0
 71
3
 72
9
 73
5
 74
0
 42
0.0000001
 43
0.0000001
 44
0.0000000001
 40
0.0
 40
0.0
 40
0.0
 40
0.0
 40
0.2425148437
 40
1.0
 40
1.0
 40
1.0
 40
1.0
 10
23.0361304274
 20
96.6279236046
 30
0.0
 10
23.0325071792
 20
96.6362273832
 30
0.0
 10
23.0195417929
 20
96.6713117399
 30
0.0
 10
23.0141741398
 20
96.7090738815
 30
0.0
 10
23.0141741398
 20
96.737371914
 30
0.0
  0
SPLINE
  5
338
100
AcDbEntity
  8
0
100
AcDbSpline
 62
7
  6
CONTINUOUS
 70
0
 71
3
 72
9
 73
5
 74
0
 42
0.0000001
 43
0.0000001
 44
0.0000000001
 40
0.0
 40
0.0
 40
0.0
 40
0.0
 40
0.2565304723
 40
1.0
 40
1.0
 40
1.0
 40
1.0
 10
30.6608268724
 20
96.737371914
 30
0.0
 10
30.6608268724
 20
96.7277898971
 30
0.0
 10
30.6626408487
 20
96.6904774855
 30
0.0
 10
30.6716771314
 20
96.6533764575
 30
0.0
 10
30.6827831601
 20
96.6279236046
 30
0.0
  0
SPLINE
  5
339
100
AcDbEntity
  8
0
100
AcDbSpline
 62
7
  6
CONTINUOUS
 70
0
 71
3
 72
8
 73
4
 74
0
 42
0.0000001
 43
0.0000001
 44
0.0000000001
 40
0.0
 40
0.0
 40
0.0
 40
0.0
 40
1.0
 40
1.0
 40
1.0
 40
1.0
 10
79.765376354
 20
96.737371914
 30
0.0
 10
79.765376354
 20
96.6995811979
 30
0.0
 10
79.7549533502
 20
96.6605054743
 30
0.0
 10
79.7358075938
 20
96.6279236046
 30
0.0
  0
SPLINE
  5
33A
100
AcDbEntity
  8
0
100
AcDbSpline
 62
7
  6
CONTINUOUS
 70
0
 71
3
 72
8
 73
4
 74
0
 42
0.0000001
 43
0.0000001
 44
0.0000000001
 40
0.0
 40
0.0
 40
0.0
 40
0.0
 40
1.0
 40
1.0
 40
1.0
 40
1.0
 10
88.3347849951
 20
96.737371914
 30
0.0
 10
88.3347849951
 20
96.6995811979
 30
0.0
 10
88.3452079989
 20
96.6605054743
 30
0.0
 10
88.3643537553
 20
96.6279236046
 30
0.0
  0
SPLINE
  5
33B
100
AcDbEntity
  8
0
100
AcDbSpline
 62
7
  6
CONTINUOUS
 70
0
 71
3
 72
11
 73
7
 74
0
 42
0.0000001
 43
0.0000001
 44
0.0000000001
 40
0.0
 40
0.0
 40
0.0
 40
0.0
 40
0.2873830249
 40
0.5554863898
 40
0.7905913333
 40
1.0
 40
1.0
 40
1.0
 40
1.0
 10
137.4393344771
 20
96.737371914
 30
0.0
 10
137.4393344771
 20
96.7641615657
 30
0.0
 10
137.4321794177
 20
96.8162394442
 30
0.0
 10
137.4015094224
 20
96.8845191055
 30
0.0
 10
137.3534107897
 20
96.933139832
 30
0.0
 10
137.3114819898
 20
96.9457441948
 30
0.0
 10
137.2919610839
 20
96.9457777225
 30
0.0
  0
SPLINE
  5
33C
100
AcDbEntity
  8
0
100
AcDbSpline
 62
7
  6
CONTINUOUS
 70
0
 71
3
 72
9
 73
5
 74
0
 42
0.0000001
 43
0.0000001
 44
0.0000000001
 40
0.0
 40
0.0
 40
0.0
 40
0.0
 40
0.2425148437
 40
1.0
 40
1.0
 40
1.0
 40
1.0
 10
137.4173781894
 20
96.6279236046
 30
0.0
 10
137.4210014376
 20
96.6362273832
 30
0.0
 10
137.433966824
 20
96.6713117399
 30
0.0
 10
137.4393344771
 20
96.7090738815
 30
0.0
 10
137.4393344771
 20
96.737371914
 30
0.0
  0
SPLINE
  5
33D
100
AcDbEntity
  8
0
100
AcDbSpline
 62
7
  6
CONTINUOUS
 70
0
 71
3
 72
9
 73
5
 74
0
 42
0.0000001
 43
0.0000001
 44
0.0000000001
 40
0.0
 40
0.0
 40
0.0
 40
0.0
 40
0.2565304723
 40
1.0
 40
1.0
 40
1.0
 40
1.0
 10
145.0859872093
 20
96.737371914
 30
0.0
 10
145.0859872093
 20
96.7277898971
 30
0.0
 10
145.084173233
 20
96.6904774855
 30
0.0
 10
145.0751369503
 20
96.6533764575
 30
0.0
 10
145.0640309216
 20
96.6279236046
 30
0.0
  0
SPLINE
  5
33E
100
AcDbEntity
  8
0
100
AcDbSpline
 62
7
  6
CONTINUOUS
 70
0
 71
3
 72
9
 73
5
 74
0
 42
0.0000001
 43
0.0000001
 44
0.0000000001
 40
0.0
 40
0.0
 40
0.0
 40
0.0
 40
0.4911679301
 40
1.0
 40
1.0
 40
1.0
 40
1.0
 10
88.5332542712
 20
96.9457777225
 30
0.0
 10
88.4822633616
 20
96.9457126913
 30
0.0
 10
88.374799588
 20
96.8988645217
 30
0.0
 10
88.3347849951
 20
96.7901966804
 30
0.0
 10
88.3347849951
 20
96.737371914
 30
0.0
  0
SPLINE
  5
33F
100
AcDbEntity
  8
0
100
AcDbSpline
 62
7
  6
CONTINUOUS
 70
0
 71
3
 72
9
 73
5
 74
0
 42
0.0000001
 43
0.0000001
 44
0.0000000001
 40
0.0
 40
0.0
 40
0.0
 40
0.0
 40
0.5000461938
 40
1.0
 40
1.0
 40
1.0
 40
1.0
 10
125.0422579023
 20
142.9118831903
 30
0.0
 10
124.9658513415
 20
142.9858254982
 30
0.0
 10
124.7882280537
 20
143.1100770761
 30
0.0
 10
124.5803556934
 20
143.1715499646
 30
0.0
 10
124.4749289443
 20
143.1852046653
 30
0.0
  0
SPLINE
  5
340
100
AcDbEntity
  8
0
100
AcDbSpline
 62
7
  6
CONTINUOUS
 70
0
 71
3
 72
8
 73
4
 74
0
 42
0.0000001
 43
0.0000001
 44
0.0000000001
 40
0.0
 40
0.0
 40
0.0
 40
0.0
 40
1.0
 40
1.0
 40
1.0
 40
1.0
 10
125.3399229024
 20
142.3121793279
 30
0.0
 10
125.3224436182
 20
142.4576439414
 30
0.0
 10
125.2711079808
 20
142.602501357
 30
0.0
 10
125.192904842
 20
142.7263954579
 30
0.0
  0
SPLINE
  5
341
100
AcDbEntity
  8
0
100
AcDbSpline
 62
7
  6
CONTINUOUS
 70
0
 71
3
 72
18
 73
14
 74
0
 42
0.0000001
 43
0.0000001
 44
0.0000000001
 40
0.0
 40
0.0
 40
0.0
 40
0.0
 40
0.2127300821
 40
0.4073075084
 40
0.5797994177
 40
0.7262749533
 40
0.8432097138
 40
0.8899781015
 40
0.9286984355
 40
0.959188707
 40
0.9812770521
 40
0.9948282142
 40
1.0
 40
1.0
 40
1.0
 40
1.0
 10
124.7367094359
 20
142.2265228133
 30
0.0
 10
124.7799833014
 20
142.2275809214
 30
0.0
 10
124.8628426892
 20
142.2294549113
 30
0.0
 10
124.980800276
 20
142.2316194146
 30
0.0
 10
125.0852946288
 20
142.2330028437
 30
0.0
 10
125.1739756528
 20
142.2335740468
 30
0.0
 10
125.2371315107
 20
142.233371256
 30
0.0
 10
125.278256649
 20
142.2326836146
 30
0.0
 10
125.3019752117
 20
142.2320325897
 30
0.0
 10
125.3201998359
 20
142.2311401563
 30
0.0
 10
125.3343951406
 20
142.2302410918
 30
0.0
 10
125.3412290262
 20
142.2289751107
 30
0.0
 10
125.3465005
 20
142.2281524529
 30
0.0
 10
125.346535807
 20
142.2271006786
 30
0.0
  0
SPLINE
  5
342
100
AcDbEntity
  8
0
100
AcDbSpline
 62
7
  6
CONTINUOUS
 70
0
 71
3
 72
14
 73
10
 74
0
 42
0.0000001
 43
0.0000001
 44
0.0000000001
 40
0.0
 40
0.0
 40
0.0
 40
0.0
 40
0.0690129124
 40
0.1503084592
 40
0.2502065013
 40
0.370117287
 40
0.5087583941
 40
0.6630572153
 40
1.0
 40
1.0
 40
1.0
 40
1.0
 10
124.3471011425
 20
143.1934799814
 30
0.0
 10
124.3726288877
 20
143.1934799814
 30
0.0
 10
124.4285484863
 20
143.1780432895
 30
0.0
 10
124.5014571145
 20
143.1184354906
 30
0.0
 10
124.5665937855
 20
143.0270756539
 30
0.0
 10
124.6236239936
 20
142.9068512438
 30
0.0
 10
124.6708224163
 20
142.7612606152
 30
0.0
 10
124.7199893142
 20
142.5332510749
 30
0.0
 10
124.7351028219
 20
142.3511471828
 30
0.0
 10
124.7367090139
 20
142.2265230369
 30
0.0
  0
SPLINE
  5
343
100
AcDbEntity
  8
0
100
AcDbSpline
 62
7
  6
CONTINUOUS
 70
0
 71
3
 72
18
 73
14
 74
0
 42
0.0000001
 43
0.0000001
 44
0.0000000001
 40
0.0
 40
0.0
 40
0.0
 40
0.0
 40
0.0052035994
 40
0.0189019251
 40
0.0413712037
 40
0.0724952936
 40
0.1120863559
 40
0.1598846457
 40
0.2788617005
 40
0.4264468213
 40
0.5989203042
 40
0.7918312617
 40
1.0
 40
1.0
 40
1.0
 40
1.0
 10
126.0888719806
 20
120.1598592846
 30
0.0
 10
126.0888808311
 20
120.1611096329
 30
0.0
 10
126.0826059121
 20
120.1623028991
 30
0.0
 10
126.074441467
 20
120.1637653013
 30
0.0
 10
126.0573813962
 20
120.1649787028
 30
0.0
 10
126.0354215757
 20
120.1660781664
 30
0.0
 10
126.0067998785
 20
120.166915982
 30
0.0
 10
125.957290831
 20
120.1677814309
 30
0.0
 10
125.8817042836
 20
120.1680503558
 30
0.0
 10
125.7762285131
 20
120.1673652672
 30
0.0
 10
125.6529707634
 20
120.1656517453
 30
0.0
 10
125.5151789439
 20
120.1629532721
 30
0.0
 10
125.4188306846
 20
120.160604989
 30
0.0
 10
125.3688270666
 20
120.1592813771
 30
0.0
  0
SPLINE
  5
344
100
AcDbEntity
  8
0
100
AcDbSpline
 62
7
  6
CONTINUOUS
 70
0
 71
3
 72
21
 73
17
 74
0
 42
0.0000001
 43
0.0000001
 44
0.0000000001
 40
0.0
 40
0.0
 40
0.0
 40
0.0
 40
0.0013892693
 40
0.0050612627
 40
0.0110849816
 40
0.0194524463
 40
0.0431452467
 40
0.075976499
 40
0.1177158536
 40
0.1679081152
 40
0.226041437
 40
0.2916034625
 40
0.4426435267
 40
0.615328997
 40
0.8034454163
 40
1.0
 40
1.0
 40
1.0
 40
1.0
 10
126.6691934717
 20
119.2855459375
 30
0.0
 10
126.6687854529
 20
119.285734296
 30
0.0
 10
126.6674632614
 20
119.2838537549
 30
0.0
 10
126.6656542086
 20
119.2814673199
 30
0.0
 10
126.6625479398
 20
119.2761263666
 30
0.0
 10
126.6565954186
 20
119.2655700322
 30
0.0
 10
126.6467726885
 20
119.2468481569
 30
0.0
 10
126.6323812133
 20
119.2185865267
 30
0.0
 10
126.6144010457
 20
119.1824238886
 30
0.0
 10
126.5930411213
 20
119.1388439059
 30
0.0
 10
126.5685040494
 20
119.0882253696
 30
0.0
 10
126.5300065924
 20
119.0081270028
 30
0.0
 10
126.4759318575
 20
118.8944011656
 30
0.0
 10
126.4053945748
 20
118.7446088636
 30
0.0
 10
126.3291003051
 20
118.5812544569
 30
0.0
 10
126.2767520902
 20
118.4683689013
 30
0.0
 10
126.2500804499
 20
118.4106526048
 30
0.0
  0
SPLINE
  5
345
100
AcDbEntity
  8
0
100
AcDbSpline
 62
7
  6
CONTINUOUS
 70
0
 71
3
 72
18
 73
14
 74
0
 42
0.0000001
 43
0.0000001
 44
0.0000000001
 40
0.0
 40
0.0
 40
0.0
 40
0.0
 40
0.194577003
 40
0.3820217038
 40
0.5545458931
 40
0.7057678531
 40
0.8299866337
 40
0.8803867805
 40
0.9223618957
 40
0.955497397
 40
0.979473837
 40
0.9941977098
 40
1.0
 40
1.0
 40
1.0
 40
1.0
 10
128.9026368473
 20
118.2265206952
 30
0.0
 10
128.9675404831
 20
118.2283874334
 30
0.0
 10
129.0949814361
 20
118.2316432116
 30
0.0
 10
129.279999412
 20
118.2351525083
 30
0.0
 10
129.4505826641
 20
118.2371217379
 30
0.0
 10
129.6000467609
 20
118.2374796803
 30
0.0
 10
129.7088381645
 20
118.2364475066
 30
0.0
 10
129.7810028042
 20
118.2346206641
 30
0.0
 10
129.8230541254
 20
118.2329768241
 30
0.0
 10
129.8555403281
 20
118.2310017204
 30
0.0
 10
129.8806221009
 20
118.2287520307
 30
0.0
 10
129.8930936086
 20
118.2263913509
 30
0.0
 10
129.902166806
 20
118.2241966028
 30
0.0
 10
129.9022225329
 20
118.2222611768
 30
0.0
  0
SPLINE
  5
346
100
AcDbEntity
  8
0
100
AcDbSpline
 62
7
  6
CONTINUOUS
 70
0
 71
3
 72
18
 73
14
 74
0
 42
0.0000001
 43
0.0000001
 44
0.0000000001
 40
0.0
 40
0.0
 40
0.0
 40
0.0
 40
0.0058252007
 40
0.020591096
 40
0.0445924223
 40
0.0777204296
 40
0.1197565595
 40
0.1702365996
 40
0.2944123344
 40
0.4456707578
 40
0.6181060459
 40
0.8052852885
 40
1.0
 40
1.0
 40
1.0
 40
1.0
 10
129.9372373159
 20
117.006179743
 30
0.0
 10
129.9371813692
 20
117.0081228049
 30
0.0
 10
129.9280709479
 20
117.0103126418
 30
0.0
 10
129.9155779193
 20
117.0126711175
 30
0.0
 10
129.8904730479
 20
117.0149130702
 30
0.0
 10
129.8579615989
 20
117.0168909157
 30
0.0
 10
129.8158650006
 20
117.0185272267
 30
0.0
 10
129.7436680457
 20
117.020347546
 30
0.0
 10
129.6348525826
 20
117.0213905752
 30
0.0
 10
129.4854208335
 20
117.0210225749
 30
0.0
 10
129.3149441097
 20
117.0190674527
 30
0.0
 10
129.1299989627
 20
117.0155600427
 30
0.0
 10
129.002600992
 20
117.0123073177
 30
0.0
 10
128.9376516302
 20
117.0104392644
 30
0.0
  0
SPLINE
  5
347
100
AcDbEntity
  8
0
100
AcDbSpline
 62
7
  6
CONTINUOUS
 70
0
 71
3
 72
9
 73
5
 74
0
 42
0.0000001
 43
0.0000001
 44
0.0000000001
 40
0.0
 40
0.0
 40
0.0
 40
0.0
 40
0.2464473397
 40
1.0
 40
1.0
 40
1.0
 40
1.0
 10
125.3688324905
 20
120.1592756193
 30
0.0
 10
125.3184938393
 20
121.9721255423
 30
0.0
 10
125.1123783438
 20
129.3280061493
 30
0.0
 10
124.8996230682
 20
136.6836997409
 30
0.0
 10
124.7367127462
 20
142.2265250447
 30
0.0
  0
SPLINE
  5
348
100
AcDbEntity
  8
0
100
AcDbSpline
 62
7
  6
CONTINUOUS
 70
0
 71
3
 72
9
 73
5
 74
0
 42
0.0000001
 43
0.0000001
 44
0.0000000001
 40
0.0
 40
0.0
 40
0.0
 40
0.0
 40
0.2989542224
 40
1.0
 40
1.0
 40
1.0
 40
1.0
 10
126.2500634395
 20
118.4106570235
 30
0.0
 10
126.0789747715
 20
118.5151422792
 30
0.0
 10
125.5832709722
 20
118.9906264595
 30
0.0
 10
125.3818505273
 20
119.6893535885
 30
0.0
 10
125.3688035868
 20
120.1592750366
 30
0.0
  0
SPLINE
  5
349
100
AcDbEntity
  8
0
100
AcDbSpline
 62
7
  6
CONTINUOUS
 70
0
 71
3
 72
11
 73
7
 74
0
 42
0.0000001
 43
0.0000001
 44
0.0000000001
 40
0.0
 40
0.0
 40
0.0
 40
0.0
 40
0.3584491994
 40
0.495209019
 40
0.64937028
 40
1.0
 40
1.0
 40
1.0
 40
1.0
 10
124.6008428654
 20
143.9221710539
 30
0.0
 10
124.5358324982
 20
143.9889652759
 30
0.0
 10
124.3706469432
 20
143.969016211
 30
0.0
 10
124.2181821155
 20
143.910259627
 30
0.0
 10
124.0670564848
 20
143.8357355664
 30
0.0
 10
123.957851702
 20
143.7628724081
 30
0.0
 10
123.8848532489
 20
143.7082452068
 30
0.0
  0
SPLINE
  5
34A
100
AcDbEntity
  8
0
100
AcDbSpline
 62
7
  6
CONTINUOUS
 70
0
 71
3
 72
17
 73
13
 74
0
 42
0.0000001
 43
0.0000001
 44
0.0000000001
 40
0.0
 40
0.0
 40
0.0
 40
0.0
 40
0.1907907799
 40
0.3819892158
 40
0.5639683413
 40
0.7204167703
 40
0.8330872116
 40
0.872092634
 40
0.9015146172
 40
0.9251551412
 40
0.9473587535
 40
1.0
 40
1.0
 40
1.0
 40
1.0
 10
81.6843087708
 20
143.7084021456
 30
0.0
 10
81.623224168
 20
143.6913174934
 30
0.0
 10
81.5001746193
 20
143.6597513646
 30
0.0
 10
81.3173161112
 20
143.6184097193
 30
0.0
 10
81.1437629609
 20
143.5872324174
 30
0.0
 10
80.9941941177
 20
143.5755996298
 30
0.0
 10
80.89089489
 20
143.5808269068
 30
0.0
 10
80.8328813711
 20
143.5981951774
 30
0.0
 10
80.8062696333
 20
143.6143612653
 30
0.0
 10
80.7910015642
 20
143.6352165104
 30
0.0
 10
80.7854530965
 20
143.6685027813
 30
0.0
 10
80.7959334711
 20
143.6928426398
 30
0.0
 10
80.8044149793
 20
143.7081507561
 30
0.0
  0
SPLINE
  5
34B
100
AcDbEntity
  8
0
100
AcDbSpline
 62
7
  6
CONTINUOUS
 70
0
 71
3
 72
11
 73
7
 74
0
 42
0.0000001
 43
0.0000001
 44
0.0000000001
 40
0.0
 40
0.0
 40
0.0
 40
0.0
 40
0.2500326331
 40
0.4999055769
 40
0.7498314527
 40
1.0
 40
1.0
 40
1.0
 40
1.0
 10
123.2012629876
 20
117.0104395369
 30
0.0
 10
123.2054686904
 20
116.8832195075
 30
0.0
 10
123.2637267283
 20
116.6278264556
 30
0.0
 10
123.4877347149
 20
116.3075144493
 30
0.0
 10
123.8149006334
 20
116.0933960997
 30
0.0
 10
124.0722184851
 20
116.0434799803
 30
0.0
 10
124.1995772054
 20
116.0434799814
 30
0.0
  0
SPLINE
  5
34C
100
AcDbEntity
  8
0
100
AcDbSpline
 62
7
  6
CONTINUOUS
 70
0
 71
3
 72
24
 73
20
 74
0
 42
0.0000001
 43
0.0000001
 44
0.0000000001
 40
0.0
 40
0.0
 40
0.0
 40
0.0
 40
0.0012819425
 40
0.0049158418
 40
0.010931802
 40
0.019320919
 40
0.030069755
 40
0.0431621449
 40
0.0585642402
 40
0.0762309019
 40
0.1181760855
 40
0.168623287
 40
0.2270774485
 40
0.292965799
 40
0.3656825053
 40
0.4444948621
 40
0.6173224289
 40
0.8049889566
 40
1.0
 40
1.0
 40
1.0
 40
1.0
 10
129.9929208735
 20
115.0722611771
 30
0.0
 10
129.992955722
 20
115.0706377278
 30
0.0
 10
129.9835474997
 20
115.0706021743
 30
0.0
 10
129.9728283952
 20
115.0681748146
 30
0.0
 10
129.9482892494
 20
115.0674236161
 30
0.0
 10
129.9172123594
 20
115.0658564279
 30
0.0
 10
129.8761089334
 20
115.0647539924
 30
0.0
 10
129.8265178623
 20
115.0636127854
 30
0.0
 10
129.7680182507
 20
115.0626312277
 30
0.0
 10
129.6730220963
 20
115.0613828659
 30
0.0
 10
129.5336064001
 20
115.0602210383
 30
0.0
 10
129.3425359272
 20
115.0593798538
 30
0.0
 10
129.1211303493
 20
115.0590531547
 30
0.0
 10
128.8715177954
 20
115.0592400211
 30
0.0
 10
128.5961180637
 20
115.0599452583
 30
0.0
 10
128.1852622184
 20
115.0616208355
 30
0.0
 10
127.6288071614
 20
115.0650378565
 30
0.0
 10
126.9251776365
 20
115.0707734619
 30
0.0
 10
126.4404676973
 20
115.0756177577
 30
0.0
 10
126.1934646691
 20
115.0783794144
 30
0.0
  0
SPLINE
  5
34D
100
AcDbEntity
  8
0
100
AcDbSpline
 62
7
  6
CONTINUOUS
 70
0
 71
3
 72
18
 73
14
 74
0
 42
0.0000001
 43
0.0000001
 44
0.0000000001
 40
0.0
 40
0.0
 40
0.0
 40
0.0
 40
0.0051883454
 40
0.0196592642
 40
0.0434745199
 40
0.0764856618
 40
0.1184610832
 40
0.1689276896
 40
0.2931944556
 40
0.4446680124
 40
0.6174014042
 40
0.8049238515
 40
1.0
 40
1.0
 40
1.0
 40
1.0
 10
28.7746369453
 20
134.5599826817
 30
0.0
 10
28.774578958
 20
134.5582525216
 30
0.0
 10
28.7843777361
 20
134.5577928341
 30
0.0
 10
28.7957254246
 20
134.555620232
 30
0.0
 10
28.8212218222
 20
134.554911457
 30
0.0
 10
28.8534229013
 20
134.5538528228
 30
0.0
 10
28.8955669968
 20
134.5534232043
 30
0.0
 10
28.9677412292
 20
134.5531900203
 30
0.0
 10
29.0766653166
 20
134.554053757
 30
0.0
 10
29.2262500819
 20
134.5564111677
 30
0.0
 10
29.396963949
 20
134.5601442289
 30
0.0
 10
29.5821850372
 20
134.5651204651
 30
0.0
 10
29.7097809636
 20
134.5691100242
 30
0.0
 10
29.7748332999
 20
134.5712843983
 30
0.0
  0
SPLINE
  5
34E
100
AcDbEntity
  8
0
100
AcDbSpline
 62
7
  6
CONTINUOUS
 70
0
 71
3
 72
9
 73
5
 74
0
 42
0.0000001
 43
0.0000001
 44
0.0000000001
 40
0.0
 40
0.0
 40
0.0
 40
0.0
 40
0.2701443379
 40
1.0
 40
1.0
 40
1.0
 40
1.0
 10
64.3326918669
 20
132.6010428663
 30
0.0
 10
64.3904517417
 20
132.5997605854
 30
0.0
 10
64.604266059
 20
132.5951619417
 30
0.0
 10
64.8180914959
 20
132.5910443395
 30
0.0
 10
64.9741615778
 20
132.5885673288
 30
0.0
  0
SPLINE
  5
34F
100
AcDbEntity
  8
0
100
AcDbSpline
 62
7
  6
CONTINUOUS
 70
0
 71
3
 72
9
 73
5
 74
0
 42
0.0000001
 43
0.0000001
 44
0.0000000001
 40
0.0
 40
0.0
 40
0.0
 40
0.0
 40
0.6515701795
 40
1.0
 40
1.0
 40
1.0
 40
1.0
 10
64.9741615778
 20
132.5885673288
 30
0.0
 10
65.0485574159
 20
132.5873865817
 30
0.0
 10
65.1627310101
 20
132.5860643766
 30
0.0
 10
65.2769424613
 20
132.5846333621
 30
0.0
 10
65.3167230233
 20
132.5854275698
 30
0.0
  0
SPLINE
  5
350
100
AcDbEntity
  8
0
100
AcDbSpline
 62
7
  6
CONTINUOUS
 70
0
 71
3
 72
16
 73
12
 74
0
 42
0.0000001
 43
0.0000001
 44
0.0000000001
 40
0.0
 40
0.0
 40
0.0
 40
0.0
 40
0.3217195625
 40
0.476091078
 40
0.621988952
 40
0.7549723566
 40
0.8684124845
 40
0.9150277814
 40
0.9532006846
 40
0.9817461203
 40
1.0
 40
1.0
 40
1.0
 40
1.0
 10
65.8382070797
 20
121.4769776896
 30
0.0
 10
65.7514925957
 20
121.5766303492
 30
0.0
 10
65.6228596727
 20
121.7238309099
 30
0.0
 10
65.4552133324
 20
121.9164895793
 30
0.0
 10
65.3391235354
 20
122.0512962453
 30
0.0
 10
65.2354278873
 20
122.1745468171
 30
0.0
 10
65.1600967872
 20
122.2684750919
 30
0.0
 10
65.1119543459
 20
122.3340329285
 30
0.0
 10
65.0859528319
 20
122.3728368499
 30
0.0
 10
65.0691578338
 20
122.4030796428
 30
0.0
 10
65.0622884384
 20
122.4218181923
 30
0.0
 10
65.0624760743
 20
122.4293109204
 30
0.0
  0
SPLINE
  5
351
100
AcDbEntity
  8
0
100
AcDbSpline
 62
7
  6
CONTINUOUS
 70
0
 71
3
 72
9
 73
5
 74
0
 42
0.0000001
 43
0.0000001
 44
0.0000000001
 40
0.0
 40
0.0
 40
0.0
 40
0.0
 40
0.3481802621
 40
1.0
 40
1.0
 40
1.0
 40
1.0
 10
65.317638166
 20
132.6185130248
 30
0.0
 10
65.3176503296
 20
132.6189987467
 30
0.0
 10
65.3188396241
 20
132.620124909
 30
0.0
 10
65.3201053989
 20
132.6205455547
 30
0.0
 10
65.3209665239
 20
132.6208385109
 30
0.0
  0
SPLINE
  5
352
100
AcDbEntity
  8
0
100
AcDbSpline
 62
7
  6
CONTINUOUS
 70
0
 71
3
 72
11
 73
7
 74
0
 42
0.0000001
 43
0.0000001
 44
0.0000000001
 40
0.0
 40
0.0
 40
0.0
 40
0.0
 40
0.107422498
 40
0.3140813831
 40
0.6148243643
 40
1.0
 40
1.0
 40
1.0
 40
1.0
 10
65.3209665239
 20
132.6208385109
 30
0.0
 10
65.3288244566
 20
132.6235117926
 30
0.0
 10
65.3533501111
 20
132.6254305215
 30
0.0
 10
65.4005072322
 20
132.6287729097
 30
0.0
 10
65.469582823
 20
132.6305115459
 30
0.0
 10
65.5225381657
 20
132.6313204455
 30
0.0
 10
65.5522984619
 20
132.6315724308
 30
0.0
  0
SPLINE
  5
353
100
AcDbEntity
  8
0
100
AcDbSpline
 62
7
  6
CONTINUOUS
 70
0
 71
3
 72
9
 73
5
 74
0
 42
0.0000001
 43
0.0000001
 44
0.0000000001
 40
0.0
 40
0.0
 40
0.0
 40
0.0
 40
0.2143817878
 40
1.0
 40
1.0
 40
1.0
 40
1.0
 10
65.5522984619
 20
132.6315724308
 30
0.0
 10
65.5926821303
 20
132.6319143658
 30
0.0
 10
65.7810649556
 20
132.6321854308
 30
0.0
 10
65.9694394634
 20
132.6289855954
 30
0.0
 10
66.117387491
 20
132.6252850583
 30
0.0
  0
SPLINE
  5
354
100
AcDbEntity
  8
0
100
AcDbSpline
 62
7
  6
CONTINUOUS
 70
0
 71
3
 72
21
 73
17
 74
0
 42
0.0000001
 43
0.0000001
 44
0.0000000001
 40
0.0
 40
0.0
 40
0.0
 40
0.0
 40
0.1944609573
 40
0.3817850112
 40
0.5545463328
 40
0.7061401164
 40
0.7721584154
 40
0.8307250859
 40
0.8812772124
 40
0.9233403983
 40
0.9564824987
 40
0.9804417018
 40
0.9889289669
 40
0.9950461352
 40
0.9987525872
 40
1.0
 40
1.0
 40
1.0
 40
1.0
 10
66.1346051191
 20
132.7016016901
 30
0.0
 10
66.0835465756
 20
132.7120880321
 30
0.0
 10
65.9829279632
 20
132.7309134436
 30
0.0
 10
65.8358312654
 20
132.7525385719
 30
0.0
 10
65.6995476807
 20
132.7680653158
 30
0.0
 10
65.5954141363
 20
132.7783531863
 30
0.0
 10
65.5216813425
 20
132.7849480579
 30
0.0
 10
65.4749030191
 20
132.7889403156
 30
0.0
 10
65.4345084787
 20
132.7920446517
 30
0.0
 10
65.4008159735
 20
132.7939151766
 30
0.0
 10
65.3743142429
 20
132.794432454
 30
0.0
 10
65.3565523909
 20
132.7932524478
 30
0.0
 10
65.3465330113
 20
132.792460791
 30
0.0
 10
65.3412380395
 20
132.7912528169
 30
0.0
 10
65.3390869538
 20
132.7916916531
 30
0.0
 10
65.3369755268
 20
132.7904510499
 30
0.0
 10
65.3369829483
 20
132.7907853302
 30
0.0
  0
SPLINE
  5
355
100
AcDbEntity
  8
0
100
AcDbSpline
 62
7
  6
CONTINUOUS
 70
0
 71
3
 72
18
 73
14
 74
0
 42
0.0000001
 43
0.0000001
 44
0.0000000001
 40
0.0
 40
0.0
 40
0.0
 40
0.0
 40
0.0052933541
 40
0.019840817
 40
0.0437305938
 40
0.0768259723
 40
0.1187913836
 40
0.1692059474
 40
0.2935106179
 40
0.4448725549
 40
0.6175749657
 40
0.805219351
 40
1.0
 40
1.0
 40
1.0
 40
1.0
 10
29.0316079163
 20
142.2269776897
 30
0.0
 10
29.0316670336
 20
142.2287415152
 30
0.0
 10
29.0413235268
 20
142.2291061214
 30
0.0
 10
29.0529530383
 20
142.2313711896
 30
0.0
 10
29.0783876672
 20
142.2320395607
 30
0.0
 10
29.1106674438
 20
142.2331172543
 30
0.0
 10
29.1527653156
 20
142.233545703
 30
0.0
 10
29.2248861487
 20
142.2337878357
 30
0.0
 10
29.3336786637
 20
142.2329164959
 30
0.0
 10
29.483116582
 20
142.2305675422
 30
0.0
 10
29.6536917261
 20
142.2268237256
 30
0.0
 10
29.8387028018
 20
142.2218444561
 30
0.0
 10
29.9661428219
 20
142.2178502686
 30
0.0
 10
30.0310467106
 20
142.215675988
 30
0.0
  0
SPLINE
  5
356
100
AcDbEntity
  8
0
100
AcDbSpline
 62
7
  6
CONTINUOUS
 70
0
 71
3
 72
9
 73
5
 74
0
 42
0.0000001
 43
0.0000001
 44
0.0000000001
 40
0.0
 40
0.0
 40
0.0
 40
0.0
 40
0.3128735899
 40
1.0
 40
1.0
 40
1.0
 40
1.0
 10
28.7727563497
 20
134.5038731649
 30
0.0
 10
28.7725081803
 20
134.4964687721
 30
0.0
 10
28.772045842
 20
134.47283659
 30
0.0
 10
28.7734680838
 20
134.4488909529
 30
0.0
 10
28.7773485052
 20
134.4330899529
 30
0.0
  0
SPLINE
  5
357
100
AcDbEntity
  8
0
100
AcDbSpline
 62
7
  6
CONTINUOUS
 70
0
 71
3
 72
14
 73
10
 74
0
 42
0.0000001
 43
0.0000001
 44
0.0000000001
 40
0.0
 40
0.0
 40
0.0
 40
0.0
 40
0.064414607
 40
0.1386203824
 40
0.2350423324
 40
0.3551086921
 40
0.4962881195
 40
0.6543655419
 40
1.0
 40
1.0
 40
1.0
 40
1.0
 10
28.7773485052
 20
134.4330899529
 30
0.0
 10
28.7826758459
 20
134.4113971266
 30
0.0
 10
28.8091130054
 20
134.3675314092
 30
0.0
 10
28.8826512295
 20
134.3281232371
 30
0.0
 10
28.9795822266
 20
134.3002589936
 30
0.0
 10
29.1022919874
 20
134.2803911863
 30
0.0
 10
29.2470706022
 20
134.2667339451
 30
0.0
 10
29.4705318575
 20
134.2553811616
 30
0.0
 10
29.6452763959
 20
134.259695858
 30
0.0
 10
29.7651338972
 20
134.2596958469
 30
0.0
  0
SPLINE
  5
358
100
AcDbEntity
  8
0
100
AcDbSpline
 62
7
  6
CONTINUOUS
 70
0
 71
3
 72
18
 73
14
 74
0
 42
0.0000001
 43
0.0000001
 44
0.0000000001
 40
0.0
 40
0.0
 40
0.0
 40
0.0
 40
0.1947571482
 40
0.3819675513
 40
0.5544219054
 40
0.705687327
 40
0.8298468037
 40
0.880314036
 40
0.9223386924
 40
0.9554590177
 40
0.9794500753
 40
0.9941956191
 40
1.0
 40
1.0
 40
1.0
 40
1.0
 10
66.3460825074
 20
142.2269779731
 30
0.0
 10
66.2941091915
 20
142.2281306167
 30
0.0
 10
66.1921916544
 20
142.2310372834
 30
0.0
 10
66.0442660112
 20
142.2353893327
 30
0.0
 10
65.9078927486
 20
142.2376649124
 30
0.0
 10
65.788360235
 20
142.2382459049
 30
0.0
 10
65.7013217907
 20
142.2377409809
 30
0.0
 10
65.6435768431
 20
142.2365450003
 30
0.0
 10
65.6099048975
 20
142.2353812685
 30
0.0
 10
65.5839050084
 20
142.2339125858
 30
0.0
 10
65.5638185159
 20
142.2321486784
 30
0.0
 10
65.5538511711
 20
142.2303330147
 30
0.0
 10
65.5465606442
 20
142.2285168067
 30
0.0
 10
65.5465440812
 20
142.2269675446
 30
0.0
  0
SPLINE
  5
359
100
AcDbEntity
  8
0
100
AcDbSpline
 62
7
  6
CONTINUOUS
 70
0
 71
3
 72
8
 73
4
 74
0
 42
0.0000001
 43
0.0000001
 44
0.0000000001
 40
0.0
 40
0.0
 40
0.0
 40
0.0
 40
1.0
 40
1.0
 40
1.0
 40
1.0
 10
66.1346045601
 20
132.7016019386
 30
0.0
 10
66.1240006297
 20
132.6777768428
 30
0.0
 10
66.1180397251
 20
132.651355254
 30
0.0
 10
66.1173868736
 20
132.6252851117
 30
0.0
  0
SPLINE
  5
35A
100
AcDbEntity
  8
0
100
AcDbSpline
 62
7
  6
CONTINUOUS
 70
0
 71
3
 72
21
 73
17
 74
0
 42
0.0000001
 43
0.0000001
 44
0.0000000001
 40
0.0
 40
0.0
 40
0.0
 40
0.0
 40
0.1681296263
 40
0.333569477
 40
0.4931678281
 40
0.6431304571
 40
0.71302501
 40
0.778297263
 40
0.8379399305
 40
0.8906890455
 40
0.9348589137
 40
0.9687359781
 40
0.9813347815
 40
0.9908319926
 40
0.9970840214
 40
1.0
 40
1.0
 40
1.0
 40
1.0
 10
51.9500615656
 20
121.4769776892
 30
0.0
 10
52.0043512049
 20
121.5320645171
 30
0.0
 10
52.1122058877
 20
121.64121514
 30
0.0
 10
52.2721278538
 20
121.8021302539
 30
0.0
 10
52.4266688588
 20
121.95660899
 30
0.0
 10
52.5506038401
 20
122.0795339448
 30
0.0
 10
52.6440920751
 20
122.1715348737
 30
0.0
 10
52.7081705633
 20
122.2341864764
 30
0.0
 10
52.7668478089
 20
122.2910731355
 30
0.0
 10
52.8188348005
 20
122.3409329941
 30
0.0
 10
52.8626099987
 20
122.3821714682
 30
0.0
 10
52.8933256281
 20
122.4104724107
 30
0.0
 10
52.9126777725
 20
122.4273242095
 30
0.0
 10
52.9227020784
 20
122.4359146411
 30
0.0
 10
52.9294980036
 20
122.4406703059
 30
0.0
 10
52.9331428067
 20
122.4434799814
 30
0.0
 10
52.9344842136
 20
122.4434799814
 30
0.0
  0
SPLINE
  5
35B
100
AcDbEntity
  8
0
100
AcDbSpline
 62
7
  6
CONTINUOUS
 70
0
 71
3
 72
21
 73
17
 74
0
 42
0.0000001
 43
0.0000001
 44
0.0000000001
 40
0.0
 40
0.0
 40
0.0
 40
0.0
 40
0.0028248785
 40
0.0089651915
 40
0.0183300167
 40
0.0307782246
 40
0.0643169333
 40
0.1081568603
 40
0.1606349054
 40
0.2200982604
 40
0.285265408
 40
0.3551329964
 40
0.5052704366
 40
0.6652672721
 40
0.8312587811
 40
1.0
 40
1.0
 40
1.0
 40
1.0
 10
28.7427225242
 20
133.5934799814
 30
0.0
 10
28.7440110235
 20
133.5934799814
 30
0.0
 10
28.7474996659
 20
133.5906580441
 30
0.0
 10
28.7540527872
 20
133.585970371
 30
0.0
 10
28.763746534
 20
133.5774310547
 30
0.0
 10
28.7825257404
 20
133.5606942331
 30
0.0
 10
28.8123975872
 20
133.5325489958
 30
0.0
 10
28.8550569902
 20
133.4915008192
 30
0.0
 10
28.90583727
 20
133.441782439
 30
0.0
 10
28.9632676073
 20
133.3849736871
 30
0.0
 10
29.026086212
 20
133.3223278608
 30
0.0
 10
29.1178991536
 20
133.2301885832
 30
0.0
 10
29.239760487
 20
133.1069290771
 30
0.0
 10
29.3918700774
 20
132.9519227751
 30
0.0
 10
29.5494514312
 20
132.7903983316
 30
0.0
 10
29.6557687327
 20
132.6808176486
 30
0.0
 10
29.7092881009
 20
132.6255037808
 30
0.0
  0
SPLINE
  5
35C
100
AcDbEntity
  8
0
100
AcDbSpline
 62
7
  6
CONTINUOUS
 70
0
 71
3
 72
18
 73
14
 74
0
 42
0.0000001
 43
0.0000001
 44
0.0000000001
 40
0.0
 40
0.0
 40
0.0
 40
0.0
 40
0.0057606332
 40
0.0204666956
 40
0.0444322242
 40
0.0775602076
 40
0.11952965
 40
0.1699268399
 40
0.2941477774
 40
0.4453797175
 40
0.6179225233
 40
0.805392708
 40
1.0
 40
1.0
 40
1.0
 40
1.0
 10
28.2596287596
 20
119.194180173
 30
0.0
 10
28.2596944712
 20
119.1961008765
 30
0.0
 10
28.2688194747
 20
119.1981300154
 30
0.0
 10
28.2812392116
 20
119.2003922302
 30
0.0
 10
28.3063497221
 20
119.2023912941
 30
0.0
 10
28.3388221978
 20
119.2041041117
 30
0.0
 10
28.3808735426
 20
119.2054114768
 30
0.0
 10
28.453026781
 20
119.2066914463
 30
0.0
 10
28.5617987291
 20
119.2069337568
 30
0.0
 10
28.711227426
 20
119.2055312175
 30
0.0
 10
28.8817671158
 20
119.2024022991
 30
0.0
 10
29.0667344581
 20
119.1976716992
 30
0.0
 10
29.1941371082
 20
119.1935910654
 30
0.0
 10
29.2590205506
 20
119.1913051607
 30
0.0
  0
SPLINE
  5
35D
100
AcDbEntity
  8
0
100
AcDbSpline
 62
7
  6
CONTINUOUS
 70
0
 71
3
 72
18
 73
14
 74
0
 42
0.0000001
 43
0.0000001
 44
0.0000000001
 40
0.0
 40
0.0
 40
0.0
 40
0.0
 40
0.1947467625
 40
0.3819515365
 40
0.5544057638
 40
0.705676472
 40
0.8298574634
 40
0.880337122
 40
0.9223704624
 40
0.9554925479
 40
0.9794832247
 40
0.9942291181
 40
1.0
 40
1.0
 40
1.0
 40
1.0
 10
29.1828985607
 20
117.0114562104
 30
0.0
 10
29.1179697417
 20
117.0137212598
 30
0.0
 10
28.9906117616
 20
117.0177654873
 30
0.0
 10
28.8057205164
 20
117.0224596067
 30
0.0
 10
28.635290312
 20
117.0255485841
 30
0.0
 10
28.4858961727
 20
117.0269513899
 30
0.0
 10
28.3770998936
 20
117.0267048787
 30
0.0
 10
28.3049139764
 20
117.025444253
 30
0.0
 10
28.2628141706
 20
117.0241596289
 30
0.0
 10
28.2303192101
 20
117.0224557291
 30
0.0
 10
28.2051751184
 20
117.0204953765
 30
0.0
 10
28.1927535476
 20
117.0182354069
 30
0.0
 10
28.183574964
 20
117.0162562738
 30
0.0
 10
28.1835077757
 20
117.0143322568
 30
0.0
  0
SPLINE
  5
35E
100
AcDbEntity
  8
0
100
AcDbSpline
 62
7
  6
CONTINUOUS
 70
0
 71
3
 72
18
 73
14
 74
0
 42
0.0000001
 43
0.0000001
 44
0.0000000001
 40
0.0
 40
0.0
 40
0.0
 40
0.0
 40
0.1946785676
 40
0.3818199268
 40
0.5542194345
 40
0.7054480906
 40
0.8296044431
 40
0.8800803645
 40
0.9221173499
 40
0.9552528857
 40
0.9792716032
 40
0.9940736239
 40
1.0
 40
1.0
 40
1.0
 40
1.0
 10
35.8974557018
 20
117.0143310439
 30
0.0
 10
35.8325195036
 20
117.0164091361
 30
0.0
 10
35.7051463176
 20
117.0200508046
 30
0.0
 10
35.5202325734
 20
117.0240550335
 30
0.0
 10
35.3497815813
 20
117.0263960675
 30
0.0
 10
35.2003653227
 20
117.0270284849
 30
0.0
 10
35.0915604474
 20
117.0261008888
 30
0.0
 10
35.0193592637
 20
117.0243004226
 30
0.0
 10
34.9772701097
 20
117.0226309858
 30
0.0
 10
34.9447201388
 20
117.0206207394
 30
0.0
 10
34.9196693866
 20
117.0182334611
 30
0.0
 10
34.9070199976
 20
117.0158670068
 30
0.0
 10
34.8980095044
 20
117.0134330855
 30
0.0
 10
34.897946166
 20
117.0114563099
 30
0.0
  0
SPLINE
  5
35F
100
AcDbEntity
  8
0
100
AcDbSpline
 62
7
  6
CONTINUOUS
 70
0
 71
3
 72
9
 73
5
 74
0
 42
0.0000001
 43
0.0000001
 44
0.0000000001
 40
0.0
 40
0.0
 40
0.0
 40
0.0
 40
0.2562469819
 40
1.0
 40
1.0
 40
1.0
 40
1.0
 10
87.2127841823
 20
153.6763738572
 30
0.0
 10
87.1950904671
 20
153.6839010828
 30
0.0
 10
87.1256509922
 20
153.7123436863
 30
0.0
 10
87.0546543974
 20
153.7370395865
 30
0.0
 10
87.0011317575
 20
153.752852858
 30
0.0
  0
SPLINE
  5
360
100
AcDbEntity
  8
0
100
AcDbSpline
 62
7
  6
CONTINUOUS
 70
0
 71
3
 72
11
 73
7
 74
0
 42
0.0000001
 43
0.0000001
 44
0.0000000001
 40
0.0
 40
0.0
 40
0.0
 40
0.0
 40
0.330862611
 40
0.6080421841
 40
0.8257607062
 40
1.0
 40
1.0
 40
1.0
 40
1.0
 10
87.0011317575
 20
153.752852858
 30
0.0
 10
86.9261182019
 20
153.7750145939
 30
0.0
 10
86.7851812646
 20
153.8068272566
 30
0.0
 10
86.5888509275
 20
153.8146570816
 30
0.0
 10
86.4314687349
 20
153.7784129348
 30
0.0
 10
86.357179887
 20
153.7131870797
 30
0.0
 10
86.337556413
 20
153.6769700546
 30
0.0
  0
SPLINE
  5
361
100
AcDbEntity
  8
0
100
AcDbSpline
 62
7
  6
CONTINUOUS
 70
0
 71
3
 72
11
 73
7
 74
0
 42
0.0000001
 43
0.0000001
 44
0.0000000001
 40
0.0
 40
0.0
 40
0.0
 40
0.0
 40
0.3586599971
 40
0.4953369167
 40
0.6495192431
 40
1.0
 40
1.0
 40
1.0
 40
1.0
 10
114.8432871206
 20
153.8929507275
 30
0.0
 10
114.7781488535
 20
153.959453716
 30
0.0
 10
114.6134455471
 20
153.9394629636
 30
0.0
 10
114.4611769232
 20
153.8808433015
 30
0.0
 10
114.3103848898
 20
153.8064957654
 30
0.0
 10
114.2013724271
 20
153.7338464886
 30
0.0
 10
114.1285103464
 20
153.6793852604
 30
0.0
  0
SPLINE
  5
362
100
AcDbEntity
  8
0
100
AcDbSpline
 62
7
  6
CONTINUOUS
 70
0
 71
3
 72
18
 73
14
 74
0
 42
0.0000001
 43
0.0000001
 44
0.0000000001
 40
0.0
 40
0.0
 40
0.0
 40
0.0
 40
0.005019378
 40
0.0194990806
 40
0.0433894641
 40
0.0765236019
 40
0.1185371533
 40
0.1689388347
 40
0.2928992081
 40
0.4440506943
 40
0.6171337498
 40
0.8053941794
 40
1.0
 40
1.0
 40
1.0
 40
1.0
 10
52.781043793
 20
132.6086302093
 30
0.0
 10
52.7810312167
 20
132.6094664969
 30
0.0
 10
52.7860846888
 20
132.6090142382
 30
0.0
 10
52.7915820576
 20
132.6102525488
 30
0.0
 10
52.8044617223
 20
132.6100924848
 30
0.0
 10
52.8205419207
 20
132.6104655911
 30
0.0
 10
52.8416228689
 20
132.6104071648
 30
0.0
 10
52.8776035877
 20
132.610245522
 30
0.0
 10
52.9318865322
 20
132.6095295641
 30
0.0
 10
53.0065382811
 20
132.6081711208
 30
0.0
 10
53.09192079
 20
132.6062606158
 30
0.0
 10
53.1845269055
 20
132.6038940538
 30
0.0
 10
53.2482984199
 20
132.6020599566
 30
0.0
 10
53.2807103004
 20
132.6010602938
 30
0.0
  0
SPLINE
  5
363
100
AcDbEntity
  8
0
100
AcDbSpline
 62
7
  6
CONTINUOUS
 70
0
 71
3
 72
9
 73
5
 74
0
 42
0.0000001
 43
0.0000001
 44
0.0000000001
 40
0.0
 40
0.0
 40
0.0
 40
0.0
 40
0.5106053069
 40
1.0
 40
1.0
 40
1.0
 40
1.0
 10
124.3267524699
 20
143.4825702835
 30
0.0
 10
124.4216935758
 20
143.4858775001
 30
0.0
 10
124.6087098508
 20
143.467332958
 30
0.0
 10
124.7878706493
 20
143.4119241349
 30
0.0
 10
124.8710432781
 20
143.3748720194
 30
0.0
  0
SPLINE
  5
364
100
AcDbEntity
  8
0
100
AcDbSpline
 62
7
  6
CONTINUOUS
 70
0
 71
3
 72
9
 73
5
 74
0
 42
0.0000001
 43
0.0000001
 44
0.0000000001
 40
0.0
 40
0.0
 40
0.0
 40
0.0
 40
0.2666761034
 40
1.0
 40
1.0
 40
1.0
 40
1.0
 10
124.8710432781
 20
143.3748720194
 30
0.0
 10
124.9047549736
 20
143.3598539822
 30
0.0
 10
125.0281790722
 20
143.2975268407
 30
0.0
 10
125.1396553513
 20
143.2081609356
 30
0.0
 10
125.2025874475
 20
143.1285441508
 30
0.0
  0
SPLINE
  5
365
100
AcDbEntity
  8
0
100
AcDbSpline
 62
7
  6
CONTINUOUS
 70
0
 71
3
 72
9
 73
5
 74
0
 42
0.0000001
 43
0.0000001
 44
0.0000000001
 40
0.0
 40
0.0
 40
0.0
 40
0.0
 40
0.2565433174
 40
1.0
 40
1.0
 40
1.0
 40
1.0
 10
125.2025874475
 20
143.1285441508
 30
0.0
 10
125.2105831732
 20
143.1184285815
 30
0.0
 10
125.2405917954
 20
143.0781027488
 30
0.0
 10
125.2658619326
 20
143.0342006591
 30
0.0
 10
125.2812274946
 20
143.0001394537
 30
0.0
  0
SPLINE
  5
366
100
AcDbEntity
  8
0
100
AcDbSpline
 62
7
  6
CONTINUOUS
 70
0
 71
3
 72
9
 73
5
 74
0
 42
0.0000001
 43
0.0000001
 44
0.0000000001
 40
0.0
 40
0.0
 40
0.0
 40
0.0
 40
0.2529349314
 40
1.0
 40
1.0
 40
1.0
 40
1.0
 10
125.2812274946
 20
143.0001394537
 30
0.0
 10
125.2871984971
 20
142.9869033909
 30
0.0
 10
125.3088396718
 20
142.9337121987
 30
0.0
 10
125.3214767119
 20
142.8768318574
 30
0.0
 10
125.3252593789
 20
142.8341113192
 30
0.0
  0
SPLINE
  5
367
100
AcDbEntity
  8
0
100
AcDbSpline
 62
7
  6
CONTINUOUS
 70
0
 71
3
 72
11
 73
7
 74
0
 42
0.0000001
 43
0.0000001
 44
0.0000000001
 40
0.0
 40
0.0
 40
0.0
 40
0.0
 40
0.2055726297
 40
0.4346051375
 40
0.69933532
 40
1.0
 40
1.0
 40
1.0
 40
1.0
 10
125.0422840613
 20
143.4710854902
 30
0.0
 10
125.0059020262
 20
143.5082624448
 30
0.0
 10
124.9092195239
 20
143.5689161815
 30
0.0
 10
124.7308753821
 20
143.5962158214
 30
0.0
 10
124.5298436664
 20
143.5672986049
 30
0.0
 10
124.3952227922
 20
143.5157329895
 30
0.0
 10
124.3267524704
 20
143.482569942
 30
0.0
  0
SPLINE
  5
368
100
AcDbEntity
  8
0
100
AcDbSpline
 62
7
  6
CONTINUOUS
 70
0
 71
3
 72
18
 73
14
 74
0
 42
0.0000001
 43
0.0000001
 44
0.0000000001
 40
0.0
 40
0.0
 40
0.0
 40
0.0
 40
0.1945430761
 40
0.3819692354
 40
0.5544861136
 40
0.7057081201
 40
0.829932016
 40
0.8803355551
 40
0.9223145812
 40
0.9554552433
 40
0.9794384336
 40
0.9941725549
 40
1.0
 40
1.0
 40
1.0
 40
1.0
 10
51.7811650513
 20
132.62697769
 30
0.0
 10
51.8461091598
 20
132.627960338
 30
0.0
 10
51.9736288142
 20
132.6294741948
 30
0.0
 10
52.1587500007
 20
132.6304369717
 30
0.0
 10
52.3294205984
 20
132.6300399123
 30
0.0
 10
52.4789493033
 20
132.6283051
 30
0.0
 10
52.5877716035
 20
132.6257300951
 30
0.0
 10
52.6599440194
 20
132.6228650483
 30
0.0
 10
52.7019891839
 20
132.6206047248
 30
0.0
 10
52.7344716062
 20
132.618151638
 30
0.0
 10
52.7595187611
 20
132.6155023392
 30
0.0
 10
52.7720006852
 20
132.612958701
 30
0.0
 10
52.7810208971
 20
132.6105712725
 30
0.0
 10
52.7810503453
 20
132.6086259029
 30
0.0
  0
SPLINE
  5
369
100
AcDbEntity
  8
0
100
AcDbSpline
 62
7
  6
CONTINUOUS
 70
0
 71
3
 72
18
 73
14
 74
0
 42
0.0000001
 43
0.0000001
 44
0.0000000001
 40
0.0
 40
0.0
 40
0.0
 40
0.0
 40
0.0058263353
 40
0.0205577969
 40
0.0445370341
 40
0.0776724437
 40
0.1196449705
 40
0.1700418547
 40
0.2942539117
 40
0.4454681853
 40
0.6179863446
 40
0.805426453
 40
1.0
 40
1.0
 40
1.0
 40
1.0
 10
35.3982238435
 20
132.6255037808
 30
0.0
 10
35.3982861041
 20
132.6274469047
 30
0.0
 10
35.4073385057
 20
132.6296800285
 30
0.0
 10
35.4198523835
 20
132.6320108047
 30
0.0
 10
35.4449223503
 20
132.6342351759
 30
0.0
 10
35.4774180073
 20
132.636138149
 30
0.0
 10
35.5194653541
 20
132.6376873506
 30
0.0
 10
35.5916266562
 20
132.6393326605
 30
0.0
 10
35.7004065597
 20
132.6400702028
 30
0.0
 10
35.8498525208
 20
132.6392819791
 30
0.0
 10
36.0204114508
 20
132.6368007306
 30
0.0
 10
36.2054005614
 20
132.632717195
 30
0.0
 10
36.3328192216
 20
132.6290545028
 30
0.0
 10
36.3977109501
 20
132.6269776899
 30
0.0
  0
SPLINE
  5
36A
100
AcDbEntity
  8
0
100
AcDbSpline
 62
7
  6
CONTINUOUS
 70
0
 71
3
 72
18
 73
14
 74
0
 42
0.0000001
 43
0.0000001
 44
0.0000000001
 40
0.0
 40
0.0
 40
0.0
 40
0.0
 40
0.0059202753
 40
0.0206847257
 40
0.0446798921
 40
0.0778225643
 40
0.1197966285
 40
0.1701907255
 40
0.2943871245
 40
0.4455758427
 40
0.6180615497
 40
0.8054650352
 40
1.0
 40
1.0
 40
1.0
 40
1.0
 10
34.967789025
 20
119.1913051608
 30
0.0
 10
34.967852302
 20
119.1932800076
 30
0.0
 10
34.9768070645
 20
119.1957631477
 30
0.0
 10
34.9894607762
 20
119.1981331169
 30
0.0
 10
35.0144778795
 20
119.2005563637
 30
0.0
 10
35.0470083241
 20
119.202574805
 30
0.0
 10
35.0890503916
 20
119.2042673287
 30
0.0
 10
35.1612212156
 20
119.2060883247
 30
0.0
 10
35.2700042023
 20
119.2070102141
 30
0.0
 10
35.4194575454
 20
119.206378985
 30
0.0
 10
35.5900201166
 20
119.2039990595
 30
0.0
 10
35.775011263
 20
119.1999539722
 30
0.0
 10
35.9024298211
 20
119.1962749922
 30
0.0
 10
35.9673210003
 20
119.1941794547
 30
0.0
  0
SPLINE
  5
36B
100
AcDbEntity
  8
0
100
AcDbSpline
 62
7
  6
CONTINUOUS
 70
0
 71
3
 72
11
 73
7
 74
0
 42
0.0000001
 43
0.0000001
 44
0.0000000001
 40
0.0
 40
0.0
 40
0.0
 40
0.0
 40
0.2498925106
 40
0.4998692003
 40
0.7499140424
 40
1.0
 40
1.0
 40
1.0
 40
1.0
 10
35.8974861157
 20
117.0144810048
 30
0.0
 10
35.8893474898
 20
116.7598646898
 30
0.0
 10
35.7730121545
 20
116.2483614183
 30
0.0
 10
35.3242433928
 20
115.6068965765
 30
0.0
 10
34.6687769601
 20
115.1784465014
 30
0.0
 10
34.1535444539
 20
115.0783508137
 30
0.0
 10
33.8986008956
 20
115.0783324834
 30
0.0
  0
SPLINE
  5
36C
100
AcDbEntity
  8
0
100
AcDbSpline
 62
7
  6
CONTINUOUS
 70
0
 71
3
 72
22
 73
18
 74
0
 42
0.0000001
 43
0.0000001
 44
0.0000000001
 40
0.0
 40
0.0
 40
0.0
 40
0.0
 40
0.0149297412
 40
0.0301481149
 40
0.0635350379
 40
0.0973873919
 40
0.1296652456
 40
0.1911395249
 40
0.2512734433
 40
0.313206991
 40
0.3762675287
 40
0.4388219594
 40
0.5009914173
 40
0.625611916
 40
0.7504797357
 40
0.8751395163
 40
1.0
 40
1.0
 40
1.0
 40
1.0
 10
122.2027985236
 20
116.9823572451
 30
0.0
 10
122.195002282
 20
116.9693437074
 30
0.0
 10
122.1847466488
 20
116.9394577887
 30
0.0
 10
122.1865855495
 20
116.874111832
 30
0.0
 10
122.2141091899
 20
116.7941560732
 30
0.0
 10
122.2463225905
 20
116.6985444187
 30
0.0
 10
122.2807487334
 20
116.5734019856
 30
0.0
 10
122.3175618151
 20
116.4215358719
 30
0.0
 10
122.3746866265
 20
116.2433801722
 30
0.0
 10
122.4619617042
 20
116.0758943434
 30
0.0
 10
122.5678669251
 20
115.9172433329
 30
0.0
 10
122.6863835568
 20
115.7673983829
 30
0.0
 10
122.8610063203
 20
115.5833782276
 30
0.0
 10
123.1113765323
 20
115.3862406968
 30
0.0
 10
123.4503873026
 20
115.2089156378
 30
0.0
 10
123.8191369166
 20
115.1050293886
 30
0.0
 10
124.0727773408
 20
115.0826306149
 30
0.0
 10
124.199577196
 20
115.0783794784
 30
0.0
  0
SPLINE
  5
36D
100
AcDbEntity
  8
0
100
AcDbSpline
 62
7
  6
CONTINUOUS
 70
0
 71
3
 72
18
 73
14
 74
0
 42
0.0000001
 43
0.0000001
 44
0.0000000001
 40
0.0
 40
0.0
 40
0.0
 40
0.0
 40
0.0057998771
 40
0.0203290679
 40
0.0441072046
 40
0.0770725607
 40
0.1189098687
 40
0.169224661
 40
0.2934645548
 40
0.4448699125
 40
0.6176393696
 40
0.805278277
 40
1.0
 40
1.0
 40
1.0
 40
1.0
 10
123.2012629917
 20
117.0104392756
 30
0.0
 10
123.2013269409
 20
117.0085048191
 30
0.0
 10
123.1925500737
 20
117.0056385463
 30
0.0
 10
123.1800435121
 20
117.003652
 30
0.0
 10
123.1552403918
 20
117.001170798
 30
0.0
 10
123.1228864324
 20
116.9992674072
 30
0.0
 10
123.0809795086
 20
116.9975476175
 30
0.0
 10
123.0088730784
 20
116.9957206299
 30
0.0
 10
122.9000377627
 20
116.994833471
 30
0.0
 10
122.7504161892
 20
116.9956492512
 30
0.0
 10
122.5796274557
 20
116.9983484627
 30
0.0
 10
122.3944187249
 20
117.0024621636
 30
0.0
 10
122.2668721003
 20
117.0062560834
 30
0.0
 10
122.2019318836
 20
117.0085804821
 30
0.0
  0
SPLINE
  5
36E
100
AcDbEntity
  8
0
100
AcDbSpline
 62
7
  6
CONTINUOUS
 70
0
 71
3
 72
18
 73
14
 74
0
 42
0.0000001
 43
0.0000001
 44
0.0000000001
 40
0.0
 40
0.0
 40
0.0
 40
0.0
 40
0.1945367956
 40
0.3819410521
 40
0.5544267579
 40
0.7056149895
 40
0.8298106842
 40
0.8802044229
 40
0.9221781562
 40
0.9553205465
 40
0.9793154968
 40
0.9940798031
 40
1.0
 40
1.0
 40
1.0
 40
1.0
 10
122.129632334
 20
119.1941793624
 30
0.0
 10
122.1945197443
 20
119.1963407921
 30
0.0
 10
122.3219310125
 20
119.2001491828
 30
0.0
 10
122.5069124991
 20
119.2043822356
 30
0.0
 10
122.6774668301
 20
119.2069355412
 30
0.0
 10
122.8269139504
 20
119.2077187778
 30
0.0
 10
122.9356935863
 20
119.2069076132
 30
0.0
 10
123.0078632955
 20
119.2051601456
 30
0.0
 10
123.0499053053
 20
119.2035104942
 30
0.0
 10
123.0824363986
 20
119.2015252608
 30
0.0
 10
123.1074548943
 20
119.1991276155
 30
0.0
 10
123.1201104322
 20
119.1967706368
 30
0.0
 10
123.1290673499
 20
119.1942967704
 30
0.0
 10
123.1291326322
 20
119.1923220826
 30
0.0
  0
SPLINE
  5
36F
100
AcDbEntity
  8
0
100
AcDbSpline
 62
7
  6
CONTINUOUS
 70
0
 71
3
 72
18
 73
14
 74
0
 42
0.0000001
 43
0.0000001
 44
0.0000000001
 40
0.0
 40
0.0
 40
0.0
 40
0.0
 40
0.1945746284
 40
0.3820123917
 40
0.5545274566
 40
0.7057403578
 40
0.8299519616
 40
0.8803500682
 40
0.9223245441
 40
0.9554610698
 40
0.979441132
 40
0.9941734047
 40
1.0
 40
1.0
 40
1.0
 40
1.0
 10
121.3681963766
 20
142.2269776898
 30
0.0
 10
121.4330841009
 20
142.229120391
 30
0.0
 10
121.5604941902
 20
142.2329124749
 30
0.0
 10
121.7454712687
 20
142.2371839297
 30
0.0
 10
121.9160194778
 20
142.2398385448
 30
0.0
 10
122.0654578009
 20
142.2407788701
 30
0.0
 10
122.1742344812
 20
142.2401521235
 30
0.0
 10
122.2463958473
 20
142.2385803593
 30
0.0
 10
122.2884447767
 20
142.2370741282
 30
0.0
 10
122.320942461
 20
142.2352041991
 30
0.0
 10
122.3460149196
 20
142.2330054566
 30
0.0
 10
122.3585310064
 20
142.2306873269
 30
0.0
 10
122.3675861822
 20
142.2284637832
 30
0.0
 10
122.3676503829
 20
142.2265207021
 30
0.0
  0
SPLINE
  5
370
100
AcDbEntity
  8
0
100
AcDbSpline
 62
7
  6
CONTINUOUS
 70
0
 71
3
 72
15
 73
11
 74
0
 42
0.0000001
 43
0.0000001
 44
0.0000000001
 40
0.0
 40
0.0
 40
0.0
 40
0.0
 40
0.0412975441
 40
0.0699539025
 40
0.1054250358
 40
0.1978717938
 40
0.3183601576
 40
0.463905768
 40
0.6299866498
 40
1.0
 40
1.0
 40
1.0
 40
1.0
 10
66.5459830424
 20
143.1934799814
 30
0.0
 10
66.5320029199
 20
143.1934799814
 30
0.0
 10
66.5093126735
 20
143.179550008
 30
0.0
 10
66.487754445
 20
143.1515412491
 30
0.0
 10
66.4615503706
 20
143.1050831907
 30
0.0
 10
66.433121188
 20
143.0256113441
 30
0.0
 10
66.404265141
 20
142.9076286163
 30
0.0
 10
66.3801693679
 20
142.7632297871
 30
0.0
 10
66.3546433204
 20
142.5338306796
 30
0.0
 10
66.3469349044
 20
142.3522324909
 30
0.0
 10
66.3460952836
 20
142.2269776886
 30
0.0
  0
ENDSEC
  0
SECTION
  2
OBJECTS
  0
DICTIONARY
  5
C
100
AcDbDictionary
280
0
281
1
  3
ACAD_GROUP
350
D
  3
ACAD_MLINESTYLE
350
17
  3
ACAD_LAYOUT
350
1A
  3
ACAD_PLOTSETTINGS
350
19
  3
ACAD_PLOTSTYLENAME
350
E
  0
DICTIONARY
  5
D
102
{ACAD_REACTORS
330
C
102
}
100
AcDbDictionary
280
0
281
1
  0
ACDBDICTIONARYWDFLT
  5
E
102
{ACAD_REACTORS
330
C
102
}
100
AcDbDictionary
281
1
  3
Normal
350
F
100
AcDbDictionaryWithDefault
340
F
  0
DICTIONARY
  5
17
102
{ACAD_REACTORS
330
C
102
}
100
AcDbDictionary
280
0
281
1
  3
Standard
350
18
  0
DICTIONARY
  5
19
102
{ACAD_REACTORS
330
C
102
}
100
AcDbDictionary
281
1
  0
DICTIONARY
  5
1A
102
{ACAD_REACTORS
330
C
102
}
100
AcDbDictionary
281
1
  3
Model
350
371
  3
Layout1
350
372
  0
ACDBPLACEHOLDER
  5
F
102
{ACAD_REACTORS
330
E
102
}
  0
MLINESTYLE
  5
18
102
{ACAD_REACTORS
330
17
102
}
100
AcDbMlineStyle
  2
STANDARD
 70
0
  3

 62
256
 51
90.0
 52
90.0
 71
2
 49
0.5
 62
256
  6
BYLAYER
 49
-0.5
 62
256
  6
BYLAYER
  0
LAYOUT
  5
371
102
{ACAD_REACTORS
330
1A
102
}
100
AcDbPlotSettings
  1

  2
none_device
  4

  6

 40
0.0
 41
0.0
 42
0.0
 43
0.0
 44
210.0
 45
297.0
 46
0.0
 47
0.0
 48
0.0
 49
0.0
140
0.0
141
0.0
142
1.0
143
1.0
 70
1024
 72
1
 73
0
 74
0
  7

 75
0
147
1.0
148
0.0
149
0.0
100
AcDbLayout
  1
Model
 70
0
 71
0
 10
0.0
 20
0.0
 11
210.0
 21
297.0
 12
0.0
 22
0.0
 32
0.0
 14
0.0
 24
0.0
 34
0.0
 15
0.0
 25
0.0
 35
0.0
146
0.0
 13
0.0
 23
0.0
 33
0.0
 16
1.0
 26
0.0
 36
0.0
 17
0.0
 27
1.0
 37
0.0
 76
0
330
210
345
0
346
0
  0
LAYOUT
  5
372
102
{ACAD_REACTORS
330
1A
102
}
100
AcDbPlotSettings
  1

  2
none_device
  4

  6

 40
0.0
 41
0.0
 42
0.0
 43
0.0
 44
210.0
 45
297.0
 46
0.0
 47
0.0
 48
0.0
 49
0.0
140
0.0
141
0.0
142
1.0
143
1.0
 70
0
 72
1
 73
0
 74
0
  7

 75
0
147
1.0
148
0.0
149
0.0
100
AcDbLayout
  1
Layout1
 70
0
 71
1
 10
0.0
 20
0.0
 11
210.0
 21
297.0
 12
0.0
 22
0.0
 32
0.0
 14
0.0
 24
0.0
 34
0.0
 15
0.0
 25
0.0
 35
0.0
146
0.0
 13
0.0
 23
0.0
 33
0.0
 16
1.0
 26
0.0
 36
0.0
 17
0.0
 27
1.0
 37
0.0
 76
0
330
211
345
0
346
0
  0
ENDSEC
  0
EOF
